<?xml version="1.0" standalone="no"?>
 <!DOCTYPE svg PUBLIC "-//W3C//DTD SVG 1.1//EN" 
 "http://www.w3.org/Graphics/SVG/1.1/DTD/svg11.dtd"> 
<svg xmlns="http://www.w3.org/2000/svg" version="1.1" 
    width="29.7002cm" height="21.0007cm" viewBox="0 0 116930 82680 ">
<title>SVG Picture created as #510-000-S1A - Audio Jack PCB [Input, Pads L]-F_SilkS.svg date 2020/01/07 18:27:15 </title>
  <desc>Picture generated by PCBNEW </desc>
<g style="fill:#000000; fill-opacity:1;stroke:#000000; stroke-opacity:1;
stroke-linecap:round; stroke-linejoin:round; "
 transform="translate(0 0) scale(1 1)">
</g>
<g style="fill:#000000; fill-opacity:0.0; 
stroke:#000000; stroke-width:-0.000393701; stroke-opacity:1; 
stroke-linecap:round; stroke-linejoin:round;">
</g>
<g style="fill:#000000; fill-opacity:0.0; 
stroke:#000000; stroke-width:150; stroke-opacity:1; 
stroke-linecap:round; stroke-linejoin:round;">
<path d="M80343.5 36750 A250 250 0.0 0 0 80093.5 36500 " />
<path d="M80093.5 44250 A250 250 0.0 0 0 80343.5 44000 " />
<path d="M71718.5 44000 A250 250 0.0 0 0 71968.5 44250 " />
<path d="M71968.5 36500 A250 250 0.0 0 0 71718.5 36750 " />
<path d="M71718 44000
L71718 36750
" />
<path d="M80093 44250
L71968 44250
" />
<path d="M80343 36750
L80343 44000
" />
<path d="M71968 36500
L80093 36500
" />
</g>
<g style="fill:#000000; fill-opacity:0.0; 
stroke:#000000; stroke-width:60; stroke-opacity:1; 
stroke-linecap:round; stroke-linejoin:round;">
<path d="M75425 38521
L75196 38521
L75150 38506
L75120 38476
L75105 38430
L75105 38400
" />
<path d="M75105 38826
L75105 38674
L75425 38674
" />
<path d="M75135 39116
L75120 39100
L75105 39055
L75105 39024
L75120 38979
L75150 38948
L75181 38933
L75242 38918
L75288 38918
L75349 38933
L75379 38948
L75410 38979
L75425 39024
L75425 39055
L75410 39100
L75394 39116
" />
<path d="M75425 39344
L75196 39344
L75150 39329
L75120 39299
L75105 39253
L75105 39222
" />
<path d="M75105 39649
L75105 39497
L75425 39497
" />
<path d="M75135 39939
L75120 39923
L75105 39878
L75105 39847
L75120 39801
L75150 39771
L75181 39756
L75242 39740
L75288 39740
L75349 39756
L75379 39771
L75410 39801
L75425 39847
L75425 39878
L75410 39923
L75394 39939
" />
<path d="M75425 40167
L75196 40167
L75150 40152
L75120 40121
L75105 40076
L75105 40045
" />
<path d="M75105 40472
L75105 40320
L75425 40320
" />
<path d="M75135 40761
L75120 40746
L75105 40700
L75105 40670
L75120 40624
L75150 40594
L75181 40579
L75242 40563
L75288 40563
L75349 40579
L75379 40594
L75410 40624
L75425 40670
L75425 40700
L75410 40746
L75394 40761
" />
<path d="M75425 40990
L75196 40990
L75150 40975
L75120 40944
L75105 40899
L75105 40868
" />
<path d="M75105 41295
L75105 41142
L75425 41142
" />
<path d="M75135 41584
L75120 41569
L75105 41523
L75105 41493
L75120 41447
L75150 41417
L75181 41401
L75242 41386
L75288 41386
L75349 41401
L75379 41417
L75410 41447
L75425 41493
L75425 41523
L75410 41569
L75394 41584
" />
<g >
</g>
<g >
</g>
<g >
</g>
<g >
</g>
<g >
</g>
<g >
</g>
<g >
</g>
<g >
</g>
<g >
</g>
<g >
</g>
<g >
</g>
</g> 
</svg>
