<?xml version="1.0" standalone="no"?>
 <!DOCTYPE svg PUBLIC "-//W3C//DTD SVG 1.1//EN" 
 "http://www.w3.org/Graphics/SVG/1.1/DTD/svg11.dtd"> 
<svg xmlns="http://www.w3.org/2000/svg" version="1.1" 
    width="29.7002cm" height="21.0007cm" viewBox="0 0 116930 82680 ">
<title>SVG Picture created as #510-000-S1A - Audio Jack PCB [Input, Pads L]-B_Mask.svg date 2020/01/07 18:27:15 </title>
  <desc>Picture generated by PCBNEW </desc>
<g style="fill:#000000; fill-opacity:1;stroke:#000000; stroke-opacity:1;
stroke-linecap:round; stroke-linejoin:round; "
 transform="translate(0 0) scale(1 1)">
</g>
<g style="fill:#000000; fill-opacity:0.0; 
stroke:#000000; stroke-width:-0.000393701; stroke-opacity:1; 
stroke-linecap:round; stroke-linejoin:round;">
</g>
<g style="fill:#000000; fill-opacity:0.0; 
stroke:#000000; stroke-width:60; stroke-opacity:1; 
stroke-linecap:round; stroke-linejoin:round;">
<path d="M75096 43629
L75050 43644
L74974 43644
L74943 43629
L74928 43614
L74913 43583
L74913 43553
L74928 43522
L74943 43507
L74974 43492
L75035 43477
L75065 43461
L75081 43446
L75096 43416
L75096 43385
L75081 43355
L75065 43340
L75035 43324
L74959 43324
L74913 43340
" />
<path d="M74547 43309
L74822 43720
" />
<path d="M74441 43644
L74441 43324
L74258 43644
L74258 43324
" />
<path d="M74105 43614
L74090 43629
L74105 43644
L74121 43629
L74105 43614
L74105 43644
" />
<path d="M74105 43446
L74090 43461
L74105 43477
L74121 43461
L74105 43446
L74105 43477
" />
<path d="M77486 43644
L77593 43492
" />
<path d="M77669 43644
L77669 43324
L77547 43324
L77517 43340
L77501 43355
L77486 43385
L77486 43431
L77501 43461
L77517 43477
L77547 43492
L77669 43492
" />
<path d="M77349 43477
L77242 43477
" />
<path d="M77197 43644
L77349 43644
L77349 43324
L77197 43324
" />
<path d="M77105 43324
L76998 43644
L76892 43324
" />
<path d="M76785 43614
L76770 43629
L76785 43644
L76800 43629
L76785 43614
L76785 43644
" />
<path d="M76785 43446
L76770 43461
L76785 43477
L76800 43461
L76785 43446
L76785 43477
" />
<path d="M76404 43553
L76252 43553
" />
<path d="M76435 43644
L76328 43324
L76221 43644
" />
<path d="M77725 41056
L77496 41056
" />
<path d="M77633 40919
L77725 41330
" />
<path d="M77527 41193
L77755 41193
" />
<path d="M77618 41330
L77527 40919
" />
<path d="M77328 40949
L77298 40949
L77268 40965
L77252 40980
L77237 41010
L77222 41071
L77222 41147
L77237 41208
L77252 41239
L77268 41254
L77298 41269
L77328 41269
L77359 41254
L77374 41239
L77389 41208
L77405 41147
L77405 41071
L77389 41010
L77374 40980
L77359 40965
L77328 40949
" />
<path d="M77024 40949
L76993 40949
L76963 40965
L76948 40980
L76932 41010
L76917 41071
L76917 41147
L76932 41208
L76948 41239
L76963 41254
L76993 41269
L77024 41269
L77054 41254
L77069 41239
L77085 41208
L77100 41147
L77100 41071
L77085 41010
L77069 40980
L77054 40965
L77024 40949
" />
<path d="M76810 40949
L76612 40949
L76719 41071
L76673 41071
L76643 41086
L76628 41102
L76612 41132
L76612 41208
L76628 41239
L76643 41254
L76673 41269
L76765 41269
L76795 41254
L76810 41239
" />
<path d="M76475 41147
L76231 41147
" />
<path d="M75927 40949
L76079 40949
L76094 41102
L76079 41086
L76048 41071
L75972 41071
L75942 41086
L75927 41102
L75911 41132
L75911 41208
L75927 41239
L75942 41254
L75972 41269
L76048 41269
L76079 41254
L76094 41239
" />
<path d="M75607 41269
L75789 41269
" />
<path d="M75698 41269
L75698 40949
L75728 40995
L75759 41025
L75789 41041
" />
<path d="M75408 40949
L75378 40949
L75348 40965
L75332 40980
L75317 41010
L75302 41071
L75302 41147
L75317 41208
L75332 41239
L75348 41254
L75378 41269
L75408 41269
L75439 41254
L75454 41239
L75469 41208
L75485 41147
L75485 41071
L75469 41010
L75454 40980
L75439 40965
L75408 40949
" />
<path d="M75165 41147
L74921 41147
" />
<path d="M74708 40949
L74677 40949
L74647 40965
L74631 40980
L74616 41010
L74601 41071
L74601 41147
L74616 41208
L74631 41239
L74647 41254
L74677 41269
L74708 41269
L74738 41254
L74753 41239
L74768 41208
L74784 41147
L74784 41071
L74768 41010
L74753 40980
L74738 40965
L74708 40949
" />
<path d="M74403 40949
L74372 40949
L74342 40965
L74327 40980
L74311 41010
L74296 41071
L74296 41147
L74311 41208
L74327 41239
L74342 41254
L74372 41269
L74403 41269
L74433 41254
L74448 41239
L74464 41208
L74479 41147
L74479 41071
L74464 41010
L74448 40980
L74433 40965
L74403 40949
" />
<path d="M74098 40949
L74068 40949
L74037 40965
L74022 40980
L74007 41010
L73991 41071
L73991 41147
L74007 41208
L74022 41239
L74037 41254
L74068 41269
L74098 41269
L74128 41254
L74144 41239
L74159 41208
L74174 41147
L74174 41071
L74159 41010
L74144 40980
L74128 40965
L74098 40949
" />
<path d="M73854 41147
L73610 41147
" />
<path d="M73473 41254
L73428 41269
L73351 41269
L73321 41254
L73306 41239
L73290 41208
L73290 41178
L73306 41147
L73321 41132
L73351 41117
L73412 41102
L73443 41086
L73458 41071
L73473 41041
L73473 41010
L73458 40980
L73443 40965
L73412 40949
L73336 40949
L73290 40965
" />
<path d="M72986 41269
L73168 41269
" />
<path d="M73077 41269
L73077 40949
L73108 40995
L73138 41025
L73168 41041
" />
<path d="M72864 41178
L72711 41178
" />
<path d="M72894 41269
L72788 40949
L72681 41269
" />
<path d="M77085 38556
L76856 38556
" />
<path d="M76993 38419
L77085 38830
" />
<path d="M76887 38693
L77115 38693
" />
<path d="M76978 38830
L76887 38419
" />
<path d="M76688 38449
L76658 38449
L76628 38465
L76612 38480
L76597 38510
L76582 38571
L76582 38647
L76597 38708
L76612 38739
L76628 38754
L76658 38769
L76688 38769
L76719 38754
L76734 38739
L76749 38708
L76765 38647
L76765 38571
L76749 38510
L76734 38480
L76719 38465
L76688 38449
" />
<path d="M76384 38449
L76353 38449
L76323 38465
L76308 38480
L76292 38510
L76277 38571
L76277 38647
L76292 38708
L76308 38739
L76323 38754
L76353 38769
L76384 38769
L76414 38754
L76429 38739
L76445 38708
L76460 38647
L76460 38571
L76445 38510
L76429 38480
L76414 38465
L76384 38449
" />
<path d="M76170 38449
L75972 38449
L76079 38571
L76033 38571
L76003 38586
L75988 38602
L75972 38632
L75972 38708
L75988 38739
L76003 38754
L76033 38769
L76125 38769
L76155 38754
L76170 38739
" />
<path d="M75835 38647
L75591 38647
" />
<path d="M75287 38449
L75439 38449
L75454 38602
L75439 38586
L75408 38571
L75332 38571
L75302 38586
L75287 38602
L75271 38632
L75271 38708
L75287 38739
L75302 38754
L75332 38769
L75408 38769
L75439 38754
L75454 38739
" />
<path d="M75073 38449
L75043 38449
L75012 38465
L74997 38480
L74982 38510
L74967 38571
L74967 38647
L74982 38708
L74997 38739
L75012 38754
L75043 38769
L75073 38769
L75104 38754
L75119 38739
L75134 38708
L75149 38647
L75149 38571
L75134 38510
L75119 38480
L75104 38465
L75073 38449
" />
<path d="M74768 38449
L74738 38449
L74708 38465
L74692 38480
L74677 38510
L74662 38571
L74662 38647
L74677 38708
L74692 38739
L74708 38754
L74738 38769
L74768 38769
L74799 38754
L74814 38739
L74829 38708
L74845 38647
L74845 38571
L74829 38510
L74814 38480
L74799 38465
L74768 38449
" />
<path d="M74525 38647
L74281 38647
" />
<path d="M74068 38449
L74037 38449
L74007 38465
L73991 38480
L73976 38510
L73961 38571
L73961 38647
L73976 38708
L73991 38739
L74007 38754
L74037 38769
L74068 38769
L74098 38754
L74113 38739
L74128 38708
L74144 38647
L74144 38571
L74128 38510
L74113 38480
L74098 38465
L74068 38449
" />
<path d="M73763 38449
L73732 38449
L73702 38465
L73687 38480
L73671 38510
L73656 38571
L73656 38647
L73671 38708
L73687 38739
L73702 38754
L73732 38769
L73763 38769
L73793 38754
L73808 38739
L73824 38708
L73839 38647
L73839 38571
L73824 38510
L73808 38480
L73793 38465
L73763 38449
" />
<path d="M73458 38449
L73428 38449
L73397 38465
L73382 38480
L73367 38510
L73351 38571
L73351 38647
L73367 38708
L73382 38739
L73397 38754
L73428 38769
L73458 38769
L73488 38754
L73504 38739
L73519 38708
L73534 38647
L73534 38571
L73519 38510
L73504 38480
L73488 38465
L73458 38449
" />
</g>
<g style="fill:#000000; fill-opacity:0.0; 
stroke:#000000; stroke-width:150; stroke-opacity:1; 
stroke-linecap:round; stroke-linejoin:round;">
<path d="M80343.5 36750 A250 250 0.0 0 0 80093.5 36500 " />
<path d="M80093.5 44250 A250 250 0.0 0 0 80343.5 44000 " />
<path d="M71718.5 44000 A250 250 0.0 0 0 71968.5 44250 " />
<path d="M71968.5 36500 A250 250 0.0 0 0 71718.5 36750 " />
<path d="M71718 44000
L71718 36750
" />
<path d="M80093 44250
L71968 44250
" />
<path d="M80343 36750
L80343 44000
" />
<path d="M71968 36500
L80093 36500
" />
<g >
</g>
<g style="fill:#000000; fill-opacity:0.0; 
stroke:#000000; stroke-width:1299.84; stroke-opacity:1; 
stroke-linecap:round; stroke-linejoin:round;">
<path d="M72557 37370
L73187 37370
" />
<path d="M72557 39870
L73187 39870
" />
<path d="M72557 42370
L73187 42370
" />
<path d="M77057 42370
L77687 42370
" />
<path d="M77057 39870
L77687 39870
" />
<path d="M77057 37370
L77687 37370
" />
</g>
<g >
</g>
<g style="fill:#000000; fill-opacity:0.0; 
stroke:#000000; stroke-width:1299.84; stroke-opacity:1; 
stroke-linecap:round; stroke-linejoin:round;">
</g>
<g style="fill:#000000; fill-opacity:1.0; 
stroke:#000000; stroke-width:0; stroke-opacity:1; 
stroke-linecap:round; stroke-linejoin:round;">
<circle cx="78946.9" cy="42370.1" r="334.961" /> 
</g>
<g style="fill:#000000; fill-opacity:1.0; 
stroke:#000000; stroke-width:39.3701; stroke-opacity:1; 
stroke-linecap:round; stroke-linejoin:round;">
</g>
<g >
</g>
<g style="fill:#000000; fill-opacity:1.0; 
stroke:#000000; stroke-width:39.3701; stroke-opacity:1; 
stroke-linecap:round; stroke-linejoin:round;">
</g>
<g style="fill:#000000; fill-opacity:1.0; 
stroke:#000000; stroke-width:0; stroke-opacity:1; 
stroke-linecap:round; stroke-linejoin:round;">
<circle cx="78946.9" cy="39870.1" r="334.961" /> 
</g>
<g style="fill:#000000; fill-opacity:1.0; 
stroke:#000000; stroke-width:39.3701; stroke-opacity:1; 
stroke-linecap:round; stroke-linejoin:round;">
</g>
<g >
</g>
<g style="fill:#000000; fill-opacity:1.0; 
stroke:#000000; stroke-width:39.3701; stroke-opacity:1; 
stroke-linecap:round; stroke-linejoin:round;">
</g>
<g style="fill:#000000; fill-opacity:1.0; 
stroke:#000000; stroke-width:0; stroke-opacity:1; 
stroke-linecap:round; stroke-linejoin:round;">
<circle cx="78946.9" cy="37370.1" r="334.961" /> 
</g>
<g style="fill:#000000; fill-opacity:1.0; 
stroke:#000000; stroke-width:39.3701; stroke-opacity:1; 
stroke-linecap:round; stroke-linejoin:round;">
</g>
<g >
</g>
<g style="fill:#000000; fill-opacity:1.0; 
stroke:#000000; stroke-width:39.3701; stroke-opacity:1; 
stroke-linecap:round; stroke-linejoin:round;">
</g>
<g style="fill:#000000; fill-opacity:1.0; 
stroke:#000000; stroke-width:433.701; stroke-opacity:1; 
stroke-linecap:round; stroke-linejoin:round;">
</g>
<g style="fill:#000000; fill-opacity:0.0; 
stroke:#000000; stroke-width:433.701; stroke-opacity:1; 
stroke-linecap:round; stroke-linejoin:round;">
<path d="M79340 42875
L79734 42875
" />
</g>
<g >
</g>
<g style="fill:#000000; fill-opacity:0.0; 
stroke:#000000; stroke-width:433.701; stroke-opacity:1; 
stroke-linecap:round; stroke-linejoin:round;">
<path d="M79340 40375
L79734 40375
" />
</g>
<g >
</g>
<g style="fill:#000000; fill-opacity:0.0; 
stroke:#000000; stroke-width:433.701; stroke-opacity:1; 
stroke-linecap:round; stroke-linejoin:round;">
<path d="M79340 41875
L79734 41875
" />
</g>
<g >
</g>
<g style="fill:#000000; fill-opacity:0.0; 
stroke:#000000; stroke-width:433.701; stroke-opacity:1; 
stroke-linecap:round; stroke-linejoin:round;">
<path d="M79340 37875
L79734 37875
" />
</g>
<g >
</g>
<g style="fill:#000000; fill-opacity:0.0; 
stroke:#000000; stroke-width:433.701; stroke-opacity:1; 
stroke-linecap:round; stroke-linejoin:round;">
<path d="M79340 39375
L79734 39375
" />
</g>
<g >
</g>
<g style="fill:#000000; fill-opacity:0.0; 
stroke:#000000; stroke-width:433.701; stroke-opacity:1; 
stroke-linecap:round; stroke-linejoin:round;">
<path d="M79340 36875
L79734 36875
" />
</g>
<g >
</g>
<g >
</g>
<g >
</g>
</g> 
</svg>
