<?xml version="1.0" standalone="no"?>
 <!DOCTYPE svg PUBLIC "-//W3C//DTD SVG 1.1//EN" 
 "http://www.w3.org/Graphics/SVG/1.1/DTD/svg11.dtd"> 
<svg
  xmlns:svg="http://www.w3.org/2000/svg"
  xmlns="http://www.w3.org/2000/svg"
  xmlns:xlink="http://www.w3.org/1999/xlink"
  version="1.1"
  width="29.700220cm" height="21.000720cm" viewBox="0 0 297002200 210007200">
<title>SVG Picture created as #110-000-S1A - Phasor PCB-F_Cu.svg date 2020/07/05 21:02:58 </title>
  <desc>Picture generated by PCBNEW </desc>
<g style="fill:#000000; fill-opacity:1.000000;stroke:#000000; stroke-opacity:1.000000;
stroke-linecap:round; stroke-linejoin:round;"
 transform="translate(0 0) scale(1 1)">
</g>
<g style="fill:#000000; fill-opacity:0.0; 
stroke:#000000; stroke-width:0.000000; stroke-opacity:1; 
stroke-linecap:round; stroke-linejoin:round;">
</g>
<g style="fill:#000000; fill-opacity:0.0; 
stroke:#000000; stroke-width:300000.000000; stroke-opacity:1; 
stroke-linecap:round; stroke-linejoin:round;">
<text x="170637200.000000" y="87110000.000000"
textLength="39610571.000000" font-size="4000000.000000" lengthAdjust="spacingAndGlyphs"
text-anchor="middle" opacity="0">PURPLE HAZOR II</text>
<g class="stroked-text"><desc>PURPLE HAZOR II</desc>
<path d="M189637200 87038571
L189637200 85538571
L188494343 85538571
L188208629 85610000
L188065772 85681428
L187922915 85824285
L187922915 86038571
L188065772 86181428
L188208629 86252857
L188494343 86324285
L189637200 86324285
" />
<path d="M186637200 85538571
L186637200 86752857
L186494343 86895714
L186351486 86967142
L186065772 87038571
L185494343 87038571
L185208629 86967142
L185065772 86895714
L184922915 86752857
L184922915 85538571
" />
<path d="M181780058 87038571
L182780058 86324285
" />
<path d="M183494343 87038571
L183494343 85538571
L182351486 85538571
L182065772 85610000
L181922915 85681428
L181780058 85824285
L181780058 86038571
L181922915 86181428
L182065772 86252857
L182351486 86324285
L183494343 86324285
" />
<path d="M180494343 87038571
L180494343 85538571
L179351486 85538571
L179065772 85610000
L178922915 85681428
L178780058 85824285
L178780058 86038571
L178922915 86181428
L179065772 86252857
L179351486 86324285
L180494343 86324285
" />
<path d="M176065772 87038571
L177494343 87038571
L177494343 85538571
" />
<path d="M175065772 86252857
L174065772 86252857
" />
<path d="M173637200 87038571
L175065772 87038571
L175065772 85538571
L173637200 85538571
" />
<path d="M170065772 87038571
L170065772 85538571
" />
<path d="M170065772 86252857
L168351486 86252857
" />
<path d="M168351486 87038571
L168351486 85538571
" />
<path d="M167065772 86610000
L165637200 86610000
" />
<path d="M167351486 87038571
L166351486 85538571
L165351486 87038571
" />
<path d="M164637200 85538571
L162637200 85538571
L164637200 87038571
L162637200 87038571
" />
<path d="M160922915 85538571
L160351486 85538571
L160065772 85610000
L159780058 85752857
L159637200 86038571
L159637200 86538571
L159780058 86824285
L160065772 86967142
L160351486 87038571
L160922915 87038571
L161208629 86967142
L161494343 86824285
L161637200 86538571
L161637200 86038571
L161494343 85752857
L161208629 85610000
L160922915 85538571
" />
<path d="M156637200 87038571
L157637200 86324285
" />
<path d="M158351486 87038571
L158351486 85538571
L157208629 85538571
L156922915 85610000
L156780058 85681428
L156637200 85824285
L156637200 86038571
L156780058 86181428
L156922915 86252857
L157208629 86324285
L158351486 86324285
" />
<path d="M153065772 87038571
L153065772 85538571
" />
<path d="M151637200 87038571
L151637200 85538571
" />
</g></g>
<g style="fill:#000000; fill-opacity:0.0; 
stroke:#000000; stroke-width:140000.000000; stroke-opacity:1; 
stroke-linecap:round; stroke-linejoin:round;">
<g transform="rotate(-90.000000 100088700.000000 115316000.000000)">
<text x="100088700.000000" y="115616000.000000"
textLength="4361429.000000" font-size="800000.000000" lengthAdjust="spacingAndGlyphs"
text-anchor="start" opacity="0">PWR LED</text>
</g>
<g class="stroked-text"><desc>PWR LED</desc>
<path d="M99817272 115082142
L100417272 115082142
L100417272 114853571
L100388700 114796428
L100360129 114767857
L100302986 114739285
L100217272 114739285
L100160129 114767857
L100131558 114796428
L100102986 114853571
L100102986 115082142
" />
<path d="M100417272 114539285
L99817272 114396428
L100245843 114282142
L99817272 114167857
L100417272 114025000
" />
<path d="M99817272 113453571
L100102986 113653571
" />
<path d="M99817272 113796428
L100417272 113796428
L100417272 113567857
L100388700 113510714
L100360129 113482142
L100302986 113453571
L100217272 113453571
L100160129 113482142
L100131558 113510714
L100102986 113567857
L100102986 113796428
" />
<path d="M99817272 112453571
L99817272 112739285
L100417272 112739285
" />
<path d="M100131558 112253571
L100131558 112053571
" />
<path d="M99817272 111967857
L99817272 112253571
L100417272 112253571
L100417272 111967857
" />
<path d="M99817272 111710714
L100417272 111710714
L100417272 111567857
L100388700 111482142
L100331558 111425000
L100274415 111396428
L100160129 111367857
L100074415 111367857
L99960129 111396428
L99902986 111425000
L99845843 111482142
L99817272 111567857
L99817272 111710714
" />
</g><g transform="rotate(-270.000000 96024700.000000 109220000.000000)">
<text x="96024700.000000" y="109520000.000000"
textLength="1296286.000000" font-size="800000.000000" lengthAdjust="spacingAndGlyphs"
text-anchor="start" opacity="0">E2</text>
</g>
<g class="stroked-text"><desc>E2</desc>
<path d="M95981843 109453857
L95981843 109653857
" />
<path d="M96296129 109739571
L96296129 109453857
L95696129 109453857
L95696129 109739571
" />
<path d="M95753272 109968142
L95724700 109996714
L95696129 110053857
L95696129 110196714
L95724700 110253857
L95753272 110282428
L95810415 110311000
L95867558 110311000
L95953272 110282428
L96296129 109939571
L96296129 110311000
" />
</g><g transform="rotate(-45.000000 98564700.000000 120904000.000000)">
<text x="98564700.000000" y="121204000.000000"
textLength="1296286.000000" font-size="800000.000000" lengthAdjust="spacingAndGlyphs"
text-anchor="start" opacity="0">E0</text>
</g>
<g class="stroked-text"><desc>E0</desc>
<path d="M98429643 120708333
L98288222 120566912
" />
<path d="M98005379 120728536
L98207410 120930567
L98631674 120506302
L98429643 120304272
" />
<path d="M98167003 120041632
L98126597 120001226
L98065988 119981023
L98025582 119981023
L97964973 120001226
L97863958 120061835
L97762942 120162851
L97702333 120263866
L97682130 120324475
L97682130 120364881
L97702333 120425490
L97742739 120465896
L97803349 120486099
L97843755 120486099
L97904364 120465896
L98005379 120405287
L98106394 120304272
L98167003 120203257
L98187206 120142648
L98187206 120102241
L98167003 120041632
" />
</g><g transform="rotate(-270.000000 195084700.000000 136144000.000000)">
<text x="195084700.000000" y="136444000.000000"
textLength="1296286.000000" font-size="800000.000000" lengthAdjust="spacingAndGlyphs"
text-anchor="start" opacity="0">E6</text>
</g>
<g class="stroked-text"><desc>E6</desc>
<path d="M195041843 136377857
L195041843 136577857
" />
<path d="M195356129 136663571
L195356129 136377857
L194756129 136377857
L194756129 136663571
" />
<path d="M194756129 137177857
L194756129 137063571
L194784700 137006428
L194813272 136977857
L194898986 136920714
L195013272 136892142
L195241843 136892142
L195298986 136920714
L195327558 136949285
L195356129 137006428
L195356129 137120714
L195327558 137177857
L195298986 137206428
L195241843 137235000
L195098986 137235000
L195041843 137206428
L195013272 137177857
L194984700 137120714
L194984700 137006428
L195013272 136949285
L195041843 136920714
L195098986 136892142
" />
</g><g transform="rotate(-315.000000 201688700.000000 119380000.000000)">
<text x="201688700.000000" y="119680000.000000"
textLength="1296286.000000" font-size="800000.000000" lengthAdjust="spacingAndGlyphs"
text-anchor="start" opacity="0">E5</text>
</g>
<g class="stroked-text"><desc>E5</desc>
<path d="M201493034 119515057
L201351613 119656478
" />
<path d="M201513237 119939321
L201715268 119737290
L201291003 119313026
L201088973 119515057
" />
<path d="M200705115 119898915
L200907145 119696884
L201129379 119878712
L201088973 119878712
L201028364 119898915
L200927349 119999930
L200907145 120060539
L200907145 120100945
L200927349 120161555
L201028364 120262570
L201088973 120282773
L201129379 120282773
L201189988 120262570
L201291003 120161555
L201311206 120100945
L201311206 120060539
" />
</g><g transform="rotate(-315.000000 198640700.000000 116332000.000000)">
<text x="198640700.000000" y="116632000.000000"
textLength="1296286.000000" font-size="800000.000000" lengthAdjust="spacingAndGlyphs"
text-anchor="start" opacity="0">E4</text>
</g>
<g class="stroked-text"><desc>E4</desc>
<path d="M198445034 116467057
L198303613 116608478
" />
<path d="M198465237 116891321
L198667268 116689290
L198243003 116265026
L198040973 116467057
" />
<path d="M197818739 116972133
L198101582 117254976
" />
<path d="M197758130 116709494
L198162191 116911524
L197899552 117174164
" />
</g><text x="197624700.000000" y="86025000.000000"
textLength="1296286.000000" font-size="800000.000000" lengthAdjust="spacingAndGlyphs"
text-anchor="start" opacity="0">E3</text>
<g class="stroked-text"><desc>E3</desc>
<path d="M197390843 85682142
L197190843 85682142
" />
<path d="M197105129 85996428
L197390843 85996428
L197390843 85396428
L197105129 85396428
" />
<path d="M196905129 85396428
L196533700 85396428
L196733700 85625000
L196647986 85625000
L196590843 85653571
L196562272 85682142
L196533700 85739285
L196533700 85882142
L196562272 85939285
L196590843 85967857
L196647986 85996428
L196819415 85996428
L196876558 85967857
L196905129 85939285
" />
</g><g transform="rotate(-270.000000 202704700.000000 55372000.000000)">
<text x="202704700.000000" y="55672000.000000"
textLength="1296286.000000" font-size="800000.000000" lengthAdjust="spacingAndGlyphs"
text-anchor="start" opacity="0">E1</text>
</g>
<g class="stroked-text"><desc>E1</desc>
<path d="M202661843 55605857
L202661843 55805857
" />
<path d="M202976129 55891571
L202976129 55605857
L202376129 55605857
L202376129 55891571
" />
<path d="M202976129 56463000
L202976129 56120142
" />
<path d="M202976129 56291571
L202376129 56291571
L202461843 56234428
L202518986 56177285
L202547558 56120142
" />
</g></g>
<g style="fill:#000000; fill-opacity:0.0; 
stroke:#000000; stroke-width:150000.000000; stroke-opacity:1; 
stroke-linecap:round; stroke-linejoin:round;">
<text x="149364700.000000" y="145186250.000000"
textLength="19896286.000000" font-size="2000000.000000" lengthAdjust="spacingAndGlyphs"
text-anchor="middle" opacity="0">PURPLE HAZOR II</text>
<g class="stroked-text"><desc>PURPLE HAZOR II</desc>
<path d="M158864700 145150535
L158864700 144400535
L158293272 144400535
L158150415 144436250
L158078986 144471964
L158007558 144543392
L158007558 144650535
L158078986 144721964
L158150415 144757678
L158293272 144793392
L158864700 144793392
" />
<path d="M157364700 144400535
L157364700 145007678
L157293272 145079107
L157221843 145114821
L157078986 145150535
L156793272 145150535
L156650415 145114821
L156578986 145079107
L156507558 145007678
L156507558 144400535
" />
<path d="M154936129 145150535
L155436129 144793392
" />
<path d="M155793272 145150535
L155793272 144400535
L155221843 144400535
L155078986 144436250
L155007558 144471964
L154936129 144543392
L154936129 144650535
L155007558 144721964
L155078986 144757678
L155221843 144793392
L155793272 144793392
" />
<path d="M154293272 145150535
L154293272 144400535
L153721843 144400535
L153578986 144436250
L153507558 144471964
L153436129 144543392
L153436129 144650535
L153507558 144721964
L153578986 144757678
L153721843 144793392
L154293272 144793392
" />
<path d="M152078986 145150535
L152793272 145150535
L152793272 144400535
" />
<path d="M151578986 144757678
L151078986 144757678
" />
<path d="M150864700 145150535
L151578986 145150535
L151578986 144400535
L150864700 144400535
" />
<path d="M149078986 145150535
L149078986 144400535
" />
<path d="M149078986 144757678
L148221843 144757678
" />
<path d="M148221843 145150535
L148221843 144400535
" />
<path d="M147578986 144936250
L146864700 144936250
" />
<path d="M147721843 145150535
L147221843 144400535
L146721843 145150535
" />
<path d="M146364700 144400535
L145364700 144400535
L146364700 145150535
L145364700 145150535
" />
<path d="M144507558 144400535
L144221843 144400535
L144078986 144436250
L143936129 144507678
L143864700 144650535
L143864700 144900535
L143936129 145043392
L144078986 145114821
L144221843 145150535
L144507558 145150535
L144650415 145114821
L144793272 145043392
L144864700 144900535
L144864700 144650535
L144793272 144507678
L144650415 144436250
L144507558 144400535
" />
<path d="M142364700 145150535
L142864700 144793392
" />
<path d="M143221843 145150535
L143221843 144400535
L142650415 144400535
L142507558 144436250
L142436129 144471964
L142364700 144543392
L142364700 144650535
L142436129 144721964
L142507558 144757678
L142650415 144793392
L143221843 144793392
" />
<path d="M140578986 145150535
L140578986 144400535
" />
<path d="M139864700 145150535
L139864700 144400535
" />
</g><text x="149364700.000000" y="146393750.000000"
textLength="24980714.000000" font-size="2000000.000000" lengthAdjust="spacingAndGlyphs"
text-anchor="middle" opacity="0">420 ENGHIGHNEERING</text>
<g class="stroked-text"><desc>420 ENGHIGHNEERING</desc>
<path d="M160757558 145858035
L160757558 146358035
" />
<path d="M161114700 145572321
L161471843 146108035
L160543272 146108035
" />
<path d="M160043272 145679464
L159971843 145643750
L159828986 145608035
L159471843 145608035
L159328986 145643750
L159257558 145679464
L159186129 145750892
L159186129 145822321
L159257558 145929464
L160114700 146358035
L159186129 146358035
" />
<path d="M158257558 145608035
L158114700 145608035
L157971843 145643750
L157900415 145679464
L157828986 145750892
L157757558 145893750
L157757558 146072321
L157828986 146215178
L157900415 146286607
L157971843 146322321
L158114700 146358035
L158257558 146358035
L158400415 146322321
L158471843 146286607
L158543272 146215178
L158614700 146072321
L158614700 145893750
L158543272 145750892
L158471843 145679464
L158400415 145643750
L158257558 145608035
" />
<path d="M155971843 145965178
L155471843 145965178
" />
<path d="M155257558 146358035
L155971843 146358035
L155971843 145608035
L155257558 145608035
" />
<path d="M154614700 146358035
L154614700 145608035
L153757558 146358035
L153757558 145608035
" />
<path d="M152257558 145643750
L152400415 145608035
L152614700 145608035
L152828986 145643750
L152971843 145715178
L153043272 145786607
L153114700 145929464
L153114700 146036607
L153043272 146179464
L152971843 146250892
L152828986 146322321
L152614700 146358035
L152471843 146358035
L152257558 146322321
L152186129 146286607
L152186129 146036607
L152471843 146036607
" />
<path d="M151543272 146358035
L151543272 145608035
" />
<path d="M151543272 145965178
L150686129 145965178
" />
<path d="M150686129 146358035
L150686129 145608035
" />
<path d="M149971843 146358035
L149971843 145608035
" />
<path d="M148471843 145643750
L148614700 145608035
L148828986 145608035
L149043272 145643750
L149186129 145715178
L149257558 145786607
L149328986 145929464
L149328986 146036607
L149257558 146179464
L149186129 146250892
L149043272 146322321
L148828986 146358035
L148686129 146358035
L148471843 146322321
L148400415 146286607
L148400415 146036607
L148686129 146036607
" />
<path d="M147757558 146358035
L147757558 145608035
" />
<path d="M147757558 145965178
L146900415 145965178
" />
<path d="M146900415 146358035
L146900415 145608035
" />
<path d="M146186129 146358035
L146186129 145608035
L145328986 146358035
L145328986 145608035
" />
<path d="M144614700 145965178
L144114700 145965178
" />
<path d="M143900415 146358035
L144614700 146358035
L144614700 145608035
L143900415 145608035
" />
<path d="M143257558 145965178
L142757558 145965178
" />
<path d="M142543272 146358035
L143257558 146358035
L143257558 145608035
L142543272 145608035
" />
<path d="M141043272 146358035
L141543272 146000892
" />
<path d="M141900415 146358035
L141900415 145608035
L141328986 145608035
L141186129 145643750
L141114700 145679464
L141043272 145750892
L141043272 145858035
L141114700 145929464
L141186129 145965178
L141328986 146000892
L141900415 146000892
" />
<path d="M140400415 146358035
L140400415 145608035
" />
<path d="M139686129 146358035
L139686129 145608035
L138828986 146358035
L138828986 145608035
" />
<path d="M137328986 145643750
L137471843 145608035
L137686129 145608035
L137900415 145643750
L138043272 145715178
L138114700 145786607
L138186129 145929464
L138186129 146036607
L138114700 146179464
L138043272 146250892
L137900415 146322321
L137686129 146358035
L137543272 146358035
L137328986 146322321
L137257558 146286607
L137257558 146036607
L137543272 146036607
" />
</g><text x="170637200.000000" y="84830000.000000"
textLength="24980714.000000" font-size="2000000.000000" lengthAdjust="spacingAndGlyphs"
text-anchor="middle" opacity="0">420 ENGHIGHNEERING</text>
<g class="stroked-text"><desc>420 ENGHIGHNEERING</desc>
<path d="M182030058 84294285
L182030058 84794285
" />
<path d="M182387200 84008571
L182744343 84544285
L181815772 84544285
" />
<path d="M181315772 84115714
L181244343 84080000
L181101486 84044285
L180744343 84044285
L180601486 84080000
L180530058 84115714
L180458629 84187142
L180458629 84258571
L180530058 84365714
L181387200 84794285
L180458629 84794285
" />
<path d="M179530058 84044285
L179387200 84044285
L179244343 84080000
L179172915 84115714
L179101486 84187142
L179030058 84330000
L179030058 84508571
L179101486 84651428
L179172915 84722857
L179244343 84758571
L179387200 84794285
L179530058 84794285
L179672915 84758571
L179744343 84722857
L179815772 84651428
L179887200 84508571
L179887200 84330000
L179815772 84187142
L179744343 84115714
L179672915 84080000
L179530058 84044285
" />
<path d="M177244343 84401428
L176744343 84401428
" />
<path d="M176530058 84794285
L177244343 84794285
L177244343 84044285
L176530058 84044285
" />
<path d="M175887200 84794285
L175887200 84044285
L175030058 84794285
L175030058 84044285
" />
<path d="M173530058 84080000
L173672915 84044285
L173887200 84044285
L174101486 84080000
L174244343 84151428
L174315772 84222857
L174387200 84365714
L174387200 84472857
L174315772 84615714
L174244343 84687142
L174101486 84758571
L173887200 84794285
L173744343 84794285
L173530058 84758571
L173458629 84722857
L173458629 84472857
L173744343 84472857
" />
<path d="M172815772 84794285
L172815772 84044285
" />
<path d="M172815772 84401428
L171958629 84401428
" />
<path d="M171958629 84794285
L171958629 84044285
" />
<path d="M171244343 84794285
L171244343 84044285
" />
<path d="M169744343 84080000
L169887200 84044285
L170101486 84044285
L170315772 84080000
L170458629 84151428
L170530058 84222857
L170601486 84365714
L170601486 84472857
L170530058 84615714
L170458629 84687142
L170315772 84758571
L170101486 84794285
L169958629 84794285
L169744343 84758571
L169672915 84722857
L169672915 84472857
L169958629 84472857
" />
<path d="M169030058 84794285
L169030058 84044285
" />
<path d="M169030058 84401428
L168172915 84401428
" />
<path d="M168172915 84794285
L168172915 84044285
" />
<path d="M167458629 84794285
L167458629 84044285
L166601486 84794285
L166601486 84044285
" />
<path d="M165887200 84401428
L165387200 84401428
" />
<path d="M165172915 84794285
L165887200 84794285
L165887200 84044285
L165172915 84044285
" />
<path d="M164530058 84401428
L164030058 84401428
" />
<path d="M163815772 84794285
L164530058 84794285
L164530058 84044285
L163815772 84044285
" />
<path d="M162315772 84794285
L162815772 84437142
" />
<path d="M163172915 84794285
L163172915 84044285
L162601486 84044285
L162458629 84080000
L162387200 84115714
L162315772 84187142
L162315772 84294285
L162387200 84365714
L162458629 84401428
L162601486 84437142
L163172915 84437142
" />
<path d="M161672915 84794285
L161672915 84044285
" />
<path d="M160958629 84794285
L160958629 84044285
L160101486 84794285
L160101486 84044285
" />
<path d="M158601486 84080000
L158744343 84044285
L158958629 84044285
L159172915 84080000
L159315772 84151428
L159387200 84222857
L159458629 84365714
L159458629 84472857
L159387200 84615714
L159315772 84687142
L159172915 84758571
L158958629 84794285
L158815772 84794285
L158601486 84758571
L158530058 84722857
L158530058 84472857
L158815772 84472857
" />
</g></g>
<g style="fill:#000000; fill-opacity:0.0; 
stroke:#000000; stroke-width:140000.000000; stroke-opacity:1; 
stroke-linecap:round; stroke-linejoin:round;">
<text x="204736700.000000" y="144114000.000000"
textLength="5509286.000000" font-size="800000.000000" lengthAdjust="spacingAndGlyphs"
text-anchor="start" opacity="0">REVISION: A</text>
<g class="stroked-text"><desc>REVISION: A</desc>
<path d="M204159986 144085428
L204359986 143799714
" />
<path d="M204502843 144085428
L204502843 143485428
L204274272 143485428
L204217129 143514000
L204188558 143542571
L204159986 143599714
L204159986 143685428
L204188558 143742571
L204217129 143771142
L204274272 143799714
L204502843 143799714
" />
<path d="M203902843 143771142
L203702843 143771142
" />
<path d="M203617129 144085428
L203902843 144085428
L203902843 143485428
L203617129 143485428
" />
<path d="M203445700 143485428
L203245700 144085428
L203045700 143485428
" />
<path d="M202845700 144085428
L202845700 143485428
" />
<path d="M202588558 144056857
L202502843 144085428
L202359986 144085428
L202302843 144056857
L202274272 144028285
L202245700 143971142
L202245700 143914000
L202274272 143856857
L202302843 143828285
L202359986 143799714
L202474272 143771142
L202531415 143742571
L202559986 143714000
L202588558 143656857
L202588558 143599714
L202559986 143542571
L202531415 143514000
L202474272 143485428
L202331415 143485428
L202245700 143514000
" />
<path d="M201988558 144085428
L201988558 143485428
" />
<path d="M201588558 143485428
L201474272 143485428
L201417129 143514000
L201359986 143571142
L201331415 143685428
L201331415 143885428
L201359986 143999714
L201417129 144056857
L201474272 144085428
L201588558 144085428
L201645700 144056857
L201702843 143999714
L201731415 143885428
L201731415 143685428
L201702843 143571142
L201645700 143514000
L201588558 143485428
" />
<path d="M201074272 144085428
L201074272 143485428
L200731415 144085428
L200731415 143485428
" />
<path d="M200445700 144028285
L200417129 144056857
L200445700 144085428
L200474272 144056857
L200445700 144028285
L200445700 144085428
" />
<path d="M200445700 143714000
L200417129 143742571
L200445700 143771142
L200474272 143742571
L200445700 143714000
L200445700 143771142
" />
<path d="M199731415 143914000
L199445700 143914000
" />
<path d="M199788558 144085428
L199588558 143485428
L199388558 144085428
" />
</g><text x="204736700.000000" y="145080000.000000"
textLength="182000.000000" font-size="800000.000000" lengthAdjust="spacingAndGlyphs"
text-anchor="start" opacity="0"></text>
<g class="stroked-text"><desc></desc>
</g><text x="204736700.000000" y="146046000.000000"
textLength="2254286.000000" font-size="800000.000000" lengthAdjust="spacingAndGlyphs"
text-anchor="start" opacity="0">S/N:</text>
<g class="stroked-text"><desc>S/N:</desc>
<path d="M204531415 145988857
L204445700 146017428
L204302843 146017428
L204245700 145988857
L204217129 145960285
L204188558 145903142
L204188558 145846000
L204217129 145788857
L204245700 145760285
L204302843 145731714
L204417129 145703142
L204474272 145674571
L204502843 145646000
L204531415 145588857
L204531415 145531714
L204502843 145474571
L204474272 145446000
L204417129 145417428
L204274272 145417428
L204188558 145446000
" />
<path d="M203502843 145388857
L204017129 146160285
" />
<path d="M203302843 146017428
L203302843 145417428
L202959986 146017428
L202959986 145417428
" />
<path d="M202674272 145960285
L202645700 145988857
L202674272 146017428
L202702843 145988857
L202674272 145960285
L202674272 146017428
" />
<path d="M202674272 145646000
L202645700 145674571
L202674272 145703142
L202702843 145674571
L202674272 145646000
L202674272 145703142
" />
</g><text x="100088700.000000" y="140912000.000000"
textLength="4953429.000000" font-size="800000.000000" lengthAdjust="spacingAndGlyphs"
text-anchor="start" opacity="0">ASSEMBLY:</text>
<g class="stroked-text"><desc>ASSEMBLY:</desc>
<path d="M99883415 140712000
L99597700 140712000
" />
<path d="M99940558 140883428
L99740558 140283428
L99540558 140883428
" />
<path d="M99369129 140854857
L99283415 140883428
L99140558 140883428
L99083415 140854857
L99054843 140826285
L99026272 140769142
L99026272 140712000
L99054843 140654857
L99083415 140626285
L99140558 140597714
L99254843 140569142
L99311986 140540571
L99340558 140512000
L99369129 140454857
L99369129 140397714
L99340558 140340571
L99311986 140312000
L99254843 140283428
L99111986 140283428
L99026272 140312000
" />
<path d="M98797700 140854857
L98711986 140883428
L98569129 140883428
L98511986 140854857
L98483415 140826285
L98454843 140769142
L98454843 140712000
L98483415 140654857
L98511986 140626285
L98569129 140597714
L98683415 140569142
L98740558 140540571
L98769129 140512000
L98797700 140454857
L98797700 140397714
L98769129 140340571
L98740558 140312000
L98683415 140283428
L98540558 140283428
L98454843 140312000
" />
<path d="M98197700 140569142
L97997700 140569142
" />
<path d="M97911986 140883428
L98197700 140883428
L98197700 140283428
L97911986 140283428
" />
<path d="M97654843 140883428
L97654843 140283428
L97454843 140712000
L97254843 140283428
L97254843 140883428
" />
<path d="M96769129 140569142
L96683415 140597714
L96654843 140626285
L96626272 140683428
L96626272 140769142
L96654843 140826285
L96683415 140854857
L96740558 140883428
L96969129 140883428
L96969129 140283428
L96769129 140283428
L96711986 140312000
L96683415 140340571
L96654843 140397714
L96654843 140454857
L96683415 140512000
L96711986 140540571
L96769129 140569142
L96969129 140569142
" />
<path d="M96083415 140883428
L96369129 140883428
L96369129 140283428
" />
<path d="M95769129 140597714
L95769129 140883428
" />
<path d="M95969129 140283428
L95769129 140597714
L95569129 140283428
" />
<path d="M95369129 140826285
L95340558 140854857
L95369129 140883428
L95397700 140854857
L95369129 140826285
L95369129 140883428
" />
<path d="M95369129 140512000
L95340558 140540571
L95369129 140569142
L95397700 140540571
L95369129 140512000
L95369129 140569142
" />
</g><text x="100088700.000000" y="141878000.000000"
textLength="4953429.000000" font-size="800000.000000" lengthAdjust="spacingAndGlyphs"
text-anchor="start" opacity="0">#420-003</text>
<g class="stroked-text"><desc>#420-003</desc>
<path d="M99883415 141449428
L99454843 141449428
" />
<path d="M99711986 141192285
L99883415 141963714
" />
<path d="M99511986 141706571
L99940558 141706571
" />
<path d="M99683415 141963714
L99511986 141192285
" />
<path d="M98997700 141449428
L98997700 141849428
" />
<path d="M99140558 141220857
L99283415 141649428
L98911986 141649428
" />
<path d="M98711986 141306571
L98683415 141278000
L98626272 141249428
L98483415 141249428
L98426272 141278000
L98397700 141306571
L98369129 141363714
L98369129 141420857
L98397700 141506571
L98740558 141849428
L98369129 141849428
" />
<path d="M97997700 141249428
L97940558 141249428
L97883415 141278000
L97854843 141306571
L97826272 141363714
L97797700 141478000
L97797700 141620857
L97826272 141735142
L97854843 141792285
L97883415 141820857
L97940558 141849428
L97997700 141849428
L98054843 141820857
L98083415 141792285
L98111986 141735142
L98140558 141620857
L98140558 141478000
L98111986 141363714
L98083415 141306571
L98054843 141278000
L97997700 141249428
" />
<path d="M97540558 141620857
L97083415 141620857
" />
<path d="M96683415 141249428
L96626272 141249428
L96569129 141278000
L96540558 141306571
L96511986 141363714
L96483415 141478000
L96483415 141620857
L96511986 141735142
L96540558 141792285
L96569129 141820857
L96626272 141849428
L96683415 141849428
L96740558 141820857
L96769129 141792285
L96797700 141735142
L96826272 141620857
L96826272 141478000
L96797700 141363714
L96769129 141306571
L96740558 141278000
L96683415 141249428
" />
<path d="M96111986 141249428
L96054843 141249428
L95997700 141278000
L95969129 141306571
L95940558 141363714
L95911986 141478000
L95911986 141620857
L95940558 141735142
L95969129 141792285
L95997700 141820857
L96054843 141849428
L96111986 141849428
L96169129 141820857
L96197700 141792285
L96226272 141735142
L96254843 141620857
L96254843 141478000
L96226272 141363714
L96197700 141306571
L96169129 141278000
L96111986 141249428
" />
<path d="M95711986 141249428
L95340558 141249428
L95540558 141478000
L95454843 141478000
L95397700 141506571
L95369129 141535142
L95340558 141592285
L95340558 141735142
L95369129 141792285
L95397700 141820857
L95454843 141849428
L95626272 141849428
L95683415 141820857
L95711986 141792285
" />
</g><text x="100088700.000000" y="142844000.000000"
textLength="5096286.000000" font-size="800000.000000" lengthAdjust="spacingAndGlyphs"
text-anchor="start" opacity="0">-100-000</text>
<g class="stroked-text"><desc>-100-000</desc>
<path d="M99854843 142586857
L99397700 142586857
" />
<path d="M98797700 142815428
L99140558 142815428
" />
<path d="M98969129 142815428
L98969129 142215428
L99026272 142301142
L99083415 142358285
L99140558 142386857
" />
<path d="M98426272 142215428
L98369129 142215428
L98311986 142244000
L98283415 142272571
L98254843 142329714
L98226272 142444000
L98226272 142586857
L98254843 142701142
L98283415 142758285
L98311986 142786857
L98369129 142815428
L98426272 142815428
L98483415 142786857
L98511986 142758285
L98540558 142701142
L98569129 142586857
L98569129 142444000
L98540558 142329714
L98511986 142272571
L98483415 142244000
L98426272 142215428
" />
<path d="M97854843 142215428
L97797700 142215428
L97740558 142244000
L97711986 142272571
L97683415 142329714
L97654843 142444000
L97654843 142586857
L97683415 142701142
L97711986 142758285
L97740558 142786857
L97797700 142815428
L97854843 142815428
L97911986 142786857
L97940558 142758285
L97969129 142701142
L97997700 142586857
L97997700 142444000
L97969129 142329714
L97940558 142272571
L97911986 142244000
L97854843 142215428
" />
<path d="M97397700 142586857
L96940558 142586857
" />
<path d="M96540558 142215428
L96483415 142215428
L96426272 142244000
L96397700 142272571
L96369129 142329714
L96340558 142444000
L96340558 142586857
L96369129 142701142
L96397700 142758285
L96426272 142786857
L96483415 142815428
L96540558 142815428
L96597700 142786857
L96626272 142758285
L96654843 142701142
L96683415 142586857
L96683415 142444000
L96654843 142329714
L96626272 142272571
L96597700 142244000
L96540558 142215428
" />
<path d="M95969129 142215428
L95911986 142215428
L95854843 142244000
L95826272 142272571
L95797700 142329714
L95769129 142444000
L95769129 142586857
L95797700 142701142
L95826272 142758285
L95854843 142786857
L95911986 142815428
L95969129 142815428
L96026272 142786857
L96054843 142758285
L96083415 142701142
L96111986 142586857
L96111986 142444000
L96083415 142329714
L96054843 142272571
L96026272 142244000
L95969129 142215428
" />
<path d="M95397700 142215428
L95340558 142215428
L95283415 142244000
L95254843 142272571
L95226272 142329714
L95197700 142444000
L95197700 142586857
L95226272 142701142
L95254843 142758285
L95283415 142786857
L95340558 142815428
L95397700 142815428
L95454843 142786857
L95483415 142758285
L95511986 142701142
L95540558 142586857
L95540558 142444000
L95511986 142329714
L95483415 142272571
L95454843 142244000
L95397700 142215428
" />
</g><text x="100088700.000000" y="143810000.000000"
textLength="182000.000000" font-size="800000.000000" lengthAdjust="spacingAndGlyphs"
text-anchor="start" opacity="0"></text>
<g class="stroked-text"><desc></desc>
</g><text x="100088700.000000" y="144776000.000000"
textLength="2225714.000000" font-size="800000.000000" lengthAdjust="spacingAndGlyphs"
text-anchor="start" opacity="0">PCB:</text>
<g class="stroked-text"><desc>PCB:</desc>
<path d="M99854843 144747428
L99854843 144147428
L99626272 144147428
L99569129 144176000
L99540558 144204571
L99511986 144261714
L99511986 144347428
L99540558 144404571
L99569129 144433142
L99626272 144461714
L99854843 144461714
" />
<path d="M98911986 144690285
L98940558 144718857
L99026272 144747428
L99083415 144747428
L99169129 144718857
L99226272 144661714
L99254843 144604571
L99283415 144490285
L99283415 144404571
L99254843 144290285
L99226272 144233142
L99169129 144176000
L99083415 144147428
L99026272 144147428
L98940558 144176000
L98911986 144204571
" />
<path d="M98454843 144433142
L98369129 144461714
L98340558 144490285
L98311986 144547428
L98311986 144633142
L98340558 144690285
L98369129 144718857
L98426272 144747428
L98654843 144747428
L98654843 144147428
L98454843 144147428
L98397700 144176000
L98369129 144204571
L98340558 144261714
L98340558 144318857
L98369129 144376000
L98397700 144404571
L98454843 144433142
L98654843 144433142
" />
<path d="M98054843 144690285
L98026272 144718857
L98054843 144747428
L98083415 144718857
L98054843 144690285
L98054843 144747428
" />
<path d="M98054843 144376000
L98026272 144404571
L98054843 144433142
L98083415 144404571
L98054843 144376000
L98054843 144433142
" />
</g><text x="100088700.000000" y="145742000.000000"
textLength="4953429.000000" font-size="800000.000000" lengthAdjust="spacingAndGlyphs"
text-anchor="start" opacity="0">#420-003</text>
<g class="stroked-text"><desc>#420-003</desc>
<path d="M99883415 145313428
L99454843 145313428
" />
<path d="M99711986 145056285
L99883415 145827714
" />
<path d="M99511986 145570571
L99940558 145570571
" />
<path d="M99683415 145827714
L99511986 145056285
" />
<path d="M98997700 145313428
L98997700 145713428
" />
<path d="M99140558 145084857
L99283415 145513428
L98911986 145513428
" />
<path d="M98711986 145170571
L98683415 145142000
L98626272 145113428
L98483415 145113428
L98426272 145142000
L98397700 145170571
L98369129 145227714
L98369129 145284857
L98397700 145370571
L98740558 145713428
L98369129 145713428
" />
<path d="M97997700 145113428
L97940558 145113428
L97883415 145142000
L97854843 145170571
L97826272 145227714
L97797700 145342000
L97797700 145484857
L97826272 145599142
L97854843 145656285
L97883415 145684857
L97940558 145713428
L97997700 145713428
L98054843 145684857
L98083415 145656285
L98111986 145599142
L98140558 145484857
L98140558 145342000
L98111986 145227714
L98083415 145170571
L98054843 145142000
L97997700 145113428
" />
<path d="M97540558 145484857
L97083415 145484857
" />
<path d="M96683415 145113428
L96626272 145113428
L96569129 145142000
L96540558 145170571
L96511986 145227714
L96483415 145342000
L96483415 145484857
L96511986 145599142
L96540558 145656285
L96569129 145684857
L96626272 145713428
L96683415 145713428
L96740558 145684857
L96769129 145656285
L96797700 145599142
L96826272 145484857
L96826272 145342000
L96797700 145227714
L96769129 145170571
L96740558 145142000
L96683415 145113428
" />
<path d="M96111986 145113428
L96054843 145113428
L95997700 145142000
L95969129 145170571
L95940558 145227714
L95911986 145342000
L95911986 145484857
L95940558 145599142
L95969129 145656285
L95997700 145684857
L96054843 145713428
L96111986 145713428
L96169129 145684857
L96197700 145656285
L96226272 145599142
L96254843 145484857
L96254843 145342000
L96226272 145227714
L96197700 145170571
L96169129 145142000
L96111986 145113428
" />
<path d="M95711986 145113428
L95340558 145113428
L95540558 145342000
L95454843 145342000
L95397700 145370571
L95369129 145399142
L95340558 145456285
L95340558 145599142
L95369129 145656285
L95397700 145684857
L95454843 145713428
L95626272 145713428
L95683415 145684857
L95711986 145656285
" />
</g><text x="100088700.000000" y="146708000.000000"
textLength="6353429.000000" font-size="800000.000000" lengthAdjust="spacingAndGlyphs"
text-anchor="start" opacity="0">-110-000-A</text>
<g class="stroked-text"><desc>-110-000-A</desc>
<path d="M99854843 146450857
L99397700 146450857
" />
<path d="M98797700 146679428
L99140558 146679428
" />
<path d="M98969129 146679428
L98969129 146079428
L99026272 146165142
L99083415 146222285
L99140558 146250857
" />
<path d="M98226272 146679428
L98569129 146679428
" />
<path d="M98397700 146679428
L98397700 146079428
L98454843 146165142
L98511986 146222285
L98569129 146250857
" />
<path d="M97854843 146079428
L97797700 146079428
L97740558 146108000
L97711986 146136571
L97683415 146193714
L97654843 146308000
L97654843 146450857
L97683415 146565142
L97711986 146622285
L97740558 146650857
L97797700 146679428
L97854843 146679428
L97911986 146650857
L97940558 146622285
L97969129 146565142
L97997700 146450857
L97997700 146308000
L97969129 146193714
L97940558 146136571
L97911986 146108000
L97854843 146079428
" />
<path d="M97397700 146450857
L96940558 146450857
" />
<path d="M96540558 146079428
L96483415 146079428
L96426272 146108000
L96397700 146136571
L96369129 146193714
L96340558 146308000
L96340558 146450857
L96369129 146565142
L96397700 146622285
L96426272 146650857
L96483415 146679428
L96540558 146679428
L96597700 146650857
L96626272 146622285
L96654843 146565142
L96683415 146450857
L96683415 146308000
L96654843 146193714
L96626272 146136571
L96597700 146108000
L96540558 146079428
" />
<path d="M95969129 146079428
L95911986 146079428
L95854843 146108000
L95826272 146136571
L95797700 146193714
L95769129 146308000
L95769129 146450857
L95797700 146565142
L95826272 146622285
L95854843 146650857
L95911986 146679428
L95969129 146679428
L96026272 146650857
L96054843 146622285
L96083415 146565142
L96111986 146450857
L96111986 146308000
L96083415 146193714
L96054843 146136571
L96026272 146108000
L95969129 146079428
" />
<path d="M95397700 146079428
L95340558 146079428
L95283415 146108000
L95254843 146136571
L95226272 146193714
L95197700 146308000
L95197700 146450857
L95226272 146565142
L95254843 146622285
L95283415 146650857
L95340558 146679428
L95397700 146679428
L95454843 146650857
L95483415 146622285
L95511986 146565142
L95540558 146450857
L95540558 146308000
L95511986 146193714
L95483415 146136571
L95454843 146108000
L95397700 146079428
" />
<path d="M94940558 146450857
L94483415 146450857
" />
<path d="M94226272 146508000
L93940558 146508000
" />
<path d="M94283415 146679428
L94083415 146079428
L93883415 146679428
" />
</g><g >
</g>
<g >
</g>
<g >
</g>
<g >
</g>
<g >
</g>
<g >
</g>
<g >
</g>
<g >
</g>
<g >
</g>
<g >
</g>
<g >
</g>
<g >
</g>
<g >
</g>
<g >
</g>
<g >
</g>
<g >
</g>
<g >
</g>
<g >
</g>
<g >
</g>
<g >
</g>
<g >
</g>
<g >
</g>
<g >
</g>
<g >
</g>
<g >
</g>
<g >
</g>
<g >
</g>
<g >
</g>
<g >
</g>
<g >
</g>
<g >
</g>
<g >
</g>
<g >
</g>
<g >
</g>
<g >
</g>
<g >
</g>
<g >
</g>
<g >
</g>
<g >
</g>
<g >
</g>
<g >
</g>
<g >
</g>
<g >
</g>
<g >
</g>
<g >
</g>
<g >
</g>
<g >
</g>
<g >
</g>
<g >
</g>
<g >
</g>
<g >
</g>
<g >
</g>
<g >
</g>
<g >
</g>
<g >
</g>
<g >
</g>
<g >
</g>
<g >
</g>
<g >
</g>
<g >
</g>
<g >
</g>
<g >
</g>
<g >
</g>
<g >
</g>
<g >
</g>
<g >
</g>
<g >
</g>
<g >
</g>
<g >
</g>
<g >
</g>
<g >
</g>
<g >
</g>
<g >
</g>
<g >
</g>
<g >
</g>
<g >
</g>
<g >
</g>
<g >
</g>
<g >
</g>
<g >
</g>
<g >
</g>
<g >
</g>
<g >
</g>
<g >
</g>
<g >
</g>
<g >
</g>
<g style="fill:#000000; fill-opacity:0.0; 
stroke:#000000; stroke-width:140000.000000; stroke-opacity:1; 
stroke-linecap:round; stroke-linejoin:round;">
</g>
<g style="fill:#000000; fill-opacity:1.0; 
stroke:#000000; stroke-width:1.000000; stroke-opacity:1; 
stroke-linecap:round; stroke-linejoin:round;">
<circle cx="96659700.000000" cy="67310000.000000" r="3200000.000000" /> 
</g>
<g style="fill:#000000; fill-opacity:1.0; 
stroke:#000000; stroke-width:0.000000; stroke-opacity:1; 
stroke-linecap:round; stroke-linejoin:round;">
</g>
<g style="fill:#000000; fill-opacity:1.0; 
stroke:#000000; stroke-width:1.000000; stroke-opacity:1; 
stroke-linecap:round; stroke-linejoin:round;">
<circle cx="94259700.000000" cy="67310000.000000" r="400000.000000" /> 
</g>
<g style="fill:#000000; fill-opacity:1.0; 
stroke:#000000; stroke-width:0.000000; stroke-opacity:1; 
stroke-linecap:round; stroke-linejoin:round;">
</g>
<g style="fill:#000000; fill-opacity:1.0; 
stroke:#000000; stroke-width:1.000000; stroke-opacity:1; 
stroke-linecap:round; stroke-linejoin:round;">
<circle cx="94962644.000000" cy="69007056.000000" r="400000.000000" /> 
</g>
<g style="fill:#000000; fill-opacity:1.0; 
stroke:#000000; stroke-width:0.000000; stroke-opacity:1; 
stroke-linecap:round; stroke-linejoin:round;">
</g>
<g style="fill:#000000; fill-opacity:1.0; 
stroke:#000000; stroke-width:1.000000; stroke-opacity:1; 
stroke-linecap:round; stroke-linejoin:round;">
<circle cx="96659700.000000" cy="69710000.000000" r="400000.000000" /> 
</g>
<g style="fill:#000000; fill-opacity:1.0; 
stroke:#000000; stroke-width:0.000000; stroke-opacity:1; 
stroke-linecap:round; stroke-linejoin:round;">
</g>
<g style="fill:#000000; fill-opacity:1.0; 
stroke:#000000; stroke-width:1.000000; stroke-opacity:1; 
stroke-linecap:round; stroke-linejoin:round;">
<circle cx="98356756.000000" cy="69007056.000000" r="400000.000000" /> 
</g>
<g style="fill:#000000; fill-opacity:1.0; 
stroke:#000000; stroke-width:0.000000; stroke-opacity:1; 
stroke-linecap:round; stroke-linejoin:round;">
</g>
<g style="fill:#000000; fill-opacity:1.0; 
stroke:#000000; stroke-width:1.000000; stroke-opacity:1; 
stroke-linecap:round; stroke-linejoin:round;">
<circle cx="99059700.000000" cy="67310000.000000" r="400000.000000" /> 
</g>
<g style="fill:#000000; fill-opacity:1.0; 
stroke:#000000; stroke-width:0.000000; stroke-opacity:1; 
stroke-linecap:round; stroke-linejoin:round;">
</g>
<g style="fill:#000000; fill-opacity:1.0; 
stroke:#000000; stroke-width:1.000000; stroke-opacity:1; 
stroke-linecap:round; stroke-linejoin:round;">
<circle cx="98356756.000000" cy="65612944.000000" r="400000.000000" /> 
</g>
<g style="fill:#000000; fill-opacity:1.0; 
stroke:#000000; stroke-width:0.000000; stroke-opacity:1; 
stroke-linecap:round; stroke-linejoin:round;">
</g>
<g style="fill:#000000; fill-opacity:1.0; 
stroke:#000000; stroke-width:1.000000; stroke-opacity:1; 
stroke-linecap:round; stroke-linejoin:round;">
<circle cx="96659700.000000" cy="64910000.000000" r="400000.000000" /> 
</g>
<g style="fill:#000000; fill-opacity:1.0; 
stroke:#000000; stroke-width:0.000000; stroke-opacity:1; 
stroke-linecap:round; stroke-linejoin:round;">
</g>
<g style="fill:#000000; fill-opacity:1.0; 
stroke:#000000; stroke-width:1.000000; stroke-opacity:1; 
stroke-linecap:round; stroke-linejoin:round;">
<circle cx="94962644.000000" cy="65612944.000000" r="400000.000000" /> 
</g>
<g style="fill:#000000; fill-opacity:1.0; 
stroke:#000000; stroke-width:0.000000; stroke-opacity:1; 
stroke-linecap:round; stroke-linejoin:round;">
</g>
<g >
</g>
<g style="fill:#000000; fill-opacity:1.0; 
stroke:#000000; stroke-width:0.000000; stroke-opacity:1; 
stroke-linecap:round; stroke-linejoin:round;">
</g>
<g style="fill:#000000; fill-opacity:1.0; 
stroke:#000000; stroke-width:1.000000; stroke-opacity:1; 
stroke-linecap:round; stroke-linejoin:round;">
<circle cx="96659700.000000" cy="126365000.000000" r="3200000.000000" /> 
</g>
<g style="fill:#000000; fill-opacity:1.0; 
stroke:#000000; stroke-width:0.000000; stroke-opacity:1; 
stroke-linecap:round; stroke-linejoin:round;">
</g>
<g style="fill:#000000; fill-opacity:1.0; 
stroke:#000000; stroke-width:1.000000; stroke-opacity:1; 
stroke-linecap:round; stroke-linejoin:round;">
<circle cx="94259700.000000" cy="126365000.000000" r="400000.000000" /> 
</g>
<g style="fill:#000000; fill-opacity:1.0; 
stroke:#000000; stroke-width:0.000000; stroke-opacity:1; 
stroke-linecap:round; stroke-linejoin:round;">
</g>
<g style="fill:#000000; fill-opacity:1.0; 
stroke:#000000; stroke-width:1.000000; stroke-opacity:1; 
stroke-linecap:round; stroke-linejoin:round;">
<circle cx="94962644.000000" cy="128062056.000000" r="400000.000000" /> 
</g>
<g style="fill:#000000; fill-opacity:1.0; 
stroke:#000000; stroke-width:0.000000; stroke-opacity:1; 
stroke-linecap:round; stroke-linejoin:round;">
</g>
<g style="fill:#000000; fill-opacity:1.0; 
stroke:#000000; stroke-width:1.000000; stroke-opacity:1; 
stroke-linecap:round; stroke-linejoin:round;">
<circle cx="96659700.000000" cy="128765000.000000" r="400000.000000" /> 
</g>
<g style="fill:#000000; fill-opacity:1.0; 
stroke:#000000; stroke-width:0.000000; stroke-opacity:1; 
stroke-linecap:round; stroke-linejoin:round;">
</g>
<g style="fill:#000000; fill-opacity:1.0; 
stroke:#000000; stroke-width:1.000000; stroke-opacity:1; 
stroke-linecap:round; stroke-linejoin:round;">
<circle cx="98356756.000000" cy="128062056.000000" r="400000.000000" /> 
</g>
<g style="fill:#000000; fill-opacity:1.0; 
stroke:#000000; stroke-width:0.000000; stroke-opacity:1; 
stroke-linecap:round; stroke-linejoin:round;">
</g>
<g style="fill:#000000; fill-opacity:1.0; 
stroke:#000000; stroke-width:1.000000; stroke-opacity:1; 
stroke-linecap:round; stroke-linejoin:round;">
<circle cx="99059700.000000" cy="126365000.000000" r="400000.000000" /> 
</g>
<g style="fill:#000000; fill-opacity:1.0; 
stroke:#000000; stroke-width:0.000000; stroke-opacity:1; 
stroke-linecap:round; stroke-linejoin:round;">
</g>
<g style="fill:#000000; fill-opacity:1.0; 
stroke:#000000; stroke-width:1.000000; stroke-opacity:1; 
stroke-linecap:round; stroke-linejoin:round;">
<circle cx="98356756.000000" cy="124667944.000000" r="400000.000000" /> 
</g>
<g style="fill:#000000; fill-opacity:1.0; 
stroke:#000000; stroke-width:0.000000; stroke-opacity:1; 
stroke-linecap:round; stroke-linejoin:round;">
</g>
<g style="fill:#000000; fill-opacity:1.0; 
stroke:#000000; stroke-width:1.000000; stroke-opacity:1; 
stroke-linecap:round; stroke-linejoin:round;">
<circle cx="96659700.000000" cy="123965000.000000" r="400000.000000" /> 
</g>
<g style="fill:#000000; fill-opacity:1.0; 
stroke:#000000; stroke-width:0.000000; stroke-opacity:1; 
stroke-linecap:round; stroke-linejoin:round;">
</g>
<g style="fill:#000000; fill-opacity:1.0; 
stroke:#000000; stroke-width:1.000000; stroke-opacity:1; 
stroke-linecap:round; stroke-linejoin:round;">
<circle cx="94962644.000000" cy="124667944.000000" r="400000.000000" /> 
</g>
<g style="fill:#000000; fill-opacity:1.0; 
stroke:#000000; stroke-width:0.000000; stroke-opacity:1; 
stroke-linecap:round; stroke-linejoin:round;">
</g>
<g >
</g>
<g style="fill:#000000; fill-opacity:1.0; 
stroke:#000000; stroke-width:0.000000; stroke-opacity:1; 
stroke-linecap:round; stroke-linejoin:round;">
</g>
<g style="fill:#000000; fill-opacity:1.0; 
stroke:#000000; stroke-width:1.000000; stroke-opacity:1; 
stroke-linecap:round; stroke-linejoin:round;">
<circle cx="202069700.000000" cy="67310000.000000" r="3200000.000000" /> 
</g>
<g style="fill:#000000; fill-opacity:1.0; 
stroke:#000000; stroke-width:0.000000; stroke-opacity:1; 
stroke-linecap:round; stroke-linejoin:round;">
</g>
<g style="fill:#000000; fill-opacity:1.0; 
stroke:#000000; stroke-width:1.000000; stroke-opacity:1; 
stroke-linecap:round; stroke-linejoin:round;">
<circle cx="199669700.000000" cy="67310000.000000" r="400000.000000" /> 
</g>
<g style="fill:#000000; fill-opacity:1.0; 
stroke:#000000; stroke-width:0.000000; stroke-opacity:1; 
stroke-linecap:round; stroke-linejoin:round;">
</g>
<g style="fill:#000000; fill-opacity:1.0; 
stroke:#000000; stroke-width:1.000000; stroke-opacity:1; 
stroke-linecap:round; stroke-linejoin:round;">
<circle cx="200372644.000000" cy="69007056.000000" r="400000.000000" /> 
</g>
<g style="fill:#000000; fill-opacity:1.0; 
stroke:#000000; stroke-width:0.000000; stroke-opacity:1; 
stroke-linecap:round; stroke-linejoin:round;">
</g>
<g style="fill:#000000; fill-opacity:1.0; 
stroke:#000000; stroke-width:1.000000; stroke-opacity:1; 
stroke-linecap:round; stroke-linejoin:round;">
<circle cx="202069700.000000" cy="69710000.000000" r="400000.000000" /> 
</g>
<g style="fill:#000000; fill-opacity:1.0; 
stroke:#000000; stroke-width:0.000000; stroke-opacity:1; 
stroke-linecap:round; stroke-linejoin:round;">
</g>
<g style="fill:#000000; fill-opacity:1.0; 
stroke:#000000; stroke-width:1.000000; stroke-opacity:1; 
stroke-linecap:round; stroke-linejoin:round;">
<circle cx="203766756.000000" cy="69007056.000000" r="400000.000000" /> 
</g>
<g style="fill:#000000; fill-opacity:1.0; 
stroke:#000000; stroke-width:0.000000; stroke-opacity:1; 
stroke-linecap:round; stroke-linejoin:round;">
</g>
<g style="fill:#000000; fill-opacity:1.0; 
stroke:#000000; stroke-width:1.000000; stroke-opacity:1; 
stroke-linecap:round; stroke-linejoin:round;">
<circle cx="204469700.000000" cy="67310000.000000" r="400000.000000" /> 
</g>
<g style="fill:#000000; fill-opacity:1.0; 
stroke:#000000; stroke-width:0.000000; stroke-opacity:1; 
stroke-linecap:round; stroke-linejoin:round;">
</g>
<g style="fill:#000000; fill-opacity:1.0; 
stroke:#000000; stroke-width:1.000000; stroke-opacity:1; 
stroke-linecap:round; stroke-linejoin:round;">
<circle cx="203766756.000000" cy="65612944.000000" r="400000.000000" /> 
</g>
<g style="fill:#000000; fill-opacity:1.0; 
stroke:#000000; stroke-width:0.000000; stroke-opacity:1; 
stroke-linecap:round; stroke-linejoin:round;">
</g>
<g style="fill:#000000; fill-opacity:1.0; 
stroke:#000000; stroke-width:1.000000; stroke-opacity:1; 
stroke-linecap:round; stroke-linejoin:round;">
<circle cx="202069700.000000" cy="64910000.000000" r="400000.000000" /> 
</g>
<g style="fill:#000000; fill-opacity:1.0; 
stroke:#000000; stroke-width:0.000000; stroke-opacity:1; 
stroke-linecap:round; stroke-linejoin:round;">
</g>
<g style="fill:#000000; fill-opacity:1.0; 
stroke:#000000; stroke-width:1.000000; stroke-opacity:1; 
stroke-linecap:round; stroke-linejoin:round;">
<circle cx="200372644.000000" cy="65612944.000000" r="400000.000000" /> 
</g>
<g style="fill:#000000; fill-opacity:1.0; 
stroke:#000000; stroke-width:0.000000; stroke-opacity:1; 
stroke-linecap:round; stroke-linejoin:round;">
</g>
<g >
</g>
<g style="fill:#000000; fill-opacity:1.0; 
stroke:#000000; stroke-width:0.000000; stroke-opacity:1; 
stroke-linecap:round; stroke-linejoin:round;">
</g>
<g style="fill:#000000; fill-opacity:1.0; 
stroke:#000000; stroke-width:1.000000; stroke-opacity:1; 
stroke-linecap:round; stroke-linejoin:round;">
<circle cx="202069700.000000" cy="126365000.000000" r="3200000.000000" /> 
</g>
<g style="fill:#000000; fill-opacity:1.0; 
stroke:#000000; stroke-width:0.000000; stroke-opacity:1; 
stroke-linecap:round; stroke-linejoin:round;">
</g>
<g style="fill:#000000; fill-opacity:1.0; 
stroke:#000000; stroke-width:1.000000; stroke-opacity:1; 
stroke-linecap:round; stroke-linejoin:round;">
<circle cx="199669700.000000" cy="126365000.000000" r="400000.000000" /> 
</g>
<g style="fill:#000000; fill-opacity:1.0; 
stroke:#000000; stroke-width:0.000000; stroke-opacity:1; 
stroke-linecap:round; stroke-linejoin:round;">
</g>
<g style="fill:#000000; fill-opacity:1.0; 
stroke:#000000; stroke-width:1.000000; stroke-opacity:1; 
stroke-linecap:round; stroke-linejoin:round;">
<circle cx="200372644.000000" cy="128062056.000000" r="400000.000000" /> 
</g>
<g style="fill:#000000; fill-opacity:1.0; 
stroke:#000000; stroke-width:0.000000; stroke-opacity:1; 
stroke-linecap:round; stroke-linejoin:round;">
</g>
<g style="fill:#000000; fill-opacity:1.0; 
stroke:#000000; stroke-width:1.000000; stroke-opacity:1; 
stroke-linecap:round; stroke-linejoin:round;">
<circle cx="202069700.000000" cy="128765000.000000" r="400000.000000" /> 
</g>
<g style="fill:#000000; fill-opacity:1.0; 
stroke:#000000; stroke-width:0.000000; stroke-opacity:1; 
stroke-linecap:round; stroke-linejoin:round;">
</g>
<g style="fill:#000000; fill-opacity:1.0; 
stroke:#000000; stroke-width:1.000000; stroke-opacity:1; 
stroke-linecap:round; stroke-linejoin:round;">
<circle cx="203766756.000000" cy="128062056.000000" r="400000.000000" /> 
</g>
<g style="fill:#000000; fill-opacity:1.0; 
stroke:#000000; stroke-width:0.000000; stroke-opacity:1; 
stroke-linecap:round; stroke-linejoin:round;">
</g>
<g style="fill:#000000; fill-opacity:1.0; 
stroke:#000000; stroke-width:1.000000; stroke-opacity:1; 
stroke-linecap:round; stroke-linejoin:round;">
<circle cx="204469700.000000" cy="126365000.000000" r="400000.000000" /> 
</g>
<g style="fill:#000000; fill-opacity:1.0; 
stroke:#000000; stroke-width:0.000000; stroke-opacity:1; 
stroke-linecap:round; stroke-linejoin:round;">
</g>
<g style="fill:#000000; fill-opacity:1.0; 
stroke:#000000; stroke-width:1.000000; stroke-opacity:1; 
stroke-linecap:round; stroke-linejoin:round;">
<circle cx="203766756.000000" cy="124667944.000000" r="400000.000000" /> 
</g>
<g style="fill:#000000; fill-opacity:1.0; 
stroke:#000000; stroke-width:0.000000; stroke-opacity:1; 
stroke-linecap:round; stroke-linejoin:round;">
</g>
<g style="fill:#000000; fill-opacity:1.0; 
stroke:#000000; stroke-width:1.000000; stroke-opacity:1; 
stroke-linecap:round; stroke-linejoin:round;">
<circle cx="202069700.000000" cy="123965000.000000" r="400000.000000" /> 
</g>
<g style="fill:#000000; fill-opacity:1.0; 
stroke:#000000; stroke-width:0.000000; stroke-opacity:1; 
stroke-linecap:round; stroke-linejoin:round;">
</g>
<g style="fill:#000000; fill-opacity:1.0; 
stroke:#000000; stroke-width:1.000000; stroke-opacity:1; 
stroke-linecap:round; stroke-linejoin:round;">
<circle cx="200372644.000000" cy="124667944.000000" r="400000.000000" /> 
</g>
<g style="fill:#000000; fill-opacity:1.0; 
stroke:#000000; stroke-width:0.000000; stroke-opacity:1; 
stroke-linecap:round; stroke-linejoin:round;">
</g>
<g >
</g>
<g >
</g>
<g >
</g>
<g >
</g>
<g >
</g>
<g >
</g>
<g >
</g>
<g >
</g>
<g >
</g>
<g >
</g>
<g >
</g>
<g >
</g>
<g >
</g>
<g >
</g>
<g >
</g>
<g >
</g>
<g >
</g>
<g >
</g>
<g >
</g>
<g >
</g>
<g >
</g>
<g >
</g>
<g >
</g>
<g >
</g>
<g >
</g>
<g >
</g>
<g >
</g>
<g >
</g>
<g >
</g>
<g >
</g>
<g >
</g>
<g >
</g>
<g >
</g>
<g >
</g>
<g >
</g>
<g >
</g>
<g >
</g>
<g >
</g>
<g >
</g>
<g >
</g>
<g >
</g>
<g >
</g>
<g >
</g>
<g >
</g>
<g >
</g>
<g >
</g>
<g >
</g>
<g >
</g>
<g >
</g>
<g >
</g>
<g >
</g>
<g >
</g>
<g >
</g>
<g >
</g>
<g >
</g>
<g >
</g>
<g >
</g>
<g >
</g>
<g >
</g>
<g >
</g>
<g >
</g>
<g >
</g>
<g >
</g>
<g >
</g>
<g >
</g>
</g> 
</svg>
