<?xml version="1.0" standalone="no"?>
 <!DOCTYPE svg PUBLIC "-//W3C//DTD SVG 1.1//EN" 
 "http://www.w3.org/Graphics/SVG/1.1/DTD/svg11.dtd"> 
<svg
  xmlns:svg="http://www.w3.org/2000/svg"
  xmlns="http://www.w3.org/2000/svg"
  xmlns:xlink="http://www.w3.org/1999/xlink"
  version="1.1"
  width="29.700220cm" height="21.000720cm" viewBox="0 0 297002200 210007200">
<title>SVG Picture created as #110-000-S1A - Phasor PCB-F_SilkS.svg date 2020/07/05 21:02:58 </title>
  <desc>Picture generated by PCBNEW </desc>
<g style="fill:#000000; fill-opacity:1.000000;stroke:#000000; stroke-opacity:1.000000;
stroke-linecap:round; stroke-linejoin:round;"
 transform="translate(0 0) scale(1 1)">
</g>
<g style="fill:#000000; fill-opacity:0.0; 
stroke:#000000; stroke-width:0.000000; stroke-opacity:1; 
stroke-linecap:round; stroke-linejoin:round;">
</g>
<g style="fill:#000000; fill-opacity:0.0; 
stroke:#000000; stroke-width:150000.000000; stroke-opacity:1; 
stroke-linecap:round; stroke-linejoin:round;">
<text x="162382200.000000" y="115970000.000000"
textLength="8410571.000000" font-size="1066666.000000" lengthAdjust="spacingAndGlyphs"
text-anchor="middle" opacity="0">JLCJLCJLCJLC</text>
<g class="stroked-text"><desc>JLCJLCJLCJLC</desc>
<path d="M166077439 115131904
L166077439 115703333
L166115534 115817619
L166191724 115893809
L166306010 115931904
L166382200 115931904
" />
<path d="M165315534 115931904
L165696486 115931904
L165696486 115131904
" />
<path d="M164591724 115855714
L164629820 115893809
L164744105 115931904
L164820296 115931904
L164934581 115893809
L165010772 115817619
L165048867 115741428
L165086962 115589047
L165086962 115474761
L165048867 115322380
L165010772 115246190
L164934581 115170000
L164820296 115131904
L164744105 115131904
L164629820 115170000
L164591724 115208095
" />
<path d="M164020296 115131904
L164020296 115703333
L164058391 115817619
L164134581 115893809
L164248867 115931904
L164325058 115931904
" />
<path d="M163258391 115931904
L163639343 115931904
L163639343 115131904
" />
<path d="M162534581 115855714
L162572677 115893809
L162686962 115931904
L162763153 115931904
L162877439 115893809
L162953629 115817619
L162991724 115741428
L163029820 115589047
L163029820 115474761
L162991724 115322380
L162953629 115246190
L162877439 115170000
L162763153 115131904
L162686962 115131904
L162572677 115170000
L162534581 115208095
" />
<path d="M161963153 115131904
L161963153 115703333
L162001248 115817619
L162077439 115893809
L162191724 115931904
L162267915 115931904
" />
<path d="M161201248 115931904
L161582200 115931904
L161582200 115131904
" />
<path d="M160477439 115855714
L160515534 115893809
L160629820 115931904
L160706010 115931904
L160820296 115893809
L160896486 115817619
L160934581 115741428
L160972677 115589047
L160972677 115474761
L160934581 115322380
L160896486 115246190
L160820296 115170000
L160706010 115131904
L160629820 115131904
L160515534 115170000
L160477439 115208095
" />
<path d="M159906010 115131904
L159906010 115703333
L159944105 115817619
L160020296 115893809
L160134581 115931904
L160210772 115931904
" />
<path d="M159144105 115931904
L159525058 115931904
L159525058 115131904
" />
<path d="M158420296 115855714
L158458391 115893809
L158572677 115931904
L158648867 115931904
L158763153 115893809
L158839343 115817619
L158877439 115741428
L158915534 115589047
L158915534 115474761
L158877439 115322380
L158839343 115246190
L158763153 115170000
L158648867 115131904
L158572677 115131904
L158458391 115170000
L158420296 115208095
" />
</g><g >
</g>
<g >
</g>
<g >
</g>
<g >
</g>
<g >
</g>
<g >
</g>
<g >
</g>
<g >
</g>
<g >
</g>
<g >
</g>
<g >
</g>
<g >
</g>
<g >
</g>
<g >
</g>
<g >
</g>
<g >
</g>
<g >
</g>
<g >
</g>
<g >
</g>
<g >
</g>
<g >
</g>
<g >
</g>
<g >
</g>
<g >
</g>
<g >
</g>
<g >
</g>
<g >
</g>
<g >
</g>
<g >
</g>
<g >
</g>
<g >
</g>
<g >
</g>
<g >
</g>
<g >
</g>
<g >
</g>
<g >
</g>
<g >
</g>
<g >
</g>
<g >
</g>
<g >
</g>
<g >
</g>
<g >
</g>
<g >
</g>
<g >
</g>
<g >
</g>
<g >
</g>
<g >
</g>
<g >
</g>
<g >
</g>
<g >
</g>
<g >
</g>
<g >
</g>
<g >
</g>
<g >
</g>
<g >
</g>
<g >
</g>
<g >
</g>
<g >
</g>
<g >
</g>
<g >
</g>
<g >
</g>
<g >
</g>
<g >
</g>
<g >
</g>
<g >
</g>
<g >
</g>
<g >
</g>
<g >
</g>
<g >
</g>
<g >
</g>
<g >
</g>
<g >
</g>
<g >
</g>
<g >
</g>
<g >
</g>
<g >
</g>
<g >
</g>
<g >
</g>
<g >
</g>
<g >
</g>
<g >
</g>
<g >
</g>
<g >
</g>
<g >
</g>
<g >
</g>
<g >
</g>
<g >
</g>
<g >
</g>
<g >
</g>
<g >
</g>
<g >
</g>
<g >
</g>
<g >
</g>
<g >
</g>
<g >
</g>
<g >
</g>
<g >
</g>
<g >
</g>
<g >
</g>
<g >
</g>
<g >
</g>
<g >
</g>
<g >
</g>
<g >
</g>
<g >
</g>
<g >
</g>
<g >
</g>
<g >
</g>
<g >
</g>
<g >
</g>
<g >
</g>
<g >
</g>
<g >
</g>
<g >
</g>
<g >
</g>
<g >
</g>
<g >
</g>
<g >
</g>
<g >
</g>
<g >
</g>
<g >
</g>
<g >
</g>
<g >
</g>
<g >
</g>
<g >
</g>
<g >
</g>
<g >
</g>
<g >
</g>
<g >
</g>
<g >
</g>
<g >
</g>
<g >
</g>
<g >
</g>
<g >
</g>
<g >
</g>
<g >
</g>
<g >
</g>
<g >
</g>
<g >
</g>
<g >
</g>
<g >
</g>
<g >
</g>
<g >
</g>
<g >
</g>
<g >
</g>
<g >
</g>
<g >
</g>
<g >
</g>
<g >
</g>
<g >
</g>
<g >
</g>
<g >
</g>
<g >
</g>
<g >
</g>
</g> 
</svg>
