M48
; DRILL file {KiCad (5.99.0-1918-g94cd0cf3a)} date 06/10/20 22:19:20
; FORMAT={-:-/ absolute / inch / decimal}
; #@! TF.CreationDate,2020-06-10T22:19:20+02:00
; #@! TF.GenerationSoftware,Kicad,Pcbnew,(5.99.0-1918-g94cd0cf3a)
; #@! TF.FileFunction,Plated,1,2,PTH
FMAT,2
INCH
T1C0.0197
T2C0.0315
T3C0.0394
T4C0.0591
T5C0.1260
%
G90
G05
T1
X3.643Y-4.975
X7.8875Y-5.0695
X3.6707Y-4.9082
X3.6707Y-5.0418
X3.7375Y-4.8805
X3.7375Y-5.0695
X3.8043Y-4.9082
X3.8043Y-5.0418
X3.832Y-4.975
X3.643Y-2.65
X3.6707Y-2.5832
X3.6707Y-2.7168
X3.7375Y-2.5555
X3.7375Y-2.7445
X3.8043Y-2.5832
X3.8043Y-2.7168
X3.832Y-2.65
X7.793Y-2.65
X7.8207Y-2.5832
X7.8207Y-2.7168
X7.8875Y-2.5555
X7.8875Y-2.7445
X7.9543Y-2.5832
X7.9543Y-2.7168
X7.982Y-2.65
X7.793Y-4.975
X7.8207Y-4.9082
X7.8207Y-5.0418
X7.8875Y-4.8805
X7.9543Y-4.9082
X7.9543Y-5.0418
X7.982Y-4.975
T2
X7.5606Y-5.2125
X7.6394Y-5.2125
X6.5856Y-4.2
X6.6644Y-4.2
X6.425Y-2.35
X6.525Y-2.25
X6.625Y-2.35
X4.8125Y-3.6016
X4.8125Y-3.7984
X6.3Y-3.6016
X6.3Y-3.7984
X4.2125Y-2.2516
X4.2125Y-2.4484
X6.15Y-4.55
X6.55Y-4.55
X4.7Y-5.6
X6.275Y-4.9606
X6.275Y-5.0394
X6.7Y-3.3125
X7.1Y-3.3125
X4.85Y-4.7
X4.85Y-5.1
X6.15Y-3.5
X6.15Y-3.9
X3.975Y-2.1625
X3.975Y-2.5625
X6.525Y-3.5
X7.65Y-4.75
X6.025Y-2.05
X6.425Y-2.05
X4.45Y-4.25
X4.45Y-4.65
X4.7Y-5.2
X6.975Y-4.625
X6.975Y-5.025
X7.35Y-5.05
X6.525Y-3.9
X4.75Y-4.0
X7.5Y-4.525
X7.075Y-5.0606
X7.075Y-5.1394
X4.925Y-2.075
X5.325Y-2.075
X4.55Y-4.0
X4.65Y-4.0
X6.75Y-2.8
X4.55Y-4.3
X4.65Y-4.3
X6.75Y-3.2
X7.5Y-4.125
X5.4875Y-5.2
X5.4875Y-5.6
X4.2975Y-3.5
X4.2975Y-3.9
X4.75Y-4.3
X4.85Y-4.0
X4.85Y-4.3
X5.0Y-5.05
X5.1Y-5.05
X5.2Y-5.05
X6.875Y-4.35
X6.875Y-4.75
X4.7625Y-2.2516
X4.7625Y-2.4484
X5.2Y-3.6016
X5.2Y-3.7984
X5.05Y-3.5
X5.05Y-3.9
X5.9625Y-2.15
X5.9625Y-2.55
X4.5Y-3.5
X6.025Y-3.5
X6.025Y-3.9
X4.5Y-3.9
X4.0625Y-3.6016
X4.0625Y-3.7984
X6.975Y-2.15
X6.975Y-2.55
X6.3125Y-2.2516
X6.3125Y-2.4484
X3.8Y-3.5
X3.8Y-3.9
X5.75Y-3.5
X5.75Y-3.9
X4.4625Y-5.2
X4.4625Y-5.6
X6.55Y-2.8
X6.55Y-3.2
X4.1875Y-4.7016
X4.1875Y-4.8984
X4.875Y-2.65
X5.75Y-4.05
X5.75Y-4.35
X5.85Y-4.05
X5.85Y-4.35
X5.95Y-4.05
X6.05Y-4.05
X7.35Y-4.75
X7.45Y-4.75
X7.55Y-5.05
X7.65Y-5.05
X6.15Y-4.7
X5.9Y-5.3
X3.825Y-4.45
X7.45Y-5.05
X3.825Y-4.05
X5.95Y-4.35
X6.05Y-4.35
X7.55Y-4.75
X5.9Y-5.4969
X7.7125Y-3.5883
X7.7125Y-3.6867
X4.675Y-3.9
X7.675Y-2.3641
X7.675Y-2.5609
X4.875Y-3.05
X4.4625Y-2.15
X4.4625Y-2.55
X4.675Y-3.5
X6.75Y-2.2516
X6.75Y-2.4484
X4.075Y-4.15
X4.5625Y-2.15
X4.5625Y-2.55
X5.5875Y-5.2
X5.5875Y-5.6
X4.075Y-2.1625
X4.075Y-2.5625
X7.4394Y-5.2125
X5.7875Y-4.625
X5.7875Y-5.025
X4.95Y-5.2
X4.075Y-4.55
X7.3606Y-5.2125
X6.875Y-2.15
X6.875Y-2.55
X4.95Y-5.6
X6.7734Y-5.65
X5.1Y-4.05
X4.3375Y-4.6
X6.5766Y-5.65
X3.85Y-2.2641
X3.85Y-2.4609
X5.35Y-2.2
X5.35Y-2.5
X6.725Y-4.5266
X4.4625Y-5.05
X4.7625Y-4.75
X5.5Y-4.05
X4.3375Y-5.0
X6.425Y-5.2
X6.425Y-5.6
X4.4625Y-4.75
X4.5625Y-4.75
X4.5625Y-5.05
X4.6625Y-4.75
X4.6625Y-5.05
X4.7625Y-5.05
X7.4508Y-5.4625
X7.5492Y-5.4625
X7.1Y-3.95
X7.1Y-4.35
X6.65Y-2.8
X6.65Y-3.2
X4.2125Y-2.558
X4.2125Y-2.617
X6.675Y-2.675
X3.95Y-3.5
X3.95Y-3.9
X5.35Y-3.5
X5.35Y-3.9
X5.1Y-2.825
X5.1Y-3.0219
X6.725Y-4.7234
X6.075Y-5.3
X6.075Y-5.4
X4.6625Y-2.15
X4.6625Y-2.55
X4.225Y-4.55
X5.65Y-2.5
X6.075Y-5.5
X5.45Y-2.2
X4.225Y-4.15
X5.55Y-2.2
X5.55Y-2.5
X6.0625Y-2.15
X6.0625Y-2.55
X7.675Y-1.825
X7.675Y-2.225
X4.175Y-3.5
X5.45Y-2.5
X5.65Y-2.2
X5.9Y-3.6016
X5.9Y-3.7984
X7.075Y-2.2
X7.075Y-2.5
X7.175Y-2.2
X7.175Y-2.5
X7.275Y-2.2
X7.275Y-2.5
X7.375Y-2.2
X7.375Y-2.5
X7.2Y-4.125
X5.45Y-3.5
X5.45Y-3.9
X7.2Y-4.525
X4.875Y-2.2
X4.875Y-2.5
X4.975Y-2.2
X4.975Y-2.5
X5.075Y-2.2
X7.575Y-2.0
X7.575Y-2.4
X5.075Y-2.5
X4.175Y-3.9
X5.6Y-3.5
X6.175Y-2.2516
X6.175Y-2.4484
X5.6Y-3.9
X6.425Y-3.5
X6.425Y-3.9
X3.925Y-4.05
X3.925Y-4.45
X5.175Y-2.2
X5.175Y-2.5
X7.525Y-3.5391
X7.525Y-3.7359
X4.95Y-3.5
X4.95Y-3.9
X4.1481Y-5.05
X4.2269Y-5.05
X5.775Y-2.15
X5.775Y-2.55
X4.975Y-2.725
X4.975Y-3.125
X5.15Y-5.4
X5.25Y-5.5
X5.35Y-5.4
X4.1625Y-5.2
X4.2625Y-5.2
X4.2625Y-5.6
X6.1625Y-3.3125
X6.55Y-4.7
X6.5625Y-3.3125
X7.075Y-2.675
X4.1625Y-5.6
X7.7125Y-4.1633
X7.7125Y-4.2617
X5.15Y-2.65
X5.55Y-2.65
X6.875Y-4.05
X6.875Y-4.15
X6.875Y-4.25
X4.3625Y-2.2516
X4.3625Y-2.4484
X6.15Y-4.4
X6.55Y-4.4
X4.5625Y-5.2
X4.5625Y-5.6
X6.225Y-5.2
X6.225Y-5.6
X4.85Y-5.2
X4.85Y-5.6
T3
X3.7125Y-2.4144
X4.3625Y-5.2
X4.3625Y-5.6
X7.6Y-3.9375
X7.125Y-5.25
X7.125Y-5.65
X4.0125Y-5.5894
X4.0278Y-4.7278
X7.225Y-4.7
X7.225Y-5.1
X7.3Y-4.125
X7.3Y-4.525
X7.9125Y-4.4125
X5.1Y-4.4
X5.1Y-4.7
X5.2Y-4.4
X5.2Y-4.7
X5.3Y-4.4
X5.3Y-4.7
X5.4Y-4.4
X5.4Y-4.7
X5.5Y-4.4
X5.5Y-4.7
X7.35Y-4.625
X3.9028Y-4.8528
X7.2Y-3.9375
X7.75Y-4.625
X7.761Y-4.8
X7.225Y-5.25
X7.225Y-5.65
X4.1394Y-3.375
X7.2Y-4.0375
X7.6Y-4.0375
X7.6Y-4.425
X7.6Y-4.525
X7.4Y-4.125
X7.4Y-4.525
X6.325Y-5.2
X6.325Y-5.6
X7.475Y-2.25
X7.475Y-2.65
X7.1Y-4.5
X7.1Y-4.9
X7.025Y-5.25
X7.025Y-5.65
T4
X6.4424Y-3.1969
X6.8951Y-3.0
X4.0409Y-3.375
X6.4424Y-2.8031
X6.4424Y-3.0
X3.7125Y-2.3159
X4.7299Y-2.8031
X4.7299Y-3.1969
X3.8332Y-4.7832
X4.7299Y-3.0
X6.8951Y-2.8031
X6.8951Y-3.1969
X4.0125Y-5.4909
X3.9582Y-4.6582
T5
X7.8875Y-4.975
X3.7375Y-4.975
X3.7375Y-2.65
X7.8875Y-2.65
T0
M30
