G04 #@! TF.GenerationSoftware,KiCad,Pcbnew,(5.99.0-1918-g94cd0cf3a)*
G04 #@! TF.CreationDate,2020-06-14T11:16:58+02:00*
G04 #@! TF.ProjectId,#210-000-S1A - Photomodule PCB [LDRs],23323130-2d30-4303-902d-533141202d20,rev?*
G04 #@! TF.SameCoordinates,Original*
G04 #@! TF.FileFunction,Legend,Bot*
G04 #@! TF.FilePolarity,Positive*
%FSLAX46Y46*%
G04 Gerber Fmt 4.6, Leading zero omitted, Abs format (unit mm)*
G04 Created by KiCad (PCBNEW (5.99.0-1918-g94cd0cf3a)) date 2020-06-14 11:16:58*
%MOMM*%
%LPD*%
G01*
G04 APERTURE LIST*
%ADD10C,0.150000*%
G04 APERTURE END LIST*
D10*
X162998095Y-102755238D02*
X162426666Y-102755238D01*
X162312380Y-102793333D01*
X162236190Y-102869523D01*
X162198095Y-102983809D01*
X162198095Y-103060000D01*
X162198095Y-101993333D02*
X162198095Y-102374285D01*
X162998095Y-102374285D01*
X162274285Y-101269523D02*
X162236190Y-101307619D01*
X162198095Y-101421904D01*
X162198095Y-101498095D01*
X162236190Y-101612380D01*
X162312380Y-101688571D01*
X162388571Y-101726666D01*
X162540952Y-101764761D01*
X162655238Y-101764761D01*
X162807619Y-101726666D01*
X162883809Y-101688571D01*
X162960000Y-101612380D01*
X162998095Y-101498095D01*
X162998095Y-101421904D01*
X162960000Y-101307619D01*
X162921904Y-101269523D01*
X162998095Y-100698095D02*
X162426666Y-100698095D01*
X162312380Y-100736190D01*
X162236190Y-100812380D01*
X162198095Y-100926666D01*
X162198095Y-101002857D01*
X162198095Y-99936190D02*
X162198095Y-100317142D01*
X162998095Y-100317142D01*
X162274285Y-99212380D02*
X162236190Y-99250476D01*
X162198095Y-99364761D01*
X162198095Y-99440952D01*
X162236190Y-99555238D01*
X162312380Y-99631428D01*
X162388571Y-99669523D01*
X162540952Y-99707619D01*
X162655238Y-99707619D01*
X162807619Y-99669523D01*
X162883809Y-99631428D01*
X162960000Y-99555238D01*
X162998095Y-99440952D01*
X162998095Y-99364761D01*
X162960000Y-99250476D01*
X162921904Y-99212380D01*
X162998095Y-98640952D02*
X162426666Y-98640952D01*
X162312380Y-98679047D01*
X162236190Y-98755238D01*
X162198095Y-98869523D01*
X162198095Y-98945714D01*
X162198095Y-97879047D02*
X162198095Y-98260000D01*
X162998095Y-98260000D01*
X162274285Y-97155238D02*
X162236190Y-97193333D01*
X162198095Y-97307619D01*
X162198095Y-97383809D01*
X162236190Y-97498095D01*
X162312380Y-97574285D01*
X162388571Y-97612380D01*
X162540952Y-97650476D01*
X162655238Y-97650476D01*
X162807619Y-97612380D01*
X162883809Y-97574285D01*
X162960000Y-97498095D01*
X162998095Y-97383809D01*
X162998095Y-97307619D01*
X162960000Y-97193333D01*
X162921904Y-97155238D01*
X162998095Y-96583809D02*
X162426666Y-96583809D01*
X162312380Y-96621904D01*
X162236190Y-96698095D01*
X162198095Y-96812380D01*
X162198095Y-96888571D01*
X162198095Y-95821904D02*
X162198095Y-96202857D01*
X162998095Y-96202857D01*
X162274285Y-95098095D02*
X162236190Y-95136190D01*
X162198095Y-95250476D01*
X162198095Y-95326666D01*
X162236190Y-95440952D01*
X162312380Y-95517142D01*
X162388571Y-95555238D01*
X162540952Y-95593333D01*
X162655238Y-95593333D01*
X162807619Y-95555238D01*
X162883809Y-95517142D01*
X162960000Y-95440952D01*
X162998095Y-95326666D01*
X162998095Y-95250476D01*
X162960000Y-95136190D01*
X162921904Y-95098095D01*
M02*
