M48
; DRILL file {KiCad (5.99.0-1918-g94cd0cf3a)} date 06/14/20 11:17:02
; FORMAT={-:-/ absolute / inch / decimal}
; #@! TF.CreationDate,2020-06-14T11:17:02+02:00
; #@! TF.GenerationSoftware,Kicad,Pcbnew,(5.99.0-1918-g94cd0cf3a)
; #@! TF.FileFunction,Plated,1,2,PTH
FMAT,2
INCH
T1C0.0315
T2C0.0394
%
G90
G05
T1
X6.3331Y-4.0
X6.4669Y-4.0
X6.3331Y-3.4
X6.1065Y-3.608
X6.1735Y-3.492
X6.1065Y-3.792
X6.1735Y-3.908
X6.6265Y-3.492
X6.6935Y-3.608
X6.6265Y-3.908
X6.6935Y-3.792
X6.4669Y-3.4
T2
X6.35Y-3.7
X6.45Y-3.7
X6.25Y-3.5
X6.25Y-3.6
X6.25Y-3.7
X6.25Y-3.8
X6.25Y-3.9
X6.55Y-3.5
X6.55Y-3.6
X6.55Y-3.7
X6.55Y-3.8
X6.55Y-3.9
T0
M30
