G04 #@! TF.GenerationSoftware,KiCad,Pcbnew,(5.99.0-1918-g94cd0cf3a)*
G04 #@! TF.CreationDate,2020-06-14T11:16:58+02:00*
G04 #@! TF.ProjectId,#210-000-S1A - Photomodule PCB [LDRs],23323130-2d30-4303-902d-533141202d20,rev?*
G04 #@! TF.SameCoordinates,Original*
G04 #@! TF.FileFunction,Copper,L1,Top*
G04 #@! TF.FilePolarity,Positive*
%FSLAX46Y46*%
G04 Gerber Fmt 4.6, Leading zero omitted, Abs format (unit mm)*
G04 Created by KiCad (PCBNEW (5.99.0-1918-g94cd0cf3a)) date 2020-06-14 11:16:58*
%MOMM*%
%LPD*%
G01*
G04 APERTURE LIST*
%ADD10C,0.140000*%
G04 #@! TA.AperFunction,ComponentPad*
%ADD11C,1.500000*%
G04 #@! TD*
G04 APERTURE END LIST*
D10*
X156421571Y-93008571D02*
X156707285Y-92808571D01*
X156421571Y-92665714D02*
X157021571Y-92665714D01*
X157021571Y-92894285D01*
X156993000Y-92951428D01*
X156964428Y-92980000D01*
X156907285Y-93008571D01*
X156821571Y-93008571D01*
X156764428Y-92980000D01*
X156735857Y-92951428D01*
X156707285Y-92894285D01*
X156707285Y-92665714D01*
X156735857Y-93265714D02*
X156735857Y-93465714D01*
X156421571Y-93551428D02*
X156421571Y-93265714D01*
X157021571Y-93265714D01*
X157021571Y-93551428D01*
X157021571Y-93722857D02*
X156421571Y-93922857D01*
X157021571Y-94122857D01*
X156478714Y-94322857D02*
X156450142Y-94351428D01*
X156421571Y-94322857D01*
X156450142Y-94294285D01*
X156478714Y-94322857D01*
X156421571Y-94322857D01*
X156793000Y-94322857D02*
X156764428Y-94351428D01*
X156735857Y-94322857D01*
X156764428Y-94294285D01*
X156793000Y-94322857D01*
X156735857Y-94322857D01*
X156593000Y-95037142D02*
X156593000Y-95322857D01*
X156421571Y-94980000D02*
X157021571Y-95180000D01*
X156421571Y-95380000D01*
X155484142Y-93037142D02*
X155455571Y-93122857D01*
X155455571Y-93265714D01*
X155484142Y-93322857D01*
X155512714Y-93351428D01*
X155569857Y-93380000D01*
X155627000Y-93380000D01*
X155684142Y-93351428D01*
X155712714Y-93322857D01*
X155741285Y-93265714D01*
X155769857Y-93151428D01*
X155798428Y-93094285D01*
X155827000Y-93065714D01*
X155884142Y-93037142D01*
X155941285Y-93037142D01*
X155998428Y-93065714D01*
X156027000Y-93094285D01*
X156055571Y-93151428D01*
X156055571Y-93294285D01*
X156027000Y-93380000D01*
X156084142Y-94065714D02*
X155312714Y-93551428D01*
X155455571Y-94265714D02*
X156055571Y-94265714D01*
X155455571Y-94608571D01*
X156055571Y-94608571D01*
X155512714Y-94894285D02*
X155484142Y-94922857D01*
X155455571Y-94894285D01*
X155484142Y-94865714D01*
X155512714Y-94894285D01*
X155455571Y-94894285D01*
X155827000Y-94894285D02*
X155798428Y-94922857D01*
X155769857Y-94894285D01*
X155798428Y-94865714D01*
X155827000Y-94894285D01*
X155769857Y-94894285D01*
X164137571Y-97677785D02*
X164137571Y-98106357D01*
X164394714Y-97849214D02*
X163623285Y-97677785D01*
X163880428Y-98049214D02*
X163880428Y-97620642D01*
X163623285Y-97877785D02*
X164394714Y-98049214D01*
X164337571Y-98420642D02*
X164337571Y-98477785D01*
X164309000Y-98534928D01*
X164280428Y-98563500D01*
X164223285Y-98592071D01*
X164109000Y-98620642D01*
X163966142Y-98620642D01*
X163851857Y-98592071D01*
X163794714Y-98563500D01*
X163766142Y-98534928D01*
X163737571Y-98477785D01*
X163737571Y-98420642D01*
X163766142Y-98363500D01*
X163794714Y-98334928D01*
X163851857Y-98306357D01*
X163966142Y-98277785D01*
X164109000Y-98277785D01*
X164223285Y-98306357D01*
X164280428Y-98334928D01*
X164309000Y-98363500D01*
X164337571Y-98420642D01*
X164337571Y-98992071D02*
X164337571Y-99049214D01*
X164309000Y-99106357D01*
X164280428Y-99134928D01*
X164223285Y-99163500D01*
X164109000Y-99192071D01*
X163966142Y-99192071D01*
X163851857Y-99163500D01*
X163794714Y-99134928D01*
X163766142Y-99106357D01*
X163737571Y-99049214D01*
X163737571Y-98992071D01*
X163766142Y-98934928D01*
X163794714Y-98906357D01*
X163851857Y-98877785D01*
X163966142Y-98849214D01*
X164109000Y-98849214D01*
X164223285Y-98877785D01*
X164280428Y-98906357D01*
X164309000Y-98934928D01*
X164337571Y-98992071D01*
X164337571Y-99392071D02*
X164337571Y-99763500D01*
X164109000Y-99563500D01*
X164109000Y-99649214D01*
X164080428Y-99706357D01*
X164051857Y-99734928D01*
X163994714Y-99763500D01*
X163851857Y-99763500D01*
X163794714Y-99734928D01*
X163766142Y-99706357D01*
X163737571Y-99649214D01*
X163737571Y-99477785D01*
X163766142Y-99420642D01*
X163794714Y-99392071D01*
X163000142Y-97706357D02*
X163000142Y-98163500D01*
X163314428Y-98420642D02*
X163343000Y-98449214D01*
X163371571Y-98506357D01*
X163371571Y-98649214D01*
X163343000Y-98706357D01*
X163314428Y-98734928D01*
X163257285Y-98763500D01*
X163200142Y-98763500D01*
X163114428Y-98734928D01*
X162771571Y-98392071D01*
X162771571Y-98763500D01*
X162771571Y-99334928D02*
X162771571Y-98992071D01*
X162771571Y-99163500D02*
X163371571Y-99163500D01*
X163285857Y-99106357D01*
X163228714Y-99049214D01*
X163200142Y-98992071D01*
X163371571Y-99706357D02*
X163371571Y-99763500D01*
X163343000Y-99820642D01*
X163314428Y-99849214D01*
X163257285Y-99877785D01*
X163143000Y-99906357D01*
X163000142Y-99906357D01*
X162885857Y-99877785D01*
X162828714Y-99849214D01*
X162800142Y-99820642D01*
X162771571Y-99763500D01*
X162771571Y-99706357D01*
X162800142Y-99649214D01*
X162828714Y-99620642D01*
X162885857Y-99592071D01*
X163000142Y-99563500D01*
X163143000Y-99563500D01*
X163257285Y-99592071D01*
X163314428Y-99620642D01*
X163343000Y-99649214D01*
X163371571Y-99706357D01*
X162034142Y-97706357D02*
X162034142Y-98163500D01*
X162405571Y-98563500D02*
X162405571Y-98620642D01*
X162377000Y-98677785D01*
X162348428Y-98706357D01*
X162291285Y-98734928D01*
X162177000Y-98763500D01*
X162034142Y-98763500D01*
X161919857Y-98734928D01*
X161862714Y-98706357D01*
X161834142Y-98677785D01*
X161805571Y-98620642D01*
X161805571Y-98563500D01*
X161834142Y-98506357D01*
X161862714Y-98477785D01*
X161919857Y-98449214D01*
X162034142Y-98420642D01*
X162177000Y-98420642D01*
X162291285Y-98449214D01*
X162348428Y-98477785D01*
X162377000Y-98506357D01*
X162405571Y-98563500D01*
X162405571Y-99134928D02*
X162405571Y-99192071D01*
X162377000Y-99249214D01*
X162348428Y-99277785D01*
X162291285Y-99306357D01*
X162177000Y-99334928D01*
X162034142Y-99334928D01*
X161919857Y-99306357D01*
X161862714Y-99277785D01*
X161834142Y-99249214D01*
X161805571Y-99192071D01*
X161805571Y-99134928D01*
X161834142Y-99077785D01*
X161862714Y-99049214D01*
X161919857Y-99020642D01*
X162034142Y-98992071D01*
X162177000Y-98992071D01*
X162291285Y-99020642D01*
X162348428Y-99049214D01*
X162377000Y-99077785D01*
X162405571Y-99134928D01*
X162405571Y-99706357D02*
X162405571Y-99763500D01*
X162377000Y-99820642D01*
X162348428Y-99849214D01*
X162291285Y-99877785D01*
X162177000Y-99906357D01*
X162034142Y-99906357D01*
X161919857Y-99877785D01*
X161862714Y-99849214D01*
X161834142Y-99820642D01*
X161805571Y-99763500D01*
X161805571Y-99706357D01*
X161834142Y-99649214D01*
X161862714Y-99620642D01*
X161919857Y-99592071D01*
X162034142Y-99563500D01*
X162177000Y-99563500D01*
X162291285Y-99592071D01*
X162348428Y-99620642D01*
X162377000Y-99649214D01*
X162405571Y-99706357D01*
X161068142Y-97706357D02*
X161068142Y-98163500D01*
X160868142Y-98420642D02*
X160839571Y-98506357D01*
X160839571Y-98649214D01*
X160868142Y-98706357D01*
X160896714Y-98734928D01*
X160953857Y-98763500D01*
X161011000Y-98763500D01*
X161068142Y-98734928D01*
X161096714Y-98706357D01*
X161125285Y-98649214D01*
X161153857Y-98534928D01*
X161182428Y-98477785D01*
X161211000Y-98449214D01*
X161268142Y-98420642D01*
X161325285Y-98420642D01*
X161382428Y-98449214D01*
X161411000Y-98477785D01*
X161439571Y-98534928D01*
X161439571Y-98677785D01*
X161411000Y-98763500D01*
X160839571Y-99334928D02*
X160839571Y-98992071D01*
X160839571Y-99163500D02*
X161439571Y-99163500D01*
X161353857Y-99106357D01*
X161296714Y-99049214D01*
X161268142Y-98992071D01*
X161011000Y-99563500D02*
X161011000Y-99849214D01*
X160839571Y-99506357D02*
X161439571Y-99706357D01*
X160839571Y-99906357D01*
X163654571Y-88152785D02*
X163654571Y-88581357D01*
X163911714Y-88324214D02*
X163140285Y-88152785D01*
X163397428Y-88524214D02*
X163397428Y-88095642D01*
X163140285Y-88352785D02*
X163911714Y-88524214D01*
X163854571Y-88895642D02*
X163854571Y-88952785D01*
X163826000Y-89009928D01*
X163797428Y-89038500D01*
X163740285Y-89067071D01*
X163626000Y-89095642D01*
X163483142Y-89095642D01*
X163368857Y-89067071D01*
X163311714Y-89038500D01*
X163283142Y-89009928D01*
X163254571Y-88952785D01*
X163254571Y-88895642D01*
X163283142Y-88838500D01*
X163311714Y-88809928D01*
X163368857Y-88781357D01*
X163483142Y-88752785D01*
X163626000Y-88752785D01*
X163740285Y-88781357D01*
X163797428Y-88809928D01*
X163826000Y-88838500D01*
X163854571Y-88895642D01*
X163854571Y-89467071D02*
X163854571Y-89524214D01*
X163826000Y-89581357D01*
X163797428Y-89609928D01*
X163740285Y-89638500D01*
X163626000Y-89667071D01*
X163483142Y-89667071D01*
X163368857Y-89638500D01*
X163311714Y-89609928D01*
X163283142Y-89581357D01*
X163254571Y-89524214D01*
X163254571Y-89467071D01*
X163283142Y-89409928D01*
X163311714Y-89381357D01*
X163368857Y-89352785D01*
X163483142Y-89324214D01*
X163626000Y-89324214D01*
X163740285Y-89352785D01*
X163797428Y-89381357D01*
X163826000Y-89409928D01*
X163854571Y-89467071D01*
X163854571Y-89867071D02*
X163854571Y-90238500D01*
X163626000Y-90038500D01*
X163626000Y-90124214D01*
X163597428Y-90181357D01*
X163568857Y-90209928D01*
X163511714Y-90238500D01*
X163368857Y-90238500D01*
X163311714Y-90209928D01*
X163283142Y-90181357D01*
X163254571Y-90124214D01*
X163254571Y-89952785D01*
X163283142Y-89895642D01*
X163311714Y-89867071D01*
X162517142Y-88181357D02*
X162517142Y-88638500D01*
X162831428Y-88895642D02*
X162860000Y-88924214D01*
X162888571Y-88981357D01*
X162888571Y-89124214D01*
X162860000Y-89181357D01*
X162831428Y-89209928D01*
X162774285Y-89238500D01*
X162717142Y-89238500D01*
X162631428Y-89209928D01*
X162288571Y-88867071D01*
X162288571Y-89238500D01*
X162888571Y-89609928D02*
X162888571Y-89667071D01*
X162860000Y-89724214D01*
X162831428Y-89752785D01*
X162774285Y-89781357D01*
X162660000Y-89809928D01*
X162517142Y-89809928D01*
X162402857Y-89781357D01*
X162345714Y-89752785D01*
X162317142Y-89724214D01*
X162288571Y-89667071D01*
X162288571Y-89609928D01*
X162317142Y-89552785D01*
X162345714Y-89524214D01*
X162402857Y-89495642D01*
X162517142Y-89467071D01*
X162660000Y-89467071D01*
X162774285Y-89495642D01*
X162831428Y-89524214D01*
X162860000Y-89552785D01*
X162888571Y-89609928D01*
X162888571Y-90181357D02*
X162888571Y-90238500D01*
X162860000Y-90295642D01*
X162831428Y-90324214D01*
X162774285Y-90352785D01*
X162660000Y-90381357D01*
X162517142Y-90381357D01*
X162402857Y-90352785D01*
X162345714Y-90324214D01*
X162317142Y-90295642D01*
X162288571Y-90238500D01*
X162288571Y-90181357D01*
X162317142Y-90124214D01*
X162345714Y-90095642D01*
X162402857Y-90067071D01*
X162517142Y-90038500D01*
X162660000Y-90038500D01*
X162774285Y-90067071D01*
X162831428Y-90095642D01*
X162860000Y-90124214D01*
X162888571Y-90181357D01*
X161551142Y-88181357D02*
X161551142Y-88638500D01*
X161922571Y-89038500D02*
X161922571Y-89095642D01*
X161894000Y-89152785D01*
X161865428Y-89181357D01*
X161808285Y-89209928D01*
X161694000Y-89238500D01*
X161551142Y-89238500D01*
X161436857Y-89209928D01*
X161379714Y-89181357D01*
X161351142Y-89152785D01*
X161322571Y-89095642D01*
X161322571Y-89038500D01*
X161351142Y-88981357D01*
X161379714Y-88952785D01*
X161436857Y-88924214D01*
X161551142Y-88895642D01*
X161694000Y-88895642D01*
X161808285Y-88924214D01*
X161865428Y-88952785D01*
X161894000Y-88981357D01*
X161922571Y-89038500D01*
X161922571Y-89609928D02*
X161922571Y-89667071D01*
X161894000Y-89724214D01*
X161865428Y-89752785D01*
X161808285Y-89781357D01*
X161694000Y-89809928D01*
X161551142Y-89809928D01*
X161436857Y-89781357D01*
X161379714Y-89752785D01*
X161351142Y-89724214D01*
X161322571Y-89667071D01*
X161322571Y-89609928D01*
X161351142Y-89552785D01*
X161379714Y-89524214D01*
X161436857Y-89495642D01*
X161551142Y-89467071D01*
X161694000Y-89467071D01*
X161808285Y-89495642D01*
X161865428Y-89524214D01*
X161894000Y-89552785D01*
X161922571Y-89609928D01*
X161922571Y-90181357D02*
X161922571Y-90238500D01*
X161894000Y-90295642D01*
X161865428Y-90324214D01*
X161808285Y-90352785D01*
X161694000Y-90381357D01*
X161551142Y-90381357D01*
X161436857Y-90352785D01*
X161379714Y-90324214D01*
X161351142Y-90295642D01*
X161322571Y-90238500D01*
X161322571Y-90181357D01*
X161351142Y-90124214D01*
X161379714Y-90095642D01*
X161436857Y-90067071D01*
X161551142Y-90038500D01*
X161694000Y-90038500D01*
X161808285Y-90067071D01*
X161865428Y-90095642D01*
X161894000Y-90124214D01*
X161922571Y-90181357D01*
D11*
X166370000Y-99060000D03*
X166370000Y-96520000D03*
X166370000Y-93980000D03*
X166370000Y-91440000D03*
X166370000Y-88900000D03*
X158750000Y-99060000D03*
X158750000Y-96520000D03*
X158750000Y-93980000D03*
X158750000Y-91440000D03*
X158750000Y-88900000D03*
M02*
