<?xml version="1.0" standalone="no"?>
 <!DOCTYPE svg PUBLIC "-//W3C//DTD SVG 1.1//EN" 
 "http://www.w3.org/Graphics/SVG/1.1/DTD/svg11.dtd"> 
<svg xmlns="http://www.w3.org/2000/svg" version="1.1" 
    width="29.7002cm" height="21.0007cm" viewBox="0 0 116930 82680 ">
<title>SVG Picture created as #510-000-S1A - Audio Jack PCB [Input, Pads L].svg date 2020/01/07 18:13:46 </title>
  <desc>Picture generated by Eeschema-SVG </desc>
<g style="fill:#000000; fill-opacity:1;stroke:#000000; stroke-opacity:1;
stroke-linecap:round; stroke-linejoin:round; "
 transform="translate(0 0) scale(1 1)">
</g>
<g style="fill:#000000; fill-opacity:0.0; 
stroke:#000000; stroke-width:0; stroke-opacity:1; 
stroke-linecap:round; stroke-linejoin:round;">
<g >
</g>
<g style="fill:#840000; fill-opacity:0.0; 
stroke:#840000; stroke-width:0; stroke-opacity:1; 
stroke-linecap:round; stroke-linejoin:round;">
</g>
<g style="fill:#FFFFC2; fill-opacity:0.0; 
stroke:#FFFFC2; stroke-width:0; stroke-opacity:1; 
stroke-linecap:round; stroke-linejoin:round;">
</g>
<g style="fill:#FFFFC2; fill-opacity:0.6; 
stroke:#FFFFC2; stroke-width:0; stroke-opacity:1; 
stroke-linecap:round; stroke-linejoin:round;">
<circle cx="61000" cy="31500" r="500" /> 
</g>
<g style="fill:#840000; fill-opacity:0.6; 
stroke:#840000; stroke-width:0; stroke-opacity:1; 
stroke-linecap:round; stroke-linejoin:round;">
</g>
<g style="fill:#840000; fill-opacity:0.0; 
stroke:#840000; stroke-width:60; stroke-opacity:1; 
stroke-linecap:round; stroke-linejoin:round;">
<circle cx="61000" cy="31500" r="500" /> 
</g>
<g style="fill:#008484; fill-opacity:0.0; 
stroke:#008484; stroke-width:60; stroke-opacity:1; 
stroke-linecap:round; stroke-linejoin:round;">
<path d="M61920 31280
L61920 30780
" />
<path d="M61920 31020
L62210 31020
" />
<path d="M62210 31280
L62210 30780
" />
<path d="M62710 31280
L62420 31280
" />
<path d="M62570 31280
L62570 30780
L62520 30850
L62470 30900
L62420 30920
" />
<path d="M61920 32190
L61920 31690
L62210 32190
L62210 31690
" />
<path d="M62440 32190
L62440 31690
L62630 31690
L62680 31720
L62710 31740
L62730 31790
L62730 31860
L62710 31910
L62680 31930
L62630 31950
L62440 31950
" />
<path d="M62870 31690
L63160 31690
" />
<path d="M63020 32190
L63020 31690
" />
<path d="M63320 32190
L63320 31690
" />
<path d="M63320 31930
L63610 31930
" />
<path d="M63610 32190
L63610 31690
" />
</g>
</g>
<g style="fill:#008484; fill-opacity:0.0; 
stroke:#008484; stroke-width:0; stroke-opacity:1; 
stroke-linecap:round; stroke-linejoin:round;">
<g >
</g>
<g style="fill:#840000; fill-opacity:0.0; 
stroke:#840000; stroke-width:0; stroke-opacity:1; 
stroke-linecap:round; stroke-linejoin:round;">
</g>
<g style="fill:#FFFFC2; fill-opacity:0.0; 
stroke:#FFFFC2; stroke-width:0; stroke-opacity:1; 
stroke-linecap:round; stroke-linejoin:round;">
</g>
<g style="fill:#FFFFC2; fill-opacity:0.6; 
stroke:#FFFFC2; stroke-width:0; stroke-opacity:1; 
stroke-linecap:round; stroke-linejoin:round;">
<circle cx="61000" cy="33500" r="500" /> 
</g>
<g style="fill:#840000; fill-opacity:0.6; 
stroke:#840000; stroke-width:0; stroke-opacity:1; 
stroke-linecap:round; stroke-linejoin:round;">
</g>
<g style="fill:#840000; fill-opacity:0.0; 
stroke:#840000; stroke-width:60; stroke-opacity:1; 
stroke-linecap:round; stroke-linejoin:round;">
<circle cx="61000" cy="33500" r="500" /> 
</g>
<g style="fill:#008484; fill-opacity:0.0; 
stroke:#008484; stroke-width:60; stroke-opacity:1; 
stroke-linecap:round; stroke-linejoin:round;">
<path d="M61920 33280
L61920 32780
" />
<path d="M61920 33020
L62210 33020
" />
<path d="M62210 33280
L62210 32780
" />
<path d="M62420 32830
L62450 32810
L62500 32780
L62610 32780
L62660 32810
L62690 32830
L62710 32880
L62710 32920
L62690 33000
L62400 33280
L62710 33280
" />
<path d="M61920 34190
L61920 33690
L62210 34190
L62210 33690
" />
<path d="M62440 34190
L62440 33690
L62630 33690
L62680 33720
L62710 33740
L62730 33790
L62730 33860
L62710 33910
L62680 33930
L62630 33950
L62440 33950
" />
<path d="M62870 33690
L63160 33690
" />
<path d="M63020 34190
L63020 33690
" />
<path d="M63320 34190
L63320 33690
" />
<path d="M63320 33930
L63610 33930
" />
<path d="M63610 34190
L63610 33690
" />
</g>
</g>
<g style="fill:#008484; fill-opacity:0.0; 
stroke:#008484; stroke-width:0; stroke-opacity:1; 
stroke-linecap:round; stroke-linejoin:round;">
<g >
</g>
<g style="fill:#840000; fill-opacity:0.0; 
stroke:#840000; stroke-width:0; stroke-opacity:1; 
stroke-linecap:round; stroke-linejoin:round;">
</g>
<g style="fill:#FFFFC2; fill-opacity:0.0; 
stroke:#FFFFC2; stroke-width:0; stroke-opacity:1; 
stroke-linecap:round; stroke-linejoin:round;">
</g>
<g style="fill:#FFFFC2; fill-opacity:0.6; 
stroke:#FFFFC2; stroke-width:0; stroke-opacity:1; 
stroke-linecap:round; stroke-linejoin:round;">
<circle cx="61000" cy="35500" r="500" /> 
</g>
<g style="fill:#840000; fill-opacity:0.6; 
stroke:#840000; stroke-width:0; stroke-opacity:1; 
stroke-linecap:round; stroke-linejoin:round;">
</g>
<g style="fill:#840000; fill-opacity:0.0; 
stroke:#840000; stroke-width:60; stroke-opacity:1; 
stroke-linecap:round; stroke-linejoin:round;">
<circle cx="61000" cy="35500" r="500" /> 
</g>
<g style="fill:#008484; fill-opacity:0.0; 
stroke:#008484; stroke-width:60; stroke-opacity:1; 
stroke-linecap:round; stroke-linejoin:round;">
<path d="M61920 35280
L61920 34780
" />
<path d="M61920 35020
L62210 35020
" />
<path d="M62210 35280
L62210 34780
" />
<path d="M62400 34780
L62710 34780
L62540 34970
L62610 34970
L62660 35000
L62690 35020
L62710 35070
L62710 35190
L62690 35230
L62660 35260
L62610 35280
L62470 35280
L62420 35260
L62400 35230
" />
<path d="M61920 36190
L61920 35690
L62210 36190
L62210 35690
" />
<path d="M62440 36190
L62440 35690
L62630 35690
L62680 35720
L62710 35740
L62730 35790
L62730 35860
L62710 35910
L62680 35930
L62630 35950
L62440 35950
" />
<path d="M62870 35690
L63160 35690
" />
<path d="M63020 36190
L63020 35690
" />
<path d="M63320 36190
L63320 35690
" />
<path d="M63320 35930
L63610 35930
" />
<path d="M63610 36190
L63610 35690
" />
</g>
</g>
<g style="fill:#008484; fill-opacity:0.0; 
stroke:#008484; stroke-width:0; stroke-opacity:1; 
stroke-linecap:round; stroke-linejoin:round;">
<g >
</g>
<g style="fill:#840000; fill-opacity:0.0; 
stroke:#840000; stroke-width:0; stroke-opacity:1; 
stroke-linecap:round; stroke-linejoin:round;">
</g>
<g style="fill:#FFFFC2; fill-opacity:0.0; 
stroke:#FFFFC2; stroke-width:0; stroke-opacity:1; 
stroke-linecap:round; stroke-linejoin:round;">
</g>
<g style="fill:#FFFFC2; fill-opacity:0.6; 
stroke:#FFFFC2; stroke-width:0; stroke-opacity:1; 
stroke-linecap:round; stroke-linejoin:round;">
<circle cx="61000" cy="37500" r="500" /> 
</g>
<g style="fill:#840000; fill-opacity:0.6; 
stroke:#840000; stroke-width:0; stroke-opacity:1; 
stroke-linecap:round; stroke-linejoin:round;">
</g>
<g style="fill:#840000; fill-opacity:0.0; 
stroke:#840000; stroke-width:60; stroke-opacity:1; 
stroke-linecap:round; stroke-linejoin:round;">
<circle cx="61000" cy="37500" r="500" /> 
</g>
<g style="fill:#008484; fill-opacity:0.0; 
stroke:#008484; stroke-width:60; stroke-opacity:1; 
stroke-linecap:round; stroke-linejoin:round;">
<path d="M61920 37280
L61920 36780
" />
<path d="M61920 37020
L62210 37020
" />
<path d="M62210 37280
L62210 36780
" />
<path d="M62660 36950
L62660 37280
" />
<path d="M62540 36760
L62420 37110
L62730 37110
" />
<path d="M61920 38190
L61920 37690
L62210 38190
L62210 37690
" />
<path d="M62440 38190
L62440 37690
L62630 37690
L62680 37720
L62710 37740
L62730 37790
L62730 37860
L62710 37910
L62680 37930
L62630 37950
L62440 37950
" />
<path d="M62870 37690
L63160 37690
" />
<path d="M63020 38190
L63020 37690
" />
<path d="M63320 38190
L63320 37690
" />
<path d="M63320 37930
L63610 37930
" />
<path d="M63610 38190
L63610 37690
" />
</g>
</g>
<g style="fill:#008484; fill-opacity:0.0; 
stroke:#008484; stroke-width:0; stroke-opacity:1; 
stroke-linecap:round; stroke-linejoin:round;">
<g >
</g>
<g style="fill:#840000; fill-opacity:0.0; 
stroke:#840000; stroke-width:0; stroke-opacity:1; 
stroke-linecap:round; stroke-linejoin:round;">
</g>
<g style="fill:#FFFFC2; fill-opacity:0.0; 
stroke:#FFFFC2; stroke-width:0; stroke-opacity:1; 
stroke-linecap:round; stroke-linejoin:round;">
</g>
<g style="fill:#FFFFC2; fill-opacity:0.6; 
stroke:#FFFFC2; stroke-width:0; stroke-opacity:1; 
stroke-linecap:round; stroke-linejoin:round;">
<circle cx="61000" cy="39500" r="500" /> 
</g>
<g style="fill:#840000; fill-opacity:0.6; 
stroke:#840000; stroke-width:0; stroke-opacity:1; 
stroke-linecap:round; stroke-linejoin:round;">
</g>
<g style="fill:#840000; fill-opacity:0.0; 
stroke:#840000; stroke-width:60; stroke-opacity:1; 
stroke-linecap:round; stroke-linejoin:round;">
<circle cx="61000" cy="39500" r="500" /> 
</g>
<g style="fill:#008484; fill-opacity:0.0; 
stroke:#008484; stroke-width:60; stroke-opacity:1; 
stroke-linecap:round; stroke-linejoin:round;">
<path d="M61920 39280
L61920 38780
" />
<path d="M61920 39020
L62210 39020
" />
<path d="M62210 39280
L62210 38780
" />
<path d="M62690 38780
L62450 38780
L62420 39020
L62450 39000
L62500 38970
L62610 38970
L62660 39000
L62690 39020
L62710 39070
L62710 39190
L62690 39230
L62660 39260
L62610 39280
L62500 39280
L62450 39260
L62420 39230
" />
<path d="M61920 40190
L61920 39690
L62210 40190
L62210 39690
" />
<path d="M62440 40190
L62440 39690
L62630 39690
L62680 39720
L62710 39740
L62730 39790
L62730 39860
L62710 39910
L62680 39930
L62630 39950
L62440 39950
" />
<path d="M62870 39690
L63160 39690
" />
<path d="M63020 40190
L63020 39690
" />
<path d="M63320 40190
L63320 39690
" />
<path d="M63320 39930
L63610 39930
" />
<path d="M63610 40190
L63610 39690
" />
</g>
</g>
<g style="fill:#008484; fill-opacity:0.0; 
stroke:#008484; stroke-width:0; stroke-opacity:1; 
stroke-linecap:round; stroke-linejoin:round;">
<g >
</g>
<g style="fill:#840000; fill-opacity:0.0; 
stroke:#840000; stroke-width:0; stroke-opacity:1; 
stroke-linecap:round; stroke-linejoin:round;">
</g>
<g style="fill:#FFFFC2; fill-opacity:0.0; 
stroke:#FFFFC2; stroke-width:0; stroke-opacity:1; 
stroke-linecap:round; stroke-linejoin:round;">
</g>
<g style="fill:#FFFFC2; fill-opacity:0.6; 
stroke:#FFFFC2; stroke-width:0; stroke-opacity:1; 
stroke-linecap:round; stroke-linejoin:round;">
<circle cx="61000" cy="41500" r="500" /> 
</g>
<g style="fill:#840000; fill-opacity:0.6; 
stroke:#840000; stroke-width:0; stroke-opacity:1; 
stroke-linecap:round; stroke-linejoin:round;">
</g>
<g style="fill:#840000; fill-opacity:0.0; 
stroke:#840000; stroke-width:60; stroke-opacity:1; 
stroke-linecap:round; stroke-linejoin:round;">
<circle cx="61000" cy="41500" r="500" /> 
</g>
<g style="fill:#008484; fill-opacity:0.0; 
stroke:#008484; stroke-width:60; stroke-opacity:1; 
stroke-linecap:round; stroke-linejoin:round;">
<path d="M61920 41280
L61920 40780
" />
<path d="M61920 41020
L62210 41020
" />
<path d="M62210 41280
L62210 40780
" />
<path d="M62660 40780
L62570 40780
L62520 40810
L62500 40830
L62450 40900
L62420 41000
L62420 41190
L62450 41230
L62470 41260
L62520 41280
L62610 41280
L62660 41260
L62690 41230
L62710 41190
L62710 41070
L62690 41020
L62660 41000
L62610 40970
L62520 40970
L62470 41000
L62450 41020
L62420 41070
" />
<path d="M61920 42190
L61920 41690
L62210 42190
L62210 41690
" />
<path d="M62440 42190
L62440 41690
L62630 41690
L62680 41720
L62710 41740
L62730 41790
L62730 41860
L62710 41910
L62680 41930
L62630 41950
L62440 41950
" />
<path d="M62870 41690
L63160 41690
" />
<path d="M63020 42190
L63020 41690
" />
<path d="M63320 42190
L63320 41690
" />
<path d="M63320 41930
L63610 41930
" />
<path d="M63610 42190
L63610 41690
" />
</g>
</g>
<g style="fill:#008484; fill-opacity:0.0; 
stroke:#008484; stroke-width:0; stroke-opacity:1; 
stroke-linecap:round; stroke-linejoin:round;">
<g >
</g>
<g style="fill:#840000; fill-opacity:0.0; 
stroke:#840000; stroke-width:0; stroke-opacity:1; 
stroke-linecap:round; stroke-linejoin:round;">
</g>
<g style="fill:#FFFFC2; fill-opacity:0.0; 
stroke:#FFFFC2; stroke-width:0; stroke-opacity:1; 
stroke-linecap:round; stroke-linejoin:round;">
</g>
<g style="fill:#FFFFC2; fill-opacity:0.6; 
stroke:#FFFFC2; stroke-width:0; stroke-opacity:1; 
stroke-linecap:round; stroke-linejoin:round;">
<rect x="55000" y="33000" width="1000" height="1000" rx="0" />
</g>
<g style="fill:#840000; fill-opacity:0.6; 
stroke:#840000; stroke-width:0; stroke-opacity:1; 
stroke-linecap:round; stroke-linejoin:round;">
</g>
<g style="fill:#840000; fill-opacity:0.0; 
stroke:#840000; stroke-width:100; stroke-opacity:1; 
stroke-linecap:round; stroke-linejoin:round;">
<rect x="55000" y="33000" width="1000" height="1000" rx="0" />
</g>
<g style="fill:#840000; fill-opacity:0.0; 
stroke:#840000; stroke-width:60; stroke-opacity:1; 
stroke-linecap:round; stroke-linejoin:round;">
<rect x="55000" y="33450" width="500" height="100" rx="0" />
<path d="M55000 33500
L53500 33500
" />
<path d="M54390 33370
L54100 33370
" />
<path d="M54250 33370
L54250 32870
L54200 32940
L54150 32990
L54100 33010
" />
</g>
<g style="fill:#008484; fill-opacity:0.0; 
stroke:#008484; stroke-width:60; stroke-opacity:1; 
stroke-linecap:round; stroke-linejoin:round;">
<path d="M56440 33060
L56610 33060
" />
<path d="M56680 33320
L56440 33320
L56440 32820
L56680 32820
" />
<path d="M57150 33320
L56870 33320
" />
<path d="M57010 33320
L57010 32820
L56960 32890
L56920 32940
L56870 32960
" />
<path d="M56420 34210
L56490 34230
L56610 34230
L56660 34210
L56680 34180
L56710 34140
L56710 34090
L56680 34040
L56660 34020
L56610 33990
L56520 33970
L56470 33950
L56450 33920
L56420 33870
L56420 33830
L56450 33780
L56470 33760
L56520 33730
L56640 33730
L56710 33760
" />
</g>
</g>
<g style="fill:#008484; fill-opacity:0.0; 
stroke:#008484; stroke-width:0; stroke-opacity:1; 
stroke-linecap:round; stroke-linejoin:round;">
<g >
</g>
<g style="fill:#840000; fill-opacity:0.0; 
stroke:#840000; stroke-width:0; stroke-opacity:1; 
stroke-linecap:round; stroke-linejoin:round;">
</g>
<g style="fill:#FFFFC2; fill-opacity:0.0; 
stroke:#FFFFC2; stroke-width:0; stroke-opacity:1; 
stroke-linecap:round; stroke-linejoin:round;">
</g>
<g style="fill:#FFFFC2; fill-opacity:0.6; 
stroke:#FFFFC2; stroke-width:0; stroke-opacity:1; 
stroke-linecap:round; stroke-linejoin:round;">
<rect x="55000" y="35000" width="1000" height="1000" rx="0" />
</g>
<g style="fill:#840000; fill-opacity:0.6; 
stroke:#840000; stroke-width:0; stroke-opacity:1; 
stroke-linecap:round; stroke-linejoin:round;">
</g>
<g style="fill:#840000; fill-opacity:0.0; 
stroke:#840000; stroke-width:100; stroke-opacity:1; 
stroke-linecap:round; stroke-linejoin:round;">
<rect x="55000" y="35000" width="1000" height="1000" rx="0" />
</g>
<g style="fill:#840000; fill-opacity:0.0; 
stroke:#840000; stroke-width:60; stroke-opacity:1; 
stroke-linecap:round; stroke-linejoin:round;">
<rect x="55000" y="35450" width="500" height="100" rx="0" />
<path d="M55000 35500
L53500 35500
" />
<path d="M54390 35370
L54100 35370
" />
<path d="M54250 35370
L54250 34870
L54200 34940
L54150 34990
L54100 35010
" />
</g>
<g style="fill:#008484; fill-opacity:0.0; 
stroke:#008484; stroke-width:60; stroke-opacity:1; 
stroke-linecap:round; stroke-linejoin:round;">
<path d="M56440 35060
L56610 35060
" />
<path d="M56680 35320
L56440 35320
L56440 34820
L56680 34820
" />
<path d="M56870 34870
L56890 34850
L56940 34820
L57060 34820
L57110 34850
L57130 34870
L57150 34920
L57150 34960
L57130 35040
L56840 35320
L57150 35320
" />
<path d="M56730 36230
L56560 35990
" />
<path d="M56440 36230
L56440 35730
L56630 35730
L56680 35760
L56710 35780
L56730 35830
L56730 35900
L56710 35950
L56680 35970
L56630 35990
L56440 35990
" />
</g>
</g>
<g style="fill:#008484; fill-opacity:0.0; 
stroke:#008484; stroke-width:0; stroke-opacity:1; 
stroke-linecap:round; stroke-linejoin:round;">
<g >
</g>
<g style="fill:#840000; fill-opacity:0.0; 
stroke:#840000; stroke-width:0; stroke-opacity:1; 
stroke-linecap:round; stroke-linejoin:round;">
</g>
<g style="fill:#FFFFC2; fill-opacity:0.0; 
stroke:#FFFFC2; stroke-width:0; stroke-opacity:1; 
stroke-linecap:round; stroke-linejoin:round;">
</g>
<g style="fill:#FFFFC2; fill-opacity:0.6; 
stroke:#FFFFC2; stroke-width:0; stroke-opacity:1; 
stroke-linecap:round; stroke-linejoin:round;">
<rect x="55000" y="37000" width="1000" height="1000" rx="0" />
</g>
<g style="fill:#840000; fill-opacity:0.6; 
stroke:#840000; stroke-width:0; stroke-opacity:1; 
stroke-linecap:round; stroke-linejoin:round;">
</g>
<g style="fill:#840000; fill-opacity:0.0; 
stroke:#840000; stroke-width:100; stroke-opacity:1; 
stroke-linecap:round; stroke-linejoin:round;">
<rect x="55000" y="37000" width="1000" height="1000" rx="0" />
</g>
<g style="fill:#840000; fill-opacity:0.0; 
stroke:#840000; stroke-width:60; stroke-opacity:1; 
stroke-linecap:round; stroke-linejoin:round;">
<rect x="55000" y="37450" width="500" height="100" rx="0" />
<path d="M55000 37500
L53500 37500
" />
<path d="M54390 37370
L54100 37370
" />
<path d="M54250 37370
L54250 36870
L54200 36940
L54150 36990
L54100 37010
" />
</g>
<g style="fill:#008484; fill-opacity:0.0; 
stroke:#008484; stroke-width:60; stroke-opacity:1; 
stroke-linecap:round; stroke-linejoin:round;">
<path d="M56440 37060
L56610 37060
" />
<path d="M56680 37320
L56440 37320
L56440 36820
L56680 36820
" />
<path d="M56840 36820
L57150 36820
L56990 37010
L57060 37010
L57110 37040
L57130 37060
L57150 37110
L57150 37230
L57130 37270
L57110 37300
L57060 37320
L56920 37320
L56870 37300
L56840 37270
" />
<path d="M56370 37730
L56660 37730
" />
<path d="M56520 38230
L56520 37730
" />
</g>
</g>
<g style="fill:#008484; fill-opacity:0.0; 
stroke:#008484; stroke-width:0; stroke-opacity:1; 
stroke-linecap:round; stroke-linejoin:round;">
<g >
</g>
<g style="fill:#840000; fill-opacity:0.0; 
stroke:#840000; stroke-width:0; stroke-opacity:1; 
stroke-linecap:round; stroke-linejoin:round;">
</g>
<g style="fill:#FFFFC2; fill-opacity:0.0; 
stroke:#FFFFC2; stroke-width:0; stroke-opacity:1; 
stroke-linecap:round; stroke-linejoin:round;">
</g>
<g style="fill:#FFFFC2; fill-opacity:0.6; 
stroke:#FFFFC2; stroke-width:0; stroke-opacity:1; 
stroke-linecap:round; stroke-linejoin:round;">
<rect x="48500" y="33000" width="3000" height="6500" rx="0" />
</g>
<g style="fill:#840000; fill-opacity:0.6; 
stroke:#840000; stroke-width:0; stroke-opacity:1; 
stroke-linecap:round; stroke-linejoin:round;">
</g>
<g style="fill:#840000; fill-opacity:0.0; 
stroke:#840000; stroke-width:100; stroke-opacity:1; 
stroke-linecap:round; stroke-linejoin:round;">
<rect x="48500" y="33000" width="3000" height="6500" rx="0" />
</g>
<g style="fill:#840000; fill-opacity:1.0; 
stroke:#840000; stroke-width:100; stroke-opacity:1; 
stroke-linecap:round; stroke-linejoin:round;">
<rect x="48000" y="37500" width="500" height="1000" rx="0" />
</g>
<g style="fill:#840000; fill-opacity:0.0; 
stroke:#840000; stroke-width:60; stroke-opacity:1; 
stroke-linecap:round; stroke-linejoin:round;">
<path style="fill:#840000; fill-opacity:0.0; 
stroke:#840000; stroke-width:60; stroke-opacity:1; 
stroke-linecap:round; stroke-linejoin:round;fill:none"
d="M 50000,33600
50100,33800
Z" /> 
<path style="fill:#840000; fill-opacity:0.0; 
stroke:#840000; stroke-width:60; stroke-opacity:1; 
stroke-linecap:round; stroke-linejoin:round;fill:none"
d="M 50700,35600
50800,35800
Z" /> 
<path style="fill:#840000; fill-opacity:0.0; 
stroke:#840000; stroke-width:60; stroke-opacity:1; 
stroke-linecap:round; stroke-linejoin:round;fill:none"
d="M 51200,37600
51300,37800
Z" /> 
</g>
<g style="fill:#840000; fill-opacity:0.0; 
stroke:#840000; stroke-width:100; stroke-opacity:1; 
stroke-linecap:round; stroke-linejoin:round;">
<path style="fill:#840000; fill-opacity:0.0; 
stroke:#840000; stroke-width:100; stroke-opacity:1; 
stroke-linecap:round; stroke-linejoin:round;fill:none"
d="M 50500,37500
50750,37750
51000,37500
51500,37500
Z" /> 
</g>
<g style="fill:#840000; fill-opacity:0.0; 
stroke:#840000; stroke-width:60; stroke-opacity:1; 
stroke-linecap:round; stroke-linejoin:round;">
<path style="fill:#840000; fill-opacity:0.0; 
stroke:#840000; stroke-width:60; stroke-opacity:1; 
stroke-linecap:round; stroke-linejoin:round;fill:none"
d="M 51500,38500
51200,38500
51200,37600
51100,37800
Z" /> 
<path style="fill:#840000; fill-opacity:0.0; 
stroke:#840000; stroke-width:60; stroke-opacity:1; 
stroke-linecap:round; stroke-linejoin:round;fill:none"
d="M 51500,36500
50700,36500
50700,35600
50600,35800
Z" /> 
<path style="fill:#840000; fill-opacity:0.0; 
stroke:#840000; stroke-width:60; stroke-opacity:1; 
stroke-linecap:round; stroke-linejoin:round;fill:none"
d="M 51500,34500
50000,34500
50000,33600
49900,33800
Z" /> 
</g>
<g style="fill:#840000; fill-opacity:0.0; 
stroke:#840000; stroke-width:100; stroke-opacity:1; 
stroke-linecap:round; stroke-linejoin:round;">
<path style="fill:#840000; fill-opacity:0.0; 
stroke:#840000; stroke-width:100; stroke-opacity:1; 
stroke-linecap:round; stroke-linejoin:round;fill:none"
d="M 49750,37500
50000,37750
50250,37500
50250,35500
51500,35500
Z" /> 
<path style="fill:#840000; fill-opacity:0.0; 
stroke:#840000; stroke-width:100; stroke-opacity:1; 
stroke-linecap:round; stroke-linejoin:round;fill:none"
d="M 51500,33500
49500,33500
49500,37500
49250,37750
49000,37500
Z" /> 
</g>
<g style="fill:#840000; fill-opacity:0.0; 
stroke:#840000; stroke-width:60; stroke-opacity:1; 
stroke-linecap:round; stroke-linejoin:round;">
<path d="M51500 35500
L52500 35500
" />
</g>
<g style="fill:#008484; fill-opacity:0.0; 
stroke:#008484; stroke-width:60; stroke-opacity:1; 
stroke-linecap:round; stroke-linejoin:round;">
</g>
<g style="fill:#008484; fill-opacity:0.0; 
stroke:#008484; stroke-width:30; stroke-opacity:1; 
stroke-linecap:round; stroke-linejoin:round;">
<path d="M51240 35590
L51180 35490
" />
<path d="M51130 35590
L51130 35390
L51200 35390
L51220 35400
L51230 35400
L51240 35420
L51240 35450
L51230 35470
L51220 35480
L51200 35490
L51130 35490
" />
</g>
<g style="fill:#008484; fill-opacity:0.0; 
stroke:#008484; stroke-width:60; stroke-opacity:1; 
stroke-linecap:round; stroke-linejoin:round;">
</g>
<g style="fill:#840000; fill-opacity:0.0; 
stroke:#840000; stroke-width:60; stroke-opacity:1; 
stroke-linecap:round; stroke-linejoin:round;">
</g>
<g style="fill:#840000; fill-opacity:0.0; 
stroke:#840000; stroke-width:30; stroke-opacity:1; 
stroke-linecap:round; stroke-linejoin:round;">
<path d="M52060 35410
L51990 35310
" />
<path d="M51940 35410
L51940 35210
L52020 35210
L52040 35220
L52050 35220
L52060 35240
L52060 35270
L52050 35290
L52040 35300
L52020 35310
L51940 35310
" />
</g>
<g style="fill:#840000; fill-opacity:0.0; 
stroke:#840000; stroke-width:60; stroke-opacity:1; 
stroke-linecap:round; stroke-linejoin:round;">
<path d="M51500 36500
L52500 36500
" />
</g>
<g style="fill:#008484; fill-opacity:0.0; 
stroke:#008484; stroke-width:60; stroke-opacity:1; 
stroke-linecap:round; stroke-linejoin:round;">
</g>
<g style="fill:#008484; fill-opacity:0.0; 
stroke:#008484; stroke-width:30; stroke-opacity:1; 
stroke-linecap:round; stroke-linejoin:round;">
<path d="M51030 36590
L50970 36490
" />
<path d="M50920 36590
L50920 36390
L50990 36390
L51010 36400
L51020 36400
L51030 36420
L51030 36450
L51020 36470
L51010 36480
L50990 36490
L50920 36490
" />
<path d="M51120 36590
L51120 36390
L51230 36590
L51230 36390
" />
</g>
<g style="fill:#008484; fill-opacity:0.0; 
stroke:#008484; stroke-width:60; stroke-opacity:1; 
stroke-linecap:round; stroke-linejoin:round;">
</g>
<g style="fill:#840000; fill-opacity:0.0; 
stroke:#840000; stroke-width:60; stroke-opacity:1; 
stroke-linecap:round; stroke-linejoin:round;">
</g>
<g style="fill:#840000; fill-opacity:0.0; 
stroke:#840000; stroke-width:30; stroke-opacity:1; 
stroke-linecap:round; stroke-linejoin:round;">
<path d="M51950 36410
L51890 36310
" />
<path d="M51840 36410
L51840 36210
L51910 36210
L51930 36220
L51940 36220
L51950 36240
L51950 36270
L51940 36290
L51930 36300
L51910 36310
L51840 36310
" />
<path d="M52040 36410
L52040 36210
L52150 36410
L52150 36210
" />
</g>
<g style="fill:#840000; fill-opacity:0.0; 
stroke:#840000; stroke-width:60; stroke-opacity:1; 
stroke-linecap:round; stroke-linejoin:round;">
<path d="M51500 33500
L52500 33500
" />
</g>
<g style="fill:#008484; fill-opacity:0.0; 
stroke:#008484; stroke-width:60; stroke-opacity:1; 
stroke-linecap:round; stroke-linejoin:round;">
</g>
<g style="fill:#008484; fill-opacity:0.0; 
stroke:#008484; stroke-width:30; stroke-opacity:1; 
stroke-linecap:round; stroke-linejoin:round;">
<path d="M51130 33580
L51160 33590
L51200 33590
L51220 33580
L51230 33570
L51240 33550
L51240 33530
L51230 33510
L51220 33500
L51200 33490
L51170 33480
L51150 33470
L51140 33460
L51130 33440
L51130 33420
L51140 33400
L51150 33400
L51170 33390
L51210 33390
L51240 33400
" />
</g>
<g style="fill:#008484; fill-opacity:0.0; 
stroke:#008484; stroke-width:60; stroke-opacity:1; 
stroke-linecap:round; stroke-linejoin:round;">
</g>
<g style="fill:#840000; fill-opacity:0.0; 
stroke:#840000; stroke-width:60; stroke-opacity:1; 
stroke-linecap:round; stroke-linejoin:round;">
</g>
<g style="fill:#840000; fill-opacity:0.0; 
stroke:#840000; stroke-width:30; stroke-opacity:1; 
stroke-linecap:round; stroke-linejoin:round;">
<path d="M51940 33400
L51970 33410
L52010 33410
L52030 33400
L52040 33390
L52050 33370
L52050 33350
L52040 33330
L52030 33320
L52010 33310
L51980 33300
L51960 33290
L51950 33280
L51940 33260
L51940 33240
L51950 33220
L51960 33220
L51980 33210
L52020 33210
L52050 33220
" />
</g>
<g style="fill:#840000; fill-opacity:0.0; 
stroke:#840000; stroke-width:60; stroke-opacity:1; 
stroke-linecap:round; stroke-linejoin:round;">
<path d="M51500 34500
L52500 34500
" />
</g>
<g style="fill:#008484; fill-opacity:0.0; 
stroke:#008484; stroke-width:60; stroke-opacity:1; 
stroke-linecap:round; stroke-linejoin:round;">
</g>
<g style="fill:#008484; fill-opacity:0.0; 
stroke:#008484; stroke-width:30; stroke-opacity:1; 
stroke-linecap:round; stroke-linejoin:round;">
<path d="M50920 34580
L50950 34590
L50990 34590
L51010 34580
L51020 34570
L51030 34550
L51030 34530
L51020 34510
L51010 34500
L50990 34490
L50960 34480
L50940 34470
L50930 34460
L50920 34440
L50920 34420
L50930 34400
L50940 34400
L50960 34390
L51000 34390
L51030 34400
" />
<path d="M51120 34590
L51120 34390
L51230 34590
L51230 34390
" />
</g>
<g style="fill:#008484; fill-opacity:0.0; 
stroke:#008484; stroke-width:60; stroke-opacity:1; 
stroke-linecap:round; stroke-linejoin:round;">
</g>
<g style="fill:#840000; fill-opacity:0.0; 
stroke:#840000; stroke-width:60; stroke-opacity:1; 
stroke-linecap:round; stroke-linejoin:round;">
</g>
<g style="fill:#840000; fill-opacity:0.0; 
stroke:#840000; stroke-width:30; stroke-opacity:1; 
stroke-linecap:round; stroke-linejoin:round;">
<path d="M51830 34400
L51860 34410
L51910 34410
L51930 34400
L51940 34390
L51950 34370
L51950 34350
L51940 34330
L51930 34320
L51910 34310
L51870 34300
L51850 34290
L51840 34280
L51830 34260
L51830 34240
L51840 34220
L51850 34220
L51870 34210
L51920 34210
L51950 34220
" />
<path d="M52030 34410
L52030 34210
L52150 34410
L52150 34210
" />
</g>
<g style="fill:#840000; fill-opacity:0.0; 
stroke:#840000; stroke-width:60; stroke-opacity:1; 
stroke-linecap:round; stroke-linejoin:round;">
<path d="M51500 37500
L52500 37500
" />
</g>
<g style="fill:#008484; fill-opacity:0.0; 
stroke:#008484; stroke-width:60; stroke-opacity:1; 
stroke-linecap:round; stroke-linejoin:round;">
</g>
<g style="fill:#008484; fill-opacity:0.0; 
stroke:#008484; stroke-width:30; stroke-opacity:1; 
stroke-linecap:round; stroke-linejoin:round;">
<path d="M51150 37390
L51260 37390
" />
<path d="M51200 37590
L51200 37390
" />
</g>
<g style="fill:#008484; fill-opacity:0.0; 
stroke:#008484; stroke-width:60; stroke-opacity:1; 
stroke-linecap:round; stroke-linejoin:round;">
</g>
<g style="fill:#840000; fill-opacity:0.0; 
stroke:#840000; stroke-width:60; stroke-opacity:1; 
stroke-linecap:round; stroke-linejoin:round;">
</g>
<g style="fill:#840000; fill-opacity:0.0; 
stroke:#840000; stroke-width:30; stroke-opacity:1; 
stroke-linecap:round; stroke-linejoin:round;">
<path d="M51940 37210
L52050 37210
" />
<path d="M52000 37410
L52000 37210
" />
</g>
<g style="fill:#840000; fill-opacity:0.0; 
stroke:#840000; stroke-width:60; stroke-opacity:1; 
stroke-linecap:round; stroke-linejoin:round;">
<path d="M51500 38500
L52500 38500
" />
</g>
<g style="fill:#008484; fill-opacity:0.0; 
stroke:#008484; stroke-width:60; stroke-opacity:1; 
stroke-linecap:round; stroke-linejoin:round;">
</g>
<g style="fill:#008484; fill-opacity:0.0; 
stroke:#008484; stroke-width:30; stroke-opacity:1; 
stroke-linecap:round; stroke-linejoin:round;">
<path d="M50940 38390
L51050 38390
" />
<path d="M50990 38590
L50990 38390
" />
<path d="M51120 38590
L51120 38390
L51230 38590
L51230 38390
" />
</g>
<g style="fill:#008484; fill-opacity:0.0; 
stroke:#008484; stroke-width:60; stroke-opacity:1; 
stroke-linecap:round; stroke-linejoin:round;">
</g>
<g style="fill:#840000; fill-opacity:0.0; 
stroke:#840000; stroke-width:60; stroke-opacity:1; 
stroke-linecap:round; stroke-linejoin:round;">
</g>
<g style="fill:#840000; fill-opacity:0.0; 
stroke:#840000; stroke-width:30; stroke-opacity:1; 
stroke-linecap:round; stroke-linejoin:round;">
<path d="M51830 38210
L51950 38210
" />
<path d="M51890 38410
L51890 38210
" />
<path d="M52010 38410
L52010 38210
L52130 38410
L52130 38210
" />
</g>
<g style="fill:#840000; fill-opacity:0.0; 
stroke:#840000; stroke-width:60; stroke-opacity:1; 
stroke-linecap:round; stroke-linejoin:round;">
</g>
<g style="fill:#008484; fill-opacity:0.0; 
stroke:#008484; stroke-width:60; stroke-opacity:1; 
stroke-linecap:round; stroke-linejoin:round;">
<path d="M50330 32240
L50330 32600
L50300 32670
L50260 32720
L50190 32740
L50140 32740
" />
<path d="M50830 32740
L50540 32740
" />
<path d="M50690 32740
L50690 32240
L50640 32310
L50590 32360
L50540 32380
" />
<path d="M48580 40240
L48580 39740
L48860 40240
L48860 39740
" />
<path d="M49250 39740
L49250 40100
L49220 40170
L49170 40220
L49100 40240
L49050 40240
" />
<path d="M49770 40240
L49600 40000
" />
<path d="M49480 40240
L49480 39740
L49670 39740
L49720 39770
L49750 39790
L49770 39840
L49770 39910
L49750 39960
L49720 39980
L49670 40000
L49480 40000
" />
<path d="M50200 39740
L50100 39740
L50050 39770
L50030 39790
L49980 39860
L49960 39960
L49960 40150
L49980 40190
L50010 40220
L50050 40240
L50150 40240
L50200 40220
L50220 40190
L50250 40150
L50250 40030
L50220 39980
L50200 39960
L50150 39930
L50050 39930
L50010 39960
L49980 39980
L49960 40030
" />
<path d="M50460 40240
L50460 39740
" />
<path d="M50460 39980
L50750 39980
" />
<path d="M50750 40240
L50750 39740
" />
<path d="M50980 40240
L50980 39740
L51150 40100
L51320 39740
L51320 40240
" />
<path d="M51550 40050
L51940 40050
" />
<path d="M52440 40240
L52150 40240
" />
<path d="M52290 40240
L52290 39740
L52250 39810
L52200 39860
L52150 39880
" />
</g>
</g>
<g style="fill:#008484; fill-opacity:0.0; 
stroke:#008484; stroke-width:60; stroke-opacity:1; 
stroke-linecap:round; stroke-linejoin:round;">
</g>
<g style="fill:#008400; fill-opacity:0.0; 
stroke:#008400; stroke-width:60; stroke-opacity:1; 
stroke-linecap:round; stroke-linejoin:round;">
<path d="M52500 38500
L53000 38500
" />
<path d="M52500 36500
L53000 36500
" />
<path d="M52500 34500
L53000 34500
" />
<path d="M53000 37500
L53500 37500
" />
<path d="M53000 38500
L53000 37500
" />
<path d="M53000 35500
L52500 35500
" />
<path d="M53000 36500
L53000 35500
" />
<path d="M53000 33500
L52500 33500
" />
<path d="M53000 34500
L53000 33500
" />
<path d="M53500 33500
L53000 33500
" />
<path d="M53500 35500
L53000 35500
" />
<path d="M52500 37500
L53000 37500
" />
</g>
<g style="fill:#008400; fill-opacity:0.0; 
stroke:#008400; stroke-width:0; stroke-opacity:1; 
stroke-linecap:round; stroke-linejoin:round;">
</g>
<g style="fill:#008400; fill-opacity:1.0; 
stroke:#008400; stroke-width:100; stroke-opacity:1; 
stroke-linecap:round; stroke-linejoin:round;">
<circle cx="53000" cy="35500" r="200" /> 
</g>
<g style="fill:#008400; fill-opacity:1.0; 
stroke:#008400; stroke-width:0; stroke-opacity:1; 
stroke-linecap:round; stroke-linejoin:round;">
</g>
<g style="fill:#008400; fill-opacity:1.0; 
stroke:#008400; stroke-width:100; stroke-opacity:1; 
stroke-linecap:round; stroke-linejoin:round;">
<circle cx="53000" cy="33500" r="200" /> 
</g>
<g style="fill:#008400; fill-opacity:1.0; 
stroke:#008400; stroke-width:0; stroke-opacity:1; 
stroke-linecap:round; stroke-linejoin:round;">
</g>
<g style="fill:#008400; fill-opacity:1.0; 
stroke:#008400; stroke-width:100; stroke-opacity:1; 
stroke-linecap:round; stroke-linejoin:round;">
<circle cx="53000" cy="37500" r="200" /> 
</g> 
</svg>
