M48
; DRILL file {KiCad (5.1.4)-1} date 2020-01-02 19:08:23
; FORMAT={-:-/ absolute / metric / decimal}
; #@! TF.CreationDate,2020-01-02T19:08:23+01:00
; #@! TF.GenerationSoftware,Kicad,Pcbnew,(5.1.4)-1
FMAT,2
METRIC
T1C1.000
T2C1.000
%
G90
G05
T1
X153.67Y-86.17
X138.43Y-94.17
X138.43Y-90.17
X138.43Y-86.17
X153.67Y-94.17
X153.67Y-90.17
T1
G00X143.15Y-86.17
M15
G01X143.95Y-86.17
M16
G05
G00X143.15Y-90.17
M15
G01X143.95Y-90.17
M16
G05
G00X143.15Y-94.17
M15
G01X143.95Y-94.17
M16
G05
G00X148.15Y-86.17
M15
G01X148.95Y-86.17
M16
G05
G00X148.15Y-90.17
M15
G01X148.95Y-90.17
M16
G05
G00X148.15Y-94.17
M15
G01X148.95Y-94.17
M16
G05
T2
G00X136.025Y-87.312
M15
G01X137.025Y-87.312
M16
G05
G00X155.075Y-88.9
M15
G01X156.075Y-88.9
M16
G05
G00X155.075Y-91.44
M15
G01X156.075Y-91.44
M16
G05
G00X155.075Y-84.772
M15
G01X156.075Y-84.772
M16
G05
G00X155.075Y-87.312
M15
G01X156.075Y-87.312
M16
G05
G00X155.075Y-93.027
M15
G01X156.075Y-93.027
M16
G05
G00X155.075Y-95.567
M15
G01X156.075Y-95.567
M16
G05
G00X136.025Y-88.9
M15
G01X137.025Y-88.9
M16
G05
G00X136.025Y-91.44
M15
G01X137.025Y-91.44
M16
G05
G00X136.025Y-93.027
M15
G01X137.025Y-93.027
M16
G05
G00X136.025Y-95.567
M15
G01X137.025Y-95.567
M16
G05
G00X136.025Y-84.772
M15
G01X137.025Y-84.772
M16
G05
T0
M30
