G04 #@! TF.GenerationSoftware,KiCad,Pcbnew,(5.1.4)-1*
G04 #@! TF.CreationDate,2020-01-02T19:08:16+01:00*
G04 #@! TF.ProjectId,#410-000 - Alpha DPDT,23343130-2d30-4303-9020-2d20416c7068,rev?*
G04 #@! TF.SameCoordinates,Original*
G04 #@! TF.FileFunction,Legend,Top*
G04 #@! TF.FilePolarity,Positive*
%FSLAX46Y46*%
G04 Gerber Fmt 4.6, Leading zero omitted, Abs format (unit mm)*
G04 Created by KiCad (PCBNEW (5.1.4)-1) date 2020-01-02 19:08:16*
%MOMM*%
%LPD*%
G04 APERTURE LIST*
%ADD10C,0.050000*%
%ADD11C,0.152400*%
G04 APERTURE END LIST*
D10*
X157162500Y-97155000D02*
X157162500Y-96520000D01*
X156527500Y-97155000D02*
X157162500Y-97155000D01*
X134937500Y-97155000D02*
X134937500Y-96520000D01*
X135572500Y-97155000D02*
X134937500Y-97155000D01*
X134937500Y-83185000D02*
X134937500Y-83820000D01*
X135572500Y-83185000D02*
X134937500Y-83185000D01*
X157162500Y-83185000D02*
X156527500Y-83185000D01*
X157162500Y-83820000D02*
X157162500Y-83185000D01*
D11*
X145604895Y-93924361D02*
X146185466Y-93924361D01*
X146301580Y-93963066D01*
X146378990Y-94040476D01*
X146417695Y-94156590D01*
X146417695Y-94234000D01*
X146417695Y-93150266D02*
X146417695Y-93537314D01*
X145604895Y-93537314D01*
X146340285Y-92414876D02*
X146378990Y-92453580D01*
X146417695Y-92569695D01*
X146417695Y-92647104D01*
X146378990Y-92763219D01*
X146301580Y-92840628D01*
X146224171Y-92879333D01*
X146069352Y-92918038D01*
X145953238Y-92918038D01*
X145798419Y-92879333D01*
X145721009Y-92840628D01*
X145643600Y-92763219D01*
X145604895Y-92647104D01*
X145604895Y-92569695D01*
X145643600Y-92453580D01*
X145682304Y-92414876D01*
X145604895Y-91834304D02*
X146185466Y-91834304D01*
X146301580Y-91873009D01*
X146378990Y-91950419D01*
X146417695Y-92066533D01*
X146417695Y-92143942D01*
X146417695Y-91060209D02*
X146417695Y-91447257D01*
X145604895Y-91447257D01*
X146340285Y-90324819D02*
X146378990Y-90363523D01*
X146417695Y-90479638D01*
X146417695Y-90557047D01*
X146378990Y-90673161D01*
X146301580Y-90750571D01*
X146224171Y-90789276D01*
X146069352Y-90827980D01*
X145953238Y-90827980D01*
X145798419Y-90789276D01*
X145721009Y-90750571D01*
X145643600Y-90673161D01*
X145604895Y-90557047D01*
X145604895Y-90479638D01*
X145643600Y-90363523D01*
X145682304Y-90324819D01*
X145604895Y-89744247D02*
X146185466Y-89744247D01*
X146301580Y-89782952D01*
X146378990Y-89860361D01*
X146417695Y-89976476D01*
X146417695Y-90053885D01*
X146417695Y-88970152D02*
X146417695Y-89357200D01*
X145604895Y-89357200D01*
X146340285Y-88234761D02*
X146378990Y-88273466D01*
X146417695Y-88389580D01*
X146417695Y-88466990D01*
X146378990Y-88583104D01*
X146301580Y-88660514D01*
X146224171Y-88699219D01*
X146069352Y-88737923D01*
X145953238Y-88737923D01*
X145798419Y-88699219D01*
X145721009Y-88660514D01*
X145643600Y-88583104D01*
X145604895Y-88466990D01*
X145604895Y-88389580D01*
X145643600Y-88273466D01*
X145682304Y-88234761D01*
X145604895Y-87654190D02*
X146185466Y-87654190D01*
X146301580Y-87692895D01*
X146378990Y-87770304D01*
X146417695Y-87886419D01*
X146417695Y-87963828D01*
X146417695Y-86880095D02*
X146417695Y-87267142D01*
X145604895Y-87267142D01*
X146340285Y-86144704D02*
X146378990Y-86183409D01*
X146417695Y-86299523D01*
X146417695Y-86376933D01*
X146378990Y-86493047D01*
X146301580Y-86570457D01*
X146224171Y-86609161D01*
X146069352Y-86647866D01*
X145953238Y-86647866D01*
X145798419Y-86609161D01*
X145721009Y-86570457D01*
X145643600Y-86493047D01*
X145604895Y-86376933D01*
X145604895Y-86299523D01*
X145643600Y-86183409D01*
X145682304Y-86144704D01*
D10*
X134937500Y-96520000D02*
X134937500Y-83820000D01*
X156527500Y-97155000D02*
X135572500Y-97155000D01*
X157162500Y-83820000D02*
X157162500Y-96520000D01*
X135572500Y-83185000D02*
X156527500Y-83185000D01*
M02*
