<?xml version="1.0" standalone="no"?>
 <!DOCTYPE svg PUBLIC "-//W3C//DTD SVG 1.1//EN" 
 "http://www.w3.org/Graphics/SVG/1.1/DTD/svg11.dtd"> 
<svg xmlns="http://www.w3.org/2000/svg" version="1.1" 
    width="16.4287cm" height="13.8506cm" viewBox="0 0 64680 54530 ">
<title>SVG Picture created as #110-000-Edge_Cuts.svg date 2019/12/30 20:36:20 </title>
  <desc>Picture generated by PCBNEW </desc>
<g style="fill:#000000; fill-opacity:1;stroke:#000000; stroke-opacity:1;
stroke-linecap:round; stroke-linejoin:round; "
 transform="translate(0 0) scale(1 1)">
</g>
<g style="fill:#000000; fill-opacity:0.0; 
stroke:#000000; stroke-width:-0.000393701; stroke-opacity:1; 
stroke-linecap:round; stroke-linejoin:round;">
</g>
<g style="fill:#FF5B00; fill-opacity:0.0; 
stroke:#FF5B00; stroke-width:-0.000393701; stroke-opacity:1; 
stroke-linecap:round; stroke-linejoin:round;">
</g>
<g style="fill:#FF5B00; fill-opacity:0.0; 
stroke:#FF5B00; stroke-width:150; stroke-opacity:1; 
stroke-linecap:round; stroke-linejoin:round;">
<path d="M11184.9 12685 A250 250 0.0 0 0 10934.9 12935 " />
<path d="M10934.9 20185 A250 250 0.0 0 0 11184.9 20435 " />
<path d="M11184.9 24435 A250 250 0.0 0 0 10934.9 24685 " />
<path d="M10934.9 43185 A250 250 0.0 0 0 11184.9 43435 " />
<path d="M11184.9 47435 A250 250 0.0 0 0 10934.9 47685 " />
<path d="M10934.9 50185 A250 250 0.0 0 0 11184.9 50435 " />
<path d="M54934.9 50435 A250 250 0.0 0 0 55184.9 50185 " />
<path d="M55184.9 47685 A250 250 0.0 0 0 54934.9 47435 " />
<path d="M54934.9 43435 A250 250 0.0 0 0 55184.9 43185 " />
<path d="M55184.9 24685 A250 250 0.0 0 0 54934.9 24435 " />
<path d="M54934.9 20435 A250 250 0.0 0 0 55184.9 20185 " />
<path d="M55184.9 12935 A250 250 0.0 0 0 54934.9 12685 " />
<path d="M52434.9 10185 A250 250 0.0 0 0 52184.9 9935.04 " />
<path d="M49559.9 9935.04 A250 250 0.0 0 0 49309.9 10185 " />
<path d="M46809.9 10185 A250 250 0.0 0 0 46559.9 9935.04 " />
<path d="M19559.9 9935.04 A250 250 0.0 0 0 19309.9 10185 " />
<path d="M16809.9 10185 A250 250 0.0 0 0 16559.9 9935.04 " />
<path d="M13934.9 9935.04 A250 250 0.0 0 0 13684.9 10185 " />
<path d="M46809.9 10185 A1250 1250 0.0 0 0 49309.9 10185 " />
<path d="M52184 9935
L49559 9935
" />
<path d="M16559 9935
L13934 9935
" />
<path d="M16809.9 10185 A1274.75 1274.75 0.0 0 0 19309.9 10185 " />
<path d="M10934 20185
L10934 12935
" />
<path d="M55184 43185
L55184 24685
" />
<path d="M54684.9 20435 A2000 2000 0.0 0 0 54684.9 24435 " />
<path d="M54684 24435
L54934 24435
" />
<path d="M54684 20435
L54934 20435
" />
<path d="M11434.9 24435 A2000 2000 0.0 0 0 11434.9 20435 " />
<path d="M11434 20435
L11184 20435
" />
<path d="M11434 24435
L11184 24435
" />
<path d="M11434 43435
L11184 43435
" />
<path d="M52434 10185
L52434 10435
" />
<path d="M54934 12685
L54684 12685
" />
<path d="M54934 43435
L54684 43435
" />
<path d="M54934 47435
L54684 47435
" />
<path d="M11434 50435
L11184 50435
" />
<path d="M11434 47435
L11184 47435
" />
<path d="M11434 12685
L11184 12685
" />
<path d="M13684 10435
L13684 10185
" />
<path d="M54684.9 43435 A2000 2000 0.0 0 0 54684.9 47435 " />
<path d="M52434.9 10435 A2250 2250 0.0 0 0 54684.9 12685 " />
<path d="M10934 47685
L10934 50185
" />
<path d="M11434.9 47435 A2000 2000 0.0 0 0 11434.9 43435 " />
<path d="M11434.9 12685 A2250 2250 0.0 0 0 13684.9 10435 " />
<path d="M55184 47685
L55184 50185
" />
<path d="M46559 9935
L19559 9935
" />
<path d="M55184 20185
L55184 12935
" />
<path d="M11434 50435
L54934 50435
" />
<path d="M10934 43185
L10934 24685
" />
<g >
</g>
<g >
</g>
<g >
</g>
<g >
</g>
<g >
</g>
<g >
</g>
<g >
</g>
<g >
</g>
<g >
</g>
<g >
</g>
<g >
</g>
<g >
</g>
<g >
</g>
<g >
</g>
<g >
</g>
<g >
</g>
<g >
</g>
<g >
</g>
<g >
</g>
<g >
</g>
<g >
</g>
<g >
</g>
<g >
</g>
<g >
</g>
<g >
</g>
<g >
</g>
<g >
</g>
<g >
</g>
<g >
</g>
<g >
</g>
<g >
</g>
<g >
</g>
<g >
</g>
<g >
</g>
<g >
</g>
<g >
</g>
<g >
</g>
<g >
</g>
<g >
</g>
<g >
</g>
<g >
</g>
<g >
</g>
<g >
</g>
<g >
</g>
<g >
</g>
<g >
</g>
<g >
</g>
<g >
</g>
<g >
</g>
<g >
</g>
<g >
</g>
<g >
</g>
<g >
</g>
<g >
</g>
<g >
</g>
<g >
</g>
<g >
</g>
<g >
</g>
<g >
</g>
<g >
</g>
<g >
</g>
<g >
</g>
<g >
</g>
<g >
</g>
<g >
</g>
<g >
</g>
<g >
</g>
<g >
</g>
<g >
</g>
<g >
</g>
<g >
</g>
<g >
</g>
<g >
</g>
<g >
</g>
<g >
</g>
<g >
</g>
<g >
</g>
<g >
</g>
<g >
</g>
<g >
</g>
<g >
</g>
<g >
</g>
<g >
</g>
<g >
</g>
<g >
</g>
<g >
</g>
<g >
</g>
<g >
</g>
<g >
</g>
<g >
</g>
<g >
</g>
<g >
</g>
<g >
</g>
<g >
</g>
<g >
</g>
<g >
</g>
<g >
</g>
<g >
</g>
<g >
</g>
<g >
</g>
<g >
</g>
<g >
</g>
<g >
</g>
<g >
</g>
<g >
</g>
<g >
</g>
<g >
</g>
<g >
</g>
<g >
</g>
<g >
</g>
<g >
</g>
<g >
</g>
<g >
</g>
<g >
</g>
<g >
</g>
<g >
</g>
<g >
</g>
<g >
</g>
<g >
</g>
<g >
</g>
<g >
</g>
<g >
</g>
<g >
</g>
<g >
</g>
<g >
</g>
<g >
</g>
<g >
</g>
<g >
</g>
<g >
</g>
<g >
</g>
<g >
</g>
<g >
</g>
<g >
</g>
<g >
</g>
<g >
</g>
<g >
</g>
<g >
</g>
<g >
</g>
<g >
</g>
<g >
</g>
<g >
</g>
<g >
</g>
<g >
</g>
<g >
</g>
<g >
</g>
<g >
</g>
<g >
</g>
<g >
</g>
<g >
</g>
<g >
</g>
<g >
</g>
<g >
</g>
<g >
</g>
<g >
</g>
<g >
</g>
<g >
</g>
<g >
</g>
<g >
</g>
<g >
</g>
<g >
</g>
<g >
</g>
<g >
</g>
<g >
</g>
<g >
</g>
<g >
</g>
<g >
</g>
<g >
</g>
<g >
</g>
<g >
</g>
<g >
</g>
<g >
</g>
<g >
</g>
<g >
</g>
<g >
</g>
<g >
</g>
<g >
</g>
<g >
</g>
<g >
</g>
<g >
</g>
<g >
</g>
<g >
</g>
<g >
</g>
<g >
</g>
<g >
</g>
<g >
</g>
<g >
</g>
<g >
</g>
<g >
</g>
<g >
</g>
<g >
</g>
<g >
</g>
<g >
</g>
<g >
</g>
<g >
</g>
<g >
</g>
<g >
</g>
<g >
</g>
<g >
</g>
<g >
</g>
<g >
</g>
<g >
</g>
<g >
</g>
<g >
</g>
<g >
</g>
</g> 
</svg>
