<?xml version="1.0" standalone="no"?>
 <!DOCTYPE svg PUBLIC "-//W3C//DTD SVG 1.1//EN" 
 "http://www.w3.org/Graphics/SVG/1.1/DTD/svg11.dtd"> 
<svg xmlns="http://www.w3.org/2000/svg" version="1.1" 
    width="16.4287cm" height="13.8506cm" viewBox="0 0 64680 54530 ">
<title>SVG Picture created as #110-000-F_SilkS.svg date 2019/12/30 20:35:00 </title>
  <desc>Picture generated by PCBNEW </desc>
<g style="fill:#000000; fill-opacity:1;stroke:#000000; stroke-opacity:1;
stroke-linecap:round; stroke-linejoin:round; "
 transform="translate(0 0) scale(1 1)">
</g>
<g style="fill:#000000; fill-opacity:0.0; 
stroke:#000000; stroke-width:-0.000393701; stroke-opacity:1; 
stroke-linecap:round; stroke-linejoin:round;">
</g>
<g style="fill:#008484; fill-opacity:0.0; 
stroke:#008484; stroke-width:-0.000393701; stroke-opacity:1; 
stroke-linecap:round; stroke-linejoin:round;">
</g>
<g style="fill:#008484; fill-opacity:0.0; 
stroke:#008484; stroke-width:59.0551; stroke-opacity:1; 
stroke-linecap:round; stroke-linejoin:round;">
<path d="M26480 37762
L26480 37987
L26465 38032
L26435 38062
L26390 38077
L26360 38077
" />
<path d="M26779 38077
L26630 38077
L26630 37762
" />
<path d="M27064 38047
L27049 38062
L27004 38077
L26974 38077
L26929 38062
L26899 38032
L26884 38002
L26869 37942
L26869 37897
L26884 37837
L26899 37807
L26929 37777
L26974 37762
L27004 37762
L27049 37777
L27064 37792
" />
<path d="M27289 37762
L27289 37987
L27274 38032
L27244 38062
L27199 38077
L27169 38077
" />
<path d="M27589 38077
L27439 38077
L27439 37762
" />
<path d="M27874 38047
L27859 38062
L27814 38077
L27784 38077
L27739 38062
L27709 38032
L27694 38002
L27679 37942
L27679 37897
L27694 37837
L27709 37807
L27739 37777
L27784 37762
L27814 37762
L27859 37777
L27874 37792
" />
<path d="M28099 37762
L28099 37987
L28084 38032
L28054 38062
L28009 38077
L27979 38077
" />
<path d="M28399 38077
L28249 38077
L28249 37762
" />
<path d="M28684 38047
L28669 38062
L28624 38077
L28594 38077
L28549 38062
L28519 38032
L28504 38002
L28489 37942
L28489 37897
L28504 37837
L28519 37807
L28549 37777
L28594 37762
L28624 37762
L28669 37777
L28684 37792
" />
<path d="M28909 37762
L28909 37987
L28894 38032
L28864 38062
L28819 38077
L28789 38077
" />
<path d="M29209 38077
L29059 38077
L29059 37762
" />
<path d="M29494 38047
L29479 38062
L29434 38077
L29404 38077
L29359 38062
L29329 38032
L29314 38002
L29299 37942
L29299 37897
L29314 37837
L29329 37807
L29359 37777
L29404 37762
L29434 37762
L29479 37777
L29494 37792
" />
<g >
</g>
</g>
<g style="fill:#000000; fill-opacity:0.0; 
stroke:#000000; stroke-width:59.0551; stroke-opacity:1; 
stroke-linecap:round; stroke-linejoin:round;">
</g>
<g style="fill:#FF5B00; fill-opacity:0.0; 
stroke:#FF5B00; stroke-width:59.0551; stroke-opacity:1; 
stroke-linecap:round; stroke-linejoin:round;">
</g>
<g style="fill:#FF5B00; fill-opacity:0.0; 
stroke:#FF5B00; stroke-width:150; stroke-opacity:1; 
stroke-linecap:round; stroke-linejoin:round;">
<path d="M11184.9 12685 A250 250 0.0 0 0 10934.9 12935 " />
<path d="M10934.9 20185 A250 250 0.0 0 0 11184.9 20435 " />
<path d="M11184.9 24435 A250 250 0.0 0 0 10934.9 24685 " />
<path d="M10934.9 43185 A250 250 0.0 0 0 11184.9 43435 " />
<path d="M11184.9 47435 A250 250 0.0 0 0 10934.9 47685 " />
<path d="M10934.9 50185 A250 250 0.0 0 0 11184.9 50435 " />
<path d="M54934.9 50435 A250 250 0.0 0 0 55184.9 50185 " />
<path d="M55184.9 47685 A250 250 0.0 0 0 54934.9 47435 " />
<path d="M54934.9 43435 A250 250 0.0 0 0 55184.9 43185 " />
<path d="M55184.9 24685 A250 250 0.0 0 0 54934.9 24435 " />
<path d="M54934.9 20435 A250 250 0.0 0 0 55184.9 20185 " />
<path d="M55184.9 12935 A250 250 0.0 0 0 54934.9 12685 " />
<path d="M52434.9 10185 A250 250 0.0 0 0 52184.9 9935.04 " />
<path d="M49559.9 9935.04 A250 250 0.0 0 0 49309.9 10185 " />
<path d="M46809.9 10185 A250 250 0.0 0 0 46559.9 9935.04 " />
<path d="M19559.9 9935.04 A250 250 0.0 0 0 19309.9 10185 " />
<path d="M16809.9 10185 A250 250 0.0 0 0 16559.9 9935.04 " />
<path d="M13934.9 9935.04 A250 250 0.0 0 0 13684.9 10185 " />
<path d="M46809.9 10185 A1250 1250 0.0 0 0 49309.9 10185 " />
<path d="M52184 9935
L49559 9935
" />
<path d="M16559 9935
L13934 9935
" />
<path d="M16809.9 10185 A1274.75 1274.75 0.0 0 0 19309.9 10185 " />
<path d="M10934 20185
L10934 12935
" />
<path d="M55184 43185
L55184 24685
" />
<path d="M54684.9 20435 A2000 2000 0.0 0 0 54684.9 24435 " />
<path d="M54684 24435
L54934 24435
" />
<path d="M54684 20435
L54934 20435
" />
<path d="M11434.9 24435 A2000 2000 0.0 0 0 11434.9 20435 " />
<path d="M11434 20435
L11184 20435
" />
<path d="M11434 24435
L11184 24435
" />
<path d="M11434 43435
L11184 43435
" />
<path d="M52434 10185
L52434 10435
" />
<path d="M54934 12685
L54684 12685
" />
<path d="M54934 43435
L54684 43435
" />
<path d="M54934 47435
L54684 47435
" />
<path d="M11434 50435
L11184 50435
" />
<path d="M11434 47435
L11184 47435
" />
<path d="M11434 12685
L11184 12685
" />
<path d="M13684 10435
L13684 10185
" />
<path d="M54684.9 43435 A2000 2000 0.0 0 0 54684.9 47435 " />
<path d="M52434.9 10435 A2250 2250 0.0 0 0 54684.9 12685 " />
<path d="M10934 47685
L10934 50185
" />
<path d="M11434.9 47435 A2000 2000 0.0 0 0 11434.9 43435 " />
<path d="M11434.9 12685 A2250 2250 0.0 0 0 13684.9 10435 " />
<path d="M55184 47685
L55184 50185
" />
<path d="M46559 9935
L19559 9935
" />
<path d="M55184 20185
L55184 12935
" />
<path d="M11434 50435
L54934 50435
" />
<path d="M10934 43185
L10934 24685
" />
<g >
</g>
<g >
</g>
<g >
</g>
<g >
</g>
<g >
</g>
<g >
</g>
<g >
</g>
<g >
</g>
<g >
</g>
<g >
</g>
<g >
</g>
<g >
</g>
<g >
</g>
<g >
</g>
<g >
</g>
<g >
</g>
<g >
</g>
<g >
</g>
<g >
</g>
<g >
</g>
<g >
</g>
<g >
</g>
<g >
</g>
<g >
</g>
<g >
</g>
<g >
</g>
<g >
</g>
<g >
</g>
<g >
</g>
<g >
</g>
<g >
</g>
<g >
</g>
<g >
</g>
<g >
</g>
<g >
</g>
<g >
</g>
<g >
</g>
<g >
</g>
<g >
</g>
<g >
</g>
<g >
</g>
<g >
</g>
<g >
</g>
<g >
</g>
<g >
</g>
<g >
</g>
<g >
</g>
<g >
</g>
<g >
</g>
<g >
</g>
<g >
</g>
<g >
</g>
<g >
</g>
<g >
</g>
<g >
</g>
<g >
</g>
<g >
</g>
<g >
</g>
<g >
</g>
<g >
</g>
<g >
</g>
<g >
</g>
<g >
</g>
<g >
</g>
<g >
</g>
<g >
</g>
<g >
</g>
<g >
</g>
<g >
</g>
<g >
</g>
<g >
</g>
<g >
</g>
<g >
</g>
<g >
</g>
<g >
</g>
<g >
</g>
<g >
</g>
<g >
</g>
<g >
</g>
<g >
</g>
<g >
</g>
<g >
</g>
<g >
</g>
<g >
</g>
<g >
</g>
<g >
</g>
<g >
</g>
<g >
</g>
<g >
</g>
<g >
</g>
<g >
</g>
<g >
</g>
<g >
</g>
<g >
</g>
<g >
</g>
<g >
</g>
<g >
</g>
<g >
</g>
<g >
</g>
<g >
</g>
<g >
</g>
<g >
</g>
<g >
</g>
<g >
</g>
<g >
</g>
<g >
</g>
<g >
</g>
<g >
</g>
<g >
</g>
<g >
</g>
<g >
</g>
<g >
</g>
<g >
</g>
<g >
</g>
<g >
</g>
<g >
</g>
<g >
</g>
<g >
</g>
<g >
</g>
<g >
</g>
<g >
</g>
<g >
</g>
<g >
</g>
<g >
</g>
<g >
</g>
<g >
</g>
<g >
</g>
<g >
</g>
<g >
</g>
<g >
</g>
<g >
</g>
<g >
</g>
<g >
</g>
<g >
</g>
<g >
</g>
<g >
</g>
<g >
</g>
<g >
</g>
<g >
</g>
<g >
</g>
<g >
</g>
<g >
</g>
<g >
</g>
<g >
</g>
<g >
</g>
<g >
</g>
<g >
</g>
<g >
</g>
<g >
</g>
<g >
</g>
<g >
</g>
<g >
</g>
<g >
</g>
<g >
</g>
<g >
</g>
<g >
</g>
<g >
</g>
<g >
</g>
<g >
</g>
<g >
</g>
<g >
</g>
<g >
</g>
<g >
</g>
<g >
</g>
<g >
</g>
<g >
</g>
<g >
</g>
<g >
</g>
<g >
</g>
<g >
</g>
<g >
</g>
<g >
</g>
<g >
</g>
<g >
</g>
<g >
</g>
<g >
</g>
<g >
</g>
<g >
</g>
<g >
</g>
<g >
</g>
<g >
</g>
<g >
</g>
<g >
</g>
<g >
</g>
<g >
</g>
<g >
</g>
<g >
</g>
<g >
</g>
<g >
</g>
<g >
</g>
<g >
</g>
<g >
</g>
<g >
</g>
<g >
</g>
<g >
</g>
<g >
</g>
<g >
</g>
<g >
</g>
<g >
</g>
<g >
</g>
<g >
</g>
<g >
</g>
<g >
</g>
<g >
</g>
</g> 
</svg>
