<?xml version="1.0" standalone="no"?>
 <!DOCTYPE svg PUBLIC "-//W3C//DTD SVG 1.1//EN" 
 "http://www.w3.org/Graphics/SVG/1.1/DTD/svg11.dtd"> 
<svg
  xmlns:svg="http://www.w3.org/2000/svg"
  xmlns="http://www.w3.org/2000/svg"
  xmlns:xlink="http://www.w3.org/1999/xlink"
  version="1.1"
  width="2.867660cm" height="2.316480cm" viewBox="0 0 28676600 23164800">
<title>SVG Picture created as #210-000-S1A - Photomodule PCB [LDRs]-brd.svg date 2020/06/13 13:40:18 </title>
  <desc>Picture generated by PCBNEW </desc>
<g style="fill:#000000; fill-opacity:1.000000;stroke:#000000; stroke-opacity:1.000000;
stroke-linecap:round; stroke-linejoin:round;"
 transform="translate(0 0) scale(1 1)">
</g>
<g style="fill:#000000; fill-opacity:0.0; 
stroke:#000000; stroke-width:0.000000; stroke-opacity:1; 
stroke-linecap:round; stroke-linejoin:round;">
<g >
</g>
<g style="fill:#000000; fill-opacity:1.0; 
stroke:#000000; stroke-width:1.000000; stroke-opacity:1; 
stroke-linecap:round; stroke-linejoin:round;">
<circle cx="16632143.000000" cy="12378000.000000" r="1000000.000000" /> 
</g>
<g style="fill:#000000; fill-opacity:1.0; 
stroke:#000000; stroke-width:0.000000; stroke-opacity:1; 
stroke-linecap:round; stroke-linejoin:round;">
</g>
<g style="fill:#000000; fill-opacity:1.0; 
stroke:#000000; stroke-width:1.000000; stroke-opacity:1; 
stroke-linecap:round; stroke-linejoin:round;">
<circle cx="19172143.000000" cy="12378000.000000" r="1000000.000000" /> 
</g>
<g style="fill:#000000; fill-opacity:1.0; 
stroke:#000000; stroke-width:0.000000; stroke-opacity:1; 
stroke-linecap:round; stroke-linejoin:round;">
</g>
<g >
</g>
<g style="fill:#000000; fill-opacity:1.0; 
stroke:#000000; stroke-width:0.000000; stroke-opacity:1; 
stroke-linecap:round; stroke-linejoin:round;">
</g>
<g style="fill:#000000; fill-opacity:1.0; 
stroke:#000000; stroke-width:1.000000; stroke-opacity:1; 
stroke-linecap:round; stroke-linejoin:round;">
<circle cx="21712143.000000" cy="17458000.000000" r="1000000.000000" /> 
</g>
<g style="fill:#000000; fill-opacity:1.0; 
stroke:#000000; stroke-width:0.000000; stroke-opacity:1; 
stroke-linecap:round; stroke-linejoin:round;">
</g>
<g style="fill:#000000; fill-opacity:1.0; 
stroke:#000000; stroke-width:1.000000; stroke-opacity:1; 
stroke-linecap:round; stroke-linejoin:round;">
<circle cx="21712143.000000" cy="14918000.000000" r="1000000.000000" /> 
</g>
<g style="fill:#000000; fill-opacity:1.0; 
stroke:#000000; stroke-width:0.000000; stroke-opacity:1; 
stroke-linecap:round; stroke-linejoin:round;">
</g>
<g style="fill:#000000; fill-opacity:1.0; 
stroke:#000000; stroke-width:1.000000; stroke-opacity:1; 
stroke-linecap:round; stroke-linejoin:round;">
<circle cx="21712143.000000" cy="12378000.000000" r="1000000.000000" /> 
</g>
<g style="fill:#000000; fill-opacity:1.0; 
stroke:#000000; stroke-width:0.000000; stroke-opacity:1; 
stroke-linecap:round; stroke-linejoin:round;">
</g>
<g style="fill:#000000; fill-opacity:1.0; 
stroke:#000000; stroke-width:1.000000; stroke-opacity:1; 
stroke-linecap:round; stroke-linejoin:round;">
<circle cx="21712143.000000" cy="9838000.000000" r="1000000.000000" /> 
</g>
<g style="fill:#000000; fill-opacity:1.0; 
stroke:#000000; stroke-width:0.000000; stroke-opacity:1; 
stroke-linecap:round; stroke-linejoin:round;">
</g>
<g style="fill:#000000; fill-opacity:1.0; 
stroke:#000000; stroke-width:1.000000; stroke-opacity:1; 
stroke-linecap:round; stroke-linejoin:round;">
<circle cx="21712143.000000" cy="7298000.000000" r="1000000.000000" /> 
</g>
<g style="fill:#000000; fill-opacity:1.0; 
stroke:#000000; stroke-width:0.000000; stroke-opacity:1; 
stroke-linecap:round; stroke-linejoin:round;">
</g>
<g >
</g>
<g style="fill:#000000; fill-opacity:1.0; 
stroke:#000000; stroke-width:0.000000; stroke-opacity:1; 
stroke-linecap:round; stroke-linejoin:round;">
</g>
<g style="fill:#000000; fill-opacity:1.0; 
stroke:#000000; stroke-width:1.000000; stroke-opacity:1; 
stroke-linecap:round; stroke-linejoin:round;">
<circle cx="14092143.000000" cy="17458000.000000" r="1000000.000000" /> 
</g>
<g style="fill:#000000; fill-opacity:1.0; 
stroke:#000000; stroke-width:0.000000; stroke-opacity:1; 
stroke-linecap:round; stroke-linejoin:round;">
</g>
<g style="fill:#000000; fill-opacity:1.0; 
stroke:#000000; stroke-width:1.000000; stroke-opacity:1; 
stroke-linecap:round; stroke-linejoin:round;">
<circle cx="14092143.000000" cy="14918000.000000" r="1000000.000000" /> 
</g>
<g style="fill:#000000; fill-opacity:1.0; 
stroke:#000000; stroke-width:0.000000; stroke-opacity:1; 
stroke-linecap:round; stroke-linejoin:round;">
</g>
<g style="fill:#000000; fill-opacity:1.0; 
stroke:#000000; stroke-width:1.000000; stroke-opacity:1; 
stroke-linecap:round; stroke-linejoin:round;">
<circle cx="14092143.000000" cy="12378000.000000" r="1000000.000000" /> 
</g>
<g style="fill:#000000; fill-opacity:1.0; 
stroke:#000000; stroke-width:0.000000; stroke-opacity:1; 
stroke-linecap:round; stroke-linejoin:round;">
</g>
<g style="fill:#000000; fill-opacity:1.0; 
stroke:#000000; stroke-width:1.000000; stroke-opacity:1; 
stroke-linecap:round; stroke-linejoin:round;">
<circle cx="14092143.000000" cy="9838000.000000" r="1000000.000000" /> 
</g>
<g style="fill:#000000; fill-opacity:1.0; 
stroke:#000000; stroke-width:0.000000; stroke-opacity:1; 
stroke-linecap:round; stroke-linejoin:round;">
</g>
<g style="fill:#000000; fill-opacity:1.0; 
stroke:#000000; stroke-width:1.000000; stroke-opacity:1; 
stroke-linecap:round; stroke-linejoin:round;">
<circle cx="14092143.000000" cy="7298000.000000" r="1000000.000000" /> 
</g>
<g style="fill:#000000; fill-opacity:1.0; 
stroke:#000000; stroke-width:0.000000; stroke-opacity:1; 
stroke-linecap:round; stroke-linejoin:round;">
</g>
<g >
</g>
<g style="fill:#000000; fill-opacity:1.0; 
stroke:#000000; stroke-width:0.000000; stroke-opacity:1; 
stroke-linecap:round; stroke-linejoin:round;">
</g>
<g style="fill:#000000; fill-opacity:1.0; 
stroke:#000000; stroke-width:1.000000; stroke-opacity:1; 
stroke-linecap:round; stroke-linejoin:round;">
<circle cx="16202143.000000" cy="4758000.000000" r="800000.000000" /> 
</g>
<g style="fill:#000000; fill-opacity:1.0; 
stroke:#000000; stroke-width:0.000000; stroke-opacity:1; 
stroke-linecap:round; stroke-linejoin:round;">
</g>
<g style="fill:#000000; fill-opacity:1.0; 
stroke:#000000; stroke-width:1.000000; stroke-opacity:1; 
stroke-linecap:round; stroke-linejoin:round;">
<circle cx="19602143.000000" cy="4758000.000000" r="800000.000000" /> 
</g>
<g style="fill:#000000; fill-opacity:1.0; 
stroke:#000000; stroke-width:0.000000; stroke-opacity:1; 
stroke-linecap:round; stroke-linejoin:round;">
</g>
<g >
</g>
<g style="fill:#000000; fill-opacity:1.0; 
stroke:#000000; stroke-width:0.000000; stroke-opacity:1; 
stroke-linecap:round; stroke-linejoin:round;">
</g>
<g style="fill:#000000; fill-opacity:1.0; 
stroke:#000000; stroke-width:1.000000; stroke-opacity:1; 
stroke-linecap:round; stroke-linejoin:round;">
<circle cx="19602143.000000" cy="19998000.000000" r="800000.000000" /> 
</g>
<g style="fill:#000000; fill-opacity:1.0; 
stroke:#000000; stroke-width:0.000000; stroke-opacity:1; 
stroke-linecap:round; stroke-linejoin:round;">
</g>
<g style="fill:#000000; fill-opacity:1.0; 
stroke:#000000; stroke-width:1.000000; stroke-opacity:1; 
stroke-linecap:round; stroke-linejoin:round;">
<circle cx="16202143.000000" cy="19998000.000000" r="800000.000000" /> 
</g>
<g style="fill:#000000; fill-opacity:1.0; 
stroke:#000000; stroke-width:0.000000; stroke-opacity:1; 
stroke-linecap:round; stroke-linejoin:round;">
</g>
<g >
</g>
<g style="fill:#000000; fill-opacity:1.0; 
stroke:#000000; stroke-width:0.000000; stroke-opacity:1; 
stroke-linecap:round; stroke-linejoin:round;">
</g>
<g style="fill:#000000; fill-opacity:1.0; 
stroke:#000000; stroke-width:1.000000; stroke-opacity:1; 
stroke-linecap:round; stroke-linejoin:round;">
<circle cx="23656143.000000" cy="7095757.000000" r="800000.000000" /> 
</g>
<g style="fill:#000000; fill-opacity:1.0; 
stroke:#000000; stroke-width:0.000000; stroke-opacity:1; 
stroke-linecap:round; stroke-linejoin:round;">
</g>
<g style="fill:#000000; fill-opacity:1.0; 
stroke:#000000; stroke-width:1.000000; stroke-opacity:1; 
stroke-linecap:round; stroke-linejoin:round;">
<circle cx="25356143.000000" cy="10040243.000000" r="800000.000000" /> 
</g>
<g style="fill:#000000; fill-opacity:1.0; 
stroke:#000000; stroke-width:0.000000; stroke-opacity:1; 
stroke-linecap:round; stroke-linejoin:round;">
</g>
<g >
</g>
<g style="fill:#000000; fill-opacity:1.0; 
stroke:#000000; stroke-width:0.000000; stroke-opacity:1; 
stroke-linecap:round; stroke-linejoin:round;">
</g>
<g style="fill:#000000; fill-opacity:1.0; 
stroke:#000000; stroke-width:1.000000; stroke-opacity:1; 
stroke-linecap:round; stroke-linejoin:round;">
<circle cx="12148143.000000" cy="17660243.000000" r="800000.000000" /> 
</g>
<g style="fill:#000000; fill-opacity:1.0; 
stroke:#000000; stroke-width:0.000000; stroke-opacity:1; 
stroke-linecap:round; stroke-linejoin:round;">
</g>
<g style="fill:#000000; fill-opacity:1.0; 
stroke:#000000; stroke-width:1.000000; stroke-opacity:1; 
stroke-linecap:round; stroke-linejoin:round;">
<circle cx="10448143.000000" cy="14715757.000000" r="800000.000000" /> 
</g>
<g style="fill:#000000; fill-opacity:1.0; 
stroke:#000000; stroke-width:0.000000; stroke-opacity:1; 
stroke-linecap:round; stroke-linejoin:round;">
</g>
<g >
</g>
<g style="fill:#000000; fill-opacity:1.0; 
stroke:#000000; stroke-width:0.000000; stroke-opacity:1; 
stroke-linecap:round; stroke-linejoin:round;">
</g>
<g style="fill:#000000; fill-opacity:1.0; 
stroke:#000000; stroke-width:1.000000; stroke-opacity:1; 
stroke-linecap:round; stroke-linejoin:round;">
<circle cx="25356143.000000" cy="14715757.000000" r="800000.000000" /> 
</g>
<g style="fill:#000000; fill-opacity:1.0; 
stroke:#000000; stroke-width:0.000000; stroke-opacity:1; 
stroke-linecap:round; stroke-linejoin:round;">
</g>
<g style="fill:#000000; fill-opacity:1.0; 
stroke:#000000; stroke-width:1.000000; stroke-opacity:1; 
stroke-linecap:round; stroke-linejoin:round;">
<circle cx="23656143.000000" cy="17660243.000000" r="800000.000000" /> 
</g>
<g style="fill:#000000; fill-opacity:1.0; 
stroke:#000000; stroke-width:0.000000; stroke-opacity:1; 
stroke-linecap:round; stroke-linejoin:round;">
</g>
<g >
</g>
<g style="fill:#000000; fill-opacity:1.0; 
stroke:#000000; stroke-width:0.000000; stroke-opacity:1; 
stroke-linecap:round; stroke-linejoin:round;">
</g>
<g style="fill:#000000; fill-opacity:1.0; 
stroke:#000000; stroke-width:1.000000; stroke-opacity:1; 
stroke-linecap:round; stroke-linejoin:round;">
<circle cx="10448143.000000" cy="10040243.000000" r="800000.000000" /> 
</g>
<g style="fill:#000000; fill-opacity:1.0; 
stroke:#000000; stroke-width:0.000000; stroke-opacity:1; 
stroke-linecap:round; stroke-linejoin:round;">
</g>
<g style="fill:#000000; fill-opacity:1.0; 
stroke:#000000; stroke-width:1.000000; stroke-opacity:1; 
stroke-linecap:round; stroke-linejoin:round;">
<circle cx="12148143.000000" cy="7095757.000000" r="800000.000000" /> 
</g>
<g style="fill:#000000; fill-opacity:1.0; 
stroke:#000000; stroke-width:0.000000; stroke-opacity:1; 
stroke-linecap:round; stroke-linejoin:round;">
</g>
<g >
</g>
<g >
</g>
<g style="fill:#000000; fill-opacity:1.0; 
stroke:#000000; stroke-width:0.000000; stroke-opacity:1; 
stroke-linecap:round; stroke-linejoin:round;">
</g>
<g style="fill:#000000; fill-opacity:1.0; 
stroke:#000000; stroke-width:750000.000000; stroke-opacity:1; 
stroke-linecap:round; stroke-linejoin:round;">
</g>
<g style="fill:#000000; fill-opacity:0.0; 
stroke:#000000; stroke-width:750000.000000; stroke-opacity:1; 
stroke-linecap:round; stroke-linejoin:round;">
<path d="M14092143 7298000
L15489143 7488500
" />
<path d="M15489143 7488500
L16759143 8123500
" />
<path d="M16759143 8123500
L18156143 9139500
" />
<path d="M18156143 9139500
L18727643 10092000
" />
<path d="M18727643 10092000
L19045143 10981000
" />
<path d="M19045143 10981000
L19172143 12378000
" />
<path d="M12148143 17660243
L14092143 17458000
" />
<path d="M14092143 9838000
L15362143 10155500
" />
<path d="M15362143 10155500
L16124143 10663500
" />
<path d="M16124143 10663500
L16505143 11362000
" />
<path d="M16505143 11362000
L16632143 12378000
" />
<path d="M19602143 19998000
L20886643 19680500
" />
<path d="M20886643 19680500
L21394643 19236000
" />
<path d="M21394643 19236000
L21648643 18664500
" />
<path d="M21648643 18664500
L21712143 17458000
" />
<path d="M10448143 10040243
L10790143 11171500
" />
<path d="M10790143 11171500
L11234643 11616000
" />
<path d="M11234643 11616000
L11996643 12124000
" />
<path d="M11996643 12124000
L12758643 12314500
" />
<path d="M12758643 12314500
L14092143 12378000
" />
<path d="M25356143 14715757
L24252143 15299000
" />
<path d="M24252143 15299000
L23426643 15362500
" />
<path d="M23426643 15362500
L22791643 15299000
" />
<path d="M22791643 15299000
L21712143 14918000
" />
<path d="M25356143 10040243
L24887143 11171500
" />
<path d="M24887143 11171500
L24188643 11870000
" />
<path d="M24188643 11870000
L23299643 12378000
" />
<path d="M23299643 12378000
L22728143 12441500
" />
<path d="M22728143 12441500
L21712143 12378000
" />
<path d="M21521643 6218500
L21712143 7298000
" />
<path d="M21407343 5913700
L21204143 5583500
" />
<path d="M21407343 5913700
L21521643 6218500
" />
<path d="M21140643 5520000
L20729671 5236028
" />
<path d="M19602143 4758000
L20729671 5236028
" />
<path d="M21140643 5520000
L21204143 5583500
" />
</g>
<g >
</g>
<g style="fill:#000000; fill-opacity:0.0; 
stroke:#000000; stroke-width:750000.000000; stroke-opacity:1; 
stroke-linecap:round; stroke-linejoin:round;">
</g>
<g style="fill:#000000; fill-opacity:1.0; 
stroke:#000000; stroke-width:152400.000000; stroke-opacity:1; 
stroke-linecap:round; stroke-linejoin:round;">
<path style="fill:#000000; fill-opacity:1.0; 
stroke:#000000; stroke-width:152400.000000; stroke-opacity:1; 
stroke-linecap:round; stroke-linejoin:round;fill-rule:evenodd;"
d="M 17079994.000000,3307990.000000
17084248.000000,3312009.000000
17185642.000000,3406444.000000
17215829.000000,3429495.000000
17245697.000000,3452968.000000
17250650.000000,3456084.000000
17368454.000000,3529026.000000
17402506.000000,3545755.000000
17436400.000000,3562999.000000
17441865.000000,3565093.000000
17571593.000000,3613765.000000
17608275.000000,3623570.000000
17644849.000000,3633895.000000
17650606.000000,3634885.000000
17650613.000000,3634887.000000
17650620.000000,3634887.000000
17787329.000000,3657434.000000
17825205.000000,3659926.000000
17863091.000000,3662951.000000
17868942.000000,3662804.000000
17868949.000000,3662804.000000
18007429.000000,3658368.000000
18045084.000000,3653454.000000
18082829.000000,3649063.000000
18088539.000000,3647783.000000
18223527.000000,3616531.000000
18259480.000000,3604407.000000
18295677.000000,3592761.000000
18301030.000000,3590396.000000
18427377.000000,3533521.000000
18460301.000000,3514639.000000
18493539.000000,3496188.000000
18498331.000000,3492828.000000
18611224.000000,3412496.000000
18639891.000000,3387545.000000
18668875.000000,3363021.000000
18672923.000000,3358795.000000
18727827.000000,3300664.000000
19661335.000000,3422967.000000
20784945.000000,3719084.000000
21861816.000000,4155570.000000
22874507.000000,4725355.000000
23806579.000000,5419193.000000
24642939.000000,6225845.000000
25370027.000000,7132231.000000
25976047.000000,8123656.000000
26451176.000000,9184037.000000
26787723.000000,10296212.000000
26980221.000000,11442125.000000
27025555.000000,12603215.000000
26922988.000000,13760648.000000
26674182.000000,14895676.000000
26283173.000000,15989885.000000
25756298.000000,17025540.000000
25102098.000000,17985853.000000
24331178.000000,18855258.000000
23456039.000000,19619657.000000
22490863.000000,20266664.000000
21451296.000000,20785786.000000
20354197.000000,21168608.000000
19217347.000000,21408925.000000
18059174.000000,21502840.000000
16898463.000000,21448832.000000
15754014.000000,21247775.000000
14644389.000000,20902929.000000
14251666.000000,20723424.000000
15548561.000000,20723424.000000
15636454.000000,20863030.000000
15816082.000000,20956769.000000
16010547.000000,21013663.000000
16212375.000000,21031526.000000
16413809.000000,21009671.000000
16607109.000000,20948938.000000
16767832.000000,20863030.000000
16855725.000000,20723424.000000
16202143.000000,20069842.000000
15548561.000000,20723424.000000
14251666.000000,20723424.000000
13587580.000000,20419886.000000
12925307.000000,20008232.000000
15168617.000000,20008232.000000
15190472.000000,20209666.000000
15251205.000000,20402966.000000
15337113.000000,20563689.000000
15476719.000000,20651582.000000
16130301.000000,19998000.000000
16273985.000000,19998000.000000
16927567.000000,20651582.000000
17067173.000000,20563689.000000
17160912.000000,20384061.000000
17217806.000000,20189596.000000
17235669.000000,19987768.000000
17225788.000000,19896692.000000
18573543.000000,19896692.000000
18573543.000000,20099308.000000
18613071.000000,20298032.000000
18690609.000000,20485225.000000
18803177.000000,20653694.000000
18946449.000000,20796966.000000
19114918.000000,20909534.000000
19302111.000000,20987072.000000
19500835.000000,21026600.000000
19703451.000000,21026600.000000
19902175.000000,20987072.000000
20089368.000000,20909534.000000
20257837.000000,20796966.000000
20401109.000000,20653694.000000
20513677.000000,20485225.000000
20555564.000000,20384101.000000
21027344.000000,20267487.000000
21080959.000000,20255049.000000
21112065.000000,20240997.000000
21144253.000000,20229593.000000
21166124.000000,20216576.000000
21189315.000000,20206100.000000
21217089.000000,20186244.000000
21246426.000000,20168784.000000
21287367.000000,20131909.000000
21779151.000000,19701599.000000
21812431.000000,19675680.000000
21843191.000000,19640092.000000
21875414.000000,19605765.000000
21882022.000000,19595165.000000
21890181.000000,19585725.000000
21913406.000000,19544821.000000
21938313.000000,19504866.000000
21953222.000000,19465387.000000
22184854.000000,18944218.000000
22196020.000000,18925735.000000
22208933.000000,18890041.000000
22212260.000000,18882554.000000
22219028.000000,18862133.000000
22236467.000000,18813927.000000
22237704.000000,18805787.000000
22240294.000000,18797971.000000
22246619.000000,18747097.000000
22249850.000000,18725830.000000
22250281.000000,18717650.000000
22254964.000000,18679981.000000
22253397.000000,18658444.000000
22258498.000000,18561519.000000
22294103.000000,18546771.000000
22495330.000000,18412316.000000
22666459.000000,18241187.000000
22738280.000000,18133699.000000
22842420.000000,18297531.000000
22982384.000000,18444035.000000
23148241.000000,18560418.000000
23333616.000000,18642209.000000
23531385.000000,18686262.000000
23713529.000000,18692225.000000
23859450.000000,18615270.000000
23620222.000000,17722460.000000
22846560.000000,17929762.000000
22893529.000000,17816369.000000
22894448.000000,17811747.000000
23325808.000000,17696164.000000
23718360.000000,17696164.000000
23957588.000000,18588974.000000
24122436.000000,18582659.000000
24293431.000000,18473966.000000
24439935.000000,18334002.000000
24556318.000000,18168145.000000
24638109.000000,17982770.000000
24682162.000000,17785001.000000
24688125.000000,17602857.000000
24611170.000000,17456936.000000
23718360.000000,17696164.000000
23325808.000000,17696164.000000
23593926.000000,17624322.000000
23354698.000000,16731512.000000
23189850.000000,16737827.000000
23018855.000000,16846520.000000
22872351.000000,16986484.000000
22856197.000000,17009505.000000
22800914.000000,16876040.000000
22686774.000000,16705216.000000
23452836.000000,16705216.000000
23692064.000000,17598026.000000
24584874.000000,17358798.000000
24578559.000000,17193950.000000
24469866.000000,17022955.000000
24329902.000000,16876451.000000
24164045.000000,16760068.000000
23978670.000000,16678277.000000
23780901.000000,16634224.000000
23598757.000000,16628261.000000
23452836.000000,16705216.000000
22686774.000000,16705216.000000
22666459.000000,16674813.000000
22495330.000000,16503684.000000
22294103.000000,16369229.000000
22070512.000000,16276614.000000
21833150.000000,16229400.000000
21591136.000000,16229400.000000
21353774.000000,16276614.000000
21130183.000000,16369229.000000
20928956.000000,16503684.000000
20757827.000000,16674813.000000
20623372.000000,16876040.000000
20530757.000000,17099631.000000
20483543.000000,17336993.000000
20483543.000000,17579007.000000
20530757.000000,17816369.000000
20623372.000000,18039960.000000
20757827.000000,18241187.000000
20928956.000000,18412316.000000
21053115.000000,18495276.000000
21051744.000000,18521332.000000
20897081.000000,18869323.000000
20599495.000000,19129711.000000
20269966.000000,19211163.000000
20257837.000000,19199034.000000
20089368.000000,19086466.000000
19902175.000000,19008928.000000
19703451.000000,18969400.000000
19500835.000000,18969400.000000
19302111.000000,19008928.000000
19114918.000000,19086466.000000
18946449.000000,19199034.000000
18803177.000000,19342306.000000
18690609.000000,19510775.000000
18613071.000000,19697968.000000
18573543.000000,19896692.000000
17225788.000000,19896692.000000
17213814.000000,19786334.000000
17153081.000000,19593034.000000
17067173.000000,19432311.000000
16927567.000000,19344418.000000
16273985.000000,19998000.000000
16130301.000000,19998000.000000
15476719.000000,19344418.000000
15337113.000000,19432311.000000
15243374.000000,19611939.000000
15186480.000000,19806404.000000
15168617.000000,20008232.000000
12925307.000000,20008232.000000
12600708.000000,19806469.000000
11945252.000000,19272576.000000
15548561.000000,19272576.000000
16202143.000000,19926158.000000
16855725.000000,19272576.000000
16767832.000000,19132970.000000
16588204.000000,19039231.000000
16393739.000000,18982337.000000
16191911.000000,18964474.000000
15990477.000000,18986329.000000
15797177.000000,19047062.000000
15636454.000000,19132970.000000
15548561.000000,19272576.000000
11945252.000000,19272576.000000
11699786.000000,19072635.000000
10899412.000000,18230276.000000
10407419.000000,17558935.000000
11119543.000000,17558935.000000
11119543.000000,17761551.000000
11159071.000000,17960275.000000
11236609.000000,18147468.000000
11349177.000000,18315937.000000
11492449.000000,18459209.000000
11660918.000000,18571777.000000
11848111.000000,18649315.000000
12046835.000000,18688843.000000
12249451.000000,18688843.000000
12448175.000000,18649315.000000
12635368.000000,18571777.000000
12803837.000000,18459209.000000
12947109.000000,18315937.000000
13041867.000000,18174122.000000
13089691.000000,18169147.000000
13137827.000000,18241187.000000
13308956.000000,18412316.000000
13510183.000000,18546771.000000
13733774.000000,18639386.000000
13971136.000000,18686600.000000
14213150.000000,18686600.000000
14450512.000000,18639386.000000
14674103.000000,18546771.000000
14875330.000000,18412316.000000
15046459.000000,18241187.000000
15180914.000000,18039960.000000
15273529.000000,17816369.000000
15320743.000000,17579007.000000
15320743.000000,17336993.000000
15273529.000000,17099631.000000
15180914.000000,16876040.000000
15046459.000000,16674813.000000
14875330.000000,16503684.000000
14674103.000000,16369229.000000
14450512.000000,16276614.000000
14213150.000000,16229400.000000
13971136.000000,16229400.000000
13733774.000000,16276614.000000
13510183.000000,16369229.000000
13308956.000000,16503684.000000
13137827.000000,16674813.000000
13003372.000000,16876040.000000
12965118.000000,16968392.000000
12916056.000000,16973496.000000
12803837.000000,16861277.000000
12635368.000000,16748709.000000
12448175.000000,16671171.000000
12249451.000000,16631643.000000
12046835.000000,16631643.000000
11848111.000000,16671171.000000
11660918.000000,16748709.000000
11492449.000000,16861277.000000
11349177.000000,17004549.000000
11236609.000000,17173018.000000
11159071.000000,17360211.000000
11119543.000000,17558935.000000
10407419.000000,17558935.000000
10212553.000000,17293035.000000
9650356.000000,16276124.000000
9455824.000000,15785690.000000
13296295.000000,15785690.000000
13408208.000000,15945781.000000
13621860.000000,16059462.000000
13853584.000000,16129277.000000
14094476.000000,16152543.000000
14335280.000000,16128367.000000
14566739.000000,16057677.000000
14776078.000000,15945781.000000
14887991.000000,15785690.000000
14092143.000000,14989842.000000
13296295.000000,15785690.000000
9455824.000000,15785690.000000
9410246.000000,15670784.000000
10244836.000000,15670784.000000
10390757.000000,15747739.000000
10593189.000000,15739105.000000
10790047.000000,15691145.000000
10973767.000000,15605701.000000
11137287.000000,15486057.000000
11274323.000000,15336810.000000
11370559.000000,15182050.000000
11376874.000000,15017202.000000
11015355.000000,14920333.000000
12857600.000000,14920333.000000
12881776.000000,15161137.000000
12952466.000000,15392596.000000
13064362.000000,15601935.000000
13224453.000000,15713848.000000
14020301.000000,14918000.000000
14163985.000000,14918000.000000
14959833.000000,15713848.000000
15119924.000000,15601935.000000
15233605.000000,15388283.000000
15303420.000000,15156559.000000
15326686.000000,14915667.000000
15314772.000000,14796993.000000
20483543.000000,14796993.000000
20483543.000000,15039007.000000
20530757.000000,15276369.000000
20623372.000000,15499960.000000
20757827.000000,15701187.000000
20928956.000000,15872316.000000
21130183.000000,16006771.000000
21353774.000000,16099386.000000
21591136.000000,16146600.000000
21833150.000000,16146600.000000
22070512.000000,16099386.000000
22294103.000000,16006771.000000
22495330.000000,15872316.000000
22523274.000000,15844372.000000
22575147.000000,15862681.000000
22614713.000000,15879139.000000
22660183.000000,15888254.000000
22705240.000000,15899334.000000
22748063.000000,15901252.000000
23331083.000000,15959554.000000
23354290.000000,15964689.000000
23390092.000000,15965455.000000
23396082.000000,15966054.000000
23419741.000000,15966089.000000
23443377.000000,15966595.000000
23449376.000000,15966134.000000
23485190.000000,15966187.000000
23508507.000000,15961585.000000
24273880.000000,15902711.000000
24308668.000000,15902879.000000
24362099.000000,15892520.000000
24415744.000000,15883038.000000
24420442.000000,15881209.000000
24425393.000000,15880249.000000
24475831.000000,15859642.000000
24526541.000000,15839898.000000
24555875.000000,15821193.000000
24899180.000000,15639826.000000
25056111.000000,15704829.000000
25254835.000000,15744357.000000
25457451.000000,15744357.000000
25656175.000000,15704829.000000
25843368.000000,15627291.000000
26011837.000000,15514723.000000
26155109.000000,15371451.000000
26267677.000000,15202982.000000
26345215.000000,15015789.000000
26384743.000000,14817065.000000
26384743.000000,14614449.000000
26345215.000000,14415725.000000
26267677.000000,14228532.000000
26155109.000000,14060063.000000
26011837.000000,13916791.000000
25843368.000000,13804223.000000
25656175.000000,13726685.000000
25457451.000000,13687157.000000
25254835.000000,13687157.000000
25056111.000000,13726685.000000
24868918.000000,13804223.000000
24700449.000000,13916791.000000
24557177.000000,14060063.000000
24444609.000000,14228532.000000
24367071.000000,14415725.000000
24335975.000000,14572057.000000
24080951.000000,14706786.000000
23433579.000000,14756584.000000
22924008.000000,14705627.000000
22922461.000000,14705080.000000
22893529.000000,14559631.000000
22800914.000000,14336040.000000
22666459.000000,14134813.000000
22495330.000000,13963684.000000
22294103.000000,13829229.000000
22070512.000000,13736614.000000
21833150.000000,13689400.000000
21591136.000000,13689400.000000
21353774.000000,13736614.000000
21130183.000000,13829229.000000
20928956.000000,13963684.000000
20757827.000000,14134813.000000
20623372.000000,14336040.000000
20530757.000000,14559631.000000
20483543.000000,14796993.000000
15314772.000000,14796993.000000
15302510.000000,14674863.000000
15231820.000000,14443404.000000
15119924.000000,14234065.000000
14959833.000000,14122152.000000
14163985.000000,14918000.000000
14020301.000000,14918000.000000
13224453.000000,14122152.000000
13064362.000000,14234065.000000
12950681.000000,14447717.000000
12880866.000000,14679441.000000
12857600.000000,14920333.000000
11015355.000000,14920333.000000
10484064.000000,14777974.000000
10244836.000000,15670784.000000
9410246.000000,15670784.000000
9221927.000000,15196017.000000
9084524.000000,14658371.000000
9416161.000000,14658371.000000
9424795.000000,14860803.000000
9472755.000000,15057661.000000
9558199.000000,15241381.000000
9677843.000000,15404901.000000
9827090.000000,15541937.000000
9981850.000000,15638173.000000
10146698.000000,15644488.000000
10385926.000000,14751678.000000
10117809.000000,14679836.000000
10510360.000000,14679836.000000
11403170.000000,14919064.000000
11480125.000000,14773143.000000
11471491.000000,14570711.000000
11423531.000000,14373853.000000
11338087.000000,14190133.000000
11235782.000000,14050310.000000
13296295.000000,14050310.000000
14092143.000000,14846158.000000
14887991.000000,14050310.000000
14776078.000000,13890219.000000
14562426.000000,13776538.000000
14330702.000000,13706723.000000
14089810.000000,13683457.000000
13849006.000000,13707633.000000
13617547.000000,13778323.000000
13408208.000000,13890219.000000
13296295.000000,14050310.000000
11235782.000000,14050310.000000
11218443.000000,14026613.000000
11069196.000000,13889577.000000
10914436.000000,13793341.000000
10749588.000000,13787026.000000
10510360.000000,14679836.000000
10117809.000000,14679836.000000
9493116.000000,14512450.000000
9416161.000000,14658371.000000
9084524.000000,14658371.000000
9022151.000000,14414312.000000
9519412.000000,14414312.000000
10412222.000000,14653540.000000
10651450.000000,13760730.000000
10505529.000000,13683775.000000
10303097.000000,13692409.000000
10106239.000000,13740369.000000
9922519.000000,13825813.000000
9758999.000000,13945457.000000
9621963.000000,14094704.000000
9525727.000000,14249464.000000
9519412.000000,14414312.000000
9022151.000000,14414312.000000
8934215.000000,14070230.000000
8791883.000000,12917007.000000
8797239.000000,11755038.000000
8950193.000000,10603186.000000
9126491.000000,9938935.000000
9419543.000000,9938935.000000
9419543.000000,10141551.000000
9459071.000000,10340275.000000
9536609.000000,10527468.000000
9649177.000000,10695937.000000
9792449.000000,10839209.000000
9960918.000000,10951777.000000
10112064.000000,11014384.000000
10195250.000000,11289543.000000
10195278.000000,11289826.000000
10212078.000000,11345207.000000
10220949.000000,11374549.000000
10221059.000000,11374816.000000
10229792.000000,11403604.000000
10243702.000000,11429627.000000
10254971.000000,11456907.000000
10271663.000000,11481939.000000
10285841.000000,11508464.000000
10304564.000000,11531278.000000
10320935.000000,11555829.000000
10342178.000000,11577112.000000
10342370.000000,11577346.000000
10364552.000000,11599528.000000
10404930.000000,11639982.000000
10405160.000000,11640136.000000
10787104.000000,12022081.000000
10806218.000000,12045322.000000
10851224.000000,12082179.000000
10897678.000000,12120302.000000
10924233.000000,12134496.000000
11624638.000000,12601433.000000
11635563.000000,12611326.000000
11673988.000000,12634333.000000
11686493.000000,12642670.000000
11699440.000000,12649573.000000
11737574.000000,12672406.000000
11751795.000000,12677487.000000
11765123.000000,12684593.000000
11807675.000000,12697452.000000
11821487.000000,12702387.000000
11836064.000000,12706031.000000
11878939.000000,12718988.000000
11893609.000000,12720417.000000
12583798.000000,12892965.000000
12612157.000000,12903064.000000
12670279.000000,12911596.000000
12729160.000000,12920303.000000
12759236.000000,12918812.000000
12990897.000000,12929843.000000
13003372.000000,12959960.000000
13137827.000000,13161187.000000
13308956.000000,13332316.000000
13510183.000000,13466771.000000
13733774.000000,13559386.000000
13971136.000000,13606600.000000
14213150.000000,13606600.000000
14450512.000000,13559386.000000
14674103.000000,13466771.000000
14875330.000000,13332316.000000
15046459.000000,13161187.000000
15180914.000000,12959960.000000
15273529.000000,12736369.000000
15320743.000000,12499007.000000
15320743.000000,12256993.000000
15273529.000000,12019631.000000
15180914.000000,11796040.000000
15046459.000000,11594813.000000
14875330.000000,11423684.000000
14674103.000000,11289229.000000
14450512.000000,11196614.000000
14213150.000000,11149400.000000
13971136.000000,11149400.000000
13733774.000000,11196614.000000
13510183.000000,11289229.000000
13308956.000000,11423684.000000
13137827.000000,11594813.000000
13051402.000000,11724158.000000
12847055.000000,11714427.000000
12244469.000000,11563781.000000
11619194.000000,11146931.000000
11324076.000000,10851814.000000
11267655.000000,10665187.000000
11359677.000000,10527468.000000
11437215.000000,10340275.000000
11476743.000000,10141551.000000
11476743.000000,9938935.000000
11437215.000000,9740211.000000
11427598.000000,9716993.000000
12863543.000000,9716993.000000
12863543.000000,9959007.000000
12910757.000000,10196369.000000
13003372.000000,10419960.000000
13137827.000000,10621187.000000
13308956.000000,10792316.000000
13510183.000000,10926771.000000
13733774.000000,11019386.000000
13971136.000000,11066600.000000
14213150.000000,11066600.000000
14450512.000000,11019386.000000
14674103.000000,10926771.000000
14875330.000000,10792316.000000
14984404.000000,10683242.000000
15114319.000000,10715720.000000
15665505.000000,11083178.000000
15850627.000000,11422568.000000
15848956.000000,11423684.000000
15677827.000000,11594813.000000
15543372.000000,11796040.000000
15450757.000000,12019631.000000
15403543.000000,12256993.000000
15403543.000000,12499007.000000
15450757.000000,12736369.000000
15543372.000000,12959960.000000
15677827.000000,13161187.000000
15848956.000000,13332316.000000
16050183.000000,13466771.000000
16273774.000000,13559386.000000
16511136.000000,13606600.000000
16753150.000000,13606600.000000
16990512.000000,13559386.000000
17214103.000000,13466771.000000
17415330.000000,13332316.000000
17586459.000000,13161187.000000
17720914.000000,12959960.000000
17813529.000000,12736369.000000
17860743.000000,12499007.000000
17860743.000000,12256993.000000
17813529.000000,12019631.000000
17720914.000000,11796040.000000
17586459.000000,11594813.000000
17415330.000000,11423684.000000
17214103.000000,11289229.000000
17096514.000000,11240522.000000
17095043.000000,11234024.000000
17084034.000000,11181025.000000
17081927.000000,11176057.000000
17080738.000000,11170804.000000
17058752.000000,11121423.000000
17049237.000000,11098992.000000
17046667.000000,11094280.000000
17032377.000000,11062185.000000
17018281.000000,11042239.000000
16655039.000000,10376296.000000
16628092.000000,10326008.000000
16607739.000000,10301261.000000
16589712.000000,10274770.000000
16570071.000000,10255459.000000
16552568.000000,10234177.000000
16527770.000000,10213869.000000
16504928.000000,10191411.000000
16457278.000000,10160153.000000
15734147.000000,9678067.000000
15723222.000000,9668174.000000
15684794.000000,9645165.000000
15672292.000000,9636830.000000
15659351.000000,9629930.000000
15621212.000000,9607094.000000
15606988.000000,9602012.000000
15593662.000000,9594907.000000
15551117.000000,9582050.000000
15537299.000000,9577113.000000
15522716.000000,9573467.000000
15479846.000000,9560512.000000
15465178.000000,9559083.000000
15280131.000000,9512821.000000
15273529.000000,9479631.000000
15180914.000000,9256040.000000
15046459.000000,9054813.000000
14875330.000000,8883684.000000
14674103.000000,8749229.000000
14450512.000000,8656614.000000
14213150.000000,8609400.000000
13971136.000000,8609400.000000
13733774.000000,8656614.000000
13510183.000000,8749229.000000
13308956.000000,8883684.000000
13137827.000000,9054813.000000
13003372.000000,9256040.000000
12910757.000000,9479631.000000
12863543.000000,9716993.000000
11427598.000000,9716993.000000
11359677.000000,9553018.000000
11247109.000000,9384549.000000
11103837.000000,9241277.000000
10935368.000000,9128709.000000
10748175.000000,9051171.000000
10549451.000000,9011643.000000
10346835.000000,9011643.000000
10148111.000000,9051171.000000
9960918.000000,9128709.000000
9792449.000000,9241277.000000
9649177.000000,9384549.000000
9536609.000000,9553018.000000
9459071.000000,9740211.000000
9419543.000000,9938935.000000
9126491.000000,9938935.000000
9248272.000000,9480092.000000
9686641.000000,8403973.000000
10255411.000000,7397202.000000
11219412.000000,7397202.000000
11225727.000000,7562050.000000
11334420.000000,7733045.000000
11474384.000000,7879549.000000
11640241.000000,7995932.000000
11825616.000000,8077723.000000
12023385.000000,8121776.000000
12205529.000000,8127739.000000
12351450.000000,8050784.000000
12112222.000000,7157974.000000
11219412.000000,7397202.000000
10255411.000000,7397202.000000
10258185.000000,7392292.000000
10436857.000000,7153143.000000
11116161.000000,7153143.000000
11193116.000000,7299064.000000
12085926.000000,7059836.000000
11846698.000000,6167026.000000
11681850.000000,6173341.000000
11510855.000000,6282034.000000
11364351.000000,6421998.000000
11247968.000000,6587855.000000
11166177.000000,6773230.000000
11122124.000000,6970999.000000
11116161.000000,7153143.000000
10436857.000000,7153143.000000
10953654.000000,6461424.000000
11264039.000000,6140730.000000
11944836.000000,6140730.000000
12184064.000000,7033540.000000
12957726.000000,6826238.000000
12910757.000000,6939631.000000
12909838.000000,6944253.000000
12210360.000000,7131678.000000
12449588.000000,8024488.000000
12614436.000000,8018173.000000
12785431.000000,7909480.000000
12931935.000000,7769516.000000
12948089.000000,7746495.000000
13003372.000000,7879960.000000
13137827.000000,8081187.000000
13308956.000000,8252316.000000
13510183.000000,8386771.000000
13733774.000000,8479386.000000
13971136.000000,8526600.000000
14213150.000000,8526600.000000
14450512.000000,8479386.000000
14674103.000000,8386771.000000
14875330.000000,8252316.000000
15046459.000000,8081187.000000
15073323.000000,8040983.000000
15308581.000000,8073063.000000
16444524.000000,8641036.000000
17701769.000000,9555395.000000
18179312.000000,10351303.000000
18450954.000000,11111903.000000
18474125.000000,11366776.000000
18388956.000000,11423684.000000
18217827.000000,11594813.000000
18083372.000000,11796040.000000
17990757.000000,12019631.000000
17943543.000000,12256993.000000
17943543.000000,12499007.000000
17990757.000000,12736369.000000
18083372.000000,12959960.000000
18217827.000000,13161187.000000
18388956.000000,13332316.000000
18590183.000000,13466771.000000
18813774.000000,13559386.000000
19051136.000000,13606600.000000
19293150.000000,13606600.000000
19530512.000000,13559386.000000
19754103.000000,13466771.000000
19955330.000000,13332316.000000
20126459.000000,13161187.000000
20260914.000000,12959960.000000
20353529.000000,12736369.000000
20400743.000000,12499007.000000
20400743.000000,12256993.000000
20483543.000000,12256993.000000
20483543.000000,12499007.000000
20530757.000000,12736369.000000
20623372.000000,12959960.000000
20757827.000000,13161187.000000
20928956.000000,13332316.000000
21130183.000000,13466771.000000
21353774.000000,13559386.000000
21591136.000000,13606600.000000
21833150.000000,13606600.000000
22070512.000000,13559386.000000
22294103.000000,13466771.000000
22495330.000000,13332316.000000
22666459.000000,13161187.000000
22744128.000000,13044947.000000
22765333.000000,13044682.000000
22772334.000000,13043904.000000
22809131.000000,13042588.000000
22831265.000000,13037356.000000
23341586.000000,12980654.000000
23376131.000000,12979677.000000
23429430.000000,12967500.000000
23482937.000000,12956160.000000
23487355.000000,12954265.000000
23492043.000000,12953194.000000
23541955.000000,12930846.000000
23592208.000000,12909292.000000
23620707.000000,12889731.000000
24480733.000000,12398288.000000
24525607.000000,12374302.000000
24555238.000000,12349985.000000
24586515.000000,12327783.000000
24621481.000000,12290781.000000
25292934.000000,11619329.000000
25315881.000000,11600509.000000
25334837.000000,11577426.000000
25334916.000000,11577347.000000
25355935.000000,11551735.000000
25391339.000000,11508623.000000
25391383.000000,11508540.000000
25391445.000000,11508465.000000
25419567.000000,11455853.000000
25433369.000000,11430050.000000
25433405.000000,11429962.000000
25447493.000000,11403606.000000
25456113.000000,11375190.000000
25594414.000000,11041600.000000
25656175.000000,11029315.000000
25843368.000000,10951777.000000
26011837.000000,10839209.000000
26155109.000000,10695937.000000
26267677.000000,10527468.000000
26345215.000000,10340275.000000
26384743.000000,10141551.000000
26384743.000000,9938935.000000
26345215.000000,9740211.000000
26267677.000000,9553018.000000
26155109.000000,9384549.000000
26011837.000000,9241277.000000
25843368.000000,9128709.000000
25656175.000000,9051171.000000
25457451.000000,9011643.000000
25254835.000000,9011643.000000
25056111.000000,9051171.000000
24868918.000000,9128709.000000
24700449.000000,9241277.000000
24557177.000000,9384549.000000
24444609.000000,9553018.000000
24367071.000000,9740211.000000
24327543.000000,9938935.000000
24327543.000000,10141551.000000
24367071.000000,10340275.000000
24444609.000000,10527468.000000
24479243.000000,10579301.000000
24375508.000000,10829515.000000
23818990.000000,11386034.000000
23108727.000000,11791899.000000
22812818.000000,11824777.000000
22800914.000000,11796040.000000
22666459.000000,11594813.000000
22495330.000000,11423684.000000
22294103.000000,11289229.000000
22070512.000000,11196614.000000
21833150.000000,11149400.000000
21591136.000000,11149400.000000
21353774.000000,11196614.000000
21130183.000000,11289229.000000
20928956.000000,11423684.000000
20757827.000000,11594813.000000
20623372.000000,11796040.000000
20530757.000000,12019631.000000
20483543.000000,12256993.000000
20400743.000000,12256993.000000
20353529.000000,12019631.000000
20260914.000000,11796040.000000
20126459.000000,11594813.000000
19955330.000000,11423684.000000
19754103.000000,11289229.000000
19676324.000000,11257012.000000
19647414.000000,10939000.000000
19645150.000000,10892357.000000
19634839.000000,10851090.000000
19626853.000000,10809304.000000
19609307.000000,10766028.000000
19587758.000000,10705690.000000
20916295.000000,10705690.000000
21028208.000000,10865781.000000
21241860.000000,10979462.000000
21473584.000000,11049277.000000
21714476.000000,11072543.000000
21955280.000000,11048367.000000
22186739.000000,10977677.000000
22396078.000000,10865781.000000
22507991.000000,10705690.000000
21712143.000000,9909842.000000
20916295.000000,10705690.000000
19587758.000000,10705690.000000
19305942.000000,9916606.000000
19298614.000000,9887407.000000
19276323.000000,9840333.000000
20477600.000000,9840333.000000
20501776.000000,10081137.000000
20572466.000000,10312596.000000
20684362.000000,10521935.000000
20844453.000000,10633848.000000
21640301.000000,9838000.000000
21783985.000000,9838000.000000
22579833.000000,10633848.000000
22739924.000000,10521935.000000
22853605.000000,10308283.000000
22923420.000000,10076559.000000
22946686.000000,9835667.000000
22922510.000000,9594863.000000
22851820.000000,9363404.000000
22739924.000000,9154065.000000
22579833.000000,9042152.000000
21783985.000000,9838000.000000
21640301.000000,9838000.000000
20844453.000000,9042152.000000
20684362.000000,9154065.000000
20570681.000000,9367717.000000
20500866.000000,9599441.000000
20477600.000000,9840333.000000
19276323.000000,9840333.000000
19273314.000000,9833980.000000
19248055.000000,9780493.000000
19230137.000000,9756304.000000
18758541.000000,8970310.000000
20916295.000000,8970310.000000
21712143.000000,9766158.000000
22507991.000000,8970310.000000
22396078.000000,8810219.000000
22182426.000000,8696538.000000
21950702.000000,8626723.000000
21709810.000000,8603457.000000
21469006.000000,8627633.000000
21237547.000000,8698323.000000
21028208.000000,8810219.000000
20916295.000000,8970310.000000
18758541.000000,8970310.000000
18687598.000000,8852072.000000
18673437.000000,8822841.000000
18639147.000000,8777497.000000
18605358.000000,8731981.000000
18603356.000000,8730168.000000
18601721.000000,8728006.000000
18559182.000000,8690169.000000
18517222.000000,8652174.000000
18489375.000000,8635501.000000
17145789.000000,7658348.000000
17131009.000000,7644352.000000
17097800.000000,7623448.000000
17090186.000000,7617910.000000
17072760.000000,7607685.000000
17055598.000000,7596882.000000
17047145.000000,7592655.000000
17013331.000000,7572815.000000
16994120.000000,7566143.000000
15803107.000000,6970638.000000
15794830.000000,6964648.000000
15750028.000000,6944098.000000
15732564.000000,6935366.000000
15723072.000000,6931734.000000
15686758.000000,6915077.000000
15667670.000000,6910533.000000
15649341.000000,6903519.000000
15609959.000000,6896795.000000
15600072.000000,6894441.000000
15580717.000000,6891802.000000
15532138.000000,6883507.000000
15521928.000000,6883785.000000
15234141.000000,6844541.000000
15180914.000000,6716040.000000
15046459.000000,6514813.000000
14875330.000000,6343684.000000
14674103.000000,6209229.000000
14450512.000000,6116614.000000
14213150.000000,6069400.000000
13971136.000000,6069400.000000
13733774.000000,6116614.000000
13510183.000000,6209229.000000
13308956.000000,6343684.000000
13137827.000000,6514813.000000
13066006.000000,6622301.000000
12961866.000000,6458469.000000
12821902.000000,6311965.000000
12656045.000000,6195582.000000
12470670.000000,6113791.000000
12272901.000000,6069738.000000
12090757.000000,6063775.000000
11944836.000000,6140730.000000
11264039.000000,6140730.000000
11761760.000000,5626478.000000
11940729.000000,5483424.000000
15548561.000000,5483424.000000
15636454.000000,5623030.000000
15816082.000000,5716769.000000
16010547.000000,5773663.000000
16212375.000000,5791526.000000
16413809.000000,5769671.000000
16607109.000000,5708938.000000
16767832.000000,5623030.000000
16855725.000000,5483424.000000
16202143.000000,4829842.000000
15548561.000000,5483424.000000
11940729.000000,5483424.000000
12669413.000000,4900974.000000
12887427.000000,4768232.000000
15168617.000000,4768232.000000
15190472.000000,4969666.000000
15251205.000000,5162966.000000
15337113.000000,5323689.000000
15476719.000000,5411582.000000
16130301.000000,4758000.000000
16273985.000000,4758000.000000
16927567.000000,5411582.000000
17067173.000000,5323689.000000
17160912.000000,5144061.000000
17217806.000000,4949596.000000
17235669.000000,4747768.000000
17225788.000000,4656692.000000
18573543.000000,4656692.000000
18573543.000000,4859308.000000
18613071.000000,5058032.000000
18690609.000000,5245225.000000
18803177.000000,5413694.000000
18946449.000000,5556966.000000
19114918.000000,5669534.000000
19302111.000000,5747072.000000
19500835.000000,5786600.000000
19703451.000000,5786600.000000
19902175.000000,5747072.000000
20089368.000000,5669534.000000
20134567.000000,5639333.000000
20437287.000000,5767674.000000
20735591.000000,5973796.000000
20862679.000000,6180314.000000
20925310.000000,6347330.000000
20757827.000000,6514813.000000
20623372.000000,6716040.000000
20530757.000000,6939631.000000
20483543.000000,7176993.000000
20483543.000000,7419007.000000
20530757.000000,7656369.000000
20623372.000000,7879960.000000
20757827.000000,8081187.000000
20928956.000000,8252316.000000
21130183.000000,8386771.000000
21353774.000000,8479386.000000
21591136.000000,8526600.000000
21833150.000000,8526600.000000
22070512.000000,8479386.000000
22294103.000000,8386771.000000
22495330.000000,8252316.000000
22666459.000000,8081187.000000
22686773.000000,8050784.000000
23452836.000000,8050784.000000
23598757.000000,8127739.000000
23801189.000000,8119105.000000
23998047.000000,8071145.000000
24181767.000000,7985701.000000
24345287.000000,7866057.000000
24482323.000000,7716810.000000
24578559.000000,7562050.000000
24584874.000000,7397202.000000
23692064.000000,7157974.000000
23452836.000000,8050784.000000
22686773.000000,8050784.000000
22800914.000000,7879960.000000
22856756.000000,7745147.000000
22885843.000000,7784901.000000
23035090.000000,7921937.000000
23189850.000000,8018173.000000
23354698.000000,8024488.000000
23593926.000000,7131678.000000
23325809.000000,7059836.000000
23718360.000000,7059836.000000
24611170.000000,7299064.000000
24688125.000000,7153143.000000
24679491.000000,6950711.000000
24631531.000000,6753853.000000
24546087.000000,6570133.000000
24426443.000000,6406613.000000
24277196.000000,6269577.000000
24122436.000000,6173341.000000
23957588.000000,6167026.000000
23718360.000000,7059836.000000
23325809.000000,7059836.000000
22894448.000000,6944253.000000
22893529.000000,6939631.000000
22846560.000000,6826238.000000
23620222.000000,7033540.000000
23859450.000000,6140730.000000
23713529.000000,6063775.000000
23511097.000000,6072409.000000
23314239.000000,6120369.000000
23130519.000000,6205813.000000
22966999.000000,6325457.000000
22829963.000000,6474704.000000
22738229.000000,6622225.000000
22666459.000000,6514813.000000
22495330.000000,6343684.000000
22294103.000000,6209229.000000
22121288.000000,6137646.000000
22120180.000000,6120421.000000
22111550.000000,6088057.000000
22110906.000000,6084408.000000
22103919.000000,6059438.000000
22097221.000000,6034321.000000
22095917.000000,6030843.000000
22086893.000000,5998596.000000
22075102.000000,5975338.000000
21983288.000000,5730503.000000
21975979.000000,5702705.000000
21962468.000000,5674982.000000
21962101.000000,5674003.000000
21949500.000000,5648373.000000
21936941.000000,5622603.000000
21936391.000000,5621709.000000
21922786.000000,5594037.000000
21905318.000000,5571215.000000
21727814.000000,5282771.000000
21708446.000000,5246536.000000
21677898.000000,5209314.000000
21648751.000000,5170959.000000
21617983.000000,5143722.000000
21591754.000000,5117493.000000
21576153.000000,5097866.000000
21549828.000000,5075566.000000
21546489.000000,5072227.000000
21527173.000000,5056375.000000
21508161.000000,5040270.000000
21504286.000000,5037592.000000
21477607.000000,5015698.000000
21455494.000000,5003878.000000
21095375.000000,4755044.000000
21070805.000000,4734537.000000
21020476.000000,4707096.000000
20970486.000000,4679365.000000
20940022.000000,4669603.000000
20605064.000000,4527594.000000
20591215.000000,4457968.000000
20513677.000000,4270775.000000
20401109.000000,4102306.000000
20257837.000000,3959034.000000
20089368.000000,3846466.000000
19902175.000000,3768928.000000
19703451.000000,3729400.000000
19500835.000000,3729400.000000
19302111.000000,3768928.000000
19114918.000000,3846466.000000
18946449.000000,3959034.000000
18803177.000000,4102306.000000
18690609.000000,4270775.000000
18613071.000000,4457968.000000
18573543.000000,4656692.000000
17225788.000000,4656692.000000
17213814.000000,4546334.000000
17153081.000000,4353034.000000
17067173.000000,4192311.000000
16927567.000000,4104418.000000
16273985.000000,4758000.000000
16130301.000000,4758000.000000
15476719.000000,4104418.000000
15337113.000000,4192311.000000
15243374.000000,4371939.000000
15186480.000000,4566404.000000
15168617.000000,4768232.000000
12887427.000000,4768232.000000
13661891.000000,4296687.000000
14254094.000000,4032576.000000
15548561.000000,4032576.000000
16202143.000000,4686158.000000
16855725.000000,4032576.000000
16767832.000000,3892970.000000
16588204.000000,3799231.000000
16393739.000000,3742337.000000
16191911.000000,3724474.000000
15990477.000000,3746329.000000
15797177.000000,3807062.000000
15636454.000000,3892970.000000
15548561.000000,4032576.000000
14254094.000000,4032576.000000
14723111.000000,3823404.000000
15835869.000000,3488800.000000
16991749.000000,3296701.000000
17065025.000000,3290547.000000
Z" /> 
</g>
</g>
<g style="fill:#FFFFFF; fill-opacity:1.0; 
stroke:#FFFFFF; stroke-width:152400.000000; stroke-opacity:1; 
stroke-linecap:round; stroke-linejoin:round;">
</g>
<g style="fill:#FFFFFF; fill-opacity:1.0; 
stroke:#FFFFFF; stroke-width:1.000000; stroke-opacity:1; 
stroke-linecap:round; stroke-linejoin:round;">
<circle cx="16632143.000000" cy="12378000.000000" r="500000.000000" /> 
</g>
<g style="fill:#FFFFFF; fill-opacity:1.0; 
stroke:#FFFFFF; stroke-width:0.000000; stroke-opacity:1; 
stroke-linecap:round; stroke-linejoin:round;">
</g>
<g style="fill:#FFFFFF; fill-opacity:1.0; 
stroke:#FFFFFF; stroke-width:1.000000; stroke-opacity:1; 
stroke-linecap:round; stroke-linejoin:round;">
<circle cx="19172143.000000" cy="12378000.000000" r="500000.000000" /> 
</g>
<g style="fill:#FFFFFF; fill-opacity:1.0; 
stroke:#FFFFFF; stroke-width:0.000000; stroke-opacity:1; 
stroke-linecap:round; stroke-linejoin:round;">
</g>
<g style="fill:#FFFFFF; fill-opacity:1.0; 
stroke:#FFFFFF; stroke-width:1.000000; stroke-opacity:1; 
stroke-linecap:round; stroke-linejoin:round;">
<circle cx="21712143.000000" cy="17458000.000000" r="500000.000000" /> 
</g>
<g style="fill:#FFFFFF; fill-opacity:1.0; 
stroke:#FFFFFF; stroke-width:0.000000; stroke-opacity:1; 
stroke-linecap:round; stroke-linejoin:round;">
</g>
<g style="fill:#FFFFFF; fill-opacity:1.0; 
stroke:#FFFFFF; stroke-width:1.000000; stroke-opacity:1; 
stroke-linecap:round; stroke-linejoin:round;">
<circle cx="21712143.000000" cy="14918000.000000" r="500000.000000" /> 
</g>
<g style="fill:#FFFFFF; fill-opacity:1.0; 
stroke:#FFFFFF; stroke-width:0.000000; stroke-opacity:1; 
stroke-linecap:round; stroke-linejoin:round;">
</g>
<g style="fill:#FFFFFF; fill-opacity:1.0; 
stroke:#FFFFFF; stroke-width:1.000000; stroke-opacity:1; 
stroke-linecap:round; stroke-linejoin:round;">
<circle cx="21712143.000000" cy="12378000.000000" r="500000.000000" /> 
</g>
<g style="fill:#FFFFFF; fill-opacity:1.0; 
stroke:#FFFFFF; stroke-width:0.000000; stroke-opacity:1; 
stroke-linecap:round; stroke-linejoin:round;">
</g>
<g style="fill:#FFFFFF; fill-opacity:1.0; 
stroke:#FFFFFF; stroke-width:1.000000; stroke-opacity:1; 
stroke-linecap:round; stroke-linejoin:round;">
<circle cx="21712143.000000" cy="9838000.000000" r="500000.000000" /> 
</g>
<g style="fill:#FFFFFF; fill-opacity:1.0; 
stroke:#FFFFFF; stroke-width:0.000000; stroke-opacity:1; 
stroke-linecap:round; stroke-linejoin:round;">
</g>
<g style="fill:#FFFFFF; fill-opacity:1.0; 
stroke:#FFFFFF; stroke-width:1.000000; stroke-opacity:1; 
stroke-linecap:round; stroke-linejoin:round;">
<circle cx="21712143.000000" cy="7298000.000000" r="500000.000000" /> 
</g>
<g style="fill:#FFFFFF; fill-opacity:1.0; 
stroke:#FFFFFF; stroke-width:0.000000; stroke-opacity:1; 
stroke-linecap:round; stroke-linejoin:round;">
</g>
<g style="fill:#FFFFFF; fill-opacity:1.0; 
stroke:#FFFFFF; stroke-width:1.000000; stroke-opacity:1; 
stroke-linecap:round; stroke-linejoin:round;">
<circle cx="14092143.000000" cy="17458000.000000" r="500000.000000" /> 
</g>
<g style="fill:#FFFFFF; fill-opacity:1.0; 
stroke:#FFFFFF; stroke-width:0.000000; stroke-opacity:1; 
stroke-linecap:round; stroke-linejoin:round;">
</g>
<g style="fill:#FFFFFF; fill-opacity:1.0; 
stroke:#FFFFFF; stroke-width:1.000000; stroke-opacity:1; 
stroke-linecap:round; stroke-linejoin:round;">
<circle cx="14092143.000000" cy="14918000.000000" r="500000.000000" /> 
</g>
<g style="fill:#FFFFFF; fill-opacity:1.0; 
stroke:#FFFFFF; stroke-width:0.000000; stroke-opacity:1; 
stroke-linecap:round; stroke-linejoin:round;">
</g>
<g style="fill:#FFFFFF; fill-opacity:1.0; 
stroke:#FFFFFF; stroke-width:1.000000; stroke-opacity:1; 
stroke-linecap:round; stroke-linejoin:round;">
<circle cx="14092143.000000" cy="12378000.000000" r="500000.000000" /> 
</g>
<g style="fill:#FFFFFF; fill-opacity:1.0; 
stroke:#FFFFFF; stroke-width:0.000000; stroke-opacity:1; 
stroke-linecap:round; stroke-linejoin:round;">
</g>
<g style="fill:#FFFFFF; fill-opacity:1.0; 
stroke:#FFFFFF; stroke-width:1.000000; stroke-opacity:1; 
stroke-linecap:round; stroke-linejoin:round;">
<circle cx="14092143.000000" cy="9838000.000000" r="500000.000000" /> 
</g>
<g style="fill:#FFFFFF; fill-opacity:1.0; 
stroke:#FFFFFF; stroke-width:0.000000; stroke-opacity:1; 
stroke-linecap:round; stroke-linejoin:round;">
</g>
<g style="fill:#FFFFFF; fill-opacity:1.0; 
stroke:#FFFFFF; stroke-width:1.000000; stroke-opacity:1; 
stroke-linecap:round; stroke-linejoin:round;">
<circle cx="14092143.000000" cy="7298000.000000" r="500000.000000" /> 
</g>
<g style="fill:#FFFFFF; fill-opacity:1.0; 
stroke:#FFFFFF; stroke-width:0.000000; stroke-opacity:1; 
stroke-linecap:round; stroke-linejoin:round;">
</g>
<g style="fill:#FFFFFF; fill-opacity:1.0; 
stroke:#FFFFFF; stroke-width:1.000000; stroke-opacity:1; 
stroke-linecap:round; stroke-linejoin:round;">
<circle cx="16202143.000000" cy="4758000.000000" r="400000.000000" /> 
</g>
<g style="fill:#FFFFFF; fill-opacity:1.0; 
stroke:#FFFFFF; stroke-width:0.000000; stroke-opacity:1; 
stroke-linecap:round; stroke-linejoin:round;">
</g>
<g style="fill:#FFFFFF; fill-opacity:1.0; 
stroke:#FFFFFF; stroke-width:1.000000; stroke-opacity:1; 
stroke-linecap:round; stroke-linejoin:round;">
<circle cx="19602143.000000" cy="4758000.000000" r="400000.000000" /> 
</g>
<g style="fill:#FFFFFF; fill-opacity:1.0; 
stroke:#FFFFFF; stroke-width:0.000000; stroke-opacity:1; 
stroke-linecap:round; stroke-linejoin:round;">
</g>
<g style="fill:#FFFFFF; fill-opacity:1.0; 
stroke:#FFFFFF; stroke-width:1.000000; stroke-opacity:1; 
stroke-linecap:round; stroke-linejoin:round;">
<circle cx="19602143.000000" cy="19998000.000000" r="400000.000000" /> 
</g>
<g style="fill:#FFFFFF; fill-opacity:1.0; 
stroke:#FFFFFF; stroke-width:0.000000; stroke-opacity:1; 
stroke-linecap:round; stroke-linejoin:round;">
</g>
<g style="fill:#FFFFFF; fill-opacity:1.0; 
stroke:#FFFFFF; stroke-width:1.000000; stroke-opacity:1; 
stroke-linecap:round; stroke-linejoin:round;">
<circle cx="16202143.000000" cy="19998000.000000" r="400000.000000" /> 
</g>
<g style="fill:#FFFFFF; fill-opacity:1.0; 
stroke:#FFFFFF; stroke-width:0.000000; stroke-opacity:1; 
stroke-linecap:round; stroke-linejoin:round;">
</g>
<g style="fill:#FFFFFF; fill-opacity:1.0; 
stroke:#FFFFFF; stroke-width:1.000000; stroke-opacity:1; 
stroke-linecap:round; stroke-linejoin:round;">
<circle cx="23656143.000000" cy="7095757.000000" r="400000.000000" /> 
</g>
<g style="fill:#FFFFFF; fill-opacity:1.0; 
stroke:#FFFFFF; stroke-width:0.000000; stroke-opacity:1; 
stroke-linecap:round; stroke-linejoin:round;">
</g>
<g style="fill:#FFFFFF; fill-opacity:1.0; 
stroke:#FFFFFF; stroke-width:1.000000; stroke-opacity:1; 
stroke-linecap:round; stroke-linejoin:round;">
<circle cx="25356143.000000" cy="10040243.000000" r="400000.000000" /> 
</g>
<g style="fill:#FFFFFF; fill-opacity:1.0; 
stroke:#FFFFFF; stroke-width:0.000000; stroke-opacity:1; 
stroke-linecap:round; stroke-linejoin:round;">
</g>
<g style="fill:#FFFFFF; fill-opacity:1.0; 
stroke:#FFFFFF; stroke-width:1.000000; stroke-opacity:1; 
stroke-linecap:round; stroke-linejoin:round;">
<circle cx="12148143.000000" cy="17660243.000000" r="400000.000000" /> 
</g>
<g style="fill:#FFFFFF; fill-opacity:1.0; 
stroke:#FFFFFF; stroke-width:0.000000; stroke-opacity:1; 
stroke-linecap:round; stroke-linejoin:round;">
</g>
<g style="fill:#FFFFFF; fill-opacity:1.0; 
stroke:#FFFFFF; stroke-width:1.000000; stroke-opacity:1; 
stroke-linecap:round; stroke-linejoin:round;">
<circle cx="10448143.000000" cy="14715757.000000" r="400000.000000" /> 
</g>
<g style="fill:#FFFFFF; fill-opacity:1.0; 
stroke:#FFFFFF; stroke-width:0.000000; stroke-opacity:1; 
stroke-linecap:round; stroke-linejoin:round;">
</g>
<g style="fill:#FFFFFF; fill-opacity:1.0; 
stroke:#FFFFFF; stroke-width:1.000000; stroke-opacity:1; 
stroke-linecap:round; stroke-linejoin:round;">
<circle cx="25356143.000000" cy="14715757.000000" r="400000.000000" /> 
</g>
<g style="fill:#FFFFFF; fill-opacity:1.0; 
stroke:#FFFFFF; stroke-width:0.000000; stroke-opacity:1; 
stroke-linecap:round; stroke-linejoin:round;">
</g>
<g style="fill:#FFFFFF; fill-opacity:1.0; 
stroke:#FFFFFF; stroke-width:1.000000; stroke-opacity:1; 
stroke-linecap:round; stroke-linejoin:round;">
<circle cx="23656143.000000" cy="17660243.000000" r="400000.000000" /> 
</g>
<g style="fill:#FFFFFF; fill-opacity:1.0; 
stroke:#FFFFFF; stroke-width:0.000000; stroke-opacity:1; 
stroke-linecap:round; stroke-linejoin:round;">
</g>
<g style="fill:#FFFFFF; fill-opacity:1.0; 
stroke:#FFFFFF; stroke-width:1.000000; stroke-opacity:1; 
stroke-linecap:round; stroke-linejoin:round;">
<circle cx="10448143.000000" cy="10040243.000000" r="400000.000000" /> 
</g>
<g style="fill:#FFFFFF; fill-opacity:1.0; 
stroke:#FFFFFF; stroke-width:0.000000; stroke-opacity:1; 
stroke-linecap:round; stroke-linejoin:round;">
</g>
<g style="fill:#FFFFFF; fill-opacity:1.0; 
stroke:#FFFFFF; stroke-width:1.000000; stroke-opacity:1; 
stroke-linecap:round; stroke-linejoin:round;">
<circle cx="12148143.000000" cy="7095757.000000" r="400000.000000" /> 
</g>
<g style="fill:#FFFFFF; fill-opacity:1.0; 
stroke:#FFFFFF; stroke-width:0.000000; stroke-opacity:1; 
stroke-linecap:round; stroke-linejoin:round;">
</g>
<g style="fill:#000000; fill-opacity:1.0; 
stroke:#000000; stroke-width:0.000000; stroke-opacity:1; 
stroke-linecap:round; stroke-linejoin:round;">
</g>
<g style="fill:#000000; fill-opacity:1.0; 
stroke:#000000; stroke-width:100000.000000; stroke-opacity:1; 
stroke-linecap:round; stroke-linejoin:round;">
</g>
<g style="fill:#000000; fill-opacity:0.0; 
stroke:#000000; stroke-width:100000.000000; stroke-opacity:1; 
stroke-linecap:round; stroke-linejoin:round;">
<path d="M20402143 13847694
L20402143 10908306
" />
<circle cx="17902143.000000" cy="12378000.000000" r="2500000.000000" /> 
<path d="M20402159.177195 10908333.672644 A2900000.000000 2900000.000000 0.0 1 0 20402142.932575 13847693.960362" />
</g>
<g style="fill:#000000; fill-opacity:0.0; 
stroke:#000000; stroke-width:120000.000000; stroke-opacity:1; 
stroke-linecap:round; stroke-linejoin:round;">
<path d="M19602143 4758000
L19602143 5758000
" />
<path d="M16202143 4758000
L16202143 5758000
" />
<path d="M20552143 5758000
L15252143 5758000
" />
<path d="M20552143 5758000
L20552143 7758000
" />
<path d="M15252143 7758000
L20552143 7758000
" />
<path d="M15252143 5758000
L15252143 7758000
" />
<path d="M16202143 19998000
L16202143 18998000
" />
<path d="M19602143 19998000
L19602143 18998000
" />
<path d="M15252143 18998000
L20552143 18998000
" />
<path d="M15252143 18998000
L15252143 16998000
" />
<path d="M20552143 16998000
L15252143 16998000
" />
<path d="M20552143 18998000
L20552143 16998000
" />
<path d="M25356143 10040243
L24490118 10540243
" />
<path d="M23656143 7095757
L22790118 7595757
" />
<path d="M24965118 11362967
L22315118 6773033
" />
<path d="M24965118 11362967
L23233067 12362967
" />
<path d="M20583067 7773033
L23233067 12362967
" />
<path d="M22315118 6773033
L20583067 7773033
" />
<path d="M10448143 14715757
L11314168 14215757
" />
<path d="M12148143 17660243
L13014168 17160243
" />
<path d="M10839168 13393033
L13489168 17982967
" />
<path d="M10839168 13393033
L12571219 12393033
" />
<path d="M15221219 16982967
L12571219 12393033
" />
<path d="M13489168 17982967
L15221219 16982967
" />
<path d="M23656143 17660243
L22790118 17160243
" />
<path d="M25356143 14715757
L24490118 14215757
" />
<path d="M22315118 17982967
L24965118 13393033
" />
<path d="M22315118 17982967
L20583067 16982967
" />
<path d="M23233067 12393033
L20583067 16982967
" />
<path d="M24965118 13393033
L23233067 12393033
" />
<path d="M12148143 7095757
L13014168 7595757
" />
<path d="M10448143 10040243
L11314168 10540243
" />
<path d="M13489168 6773033
L10839168 11362967
" />
<path d="M13489168 6773033
L15221219 7773033
" />
<path d="M12571219 12362967
L15221219 7773033
" />
<path d="M10839168 11362967
L12571219 12362967
" />
<g >
</g>
<g >
</g>
<g >
</g>
<g >
</g>
<g >
</g>
<g >
</g>
<g >
</g>
<g >
</g>
<g >
</g>
<g >
</g>
<g >
</g>
<g >
</g>
</g>
<g style="fill:#000000; fill-opacity:0.0; 
stroke:#000000; stroke-width:120000.000000; stroke-opacity:1; 
stroke-linecap:round; stroke-linejoin:round;">
</g>
<g style="fill:#000000; fill-opacity:0.0; 
stroke:#000000; stroke-width:381000.000000; stroke-opacity:1; 
stroke-linecap:round; stroke-linejoin:round;">
<path d="M17267143.013322 2853000.199823 A9546143.000000 9546143.000000 0.0 1 0 18537142.991902 2853000.200171" />
<path d="M17267142.626895 2853000.186552 A709952.000000 709952.000000 0.0 0 0 18537143.372851 2853000.187060" />
<g >
</g>
<g >
</g>
<g >
</g>
<g >
</g>
<g >
</g>
<g >
</g>
<g >
</g>
<g >
</g>
<g >
</g>
<g >
</g>
<g >
</g>
<g >
</g>
</g> 
</svg>
