<?xml version="1.0" standalone="no"?>
 <!DOCTYPE svg PUBLIC "-//W3C//DTD SVG 1.1//EN" 
 "http://www.w3.org/Graphics/SVG/1.1/DTD/svg11.dtd"> 
<svg xmlns="http://www.w3.org/2000/svg" version="1.1" 
    width="29.7002cm" height="21.0007cm" viewBox="0 0 116930 82680 ">
<title>SVG Picture created as #210-000-S1A - Photomodule PCB [LDRs].svg date 2020/01/07 19:24:32 </title>
  <desc>Picture generated by Eeschema-SVG </desc>
<g style="fill:#000000; fill-opacity:1;stroke:#000000; stroke-opacity:1;
stroke-linecap:round; stroke-linejoin:round; "
 transform="translate(0 0) scale(1 1)">
</g>
<g style="fill:#000000; fill-opacity:0.0; 
stroke:#000000; stroke-width:0; stroke-opacity:1; 
stroke-linecap:round; stroke-linejoin:round;">
<g >
</g>
<g style="fill:#840000; fill-opacity:0.0; 
stroke:#840000; stroke-width:0; stroke-opacity:1; 
stroke-linecap:round; stroke-linejoin:round;">
</g>
<g style="fill:#840000; fill-opacity:0.0; 
stroke:#840000; stroke-width:100; stroke-opacity:1; 
stroke-linecap:round; stroke-linejoin:round;">
<rect x="44100" y="25500" width="800" height="2000" rx="0" />
</g>
<g style="fill:#840000; fill-opacity:0.0; 
stroke:#840000; stroke-width:60; stroke-opacity:1; 
stroke-linecap:round; stroke-linejoin:round;">
<path style="fill:#840000; fill-opacity:0.0; 
stroke:#840000; stroke-width:60; stroke-opacity:1; 
stroke-linecap:round; stroke-linejoin:round;fill:none"
d="M 45100,27400
46100,26400
Z" /> 
<path style="fill:#840000; fill-opacity:0.0; 
stroke:#840000; stroke-width:60; stroke-opacity:1; 
stroke-linecap:round; stroke-linejoin:round;fill:none"
d="M 45100,27400
45400,27400
Z" /> 
<path style="fill:#840000; fill-opacity:0.0; 
stroke:#840000; stroke-width:60; stroke-opacity:1; 
stroke-linecap:round; stroke-linejoin:round;fill:none"
d="M 45100,27400
45100,27100
Z" /> 
<path style="fill:#840000; fill-opacity:0.0; 
stroke:#840000; stroke-width:60; stroke-opacity:1; 
stroke-linecap:round; stroke-linejoin:round;fill:none"
d="M 45100,26800
46100,25800
Z" /> 
<path style="fill:#840000; fill-opacity:0.0; 
stroke:#840000; stroke-width:60; stroke-opacity:1; 
stroke-linecap:round; stroke-linejoin:round;fill:none"
d="M 45100,26800
45400,26800
Z" /> 
<path style="fill:#840000; fill-opacity:0.0; 
stroke:#840000; stroke-width:60; stroke-opacity:1; 
stroke-linecap:round; stroke-linejoin:round;fill:none"
d="M 45100,26800
45100,26500
Z" /> 
<path d="M44500 25500
L44500 25000
" />
<path d="M44500 27500
L44500 28000
" />
</g>
<g style="fill:#008484; fill-opacity:0.0; 
stroke:#008484; stroke-width:60; stroke-opacity:1; 
stroke-linecap:round; stroke-linejoin:round;">
<path d="M41940 26240
L41700 26240
L41700 25740
" />
<path d="M42110 26240
L42110 25740
L42230 25740
L42300 25770
L42350 25810
L42370 25860
L42390 25960
L42390 26030
L42370 26120
L42350 26170
L42300 26220
L42230 26240
L42110 26240
" />
<path d="M42890 26240
L42730 26000
" />
<path d="M42610 26240
L42610 25740
L42800 25740
L42850 25770
L42870 25790
L42890 25840
L42890 25910
L42870 25960
L42850 25980
L42800 26000
L42610 26000
" />
<path d="M43060 25740
L43370 25740
L43200 25930
L43280 25930
L43320 25960
L43350 25980
L43370 26030
L43370 26150
L43350 26190
L43320 26220
L43280 26240
L43130 26240
L43080 26220
L43060 26190
" />
<path d="M39630 27240
L39630 26740
" />
<path d="M39910 27240
L39700 26960
" />
<path d="M39910 26740
L39630 27030
" />
<path d="M40130 26980
L40290 26980
" />
<path d="M40370 27240
L40130 27240
L40130 26740
L40370 26740
" />
<path d="M40580 27050
L40960 27050
" />
<path d="M41460 27240
L41180 27240
" />
<path d="M41320 27240
L41320 26740
L41270 26810
L41220 26860
L41180 26880
" />
<path d="M41770 26740
L41820 26740
L41870 26770
L41890 26790
L41910 26840
L41940 26930
L41940 27050
L41910 27150
L41890 27190
L41870 27220
L41820 27240
L41770 27240
L41720 27220
L41700 27190
L41680 27150
L41650 27050
L41650 26930
L41680 26840
L41700 26790
L41720 26770
L41770 26740
" />
<path d="M42100 26740
L42440 26740
L42220 27240
" />
<path d="M42600 26790
L42630 26770
L42680 26740
L42790 26740
L42840 26770
L42870 26790
L42890 26840
L42890 26880
L42870 26960
L42580 27240
L42890 27240
" />
<path d="M43200 26740
L43250 26740
L43290 26770
L43320 26790
L43340 26840
L43370 26930
L43370 27050
L43340 27150
L43320 27190
L43290 27220
L43250 27240
L43200 27240
L43150 27220
L43130 27190
L43100 27150
L43080 27050
L43080 26930
L43100 26840
L43130 26790
L43150 26770
L43200 26740
" />
</g>
</g>
<g style="fill:#008484; fill-opacity:0.0; 
stroke:#008484; stroke-width:0; stroke-opacity:1; 
stroke-linecap:round; stroke-linejoin:round;">
<g >
</g>
<g style="fill:#840000; fill-opacity:0.0; 
stroke:#840000; stroke-width:0; stroke-opacity:1; 
stroke-linecap:round; stroke-linejoin:round;">
</g>
<g style="fill:#840000; fill-opacity:0.0; 
stroke:#840000; stroke-width:100; stroke-opacity:1; 
stroke-linecap:round; stroke-linejoin:round;">
<rect x="50600" y="25500" width="800" height="2000" rx="0" />
</g>
<g style="fill:#840000; fill-opacity:0.0; 
stroke:#840000; stroke-width:60; stroke-opacity:1; 
stroke-linecap:round; stroke-linejoin:round;">
<path style="fill:#840000; fill-opacity:0.0; 
stroke:#840000; stroke-width:60; stroke-opacity:1; 
stroke-linecap:round; stroke-linejoin:round;fill:none"
d="M 51600,27400
52600,26400
Z" /> 
<path style="fill:#840000; fill-opacity:0.0; 
stroke:#840000; stroke-width:60; stroke-opacity:1; 
stroke-linecap:round; stroke-linejoin:round;fill:none"
d="M 51600,27400
51900,27400
Z" /> 
<path style="fill:#840000; fill-opacity:0.0; 
stroke:#840000; stroke-width:60; stroke-opacity:1; 
stroke-linecap:round; stroke-linejoin:round;fill:none"
d="M 51600,27400
51600,27100
Z" /> 
<path style="fill:#840000; fill-opacity:0.0; 
stroke:#840000; stroke-width:60; stroke-opacity:1; 
stroke-linecap:round; stroke-linejoin:round;fill:none"
d="M 51600,26800
52600,25800
Z" /> 
<path style="fill:#840000; fill-opacity:0.0; 
stroke:#840000; stroke-width:60; stroke-opacity:1; 
stroke-linecap:round; stroke-linejoin:round;fill:none"
d="M 51600,26800
51900,26800
Z" /> 
<path style="fill:#840000; fill-opacity:0.0; 
stroke:#840000; stroke-width:60; stroke-opacity:1; 
stroke-linecap:round; stroke-linejoin:round;fill:none"
d="M 51600,26800
51600,26500
Z" /> 
<path d="M51000 25500
L51000 25000
" />
<path d="M51000 27500
L51000 28000
" />
</g>
<g style="fill:#008484; fill-opacity:0.0; 
stroke:#008484; stroke-width:60; stroke-opacity:1; 
stroke-linecap:round; stroke-linejoin:round;">
<path d="M48440 26240
L48200 26240
L48200 25740
" />
<path d="M48610 26240
L48610 25740
L48730 25740
L48800 25770
L48850 25810
L48870 25860
L48890 25960
L48890 26030
L48870 26120
L48850 26170
L48800 26220
L48730 26240
L48610 26240
" />
<path d="M49390 26240
L49230 26000
" />
<path d="M49110 26240
L49110 25740
L49300 25740
L49350 25770
L49370 25790
L49390 25840
L49390 25910
L49370 25960
L49350 25980
L49300 26000
L49110 26000
" />
<path d="M49850 25740
L49610 25740
L49580 25980
L49610 25960
L49660 25930
L49780 25930
L49820 25960
L49850 25980
L49870 26030
L49870 26150
L49850 26190
L49820 26220
L49780 26240
L49660 26240
L49610 26220
L49580 26190
" />
<path d="M46130 27240
L46130 26740
" />
<path d="M46410 27240
L46200 26960
" />
<path d="M46410 26740
L46130 27030
" />
<path d="M46630 26980
L46790 26980
" />
<path d="M46870 27240
L46630 27240
L46630 26740
L46870 26740
" />
<path d="M47080 27050
L47460 27050
" />
<path d="M47960 27240
L47680 27240
" />
<path d="M47820 27240
L47820 26740
L47770 26810
L47720 26860
L47680 26880
" />
<path d="M48270 26740
L48320 26740
L48370 26770
L48390 26790
L48410 26840
L48440 26930
L48440 27050
L48410 27150
L48390 27190
L48370 27220
L48320 27240
L48270 27240
L48220 27220
L48200 27190
L48180 27150
L48150 27050
L48150 26930
L48180 26840
L48200 26790
L48220 26770
L48270 26740
" />
<path d="M48600 26740
L48940 26740
L48720 27240
" />
<path d="M49100 26790
L49130 26770
L49180 26740
L49290 26740
L49340 26770
L49370 26790
L49390 26840
L49390 26880
L49370 26960
L49080 27240
L49390 27240
" />
<path d="M49700 26740
L49750 26740
L49790 26770
L49820 26790
L49840 26840
L49870 26930
L49870 27050
L49840 27150
L49820 27190
L49790 27220
L49750 27240
L49700 27240
L49650 27220
L49630 27190
L49600 27150
L49580 27050
L49580 26930
L49600 26840
L49630 26790
L49650 26770
L49700 26740
" />
</g>
</g>
<g style="fill:#008484; fill-opacity:0.0; 
stroke:#008484; stroke-width:0; stroke-opacity:1; 
stroke-linecap:round; stroke-linejoin:round;">
<g >
</g>
<g style="fill:#840000; fill-opacity:0.0; 
stroke:#840000; stroke-width:0; stroke-opacity:1; 
stroke-linecap:round; stroke-linejoin:round;">
</g>
<g style="fill:#840000; fill-opacity:0.0; 
stroke:#840000; stroke-width:100; stroke-opacity:1; 
stroke-linecap:round; stroke-linejoin:round;">
<rect x="57100" y="25500" width="800" height="2000" rx="0" />
</g>
<g style="fill:#840000; fill-opacity:0.0; 
stroke:#840000; stroke-width:60; stroke-opacity:1; 
stroke-linecap:round; stroke-linejoin:round;">
<path style="fill:#840000; fill-opacity:0.0; 
stroke:#840000; stroke-width:60; stroke-opacity:1; 
stroke-linecap:round; stroke-linejoin:round;fill:none"
d="M 58100,27400
59100,26400
Z" /> 
<path style="fill:#840000; fill-opacity:0.0; 
stroke:#840000; stroke-width:60; stroke-opacity:1; 
stroke-linecap:round; stroke-linejoin:round;fill:none"
d="M 58100,27400
58400,27400
Z" /> 
<path style="fill:#840000; fill-opacity:0.0; 
stroke:#840000; stroke-width:60; stroke-opacity:1; 
stroke-linecap:round; stroke-linejoin:round;fill:none"
d="M 58100,27400
58100,27100
Z" /> 
<path style="fill:#840000; fill-opacity:0.0; 
stroke:#840000; stroke-width:60; stroke-opacity:1; 
stroke-linecap:round; stroke-linejoin:round;fill:none"
d="M 58100,26800
59100,25800
Z" /> 
<path style="fill:#840000; fill-opacity:0.0; 
stroke:#840000; stroke-width:60; stroke-opacity:1; 
stroke-linecap:round; stroke-linejoin:round;fill:none"
d="M 58100,26800
58400,26800
Z" /> 
<path style="fill:#840000; fill-opacity:0.0; 
stroke:#840000; stroke-width:60; stroke-opacity:1; 
stroke-linecap:round; stroke-linejoin:round;fill:none"
d="M 58100,26800
58100,26500
Z" /> 
<path d="M57500 25500
L57500 25000
" />
<path d="M57500 27500
L57500 28000
" />
</g>
<g style="fill:#008484; fill-opacity:0.0; 
stroke:#008484; stroke-width:60; stroke-opacity:1; 
stroke-linecap:round; stroke-linejoin:round;">
<path d="M54940 26240
L54700 26240
L54700 25740
" />
<path d="M55110 26240
L55110 25740
L55230 25740
L55300 25770
L55350 25810
L55370 25860
L55390 25960
L55390 26030
L55370 26120
L55350 26170
L55300 26220
L55230 26240
L55110 26240
" />
<path d="M55890 26240
L55730 26000
" />
<path d="M55610 26240
L55610 25740
L55800 25740
L55850 25770
L55870 25790
L55890 25840
L55890 25910
L55870 25960
L55850 25980
L55800 26000
L55610 26000
" />
<path d="M56080 25790
L56110 25770
L56160 25740
L56280 25740
L56320 25770
L56350 25790
L56370 25840
L56370 25880
L56350 25960
L56060 26240
L56370 26240
" />
<path d="M52630 27240
L52630 26740
" />
<path d="M52910 27240
L52700 26960
" />
<path d="M52910 26740
L52630 27030
" />
<path d="M53130 26980
L53290 26980
" />
<path d="M53370 27240
L53130 27240
L53130 26740
L53370 26740
" />
<path d="M53580 27050
L53960 27050
" />
<path d="M54460 27240
L54180 27240
" />
<path d="M54320 27240
L54320 26740
L54270 26810
L54220 26860
L54180 26880
" />
<path d="M54770 26740
L54820 26740
L54870 26770
L54890 26790
L54910 26840
L54940 26930
L54940 27050
L54910 27150
L54890 27190
L54870 27220
L54820 27240
L54770 27240
L54720 27220
L54700 27190
L54680 27150
L54650 27050
L54650 26930
L54680 26840
L54700 26790
L54720 26770
L54770 26740
" />
<path d="M55100 26740
L55440 26740
L55220 27240
" />
<path d="M55600 26790
L55630 26770
L55680 26740
L55790 26740
L55840 26770
L55870 26790
L55890 26840
L55890 26880
L55870 26960
L55580 27240
L55890 27240
" />
<path d="M56200 26740
L56250 26740
L56290 26770
L56320 26790
L56340 26840
L56370 26930
L56370 27050
L56340 27150
L56320 27190
L56290 27220
L56250 27240
L56200 27240
L56150 27220
L56130 27190
L56100 27150
L56080 27050
L56080 26930
L56100 26840
L56130 26790
L56150 26770
L56200 26740
" />
</g>
</g>
<g style="fill:#008484; fill-opacity:0.0; 
stroke:#008484; stroke-width:0; stroke-opacity:1; 
stroke-linecap:round; stroke-linejoin:round;">
<g >
</g>
<g style="fill:#840000; fill-opacity:0.0; 
stroke:#840000; stroke-width:0; stroke-opacity:1; 
stroke-linecap:round; stroke-linejoin:round;">
</g>
<g style="fill:#840000; fill-opacity:0.0; 
stroke:#840000; stroke-width:100; stroke-opacity:1; 
stroke-linecap:round; stroke-linejoin:round;">
<rect x="63600" y="25500" width="800" height="2000" rx="0" />
</g>
<g style="fill:#840000; fill-opacity:0.0; 
stroke:#840000; stroke-width:60; stroke-opacity:1; 
stroke-linecap:round; stroke-linejoin:round;">
<path style="fill:#840000; fill-opacity:0.0; 
stroke:#840000; stroke-width:60; stroke-opacity:1; 
stroke-linecap:round; stroke-linejoin:round;fill:none"
d="M 64600,25600
65600,26600
Z" /> 
<path style="fill:#840000; fill-opacity:0.0; 
stroke:#840000; stroke-width:60; stroke-opacity:1; 
stroke-linecap:round; stroke-linejoin:round;fill:none"
d="M 64600,25600
64900,25600
Z" /> 
<path style="fill:#840000; fill-opacity:0.0; 
stroke:#840000; stroke-width:60; stroke-opacity:1; 
stroke-linecap:round; stroke-linejoin:round;fill:none"
d="M 64600,25600
64600,25900
Z" /> 
<path style="fill:#840000; fill-opacity:0.0; 
stroke:#840000; stroke-width:60; stroke-opacity:1; 
stroke-linecap:round; stroke-linejoin:round;fill:none"
d="M 64600,26200
65600,27200
Z" /> 
<path style="fill:#840000; fill-opacity:0.0; 
stroke:#840000; stroke-width:60; stroke-opacity:1; 
stroke-linecap:round; stroke-linejoin:round;fill:none"
d="M 64600,26200
64900,26200
Z" /> 
<path style="fill:#840000; fill-opacity:0.0; 
stroke:#840000; stroke-width:60; stroke-opacity:1; 
stroke-linecap:round; stroke-linejoin:round;fill:none"
d="M 64600,26200
64600,26500
Z" /> 
<path d="M64000 27500
L64000 28000
" />
<path d="M64000 25500
L64000 25000
" />
</g>
<g style="fill:#008484; fill-opacity:0.0; 
stroke:#008484; stroke-width:60; stroke-opacity:1; 
stroke-linecap:round; stroke-linejoin:round;">
<path d="M61440 26190
L61200 26190
L61200 25690
" />
<path d="M61610 26190
L61610 25690
L61730 25690
L61800 25720
L61850 25760
L61870 25810
L61890 25910
L61890 25980
L61870 26070
L61850 26120
L61800 26170
L61730 26190
L61610 26190
" />
<path d="M62390 26190
L62230 25950
" />
<path d="M62110 26190
L62110 25690
L62300 25690
L62350 25720
L62370 25740
L62390 25790
L62390 25860
L62370 25910
L62350 25930
L62300 25950
L62110 25950
" />
<path d="M62820 25860
L62820 26190
" />
<path d="M62700 25670
L62580 26020
L62890 26020
" />
<path d="M59130 27190
L59130 26690
" />
<path d="M59410 27190
L59200 26910
" />
<path d="M59410 26690
L59130 26980
" />
<path d="M59630 26930
L59790 26930
" />
<path d="M59870 27190
L59630 27190
L59630 26690
L59870 26690
" />
<path d="M60080 27000
L60460 27000
" />
<path d="M60960 27190
L60680 27190
" />
<path d="M60820 27190
L60820 26690
L60770 26760
L60720 26810
L60680 26830
" />
<path d="M61270 26690
L61320 26690
L61370 26720
L61390 26740
L61410 26790
L61440 26880
L61440 27000
L61410 27100
L61390 27140
L61370 27170
L61320 27190
L61270 27190
L61220 27170
L61200 27140
L61180 27100
L61150 27000
L61150 26880
L61180 26790
L61200 26740
L61220 26720
L61270 26690
" />
<path d="M61600 26690
L61940 26690
L61720 27190
" />
<path d="M62100 26740
L62130 26720
L62180 26690
L62290 26690
L62340 26720
L62370 26740
L62390 26790
L62390 26830
L62370 26910
L62080 27190
L62390 27190
" />
<path d="M62700 26690
L62750 26690
L62790 26720
L62820 26740
L62840 26790
L62870 26880
L62870 27000
L62840 27100
L62820 27140
L62790 27170
L62750 27190
L62700 27190
L62650 27170
L62630 27140
L62600 27100
L62580 27000
L62580 26880
L62600 26790
L62630 26740
L62650 26720
L62700 26690
" />
</g>
</g>
<g style="fill:#008484; fill-opacity:0.0; 
stroke:#008484; stroke-width:0; stroke-opacity:1; 
stroke-linecap:round; stroke-linejoin:round;">
<g >
</g>
<g style="fill:#840000; fill-opacity:0.0; 
stroke:#840000; stroke-width:0; stroke-opacity:1; 
stroke-linecap:round; stroke-linejoin:round;">
</g>
<g style="fill:#840000; fill-opacity:0.0; 
stroke:#840000; stroke-width:100; stroke-opacity:1; 
stroke-linecap:round; stroke-linejoin:round;">
<rect x="70100" y="25500" width="800" height="2000" rx="0" />
</g>
<g style="fill:#840000; fill-opacity:0.0; 
stroke:#840000; stroke-width:60; stroke-opacity:1; 
stroke-linecap:round; stroke-linejoin:round;">
<path style="fill:#840000; fill-opacity:0.0; 
stroke:#840000; stroke-width:60; stroke-opacity:1; 
stroke-linecap:round; stroke-linejoin:round;fill:none"
d="M 71100,25600
72100,26600
Z" /> 
<path style="fill:#840000; fill-opacity:0.0; 
stroke:#840000; stroke-width:60; stroke-opacity:1; 
stroke-linecap:round; stroke-linejoin:round;fill:none"
d="M 71100,25600
71400,25600
Z" /> 
<path style="fill:#840000; fill-opacity:0.0; 
stroke:#840000; stroke-width:60; stroke-opacity:1; 
stroke-linecap:round; stroke-linejoin:round;fill:none"
d="M 71100,25600
71100,25900
Z" /> 
<path style="fill:#840000; fill-opacity:0.0; 
stroke:#840000; stroke-width:60; stroke-opacity:1; 
stroke-linecap:round; stroke-linejoin:round;fill:none"
d="M 71100,26200
72100,27200
Z" /> 
<path style="fill:#840000; fill-opacity:0.0; 
stroke:#840000; stroke-width:60; stroke-opacity:1; 
stroke-linecap:round; stroke-linejoin:round;fill:none"
d="M 71100,26200
71400,26200
Z" /> 
<path style="fill:#840000; fill-opacity:0.0; 
stroke:#840000; stroke-width:60; stroke-opacity:1; 
stroke-linecap:round; stroke-linejoin:round;fill:none"
d="M 71100,26200
71100,26500
Z" /> 
<path d="M70500 27500
L70500 28000
" />
<path d="M70500 25500
L70500 25000
" />
</g>
<g style="fill:#008484; fill-opacity:0.0; 
stroke:#008484; stroke-width:60; stroke-opacity:1; 
stroke-linecap:round; stroke-linejoin:round;">
<path d="M67940 26190
L67700 26190
L67700 25690
" />
<path d="M68110 26190
L68110 25690
L68230 25690
L68300 25720
L68350 25760
L68370 25810
L68390 25910
L68390 25980
L68370 26070
L68350 26120
L68300 26170
L68230 26190
L68110 26190
" />
<path d="M68890 26190
L68730 25950
" />
<path d="M68610 26190
L68610 25690
L68800 25690
L68850 25720
L68870 25740
L68890 25790
L68890 25860
L68870 25910
L68850 25930
L68800 25950
L68610 25950
" />
<path d="M69320 25690
L69230 25690
L69180 25720
L69160 25740
L69110 25810
L69080 25910
L69080 26100
L69110 26140
L69130 26170
L69180 26190
L69280 26190
L69320 26170
L69350 26140
L69370 26100
L69370 25980
L69350 25930
L69320 25910
L69280 25880
L69180 25880
L69130 25910
L69110 25930
L69080 25980
" />
<path d="M65630 27190
L65630 26690
" />
<path d="M65910 27190
L65700 26910
" />
<path d="M65910 26690
L65630 26980
" />
<path d="M66130 26930
L66290 26930
" />
<path d="M66370 27190
L66130 27190
L66130 26690
L66370 26690
" />
<path d="M66580 27000
L66960 27000
" />
<path d="M67460 27190
L67180 27190
" />
<path d="M67320 27190
L67320 26690
L67270 26760
L67220 26810
L67180 26830
" />
<path d="M67770 26690
L67820 26690
L67870 26720
L67890 26740
L67910 26790
L67940 26880
L67940 27000
L67910 27100
L67890 27140
L67870 27170
L67820 27190
L67770 27190
L67720 27170
L67700 27140
L67680 27100
L67650 27000
L67650 26880
L67680 26790
L67700 26740
L67720 26720
L67770 26690
" />
<path d="M68100 26690
L68440 26690
L68220 27190
" />
<path d="M68600 26740
L68630 26720
L68680 26690
L68790 26690
L68840 26720
L68870 26740
L68890 26790
L68890 26830
L68870 26910
L68580 27190
L68890 27190
" />
<path d="M69200 26690
L69250 26690
L69290 26720
L69320 26740
L69340 26790
L69370 26880
L69370 27000
L69340 27100
L69320 27140
L69290 27170
L69250 27190
L69200 27190
L69150 27170
L69130 27140
L69100 27100
L69080 27000
L69080 26880
L69100 26790
L69130 26740
L69150 26720
L69200 26690
" />
</g>
</g>
<g style="fill:#008484; fill-opacity:0.0; 
stroke:#008484; stroke-width:0; stroke-opacity:1; 
stroke-linecap:round; stroke-linejoin:round;">
<g >
</g>
<g style="fill:#840000; fill-opacity:0.0; 
stroke:#840000; stroke-width:0; stroke-opacity:1; 
stroke-linecap:round; stroke-linejoin:round;">
</g>
<g style="fill:#840000; fill-opacity:0.0; 
stroke:#840000; stroke-width:80; stroke-opacity:1; 
stroke-linecap:round; stroke-linejoin:round;">
<path style="fill:#840000; fill-opacity:0.0; 
stroke:#840000; stroke-width:80; stroke-opacity:1; 
stroke-linecap:round; stroke-linejoin:round;fill:none"
d="M 55000,37500
54000,37500
Z" /> 
</g>
<g style="fill:#840000; fill-opacity:0.0; 
stroke:#840000; stroke-width:60; stroke-opacity:1; 
stroke-linecap:round; stroke-linejoin:round;">
<path style="fill:#840000; fill-opacity:0.0; 
stroke:#840000; stroke-width:60; stroke-opacity:1; 
stroke-linecap:round; stroke-linejoin:round;fill:none"
d="M 54500,37500
54500,36500
Z" /> 
</g>
<g style="fill:#840000; fill-opacity:1.0; 
stroke:#840000; stroke-width:80; stroke-opacity:1; 
stroke-linecap:round; stroke-linejoin:round;">
<path style="fill:#840000; fill-opacity:1.0; 
stroke:#840000; stroke-width:80; stroke-opacity:1; 
stroke-linecap:round; stroke-linejoin:round;fill-rule:evenodd;"
d="M 55000,36500
54000,36500
54500,37500
55000,36500
Z" /> 
</g>
<g style="fill:#840000; fill-opacity:0.0; 
stroke:#840000; stroke-width:60; stroke-opacity:1; 
stroke-linecap:round; stroke-linejoin:round;">
<path style="fill:#840000; fill-opacity:0.0; 
stroke:#840000; stroke-width:60; stroke-opacity:1; 
stroke-linecap:round; stroke-linejoin:round;fill:none"
d="M 54800,38200
55400,38800
55400,38500
55400,38800
55100,38800
Z" /> 
<path style="fill:#840000; fill-opacity:0.0; 
stroke:#840000; stroke-width:60; stroke-opacity:1; 
stroke-linecap:round; stroke-linejoin:round;fill:none"
d="M 54800,37700
55400,38300
55400,38000
55400,38300
55100,38300
Z" /> 
<path d="M54500 37500
L54500 38500
" />
<path d="M54500 36500
L54500 35500
" />
</g>
<g style="fill:#008484; fill-opacity:0.0; 
stroke:#008484; stroke-width:60; stroke-opacity:1; 
stroke-linecap:round; stroke-linejoin:round;">
<path d="M55830 36800
L55830 36300
L55950 36300
L56020 36330
L56060 36370
L56090 36420
L56110 36520
L56110 36590
L56090 36680
L56060 36730
L56020 36780
L55950 36800
L55830 36800
" />
<path d="M56590 36800
L56300 36800
" />
<path d="M56450 36800
L56450 36300
L56400 36370
L56350 36420
L56300 36440
" />
<path d="M56060 37710
L55830 37710
L55830 37210
" />
<path d="M56230 37450
L56400 37450
" />
<path d="M56470 37710
L56230 37710
L56230 37210
L56470 37210
" />
<path d="M56680 37710
L56680 37210
L56800 37210
L56870 37240
L56920 37280
L56940 37330
L56970 37430
L56970 37500
L56940 37590
L56920 37640
L56870 37690
L56800 37710
L56680 37710
" />
</g>
</g>
<g style="fill:#008484; fill-opacity:0.0; 
stroke:#008484; stroke-width:0; stroke-opacity:1; 
stroke-linecap:round; stroke-linejoin:round;">
<g >
</g>
<g style="fill:#840000; fill-opacity:0.0; 
stroke:#840000; stroke-width:0; stroke-opacity:1; 
stroke-linecap:round; stroke-linejoin:round;">
</g>
<g style="fill:#FFFFC2; fill-opacity:0.0; 
stroke:#FFFFC2; stroke-width:0; stroke-opacity:1; 
stroke-linecap:round; stroke-linejoin:round;">
</g>
<g style="fill:#FFFFC2; fill-opacity:0.6; 
stroke:#FFFFC2; stroke-width:0; stroke-opacity:1; 
stroke-linecap:round; stroke-linejoin:round;">
<rect x="64500" y="34500" width="1000" height="5000" rx="0" />
</g>
<g style="fill:#840000; fill-opacity:0.6; 
stroke:#840000; stroke-width:0; stroke-opacity:1; 
stroke-linecap:round; stroke-linejoin:round;">
</g>
<g style="fill:#840000; fill-opacity:0.0; 
stroke:#840000; stroke-width:100; stroke-opacity:1; 
stroke-linecap:round; stroke-linejoin:round;">
<rect x="64500" y="34500" width="1000" height="5000" rx="0" />
</g>
<g style="fill:#840000; fill-opacity:0.0; 
stroke:#840000; stroke-width:60; stroke-opacity:1; 
stroke-linecap:round; stroke-linejoin:round;">
<rect x="65000" y="38950" width="500" height="100" rx="0" />
<rect x="65000" y="37950" width="500" height="100" rx="0" />
<rect x="65000" y="35950" width="500" height="100" rx="0" />
<rect x="65000" y="34950" width="500" height="100" rx="0" />
<rect x="65000" y="36950" width="500" height="100" rx="0" />
<path d="M65500 35000
L67000 35000
" />
<path d="M66390 34870
L66100 34870
" />
<path d="M66250 34870
L66250 34370
L66200 34440
L66150 34490
L66100 34510
" />
<path d="M65500 36000
L67000 36000
" />
<path d="M66100 35420
L66130 35400
L66170 35370
L66290 35370
L66340 35400
L66360 35420
L66390 35470
L66390 35510
L66360 35590
L66080 35870
L66390 35870
" />
<path d="M65500 37000
L67000 37000
" />
<path d="M66080 36370
L66390 36370
L66220 36560
L66290 36560
L66340 36590
L66360 36610
L66390 36660
L66390 36780
L66360 36820
L66340 36850
L66290 36870
L66150 36870
L66100 36850
L66080 36820
" />
<path d="M65500 38000
L67000 38000
" />
<path d="M66340 37540
L66340 37870
" />
<path d="M66220 37350
L66100 37700
L66410 37700
" />
<path d="M65500 39000
L67000 39000
" />
<path d="M66360 38370
L66130 38370
L66100 38610
L66130 38590
L66170 38560
L66290 38560
L66340 38590
L66360 38610
L66390 38660
L66390 38780
L66360 38820
L66340 38850
L66290 38870
L66170 38870
L66130 38850
L66100 38820
" />
</g>
<g style="fill:#008484; fill-opacity:0.0; 
stroke:#008484; stroke-width:60; stroke-opacity:1; 
stroke-linecap:round; stroke-linejoin:round;">
<path d="M64870 33740
L64870 34100
L64840 34170
L64800 34220
L64730 34240
L64680 34240
" />
<path d="M65080 33790
L65110 33770
L65150 33740
L65270 33740
L65320 33770
L65340 33790
L65370 33840
L65370 33880
L65340 33960
L65060 34240
L65370 34240
" />
<path d="M61730 40740
L61730 40240
L61920 40240
L61960 40270
L61990 40290
L62010 40340
L62010 40410
L61990 40460
L61960 40480
L61920 40500
L61730 40500
" />
<path d="M62230 40740
L62230 40410
" />
<path d="M62230 40240
L62200 40270
L62230 40290
L62250 40270
L62230 40240
L62230 40290
" />
<path d="M62460 40410
L62460 40740
" />
<path d="M62460 40460
L62490 40430
L62540 40410
L62610 40410
L62650 40430
L62680 40480
L62680 40740
" />
<path d="M62800 40790
L63180 40790
" />
<path d="M63300 40740
L63300 40240
" />
<path d="M63300 40480
L63580 40480
" />
<path d="M63580 40740
L63580 40240
" />
<path d="M64010 40720
L63960 40740
L63870 40740
L63820 40720
L63800 40670
L63800 40480
L63820 40430
L63870 40410
L63960 40410
L64010 40430
L64040 40480
L64040 40530
L63800 40570
" />
<path d="M64460 40740
L64460 40480
L64440 40430
L64390 40410
L64300 40410
L64250 40430
" />
<path d="M64460 40720
L64420 40740
L64300 40740
L64250 40720
L64230 40670
L64230 40620
L64250 40570
L64300 40550
L64420 40550
L64460 40530
" />
<path d="M64920 40740
L64920 40240
" />
<path d="M64920 40720
L64870 40740
L64770 40740
L64730 40720
L64700 40690
L64680 40650
L64680 40500
L64700 40460
L64730 40430
L64770 40410
L64870 40410
L64920 40430
" />
<path d="M65340 40720
L65300 40740
L65200 40740
L65150 40720
L65130 40670
L65130 40480
L65150 40430
L65200 40410
L65300 40410
L65340 40430
L65370 40480
L65370 40530
L65130 40570
" />
<path d="M65580 40740
L65580 40410
" />
<path d="M65580 40500
L65610 40460
L65630 40430
L65680 40410
L65730 40410
" />
<path d="M65770 40790
L66150 40790
" />
<path d="M66370 40240
L66420 40240
L66460 40270
L66490 40290
L66510 40340
L66540 40430
L66540 40550
L66510 40650
L66490 40690
L66460 40720
L66420 40740
L66370 40740
L66320 40720
L66300 40690
L66270 40650
L66250 40550
L66250 40430
L66270 40340
L66300 40290
L66320 40270
L66370 40240
" />
<path d="M67010 40740
L66730 40740
" />
<path d="M66870 40740
L66870 40240
L66820 40310
L66770 40360
L66730 40380
" />
<path d="M67180 40740
L67440 40410
" />
<path d="M67180 40410
L67440 40740
" />
<path d="M67730 40240
L67770 40240
L67820 40270
L67840 40290
L67870 40340
L67890 40430
L67890 40550
L67870 40650
L67840 40690
L67820 40720
L67770 40740
L67730 40740
L67680 40720
L67650 40690
L67630 40650
L67610 40550
L67610 40430
L67630 40340
L67650 40290
L67680 40270
L67730 40240
" />
<path d="M68340 40240
L68110 40240
L68080 40480
L68110 40460
L68150 40430
L68270 40430
L68320 40460
L68340 40480
L68370 40530
L68370 40650
L68340 40690
L68320 40720
L68270 40740
L68150 40740
L68110 40720
L68080 40690
" />
</g>
</g>
<g style="fill:#008484; fill-opacity:0.0; 
stroke:#008484; stroke-width:0; stroke-opacity:1; 
stroke-linecap:round; stroke-linejoin:round;">
<g >
</g>
<g style="fill:#840000; fill-opacity:0.0; 
stroke:#840000; stroke-width:0; stroke-opacity:1; 
stroke-linecap:round; stroke-linejoin:round;">
</g>
<g style="fill:#FFFFC2; fill-opacity:0.0; 
stroke:#FFFFC2; stroke-width:0; stroke-opacity:1; 
stroke-linecap:round; stroke-linejoin:round;">
</g>
<g style="fill:#FFFFC2; fill-opacity:0.6; 
stroke:#FFFFC2; stroke-width:0; stroke-opacity:1; 
stroke-linecap:round; stroke-linejoin:round;">
<rect x="42500" y="34500" width="1000" height="5000" rx="0" />
</g>
<g style="fill:#840000; fill-opacity:0.6; 
stroke:#840000; stroke-width:0; stroke-opacity:1; 
stroke-linecap:round; stroke-linejoin:round;">
</g>
<g style="fill:#840000; fill-opacity:0.0; 
stroke:#840000; stroke-width:100; stroke-opacity:1; 
stroke-linecap:round; stroke-linejoin:round;">
<rect x="42500" y="34500" width="1000" height="5000" rx="0" />
</g>
<g style="fill:#840000; fill-opacity:0.0; 
stroke:#840000; stroke-width:60; stroke-opacity:1; 
stroke-linecap:round; stroke-linejoin:round;">
<rect x="42500" y="38950" width="500" height="100" rx="0" />
<rect x="42500" y="37950" width="500" height="100" rx="0" />
<rect x="42500" y="35950" width="500" height="100" rx="0" />
<rect x="42500" y="34950" width="500" height="100" rx="0" />
<rect x="42500" y="36950" width="500" height="100" rx="0" />
<path d="M42500 35000
L41000 35000
" />
<path d="M41890 34870
L41600 34870
" />
<path d="M41750 34870
L41750 34370
L41700 34440
L41650 34490
L41600 34510
" />
<path d="M42500 36000
L41000 36000
" />
<path d="M41600 35420
L41630 35400
L41670 35370
L41790 35370
L41840 35400
L41860 35420
L41890 35470
L41890 35510
L41860 35590
L41580 35870
L41890 35870
" />
<path d="M42500 37000
L41000 37000
" />
<path d="M41580 36370
L41890 36370
L41720 36560
L41790 36560
L41840 36590
L41860 36610
L41890 36660
L41890 36780
L41860 36820
L41840 36850
L41790 36870
L41650 36870
L41600 36850
L41580 36820
" />
<path d="M42500 38000
L41000 38000
" />
<path d="M41840 37540
L41840 37870
" />
<path d="M41720 37350
L41600 37700
L41910 37700
" />
<path d="M42500 39000
L41000 39000
" />
<path d="M41860 38370
L41630 38370
L41600 38610
L41630 38590
L41670 38560
L41790 38560
L41840 38590
L41860 38610
L41890 38660
L41890 38780
L41860 38820
L41840 38850
L41790 38870
L41670 38870
L41630 38850
L41600 38820
" />
</g>
<g style="fill:#008484; fill-opacity:0.0; 
stroke:#008484; stroke-width:60; stroke-opacity:1; 
stroke-linecap:round; stroke-linejoin:round;">
<path d="M42790 33740
L42790 34100
L42760 34170
L42720 34220
L42650 34240
L42600 34240
" />
<path d="M43290 34240
L43000 34240
" />
<path d="M43150 34240
L43150 33740
L43100 33810
L43050 33860
L43000 33880
" />
<path d="M39650 40740
L39650 40240
L39840 40240
L39880 40270
L39910 40290
L39930 40340
L39930 40410
L39910 40460
L39880 40480
L39840 40500
L39650 40500
" />
<path d="M40150 40740
L40150 40410
" />
<path d="M40150 40240
L40120 40270
L40150 40290
L40170 40270
L40150 40240
L40150 40290
" />
<path d="M40380 40410
L40380 40740
" />
<path d="M40380 40460
L40410 40430
L40450 40410
L40530 40410
L40570 40430
L40600 40480
L40600 40740
" />
<path d="M40720 40790
L41100 40790
" />
<path d="M41220 40740
L41220 40240
" />
<path d="M41220 40480
L41500 40480
" />
<path d="M41500 40740
L41500 40240
" />
<path d="M41930 40720
L41880 40740
L41790 40740
L41740 40720
L41720 40670
L41720 40480
L41740 40430
L41790 40410
L41880 40410
L41930 40430
L41960 40480
L41960 40530
L41720 40570
" />
<path d="M42380 40740
L42380 40480
L42360 40430
L42310 40410
L42220 40410
L42170 40430
" />
<path d="M42380 40720
L42340 40740
L42220 40740
L42170 40720
L42150 40670
L42150 40620
L42170 40570
L42220 40550
L42340 40550
L42380 40530
" />
<path d="M42840 40740
L42840 40240
" />
<path d="M42840 40720
L42790 40740
L42690 40740
L42650 40720
L42620 40690
L42600 40650
L42600 40500
L42620 40460
L42650 40430
L42690 40410
L42790 40410
L42840 40430
" />
<path d="M43260 40720
L43220 40740
L43120 40740
L43070 40720
L43050 40670
L43050 40480
L43070 40430
L43120 40410
L43220 40410
L43260 40430
L43290 40480
L43290 40530
L43050 40570
" />
<path d="M43500 40740
L43500 40410
" />
<path d="M43500 40500
L43530 40460
L43550 40430
L43600 40410
L43650 40410
" />
<path d="M43690 40790
L44070 40790
" />
<path d="M44290 40240
L44340 40240
L44380 40270
L44410 40290
L44430 40340
L44460 40430
L44460 40550
L44430 40650
L44410 40690
L44380 40720
L44340 40740
L44290 40740
L44240 40720
L44220 40690
L44190 40650
L44170 40550
L44170 40430
L44190 40340
L44220 40290
L44240 40270
L44290 40240
" />
<path d="M44930 40740
L44650 40740
" />
<path d="M44790 40740
L44790 40240
L44740 40310
L44690 40360
L44650 40380
" />
<path d="M45100 40740
L45360 40410
" />
<path d="M45100 40410
L45360 40740
" />
<path d="M45650 40240
L45690 40240
L45740 40270
L45760 40290
L45790 40340
L45810 40430
L45810 40550
L45790 40650
L45760 40690
L45740 40720
L45690 40740
L45650 40740
L45600 40720
L45570 40690
L45550 40650
L45530 40550
L45530 40430
L45550 40340
L45570 40290
L45600 40270
L45650 40240
" />
<path d="M46260 40240
L46030 40240
L46000 40480
L46030 40460
L46070 40430
L46190 40430
L46240 40460
L46260 40480
L46290 40530
L46290 40650
L46260 40690
L46240 40720
L46190 40740
L46070 40740
L46030 40720
L46000 40690
" />
</g>
</g>
<g style="fill:#008484; fill-opacity:0.0; 
stroke:#008484; stroke-width:0; stroke-opacity:1; 
stroke-linecap:round; stroke-linejoin:round;">
<g >
</g>
<g style="fill:#840000; fill-opacity:0.0; 
stroke:#840000; stroke-width:0; stroke-opacity:1; 
stroke-linecap:round; stroke-linejoin:round;">
</g>
<g style="fill:#840000; fill-opacity:0.0; 
stroke:#840000; stroke-width:100; stroke-opacity:1; 
stroke-linecap:round; stroke-linejoin:round;">
<rect x="37600" y="25500" width="800" height="2000" rx="0" />
</g>
<g style="fill:#840000; fill-opacity:0.0; 
stroke:#840000; stroke-width:60; stroke-opacity:1; 
stroke-linecap:round; stroke-linejoin:round;">
<path style="fill:#840000; fill-opacity:0.0; 
stroke:#840000; stroke-width:60; stroke-opacity:1; 
stroke-linecap:round; stroke-linejoin:round;fill:none"
d="M 38600,27400
39600,26400
Z" /> 
<path style="fill:#840000; fill-opacity:0.0; 
stroke:#840000; stroke-width:60; stroke-opacity:1; 
stroke-linecap:round; stroke-linejoin:round;fill:none"
d="M 38600,27400
38900,27400
Z" /> 
<path style="fill:#840000; fill-opacity:0.0; 
stroke:#840000; stroke-width:60; stroke-opacity:1; 
stroke-linecap:round; stroke-linejoin:round;fill:none"
d="M 38600,27400
38600,27100
Z" /> 
<path style="fill:#840000; fill-opacity:0.0; 
stroke:#840000; stroke-width:60; stroke-opacity:1; 
stroke-linecap:round; stroke-linejoin:round;fill:none"
d="M 38600,26800
39600,25800
Z" /> 
<path style="fill:#840000; fill-opacity:0.0; 
stroke:#840000; stroke-width:60; stroke-opacity:1; 
stroke-linecap:round; stroke-linejoin:round;fill:none"
d="M 38600,26800
38900,26800
Z" /> 
<path style="fill:#840000; fill-opacity:0.0; 
stroke:#840000; stroke-width:60; stroke-opacity:1; 
stroke-linecap:round; stroke-linejoin:round;fill:none"
d="M 38600,26800
38600,26500
Z" /> 
<path d="M38000 25500
L38000 25000
" />
<path d="M38000 27500
L38000 28000
" />
</g>
<g style="fill:#008484; fill-opacity:0.0; 
stroke:#008484; stroke-width:60; stroke-opacity:1; 
stroke-linecap:round; stroke-linejoin:round;">
<path d="M35440 26240
L35200 26240
L35200 25740
" />
<path d="M35610 26240
L35610 25740
L35730 25740
L35800 25770
L35850 25810
L35870 25860
L35890 25960
L35890 26030
L35870 26120
L35850 26170
L35800 26220
L35730 26240
L35610 26240
" />
<path d="M36390 26240
L36230 26000
" />
<path d="M36110 26240
L36110 25740
L36300 25740
L36350 25770
L36370 25790
L36390 25840
L36390 25910
L36370 25960
L36350 25980
L36300 26000
L36110 26000
" />
<path d="M36870 26240
L36580 26240
" />
<path d="M36730 26240
L36730 25740
L36680 25810
L36630 25860
L36580 25880
" />
<path d="M33130 27240
L33130 26740
" />
<path d="M33410 27240
L33200 26960
" />
<path d="M33410 26740
L33130 27030
" />
<path d="M33630 26980
L33790 26980
" />
<path d="M33870 27240
L33630 27240
L33630 26740
L33870 26740
" />
<path d="M34080 27050
L34460 27050
" />
<path d="M34960 27240
L34680 27240
" />
<path d="M34820 27240
L34820 26740
L34770 26810
L34720 26860
L34680 26880
" />
<path d="M35270 26740
L35320 26740
L35370 26770
L35390 26790
L35410 26840
L35440 26930
L35440 27050
L35410 27150
L35390 27190
L35370 27220
L35320 27240
L35270 27240
L35220 27220
L35200 27190
L35180 27150
L35150 27050
L35150 26930
L35180 26840
L35200 26790
L35220 26770
L35270 26740
" />
<path d="M35600 26740
L35940 26740
L35720 27240
" />
<path d="M36100 26790
L36130 26770
L36180 26740
L36290 26740
L36340 26770
L36370 26790
L36390 26840
L36390 26880
L36370 26960
L36080 27240
L36390 27240
" />
<path d="M36700 26740
L36750 26740
L36790 26770
L36820 26790
L36840 26840
L36870 26930
L36870 27050
L36840 27150
L36820 27190
L36790 27220
L36750 27240
L36700 27240
L36650 27220
L36630 27190
L36600 27150
L36580 27050
L36580 26930
L36600 26840
L36630 26790
L36650 26770
L36700 26740
" />
</g>
</g>
<g style="fill:#008484; fill-opacity:0.0; 
stroke:#008484; stroke-width:60; stroke-opacity:1; 
stroke-linecap:round; stroke-linejoin:round;">
</g>
<g style="fill:#840000; fill-opacity:0.0; 
stroke:#840000; stroke-width:60; stroke-opacity:1; 
stroke-linecap:round; stroke-linejoin:round;">
<path d="M54720 40640
L54220 40640
L54220 40450
L54250 40410
L54270 40380
L54320 40360
L54390 40360
L54440 40380
L54460 40410
L54480 40450
L54480 40640
" />
<path d="M54720 40140
L54220 40140
L54580 39980
L54220 39810
L54720 39810
" />
<path d="M54770 39690
L54770 39310
" />
<path d="M54720 38930
L54720 39220
" />
<path d="M54720 39070
L54220 39070
L54290 39120
L54340 39170
L54360 39220
" />
</g>
<g style="fill:#840000; fill-opacity:0.0; 
stroke:#840000; stroke-width:100; stroke-opacity:1; 
stroke-linecap:round; stroke-linejoin:round;">
<path style="fill:#840000; fill-opacity:0.0; 
stroke:#840000; stroke-width:100; stroke-opacity:1; 
stroke-linecap:round; stroke-linejoin:round;fill:none"
d="M 54500,38500
54060,38750
54060,40910
54500,40910
54940,40910
54940,38750
54500,38500
Z" /> 
</g>
<g style="fill:#840000; fill-opacity:0.0; 
stroke:#840000; stroke-width:60; stroke-opacity:1; 
stroke-linecap:round; stroke-linejoin:round;">
<path d="M51220 24540
L50720 24540
L50720 24350
L50750 24300
L50770 24270
L50820 24250
L50890 24250
L50940 24270
L50960 24300
L50980 24350
L50980 24540
" />
<path d="M51220 24040
L50720 24040
L51080 23870
L50720 23700
L51220 23700
" />
<path d="M51270 23580
L51270 23200
" />
<path d="M50720 22870
L50720 22960
L50750 23010
L50770 23040
L50840 23080
L50940 23110
L51130 23110
L51170 23080
L51200 23060
L51220 23010
L51220 22920
L51200 22870
L51170 22850
L51130 22820
L51010 22820
L50960 22850
L50940 22870
L50910 22920
L50910 23010
L50940 23060
L50960 23080
L51010 23110
" />
</g>
<g style="fill:#840000; fill-opacity:0.0; 
stroke:#840000; stroke-width:100; stroke-opacity:1; 
stroke-linecap:round; stroke-linejoin:round;">
<path style="fill:#840000; fill-opacity:0.0; 
stroke:#840000; stroke-width:100; stroke-opacity:1; 
stroke-linecap:round; stroke-linejoin:round;fill:none"
d="M 51000,25000
51440,24750
51440,22590
51000,22590
50560,22590
50560,24750
51000,25000
Z" /> 
</g>
<g style="fill:#840000; fill-opacity:0.0; 
stroke:#840000; stroke-width:60; stroke-opacity:1; 
stroke-linecap:round; stroke-linejoin:round;">
<path d="M38850 35220
L38850 34720
L39040 34720
L39080 34750
L39110 34770
L39130 34820
L39130 34890
L39110 34940
L39080 34960
L39040 34980
L38850 34980
" />
<path d="M39350 35220
L39350 34720
L39510 35080
L39680 34720
L39680 35220
" />
<path d="M39800 35270
L40180 35270
" />
<path d="M40560 35220
L40270 35220
" />
<path d="M40420 35220
L40420 34720
L40370 34790
L40320 34840
L40270 34860
" />
</g>
<g style="fill:#840000; fill-opacity:0.0; 
stroke:#840000; stroke-width:100; stroke-opacity:1; 
stroke-linecap:round; stroke-linejoin:round;">
<path style="fill:#840000; fill-opacity:0.0; 
stroke:#840000; stroke-width:100; stroke-opacity:1; 
stroke-linecap:round; stroke-linejoin:round;fill:none"
d="M 41000,35000
40750,34560
38590,34560
38590,35000
38590,35440
40750,35440
41000,35000
Z" /> 
</g>
<g style="fill:#840000; fill-opacity:0.0; 
stroke:#840000; stroke-width:60; stroke-opacity:1; 
stroke-linecap:round; stroke-linejoin:round;">
<path d="M38850 36220
L38850 35720
L39040 35720
L39080 35750
L39110 35770
L39130 35820
L39130 35890
L39110 35940
L39080 35960
L39040 35980
L38850 35980
" />
<path d="M39350 36220
L39350 35720
L39510 36080
L39680 35720
L39680 36220
" />
<path d="M39800 36270
L40180 36270
" />
<path d="M40270 35770
L40300 35750
L40350 35720
L40460 35720
L40510 35750
L40540 35770
L40560 35820
L40560 35860
L40540 35940
L40250 36220
L40560 36220
" />
</g>
<g style="fill:#840000; fill-opacity:0.0; 
stroke:#840000; stroke-width:100; stroke-opacity:1; 
stroke-linecap:round; stroke-linejoin:round;">
<path style="fill:#840000; fill-opacity:0.0; 
stroke:#840000; stroke-width:100; stroke-opacity:1; 
stroke-linecap:round; stroke-linejoin:round;fill:none"
d="M 41000,36000
40750,35560
38590,35560
38590,36000
38590,36440
40750,36440
41000,36000
Z" /> 
</g>
<g style="fill:#840000; fill-opacity:0.0; 
stroke:#840000; stroke-width:60; stroke-opacity:1; 
stroke-linecap:round; stroke-linejoin:round;">
<path d="M38850 37220
L38850 36720
L39040 36720
L39080 36750
L39110 36770
L39130 36820
L39130 36890
L39110 36940
L39080 36960
L39040 36980
L38850 36980
" />
<path d="M39350 37220
L39350 36720
L39510 37080
L39680 36720
L39680 37220
" />
<path d="M39800 37270
L40180 37270
" />
<path d="M40250 36720
L40560 36720
L40390 36910
L40460 36910
L40510 36940
L40540 36960
L40560 37010
L40560 37130
L40540 37170
L40510 37200
L40460 37220
L40320 37220
L40270 37200
L40250 37170
" />
</g>
<g style="fill:#840000; fill-opacity:0.0; 
stroke:#840000; stroke-width:100; stroke-opacity:1; 
stroke-linecap:round; stroke-linejoin:round;">
<path style="fill:#840000; fill-opacity:0.0; 
stroke:#840000; stroke-width:100; stroke-opacity:1; 
stroke-linecap:round; stroke-linejoin:round;fill:none"
d="M 41000,37000
40750,36560
38590,36560
38590,37000
38590,37440
40750,37440
41000,37000
Z" /> 
</g>
<g style="fill:#840000; fill-opacity:0.0; 
stroke:#840000; stroke-width:60; stroke-opacity:1; 
stroke-linecap:round; stroke-linejoin:round;">
<path d="M37990 38220
L37990 37720
L38180 37720
L38230 37750
L38250 37770
L38270 37820
L38270 37890
L38250 37940
L38230 37960
L38180 37980
L37990 37980
" />
<path d="M38490 38220
L38490 37720
L38660 38080
L38820 37720
L38820 38220
" />
<path d="M38940 38270
L39320 38270
" />
<path d="M39660 37890
L39660 38220
" />
<path d="M39540 37700
L39420 38050
L39730 38050
" />
<path d="M39800 38270
L40180 38270
" />
<path d="M40320 38220
L40420 38220
L40460 38200
L40490 38170
L40540 38100
L40560 38010
L40560 37820
L40540 37770
L40510 37750
L40460 37720
L40370 37720
L40320 37750
L40300 37770
L40270 37820
L40270 37940
L40300 37980
L40320 38010
L40370 38030
L40460 38030
L40510 38010
L40540 37980
L40560 37940
" />
</g>
<g style="fill:#840000; fill-opacity:0.0; 
stroke:#840000; stroke-width:100; stroke-opacity:1; 
stroke-linecap:round; stroke-linejoin:round;">
<path style="fill:#840000; fill-opacity:0.0; 
stroke:#840000; stroke-width:100; stroke-opacity:1; 
stroke-linecap:round; stroke-linejoin:round;fill:none"
d="M 41000,38000
40750,37560
37730,37560
37730,38000
37730,38440
40750,38440
41000,38000
Z" /> 
</g>
<g style="fill:#840000; fill-opacity:0.0; 
stroke:#840000; stroke-width:60; stroke-opacity:1; 
stroke-linecap:round; stroke-linejoin:round;">
<path d="M38850 39220
L38850 38720
L39040 38720
L39080 38750
L39110 38770
L39130 38820
L39130 38890
L39110 38940
L39080 38960
L39040 38980
L38850 38980
" />
<path d="M39350 39220
L39350 38720
L39510 39080
L39680 38720
L39680 39220
" />
<path d="M39800 39270
L40180 39270
" />
<path d="M40540 38720
L40300 38720
L40270 38960
L40300 38940
L40350 38910
L40460 38910
L40510 38940
L40540 38960
L40560 39010
L40560 39130
L40540 39170
L40510 39200
L40460 39220
L40350 39220
L40300 39200
L40270 39170
" />
</g>
<g style="fill:#840000; fill-opacity:0.0; 
stroke:#840000; stroke-width:100; stroke-opacity:1; 
stroke-linecap:round; stroke-linejoin:round;">
<path style="fill:#840000; fill-opacity:0.0; 
stroke:#840000; stroke-width:100; stroke-opacity:1; 
stroke-linecap:round; stroke-linejoin:round;fill:none"
d="M 41000,39000
40750,38560
38590,38560
38590,39000
38590,39440
40750,39440
41000,39000
Z" /> 
</g>
<g style="fill:#840000; fill-opacity:0.0; 
stroke:#840000; stroke-width:60; stroke-opacity:1; 
stroke-linecap:round; stroke-linejoin:round;">
<path d="M67450 35220
L67450 34720
L67640 34720
L67690 34750
L67720 34770
L67740 34820
L67740 34890
L67720 34940
L67690 34960
L67640 34980
L67450 34980
" />
<path d="M67950 35220
L67950 34720
L68120 35080
L68290 34720
L68290 35220
" />
<path d="M68410 35270
L68790 35270
" />
<path d="M69170 35220
L68880 35220
" />
<path d="M69030 35220
L69030 34720
L68980 34790
L68930 34840
L68880 34860
" />
<path d="M69480 34720
L69530 34720
L69570 34750
L69600 34770
L69620 34820
L69640 34910
L69640 35030
L69620 35130
L69600 35170
L69570 35200
L69530 35220
L69480 35220
L69430 35200
L69410 35170
L69380 35130
L69360 35030
L69360 34910
L69380 34820
L69410 34770
L69430 34750
L69480 34720
" />
</g>
<g style="fill:#840000; fill-opacity:0.0; 
stroke:#840000; stroke-width:100; stroke-opacity:1; 
stroke-linecap:round; stroke-linejoin:round;">
<path style="fill:#840000; fill-opacity:0.0; 
stroke:#840000; stroke-width:100; stroke-opacity:1; 
stroke-linecap:round; stroke-linejoin:round;fill:none"
d="M 67000,35000
67250,35440
69880,35440
69880,35000
69880,34560
67250,34560
67000,35000
Z" /> 
</g>
<g style="fill:#840000; fill-opacity:0.0; 
stroke:#840000; stroke-width:60; stroke-opacity:1; 
stroke-linecap:round; stroke-linejoin:round;">
<path d="M67450 36220
L67450 35720
L67640 35720
L67690 35750
L67720 35770
L67740 35820
L67740 35890
L67720 35940
L67690 35960
L67640 35980
L67450 35980
" />
<path d="M67950 36220
L67950 35720
L68120 36080
L68290 35720
L68290 36220
" />
<path d="M68410 36270
L68790 36270
" />
<path d="M69120 35890
L69120 36220
" />
<path d="M69000 35700
L68880 36050
L69190 36050
" />
<path d="M69260 36270
L69640 36270
" />
<path d="M69790 36220
L69880 36220
L69930 36200
L69950 36170
L70000 36100
L70030 36010
L70030 35820
L70000 35770
L69980 35750
L69930 35720
L69840 35720
L69790 35750
L69760 35770
L69740 35820
L69740 35940
L69760 35980
L69790 36010
L69840 36030
L69930 36030
L69980 36010
L70000 35980
L70030 35940
" />
</g>
<g style="fill:#840000; fill-opacity:0.0; 
stroke:#840000; stroke-width:100; stroke-opacity:1; 
stroke-linecap:round; stroke-linejoin:round;">
<path style="fill:#840000; fill-opacity:0.0; 
stroke:#840000; stroke-width:100; stroke-opacity:1; 
stroke-linecap:round; stroke-linejoin:round;fill:none"
d="M 67000,36000
67250,36440
70270,36440
70270,36000
70270,35560
67250,35560
67000,36000
Z" /> 
</g>
<g style="fill:#840000; fill-opacity:0.0; 
stroke:#840000; stroke-width:60; stroke-opacity:1; 
stroke-linecap:round; stroke-linejoin:round;">
<path d="M67450 37220
L67450 36720
L67640 36720
L67690 36750
L67720 36770
L67740 36820
L67740 36890
L67720 36940
L67690 36960
L67640 36980
L67450 36980
" />
<path d="M67950 37220
L67950 36720
L68120 37080
L68290 36720
L68290 37220
" />
<path d="M68410 37270
L68790 37270
" />
<path d="M68980 36940
L68930 36910
L68910 36890
L68880 36840
L68880 36820
L68910 36770
L68930 36750
L68980 36720
L69070 36720
L69120 36750
L69140 36770
L69170 36820
L69170 36840
L69140 36890
L69120 36910
L69070 36940
L68980 36940
L68930 36960
L68910 36980
L68880 37030
L68880 37130
L68910 37170
L68930 37200
L68980 37220
L69070 37220
L69120 37200
L69140 37170
L69170 37130
L69170 37030
L69140 36980
L69120 36960
L69070 36940
" />
</g>
<g style="fill:#840000; fill-opacity:0.0; 
stroke:#840000; stroke-width:100; stroke-opacity:1; 
stroke-linecap:round; stroke-linejoin:round;">
<path style="fill:#840000; fill-opacity:0.0; 
stroke:#840000; stroke-width:100; stroke-opacity:1; 
stroke-linecap:round; stroke-linejoin:round;fill:none"
d="M 67000,37000
67250,37440
69410,37440
69410,37000
69410,36560
67250,36560
67000,37000
Z" /> 
</g>
<g style="fill:#840000; fill-opacity:0.0; 
stroke:#840000; stroke-width:60; stroke-opacity:1; 
stroke-linecap:round; stroke-linejoin:round;">
<path d="M67450 38220
L67450 37720
L67640 37720
L67690 37750
L67720 37770
L67740 37820
L67740 37890
L67720 37940
L67690 37960
L67640 37980
L67450 37980
" />
<path d="M67950 38220
L67950 37720
L68120 38080
L68290 37720
L68290 38220
" />
<path d="M68410 38270
L68790 38270
" />
<path d="M68860 37720
L69190 37720
L68980 38220
" />
</g>
<g style="fill:#840000; fill-opacity:0.0; 
stroke:#840000; stroke-width:100; stroke-opacity:1; 
stroke-linecap:round; stroke-linejoin:round;">
<path style="fill:#840000; fill-opacity:0.0; 
stroke:#840000; stroke-width:100; stroke-opacity:1; 
stroke-linecap:round; stroke-linejoin:round;fill:none"
d="M 67000,38000
67250,38440
69410,38440
69410,38000
69410,37560
67250,37560
67000,38000
Z" /> 
</g>
<g style="fill:#840000; fill-opacity:0.0; 
stroke:#840000; stroke-width:60; stroke-opacity:1; 
stroke-linecap:round; stroke-linejoin:round;">
<path d="M67450 39220
L67450 38720
L67640 38720
L67690 38750
L67720 38770
L67740 38820
L67740 38890
L67720 38940
L67690 38960
L67640 38980
L67450 38980
" />
<path d="M67950 39220
L67950 38720
L68120 39080
L68290 38720
L68290 39220
" />
<path d="M68410 39270
L68790 39270
" />
<path d="M69120 38720
L69030 38720
L68980 38750
L68950 38770
L68910 38840
L68880 38940
L68880 39130
L68910 39170
L68930 39200
L68980 39220
L69070 39220
L69120 39200
L69140 39170
L69170 39130
L69170 39010
L69140 38960
L69120 38940
L69070 38910
L68980 38910
L68930 38940
L68910 38960
L68880 39010
" />
</g>
<g style="fill:#840000; fill-opacity:0.0; 
stroke:#840000; stroke-width:100; stroke-opacity:1; 
stroke-linecap:round; stroke-linejoin:round;">
<path style="fill:#840000; fill-opacity:0.0; 
stroke:#840000; stroke-width:100; stroke-opacity:1; 
stroke-linecap:round; stroke-linejoin:round;fill:none"
d="M 67000,39000
67250,39440
69410,39440
69410,39000
69410,38560
67250,38560
67000,39000
Z" /> 
</g>
<g style="fill:#840000; fill-opacity:0.0; 
stroke:#840000; stroke-width:60; stroke-opacity:1; 
stroke-linecap:round; stroke-linejoin:round;">
<path d="M54720 35040
L54220 35040
L54220 34850
L54250 34800
L54270 34770
L54320 34750
L54390 34750
L54440 34770
L54460 34800
L54480 34850
L54480 35040
" />
<path d="M54720 34540
L54220 34540
L54580 34370
L54220 34200
L54720 34200
" />
<path d="M54770 34080
L54770 33700
" />
<path d="M54270 33610
L54250 33580
L54220 33540
L54220 33420
L54250 33370
L54270 33350
L54320 33320
L54360 33320
L54440 33350
L54720 33630
L54720 33320
" />
</g>
<g style="fill:#840000; fill-opacity:0.0; 
stroke:#840000; stroke-width:100; stroke-opacity:1; 
stroke-linecap:round; stroke-linejoin:round;">
<path style="fill:#840000; fill-opacity:0.0; 
stroke:#840000; stroke-width:100; stroke-opacity:1; 
stroke-linecap:round; stroke-linejoin:round;fill:none"
d="M 54500,35500
54940,35250
54940,33090
54500,33090
54060,33090
54060,35250
54500,35500
Z" /> 
</g>
<g style="fill:#840000; fill-opacity:0.0; 
stroke:#840000; stroke-width:60; stroke-opacity:1; 
stroke-linecap:round; stroke-linejoin:round;">
<path d="M70720 24540
L70220 24540
L70220 24350
L70250 24300
L70270 24270
L70320 24250
L70390 24250
L70440 24270
L70460 24300
L70480 24350
L70480 24540
" />
<path d="M70720 24040
L70220 24040
L70580 23870
L70220 23700
L70720 23700
" />
<path d="M70770 23580
L70770 23200
" />
<path d="M70720 22820
L70720 23110
" />
<path d="M70720 22960
L70220 22960
L70290 23010
L70340 23060
L70360 23110
" />
<path d="M70220 22510
L70220 22460
L70250 22420
L70270 22390
L70320 22370
L70410 22350
L70530 22350
L70630 22370
L70670 22390
L70700 22420
L70720 22460
L70720 22510
L70700 22560
L70670 22580
L70630 22610
L70530 22630
L70410 22630
L70320 22610
L70270 22580
L70250 22560
L70220 22510
" />
</g>
<g style="fill:#840000; fill-opacity:0.0; 
stroke:#840000; stroke-width:100; stroke-opacity:1; 
stroke-linecap:round; stroke-linejoin:round;">
<path style="fill:#840000; fill-opacity:0.0; 
stroke:#840000; stroke-width:100; stroke-opacity:1; 
stroke-linecap:round; stroke-linejoin:round;fill:none"
d="M 70500,25000
70940,24750
70940,22120
70500,22120
70060,22120
70060,24750
70500,25000
Z" /> 
</g>
<g style="fill:#840000; fill-opacity:0.0; 
stroke:#840000; stroke-width:60; stroke-opacity:1; 
stroke-linecap:round; stroke-linejoin:round;">
<path d="M64220 24540
L63720 24540
L63720 24350
L63750 24300
L63770 24270
L63820 24250
L63890 24250
L63940 24270
L63960 24300
L63980 24350
L63980 24540
" />
<path d="M64220 24040
L63720 24040
L64080 23870
L63720 23700
L64220 23700
" />
<path d="M64270 23580
L64270 23200
" />
<path d="M63940 23010
L63910 23060
L63890 23080
L63840 23110
L63820 23110
L63770 23080
L63750 23060
L63720 23010
L63720 22920
L63750 22870
L63770 22850
L63820 22820
L63840 22820
L63890 22850
L63910 22870
L63940 22920
L63940 23010
L63960 23060
L63980 23080
L64030 23110
L64130 23110
L64170 23080
L64200 23060
L64220 23010
L64220 22920
L64200 22870
L64170 22850
L64130 22820
L64030 22820
L63980 22850
L63960 22870
L63940 22920
" />
</g>
<g style="fill:#840000; fill-opacity:0.0; 
stroke:#840000; stroke-width:100; stroke-opacity:1; 
stroke-linecap:round; stroke-linejoin:round;">
<path style="fill:#840000; fill-opacity:0.0; 
stroke:#840000; stroke-width:100; stroke-opacity:1; 
stroke-linecap:round; stroke-linejoin:round;fill:none"
d="M 64000,25000
64440,24750
64440,22590
64000,22590
63560,22590
63560,24750
64000,25000
Z" /> 
</g>
<g style="fill:#840000; fill-opacity:0.0; 
stroke:#840000; stroke-width:60; stroke-opacity:1; 
stroke-linecap:round; stroke-linejoin:round;">
<path d="M57720 24540
L57220 24540
L57220 24350
L57250 24300
L57270 24270
L57320 24250
L57390 24250
L57440 24270
L57460 24300
L57480 24350
L57480 24540
" />
<path d="M57720 24040
L57220 24040
L57580 23870
L57220 23700
L57720 23700
" />
<path d="M57770 23580
L57770 23200
" />
<path d="M57220 23130
L57220 22800
L57720 23010
" />
</g>
<g style="fill:#840000; fill-opacity:0.0; 
stroke:#840000; stroke-width:100; stroke-opacity:1; 
stroke-linecap:round; stroke-linejoin:round;">
<path style="fill:#840000; fill-opacity:0.0; 
stroke:#840000; stroke-width:100; stroke-opacity:1; 
stroke-linecap:round; stroke-linejoin:round;fill:none"
d="M 57500,25000
57940,24750
57940,22590
57500,22590
57060,22590
57060,24750
57500,25000
Z" /> 
</g>
<g style="fill:#840000; fill-opacity:0.0; 
stroke:#840000; stroke-width:60; stroke-opacity:1; 
stroke-linecap:round; stroke-linejoin:round;">
<path d="M44720 24540
L44220 24540
L44220 24350
L44250 24300
L44270 24270
L44320 24250
L44390 24250
L44440 24270
L44460 24300
L44480 24350
L44480 24540
" />
<path d="M44720 24040
L44220 24040
L44580 23870
L44220 23700
L44720 23700
" />
<path d="M44770 23580
L44770 23200
" />
<path d="M44220 22850
L44220 23080
L44460 23110
L44440 23080
L44410 23040
L44410 22920
L44440 22870
L44460 22850
L44510 22820
L44630 22820
L44670 22850
L44700 22870
L44720 22920
L44720 23040
L44700 23080
L44670 23110
" />
</g>
<g style="fill:#840000; fill-opacity:0.0; 
stroke:#840000; stroke-width:100; stroke-opacity:1; 
stroke-linecap:round; stroke-linejoin:round;">
<path style="fill:#840000; fill-opacity:0.0; 
stroke:#840000; stroke-width:100; stroke-opacity:1; 
stroke-linecap:round; stroke-linejoin:round;fill:none"
d="M 44500,25000
44940,24750
44940,22590
44500,22590
44060,22590
44060,24750
44500,25000
Z" /> 
</g>
<g style="fill:#840000; fill-opacity:0.0; 
stroke:#840000; stroke-width:60; stroke-opacity:1; 
stroke-linecap:round; stroke-linejoin:round;">
<path d="M38220 24540
L37720 24540
L37720 24350
L37750 24300
L37770 24270
L37820 24250
L37890 24250
L37940 24270
L37960 24300
L37980 24350
L37980 24540
" />
<path d="M38220 24040
L37720 24040
L38080 23870
L37720 23700
L38220 23700
" />
<path d="M38270 23580
L38270 23200
" />
<path d="M37720 23130
L37720 22820
L37910 22990
L37910 22920
L37940 22870
L37960 22850
L38010 22820
L38130 22820
L38170 22850
L38200 22870
L38220 22920
L38220 23060
L38200 23110
L38170 23130
" />
</g>
<g style="fill:#840000; fill-opacity:0.0; 
stroke:#840000; stroke-width:100; stroke-opacity:1; 
stroke-linecap:round; stroke-linejoin:round;">
<path style="fill:#840000; fill-opacity:0.0; 
stroke:#840000; stroke-width:100; stroke-opacity:1; 
stroke-linecap:round; stroke-linejoin:round;fill:none"
d="M 38000,25000
38440,24750
38440,22590
38000,22590
37560,22590
37560,24750
38000,25000
Z" /> 
</g>
<g style="fill:#840000; fill-opacity:0.0; 
stroke:#840000; stroke-width:60; stroke-opacity:1; 
stroke-linecap:round; stroke-linejoin:round;">
<path d="M70720 31000
L70220 31000
L70220 30810
L70250 30760
L70270 30740
L70320 30720
L70390 30720
L70440 30740
L70460 30760
L70480 30810
L70480 31000
" />
<path d="M70720 30500
L70220 30500
L70580 30340
L70220 30170
L70720 30170
" />
<path d="M70770 30050
L70770 29670
" />
<path d="M70390 29340
L70720 29340
" />
<path d="M70200 29450
L70550 29570
L70550 29260
" />
<path d="M70770 29190
L70770 28810
" />
<path d="M70720 28670
L70720 28570
L70700 28530
L70670 28500
L70600 28450
L70510 28430
L70320 28430
L70270 28450
L70250 28480
L70220 28530
L70220 28620
L70250 28670
L70270 28690
L70320 28720
L70440 28720
L70480 28690
L70510 28670
L70530 28620
L70530 28530
L70510 28480
L70480 28450
L70440 28430
" />
</g>
<g style="fill:#840000; fill-opacity:0.0; 
stroke:#840000; stroke-width:100; stroke-opacity:1; 
stroke-linecap:round; stroke-linejoin:round;">
<path style="fill:#840000; fill-opacity:0.0; 
stroke:#840000; stroke-width:100; stroke-opacity:1; 
stroke-linecap:round; stroke-linejoin:round;fill:none"
d="M 70500,28000
70060,28250
70060,31270
70500,31270
70940,31270
70940,28250
70500,28000
Z" /> 
</g>
<g style="fill:#840000; fill-opacity:0.0; 
stroke:#840000; stroke-width:60; stroke-opacity:1; 
stroke-linecap:round; stroke-linejoin:round;">
<path d="M64220 31000
L63720 31000
L63720 30810
L63750 30760
L63770 30740
L63820 30720
L63890 30720
L63940 30740
L63960 30760
L63980 30810
L63980 31000
" />
<path d="M64220 30500
L63720 30500
L64080 30340
L63720 30170
L64220 30170
" />
<path d="M64270 30050
L64270 29670
" />
<path d="M63890 29340
L64220 29340
" />
<path d="M63700 29450
L64050 29570
L64050 29260
" />
<path d="M64270 29190
L64270 28810
" />
<path d="M64220 28670
L64220 28570
L64200 28530
L64170 28500
L64100 28450
L64010 28430
L63820 28430
L63770 28450
L63750 28480
L63720 28530
L63720 28620
L63750 28670
L63770 28690
L63820 28720
L63940 28720
L63980 28690
L64010 28670
L64030 28620
L64030 28530
L64010 28480
L63980 28450
L63940 28430
" />
</g>
<g style="fill:#840000; fill-opacity:0.0; 
stroke:#840000; stroke-width:100; stroke-opacity:1; 
stroke-linecap:round; stroke-linejoin:round;">
<path style="fill:#840000; fill-opacity:0.0; 
stroke:#840000; stroke-width:100; stroke-opacity:1; 
stroke-linecap:round; stroke-linejoin:round;fill:none"
d="M 64000,28000
63560,28250
63560,31270
64000,31270
64440,31270
64440,28250
64000,28000
Z" /> 
</g>
<g style="fill:#840000; fill-opacity:0.0; 
stroke:#840000; stroke-width:60; stroke-opacity:1; 
stroke-linecap:round; stroke-linejoin:round;">
<path d="M57720 31000
L57220 31000
L57220 30810
L57250 30760
L57270 30740
L57320 30720
L57390 30720
L57440 30740
L57460 30760
L57480 30810
L57480 31000
" />
<path d="M57720 30500
L57220 30500
L57580 30340
L57220 30170
L57720 30170
" />
<path d="M57770 30050
L57770 29670
" />
<path d="M57390 29340
L57720 29340
" />
<path d="M57200 29450
L57550 29570
L57550 29260
" />
<path d="M57770 29190
L57770 28810
" />
<path d="M57720 28670
L57720 28570
L57700 28530
L57670 28500
L57600 28450
L57510 28430
L57320 28430
L57270 28450
L57250 28480
L57220 28530
L57220 28620
L57250 28670
L57270 28690
L57320 28720
L57440 28720
L57480 28690
L57510 28670
L57530 28620
L57530 28530
L57510 28480
L57480 28450
L57440 28430
" />
</g>
<g style="fill:#840000; fill-opacity:0.0; 
stroke:#840000; stroke-width:100; stroke-opacity:1; 
stroke-linecap:round; stroke-linejoin:round;">
<path style="fill:#840000; fill-opacity:0.0; 
stroke:#840000; stroke-width:100; stroke-opacity:1; 
stroke-linecap:round; stroke-linejoin:round;fill:none"
d="M 57500,28000
57060,28250
57060,31270
57500,31270
57940,31270
57940,28250
57500,28000
Z" /> 
</g>
<g style="fill:#840000; fill-opacity:0.0; 
stroke:#840000; stroke-width:60; stroke-opacity:1; 
stroke-linecap:round; stroke-linejoin:round;">
<path d="M51220 31000
L50720 31000
L50720 30810
L50750 30760
L50770 30740
L50820 30720
L50890 30720
L50940 30740
L50960 30760
L50980 30810
L50980 31000
" />
<path d="M51220 30500
L50720 30500
L51080 30340
L50720 30170
L51220 30170
" />
<path d="M51270 30050
L51270 29670
" />
<path d="M50890 29340
L51220 29340
" />
<path d="M50700 29450
L51050 29570
L51050 29260
" />
<path d="M51270 29190
L51270 28810
" />
<path d="M51220 28670
L51220 28570
L51200 28530
L51170 28500
L51100 28450
L51010 28430
L50820 28430
L50770 28450
L50750 28480
L50720 28530
L50720 28620
L50750 28670
L50770 28690
L50820 28720
L50940 28720
L50980 28690
L51010 28670
L51030 28620
L51030 28530
L51010 28480
L50980 28450
L50940 28430
" />
</g>
<g style="fill:#840000; fill-opacity:0.0; 
stroke:#840000; stroke-width:100; stroke-opacity:1; 
stroke-linecap:round; stroke-linejoin:round;">
<path style="fill:#840000; fill-opacity:0.0; 
stroke:#840000; stroke-width:100; stroke-opacity:1; 
stroke-linecap:round; stroke-linejoin:round;fill:none"
d="M 51000,28000
50560,28250
50560,31270
51000,31270
51440,31270
51440,28250
51000,28000
Z" /> 
</g>
<g style="fill:#840000; fill-opacity:0.0; 
stroke:#840000; stroke-width:60; stroke-opacity:1; 
stroke-linecap:round; stroke-linejoin:round;">
<path d="M44720 31000
L44220 31000
L44220 30810
L44250 30760
L44270 30740
L44320 30720
L44390 30720
L44440 30740
L44460 30760
L44480 30810
L44480 31000
" />
<path d="M44720 30500
L44220 30500
L44580 30340
L44220 30170
L44720 30170
" />
<path d="M44770 30050
L44770 29670
" />
<path d="M44390 29340
L44720 29340
" />
<path d="M44200 29450
L44550 29570
L44550 29260
" />
<path d="M44770 29190
L44770 28810
" />
<path d="M44720 28670
L44720 28570
L44700 28530
L44670 28500
L44600 28450
L44510 28430
L44320 28430
L44270 28450
L44250 28480
L44220 28530
L44220 28620
L44250 28670
L44270 28690
L44320 28720
L44440 28720
L44480 28690
L44510 28670
L44530 28620
L44530 28530
L44510 28480
L44480 28450
L44440 28430
" />
</g>
<g style="fill:#840000; fill-opacity:0.0; 
stroke:#840000; stroke-width:100; stroke-opacity:1; 
stroke-linecap:round; stroke-linejoin:round;">
<path style="fill:#840000; fill-opacity:0.0; 
stroke:#840000; stroke-width:100; stroke-opacity:1; 
stroke-linecap:round; stroke-linejoin:round;fill:none"
d="M 44500,28000
44060,28250
44060,31270
44500,31270
44940,31270
44940,28250
44500,28000
Z" /> 
</g>
<g style="fill:#840000; fill-opacity:0.0; 
stroke:#840000; stroke-width:60; stroke-opacity:1; 
stroke-linecap:round; stroke-linejoin:round;">
<path d="M38220 31000
L37720 31000
L37720 30810
L37750 30760
L37770 30740
L37820 30720
L37890 30720
L37940 30740
L37960 30760
L37980 30810
L37980 31000
" />
<path d="M38220 30500
L37720 30500
L38080 30340
L37720 30170
L38220 30170
" />
<path d="M38270 30050
L38270 29670
" />
<path d="M37890 29340
L38220 29340
" />
<path d="M37700 29450
L38050 29570
L38050 29260
" />
<path d="M38270 29190
L38270 28810
" />
<path d="M38220 28670
L38220 28570
L38200 28530
L38170 28500
L38100 28450
L38010 28430
L37820 28430
L37770 28450
L37750 28480
L37720 28530
L37720 28620
L37750 28670
L37770 28690
L37820 28720
L37940 28720
L37980 28690
L38010 28670
L38030 28620
L38030 28530
L38010 28480
L37980 28450
L37940 28430
" />
</g>
<g style="fill:#840000; fill-opacity:0.0; 
stroke:#840000; stroke-width:100; stroke-opacity:1; 
stroke-linecap:round; stroke-linejoin:round;">
<path style="fill:#840000; fill-opacity:0.0; 
stroke:#840000; stroke-width:100; stroke-opacity:1; 
stroke-linecap:round; stroke-linejoin:round;fill:none"
d="M 38000,28000
37560,28250
37560,31270
38000,31270
38440,31270
38440,28250
38000,28000
Z" /> 
</g>
<g style="fill:#840000; fill-opacity:0.0; 
stroke:#840000; stroke-width:60; stroke-opacity:1; 
stroke-linecap:round; stroke-linejoin:round;">
</g>
<g style="fill:#0000C2; fill-opacity:0.0; 
stroke:#0000C2; stroke-width:60; stroke-opacity:1; 
stroke-linecap:round; stroke-linejoin:round;">
<path d="M38600 45440
L38720 45940
L38810 45580
L38910 45940
L39030 45440
" />
<path d="M39430 45940
L39430 45680
L39410 45630
L39360 45610
L39260 45610
L39220 45630
" />
<path d="M39430 45920
L39380 45940
L39260 45940
L39220 45920
L39190 45870
L39190 45820
L39220 45770
L39260 45750
L39380 45750
L39430 45730
" />
<path d="M39670 45940
L39670 45610
" />
<path d="M39670 45440
L39640 45470
L39670 45490
L39690 45470
L39670 45440
L39670 45490
" />
<path d="M39830 45610
L40030 45610
" />
<path d="M39910 45440
L39910 45870
L39930 45920
L39980 45940
L40030 45940
" />
<path d="M40190 45940
L40190 45610
" />
<path d="M40190 45700
L40220 45660
L40240 45630
L40290 45610
L40330 45610
" />
<path d="M40570 45940
L40530 45920
L40500 45890
L40480 45850
L40480 45700
L40500 45660
L40530 45630
L40570 45610
L40640 45610
L40690 45630
L40720 45660
L40740 45700
L40740 45850
L40720 45890
L40690 45920
L40640 45940
L40570 45940
" />
<path d="M40950 45610
L40950 45940
" />
<path d="M40950 45660
L40980 45630
L41030 45610
L41100 45610
L41140 45630
L41170 45680
L41170 45940
" />
<path d="M41360 45610
L41480 45940
" />
<path d="M41600 45610
L41480 45940
L41430 46060
L41410 46080
L41360 46110
" />
<path d="M42170 45940
L42170 45440
" />
<path d="M42450 45940
L42240 45660
" />
<path d="M42450 45440
L42170 45730
" />
<path d="M42670 45680
L42830 45680
" />
<path d="M42910 45940
L42670 45940
L42670 45440
L42910 45440
" />
<path d="M43120 45750
L43500 45750
" />
<path d="M44000 45940
L43720 45940
" />
<path d="M43860 45940
L43860 45440
L43810 45510
L43760 45560
L43720 45580
" />
<path d="M44310 45440
L44360 45440
L44410 45470
L44430 45490
L44450 45540
L44480 45630
L44480 45750
L44450 45850
L44430 45890
L44410 45920
L44360 45940
L44310 45940
L44260 45920
L44240 45890
L44220 45850
L44190 45750
L44190 45630
L44220 45540
L44240 45490
L44260 45470
L44310 45440
" />
<path d="M44640 45440
L44980 45440
L44760 45940
" />
<path d="M45140 45490
L45170 45470
L45220 45440
L45330 45440
L45380 45470
L45410 45490
L45430 45540
L45430 45580
L45410 45660
L45120 45940
L45430 45940
" />
<path d="M45740 45440
L45790 45440
L45830 45470
L45860 45490
L45880 45540
L45910 45630
L45910 45750
L45880 45850
L45860 45890
L45830 45920
L45790 45940
L45740 45940
L45690 45920
L45670 45890
L45640 45850
L45620 45750
L45620 45630
L45640 45540
L45670 45490
L45690 45470
L45740 45440
" />
<path d="M46480 45920
L46530 45940
L46620 45940
L46670 45920
L46690 45870
L46690 45850
L46670 45800
L46620 45770
L46550 45770
L46500 45750
L46480 45700
L46480 45680
L46500 45630
L46550 45610
L46620 45610
L46670 45630
" />
<path d="M46910 45610
L46910 46110
" />
<path d="M46910 45630
L46950 45610
L47050 45610
L47100 45630
L47120 45660
L47140 45700
L47140 45850
L47120 45890
L47100 45920
L47050 45940
L46950 45940
L46910 45920
" />
<path d="M47550 45920
L47500 45940
L47410 45940
L47360 45920
L47330 45870
L47330 45680
L47360 45630
L47410 45610
L47500 45610
L47550 45630
L47570 45680
L47570 45730
L47330 45770
" />
<path d="M48000 45920
L47950 45940
L47860 45940
L47810 45920
L47790 45890
L47760 45850
L47760 45700
L47790 45660
L47810 45630
L47860 45610
L47950 45610
L48000 45630
" />
<path d="M48190 45920
L48240 45940
L48330 45940
L48380 45920
L48410 45870
L48410 45850
L48380 45800
L48330 45770
L48260 45770
L48220 45750
L48190 45700
L48190 45680
L48220 45630
L48260 45610
L48330 45610
L48380 45630
" />
<path d="M48620 45890
L48640 45920
L48620 45940
L48600 45920
L48620 45890
L48620 45940
" />
<path d="M48620 45630
L48640 45660
L48620 45680
L48600 45660
L48620 45630
L48620 45680
" />
<path d="M38640 46560
L39030 46560
" />
<path d="M39930 46750
L39760 46510
" />
<path d="M39640 46750
L39640 46250
L39830 46250
L39880 46280
L39910 46300
L39930 46350
L39930 46420
L39910 46470
L39880 46490
L39830 46510
L39640 46510
" />
<path d="M40290 46940
L40260 46920
L40220 46850
L40190 46800
L40170 46730
L40140 46610
L40140 46510
L40170 46390
L40190 46320
L40220 46280
L40260 46200
L40290 46180
" />
<path d="M40570 46250
L40670 46250
L40720 46280
L40760 46320
L40790 46420
L40790 46580
L40760 46680
L40720 46730
L40670 46750
L40570 46750
L40530 46730
L40480 46680
L40450 46580
L40450 46420
L40480 46320
L40530 46280
L40570 46250
" />
<path d="M41000 46420
L41000 46750
" />
<path d="M41000 46470
L41030 46440
L41070 46420
L41140 46420
L41190 46440
L41220 46490
L41220 46750
" />
<path d="M41410 46940
L41430 46920
L41480 46850
L41500 46800
L41530 46730
L41550 46610
L41550 46510
L41530 46390
L41500 46320
L41480 46280
L41430 46200
L41410 46180
" />
<path d="M41790 46700
L41810 46730
L41790 46750
L41760 46730
L41790 46700
L41790 46750
" />
<path d="M41790 46440
L41810 46470
L41790 46490
L41760 46470
L41790 46440
L41790 46490
" />
<path d="M42410 46750
L42410 46420
" />
<path d="M42410 46470
L42430 46440
L42480 46420
L42550 46420
L42600 46440
L42620 46490
L42620 46750
" />
<path d="M42620 46490
L42640 46440
L42690 46420
L42760 46420
L42810 46440
L42830 46490
L42830 46750
" />
<path d="M43070 46750
L43070 46420
" />
<path d="M43070 46250
L43050 46280
L43070 46300
L43100 46280
L43070 46250
L43070 46300
" />
<path d="M43310 46420
L43310 46750
" />
<path d="M43310 46470
L43330 46440
L43380 46420
L43450 46420
L43500 46440
L43530 46490
L43530 46750
" />
<path d="M44410 46750
L44120 46750
" />
<path d="M44260 46750
L44260 46250
L44220 46320
L44170 46370
L44120 46390
" />
<path d="M44720 46250
L44760 46250
L44810 46280
L44830 46300
L44860 46350
L44880 46440
L44880 46560
L44860 46660
L44830 46700
L44810 46730
L44760 46750
L44720 46750
L44670 46730
L44640 46700
L44620 46660
L44600 46560
L44600 46440
L44620 46350
L44640 46300
L44670 46280
L44720 46250
" />
<path d="M45100 46750
L45100 46250
" />
<path d="M45140 46560
L45290 46750
" />
<path d="M45290 46420
L45100 46610
" />
<path d="M45530 46730
L45530 46750
L45500 46800
L45480 46820
" />
<path d="M46120 46750
L46120 46420
" />
<path d="M46120 46470
L46140 46440
L46190 46420
L46260 46420
L46310 46440
L46330 46490
L46330 46750
" />
<path d="M46330 46490
L46360 46440
L46410 46420
L46480 46420
L46530 46440
L46550 46490
L46550 46750
" />
<path d="M47000 46750
L47000 46490
L46980 46440
L46930 46420
L46830 46420
L46790 46440
" />
<path d="M47000 46730
L46950 46750
L46830 46750
L46790 46730
L46760 46680
L46760 46630
L46790 46580
L46830 46560
L46950 46560
L47000 46540
" />
<path d="M47190 46750
L47450 46420
" />
<path d="M47190 46420
L47450 46750
" />
<path d="M48000 46300
L48030 46280
L48070 46250
L48190 46250
L48240 46280
L48260 46300
L48290 46350
L48290 46390
L48260 46470
L47980 46750
L48290 46750
" />
<path d="M48600 46250
L48640 46250
L48690 46280
L48720 46300
L48740 46350
L48760 46440
L48760 46560
L48740 46660
L48720 46700
L48690 46730
L48640 46750
L48600 46750
L48550 46730
L48530 46700
L48500 46660
L48480 46560
L48480 46440
L48500 46350
L48530 46300
L48550 46280
L48600 46250
" />
<path d="M48980 46750
L48980 46250
" />
<path d="M49030 46560
L49170 46750
" />
<path d="M49170 46420
L48980 46610
" />
<path d="M49910 46940
L49880 46920
L49830 46850
L49810 46800
L49790 46730
L49760 46610
L49760 46510
L49790 46390
L49810 46320
L49830 46280
L49880 46200
L49910 46180
" />
<path d="M50360 46750
L50070 46750
" />
<path d="M50220 46750
L50220 46250
L50170 46320
L50120 46370
L50070 46390
" />
<path d="M50670 46250
L50720 46250
L50760 46280
L50790 46300
L50810 46350
L50830 46440
L50830 46560
L50810 46660
L50790 46700
L50760 46730
L50720 46750
L50670 46750
L50620 46730
L50600 46700
L50570 46660
L50550 46560
L50550 46440
L50570 46350
L50600 46300
L50620 46280
L50670 46250
" />
<path d="M51670 46750
L51430 46750
L51430 46250
" />
<path d="M52050 46420
L52050 46750
" />
<path d="M51830 46420
L51830 46680
L51860 46730
L51910 46750
L51980 46750
L52030 46730
L52050 46700
" />
<path d="M52240 46750
L52500 46420
" />
<path d="M52240 46420
L52500 46750
" />
<path d="M52720 46730
L52720 46750
L52690 46800
L52670 46820
" />
<path d="M53290 46300
L53310 46280
L53360 46250
L53480 46250
L53520 46280
L53550 46300
L53570 46350
L53570 46390
L53550 46470
L53260 46750
L53570 46750
" />
<path d="M53860 46470
L53810 46440
L53790 46420
L53760 46370
L53760 46350
L53790 46300
L53810 46280
L53860 46250
L53950 46250
L54000 46280
L54030 46300
L54050 46350
L54050 46370
L54030 46420
L54000 46440
L53950 46470
L53860 46470
L53810 46490
L53790 46510
L53760 46560
L53760 46660
L53790 46700
L53810 46730
L53860 46750
L53950 46750
L54000 46730
L54030 46700
L54050 46660
L54050 46560
L54030 46510
L54000 46490
L53950 46470
" />
<path d="M54500 46250
L54260 46250
L54240 46490
L54260 46470
L54310 46440
L54430 46440
L54480 46470
L54500 46490
L54530 46540
L54530 46660
L54500 46700
L54480 46730
L54430 46750
L54310 46750
L54260 46730
L54240 46700
" />
<path d="M54950 46250
L54860 46250
L54810 46280
L54790 46300
L54740 46370
L54720 46470
L54720 46660
L54740 46700
L54760 46730
L54810 46750
L54910 46750
L54950 46730
L54980 46700
L55000 46660
L55000 46540
L54980 46490
L54950 46470
L54910 46440
L54810 46440
L54760 46470
L54740 46490
L54720 46540
" />
<path d="M55220 46750
L55220 46250
" />
<path d="M55500 46750
L55290 46470
" />
<path d="M55500 46250
L55220 46540
" />
<path d="M56170 46750
L56120 46730
L56100 46680
L56100 46250
" />
<path d="M56360 46750
L56360 46420
" />
<path d="M56360 46250
L56330 46280
L56360 46300
L56380 46280
L56360 46250
L56360 46300
" />
<path d="M56810 46420
L56810 46820
L56790 46870
L56760 46890
L56720 46920
L56640 46920
L56600 46890
" />
<path d="M56810 46730
L56760 46750
L56670 46750
L56620 46730
L56600 46700
L56570 46660
L56570 46510
L56600 46470
L56620 46440
L56670 46420
L56760 46420
L56810 46440
" />
<path d="M57050 46750
L57050 46250
" />
<path d="M57260 46750
L57260 46490
L57240 46440
L57190 46420
L57120 46420
L57070 46440
L57050 46470
" />
<path d="M57430 46420
L57620 46420
" />
<path d="M57500 46250
L57500 46680
L57530 46730
L57570 46750
L57620 46750
" />
<path d="M58140 46730
L58190 46750
L58290 46750
L58330 46730
L58360 46680
L58360 46660
L58330 46610
L58290 46580
L58220 46580
L58170 46560
L58140 46510
L58140 46490
L58170 46440
L58220 46420
L58290 46420
L58330 46440
" />
<path d="M58640 46750
L58600 46730
L58570 46700
L58550 46660
L58550 46510
L58570 46470
L58600 46440
L58640 46420
L58720 46420
L58760 46440
L58790 46470
L58810 46510
L58810 46660
L58790 46700
L58760 46730
L58720 46750
L58640 46750
" />
<path d="M59240 46420
L59240 46750
" />
<path d="M59030 46420
L59030 46680
L59050 46730
L59100 46750
L59170 46750
L59220 46730
L59240 46700
" />
<path d="M59480 46750
L59480 46420
" />
<path d="M59480 46510
L59500 46470
L59530 46440
L59570 46420
L59620 46420
" />
<path d="M60000 46730
L59950 46750
L59860 46750
L59810 46730
L59790 46700
L59760 46660
L59760 46510
L59790 46470
L59810 46440
L59860 46420
L59950 46420
L60000 46440
" />
<path d="M60410 46730
L60360 46750
L60260 46750
L60220 46730
L60190 46680
L60190 46490
L60220 46440
L60260 46420
L60360 46420
L60410 46440
L60430 46490
L60430 46540
L60190 46580
" />
<path d="M60600 46940
L60620 46920
L60670 46850
L60690 46800
L60720 46730
L60740 46610
L60740 46510
L60720 46390
L60690 46320
L60670 46280
L60620 46200
L60600 46180
" />
<path d="M38640 47370
L39030 47370
" />
<path d="M39930 47560
L39760 47320
" />
<path d="M39640 47560
L39640 47060
L39830 47060
L39880 47090
L39910 47110
L39930 47160
L39930 47230
L39910 47280
L39880 47300
L39830 47320
L39640 47320
" />
<path d="M40290 47750
L40260 47730
L40220 47660
L40190 47610
L40170 47540
L40140 47420
L40140 47320
L40170 47200
L40190 47130
L40220 47090
L40260 47010
L40290 46990
" />
<path d="M40570 47060
L40670 47060
L40720 47090
L40760 47130
L40790 47230
L40790 47390
L40760 47490
L40720 47540
L40670 47560
L40570 47560
L40530 47540
L40480 47490
L40450 47390
L40450 47230
L40480 47130
L40530 47090
L40570 47060
" />
<path d="M40930 47230
L41120 47230
" />
<path d="M41000 47560
L41000 47130
L41030 47090
L41070 47060
L41120 47060
" />
<path d="M41220 47230
L41410 47230
" />
<path d="M41290 47560
L41290 47130
L41310 47090
L41360 47060
L41410 47060
" />
<path d="M41530 47750
L41550 47730
L41600 47660
L41620 47610
L41640 47540
L41670 47420
L41670 47320
L41640 47200
L41620 47130
L41600 47090
L41550 47010
L41530 46990
" />
<path d="M41910 47510
L41930 47540
L41910 47560
L41880 47540
L41910 47510
L41910 47560
" />
<path d="M41910 47250
L41930 47280
L41910 47300
L41880 47280
L41910 47250
L41910 47300
" />
<path d="M42530 47560
L42530 47230
" />
<path d="M42530 47280
L42550 47250
L42600 47230
L42670 47230
L42720 47250
L42740 47300
L42740 47560
" />
<path d="M42740 47300
L42760 47250
L42810 47230
L42880 47230
L42930 47250
L42950 47300
L42950 47560
" />
<path d="M43190 47560
L43190 47230
" />
<path d="M43190 47060
L43170 47090
L43190 47110
L43220 47090
L43190 47060
L43190 47110
" />
<path d="M43430 47230
L43430 47560
" />
<path d="M43430 47280
L43450 47250
L43500 47230
L43570 47230
L43620 47250
L43640 47300
L43640 47560
" />
<path d="M44500 47060
L44260 47060
L44240 47300
L44260 47280
L44310 47250
L44430 47250
L44480 47280
L44500 47300
L44530 47350
L44530 47470
L44500 47510
L44480 47540
L44430 47560
L44310 47560
L44260 47540
L44240 47510
" />
<path d="M44830 47060
L44880 47060
L44930 47090
L44950 47110
L44980 47160
L45000 47250
L45000 47370
L44980 47470
L44950 47510
L44930 47540
L44880 47560
L44830 47560
L44790 47540
L44760 47510
L44740 47470
L44720 47370
L44720 47250
L44740 47160
L44760 47110
L44790 47090
L44830 47060
" />
<path d="M45310 47060
L45360 47060
L45410 47090
L45430 47110
L45450 47160
L45480 47250
L45480 47370
L45450 47470
L45430 47510
L45410 47540
L45360 47560
L45310 47560
L45260 47540
L45240 47510
L45220 47470
L45190 47370
L45190 47250
L45220 47160
L45240 47110
L45260 47090
L45310 47060
" />
<path d="M45690 47560
L45690 47060
" />
<path d="M45740 47370
L45880 47560
" />
<path d="M45880 47230
L45690 47420
" />
<path d="M38640 48180
L39030 48180
" />
<path d="M39640 48370
L39640 47870
L39830 47870
L39880 47900
L39910 47920
L39930 47970
L39930 48040
L39910 48090
L39880 48110
L39830 48130
L39640 48130
" />
<path d="M40330 48350
L40290 48370
L40190 48370
L40140 48350
L40120 48300
L40120 48110
L40140 48060
L40190 48040
L40290 48040
L40330 48060
L40360 48110
L40360 48160
L40120 48200
" />
<path d="M40790 48370
L40790 48110
L40760 48060
L40720 48040
L40620 48040
L40570 48060
" />
<path d="M40790 48350
L40740 48370
L40620 48370
L40570 48350
L40550 48300
L40550 48250
L40570 48200
L40620 48180
L40740 48180
L40790 48160
" />
<path d="M41030 48370
L41030 47870
" />
<path d="M41070 48180
L41220 48370
" />
<path d="M41220 48040
L41030 48230
" />
<path d="M41790 48350
L41830 48370
L41930 48370
L41980 48350
L42000 48300
L42000 48280
L41980 48230
L41930 48200
L41860 48200
L41810 48180
L41790 48130
L41790 48110
L41810 48060
L41860 48040
L41930 48040
L41980 48060
" />
<path d="M42220 48040
L42220 48540
" />
<path d="M42220 48060
L42260 48040
L42360 48040
L42410 48060
L42430 48090
L42450 48130
L42450 48280
L42430 48320
L42410 48350
L42360 48370
L42260 48370
L42220 48350
" />
<path d="M42860 48350
L42810 48370
L42720 48370
L42670 48350
L42640 48300
L42640 48110
L42670 48060
L42720 48040
L42810 48040
L42860 48060
L42880 48110
L42880 48160
L42640 48200
" />
<path d="M43310 48350
L43260 48370
L43170 48370
L43120 48350
L43100 48320
L43070 48280
L43070 48130
L43100 48090
L43120 48060
L43170 48040
L43260 48040
L43310 48060
" />
<path d="M43450 48040
L43640 48040
" />
<path d="M43530 47870
L43530 48300
L43550 48350
L43600 48370
L43640 48370
" />
<path d="M43810 48370
L43810 48040
" />
<path d="M43810 48130
L43830 48090
L43860 48060
L43910 48040
L43950 48040
" />
<path d="M44330 48370
L44330 48110
L44310 48060
L44260 48040
L44170 48040
L44120 48060
" />
<path d="M44330 48350
L44290 48370
L44170 48370
L44120 48350
L44100 48300
L44100 48250
L44120 48200
L44170 48180
L44290 48180
L44330 48160
" />
<path d="M44640 48370
L44600 48350
L44570 48300
L44570 47870
" />
<path d="M45220 48370
L45220 48040
" />
<path d="M45220 48130
L45240 48090
L45260 48060
L45310 48040
L45360 48040
" />
<path d="M45720 48350
L45670 48370
L45570 48370
L45530 48350
L45500 48300
L45500 48110
L45530 48060
L45570 48040
L45670 48040
L45720 48060
L45740 48110
L45740 48160
L45500 48200
" />
<path d="M45930 48350
L45980 48370
L46070 48370
L46120 48350
L46140 48300
L46140 48280
L46120 48230
L46070 48200
L46000 48200
L45950 48180
L45930 48130
L45930 48110
L45950 48060
L46000 48040
L46070 48040
L46120 48060
" />
<path d="M46360 48040
L46360 48540
" />
<path d="M46360 48060
L46410 48040
L46500 48040
L46550 48060
L46570 48090
L46600 48130
L46600 48280
L46570 48320
L46550 48350
L46500 48370
L46410 48370
L46360 48350
" />
<path d="M46880 48370
L46830 48350
L46810 48320
L46790 48280
L46790 48130
L46810 48090
L46830 48060
L46880 48040
L46950 48040
L47000 48060
L47030 48090
L47050 48130
L47050 48280
L47030 48320
L47000 48350
L46950 48370
L46880 48370
" />
<path d="M47260 48040
L47260 48370
" />
<path d="M47260 48090
L47290 48060
L47330 48040
L47410 48040
L47450 48060
L47480 48110
L47480 48370
" />
<path d="M47690 48350
L47740 48370
L47830 48370
L47880 48350
L47910 48300
L47910 48280
L47880 48230
L47830 48200
L47760 48200
L47720 48180
L47690 48130
L47690 48110
L47720 48060
L47760 48040
L47830 48040
L47880 48060
" />
<path d="M48310 48350
L48260 48370
L48170 48370
L48120 48350
L48100 48300
L48100 48110
L48120 48060
L48170 48040
L48260 48040
L48310 48060
L48330 48110
L48330 48160
L48100 48200
" />
<path d="M48550 48320
L48570 48350
L48550 48370
L48530 48350
L48550 48320
L48550 48370
" />
<path d="M48550 48060
L48570 48090
L48550 48110
L48530 48090
L48550 48060
L48550 48110
" />
<path d="M49170 48370
L49170 48040
" />
<path d="M49170 48090
L49190 48060
L49240 48040
L49310 48040
L49360 48060
L49380 48110
L49380 48370
" />
<path d="M49380 48110
L49410 48060
L49450 48040
L49530 48040
L49570 48060
L49600 48110
L49600 48370
" />
<path d="M49830 48370
L49830 48040
" />
<path d="M49830 47870
L49810 47900
L49830 47920
L49860 47900
L49830 47870
L49830 47920
" />
<path d="M50070 48040
L50070 48370
" />
<path d="M50070 48090
L50100 48060
L50140 48040
L50220 48040
L50260 48060
L50290 48110
L50290 48370
" />
<path d="M51140 47870
L50910 47870
L50880 48110
L50910 48090
L50950 48060
L51070 48060
L51120 48090
L51140 48110
L51170 48160
L51170 48280
L51140 48320
L51120 48350
L51070 48370
L50950 48370
L50910 48350
L50880 48320
" />
<path d="M51620 47870
L51380 47870
L51360 48110
L51380 48090
L51430 48060
L51550 48060
L51600 48090
L51620 48110
L51640 48160
L51640 48280
L51620 48320
L51600 48350
L51550 48370
L51430 48370
L51380 48350
L51360 48320
" />
<path d="M51950 47870
L52000 47870
L52050 47900
L52070 47920
L52100 47970
L52120 48060
L52120 48180
L52100 48280
L52070 48320
L52050 48350
L52000 48370
L51950 48370
L51910 48350
L51880 48320
L51860 48280
L51830 48180
L51830 48060
L51860 47970
L51880 47920
L51910 47900
L51950 47870
" />
<path d="M52720 48040
L52720 48370
" />
<path d="M52720 48090
L52740 48060
L52790 48040
L52860 48040
L52910 48060
L52930 48110
L52930 48370
" />
<path d="M53170 48370
L53170 48040
" />
<path d="M53170 48090
L53190 48060
L53240 48040
L53310 48040
L53360 48060
L53380 48110
L53380 48370
" />
<path d="M53380 48110
L53410 48060
L53450 48040
L53530 48040
L53570 48060
L53600 48110
L53600 48370
" />
<path d="M53860 48350
L53860 48370
L53830 48420
L53810 48440
" />
<path d="M54450 48370
L54450 48040
" />
<path d="M54450 48090
L54480 48060
L54530 48040
L54600 48040
L54640 48060
L54670 48110
L54670 48370
" />
<path d="M54670 48110
L54690 48060
L54740 48040
L54810 48040
L54860 48060
L54880 48110
L54880 48370
" />
<path d="M55330 48370
L55330 48110
L55310 48060
L55260 48040
L55170 48040
L55120 48060
" />
<path d="M55330 48350
L55290 48370
L55170 48370
L55120 48350
L55100 48300
L55100 48250
L55120 48200
L55170 48180
L55290 48180
L55330 48160
" />
<path d="M55530 48370
L55790 48040
" />
<path d="M55530 48040
L55790 48370
" />
<path d="M56570 47870
L56480 47870
L56430 47900
L56410 47920
L56360 47990
L56330 48090
L56330 48280
L56360 48320
L56380 48350
L56430 48370
L56530 48370
L56570 48350
L56600 48320
L56620 48280
L56620 48160
L56600 48110
L56570 48090
L56530 48060
L56430 48060
L56380 48090
L56360 48110
L56330 48160
" />
<path d="M57070 47870
L56830 47870
L56810 48110
L56830 48090
L56880 48060
L57000 48060
L57050 48090
L57070 48110
L57100 48160
L57100 48280
L57070 48320
L57050 48350
L57000 48370
L56880 48370
L56830 48350
L56810 48320
" />
<path d="M57410 47870
L57450 47870
L57500 47900
L57530 47920
L57550 47970
L57570 48060
L57570 48180
L57550 48280
L57530 48320
L57500 48350
L57450 48370
L57410 48370
L57360 48350
L57330 48320
L57310 48280
L57290 48180
L57290 48060
L57310 47970
L57330 47920
L57360 47900
L57410 47870
" />
<path d="M58170 48040
L58170 48370
" />
<path d="M58170 48090
L58190 48060
L58240 48040
L58310 48040
L58360 48060
L58380 48110
L58380 48370
" />
<path d="M58620 48370
L58620 48040
" />
<path d="M58620 48090
L58640 48060
L58690 48040
L58760 48040
L58810 48060
L58830 48110
L58830 48370
" />
<path d="M58830 48110
L58860 48060
L58910 48040
L58980 48040
L59030 48060
L59050 48110
L59050 48370
" />
</g> 
</svg>
