<?xml version="1.0" standalone="no"?>
 <!DOCTYPE svg PUBLIC "-//W3C//DTD SVG 1.1//EN" 
 "http://www.w3.org/Graphics/SVG/1.1/DTD/svg11.dtd"> 
<svg xmlns="http://www.w3.org/2000/svg" version="1.1" 
    width="29.7002cm" height="21.0007cm" viewBox="0 0 116930 82680 ">
<title>SVG Picture created as #510-000-S2A - Audio Jack PCB [Output, Pads R].svg date 2020/01/07 18:36:05 </title>
  <desc>Picture generated by Eeschema-SVG </desc>
<g style="fill:#000000; fill-opacity:1;stroke:#000000; stroke-opacity:1;
stroke-linecap:round; stroke-linejoin:round; "
 transform="translate(0 0) scale(1 1)">
</g>
<g style="fill:#000000; fill-opacity:0.0; 
stroke:#000000; stroke-width:0; stroke-opacity:1; 
stroke-linecap:round; stroke-linejoin:round;">
<g >
</g>
<g style="fill:#840000; fill-opacity:0.0; 
stroke:#840000; stroke-width:0; stroke-opacity:1; 
stroke-linecap:round; stroke-linejoin:round;">
</g>
<g style="fill:#FFFFC2; fill-opacity:0.0; 
stroke:#FFFFC2; stroke-width:0; stroke-opacity:1; 
stroke-linecap:round; stroke-linejoin:round;">
</g>
<g style="fill:#FFFFC2; fill-opacity:0.6; 
stroke:#FFFFC2; stroke-width:0; stroke-opacity:1; 
stroke-linecap:round; stroke-linejoin:round;">
<circle cx="69000" cy="31000" r="500" /> 
</g>
<g style="fill:#840000; fill-opacity:0.6; 
stroke:#840000; stroke-width:0; stroke-opacity:1; 
stroke-linecap:round; stroke-linejoin:round;">
</g>
<g style="fill:#840000; fill-opacity:0.0; 
stroke:#840000; stroke-width:60; stroke-opacity:1; 
stroke-linecap:round; stroke-linejoin:round;">
<circle cx="69000" cy="31000" r="500" /> 
</g>
<g style="fill:#008484; fill-opacity:0.0; 
stroke:#008484; stroke-width:60; stroke-opacity:1; 
stroke-linecap:round; stroke-linejoin:round;">
<path d="M69920 30780
L69920 30280
" />
<path d="M69920 30520
L70210 30520
" />
<path d="M70210 30780
L70210 30280
" />
<path d="M70710 30780
L70420 30780
" />
<path d="M70570 30780
L70570 30280
L70520 30350
L70470 30400
L70420 30420
" />
<path d="M69920 31690
L69920 31190
L70210 31690
L70210 31190
" />
<path d="M70440 31690
L70440 31190
L70630 31190
L70680 31220
L70710 31240
L70730 31290
L70730 31360
L70710 31410
L70680 31430
L70630 31450
L70440 31450
" />
<path d="M70870 31190
L71160 31190
" />
<path d="M71020 31690
L71020 31190
" />
<path d="M71320 31690
L71320 31190
" />
<path d="M71320 31430
L71610 31430
" />
<path d="M71610 31690
L71610 31190
" />
</g>
</g>
<g style="fill:#008484; fill-opacity:0.0; 
stroke:#008484; stroke-width:0; stroke-opacity:1; 
stroke-linecap:round; stroke-linejoin:round;">
<g >
</g>
<g style="fill:#840000; fill-opacity:0.0; 
stroke:#840000; stroke-width:0; stroke-opacity:1; 
stroke-linecap:round; stroke-linejoin:round;">
</g>
<g style="fill:#FFFFC2; fill-opacity:0.0; 
stroke:#FFFFC2; stroke-width:0; stroke-opacity:1; 
stroke-linecap:round; stroke-linejoin:round;">
</g>
<g style="fill:#FFFFC2; fill-opacity:0.6; 
stroke:#FFFFC2; stroke-width:0; stroke-opacity:1; 
stroke-linecap:round; stroke-linejoin:round;">
<circle cx="69000" cy="33000" r="500" /> 
</g>
<g style="fill:#840000; fill-opacity:0.6; 
stroke:#840000; stroke-width:0; stroke-opacity:1; 
stroke-linecap:round; stroke-linejoin:round;">
</g>
<g style="fill:#840000; fill-opacity:0.0; 
stroke:#840000; stroke-width:60; stroke-opacity:1; 
stroke-linecap:round; stroke-linejoin:round;">
<circle cx="69000" cy="33000" r="500" /> 
</g>
<g style="fill:#008484; fill-opacity:0.0; 
stroke:#008484; stroke-width:60; stroke-opacity:1; 
stroke-linecap:round; stroke-linejoin:round;">
<path d="M69920 32780
L69920 32280
" />
<path d="M69920 32520
L70210 32520
" />
<path d="M70210 32780
L70210 32280
" />
<path d="M70420 32330
L70450 32310
L70500 32280
L70610 32280
L70660 32310
L70690 32330
L70710 32380
L70710 32420
L70690 32500
L70400 32780
L70710 32780
" />
<path d="M69920 33690
L69920 33190
L70210 33690
L70210 33190
" />
<path d="M70440 33690
L70440 33190
L70630 33190
L70680 33220
L70710 33240
L70730 33290
L70730 33360
L70710 33410
L70680 33430
L70630 33450
L70440 33450
" />
<path d="M70870 33190
L71160 33190
" />
<path d="M71020 33690
L71020 33190
" />
<path d="M71320 33690
L71320 33190
" />
<path d="M71320 33430
L71610 33430
" />
<path d="M71610 33690
L71610 33190
" />
</g>
</g>
<g style="fill:#008484; fill-opacity:0.0; 
stroke:#008484; stroke-width:0; stroke-opacity:1; 
stroke-linecap:round; stroke-linejoin:round;">
<g >
</g>
<g style="fill:#840000; fill-opacity:0.0; 
stroke:#840000; stroke-width:0; stroke-opacity:1; 
stroke-linecap:round; stroke-linejoin:round;">
</g>
<g style="fill:#FFFFC2; fill-opacity:0.0; 
stroke:#FFFFC2; stroke-width:0; stroke-opacity:1; 
stroke-linecap:round; stroke-linejoin:round;">
</g>
<g style="fill:#FFFFC2; fill-opacity:0.6; 
stroke:#FFFFC2; stroke-width:0; stroke-opacity:1; 
stroke-linecap:round; stroke-linejoin:round;">
<circle cx="69000" cy="35000" r="500" /> 
</g>
<g style="fill:#840000; fill-opacity:0.6; 
stroke:#840000; stroke-width:0; stroke-opacity:1; 
stroke-linecap:round; stroke-linejoin:round;">
</g>
<g style="fill:#840000; fill-opacity:0.0; 
stroke:#840000; stroke-width:60; stroke-opacity:1; 
stroke-linecap:round; stroke-linejoin:round;">
<circle cx="69000" cy="35000" r="500" /> 
</g>
<g style="fill:#008484; fill-opacity:0.0; 
stroke:#008484; stroke-width:60; stroke-opacity:1; 
stroke-linecap:round; stroke-linejoin:round;">
<path d="M69920 34780
L69920 34280
" />
<path d="M69920 34520
L70210 34520
" />
<path d="M70210 34780
L70210 34280
" />
<path d="M70400 34280
L70710 34280
L70540 34470
L70610 34470
L70660 34500
L70690 34520
L70710 34570
L70710 34690
L70690 34730
L70660 34760
L70610 34780
L70470 34780
L70420 34760
L70400 34730
" />
<path d="M69920 35690
L69920 35190
L70210 35690
L70210 35190
" />
<path d="M70440 35690
L70440 35190
L70630 35190
L70680 35220
L70710 35240
L70730 35290
L70730 35360
L70710 35410
L70680 35430
L70630 35450
L70440 35450
" />
<path d="M70870 35190
L71160 35190
" />
<path d="M71020 35690
L71020 35190
" />
<path d="M71320 35690
L71320 35190
" />
<path d="M71320 35430
L71610 35430
" />
<path d="M71610 35690
L71610 35190
" />
</g>
</g>
<g style="fill:#008484; fill-opacity:0.0; 
stroke:#008484; stroke-width:0; stroke-opacity:1; 
stroke-linecap:round; stroke-linejoin:round;">
<g >
</g>
<g style="fill:#840000; fill-opacity:0.0; 
stroke:#840000; stroke-width:0; stroke-opacity:1; 
stroke-linecap:round; stroke-linejoin:round;">
</g>
<g style="fill:#FFFFC2; fill-opacity:0.0; 
stroke:#FFFFC2; stroke-width:0; stroke-opacity:1; 
stroke-linecap:round; stroke-linejoin:round;">
</g>
<g style="fill:#FFFFC2; fill-opacity:0.6; 
stroke:#FFFFC2; stroke-width:0; stroke-opacity:1; 
stroke-linecap:round; stroke-linejoin:round;">
<circle cx="69000" cy="37000" r="500" /> 
</g>
<g style="fill:#840000; fill-opacity:0.6; 
stroke:#840000; stroke-width:0; stroke-opacity:1; 
stroke-linecap:round; stroke-linejoin:round;">
</g>
<g style="fill:#840000; fill-opacity:0.0; 
stroke:#840000; stroke-width:60; stroke-opacity:1; 
stroke-linecap:round; stroke-linejoin:round;">
<circle cx="69000" cy="37000" r="500" /> 
</g>
<g style="fill:#008484; fill-opacity:0.0; 
stroke:#008484; stroke-width:60; stroke-opacity:1; 
stroke-linecap:round; stroke-linejoin:round;">
<path d="M69920 36780
L69920 36280
" />
<path d="M69920 36520
L70210 36520
" />
<path d="M70210 36780
L70210 36280
" />
<path d="M70660 36450
L70660 36780
" />
<path d="M70540 36260
L70420 36610
L70730 36610
" />
<path d="M69920 37690
L69920 37190
L70210 37690
L70210 37190
" />
<path d="M70440 37690
L70440 37190
L70630 37190
L70680 37220
L70710 37240
L70730 37290
L70730 37360
L70710 37410
L70680 37430
L70630 37450
L70440 37450
" />
<path d="M70870 37190
L71160 37190
" />
<path d="M71020 37690
L71020 37190
" />
<path d="M71320 37690
L71320 37190
" />
<path d="M71320 37430
L71610 37430
" />
<path d="M71610 37690
L71610 37190
" />
</g>
</g>
<g style="fill:#008484; fill-opacity:0.0; 
stroke:#008484; stroke-width:0; stroke-opacity:1; 
stroke-linecap:round; stroke-linejoin:round;">
<g >
</g>
<g style="fill:#840000; fill-opacity:0.0; 
stroke:#840000; stroke-width:0; stroke-opacity:1; 
stroke-linecap:round; stroke-linejoin:round;">
</g>
<g style="fill:#FFFFC2; fill-opacity:0.0; 
stroke:#FFFFC2; stroke-width:0; stroke-opacity:1; 
stroke-linecap:round; stroke-linejoin:round;">
</g>
<g style="fill:#FFFFC2; fill-opacity:0.6; 
stroke:#FFFFC2; stroke-width:0; stroke-opacity:1; 
stroke-linecap:round; stroke-linejoin:round;">
<circle cx="69000" cy="39000" r="500" /> 
</g>
<g style="fill:#840000; fill-opacity:0.6; 
stroke:#840000; stroke-width:0; stroke-opacity:1; 
stroke-linecap:round; stroke-linejoin:round;">
</g>
<g style="fill:#840000; fill-opacity:0.0; 
stroke:#840000; stroke-width:60; stroke-opacity:1; 
stroke-linecap:round; stroke-linejoin:round;">
<circle cx="69000" cy="39000" r="500" /> 
</g>
<g style="fill:#008484; fill-opacity:0.0; 
stroke:#008484; stroke-width:60; stroke-opacity:1; 
stroke-linecap:round; stroke-linejoin:round;">
<path d="M69920 38780
L69920 38280
" />
<path d="M69920 38520
L70210 38520
" />
<path d="M70210 38780
L70210 38280
" />
<path d="M70690 38280
L70450 38280
L70420 38520
L70450 38500
L70500 38470
L70610 38470
L70660 38500
L70690 38520
L70710 38570
L70710 38690
L70690 38730
L70660 38760
L70610 38780
L70500 38780
L70450 38760
L70420 38730
" />
<path d="M69920 39690
L69920 39190
L70210 39690
L70210 39190
" />
<path d="M70440 39690
L70440 39190
L70630 39190
L70680 39220
L70710 39240
L70730 39290
L70730 39360
L70710 39410
L70680 39430
L70630 39450
L70440 39450
" />
<path d="M70870 39190
L71160 39190
" />
<path d="M71020 39690
L71020 39190
" />
<path d="M71320 39690
L71320 39190
" />
<path d="M71320 39430
L71610 39430
" />
<path d="M71610 39690
L71610 39190
" />
</g>
</g>
<g style="fill:#008484; fill-opacity:0.0; 
stroke:#008484; stroke-width:0; stroke-opacity:1; 
stroke-linecap:round; stroke-linejoin:round;">
<g >
</g>
<g style="fill:#840000; fill-opacity:0.0; 
stroke:#840000; stroke-width:0; stroke-opacity:1; 
stroke-linecap:round; stroke-linejoin:round;">
</g>
<g style="fill:#FFFFC2; fill-opacity:0.0; 
stroke:#FFFFC2; stroke-width:0; stroke-opacity:1; 
stroke-linecap:round; stroke-linejoin:round;">
</g>
<g style="fill:#FFFFC2; fill-opacity:0.6; 
stroke:#FFFFC2; stroke-width:0; stroke-opacity:1; 
stroke-linecap:round; stroke-linejoin:round;">
<circle cx="69000" cy="41000" r="500" /> 
</g>
<g style="fill:#840000; fill-opacity:0.6; 
stroke:#840000; stroke-width:0; stroke-opacity:1; 
stroke-linecap:round; stroke-linejoin:round;">
</g>
<g style="fill:#840000; fill-opacity:0.0; 
stroke:#840000; stroke-width:60; stroke-opacity:1; 
stroke-linecap:round; stroke-linejoin:round;">
<circle cx="69000" cy="41000" r="500" /> 
</g>
<g style="fill:#008484; fill-opacity:0.0; 
stroke:#008484; stroke-width:60; stroke-opacity:1; 
stroke-linecap:round; stroke-linejoin:round;">
<path d="M69920 40780
L69920 40280
" />
<path d="M69920 40520
L70210 40520
" />
<path d="M70210 40780
L70210 40280
" />
<path d="M70660 40280
L70570 40280
L70520 40310
L70500 40330
L70450 40400
L70420 40500
L70420 40690
L70450 40730
L70470 40760
L70520 40780
L70610 40780
L70660 40760
L70690 40730
L70710 40690
L70710 40570
L70690 40520
L70660 40500
L70610 40470
L70520 40470
L70470 40500
L70450 40520
L70420 40570
" />
<path d="M69920 41690
L69920 41190
L70210 41690
L70210 41190
" />
<path d="M70440 41690
L70440 41190
L70630 41190
L70680 41220
L70710 41240
L70730 41290
L70730 41360
L70710 41410
L70680 41430
L70630 41450
L70440 41450
" />
<path d="M70870 41190
L71160 41190
" />
<path d="M71020 41690
L71020 41190
" />
<path d="M71320 41690
L71320 41190
" />
<path d="M71320 41430
L71610 41430
" />
<path d="M71610 41690
L71610 41190
" />
</g>
</g>
<g style="fill:#008484; fill-opacity:0.0; 
stroke:#008484; stroke-width:0; stroke-opacity:1; 
stroke-linecap:round; stroke-linejoin:round;">
<g >
</g>
<g style="fill:#840000; fill-opacity:0.0; 
stroke:#840000; stroke-width:0; stroke-opacity:1; 
stroke-linecap:round; stroke-linejoin:round;">
</g>
<g style="fill:#FFFFC2; fill-opacity:0.0; 
stroke:#FFFFC2; stroke-width:0; stroke-opacity:1; 
stroke-linecap:round; stroke-linejoin:round;">
</g>
<g style="fill:#FFFFC2; fill-opacity:0.6; 
stroke:#FFFFC2; stroke-width:0; stroke-opacity:1; 
stroke-linecap:round; stroke-linejoin:round;">
<rect x="62500" y="34000" width="1000" height="1000" rx="0" />
</g>
<g style="fill:#840000; fill-opacity:0.6; 
stroke:#840000; stroke-width:0; stroke-opacity:1; 
stroke-linecap:round; stroke-linejoin:round;">
</g>
<g style="fill:#840000; fill-opacity:0.0; 
stroke:#840000; stroke-width:100; stroke-opacity:1; 
stroke-linecap:round; stroke-linejoin:round;">
<rect x="62500" y="34000" width="1000" height="1000" rx="0" />
</g>
<g style="fill:#840000; fill-opacity:0.0; 
stroke:#840000; stroke-width:60; stroke-opacity:1; 
stroke-linecap:round; stroke-linejoin:round;">
<rect x="62500" y="34450" width="500" height="100" rx="0" />
<path d="M62500 34500
L61000 34500
" />
<path d="M61890 34370
L61600 34370
" />
<path d="M61750 34370
L61750 33870
L61700 33940
L61650 33990
L61600 34010
" />
</g>
<g style="fill:#008484; fill-opacity:0.0; 
stroke:#008484; stroke-width:60; stroke-opacity:1; 
stroke-linecap:round; stroke-linejoin:round;">
<path d="M63940 34060
L64110 34060
" />
<path d="M64180 34320
L63940 34320
L63940 33820
L64180 33820
" />
<path d="M64340 33820
L64650 33820
L64490 34010
L64560 34010
L64610 34040
L64630 34060
L64650 34110
L64650 34230
L64630 34270
L64610 34300
L64560 34320
L64420 34320
L64370 34300
L64340 34270
" />
<path d="M63920 35210
L63990 35230
L64110 35230
L64160 35210
L64180 35180
L64210 35140
L64210 35090
L64180 35040
L64160 35020
L64110 34990
L64020 34970
L63970 34950
L63950 34920
L63920 34870
L63920 34830
L63950 34780
L63970 34760
L64020 34730
L64140 34730
L64210 34760
" />
</g>
</g>
<g style="fill:#008484; fill-opacity:0.0; 
stroke:#008484; stroke-width:0; stroke-opacity:1; 
stroke-linecap:round; stroke-linejoin:round;">
<g >
</g>
<g style="fill:#840000; fill-opacity:0.0; 
stroke:#840000; stroke-width:0; stroke-opacity:1; 
stroke-linecap:round; stroke-linejoin:round;">
</g>
<g style="fill:#FFFFC2; fill-opacity:0.0; 
stroke:#FFFFC2; stroke-width:0; stroke-opacity:1; 
stroke-linecap:round; stroke-linejoin:round;">
</g>
<g style="fill:#FFFFC2; fill-opacity:0.6; 
stroke:#FFFFC2; stroke-width:0; stroke-opacity:1; 
stroke-linecap:round; stroke-linejoin:round;">
<rect x="62500" y="36000" width="1000" height="1000" rx="0" />
</g>
<g style="fill:#840000; fill-opacity:0.6; 
stroke:#840000; stroke-width:0; stroke-opacity:1; 
stroke-linecap:round; stroke-linejoin:round;">
</g>
<g style="fill:#840000; fill-opacity:0.0; 
stroke:#840000; stroke-width:100; stroke-opacity:1; 
stroke-linecap:round; stroke-linejoin:round;">
<rect x="62500" y="36000" width="1000" height="1000" rx="0" />
</g>
<g style="fill:#840000; fill-opacity:0.0; 
stroke:#840000; stroke-width:60; stroke-opacity:1; 
stroke-linecap:round; stroke-linejoin:round;">
<rect x="62500" y="36450" width="500" height="100" rx="0" />
<path d="M62500 36500
L61000 36500
" />
<path d="M61890 36370
L61600 36370
" />
<path d="M61750 36370
L61750 35870
L61700 35940
L61650 35990
L61600 36010
" />
</g>
<g style="fill:#008484; fill-opacity:0.0; 
stroke:#008484; stroke-width:60; stroke-opacity:1; 
stroke-linecap:round; stroke-linejoin:round;">
<path d="M63940 36060
L64110 36060
" />
<path d="M64180 36320
L63940 36320
L63940 35820
L64180 35820
" />
<path d="M64370 35870
L64390 35850
L64440 35820
L64560 35820
L64610 35850
L64630 35870
L64650 35920
L64650 35960
L64630 36040
L64340 36320
L64650 36320
" />
<path d="M64230 37230
L64060 36990
" />
<path d="M63940 37230
L63940 36730
L64130 36730
L64180 36760
L64210 36780
L64230 36830
L64230 36900
L64210 36950
L64180 36970
L64130 36990
L63940 36990
" />
</g>
</g>
<g style="fill:#008484; fill-opacity:0.0; 
stroke:#008484; stroke-width:0; stroke-opacity:1; 
stroke-linecap:round; stroke-linejoin:round;">
<g >
</g>
<g style="fill:#840000; fill-opacity:0.0; 
stroke:#840000; stroke-width:0; stroke-opacity:1; 
stroke-linecap:round; stroke-linejoin:round;">
</g>
<g style="fill:#FFFFC2; fill-opacity:0.0; 
stroke:#FFFFC2; stroke-width:0; stroke-opacity:1; 
stroke-linecap:round; stroke-linejoin:round;">
</g>
<g style="fill:#FFFFC2; fill-opacity:0.6; 
stroke:#FFFFC2; stroke-width:0; stroke-opacity:1; 
stroke-linecap:round; stroke-linejoin:round;">
<rect x="62500" y="38000" width="1000" height="1000" rx="0" />
</g>
<g style="fill:#840000; fill-opacity:0.6; 
stroke:#840000; stroke-width:0; stroke-opacity:1; 
stroke-linecap:round; stroke-linejoin:round;">
</g>
<g style="fill:#840000; fill-opacity:0.0; 
stroke:#840000; stroke-width:100; stroke-opacity:1; 
stroke-linecap:round; stroke-linejoin:round;">
<rect x="62500" y="38000" width="1000" height="1000" rx="0" />
</g>
<g style="fill:#840000; fill-opacity:0.0; 
stroke:#840000; stroke-width:60; stroke-opacity:1; 
stroke-linecap:round; stroke-linejoin:round;">
<rect x="62500" y="38450" width="500" height="100" rx="0" />
<path d="M62500 38500
L61000 38500
" />
<path d="M61890 38370
L61600 38370
" />
<path d="M61750 38370
L61750 37870
L61700 37940
L61650 37990
L61600 38010
" />
</g>
<g style="fill:#008484; fill-opacity:0.0; 
stroke:#008484; stroke-width:60; stroke-opacity:1; 
stroke-linecap:round; stroke-linejoin:round;">
<path d="M63940 38060
L64110 38060
" />
<path d="M64180 38320
L63940 38320
L63940 37820
L64180 37820
" />
<path d="M64650 38320
L64370 38320
" />
<path d="M64510 38320
L64510 37820
L64460 37890
L64420 37940
L64370 37960
" />
<path d="M63870 38730
L64160 38730
" />
<path d="M64020 39230
L64020 38730
" />
</g>
</g>
<g style="fill:#008484; fill-opacity:0.0; 
stroke:#008484; stroke-width:0; stroke-opacity:1; 
stroke-linecap:round; stroke-linejoin:round;">
<g >
</g>
<g style="fill:#840000; fill-opacity:0.0; 
stroke:#840000; stroke-width:0; stroke-opacity:1; 
stroke-linecap:round; stroke-linejoin:round;">
</g>
<g style="fill:#FFFFC2; fill-opacity:0.0; 
stroke:#FFFFC2; stroke-width:0; stroke-opacity:1; 
stroke-linecap:round; stroke-linejoin:round;">
</g>
<g style="fill:#FFFFC2; fill-opacity:0.6; 
stroke:#FFFFC2; stroke-width:0; stroke-opacity:1; 
stroke-linecap:round; stroke-linejoin:round;">
<rect x="48500" y="33000" width="3000" height="6500" rx="0" />
</g>
<g style="fill:#840000; fill-opacity:0.6; 
stroke:#840000; stroke-width:0; stroke-opacity:1; 
stroke-linecap:round; stroke-linejoin:round;">
</g>
<g style="fill:#840000; fill-opacity:0.0; 
stroke:#840000; stroke-width:100; stroke-opacity:1; 
stroke-linecap:round; stroke-linejoin:round;">
<rect x="48500" y="33000" width="3000" height="6500" rx="0" />
</g>
<g style="fill:#840000; fill-opacity:1.0; 
stroke:#840000; stroke-width:100; stroke-opacity:1; 
stroke-linecap:round; stroke-linejoin:round;">
<rect x="48000" y="37500" width="500" height="1000" rx="0" />
</g>
<g style="fill:#840000; fill-opacity:0.0; 
stroke:#840000; stroke-width:60; stroke-opacity:1; 
stroke-linecap:round; stroke-linejoin:round;">
<path style="fill:#840000; fill-opacity:0.0; 
stroke:#840000; stroke-width:60; stroke-opacity:1; 
stroke-linecap:round; stroke-linejoin:round;fill:none"
d="M 50000,33600
50100,33800
Z" /> 
<path style="fill:#840000; fill-opacity:0.0; 
stroke:#840000; stroke-width:60; stroke-opacity:1; 
stroke-linecap:round; stroke-linejoin:round;fill:none"
d="M 50700,35600
50800,35800
Z" /> 
<path style="fill:#840000; fill-opacity:0.0; 
stroke:#840000; stroke-width:60; stroke-opacity:1; 
stroke-linecap:round; stroke-linejoin:round;fill:none"
d="M 51200,37600
51300,37800
Z" /> 
</g>
<g style="fill:#840000; fill-opacity:0.0; 
stroke:#840000; stroke-width:100; stroke-opacity:1; 
stroke-linecap:round; stroke-linejoin:round;">
<path style="fill:#840000; fill-opacity:0.0; 
stroke:#840000; stroke-width:100; stroke-opacity:1; 
stroke-linecap:round; stroke-linejoin:round;fill:none"
d="M 50500,37500
50750,37750
51000,37500
51500,37500
Z" /> 
</g>
<g style="fill:#840000; fill-opacity:0.0; 
stroke:#840000; stroke-width:60; stroke-opacity:1; 
stroke-linecap:round; stroke-linejoin:round;">
<path style="fill:#840000; fill-opacity:0.0; 
stroke:#840000; stroke-width:60; stroke-opacity:1; 
stroke-linecap:round; stroke-linejoin:round;fill:none"
d="M 51500,38500
51200,38500
51200,37600
51100,37800
Z" /> 
<path style="fill:#840000; fill-opacity:0.0; 
stroke:#840000; stroke-width:60; stroke-opacity:1; 
stroke-linecap:round; stroke-linejoin:round;fill:none"
d="M 51500,36500
50700,36500
50700,35600
50600,35800
Z" /> 
<path style="fill:#840000; fill-opacity:0.0; 
stroke:#840000; stroke-width:60; stroke-opacity:1; 
stroke-linecap:round; stroke-linejoin:round;fill:none"
d="M 51500,34500
50000,34500
50000,33600
49900,33800
Z" /> 
</g>
<g style="fill:#840000; fill-opacity:0.0; 
stroke:#840000; stroke-width:100; stroke-opacity:1; 
stroke-linecap:round; stroke-linejoin:round;">
<path style="fill:#840000; fill-opacity:0.0; 
stroke:#840000; stroke-width:100; stroke-opacity:1; 
stroke-linecap:round; stroke-linejoin:round;fill:none"
d="M 49750,37500
50000,37750
50250,37500
50250,35500
51500,35500
Z" /> 
<path style="fill:#840000; fill-opacity:0.0; 
stroke:#840000; stroke-width:100; stroke-opacity:1; 
stroke-linecap:round; stroke-linejoin:round;fill:none"
d="M 51500,33500
49500,33500
49500,37500
49250,37750
49000,37500
Z" /> 
</g>
<g style="fill:#840000; fill-opacity:0.0; 
stroke:#840000; stroke-width:60; stroke-opacity:1; 
stroke-linecap:round; stroke-linejoin:round;">
<path d="M51500 35500
L52500 35500
" />
</g>
<g style="fill:#008484; fill-opacity:0.0; 
stroke:#008484; stroke-width:60; stroke-opacity:1; 
stroke-linecap:round; stroke-linejoin:round;">
</g>
<g style="fill:#008484; fill-opacity:0.0; 
stroke:#008484; stroke-width:30; stroke-opacity:1; 
stroke-linecap:round; stroke-linejoin:round;">
<path d="M51240 35590
L51180 35490
" />
<path d="M51130 35590
L51130 35390
L51200 35390
L51220 35400
L51230 35400
L51240 35420
L51240 35450
L51230 35470
L51220 35480
L51200 35490
L51130 35490
" />
</g>
<g style="fill:#008484; fill-opacity:0.0; 
stroke:#008484; stroke-width:60; stroke-opacity:1; 
stroke-linecap:round; stroke-linejoin:round;">
</g>
<g style="fill:#840000; fill-opacity:0.0; 
stroke:#840000; stroke-width:60; stroke-opacity:1; 
stroke-linecap:round; stroke-linejoin:round;">
</g>
<g style="fill:#840000; fill-opacity:0.0; 
stroke:#840000; stroke-width:30; stroke-opacity:1; 
stroke-linecap:round; stroke-linejoin:round;">
<path d="M52060 35410
L51990 35310
" />
<path d="M51940 35410
L51940 35210
L52020 35210
L52040 35220
L52050 35220
L52060 35240
L52060 35270
L52050 35290
L52040 35300
L52020 35310
L51940 35310
" />
</g>
<g style="fill:#840000; fill-opacity:0.0; 
stroke:#840000; stroke-width:60; stroke-opacity:1; 
stroke-linecap:round; stroke-linejoin:round;">
<path d="M51500 36500
L52500 36500
" />
</g>
<g style="fill:#008484; fill-opacity:0.0; 
stroke:#008484; stroke-width:60; stroke-opacity:1; 
stroke-linecap:round; stroke-linejoin:round;">
</g>
<g style="fill:#008484; fill-opacity:0.0; 
stroke:#008484; stroke-width:30; stroke-opacity:1; 
stroke-linecap:round; stroke-linejoin:round;">
<path d="M51030 36590
L50970 36490
" />
<path d="M50920 36590
L50920 36390
L50990 36390
L51010 36400
L51020 36400
L51030 36420
L51030 36450
L51020 36470
L51010 36480
L50990 36490
L50920 36490
" />
<path d="M51120 36590
L51120 36390
L51230 36590
L51230 36390
" />
</g>
<g style="fill:#008484; fill-opacity:0.0; 
stroke:#008484; stroke-width:60; stroke-opacity:1; 
stroke-linecap:round; stroke-linejoin:round;">
</g>
<g style="fill:#840000; fill-opacity:0.0; 
stroke:#840000; stroke-width:60; stroke-opacity:1; 
stroke-linecap:round; stroke-linejoin:round;">
</g>
<g style="fill:#840000; fill-opacity:0.0; 
stroke:#840000; stroke-width:30; stroke-opacity:1; 
stroke-linecap:round; stroke-linejoin:round;">
<path d="M51950 36410
L51890 36310
" />
<path d="M51840 36410
L51840 36210
L51910 36210
L51930 36220
L51940 36220
L51950 36240
L51950 36270
L51940 36290
L51930 36300
L51910 36310
L51840 36310
" />
<path d="M52040 36410
L52040 36210
L52150 36410
L52150 36210
" />
</g>
<g style="fill:#840000; fill-opacity:0.0; 
stroke:#840000; stroke-width:60; stroke-opacity:1; 
stroke-linecap:round; stroke-linejoin:round;">
<path d="M51500 33500
L52500 33500
" />
</g>
<g style="fill:#008484; fill-opacity:0.0; 
stroke:#008484; stroke-width:60; stroke-opacity:1; 
stroke-linecap:round; stroke-linejoin:round;">
</g>
<g style="fill:#008484; fill-opacity:0.0; 
stroke:#008484; stroke-width:30; stroke-opacity:1; 
stroke-linecap:round; stroke-linejoin:round;">
<path d="M51130 33580
L51160 33590
L51200 33590
L51220 33580
L51230 33570
L51240 33550
L51240 33530
L51230 33510
L51220 33500
L51200 33490
L51170 33480
L51150 33470
L51140 33460
L51130 33440
L51130 33420
L51140 33400
L51150 33400
L51170 33390
L51210 33390
L51240 33400
" />
</g>
<g style="fill:#008484; fill-opacity:0.0; 
stroke:#008484; stroke-width:60; stroke-opacity:1; 
stroke-linecap:round; stroke-linejoin:round;">
</g>
<g style="fill:#840000; fill-opacity:0.0; 
stroke:#840000; stroke-width:60; stroke-opacity:1; 
stroke-linecap:round; stroke-linejoin:round;">
</g>
<g style="fill:#840000; fill-opacity:0.0; 
stroke:#840000; stroke-width:30; stroke-opacity:1; 
stroke-linecap:round; stroke-linejoin:round;">
<path d="M51940 33400
L51970 33410
L52010 33410
L52030 33400
L52040 33390
L52050 33370
L52050 33350
L52040 33330
L52030 33320
L52010 33310
L51980 33300
L51960 33290
L51950 33280
L51940 33260
L51940 33240
L51950 33220
L51960 33220
L51980 33210
L52020 33210
L52050 33220
" />
</g>
<g style="fill:#840000; fill-opacity:0.0; 
stroke:#840000; stroke-width:60; stroke-opacity:1; 
stroke-linecap:round; stroke-linejoin:round;">
<path d="M51500 34500
L52500 34500
" />
</g>
<g style="fill:#008484; fill-opacity:0.0; 
stroke:#008484; stroke-width:60; stroke-opacity:1; 
stroke-linecap:round; stroke-linejoin:round;">
</g>
<g style="fill:#008484; fill-opacity:0.0; 
stroke:#008484; stroke-width:30; stroke-opacity:1; 
stroke-linecap:round; stroke-linejoin:round;">
<path d="M50920 34580
L50950 34590
L50990 34590
L51010 34580
L51020 34570
L51030 34550
L51030 34530
L51020 34510
L51010 34500
L50990 34490
L50960 34480
L50940 34470
L50930 34460
L50920 34440
L50920 34420
L50930 34400
L50940 34400
L50960 34390
L51000 34390
L51030 34400
" />
<path d="M51120 34590
L51120 34390
L51230 34590
L51230 34390
" />
</g>
<g style="fill:#008484; fill-opacity:0.0; 
stroke:#008484; stroke-width:60; stroke-opacity:1; 
stroke-linecap:round; stroke-linejoin:round;">
</g>
<g style="fill:#840000; fill-opacity:0.0; 
stroke:#840000; stroke-width:60; stroke-opacity:1; 
stroke-linecap:round; stroke-linejoin:round;">
</g>
<g style="fill:#840000; fill-opacity:0.0; 
stroke:#840000; stroke-width:30; stroke-opacity:1; 
stroke-linecap:round; stroke-linejoin:round;">
<path d="M51830 34400
L51860 34410
L51910 34410
L51930 34400
L51940 34390
L51950 34370
L51950 34350
L51940 34330
L51930 34320
L51910 34310
L51870 34300
L51850 34290
L51840 34280
L51830 34260
L51830 34240
L51840 34220
L51850 34220
L51870 34210
L51920 34210
L51950 34220
" />
<path d="M52030 34410
L52030 34210
L52150 34410
L52150 34210
" />
</g>
<g style="fill:#840000; fill-opacity:0.0; 
stroke:#840000; stroke-width:60; stroke-opacity:1; 
stroke-linecap:round; stroke-linejoin:round;">
<path d="M51500 37500
L52500 37500
" />
</g>
<g style="fill:#008484; fill-opacity:0.0; 
stroke:#008484; stroke-width:60; stroke-opacity:1; 
stroke-linecap:round; stroke-linejoin:round;">
</g>
<g style="fill:#008484; fill-opacity:0.0; 
stroke:#008484; stroke-width:30; stroke-opacity:1; 
stroke-linecap:round; stroke-linejoin:round;">
<path d="M51150 37390
L51260 37390
" />
<path d="M51200 37590
L51200 37390
" />
</g>
<g style="fill:#008484; fill-opacity:0.0; 
stroke:#008484; stroke-width:60; stroke-opacity:1; 
stroke-linecap:round; stroke-linejoin:round;">
</g>
<g style="fill:#840000; fill-opacity:0.0; 
stroke:#840000; stroke-width:60; stroke-opacity:1; 
stroke-linecap:round; stroke-linejoin:round;">
</g>
<g style="fill:#840000; fill-opacity:0.0; 
stroke:#840000; stroke-width:30; stroke-opacity:1; 
stroke-linecap:round; stroke-linejoin:round;">
<path d="M51940 37210
L52050 37210
" />
<path d="M52000 37410
L52000 37210
" />
</g>
<g style="fill:#840000; fill-opacity:0.0; 
stroke:#840000; stroke-width:60; stroke-opacity:1; 
stroke-linecap:round; stroke-linejoin:round;">
<path d="M51500 38500
L52500 38500
" />
</g>
<g style="fill:#008484; fill-opacity:0.0; 
stroke:#008484; stroke-width:60; stroke-opacity:1; 
stroke-linecap:round; stroke-linejoin:round;">
</g>
<g style="fill:#008484; fill-opacity:0.0; 
stroke:#008484; stroke-width:30; stroke-opacity:1; 
stroke-linecap:round; stroke-linejoin:round;">
<path d="M50940 38390
L51050 38390
" />
<path d="M50990 38590
L50990 38390
" />
<path d="M51120 38590
L51120 38390
L51230 38590
L51230 38390
" />
</g>
<g style="fill:#008484; fill-opacity:0.0; 
stroke:#008484; stroke-width:60; stroke-opacity:1; 
stroke-linecap:round; stroke-linejoin:round;">
</g>
<g style="fill:#840000; fill-opacity:0.0; 
stroke:#840000; stroke-width:60; stroke-opacity:1; 
stroke-linecap:round; stroke-linejoin:round;">
</g>
<g style="fill:#840000; fill-opacity:0.0; 
stroke:#840000; stroke-width:30; stroke-opacity:1; 
stroke-linecap:round; stroke-linejoin:round;">
<path d="M51830 38210
L51950 38210
" />
<path d="M51890 38410
L51890 38210
" />
<path d="M52010 38410
L52010 38210
L52130 38410
L52130 38210
" />
</g>
<g style="fill:#840000; fill-opacity:0.0; 
stroke:#840000; stroke-width:60; stroke-opacity:1; 
stroke-linecap:round; stroke-linejoin:round;">
</g>
<g style="fill:#008484; fill-opacity:0.0; 
stroke:#008484; stroke-width:60; stroke-opacity:1; 
stroke-linecap:round; stroke-linejoin:round;">
<path d="M50330 32240
L50330 32600
L50300 32670
L50260 32720
L50190 32740
L50140 32740
" />
<path d="M50830 32740
L50540 32740
" />
<path d="M50690 32740
L50690 32240
L50640 32310
L50590 32360
L50540 32380
" />
<path d="M48580 40240
L48580 39740
L48860 40240
L48860 39740
" />
<path d="M49250 39740
L49250 40100
L49220 40170
L49170 40220
L49100 40240
L49050 40240
" />
<path d="M49770 40240
L49600 40000
" />
<path d="M49480 40240
L49480 39740
L49670 39740
L49720 39770
L49750 39790
L49770 39840
L49770 39910
L49750 39960
L49720 39980
L49670 40000
L49480 40000
" />
<path d="M50200 39740
L50100 39740
L50050 39770
L50030 39790
L49980 39860
L49960 39960
L49960 40150
L49980 40190
L50010 40220
L50050 40240
L50150 40240
L50200 40220
L50220 40190
L50250 40150
L50250 40030
L50220 39980
L50200 39960
L50150 39930
L50050 39930
L50010 39960
L49980 39980
L49960 40030
" />
<path d="M50460 40240
L50460 39740
" />
<path d="M50460 39980
L50750 39980
" />
<path d="M50750 40240
L50750 39740
" />
<path d="M50980 40240
L50980 39740
L51150 40100
L51320 39740
L51320 40240
" />
<path d="M51550 40050
L51940 40050
" />
<path d="M52440 40240
L52150 40240
" />
<path d="M52290 40240
L52290 39740
L52250 39810
L52200 39860
L52150 39880
" />
</g>
</g>
<g style="fill:#008484; fill-opacity:0.0; 
stroke:#008484; stroke-width:60; stroke-opacity:1; 
stroke-linecap:round; stroke-linejoin:round;">
</g>
<g style="fill:#008400; fill-opacity:0.0; 
stroke:#008400; stroke-width:60; stroke-opacity:1; 
stroke-linecap:round; stroke-linejoin:round;">
<path d="M53000 34500
L53000 33500
" />
<path d="M52500 38500
L53000 38500
" />
<path d="M52500 36500
L53000 36500
" />
<path d="M52500 34500
L53000 34500
" />
<path d="M53000 38500
L53000 37500
" />
<path d="M61000 38500
L53000 38500
" />
<path d="M53000 35500
L52500 35500
" />
<path d="M53000 36500
L53000 35500
" />
<path d="M61000 36500
L53000 36500
" />
<path d="M53000 33500
L52500 33500
" />
<path d="M61000 34500
L53000 34500
" />
<path d="M52500 37500
L53000 37500
" />
</g>
<g style="fill:#008400; fill-opacity:0.0; 
stroke:#008400; stroke-width:0; stroke-opacity:1; 
stroke-linecap:round; stroke-linejoin:round;">
</g>
<g style="fill:#008400; fill-opacity:1.0; 
stroke:#008400; stroke-width:100; stroke-opacity:1; 
stroke-linecap:round; stroke-linejoin:round;">
<circle cx="53000" cy="34500" r="200" /> 
</g>
<g style="fill:#008400; fill-opacity:1.0; 
stroke:#008400; stroke-width:0; stroke-opacity:1; 
stroke-linecap:round; stroke-linejoin:round;">
</g>
<g style="fill:#008400; fill-opacity:1.0; 
stroke:#008400; stroke-width:100; stroke-opacity:1; 
stroke-linecap:round; stroke-linejoin:round;">
<circle cx="53000" cy="36500" r="200" /> 
</g>
<g style="fill:#008400; fill-opacity:1.0; 
stroke:#008400; stroke-width:0; stroke-opacity:1; 
stroke-linecap:round; stroke-linejoin:round;">
</g>
<g style="fill:#008400; fill-opacity:1.0; 
stroke:#008400; stroke-width:100; stroke-opacity:1; 
stroke-linecap:round; stroke-linejoin:round;">
<circle cx="53000" cy="38500" r="200" /> 
</g> 
</svg>
