G04 #@! TF.GenerationSoftware,KiCad,Pcbnew,(5.1.4)-1*
G04 #@! TF.CreationDate,2019-09-26T03:20:38+02:00*
G04 #@! TF.ProjectId,Board Reproduction,426f6172-6420-4526-9570-726f64756374,rev?*
G04 #@! TF.SameCoordinates,Original*
G04 #@! TF.FileFunction,Copper,L1,Top*
G04 #@! TF.FilePolarity,Positive*
%FSLAX46Y46*%
G04 Gerber Fmt 4.6, Leading zero omitted, Abs format (unit mm)*
G04 Created by KiCad (PCBNEW (5.1.4)-1) date 2019-09-26 03:20:38*
%MOMM*%
%LPD*%
G04 APERTURE LIST*
%ADD10C,0.050000*%
%ADD11C,1.700000*%
%ADD12C,1.000000*%
%ADD13R,1.000000X1.000000*%
%ADD14C,1.600000*%
%ADD15C,0.100000*%
%ADD16C,1.250000*%
%ADD17O,1.600000X1.600000*%
%ADD18O,1.600000X2.400000*%
%ADD19R,1.600000X2.400000*%
%ADD20C,2.200000*%
%ADD21C,0.300000*%
G04 APERTURE END LIST*
D10*
X87376000Y-44704000D02*
X87376000Y-45974000D01*
X122936000Y-44704000D02*
X87376000Y-44704000D01*
X197866000Y-44704000D02*
X122936000Y-44704000D01*
X197866000Y-143764000D02*
X197866000Y-44704000D01*
X143256000Y-143764000D02*
X197866000Y-143764000D01*
X94996000Y-143764000D02*
X143256000Y-143764000D01*
X87376000Y-143764000D02*
X94996000Y-143764000D01*
X87376000Y-137414000D02*
X87376000Y-143764000D01*
X87376000Y-96774000D02*
X87376000Y-45974000D01*
X87376000Y-137414000D02*
X87376000Y-96774000D01*
D11*
X91186000Y-139954000D03*
X91186000Y-120904000D03*
X91186000Y-117094000D03*
X94996000Y-71374000D03*
X92456000Y-73914000D03*
X89916000Y-73914000D03*
D12*
X91186000Y-128504000D03*
D13*
X91186000Y-126004000D03*
D12*
X97016000Y-63754000D03*
D13*
X95516000Y-63754000D03*
D14*
X129286000Y-122174000D03*
X124206000Y-122174000D03*
X126746000Y-122174000D03*
D15*
G36*
X127089130Y-136790505D02*
G01*
X127119466Y-136795005D01*
X127149214Y-136802456D01*
X127178089Y-136812788D01*
X127205811Y-136825900D01*
X127232116Y-136841666D01*
X127256748Y-136859934D01*
X127279471Y-136880529D01*
X127300066Y-136903252D01*
X127318334Y-136927884D01*
X127334100Y-136954189D01*
X127347212Y-136981911D01*
X127357544Y-137010786D01*
X127364995Y-137040534D01*
X127369495Y-137070870D01*
X127371000Y-137101500D01*
X127371000Y-137726500D01*
X127369495Y-137757130D01*
X127364995Y-137787466D01*
X127357544Y-137817214D01*
X127347212Y-137846089D01*
X127334100Y-137873811D01*
X127318334Y-137900116D01*
X127300066Y-137924748D01*
X127279471Y-137947471D01*
X127256748Y-137968066D01*
X127232116Y-137986334D01*
X127205811Y-138002100D01*
X127178089Y-138015212D01*
X127149214Y-138025544D01*
X127119466Y-138032995D01*
X127089130Y-138037495D01*
X127058500Y-138039000D01*
X126433500Y-138039000D01*
X126402870Y-138037495D01*
X126372534Y-138032995D01*
X126342786Y-138025544D01*
X126313911Y-138015212D01*
X126286189Y-138002100D01*
X126259884Y-137986334D01*
X126235252Y-137968066D01*
X126212529Y-137947471D01*
X126191934Y-137924748D01*
X126173666Y-137900116D01*
X126157900Y-137873811D01*
X126144788Y-137846089D01*
X126134456Y-137817214D01*
X126127005Y-137787466D01*
X126122505Y-137757130D01*
X126121000Y-137726500D01*
X126121000Y-137101500D01*
X126122505Y-137070870D01*
X126127005Y-137040534D01*
X126134456Y-137010786D01*
X126144788Y-136981911D01*
X126157900Y-136954189D01*
X126173666Y-136927884D01*
X126191934Y-136903252D01*
X126212529Y-136880529D01*
X126235252Y-136859934D01*
X126259884Y-136841666D01*
X126286189Y-136825900D01*
X126313911Y-136812788D01*
X126342786Y-136802456D01*
X126372534Y-136795005D01*
X126402870Y-136790505D01*
X126433500Y-136789000D01*
X127058500Y-136789000D01*
X127089130Y-136790505D01*
X127089130Y-136790505D01*
G37*
D16*
X126746000Y-137414000D03*
D15*
G36*
X129629130Y-134250505D02*
G01*
X129659466Y-134255005D01*
X129689214Y-134262456D01*
X129718089Y-134272788D01*
X129745811Y-134285900D01*
X129772116Y-134301666D01*
X129796748Y-134319934D01*
X129819471Y-134340529D01*
X129840066Y-134363252D01*
X129858334Y-134387884D01*
X129874100Y-134414189D01*
X129887212Y-134441911D01*
X129897544Y-134470786D01*
X129904995Y-134500534D01*
X129909495Y-134530870D01*
X129911000Y-134561500D01*
X129911000Y-135186500D01*
X129909495Y-135217130D01*
X129904995Y-135247466D01*
X129897544Y-135277214D01*
X129887212Y-135306089D01*
X129874100Y-135333811D01*
X129858334Y-135360116D01*
X129840066Y-135384748D01*
X129819471Y-135407471D01*
X129796748Y-135428066D01*
X129772116Y-135446334D01*
X129745811Y-135462100D01*
X129718089Y-135475212D01*
X129689214Y-135485544D01*
X129659466Y-135492995D01*
X129629130Y-135497495D01*
X129598500Y-135499000D01*
X128973500Y-135499000D01*
X128942870Y-135497495D01*
X128912534Y-135492995D01*
X128882786Y-135485544D01*
X128853911Y-135475212D01*
X128826189Y-135462100D01*
X128799884Y-135446334D01*
X128775252Y-135428066D01*
X128752529Y-135407471D01*
X128731934Y-135384748D01*
X128713666Y-135360116D01*
X128697900Y-135333811D01*
X128684788Y-135306089D01*
X128674456Y-135277214D01*
X128667005Y-135247466D01*
X128662505Y-135217130D01*
X128661000Y-135186500D01*
X128661000Y-134561500D01*
X128662505Y-134530870D01*
X128667005Y-134500534D01*
X128674456Y-134470786D01*
X128684788Y-134441911D01*
X128697900Y-134414189D01*
X128713666Y-134387884D01*
X128731934Y-134363252D01*
X128752529Y-134340529D01*
X128775252Y-134319934D01*
X128799884Y-134301666D01*
X128826189Y-134285900D01*
X128853911Y-134272788D01*
X128882786Y-134262456D01*
X128912534Y-134255005D01*
X128942870Y-134250505D01*
X128973500Y-134249000D01*
X129598500Y-134249000D01*
X129629130Y-134250505D01*
X129629130Y-134250505D01*
G37*
D16*
X129286000Y-134874000D03*
D15*
G36*
X124549130Y-134250505D02*
G01*
X124579466Y-134255005D01*
X124609214Y-134262456D01*
X124638089Y-134272788D01*
X124665811Y-134285900D01*
X124692116Y-134301666D01*
X124716748Y-134319934D01*
X124739471Y-134340529D01*
X124760066Y-134363252D01*
X124778334Y-134387884D01*
X124794100Y-134414189D01*
X124807212Y-134441911D01*
X124817544Y-134470786D01*
X124824995Y-134500534D01*
X124829495Y-134530870D01*
X124831000Y-134561500D01*
X124831000Y-135186500D01*
X124829495Y-135217130D01*
X124824995Y-135247466D01*
X124817544Y-135277214D01*
X124807212Y-135306089D01*
X124794100Y-135333811D01*
X124778334Y-135360116D01*
X124760066Y-135384748D01*
X124739471Y-135407471D01*
X124716748Y-135428066D01*
X124692116Y-135446334D01*
X124665811Y-135462100D01*
X124638089Y-135475212D01*
X124609214Y-135485544D01*
X124579466Y-135492995D01*
X124549130Y-135497495D01*
X124518500Y-135499000D01*
X123893500Y-135499000D01*
X123862870Y-135497495D01*
X123832534Y-135492995D01*
X123802786Y-135485544D01*
X123773911Y-135475212D01*
X123746189Y-135462100D01*
X123719884Y-135446334D01*
X123695252Y-135428066D01*
X123672529Y-135407471D01*
X123651934Y-135384748D01*
X123633666Y-135360116D01*
X123617900Y-135333811D01*
X123604788Y-135306089D01*
X123594456Y-135277214D01*
X123587005Y-135247466D01*
X123582505Y-135217130D01*
X123581000Y-135186500D01*
X123581000Y-134561500D01*
X123582505Y-134530870D01*
X123587005Y-134500534D01*
X123594456Y-134470786D01*
X123604788Y-134441911D01*
X123617900Y-134414189D01*
X123633666Y-134387884D01*
X123651934Y-134363252D01*
X123672529Y-134340529D01*
X123695252Y-134319934D01*
X123719884Y-134301666D01*
X123746189Y-134285900D01*
X123773911Y-134272788D01*
X123802786Y-134262456D01*
X123832534Y-134255005D01*
X123862870Y-134250505D01*
X123893500Y-134249000D01*
X124518500Y-134249000D01*
X124549130Y-134250505D01*
X124549130Y-134250505D01*
G37*
D16*
X124206000Y-134874000D03*
D15*
G36*
X162649130Y-54240505D02*
G01*
X162679466Y-54245005D01*
X162709214Y-54252456D01*
X162738089Y-54262788D01*
X162765811Y-54275900D01*
X162792116Y-54291666D01*
X162816748Y-54309934D01*
X162839471Y-54330529D01*
X162860066Y-54353252D01*
X162878334Y-54377884D01*
X162894100Y-54404189D01*
X162907212Y-54431911D01*
X162917544Y-54460786D01*
X162924995Y-54490534D01*
X162929495Y-54520870D01*
X162931000Y-54551500D01*
X162931000Y-55176500D01*
X162929495Y-55207130D01*
X162924995Y-55237466D01*
X162917544Y-55267214D01*
X162907212Y-55296089D01*
X162894100Y-55323811D01*
X162878334Y-55350116D01*
X162860066Y-55374748D01*
X162839471Y-55397471D01*
X162816748Y-55418066D01*
X162792116Y-55436334D01*
X162765811Y-55452100D01*
X162738089Y-55465212D01*
X162709214Y-55475544D01*
X162679466Y-55482995D01*
X162649130Y-55487495D01*
X162618500Y-55489000D01*
X161993500Y-55489000D01*
X161962870Y-55487495D01*
X161932534Y-55482995D01*
X161902786Y-55475544D01*
X161873911Y-55465212D01*
X161846189Y-55452100D01*
X161819884Y-55436334D01*
X161795252Y-55418066D01*
X161772529Y-55397471D01*
X161751934Y-55374748D01*
X161733666Y-55350116D01*
X161717900Y-55323811D01*
X161704788Y-55296089D01*
X161694456Y-55267214D01*
X161687005Y-55237466D01*
X161682505Y-55207130D01*
X161681000Y-55176500D01*
X161681000Y-54551500D01*
X161682505Y-54520870D01*
X161687005Y-54490534D01*
X161694456Y-54460786D01*
X161704788Y-54431911D01*
X161717900Y-54404189D01*
X161733666Y-54377884D01*
X161751934Y-54353252D01*
X161772529Y-54330529D01*
X161795252Y-54309934D01*
X161819884Y-54291666D01*
X161846189Y-54275900D01*
X161873911Y-54262788D01*
X161902786Y-54252456D01*
X161932534Y-54245005D01*
X161962870Y-54240505D01*
X161993500Y-54239000D01*
X162618500Y-54239000D01*
X162649130Y-54240505D01*
X162649130Y-54240505D01*
G37*
D16*
X162306000Y-54864000D03*
D15*
G36*
X160109130Y-56780505D02*
G01*
X160139466Y-56785005D01*
X160169214Y-56792456D01*
X160198089Y-56802788D01*
X160225811Y-56815900D01*
X160252116Y-56831666D01*
X160276748Y-56849934D01*
X160299471Y-56870529D01*
X160320066Y-56893252D01*
X160338334Y-56917884D01*
X160354100Y-56944189D01*
X160367212Y-56971911D01*
X160377544Y-57000786D01*
X160384995Y-57030534D01*
X160389495Y-57060870D01*
X160391000Y-57091500D01*
X160391000Y-57716500D01*
X160389495Y-57747130D01*
X160384995Y-57777466D01*
X160377544Y-57807214D01*
X160367212Y-57836089D01*
X160354100Y-57863811D01*
X160338334Y-57890116D01*
X160320066Y-57914748D01*
X160299471Y-57937471D01*
X160276748Y-57958066D01*
X160252116Y-57976334D01*
X160225811Y-57992100D01*
X160198089Y-58005212D01*
X160169214Y-58015544D01*
X160139466Y-58022995D01*
X160109130Y-58027495D01*
X160078500Y-58029000D01*
X159453500Y-58029000D01*
X159422870Y-58027495D01*
X159392534Y-58022995D01*
X159362786Y-58015544D01*
X159333911Y-58005212D01*
X159306189Y-57992100D01*
X159279884Y-57976334D01*
X159255252Y-57958066D01*
X159232529Y-57937471D01*
X159211934Y-57914748D01*
X159193666Y-57890116D01*
X159177900Y-57863811D01*
X159164788Y-57836089D01*
X159154456Y-57807214D01*
X159147005Y-57777466D01*
X159142505Y-57747130D01*
X159141000Y-57716500D01*
X159141000Y-57091500D01*
X159142505Y-57060870D01*
X159147005Y-57030534D01*
X159154456Y-57000786D01*
X159164788Y-56971911D01*
X159177900Y-56944189D01*
X159193666Y-56917884D01*
X159211934Y-56893252D01*
X159232529Y-56870529D01*
X159255252Y-56849934D01*
X159279884Y-56831666D01*
X159306189Y-56815900D01*
X159333911Y-56802788D01*
X159362786Y-56792456D01*
X159392534Y-56785005D01*
X159422870Y-56780505D01*
X159453500Y-56779000D01*
X160078500Y-56779000D01*
X160109130Y-56780505D01*
X160109130Y-56780505D01*
G37*
D16*
X159766000Y-57404000D03*
D15*
G36*
X165189130Y-56780505D02*
G01*
X165219466Y-56785005D01*
X165249214Y-56792456D01*
X165278089Y-56802788D01*
X165305811Y-56815900D01*
X165332116Y-56831666D01*
X165356748Y-56849934D01*
X165379471Y-56870529D01*
X165400066Y-56893252D01*
X165418334Y-56917884D01*
X165434100Y-56944189D01*
X165447212Y-56971911D01*
X165457544Y-57000786D01*
X165464995Y-57030534D01*
X165469495Y-57060870D01*
X165471000Y-57091500D01*
X165471000Y-57716500D01*
X165469495Y-57747130D01*
X165464995Y-57777466D01*
X165457544Y-57807214D01*
X165447212Y-57836089D01*
X165434100Y-57863811D01*
X165418334Y-57890116D01*
X165400066Y-57914748D01*
X165379471Y-57937471D01*
X165356748Y-57958066D01*
X165332116Y-57976334D01*
X165305811Y-57992100D01*
X165278089Y-58005212D01*
X165249214Y-58015544D01*
X165219466Y-58022995D01*
X165189130Y-58027495D01*
X165158500Y-58029000D01*
X164533500Y-58029000D01*
X164502870Y-58027495D01*
X164472534Y-58022995D01*
X164442786Y-58015544D01*
X164413911Y-58005212D01*
X164386189Y-57992100D01*
X164359884Y-57976334D01*
X164335252Y-57958066D01*
X164312529Y-57937471D01*
X164291934Y-57914748D01*
X164273666Y-57890116D01*
X164257900Y-57863811D01*
X164244788Y-57836089D01*
X164234456Y-57807214D01*
X164227005Y-57777466D01*
X164222505Y-57747130D01*
X164221000Y-57716500D01*
X164221000Y-57091500D01*
X164222505Y-57060870D01*
X164227005Y-57030534D01*
X164234456Y-57000786D01*
X164244788Y-56971911D01*
X164257900Y-56944189D01*
X164273666Y-56917884D01*
X164291934Y-56893252D01*
X164312529Y-56870529D01*
X164335252Y-56849934D01*
X164359884Y-56831666D01*
X164386189Y-56815900D01*
X164413911Y-56802788D01*
X164442786Y-56792456D01*
X164472534Y-56785005D01*
X164502870Y-56780505D01*
X164533500Y-56779000D01*
X165158500Y-56779000D01*
X165189130Y-56780505D01*
X165189130Y-56780505D01*
G37*
D16*
X164846000Y-57404000D03*
D17*
X164846000Y-117094000D03*
D14*
X164846000Y-127254000D03*
D17*
X167386000Y-84074000D03*
D14*
X177546000Y-84074000D03*
D17*
X152146000Y-82804000D03*
D14*
X162306000Y-82804000D03*
D17*
X164846000Y-101854000D03*
D14*
X164846000Y-112014000D03*
D17*
X152146000Y-112014000D03*
D14*
X162306000Y-112014000D03*
D17*
X144526000Y-127254000D03*
D14*
X144526000Y-117094000D03*
D17*
X125476000Y-100584000D03*
D14*
X135636000Y-100584000D03*
D17*
X120396000Y-117094000D03*
D14*
X120396000Y-127254000D03*
D17*
X105156000Y-108204000D03*
D14*
X105156000Y-118364000D03*
D17*
X171196000Y-65024000D03*
D14*
X161036000Y-65024000D03*
D17*
X136906000Y-65024000D03*
D14*
X126746000Y-65024000D03*
D17*
X126746000Y-49784000D03*
D14*
X116586000Y-49784000D03*
D17*
X195834000Y-52324000D03*
D14*
X195834000Y-62484000D03*
D17*
X192786000Y-62484000D03*
D14*
X192786000Y-52324000D03*
D17*
X120396000Y-139954000D03*
D14*
X120396000Y-129794000D03*
D17*
X101346000Y-139954000D03*
D14*
X101346000Y-129794000D03*
D17*
X117856000Y-139954000D03*
D14*
X117856000Y-129794000D03*
D17*
X106426000Y-139954000D03*
D14*
X106426000Y-129794000D03*
D17*
X111506000Y-139954000D03*
D14*
X111506000Y-129794000D03*
D17*
X133096000Y-139954000D03*
D14*
X133096000Y-129794000D03*
D17*
X135636000Y-139954000D03*
D14*
X135636000Y-129794000D03*
D17*
X163576000Y-78994000D03*
D14*
X163576000Y-68834000D03*
D17*
X168656000Y-78994000D03*
D14*
X168656000Y-68834000D03*
D17*
X166116000Y-78994000D03*
D14*
X166116000Y-68834000D03*
D17*
X175006000Y-52324000D03*
D14*
X175006000Y-62484000D03*
D17*
X172466000Y-62484000D03*
D14*
X172466000Y-52324000D03*
D17*
X96266000Y-139954000D03*
D14*
X96266000Y-129794000D03*
D17*
X101346000Y-117094000D03*
D14*
X101346000Y-127254000D03*
D17*
X93726000Y-113284000D03*
D14*
X93726000Y-103124000D03*
D17*
X91186000Y-103124000D03*
D14*
X91186000Y-113284000D03*
D17*
X97536000Y-103124000D03*
D14*
X97536000Y-113284000D03*
D17*
X100076000Y-103124000D03*
D14*
X100076000Y-113284000D03*
D17*
X159766000Y-96774000D03*
D14*
X159766000Y-86614000D03*
D17*
X148336000Y-52324000D03*
D14*
X148336000Y-62484000D03*
D17*
X145796000Y-62484000D03*
D14*
X145796000Y-52324000D03*
D17*
X157226000Y-96774000D03*
D14*
X157226000Y-86614000D03*
D17*
X141986000Y-62484000D03*
D14*
X141986000Y-52324000D03*
D17*
X149606000Y-96774000D03*
D14*
X149606000Y-86614000D03*
D17*
X147066000Y-86614000D03*
D14*
X147066000Y-96774000D03*
D17*
X139446000Y-96774000D03*
D14*
X139446000Y-86614000D03*
D17*
X135636000Y-96774000D03*
D14*
X135636000Y-86614000D03*
D17*
X129286000Y-86614000D03*
D14*
X129286000Y-96774000D03*
D17*
X131826000Y-96774000D03*
D14*
X131826000Y-86614000D03*
D17*
X121666000Y-96774000D03*
D14*
X121666000Y-86614000D03*
D17*
X119126000Y-86614000D03*
D14*
X119126000Y-96774000D03*
D17*
X111506000Y-96774000D03*
D14*
X111506000Y-86614000D03*
D17*
X107696000Y-96774000D03*
D14*
X107696000Y-86614000D03*
D17*
X93726000Y-86614000D03*
D14*
X93726000Y-96774000D03*
D17*
X103886000Y-96774000D03*
D14*
X103886000Y-86614000D03*
D17*
X101346000Y-86614000D03*
D14*
X101346000Y-96774000D03*
D17*
X125476000Y-68834000D03*
D14*
X125476000Y-78994000D03*
D17*
X128016000Y-78994000D03*
D14*
X128016000Y-68834000D03*
D17*
X111506000Y-62484000D03*
D14*
X111506000Y-52324000D03*
D17*
X108966000Y-62484000D03*
D14*
X108966000Y-52324000D03*
D17*
X106426000Y-62484000D03*
D14*
X106426000Y-52324000D03*
D17*
X91186000Y-52324000D03*
D14*
X91186000Y-62484000D03*
D17*
X88646000Y-62484000D03*
D14*
X88646000Y-52324000D03*
D18*
X131826000Y-104394000D03*
X131826000Y-112014000D03*
X121666000Y-104394000D03*
X129286000Y-112014000D03*
X124206000Y-104394000D03*
X126746000Y-112014000D03*
X126746000Y-104394000D03*
X124206000Y-112014000D03*
X129286000Y-104394000D03*
D19*
X121666000Y-112014000D03*
X130556000Y-61214000D03*
D18*
X138176000Y-53594000D03*
X133096000Y-61214000D03*
X135636000Y-53594000D03*
X135636000Y-61214000D03*
X133096000Y-53594000D03*
X138176000Y-61214000D03*
X130556000Y-53594000D03*
D19*
X139446000Y-112014000D03*
D18*
X147066000Y-104394000D03*
X141986000Y-112014000D03*
X144526000Y-104394000D03*
X144526000Y-112014000D03*
X141986000Y-104394000D03*
X147066000Y-112014000D03*
X139446000Y-104394000D03*
D19*
X108966000Y-112014000D03*
D18*
X116586000Y-104394000D03*
X111506000Y-112014000D03*
X114046000Y-104394000D03*
X114046000Y-112014000D03*
X111506000Y-104394000D03*
X116586000Y-112014000D03*
X108966000Y-104394000D03*
D19*
X178816000Y-61214000D03*
D18*
X186436000Y-53594000D03*
X181356000Y-61214000D03*
X183896000Y-53594000D03*
X183896000Y-61214000D03*
X181356000Y-53594000D03*
X186436000Y-61214000D03*
X178816000Y-53594000D03*
D19*
X108966000Y-125984000D03*
D18*
X116586000Y-118364000D03*
X111506000Y-125984000D03*
X114046000Y-118364000D03*
X114046000Y-125984000D03*
X111506000Y-118364000D03*
X116586000Y-125984000D03*
X108966000Y-118364000D03*
D19*
X117856000Y-61214000D03*
D18*
X125476000Y-53594000D03*
X120396000Y-61214000D03*
X122936000Y-53594000D03*
X122936000Y-61214000D03*
X120396000Y-53594000D03*
X125476000Y-61214000D03*
X117856000Y-53594000D03*
D20*
X171706000Y-73914000D03*
X171706000Y-78914000D03*
X171706000Y-68914000D03*
X160526000Y-73914000D03*
X160526000Y-68914000D03*
X160526000Y-78914000D03*
X117346000Y-73914000D03*
X117346000Y-68914000D03*
X117346000Y-78914000D03*
D14*
X98806000Y-129794000D03*
X98806000Y-139954000D03*
X190246000Y-52324000D03*
X190246000Y-62484000D03*
X185206000Y-86614000D03*
X190206000Y-86614000D03*
X168656000Y-59904000D03*
X168656000Y-54904000D03*
X97536000Y-124674000D03*
X97536000Y-119674000D03*
X155956000Y-54904000D03*
X155956000Y-59904000D03*
X152146000Y-54904000D03*
X152146000Y-59904000D03*
X153416000Y-89194000D03*
X153416000Y-94194000D03*
X143256000Y-94194000D03*
X143256000Y-89194000D03*
X125476000Y-94194000D03*
X125476000Y-89194000D03*
X115316000Y-94194000D03*
X115316000Y-89194000D03*
X97536000Y-94194000D03*
X97536000Y-89194000D03*
X131826000Y-76414000D03*
X131826000Y-71414000D03*
X114046000Y-54904000D03*
X114046000Y-59904000D03*
X101346000Y-59904000D03*
X101346000Y-54904000D03*
X96266000Y-54904000D03*
X96266000Y-59904000D03*
X89916000Y-66334000D03*
X89916000Y-71334000D03*
D21*
X164846000Y-101854000D02*
X164846000Y-112014000D01*
X164846000Y-117094000D02*
X164846000Y-127254000D01*
X125476000Y-100584000D02*
X135636000Y-100584000D01*
X152146000Y-112014000D02*
X162306000Y-112014000D01*
X161036000Y-65024000D02*
X171196000Y-65024000D01*
X126746000Y-49784000D02*
X116586000Y-49784000D01*
X105156000Y-108204000D02*
X105156000Y-118364000D01*
X120396000Y-117094000D02*
X120396000Y-127254000D01*
X126746000Y-65024000D02*
X136906000Y-65024000D01*
X152146000Y-82804000D02*
X162306000Y-82804000D01*
X167386000Y-84074000D02*
X177546000Y-84074000D01*
X167386000Y-84074000D02*
X162306000Y-82804000D01*
X144526000Y-117094000D02*
X144526000Y-127254000D01*
M02*
