M48
; DRILL file {KiCad (5.1.4)-1} date 2019-09-26 03:04:36
; FORMAT={-:-/ absolute / metric / decimal}
; #@! TF.CreationDate,2019-09-26T03:04:36+02:00
; #@! TF.GenerationSoftware,Kicad,Pcbnew,(5.1.4)-1
; #@! TF.FileFunction,Plated,1,2,PTH
FMAT,2
METRIC
T1C0.600
T2C0.800
T3C1.000
T4C1.200
%
G90
G05
T1
X95.516Y-63.754
X97.016Y-63.754
X159.766Y-57.404
X162.306Y-54.864
X164.846Y-57.404
X91.186Y-126.004
X91.186Y-128.504
X124.206Y-134.874
X126.746Y-137.414
X129.286Y-134.874
T2
X135.636Y-86.614
X135.636Y-96.774
X116.586Y-49.784
X126.746Y-49.784
X139.446Y-104.394
X139.446Y-112.014
X141.986Y-104.394
X141.986Y-112.014
X144.526Y-104.394
X144.526Y-112.014
X147.066Y-104.394
X147.066Y-112.014
X117.856Y-129.794
X117.856Y-139.954
X185.206Y-86.614
X190.206Y-86.614
X114.046Y-54.904
X114.046Y-59.904
X120.396Y-129.794
X120.396Y-139.954
X163.576Y-68.834
X163.576Y-78.994
X108.966Y-52.324
X108.966Y-62.484
X141.986Y-52.324
X141.986Y-62.484
X91.186Y-52.324
X91.186Y-62.484
X133.096Y-129.794
X133.096Y-139.954
X172.466Y-52.324
X172.466Y-62.484
X93.726Y-86.614
X93.726Y-96.774
X101.346Y-129.794
X101.346Y-139.954
X166.116Y-68.834
X166.116Y-78.994
X130.556Y-53.594
X130.556Y-61.214
X133.096Y-53.594
X133.096Y-61.214
X135.636Y-53.594
X135.636Y-61.214
X138.176Y-53.594
X138.176Y-61.214
X143.256Y-89.194
X143.256Y-94.194
X101.346Y-86.614
X101.346Y-96.774
X125.476Y-100.584
X135.636Y-100.584
X149.606Y-86.614
X149.606Y-96.774
X152.146Y-54.904
X152.146Y-59.904
X131.826Y-86.614
X131.826Y-96.774
X144.526Y-117.094
X144.526Y-127.254
X101.346Y-117.094
X101.346Y-127.254
X129.286Y-86.614
X129.286Y-96.774
X192.786Y-52.324
X192.786Y-62.484
X178.816Y-53.594
X178.816Y-61.214
X181.356Y-53.594
X181.356Y-61.214
X183.896Y-53.594
X183.896Y-61.214
X186.436Y-53.594
X186.436Y-61.214
X96.266Y-54.904
X96.266Y-59.904
X106.426Y-129.794
X106.426Y-139.954
X117.856Y-53.594
X117.856Y-61.214
X120.396Y-53.594
X120.396Y-61.214
X122.936Y-53.594
X122.936Y-61.214
X125.476Y-53.594
X125.476Y-61.214
X168.656Y-54.904
X168.656Y-59.904
X164.846Y-117.094
X164.846Y-127.254
X167.386Y-84.074
X177.546Y-84.074
X147.066Y-86.614
X147.066Y-96.774
X89.916Y-66.334
X89.916Y-71.334
X111.506Y-86.614
X111.506Y-96.774
X91.186Y-103.124
X91.186Y-113.284
X125.476Y-89.194
X125.476Y-94.194
X121.666Y-86.614
X121.666Y-96.774
X135.636Y-129.794
X135.636Y-139.954
X97.536Y-103.124
X97.536Y-113.284
X88.646Y-52.324
X88.646Y-62.484
X164.846Y-101.854
X164.846Y-112.014
X159.766Y-86.614
X159.766Y-96.774
X125.476Y-68.834
X125.476Y-78.994
X105.156Y-108.204
X105.156Y-118.364
X145.796Y-52.324
X145.796Y-62.484
X153.416Y-89.194
X153.416Y-94.194
X119.126Y-86.614
X119.126Y-96.774
X195.834Y-52.324
X195.834Y-62.484
X157.226Y-86.614
X157.226Y-96.774
X121.666Y-104.394
X121.666Y-112.014
X124.206Y-104.394
X124.206Y-112.014
X126.746Y-104.394
X126.746Y-112.014
X129.286Y-104.394
X129.286Y-112.014
X131.826Y-104.394
X131.826Y-112.014
X152.146Y-82.804
X162.306Y-82.804
X103.886Y-86.614
X103.886Y-96.774
X152.146Y-112.014
X162.306Y-112.014
X108.966Y-118.364
X108.966Y-125.984
X111.506Y-118.364
X111.506Y-125.984
X114.046Y-118.364
X114.046Y-125.984
X116.586Y-118.364
X116.586Y-125.984
X124.206Y-122.174
X126.746Y-122.174
X129.286Y-122.174
X111.506Y-129.794
X111.506Y-139.954
X93.726Y-103.124
X93.726Y-113.284
X101.346Y-54.904
X101.346Y-59.904
X139.446Y-86.614
X139.446Y-96.774
X168.656Y-68.834
X168.656Y-78.994
X131.826Y-71.414
X131.826Y-76.414
X111.506Y-52.324
X111.506Y-62.484
X175.006Y-52.324
X175.006Y-62.484
X115.316Y-89.194
X115.316Y-94.194
X107.696Y-86.614
X107.696Y-96.774
X126.746Y-65.024
X136.906Y-65.024
X100.076Y-103.124
X100.076Y-113.284
X155.956Y-54.904
X155.956Y-59.904
X97.536Y-89.194
X97.536Y-94.194
X106.426Y-52.324
X106.426Y-62.484
X120.396Y-117.094
X120.396Y-127.254
X148.336Y-52.324
X148.336Y-62.484
X97.536Y-119.674
X97.536Y-124.674
X128.016Y-68.834
X128.016Y-78.994
X161.036Y-65.024
X171.196Y-65.024
X96.266Y-129.794
X96.266Y-139.954
X108.966Y-104.394
X108.966Y-112.014
X111.506Y-104.394
X111.506Y-112.014
X114.046Y-104.394
X114.046Y-112.014
X116.586Y-104.394
X116.586Y-112.014
T3
X89.916Y-73.914
X94.996Y-71.374
X91.186Y-120.904
X98.806Y-129.794
X98.806Y-139.954
X91.186Y-117.094
X92.456Y-73.914
X91.186Y-139.954
X190.246Y-52.324
X190.246Y-62.484
T4
X117.346Y-68.914
X117.346Y-73.914
X117.346Y-78.914
X160.526Y-68.914
X160.526Y-73.914
X160.526Y-78.914
X171.706Y-68.914
X171.706Y-73.914
X171.706Y-78.914
T0
M30
