G04 #@! TF.GenerationSoftware,KiCad,Pcbnew,(5.99.0-1918-g94cd0cf3a)*
G04 #@! TF.CreationDate,2020-06-14T11:31:57+02:00*
G04 #@! TF.ProjectId,#410-000-S1A - Switching PCB [DPDT_ Latching],23343130-2d30-4303-902d-533141202d20,rev?*
G04 #@! TF.SameCoordinates,PX8b48bd0PY55fe290*
G04 #@! TF.FileFunction,Legend,Top*
G04 #@! TF.FilePolarity,Positive*
%FSLAX46Y46*%
G04 Gerber Fmt 4.6, Leading zero omitted, Abs format (unit mm)*
G04 Created by KiCad (PCBNEW (5.99.0-1918-g94cd0cf3a)) date 2020-06-14 11:31:57*
%MOMM*%
%LPD*%
G01*
G04 APERTURE LIST*
%ADD10C,0.152400*%
G04 APERTURE END LIST*
D10*
X-445105Y-3754361D02*
X135466Y-3754361D01*
X251580Y-3793066D01*
X328990Y-3870476D01*
X367695Y-3986590D01*
X367695Y-4064000D01*
X367695Y-2980266D02*
X367695Y-3367314D01*
X-445105Y-3367314D01*
X290285Y-2244876D02*
X328990Y-2283580D01*
X367695Y-2399695D01*
X367695Y-2477104D01*
X328990Y-2593219D01*
X251580Y-2670628D01*
X174171Y-2709333D01*
X19352Y-2748038D01*
X-96762Y-2748038D01*
X-251581Y-2709333D01*
X-328991Y-2670628D01*
X-406400Y-2593219D01*
X-445105Y-2477104D01*
X-445105Y-2399695D01*
X-406400Y-2283580D01*
X-367696Y-2244876D01*
X-445105Y-1664304D02*
X135466Y-1664304D01*
X251580Y-1703009D01*
X328990Y-1780419D01*
X367695Y-1896533D01*
X367695Y-1973942D01*
X367695Y-890209D02*
X367695Y-1277257D01*
X-445105Y-1277257D01*
X290285Y-154819D02*
X328990Y-193523D01*
X367695Y-309638D01*
X367695Y-387047D01*
X328990Y-503161D01*
X251580Y-580571D01*
X174171Y-619276D01*
X19352Y-657980D01*
X-96762Y-657980D01*
X-251581Y-619276D01*
X-328991Y-580571D01*
X-406400Y-503161D01*
X-445105Y-387047D01*
X-445105Y-309638D01*
X-406400Y-193523D01*
X-367696Y-154819D01*
X-445105Y425753D02*
X135466Y425753D01*
X251580Y387048D01*
X328990Y309639D01*
X367695Y193524D01*
X367695Y116115D01*
X367695Y1199848D02*
X367695Y812800D01*
X-445105Y812800D01*
X290285Y1935239D02*
X328990Y1896534D01*
X367695Y1780420D01*
X367695Y1703010D01*
X328990Y1586896D01*
X251580Y1509486D01*
X174171Y1470781D01*
X19352Y1432077D01*
X-96762Y1432077D01*
X-251581Y1470781D01*
X-328991Y1509486D01*
X-406400Y1586896D01*
X-445105Y1703010D01*
X-445105Y1780420D01*
X-406400Y1896534D01*
X-367696Y1935239D01*
X-445105Y2515810D02*
X135466Y2515810D01*
X251580Y2477105D01*
X328990Y2399696D01*
X367695Y2283581D01*
X367695Y2206172D01*
X367695Y3289905D02*
X367695Y2902858D01*
X-445105Y2902858D01*
X290285Y4025296D02*
X328990Y3986591D01*
X367695Y3870477D01*
X367695Y3793067D01*
X328990Y3676953D01*
X251580Y3599543D01*
X174171Y3560839D01*
X19352Y3522134D01*
X-96762Y3522134D01*
X-251581Y3560839D01*
X-328991Y3599543D01*
X-406400Y3676953D01*
X-445105Y3793067D01*
X-445105Y3870477D01*
X-406400Y3986591D01*
X-367696Y4025296D01*
M02*
