M48
; DRILL file {KiCad (5.99.0-1918-g94cd0cf3a)} date 06/14/20 11:31:59
; FORMAT={-:-/ absolute / inch / decimal}
; #@! TF.CreationDate,2020-06-14T11:31:59+02:00
; #@! TF.GenerationSoftware,Kicad,Pcbnew,(5.99.0-1918-g94cd0cf3a)
; #@! TF.FileFunction,NonPlated,1,2,NPTH
FMAT,2
INCH
T1C0.0394
%
G90
G05
T1
G00X-0.3984Y0.2075
M15
G01X-0.3591Y0.2075
M16
G05
G00X-0.3984Y0.05
M15
G01X-0.3591Y0.05
M16
G05
G00X-0.3984Y-0.05
M15
G01X-0.3591Y-0.05
M16
G05
G00X0.3591Y0.2075
M15
G01X0.3984Y0.2075
M16
G05
G00X0.3591Y0.05
M15
G01X0.3984Y0.05
M16
G05
G00X0.3591Y-0.05
M15
G01X0.3984Y-0.05
M16
G05
G00X0.3591Y-0.1075
M15
G01X0.3984Y-0.1075
M16
G05
G00X0.3591Y-0.2075
M15
G01X0.3984Y-0.2075
M16
G05
G00X0.3591Y0.1075
M15
G01X0.3984Y0.1075
M16
G05
G00X-0.3984Y-0.1075
M15
G01X-0.3591Y-0.1075
M16
G05
G00X-0.3984Y-0.2075
M15
G01X-0.3591Y-0.2075
M16
G05
G00X-0.3984Y0.1075
M15
G01X-0.3591Y0.1075
M16
G05
T0
M30
