<?xml version="1.0" standalone="no"?>
 <!DOCTYPE svg PUBLIC "-//W3C//DTD SVG 1.1//EN" 
 "http://www.w3.org/Graphics/SVG/1.1/DTD/svg11.dtd"> 
<svg xmlns="http://www.w3.org/2000/svg" version="1.1" 
    width="29.7002cm" height="21.0007cm" viewBox="0 0 116930 82680 ">
<title>SVG Picture created as #410-000-S1A - Switching PCB [DPDT, Latching].svg date 2020/01/07 17:12:59 </title>
  <desc>Picture generated by Eeschema-SVG </desc>
<g style="fill:#000000; fill-opacity:1;stroke:#000000; stroke-opacity:1;
stroke-linecap:round; stroke-linejoin:round; "
 transform="translate(0 0) scale(1 1)">
</g>
<g style="fill:#000000; fill-opacity:0.0; 
stroke:#000000; stroke-width:0; stroke-opacity:1; 
stroke-linecap:round; stroke-linejoin:round;">
<g >
</g>
<g style="fill:#840000; fill-opacity:0.0; 
stroke:#840000; stroke-width:0; stroke-opacity:1; 
stroke-linecap:round; stroke-linejoin:round;">
</g>
<g style="fill:#840000; fill-opacity:0.0; 
stroke:#840000; stroke-width:60; stroke-opacity:1; 
stroke-linecap:round; stroke-linejoin:round;">
<circle cx="54700" cy="41500" r="200" /> 
<circle cx="56300" cy="42500" r="200" /> 
<circle cx="56300" cy="40500" r="200" /> 
<path style="fill:#840000; fill-opacity:0.0; 
stroke:#840000; stroke-width:60; stroke-opacity:1; 
stroke-linecap:round; stroke-linejoin:round;fill:none"
d="M 54900,41400
56150,40600
Z" /> 
<path d="M56500 40500
L57500 40500
" />
<path d="M57090 40740
L57090 41070
" />
<path d="M56970 40550
L56850 40900
L57160 40900
" />
<path d="M54500 41500
L53500 41500
" />
<path d="M54110 41570
L53880 41570
L53850 41810
L53880 41790
L53920 41760
L54040 41760
L54090 41790
L54110 41810
L54140 41860
L54140 41980
L54110 42020
L54090 42050
L54040 42070
L53920 42070
L53880 42050
L53850 42020
" />
<path d="M56500 42500
L57500 42500
" />
<path d="M57090 42570
L57000 42570
L56950 42600
L56920 42620
L56880 42690
L56850 42790
L56850 42980
L56880 43020
L56900 43050
L56950 43070
L57040 43070
L57090 43050
L57110 43020
L57140 42980
L57140 42860
L57110 42810
L57090 42790
L57040 42760
L56950 42760
L56900 42790
L56880 42810
L56850 42860
" />
</g>
<g style="fill:#008484; fill-opacity:0.0; 
stroke:#008484; stroke-width:60; stroke-opacity:1; 
stroke-linecap:round; stroke-linejoin:round;">
<path d="M54580 38220
L54650 38240
L54770 38240
L54820 38220
L54840 38190
L54860 38150
L54860 38100
L54840 38050
L54820 38030
L54770 38000
L54670 37980
L54630 37960
L54600 37930
L54580 37880
L54580 37840
L54600 37790
L54630 37770
L54670 37740
L54790 37740
L54860 37770
" />
<path d="M55030 37740
L55150 38240
L55250 37880
L55340 38240
L55460 37740
" />
<path d="M55910 38240
L55630 38240
" />
<path d="M55770 38240
L55770 37740
L55720 37810
L55670 37860
L55630 37880
" />
<path d="M56290 37980
L56360 38000
L56390 38030
L56410 38070
L56410 38150
L56390 38190
L56360 38220
L56320 38240
L56130 38240
L56130 37740
L56290 37740
L56340 37770
L56360 37790
L56390 37840
L56390 37880
L56360 37930
L56340 37960
L56290 37980
L56130 37980
" />
<path d="M49900 39220
L49970 39240
L50090 39240
L50140 39220
L50160 39190
L50190 39150
L50190 39100
L50160 39050
L50140 39030
L50090 39000
L50000 38980
L49950 38960
L49920 38930
L49900 38880
L49900 38840
L49920 38790
L49950 38770
L50000 38740
L50110 38740
L50190 38770
" />
<path d="M50570 38980
L50400 38980
" />
<path d="M50400 39240
L50400 38740
L50640 38740
" />
<path d="M51090 39240
L50800 39240
" />
<path d="M50950 39240
L50950 38740
L50900 38810
L50850 38860
L50800 38880
" />
<path d="M51280 38790
L51300 38770
L51350 38740
L51470 38740
L51520 38770
L51540 38790
L51570 38840
L51570 38880
L51540 38960
L51260 39240
L51570 39240
" />
<path d="M51880 38740
L51920 38740
L51970 38770
L52000 38790
L52020 38840
L52040 38930
L52040 39050
L52020 39150
L52000 39190
L51970 39220
L51920 39240
L51880 39240
L51830 39220
L51800 39190
L51780 39150
L51760 39050
L51760 38930
L51780 38840
L51800 38790
L51830 38770
L51880 38740
" />
<path d="M52230 38790
L52260 38770
L52300 38740
L52420 38740
L52470 38770
L52500 38790
L52520 38840
L52520 38880
L52500 38960
L52210 39240
L52520 39240
" />
<path d="M52830 38740
L52880 38740
L52920 38770
L52950 38790
L52970 38840
L53000 38930
L53000 39050
L52970 39150
L52950 39190
L52920 39220
L52880 39240
L52830 39240
L52780 39220
L52760 39190
L52730 39150
L52710 39050
L52710 38930
L52730 38840
L52760 38790
L52780 38770
L52830 38740
" />
<path d="M53380 38980
L53210 38980
" />
<path d="M53210 39240
L53210 38740
L53450 38740
" />
<path d="M53640 39050
L54020 39050
" />
<path d="M54350 38740
L54400 38740
L54450 38770
L54470 38790
L54500 38840
L54520 38930
L54520 39050
L54500 39150
L54470 39190
L54450 39220
L54400 39240
L54350 39240
L54300 39220
L54280 39190
L54260 39150
L54230 39050
L54230 38930
L54260 38840
L54280 38790
L54300 38770
L54350 38740
" />
<path d="M54710 38790
L54730 38770
L54780 38740
L54900 38740
L54950 38770
L54970 38790
L55000 38840
L55000 38880
L54970 38960
L54690 39240
L55000 39240
" />
<path d="M55300 38740
L55350 38740
L55400 38770
L55420 38790
L55450 38840
L55470 38930
L55470 39050
L55450 39150
L55420 39190
L55400 39220
L55350 39240
L55300 39240
L55260 39220
L55230 39190
L55210 39150
L55190 39050
L55190 38930
L55210 38840
L55230 38790
L55260 38770
L55300 38740
" />
<path d="M55660 38790
L55690 38770
L55730 38740
L55850 38740
L55900 38770
L55920 38790
L55950 38840
L55950 38880
L55920 38960
L55640 39240
L55950 39240
" />
<path d="M56160 39050
L56540 39050
" />
<path d="M56760 38790
L56780 38770
L56830 38740
L56950 38740
L57000 38770
L57020 38790
L57040 38840
L57040 38880
L57020 38960
L56730 39240
L57040 39240
" />
<path d="M57350 38740
L57400 38740
L57450 38770
L57470 38790
L57500 38840
L57520 38930
L57520 39050
L57500 39150
L57470 39190
L57450 39220
L57400 39240
L57350 39240
L57300 39220
L57280 39190
L57260 39150
L57230 39050
L57230 38930
L57260 38840
L57280 38790
L57300 38770
L57350 38740
" />
<path d="M58020 39240
L57850 39000
" />
<path d="M57730 39240
L57730 38740
L57920 38740
L57970 38770
L58000 38790
L58020 38840
L58020 38910
L58000 38960
L57970 38980
L57920 39000
L57730 39000
" />
<path d="M58230 39050
L58610 39050
" />
<path d="M59090 39240
L58850 39240
L58850 38740
" />
<path d="M59260 39050
L59640 39050
" />
<path d="M59970 38740
L60020 38740
L60070 38770
L60090 38790
L60110 38840
L60140 38930
L60140 39050
L60110 39150
L60090 39190
L60070 39220
L60020 39240
L59970 39240
L59920 39220
L59900 39190
L59880 39150
L59850 39050
L59850 38930
L59880 38840
L59900 38790
L59920 38770
L59970 38740
" />
<path d="M60610 39240
L60330 39240
" />
<path d="M60470 39240
L60470 38740
L60420 38810
L60380 38860
L60330 38880
" />
<path d="M61090 39240
L60800 39240
" />
<path d="M60950 39240
L60950 38740
L60900 38810
L60850 38860
L60800 38880
" />
</g>
</g>
<g style="fill:#008484; fill-opacity:0.0; 
stroke:#008484; stroke-width:0; stroke-opacity:1; 
stroke-linecap:round; stroke-linejoin:round;">
<g >
</g>
<g style="fill:#840000; fill-opacity:0.0; 
stroke:#840000; stroke-width:0; stroke-opacity:1; 
stroke-linecap:round; stroke-linejoin:round;">
</g>
<g style="fill:#FFFFC2; fill-opacity:0.0; 
stroke:#FFFFC2; stroke-width:0; stroke-opacity:1; 
stroke-linecap:round; stroke-linejoin:round;">
</g>
<g style="fill:#FFFFC2; fill-opacity:0.6; 
stroke:#FFFFC2; stroke-width:0; stroke-opacity:1; 
stroke-linecap:round; stroke-linejoin:round;">
<circle cx="82500" cy="43000" r="500" /> 
</g>
<g style="fill:#840000; fill-opacity:0.6; 
stroke:#840000; stroke-width:0; stroke-opacity:1; 
stroke-linecap:round; stroke-linejoin:round;">
</g>
<g style="fill:#840000; fill-opacity:0.0; 
stroke:#840000; stroke-width:60; stroke-opacity:1; 
stroke-linecap:round; stroke-linejoin:round;">
<circle cx="82500" cy="43000" r="500" /> 
</g>
<g style="fill:#008484; fill-opacity:0.0; 
stroke:#008484; stroke-width:60; stroke-opacity:1; 
stroke-linecap:round; stroke-linejoin:round;">
<path d="M83420 42780
L83420 42280
" />
<path d="M83420 42520
L83710 42520
" />
<path d="M83710 42780
L83710 42280
" />
<path d="M84160 42280
L84070 42280
L84020 42310
L84000 42330
L83950 42400
L83920 42500
L83920 42690
L83950 42730
L83970 42760
L84020 42780
L84110 42780
L84160 42760
L84190 42730
L84210 42690
L84210 42570
L84190 42520
L84160 42500
L84110 42470
L84020 42470
L83970 42500
L83950 42520
L83920 42570
" />
<path d="M83420 43690
L83420 43190
L83710 43690
L83710 43190
" />
<path d="M83940 43690
L83940 43190
L84130 43190
L84180 43220
L84210 43240
L84230 43290
L84230 43360
L84210 43410
L84180 43430
L84130 43450
L83940 43450
" />
<path d="M84370 43190
L84660 43190
" />
<path d="M84520 43690
L84520 43190
" />
<path d="M84820 43690
L84820 43190
" />
<path d="M84820 43430
L85110 43430
" />
<path d="M85110 43690
L85110 43190
" />
</g>
</g>
<g style="fill:#008484; fill-opacity:0.0; 
stroke:#008484; stroke-width:0; stroke-opacity:1; 
stroke-linecap:round; stroke-linejoin:round;">
<g >
</g>
<g style="fill:#840000; fill-opacity:0.0; 
stroke:#840000; stroke-width:0; stroke-opacity:1; 
stroke-linecap:round; stroke-linejoin:round;">
</g>
<g style="fill:#FFFFC2; fill-opacity:0.0; 
stroke:#FFFFC2; stroke-width:0; stroke-opacity:1; 
stroke-linecap:round; stroke-linejoin:round;">
</g>
<g style="fill:#FFFFC2; fill-opacity:0.6; 
stroke:#FFFFC2; stroke-width:0; stroke-opacity:1; 
stroke-linecap:round; stroke-linejoin:round;">
<circle cx="82500" cy="40500" r="500" /> 
</g>
<g style="fill:#840000; fill-opacity:0.6; 
stroke:#840000; stroke-width:0; stroke-opacity:1; 
stroke-linecap:round; stroke-linejoin:round;">
</g>
<g style="fill:#840000; fill-opacity:0.0; 
stroke:#840000; stroke-width:60; stroke-opacity:1; 
stroke-linecap:round; stroke-linejoin:round;">
<circle cx="82500" cy="40500" r="500" /> 
</g>
<g style="fill:#008484; fill-opacity:0.0; 
stroke:#008484; stroke-width:60; stroke-opacity:1; 
stroke-linecap:round; stroke-linejoin:round;">
<path d="M83420 40280
L83420 39780
" />
<path d="M83420 40020
L83710 40020
" />
<path d="M83710 40280
L83710 39780
" />
<path d="M84190 39780
L83950 39780
L83920 40020
L83950 40000
L84000 39970
L84110 39970
L84160 40000
L84190 40020
L84210 40070
L84210 40190
L84190 40230
L84160 40260
L84110 40280
L84000 40280
L83950 40260
L83920 40230
" />
<path d="M83420 41190
L83420 40690
L83710 41190
L83710 40690
" />
<path d="M83940 41190
L83940 40690
L84130 40690
L84180 40720
L84210 40740
L84230 40790
L84230 40860
L84210 40910
L84180 40930
L84130 40950
L83940 40950
" />
<path d="M84370 40690
L84660 40690
" />
<path d="M84520 41190
L84520 40690
" />
<path d="M84820 41190
L84820 40690
" />
<path d="M84820 40930
L85110 40930
" />
<path d="M85110 41190
L85110 40690
" />
</g>
</g>
<g style="fill:#008484; fill-opacity:0.0; 
stroke:#008484; stroke-width:0; stroke-opacity:1; 
stroke-linecap:round; stroke-linejoin:round;">
<g >
</g>
<g style="fill:#840000; fill-opacity:0.0; 
stroke:#840000; stroke-width:0; stroke-opacity:1; 
stroke-linecap:round; stroke-linejoin:round;">
</g>
<g style="fill:#FFFFC2; fill-opacity:0.0; 
stroke:#FFFFC2; stroke-width:0; stroke-opacity:1; 
stroke-linecap:round; stroke-linejoin:round;">
</g>
<g style="fill:#FFFFC2; fill-opacity:0.6; 
stroke:#FFFFC2; stroke-width:0; stroke-opacity:1; 
stroke-linecap:round; stroke-linejoin:round;">
<circle cx="82500" cy="38000" r="500" /> 
</g>
<g style="fill:#840000; fill-opacity:0.6; 
stroke:#840000; stroke-width:0; stroke-opacity:1; 
stroke-linecap:round; stroke-linejoin:round;">
</g>
<g style="fill:#840000; fill-opacity:0.0; 
stroke:#840000; stroke-width:60; stroke-opacity:1; 
stroke-linecap:round; stroke-linejoin:round;">
<circle cx="82500" cy="38000" r="500" /> 
</g>
<g style="fill:#008484; fill-opacity:0.0; 
stroke:#008484; stroke-width:60; stroke-opacity:1; 
stroke-linecap:round; stroke-linejoin:round;">
<path d="M83420 37780
L83420 37280
" />
<path d="M83420 37520
L83710 37520
" />
<path d="M83710 37780
L83710 37280
" />
<path d="M84160 37450
L84160 37780
" />
<path d="M84040 37260
L83920 37610
L84230 37610
" />
<path d="M83420 38690
L83420 38190
L83710 38690
L83710 38190
" />
<path d="M83940 38690
L83940 38190
L84130 38190
L84180 38220
L84210 38240
L84230 38290
L84230 38360
L84210 38410
L84180 38430
L84130 38450
L83940 38450
" />
<path d="M84370 38190
L84660 38190
" />
<path d="M84520 38690
L84520 38190
" />
<path d="M84820 38690
L84820 38190
" />
<path d="M84820 38430
L85110 38430
" />
<path d="M85110 38690
L85110 38190
" />
</g>
</g>
<g style="fill:#008484; fill-opacity:0.0; 
stroke:#008484; stroke-width:0; stroke-opacity:1; 
stroke-linecap:round; stroke-linejoin:round;">
<g >
</g>
<g style="fill:#840000; fill-opacity:0.0; 
stroke:#840000; stroke-width:0; stroke-opacity:1; 
stroke-linecap:round; stroke-linejoin:round;">
</g>
<g style="fill:#FFFFC2; fill-opacity:0.0; 
stroke:#FFFFC2; stroke-width:0; stroke-opacity:1; 
stroke-linecap:round; stroke-linejoin:round;">
</g>
<g style="fill:#FFFFC2; fill-opacity:0.6; 
stroke:#FFFFC2; stroke-width:0; stroke-opacity:1; 
stroke-linecap:round; stroke-linejoin:round;">
<circle cx="82500" cy="35500" r="500" /> 
</g>
<g style="fill:#840000; fill-opacity:0.6; 
stroke:#840000; stroke-width:0; stroke-opacity:1; 
stroke-linecap:round; stroke-linejoin:round;">
</g>
<g style="fill:#840000; fill-opacity:0.0; 
stroke:#840000; stroke-width:60; stroke-opacity:1; 
stroke-linecap:round; stroke-linejoin:round;">
<circle cx="82500" cy="35500" r="500" /> 
</g>
<g style="fill:#008484; fill-opacity:0.0; 
stroke:#008484; stroke-width:60; stroke-opacity:1; 
stroke-linecap:round; stroke-linejoin:round;">
<path d="M83420 35280
L83420 34780
" />
<path d="M83420 35020
L83710 35020
" />
<path d="M83710 35280
L83710 34780
" />
<path d="M83900 34780
L84210 34780
L84040 34970
L84110 34970
L84160 35000
L84190 35020
L84210 35070
L84210 35190
L84190 35230
L84160 35260
L84110 35280
L83970 35280
L83920 35260
L83900 35230
" />
<path d="M83420 36190
L83420 35690
L83710 36190
L83710 35690
" />
<path d="M83940 36190
L83940 35690
L84130 35690
L84180 35720
L84210 35740
L84230 35790
L84230 35860
L84210 35910
L84180 35930
L84130 35950
L83940 35950
" />
<path d="M84370 35690
L84660 35690
" />
<path d="M84520 36190
L84520 35690
" />
<path d="M84820 36190
L84820 35690
" />
<path d="M84820 35930
L85110 35930
" />
<path d="M85110 36190
L85110 35690
" />
</g>
</g>
<g style="fill:#008484; fill-opacity:0.0; 
stroke:#008484; stroke-width:0; stroke-opacity:1; 
stroke-linecap:round; stroke-linejoin:round;">
<g >
</g>
<g style="fill:#840000; fill-opacity:0.0; 
stroke:#840000; stroke-width:0; stroke-opacity:1; 
stroke-linecap:round; stroke-linejoin:round;">
</g>
<g style="fill:#FFFFC2; fill-opacity:0.0; 
stroke:#FFFFC2; stroke-width:0; stroke-opacity:1; 
stroke-linecap:round; stroke-linejoin:round;">
</g>
<g style="fill:#FFFFC2; fill-opacity:0.6; 
stroke:#FFFFC2; stroke-width:0; stroke-opacity:1; 
stroke-linecap:round; stroke-linejoin:round;">
<circle cx="82500" cy="33000" r="500" /> 
</g>
<g style="fill:#840000; fill-opacity:0.6; 
stroke:#840000; stroke-width:0; stroke-opacity:1; 
stroke-linecap:round; stroke-linejoin:round;">
</g>
<g style="fill:#840000; fill-opacity:0.0; 
stroke:#840000; stroke-width:60; stroke-opacity:1; 
stroke-linecap:round; stroke-linejoin:round;">
<circle cx="82500" cy="33000" r="500" /> 
</g>
<g style="fill:#008484; fill-opacity:0.0; 
stroke:#008484; stroke-width:60; stroke-opacity:1; 
stroke-linecap:round; stroke-linejoin:round;">
<path d="M83420 32780
L83420 32280
" />
<path d="M83420 32520
L83710 32520
" />
<path d="M83710 32780
L83710 32280
" />
<path d="M83920 32330
L83950 32310
L84000 32280
L84110 32280
L84160 32310
L84190 32330
L84210 32380
L84210 32420
L84190 32500
L83900 32780
L84210 32780
" />
<path d="M83420 33690
L83420 33190
L83710 33690
L83710 33190
" />
<path d="M83940 33690
L83940 33190
L84130 33190
L84180 33220
L84210 33240
L84230 33290
L84230 33360
L84210 33410
L84180 33430
L84130 33450
L83940 33450
" />
<path d="M84370 33190
L84660 33190
" />
<path d="M84520 33690
L84520 33190
" />
<path d="M84820 33690
L84820 33190
" />
<path d="M84820 33430
L85110 33430
" />
<path d="M85110 33690
L85110 33190
" />
</g>
</g>
<g style="fill:#008484; fill-opacity:0.0; 
stroke:#008484; stroke-width:0; stroke-opacity:1; 
stroke-linecap:round; stroke-linejoin:round;">
<g >
</g>
<g style="fill:#840000; fill-opacity:0.0; 
stroke:#840000; stroke-width:0; stroke-opacity:1; 
stroke-linecap:round; stroke-linejoin:round;">
</g>
<g style="fill:#FFFFC2; fill-opacity:0.0; 
stroke:#FFFFC2; stroke-width:0; stroke-opacity:1; 
stroke-linecap:round; stroke-linejoin:round;">
</g>
<g style="fill:#FFFFC2; fill-opacity:0.6; 
stroke:#FFFFC2; stroke-width:0; stroke-opacity:1; 
stroke-linecap:round; stroke-linejoin:round;">
<circle cx="82500" cy="30500" r="500" /> 
</g>
<g style="fill:#840000; fill-opacity:0.6; 
stroke:#840000; stroke-width:0; stroke-opacity:1; 
stroke-linecap:round; stroke-linejoin:round;">
</g>
<g style="fill:#840000; fill-opacity:0.0; 
stroke:#840000; stroke-width:60; stroke-opacity:1; 
stroke-linecap:round; stroke-linejoin:round;">
<circle cx="82500" cy="30500" r="500" /> 
</g>
<g style="fill:#008484; fill-opacity:0.0; 
stroke:#008484; stroke-width:60; stroke-opacity:1; 
stroke-linecap:round; stroke-linejoin:round;">
<path d="M83420 30280
L83420 29780
" />
<path d="M83420 30020
L83710 30020
" />
<path d="M83710 30280
L83710 29780
" />
<path d="M84210 30280
L83920 30280
" />
<path d="M84070 30280
L84070 29780
L84020 29850
L83970 29900
L83920 29920
" />
<path d="M83420 31190
L83420 30690
L83710 31190
L83710 30690
" />
<path d="M83940 31190
L83940 30690
L84130 30690
L84180 30720
L84210 30740
L84230 30790
L84230 30860
L84210 30910
L84180 30930
L84130 30950
L83940 30950
" />
<path d="M84370 30690
L84660 30690
" />
<path d="M84520 31190
L84520 30690
" />
<path d="M84820 31190
L84820 30690
" />
<path d="M84820 30930
L85110 30930
" />
<path d="M85110 31190
L85110 30690
" />
</g>
</g>
<g style="fill:#008484; fill-opacity:0.0; 
stroke:#008484; stroke-width:0; stroke-opacity:1; 
stroke-linecap:round; stroke-linejoin:round;">
<g >
</g>
<g style="fill:#840000; fill-opacity:0.0; 
stroke:#840000; stroke-width:0; stroke-opacity:1; 
stroke-linecap:round; stroke-linejoin:round;">
</g>
<g style="fill:#FFFFC2; fill-opacity:0.0; 
stroke:#FFFFC2; stroke-width:0; stroke-opacity:1; 
stroke-linecap:round; stroke-linejoin:round;">
</g>
<g style="fill:#FFFFC2; fill-opacity:0.6; 
stroke:#FFFFC2; stroke-width:0; stroke-opacity:1; 
stroke-linecap:round; stroke-linejoin:round;">
<rect x="42500" y="31000" width="1000" height="1000" rx="0" />
</g>
<g style="fill:#840000; fill-opacity:0.6; 
stroke:#840000; stroke-width:0; stroke-opacity:1; 
stroke-linecap:round; stroke-linejoin:round;">
</g>
<g style="fill:#840000; fill-opacity:0.0; 
stroke:#840000; stroke-width:100; stroke-opacity:1; 
stroke-linecap:round; stroke-linejoin:round;">
<rect x="42500" y="31000" width="1000" height="1000" rx="0" />
</g>
<g style="fill:#840000; fill-opacity:0.0; 
stroke:#840000; stroke-width:60; stroke-opacity:1; 
stroke-linecap:round; stroke-linejoin:round;">
<rect x="43000" y="31450" width="500" height="100" rx="0" />
<path d="M43500 31500
L45000 31500
" />
<path d="M44390 31370
L44100 31370
" />
<path d="M44250 31370
L44250 30870
L44200 30940
L44150 30990
L44100 31010
" />
</g>
<g style="fill:#008484; fill-opacity:0.0; 
stroke:#008484; stroke-width:60; stroke-opacity:1; 
stroke-linecap:round; stroke-linejoin:round;">
<path d="M42640 32930
L42810 32930
" />
<path d="M42880 33190
L42640 33190
L42640 32690
L42880 32690
" />
<path d="M43070 32740
L43090 32720
L43140 32690
L43260 32690
L43310 32720
L43330 32740
L43350 32790
L43350 32830
L43330 32910
L43040 33190
L43350 33190
" />
<path d="M39890 33690
L40010 34190
L40100 33830
L40200 34190
L40320 33690
" />
<path d="M40510 34190
L40510 33690
" />
<path d="M41030 34190
L40860 33950
" />
<path d="M40740 34190
L40740 33690
L40940 33690
L40980 33720
L41010 33740
L41030 33790
L41030 33860
L41010 33910
L40980 33930
L40940 33950
L40740 33950
" />
<path d="M41250 33930
L41410 33930
" />
<path d="M41480 34190
L41250 34190
L41250 33690
L41480 33690
" />
<path d="M41580 34240
L41960 34240
" />
<path d="M42080 34190
L42080 33690
L42270 33690
L42320 33720
L42340 33740
L42360 33790
L42360 33860
L42340 33910
L42320 33930
L42270 33950
L42080 33950
" />
<path d="M42550 34050
L42790 34050
" />
<path d="M42510 34190
L42670 33690
L42840 34190
" />
<path d="M43010 34190
L43010 33690
L43130 33690
L43200 33720
L43250 33760
L43270 33810
L43290 33910
L43290 33980
L43270 34070
L43250 34120
L43200 34170
L43130 34190
L43010 34190
" />
<path d="M43390 34240
L43770 34240
" />
<path d="M44170 34140
L44150 34170
L44080 34190
L44030 34190
L43960 34170
L43910 34120
L43890 34070
L43860 33980
L43860 33910
L43890 33810
L43910 33760
L43960 33720
L44030 33690
L44080 33690
L44150 33720
L44170 33740
" />
<path d="M44480 33690
L44580 33690
L44630 33720
L44670 33760
L44700 33860
L44700 34020
L44670 34120
L44630 34170
L44580 34190
L44480 34190
L44440 34170
L44390 34120
L44360 34020
L44360 33860
L44390 33760
L44440 33720
L44480 33690
" />
<path d="M44910 34190
L44910 33690
L45080 34050
L45250 33690
L45250 34190
" />
<path d="M45360 34240
L45750 34240
" />
<path d="M45840 34050
L46080 34050
" />
<path d="M45790 34190
L45960 33690
L46130 34190
" />
</g>
</g>
<g style="fill:#008484; fill-opacity:0.0; 
stroke:#008484; stroke-width:0; stroke-opacity:1; 
stroke-linecap:round; stroke-linejoin:round;">
<g >
</g>
<g style="fill:#840000; fill-opacity:0.0; 
stroke:#840000; stroke-width:0; stroke-opacity:1; 
stroke-linecap:round; stroke-linejoin:round;">
</g>
<g style="fill:#FFFFC2; fill-opacity:0.0; 
stroke:#FFFFC2; stroke-width:0; stroke-opacity:1; 
stroke-linecap:round; stroke-linejoin:round;">
</g>
<g style="fill:#FFFFC2; fill-opacity:0.6; 
stroke:#FFFFC2; stroke-width:0; stroke-opacity:1; 
stroke-linecap:round; stroke-linejoin:round;">
<rect x="42500" y="41000" width="1000" height="1000" rx="0" />
</g>
<g style="fill:#840000; fill-opacity:0.6; 
stroke:#840000; stroke-width:0; stroke-opacity:1; 
stroke-linecap:round; stroke-linejoin:round;">
</g>
<g style="fill:#840000; fill-opacity:0.0; 
stroke:#840000; stroke-width:100; stroke-opacity:1; 
stroke-linecap:round; stroke-linejoin:round;">
<rect x="42500" y="41000" width="1000" height="1000" rx="0" />
</g>
<g style="fill:#840000; fill-opacity:0.0; 
stroke:#840000; stroke-width:60; stroke-opacity:1; 
stroke-linecap:round; stroke-linejoin:round;">
<rect x="43000" y="41450" width="500" height="100" rx="0" />
<path d="M43500 41500
L45000 41500
" />
<path d="M44390 41370
L44100 41370
" />
<path d="M44250 41370
L44250 40870
L44200 40940
L44150 40990
L44100 41010
" />
</g>
<g style="fill:#008484; fill-opacity:0.0; 
stroke:#008484; stroke-width:60; stroke-opacity:1; 
stroke-linecap:round; stroke-linejoin:round;">
<path d="M42640 42930
L42810 42930
" />
<path d="M42880 43190
L42640 43190
L42640 42690
L42880 42690
" />
<path d="M43330 42690
L43090 42690
L43070 42930
L43090 42910
L43140 42880
L43260 42880
L43310 42910
L43330 42930
L43350 42980
L43350 43100
L43330 43140
L43310 43170
L43260 43190
L43140 43190
L43090 43170
L43070 43140
" />
<path d="M39840 43690
L39960 44190
L40060 43830
L40150 44190
L40270 43690
" />
<path d="M40460 44190
L40460 43690
" />
<path d="M40990 44190
L40820 43950
" />
<path d="M40700 44190
L40700 43690
L40890 43690
L40940 43720
L40960 43740
L40990 43790
L40990 43860
L40960 43910
L40940 43930
L40890 43950
L40700 43950
" />
<path d="M41200 43930
L41370 43930
" />
<path d="M41440 44190
L41200 44190
L41200 43690
L41440 43690
" />
<path d="M41530 44240
L41910 44240
" />
<path d="M42030 44190
L42030 43690
L42220 43690
L42270 43720
L42290 43740
L42320 43790
L42320 43860
L42290 43910
L42270 43930
L42220 43950
L42030 43950
" />
<path d="M42510 44050
L42750 44050
" />
<path d="M42460 44190
L42630 43690
L42790 44190
" />
<path d="M42960 44190
L42960 43690
L43080 43690
L43150 43720
L43200 43760
L43220 43810
L43250 43910
L43250 43980
L43220 44070
L43200 44120
L43150 44170
L43080 44190
L42960 44190
" />
<path d="M43340 44240
L43720 44240
" />
<path d="M44130 44140
L44100 44170
L44030 44190
L43990 44190
L43910 44170
L43870 44120
L43840 44070
L43820 43980
L43820 43910
L43840 43810
L43870 43760
L43910 43720
L43990 43690
L44030 43690
L44100 43720
L44130 43740
" />
<path d="M44440 43690
L44530 43690
L44580 43720
L44630 43760
L44650 43860
L44650 44020
L44630 44120
L44580 44170
L44530 44190
L44440 44190
L44390 44170
L44340 44120
L44320 44020
L44320 43860
L44340 43760
L44390 43720
L44440 43690
" />
<path d="M44870 44190
L44870 43690
L45030 44050
L45200 43690
L45200 44190
" />
<path d="M45320 44240
L45700 44240
" />
<path d="M45990 43930
L46060 43950
L46080 43980
L46100 44020
L46100 44100
L46080 44140
L46060 44170
L46010 44190
L45820 44190
L45820 43690
L45990 43690
L46030 43720
L46060 43740
L46080 43790
L46080 43830
L46060 43880
L46030 43910
L45990 43930
L45820 43930
" />
</g>
</g>
<g style="fill:#008484; fill-opacity:0.0; 
stroke:#008484; stroke-width:0; stroke-opacity:1; 
stroke-linecap:round; stroke-linejoin:round;">
<g >
</g>
<g style="fill:#840000; fill-opacity:0.0; 
stroke:#840000; stroke-width:0; stroke-opacity:1; 
stroke-linecap:round; stroke-linejoin:round;">
</g>
<g style="fill:#FFFFC2; fill-opacity:0.0; 
stroke:#FFFFC2; stroke-width:0; stroke-opacity:1; 
stroke-linecap:round; stroke-linejoin:round;">
</g>
<g style="fill:#FFFFC2; fill-opacity:0.6; 
stroke:#FFFFC2; stroke-width:0; stroke-opacity:1; 
stroke-linecap:round; stroke-linejoin:round;">
<rect x="66500" y="42000" width="1000" height="1000" rx="0" />
</g>
<g style="fill:#840000; fill-opacity:0.6; 
stroke:#840000; stroke-width:0; stroke-opacity:1; 
stroke-linecap:round; stroke-linejoin:round;">
</g>
<g style="fill:#840000; fill-opacity:0.0; 
stroke:#840000; stroke-width:100; stroke-opacity:1; 
stroke-linecap:round; stroke-linejoin:round;">
<rect x="66500" y="42000" width="1000" height="1000" rx="0" />
</g>
<g style="fill:#840000; fill-opacity:0.0; 
stroke:#840000; stroke-width:60; stroke-opacity:1; 
stroke-linecap:round; stroke-linejoin:round;">
<rect x="66500" y="42450" width="500" height="100" rx="0" />
<path d="M66500 42500
L65000 42500
" />
<path d="M65890 42370
L65600 42370
" />
<path d="M65750 42370
L65750 41870
L65700 41940
L65650 41990
L65600 42010
" />
</g>
<g style="fill:#008484; fill-opacity:0.0; 
stroke:#008484; stroke-width:60; stroke-opacity:1; 
stroke-linecap:round; stroke-linejoin:round;">
<path d="M67940 42060
L68110 42060
" />
<path d="M68180 42320
L67940 42320
L67940 41820
L68180 41820
" />
<path d="M68610 41820
L68510 41820
L68460 41850
L68440 41870
L68390 41940
L68370 42040
L68370 42230
L68390 42270
L68420 42300
L68460 42320
L68560 42320
L68610 42300
L68630 42270
L68650 42230
L68650 42110
L68630 42060
L68610 42040
L68560 42010
L68460 42010
L68420 42040
L68390 42060
L68370 42110
" />
<path d="M67900 42730
L68020 43230
L68110 42870
L68210 43230
L68320 42730
" />
<path d="M68520 43230
L68520 42730
" />
<path d="M69040 43230
L68870 42990
" />
<path d="M68750 43230
L68750 42730
L68940 42730
L68990 42760
L69020 42780
L69040 42830
L69040 42900
L69020 42950
L68990 42970
L68940 42990
L68750 42990
" />
<path d="M69250 42970
L69420 42970
" />
<path d="M69490 43230
L69250 43230
L69250 42730
L69490 42730
" />
<path d="M69590 43280
L69970 43280
" />
<path d="M70090 43230
L70090 42730
L70280 42730
L70320 42760
L70350 42780
L70370 42830
L70370 42900
L70350 42950
L70320 42970
L70280 42990
L70090 42990
" />
<path d="M70560 43090
L70800 43090
" />
<path d="M70520 43230
L70680 42730
L70850 43230
" />
<path d="M71020 43230
L71020 42730
L71130 42730
L71210 42760
L71250 42800
L71280 42850
L71300 42950
L71300 43020
L71280 43110
L71250 43160
L71210 43210
L71130 43230
L71020 43230
" />
<path d="M71400 43280
L71780 43280
" />
<path d="M71900 43230
L71900 42730
L72180 43230
L72180 42730
" />
<path d="M72520 42730
L72610 42730
L72660 42760
L72710 42800
L72730 42900
L72730 43060
L72710 43160
L72660 43210
L72610 43230
L72520 43230
L72470 43210
L72420 43160
L72400 43060
L72400 42900
L72420 42800
L72470 42760
L72520 42730
" />
<path d="M72820 43280
L73210 43280
" />
<path d="M73490 42970
L73560 42990
L73590 43020
L73610 43060
L73610 43140
L73590 43180
L73560 43210
L73520 43230
L73320 43230
L73320 42730
L73490 42730
L73540 42760
L73560 42780
L73590 42830
L73590 42870
L73560 42920
L73540 42950
L73490 42970
L73320 42970
" />
</g>
</g>
<g style="fill:#008484; fill-opacity:0.0; 
stroke:#008484; stroke-width:0; stroke-opacity:1; 
stroke-linecap:round; stroke-linejoin:round;">
<g >
</g>
<g style="fill:#840000; fill-opacity:0.0; 
stroke:#840000; stroke-width:0; stroke-opacity:1; 
stroke-linecap:round; stroke-linejoin:round;">
</g>
<g style="fill:#FFFFC2; fill-opacity:0.0; 
stroke:#FFFFC2; stroke-width:0; stroke-opacity:1; 
stroke-linecap:round; stroke-linejoin:round;">
</g>
<g style="fill:#FFFFC2; fill-opacity:0.6; 
stroke:#FFFFC2; stroke-width:0; stroke-opacity:1; 
stroke-linecap:round; stroke-linejoin:round;">
<rect x="66500" y="40000" width="1000" height="1000" rx="0" />
</g>
<g style="fill:#840000; fill-opacity:0.6; 
stroke:#840000; stroke-width:0; stroke-opacity:1; 
stroke-linecap:round; stroke-linejoin:round;">
</g>
<g style="fill:#840000; fill-opacity:0.0; 
stroke:#840000; stroke-width:100; stroke-opacity:1; 
stroke-linecap:round; stroke-linejoin:round;">
<rect x="66500" y="40000" width="1000" height="1000" rx="0" />
</g>
<g style="fill:#840000; fill-opacity:0.0; 
stroke:#840000; stroke-width:60; stroke-opacity:1; 
stroke-linecap:round; stroke-linejoin:round;">
<rect x="66500" y="40450" width="500" height="100" rx="0" />
<path d="M66500 40500
L65000 40500
" />
<path d="M65890 40370
L65600 40370
" />
<path d="M65750 40370
L65750 39870
L65700 39940
L65650 39990
L65600 40010
" />
</g>
<g style="fill:#008484; fill-opacity:0.0; 
stroke:#008484; stroke-width:60; stroke-opacity:1; 
stroke-linecap:round; stroke-linejoin:round;">
<path d="M67940 40060
L68110 40060
" />
<path d="M68180 40320
L67940 40320
L67940 39820
L68180 39820
" />
<path d="M68610 39990
L68610 40320
" />
<path d="M68490 39800
L68370 40150
L68680 40150
" />
<path d="M67900 40730
L68020 41230
L68110 40870
L68210 41230
L68330 40730
" />
<path d="M68520 41230
L68520 40730
" />
<path d="M69040 41230
L68870 40990
" />
<path d="M68760 41230
L68760 40730
L68950 40730
L68990 40760
L69020 40780
L69040 40830
L69040 40900
L69020 40950
L68990 40970
L68950 40990
L68760 40990
" />
<path d="M69260 40970
L69420 40970
" />
<path d="M69490 41230
L69260 41230
L69260 40730
L69490 40730
" />
<path d="M69590 41280
L69970 41280
" />
<path d="M70090 41230
L70090 40730
L70280 40730
L70330 40760
L70350 40780
L70370 40830
L70370 40900
L70350 40950
L70330 40970
L70280 40990
L70090 40990
" />
<path d="M70560 41090
L70800 41090
" />
<path d="M70520 41230
L70680 40730
L70850 41230
" />
<path d="M71020 41230
L71020 40730
L71140 40730
L71210 40760
L71260 40800
L71280 40850
L71300 40950
L71300 41020
L71280 41110
L71260 41160
L71210 41210
L71140 41230
L71020 41230
" />
<path d="M71400 41280
L71780 41280
" />
<path d="M71900 41230
L71900 40730
L72180 41230
L72180 40730
" />
<path d="M72710 41180
L72680 41210
L72610 41230
L72560 41230
L72490 41210
L72450 41160
L72420 41110
L72400 41020
L72400 40950
L72420 40850
L72450 40800
L72490 40760
L72560 40730
L72610 40730
L72680 40760
L72710 40780
" />
<path d="M72800 41280
L73180 41280
" />
<path d="M73470 40970
L73540 40990
L73560 41020
L73590 41060
L73590 41140
L73560 41180
L73540 41210
L73490 41230
L73300 41230
L73300 40730
L73470 40730
L73520 40760
L73540 40780
L73560 40830
L73560 40870
L73540 40920
L73520 40950
L73470 40970
L73300 40970
" />
</g>
</g>
<g style="fill:#008484; fill-opacity:0.0; 
stroke:#008484; stroke-width:0; stroke-opacity:1; 
stroke-linecap:round; stroke-linejoin:round;">
<g >
</g>
<g style="fill:#840000; fill-opacity:0.0; 
stroke:#840000; stroke-width:0; stroke-opacity:1; 
stroke-linecap:round; stroke-linejoin:round;">
</g>
<g style="fill:#FFFFC2; fill-opacity:0.0; 
stroke:#FFFFC2; stroke-width:0; stroke-opacity:1; 
stroke-linecap:round; stroke-linejoin:round;">
</g>
<g style="fill:#FFFFC2; fill-opacity:0.6; 
stroke:#FFFFC2; stroke-width:0; stroke-opacity:1; 
stroke-linecap:round; stroke-linejoin:round;">
<rect x="66500" y="32000" width="1000" height="1000" rx="0" />
</g>
<g style="fill:#840000; fill-opacity:0.6; 
stroke:#840000; stroke-width:0; stroke-opacity:1; 
stroke-linecap:round; stroke-linejoin:round;">
</g>
<g style="fill:#840000; fill-opacity:0.0; 
stroke:#840000; stroke-width:100; stroke-opacity:1; 
stroke-linecap:round; stroke-linejoin:round;">
<rect x="66500" y="32000" width="1000" height="1000" rx="0" />
</g>
<g style="fill:#840000; fill-opacity:0.0; 
stroke:#840000; stroke-width:60; stroke-opacity:1; 
stroke-linecap:round; stroke-linejoin:round;">
<rect x="66500" y="32450" width="500" height="100" rx="0" />
<path d="M66500 32500
L65000 32500
" />
<path d="M65890 32370
L65600 32370
" />
<path d="M65750 32370
L65750 31870
L65700 31940
L65650 31990
L65600 32010
" />
</g>
<g style="fill:#008484; fill-opacity:0.0; 
stroke:#008484; stroke-width:60; stroke-opacity:1; 
stroke-linecap:round; stroke-linejoin:round;">
<path d="M67940 32060
L68110 32060
" />
<path d="M68180 32320
L67940 32320
L67940 31820
L68180 31820
" />
<path d="M68340 31820
L68650 31820
L68490 32010
L68560 32010
L68610 32040
L68630 32060
L68650 32110
L68650 32230
L68630 32270
L68610 32300
L68560 32320
L68420 32320
L68370 32300
L68340 32270
" />
<path d="M67890 32730
L68010 33230
L68110 32870
L68200 33230
L68320 32730
" />
<path d="M68510 33230
L68510 32730
" />
<path d="M69030 33230
L68870 32990
" />
<path d="M68750 33230
L68750 32730
L68940 32730
L68990 32760
L69010 32780
L69030 32830
L69030 32900
L69010 32950
L68990 32970
L68940 32990
L68750 32990
" />
<path d="M69250 32970
L69420 32970
" />
<path d="M69490 33230
L69250 33230
L69250 32730
L69490 32730
" />
<path d="M69580 33280
L69960 33280
" />
<path d="M70080 33230
L70080 32730
L70270 32730
L70320 32760
L70340 32780
L70370 32830
L70370 32900
L70340 32950
L70320 32970
L70270 32990
L70080 32990
" />
<path d="M70560 33090
L70800 33090
" />
<path d="M70510 33230
L70680 32730
L70840 33230
" />
<path d="M71010 33230
L71010 32730
L71130 32730
L71200 32760
L71250 32800
L71270 32850
L71300 32950
L71300 33020
L71270 33110
L71250 33160
L71200 33210
L71130 33230
L71010 33230
" />
<path d="M71390 33280
L71770 33280
" />
<path d="M71890 33230
L71890 32730
L72180 33230
L72180 32730
" />
<path d="M72510 32730
L72610 32730
L72650 32760
L72700 32800
L72730 32900
L72730 33060
L72700 33160
L72650 33210
L72610 33230
L72510 33230
L72460 33210
L72420 33160
L72390 33060
L72390 32900
L72420 32800
L72460 32760
L72510 32730
" />
<path d="M72820 33280
L73200 33280
" />
<path d="M73300 33090
L73530 33090
" />
<path d="M73250 33230
L73420 32730
L73580 33230
" />
</g>
</g>
<g style="fill:#008484; fill-opacity:0.0; 
stroke:#008484; stroke-width:0; stroke-opacity:1; 
stroke-linecap:round; stroke-linejoin:round;">
<g >
</g>
<g style="fill:#840000; fill-opacity:0.0; 
stroke:#840000; stroke-width:0; stroke-opacity:1; 
stroke-linecap:round; stroke-linejoin:round;">
</g>
<g style="fill:#FFFFC2; fill-opacity:0.0; 
stroke:#FFFFC2; stroke-width:0; stroke-opacity:1; 
stroke-linecap:round; stroke-linejoin:round;">
</g>
<g style="fill:#FFFFC2; fill-opacity:0.6; 
stroke:#FFFFC2; stroke-width:0; stroke-opacity:1; 
stroke-linecap:round; stroke-linejoin:round;">
<rect x="66500" y="30000" width="1000" height="1000" rx="0" />
</g>
<g style="fill:#840000; fill-opacity:0.6; 
stroke:#840000; stroke-width:0; stroke-opacity:1; 
stroke-linecap:round; stroke-linejoin:round;">
</g>
<g style="fill:#840000; fill-opacity:0.0; 
stroke:#840000; stroke-width:100; stroke-opacity:1; 
stroke-linecap:round; stroke-linejoin:round;">
<rect x="66500" y="30000" width="1000" height="1000" rx="0" />
</g>
<g style="fill:#840000; fill-opacity:0.0; 
stroke:#840000; stroke-width:60; stroke-opacity:1; 
stroke-linecap:round; stroke-linejoin:round;">
<rect x="66500" y="30450" width="500" height="100" rx="0" />
<path d="M66500 30500
L65000 30500
" />
<path d="M65890 30370
L65600 30370
" />
<path d="M65750 30370
L65750 29870
L65700 29940
L65650 29990
L65600 30010
" />
</g>
<g style="fill:#008484; fill-opacity:0.0; 
stroke:#008484; stroke-width:60; stroke-opacity:1; 
stroke-linecap:round; stroke-linejoin:round;">
<path d="M67940 30060
L68110 30060
" />
<path d="M68180 30320
L67940 30320
L67940 29820
L68180 29820
" />
<path d="M68650 30320
L68370 30320
" />
<path d="M68510 30320
L68510 29820
L68460 29890
L68420 29940
L68370 29960
" />
<path d="M67890 30730
L68010 31230
L68110 30870
L68200 31230
L68320 30730
" />
<path d="M68510 31230
L68510 30730
" />
<path d="M69040 31230
L68870 30990
" />
<path d="M68750 31230
L68750 30730
L68940 30730
L68990 30760
L69010 30780
L69040 30830
L69040 30900
L69010 30950
L68990 30970
L68940 30990
L68750 30990
" />
<path d="M69250 30970
L69420 30970
" />
<path d="M69490 31230
L69250 31230
L69250 30730
L69490 30730
" />
<path d="M69580 31280
L69970 31280
" />
<path d="M70080 31230
L70080 30730
L70270 30730
L70320 30760
L70350 30780
L70370 30830
L70370 30900
L70350 30950
L70320 30970
L70270 30990
L70080 30990
" />
<path d="M70560 31090
L70800 31090
" />
<path d="M70510 31230
L70680 30730
L70850 31230
" />
<path d="M71010 31230
L71010 30730
L71130 30730
L71200 30760
L71250 30800
L71270 30850
L71300 30950
L71300 31020
L71270 31110
L71250 31160
L71200 31210
L71130 31230
L71010 31230
" />
<path d="M71390 31280
L71770 31280
" />
<path d="M71890 31230
L71890 30730
L72180 31230
L72180 30730
" />
<path d="M72700 31180
L72680 31210
L72610 31230
L72560 31230
L72490 31210
L72440 31160
L72420 31110
L72390 31020
L72390 30950
L72420 30850
L72440 30800
L72490 30760
L72560 30730
L72610 30730
L72680 30760
L72700 30780
" />
<path d="M72800 31280
L73180 31280
" />
<path d="M73270 31090
L73510 31090
" />
<path d="M73230 31230
L73390 30730
L73560 31230
" />
</g>
</g>
<g style="fill:#008484; fill-opacity:0.0; 
stroke:#008484; stroke-width:0; stroke-opacity:1; 
stroke-linecap:round; stroke-linejoin:round;">
<g >
</g>
<g style="fill:#840000; fill-opacity:0.0; 
stroke:#840000; stroke-width:0; stroke-opacity:1; 
stroke-linecap:round; stroke-linejoin:round;">
</g>
<g style="fill:#840000; fill-opacity:0.0; 
stroke:#840000; stroke-width:60; stroke-opacity:1; 
stroke-linecap:round; stroke-linejoin:round;">
<circle cx="54700" cy="31500" r="200" /> 
<circle cx="56300" cy="32500" r="200" /> 
<circle cx="56300" cy="30500" r="200" /> 
<path style="fill:#840000; fill-opacity:0.0; 
stroke:#840000; stroke-width:60; stroke-opacity:1; 
stroke-linecap:round; stroke-linejoin:round;fill:none"
d="M 54900,31400
56150,30600
Z" /> 
<path d="M56500 30500
L57500 30500
" />
<path d="M57140 31070
L56850 31070
" />
<path d="M57000 31070
L57000 30570
L56950 30640
L56900 30690
L56850 30710
" />
<path d="M54500 31500
L53500 31500
" />
<path d="M53850 31620
L53880 31600
L53920 31570
L54040 31570
L54090 31600
L54110 31620
L54140 31670
L54140 31710
L54110 31790
L53830 32070
L54140 32070
" />
<path d="M56500 32500
L57500 32500
" />
<path d="M56830 32570
L57140 32570
L56970 32760
L57040 32760
L57090 32790
L57110 32810
L57140 32860
L57140 32980
L57110 33020
L57090 33050
L57040 33070
L56900 33070
L56850 33050
L56830 33020
" />
</g>
<g style="fill:#008484; fill-opacity:0.0; 
stroke:#008484; stroke-width:60; stroke-opacity:1; 
stroke-linecap:round; stroke-linejoin:round;">
<path d="M54610 28220
L54690 28240
L54800 28240
L54850 28220
L54880 28190
L54900 28150
L54900 28100
L54880 28050
L54850 28030
L54800 28000
L54710 27980
L54660 27960
L54640 27930
L54610 27880
L54610 27840
L54640 27790
L54660 27770
L54710 27740
L54830 27740
L54900 27770
" />
<path d="M55070 27740
L55190 28240
L55280 27880
L55380 28240
L55500 27740
" />
<path d="M55950 28240
L55660 28240
" />
<path d="M55800 28240
L55800 27740
L55760 27810
L55710 27860
L55660 27880
" />
<path d="M56140 28100
L56380 28100
" />
<path d="M56090 28240
L56260 27740
L56420 28240
" />
<path d="M49900 29220
L49970 29240
L50090 29240
L50140 29220
L50160 29190
L50190 29150
L50190 29100
L50160 29050
L50140 29030
L50090 29000
L50000 28980
L49950 28960
L49920 28930
L49900 28880
L49900 28840
L49920 28790
L49950 28770
L50000 28740
L50110 28740
L50190 28770
" />
<path d="M50570 28980
L50400 28980
" />
<path d="M50400 29240
L50400 28740
L50640 28740
" />
<path d="M51090 29240
L50800 29240
" />
<path d="M50950 29240
L50950 28740
L50900 28810
L50850 28860
L50800 28880
" />
<path d="M51280 28790
L51300 28770
L51350 28740
L51470 28740
L51520 28770
L51540 28790
L51570 28840
L51570 28880
L51540 28960
L51260 29240
L51570 29240
" />
<path d="M51880 28740
L51920 28740
L51970 28770
L52000 28790
L52020 28840
L52040 28930
L52040 29050
L52020 29150
L52000 29190
L51970 29220
L51920 29240
L51880 29240
L51830 29220
L51800 29190
L51780 29150
L51760 29050
L51760 28930
L51780 28840
L51800 28790
L51830 28770
L51880 28740
" />
<path d="M52230 28790
L52260 28770
L52300 28740
L52420 28740
L52470 28770
L52500 28790
L52520 28840
L52520 28880
L52500 28960
L52210 29240
L52520 29240
" />
<path d="M52830 28740
L52880 28740
L52920 28770
L52950 28790
L52970 28840
L53000 28930
L53000 29050
L52970 29150
L52950 29190
L52920 29220
L52880 29240
L52830 29240
L52780 29220
L52760 29190
L52730 29150
L52710 29050
L52710 28930
L52730 28840
L52760 28790
L52780 28770
L52830 28740
" />
<path d="M53380 28980
L53210 28980
" />
<path d="M53210 29240
L53210 28740
L53450 28740
" />
<path d="M53640 29050
L54020 29050
" />
<path d="M54350 28740
L54400 28740
L54450 28770
L54470 28790
L54500 28840
L54520 28930
L54520 29050
L54500 29150
L54470 29190
L54450 29220
L54400 29240
L54350 29240
L54300 29220
L54280 29190
L54260 29150
L54230 29050
L54230 28930
L54260 28840
L54280 28790
L54300 28770
L54350 28740
" />
<path d="M54710 28790
L54730 28770
L54780 28740
L54900 28740
L54950 28770
L54970 28790
L55000 28840
L55000 28880
L54970 28960
L54690 29240
L55000 29240
" />
<path d="M55300 28740
L55350 28740
L55400 28770
L55420 28790
L55450 28840
L55470 28930
L55470 29050
L55450 29150
L55420 29190
L55400 29220
L55350 29240
L55300 29240
L55260 29220
L55230 29190
L55210 29150
L55190 29050
L55190 28930
L55210 28840
L55230 28790
L55260 28770
L55300 28740
" />
<path d="M55660 28790
L55690 28770
L55730 28740
L55850 28740
L55900 28770
L55920 28790
L55950 28840
L55950 28880
L55920 28960
L55640 29240
L55950 29240
" />
<path d="M56160 29050
L56540 29050
" />
<path d="M56760 28790
L56780 28770
L56830 28740
L56950 28740
L57000 28770
L57020 28790
L57040 28840
L57040 28880
L57020 28960
L56730 29240
L57040 29240
" />
<path d="M57350 28740
L57400 28740
L57450 28770
L57470 28790
L57500 28840
L57520 28930
L57520 29050
L57500 29150
L57470 29190
L57450 29220
L57400 29240
L57350 29240
L57300 29220
L57280 29190
L57260 29150
L57230 29050
L57230 28930
L57260 28840
L57280 28790
L57300 28770
L57350 28740
" />
<path d="M58020 29240
L57850 29000
" />
<path d="M57730 29240
L57730 28740
L57920 28740
L57970 28770
L58000 28790
L58020 28840
L58020 28910
L58000 28960
L57970 28980
L57920 29000
L57730 29000
" />
<path d="M58230 29050
L58610 29050
" />
<path d="M59090 29240
L58850 29240
L58850 28740
" />
<path d="M59260 29050
L59640 29050
" />
<path d="M59970 28740
L60020 28740
L60070 28770
L60090 28790
L60110 28840
L60140 28930
L60140 29050
L60110 29150
L60090 29190
L60070 29220
L60020 29240
L59970 29240
L59920 29220
L59900 29190
L59880 29150
L59850 29050
L59850 28930
L59880 28840
L59900 28790
L59920 28770
L59970 28740
" />
<path d="M60610 29240
L60330 29240
" />
<path d="M60470 29240
L60470 28740
L60420 28810
L60380 28860
L60330 28880
" />
<path d="M61090 29240
L60800 29240
" />
<path d="M60950 29240
L60950 28740
L60900 28810
L60850 28860
L60800 28880
" />
</g>
</g>
<g style="fill:#008484; fill-opacity:0.0; 
stroke:#008484; stroke-width:60; stroke-opacity:1; 
stroke-linecap:round; stroke-linejoin:round;">
</g>
<g style="fill:#008400; fill-opacity:0.0; 
stroke:#008400; stroke-width:60; stroke-opacity:1; 
stroke-linecap:round; stroke-linejoin:round;">
<path d="M65000 42500
L57500 42500
" />
<path d="M57500 40500
L65000 40500
" />
<path d="M65000 32500
L57500 32500
" />
<path d="M57500 30500
L65000 30500
" />
<path d="M53500 31500
L45000 31500
" />
<path d="M45000 41500
L53500 41500
" />
</g> 
</svg>
