<?xml version="1.0" standalone="no"?>
 <!DOCTYPE svg PUBLIC "-//W3C//DTD SVG 1.1//EN" 
 "http://www.w3.org/Graphics/SVG/1.1/DTD/svg11.dtd"> 
<svg xmlns="http://www.w3.org/2000/svg" version="1.1" 
    width="5.21208cm" height="1.88722cm" viewBox="0 0 20520 7430 ">
<title>SVG Picture created as #410-000-S1A - Switching PCB [DPDT, Latching]-brd.svg date 2020/01/07 17:37:29 </title>
  <desc>Picture generated by PCBNEW </desc>
<g style="fill:#000000; fill-opacity:1;stroke:#000000; stroke-opacity:1;
stroke-linecap:round; stroke-linejoin:round; "
 transform="translate(0 0) scale(1 1)">
</g>
<g style="fill:#000000; fill-opacity:0.0; 
stroke:#000000; stroke-width:-0.000393701; stroke-opacity:1; 
stroke-linecap:round; stroke-linejoin:round;">
</g>
<g style="fill:#848400; fill-opacity:0.0; 
stroke:#848400; stroke-width:-0.000393701; stroke-opacity:1; 
stroke-linecap:round; stroke-linejoin:round;">
</g>
<g style="fill:#848400; fill-opacity:0.0; 
stroke:#848400; stroke-width:60; stroke-opacity:1; 
stroke-linecap:round; stroke-linejoin:round;">
<path d="M12820 4446
L12592 4446
" />
<path d="M12729 4309
L12820 4721
" />
<path d="M12622 4583
L12851 4583
" />
<path d="M12714 4721
L12622 4309
" />
<path d="M12424 4340
L12394 4340
L12363 4355
L12348 4370
L12333 4401
L12318 4462
L12318 4538
L12333 4599
L12348 4629
L12363 4644
L12394 4660
L12424 4660
L12455 4644
L12470 4629
L12485 4599
L12500 4538
L12500 4462
L12485 4401
L12470 4370
L12455 4355
L12424 4340
" />
<path d="M12119 4340
L12089 4340
L12059 4355
L12043 4370
L12028 4401
L12013 4462
L12013 4538
L12028 4599
L12043 4629
L12059 4644
L12089 4660
L12119 4660
L12150 4644
L12165 4629
L12180 4599
L12196 4538
L12196 4462
L12180 4401
L12165 4370
L12150 4355
L12119 4340
" />
<path d="M11906 4340
L11708 4340
L11815 4462
L11769 4462
L11739 4477
L11723 4492
L11708 4523
L11708 4599
L11723 4629
L11739 4644
L11769 4660
L11860 4660
L11891 4644
L11906 4629
" />
<path d="M11571 4538
L11327 4538
" />
<path d="M11038 4446
L11038 4660
" />
<path d="M11114 4324
L11190 4553
L10992 4553
" />
<path d="M10702 4660
L10885 4660
" />
<path d="M10794 4660
L10794 4340
L10824 4385
L10855 4416
L10885 4431
" />
<path d="M10504 4340
L10474 4340
L10443 4355
L10428 4370
L10413 4401
L10398 4462
L10398 4538
L10413 4599
L10428 4629
L10443 4644
L10474 4660
L10504 4660
L10535 4644
L10550 4629
L10565 4599
L10580 4538
L10580 4462
L10565 4401
L10550 4370
L10535 4355
L10504 4340
" />
<path d="M10260 4538
L10017 4538
" />
<path d="M9803 4340
L9773 4340
L9742 4355
L9727 4370
L9712 4401
L9697 4462
L9697 4538
L9712 4599
L9727 4629
L9742 4644
L9773 4660
L9803 4660
L9834 4644
L9849 4629
L9864 4599
L9879 4538
L9879 4462
L9864 4401
L9849 4370
L9834 4355
L9803 4340
" />
<path d="M9499 4340
L9468 4340
L9438 4355
L9422 4370
L9407 4401
L9392 4462
L9392 4538
L9407 4599
L9422 4629
L9438 4644
L9468 4660
L9499 4660
L9529 4644
L9544 4629
L9559 4599
L9575 4538
L9575 4462
L9559 4401
L9544 4370
L9529 4355
L9499 4340
" />
<path d="M9194 4340
L9163 4340
L9133 4355
L9118 4370
L9102 4401
L9087 4462
L9087 4538
L9102 4599
L9118 4629
L9133 4644
L9163 4660
L9194 4660
L9224 4644
L9239 4629
L9255 4599
L9270 4538
L9270 4462
L9255 4401
L9239 4370
L9224 4355
L9194 4340
" />
<path d="M8950 4538
L8706 4538
" />
<path d="M8569 4644
L8523 4660
L8447 4660
L8417 4644
L8401 4629
L8386 4599
L8386 4568
L8401 4538
L8417 4523
L8447 4507
L8508 4492
L8539 4477
L8554 4462
L8569 4431
L8569 4401
L8554 4370
L8539 4355
L8508 4340
L8432 4340
L8386 4355
" />
<path d="M8081 4660
L8264 4660
" />
<path d="M8173 4660
L8173 4340
L8203 4385
L8234 4416
L8264 4431
" />
<path d="M7959 4568
L7807 4568
" />
<path d="M7990 4660
L7883 4340
L7777 4660
" />
<path d="M9692 6269
L9646 6285
L9570 6285
L9539 6269
L9524 6254
L9509 6224
L9509 6193
L9524 6163
L9539 6148
L9570 6132
L9631 6117
L9661 6102
L9676 6087
L9692 6056
L9692 6026
L9676 5995
L9661 5980
L9631 5965
L9554 5965
L9509 5980
" />
<path d="M9143 5949
L9417 6361
" />
<path d="M9036 6285
L9036 5965
L8854 6285
L8854 5965
" />
<path d="M8701 6254
L8686 6269
L8701 6285
L8716 6269
L8701 6254
L8701 6285
" />
<path d="M8701 6087
L8686 6102
L8701 6117
L8716 6102
L8701 6087
L8701 6117
" />
<path d="M12180 2946
L11952 2946
" />
<path d="M12089 2809
L12180 3221
" />
<path d="M11982 3083
L12211 3083
" />
<path d="M12074 3221
L11982 2809
" />
<path d="M11784 2840
L11754 2840
L11723 2855
L11708 2870
L11693 2901
L11678 2962
L11678 3038
L11693 3099
L11708 3129
L11723 3144
L11754 3160
L11784 3160
L11815 3144
L11830 3129
L11845 3099
L11860 3038
L11860 2962
L11845 2901
L11830 2870
L11815 2855
L11784 2840
" />
<path d="M11479 2840
L11449 2840
L11419 2855
L11403 2870
L11388 2901
L11373 2962
L11373 3038
L11388 3099
L11403 3129
L11419 3144
L11449 3160
L11479 3160
L11510 3144
L11525 3129
L11540 3099
L11556 3038
L11556 2962
L11540 2901
L11525 2870
L11510 2855
L11479 2840
" />
<path d="M11266 2840
L11068 2840
L11175 2962
L11129 2962
L11099 2977
L11083 2992
L11068 3023
L11068 3099
L11083 3129
L11099 3144
L11129 3160
L11220 3160
L11251 3144
L11266 3129
" />
<path d="M10931 3038
L10687 3038
" />
<path d="M10398 2946
L10398 3160
" />
<path d="M10474 2824
L10550 3053
L10352 3053
" />
<path d="M10169 2840
L10139 2840
L10108 2855
L10093 2870
L10078 2901
L10062 2962
L10062 3038
L10078 3099
L10093 3129
L10108 3144
L10139 3160
L10169 3160
L10199 3144
L10215 3129
L10230 3099
L10245 3038
L10245 2962
L10230 2901
L10215 2870
L10199 2855
L10169 2840
" />
<path d="M9864 2840
L9834 2840
L9803 2855
L9788 2870
L9773 2901
L9758 2962
L9758 3038
L9773 3099
L9788 3129
L9803 3144
L9834 3160
L9864 3160
L9895 3144
L9910 3129
L9925 3099
L9940 3038
L9940 2962
L9925 2901
L9910 2870
L9895 2855
L9864 2840
" />
<path d="M9620 3038
L9377 3038
" />
<path d="M9163 2840
L9133 2840
L9102 2855
L9087 2870
L9072 2901
L9057 2962
L9057 3038
L9072 3099
L9087 3129
L9102 3144
L9133 3160
L9163 3160
L9194 3144
L9209 3129
L9224 3099
L9239 3038
L9239 2962
L9224 2901
L9209 2870
L9194 2855
L9163 2840
" />
<path d="M8859 2840
L8828 2840
L8798 2855
L8782 2870
L8767 2901
L8752 2962
L8752 3038
L8767 3099
L8782 3129
L8798 3144
L8828 3160
L8859 3160
L8889 3144
L8904 3129
L8919 3099
L8935 3038
L8935 2962
L8919 2901
L8904 2870
L8889 2855
L8859 2840
" />
<path d="M8554 2840
L8523 2840
L8493 2855
L8478 2870
L8462 2901
L8447 2962
L8447 3038
L8462 3099
L8478 3129
L8493 3144
L8523 3160
L8554 3160
L8584 3144
L8599 3129
L8615 3099
L8630 3038
L8630 2962
L8615 2901
L8599 2870
L8584 2855
L8554 2840
" />
<path d="M11832 6285
L11939 6132
" />
<path d="M12015 6285
L12015 5965
L11893 5965
L11862 5980
L11847 5995
L11832 6026
L11832 6071
L11847 6102
L11862 6117
L11893 6132
L12015 6132
" />
<path d="M11695 6117
L11588 6117
" />
<path d="M11542 6285
L11695 6285
L11695 5965
L11542 5965
" />
<path d="M11451 5965
L11344 6285
L11238 5965
" />
<path d="M11131 6254
L11116 6269
L11131 6285
L11146 6269
L11131 6254
L11131 6285
" />
<path d="M11131 6087
L11116 6102
L11131 6117
L11146 6102
L11131 6087
L11131 6117
" />
<path d="M10750 6193
L10598 6193
" />
<path d="M10780 6285
L10674 5965
L10567 6285
" />
<g >
</g>
<g style="fill:#848400; fill-opacity:0.0; 
stroke:#848400; stroke-width:433.701; stroke-opacity:1; 
stroke-linecap:round; stroke-linejoin:round;">
<path d="M13867 4890
L14261 4890
" />
<path d="M13867 5890
L14261 5890
" />
</g>
<g >
</g>
<g style="fill:#848400; fill-opacity:0.0; 
stroke:#848400; stroke-width:433.701; stroke-opacity:1; 
stroke-linecap:round; stroke-linejoin:round;">
<path d="M13867 3265
L14261 3265
" />
<path d="M13867 4265
L14261 4265
" />
</g>
<g >
</g>
<g style="fill:#848400; fill-opacity:0.0; 
stroke:#848400; stroke-width:433.701; stroke-opacity:1; 
stroke-linecap:round; stroke-linejoin:round;">
<path d="M13867 1640
L14261 1640
" />
<path d="M13867 2640
L14261 2640
" />
</g>
<g >
</g>
<g style="fill:#848400; fill-opacity:0.0; 
stroke:#848400; stroke-width:433.701; stroke-opacity:1; 
stroke-linecap:round; stroke-linejoin:round;">
<path d="M6367 4890
L6761 4890
" />
<path d="M6367 5890
L6761 5890
" />
</g>
<g >
</g>
<g style="fill:#848400; fill-opacity:0.0; 
stroke:#848400; stroke-width:433.701; stroke-opacity:1; 
stroke-linecap:round; stroke-linejoin:round;">
<path d="M6367 3265
L6761 3265
" />
<path d="M6367 4265
L6761 4265
" />
</g>
<g >
</g>
<g style="fill:#848400; fill-opacity:0.0; 
stroke:#848400; stroke-width:433.701; stroke-opacity:1; 
stroke-linecap:round; stroke-linejoin:round;">
<path d="M6367 1640
L6761 1640
" />
<path d="M6367 2640
L6761 2640
" />
</g>
<g >
</g>
<g style="fill:#008400; fill-opacity:0.0; 
stroke:#008400; stroke-width:433.701; stroke-opacity:1; 
stroke-linecap:round; stroke-linejoin:round;">
</g>
<g style="fill:#008400; fill-opacity:1.0; 
stroke:#008400; stroke-width:0; stroke-opacity:1; 
stroke-linecap:round; stroke-linejoin:round;">
<circle cx="13314.3" cy="5340.2" r="334.961" /> 
</g>
<g style="fill:#008400; fill-opacity:1.0; 
stroke:#008400; stroke-width:196.85; stroke-opacity:1; 
stroke-linecap:round; stroke-linejoin:round;">
</g>
<g >
</g>
<g style="fill:#008400; fill-opacity:1.0; 
stroke:#008400; stroke-width:196.85; stroke-opacity:1; 
stroke-linecap:round; stroke-linejoin:round;">
</g>
<g style="fill:#008400; fill-opacity:1.0; 
stroke:#008400; stroke-width:0; stroke-opacity:1; 
stroke-linecap:round; stroke-linejoin:round;">
<circle cx="13314.3" cy="2190.6" r="334.961" /> 
</g>
<g style="fill:#008400; fill-opacity:1.0; 
stroke:#008400; stroke-width:196.85; stroke-opacity:1; 
stroke-linecap:round; stroke-linejoin:round;">
</g>
<g >
</g>
<g style="fill:#008400; fill-opacity:1.0; 
stroke:#008400; stroke-width:196.85; stroke-opacity:1; 
stroke-linecap:round; stroke-linejoin:round;">
</g>
<g style="fill:#008400; fill-opacity:1.0; 
stroke:#008400; stroke-width:0; stroke-opacity:1; 
stroke-linecap:round; stroke-linejoin:round;">
<circle cx="7314.29" cy="5340.2" r="334.961" /> 
</g>
<g style="fill:#008400; fill-opacity:1.0; 
stroke:#008400; stroke-width:196.85; stroke-opacity:1; 
stroke-linecap:round; stroke-linejoin:round;">
</g>
<g >
</g>
<g style="fill:#008400; fill-opacity:1.0; 
stroke:#008400; stroke-width:196.85; stroke-opacity:1; 
stroke-linecap:round; stroke-linejoin:round;">
</g>
<g style="fill:#008400; fill-opacity:1.0; 
stroke:#008400; stroke-width:0; stroke-opacity:1; 
stroke-linecap:round; stroke-linejoin:round;">
<circle cx="7314.29" cy="2190.6" r="334.961" /> 
</g>
<g style="fill:#008400; fill-opacity:1.0; 
stroke:#008400; stroke-width:196.85; stroke-opacity:1; 
stroke-linecap:round; stroke-linejoin:round;">
</g>
<g >
</g>
<g style="fill:#008400; fill-opacity:1.0; 
stroke:#008400; stroke-width:196.85; stroke-opacity:1; 
stroke-linecap:round; stroke-linejoin:round;">
</g>
<g style="fill:#008400; fill-opacity:1.0; 
stroke:#008400; stroke-width:0; stroke-opacity:1; 
stroke-linecap:round; stroke-linejoin:round;">
<circle cx="13314.3" cy="3765.4" r="334.961" /> 
</g>
<g style="fill:#008400; fill-opacity:1.0; 
stroke:#008400; stroke-width:196.85; stroke-opacity:1; 
stroke-linecap:round; stroke-linejoin:round;">
</g>
<g >
</g>
<g style="fill:#008400; fill-opacity:1.0; 
stroke:#008400; stroke-width:196.85; stroke-opacity:1; 
stroke-linecap:round; stroke-linejoin:round;">
</g>
<g style="fill:#008400; fill-opacity:1.0; 
stroke:#008400; stroke-width:0; stroke-opacity:1; 
stroke-linecap:round; stroke-linejoin:round;">
<circle cx="7314.29" cy="3765.4" r="334.961" /> 
</g>
<g style="fill:#008400; fill-opacity:1.0; 
stroke:#008400; stroke-width:196.85; stroke-opacity:1; 
stroke-linecap:round; stroke-linejoin:round;">
</g>
<g >
</g>
<g style="fill:#008400; fill-opacity:1.0; 
stroke:#008400; stroke-width:196.85; stroke-opacity:1; 
stroke-linecap:round; stroke-linejoin:round;">
</g>
<g style="fill:#008400; fill-opacity:1.0; 
stroke:#008400; stroke-width:827.402; stroke-opacity:1; 
stroke-linecap:round; stroke-linejoin:round;">
</g>
<g style="fill:#008400; fill-opacity:0.0; 
stroke:#008400; stroke-width:827.402; stroke-opacity:1; 
stroke-linecap:round; stroke-linejoin:round;">
<path d="M11141 5340
L11456 5340
" />
<path d="M9172 5340
L9487 5340
" />
<path d="M11141 2190
L11456 2190
" />
<path d="M9172 2190
L9487 2190
" />
<path d="M11141 3765
L11456 3765
" />
<path d="M9172 3765
L9487 3765
" />
</g>
<g >
</g>
<g >
</g>
<g >
</g>
</g>
<g style="fill:#000000; fill-opacity:0.0; 
stroke:#000000; stroke-width:827.402; stroke-opacity:1; 
stroke-linecap:round; stroke-linejoin:round;">
</g>
<g style="fill:#00FF00; fill-opacity:0.0; 
stroke:#00FF00; stroke-width:827.402; stroke-opacity:1; 
stroke-linecap:round; stroke-linejoin:round;">
</g>
<g style="fill:#00FF00; fill-opacity:0.0; 
stroke:#00FF00; stroke-width:60; stroke-opacity:1; 
stroke-linecap:round; stroke-linejoin:round;">
<path d="M9692 6269
L9646 6285
L9570 6285
L9539 6269
L9524 6254
L9509 6224
L9509 6193
L9524 6163
L9539 6148
L9570 6132
L9631 6117
L9661 6102
L9676 6087
L9692 6056
L9692 6026
L9676 5995
L9661 5980
L9631 5965
L9554 5965
L9509 5980
" />
<path d="M9143 5949
L9417 6361
" />
<path d="M9036 6285
L9036 5965
L8854 6285
L8854 5965
" />
<path d="M8701 6254
L8686 6269
L8701 6285
L8716 6269
L8701 6254
L8701 6285
" />
<path d="M8701 6087
L8686 6102
L8701 6117
L8716 6102
L8701 6087
L8701 6117
" />
<path d="M12820 4446
L12592 4446
" />
<path d="M12729 4309
L12820 4721
" />
<path d="M12622 4583
L12851 4583
" />
<path d="M12714 4721
L12622 4309
" />
<path d="M12424 4340
L12394 4340
L12363 4355
L12348 4370
L12333 4401
L12318 4462
L12318 4538
L12333 4599
L12348 4629
L12363 4644
L12394 4660
L12424 4660
L12455 4644
L12470 4629
L12485 4599
L12500 4538
L12500 4462
L12485 4401
L12470 4370
L12455 4355
L12424 4340
" />
<path d="M12119 4340
L12089 4340
L12059 4355
L12043 4370
L12028 4401
L12013 4462
L12013 4538
L12028 4599
L12043 4629
L12059 4644
L12089 4660
L12119 4660
L12150 4644
L12165 4629
L12180 4599
L12196 4538
L12196 4462
L12180 4401
L12165 4370
L12150 4355
L12119 4340
" />
<path d="M11906 4340
L11708 4340
L11815 4462
L11769 4462
L11739 4477
L11723 4492
L11708 4523
L11708 4599
L11723 4629
L11739 4644
L11769 4660
L11860 4660
L11891 4644
L11906 4629
" />
<path d="M11571 4538
L11327 4538
" />
<path d="M11038 4446
L11038 4660
" />
<path d="M11114 4324
L11190 4553
L10992 4553
" />
<path d="M10702 4660
L10885 4660
" />
<path d="M10794 4660
L10794 4340
L10824 4385
L10855 4416
L10885 4431
" />
<path d="M10504 4340
L10474 4340
L10443 4355
L10428 4370
L10413 4401
L10398 4462
L10398 4538
L10413 4599
L10428 4629
L10443 4644
L10474 4660
L10504 4660
L10535 4644
L10550 4629
L10565 4599
L10580 4538
L10580 4462
L10565 4401
L10550 4370
L10535 4355
L10504 4340
" />
<path d="M10260 4538
L10017 4538
" />
<path d="M9803 4340
L9773 4340
L9742 4355
L9727 4370
L9712 4401
L9697 4462
L9697 4538
L9712 4599
L9727 4629
L9742 4644
L9773 4660
L9803 4660
L9834 4644
L9849 4629
L9864 4599
L9879 4538
L9879 4462
L9864 4401
L9849 4370
L9834 4355
L9803 4340
" />
<path d="M9499 4340
L9468 4340
L9438 4355
L9422 4370
L9407 4401
L9392 4462
L9392 4538
L9407 4599
L9422 4629
L9438 4644
L9468 4660
L9499 4660
L9529 4644
L9544 4629
L9559 4599
L9575 4538
L9575 4462
L9559 4401
L9544 4370
L9529 4355
L9499 4340
" />
<path d="M9194 4340
L9163 4340
L9133 4355
L9118 4370
L9102 4401
L9087 4462
L9087 4538
L9102 4599
L9118 4629
L9133 4644
L9163 4660
L9194 4660
L9224 4644
L9239 4629
L9255 4599
L9270 4538
L9270 4462
L9255 4401
L9239 4370
L9224 4355
L9194 4340
" />
<path d="M8950 4538
L8706 4538
" />
<path d="M8569 4644
L8523 4660
L8447 4660
L8417 4644
L8401 4629
L8386 4599
L8386 4568
L8401 4538
L8417 4523
L8447 4507
L8508 4492
L8539 4477
L8554 4462
L8569 4431
L8569 4401
L8554 4370
L8539 4355
L8508 4340
L8432 4340
L8386 4355
" />
<path d="M8081 4660
L8264 4660
" />
<path d="M8173 4660
L8173 4340
L8203 4385
L8234 4416
L8264 4431
" />
<path d="M7959 4568
L7807 4568
" />
<path d="M7990 4660
L7883 4340
L7777 4660
" />
<path d="M11832 6285
L11939 6132
" />
<path d="M12015 6285
L12015 5965
L11893 5965
L11862 5980
L11847 5995
L11832 6026
L11832 6071
L11847 6102
L11862 6117
L11893 6132
L12015 6132
" />
<path d="M11695 6117
L11588 6117
" />
<path d="M11542 6285
L11695 6285
L11695 5965
L11542 5965
" />
<path d="M11451 5965
L11344 6285
L11238 5965
" />
<path d="M11131 6254
L11116 6269
L11131 6285
L11146 6269
L11131 6254
L11131 6285
" />
<path d="M11131 6087
L11116 6102
L11131 6117
L11146 6102
L11131 6087
L11131 6117
" />
<path d="M10750 6193
L10598 6193
" />
<path d="M10780 6285
L10674 5965
L10567 6285
" />
<path d="M12180 2946
L11952 2946
" />
<path d="M12089 2809
L12180 3221
" />
<path d="M11982 3083
L12211 3083
" />
<path d="M12074 3221
L11982 2809
" />
<path d="M11784 2840
L11754 2840
L11723 2855
L11708 2870
L11693 2901
L11678 2962
L11678 3038
L11693 3099
L11708 3129
L11723 3144
L11754 3160
L11784 3160
L11815 3144
L11830 3129
L11845 3099
L11860 3038
L11860 2962
L11845 2901
L11830 2870
L11815 2855
L11784 2840
" />
<path d="M11479 2840
L11449 2840
L11419 2855
L11403 2870
L11388 2901
L11373 2962
L11373 3038
L11388 3099
L11403 3129
L11419 3144
L11449 3160
L11479 3160
L11510 3144
L11525 3129
L11540 3099
L11556 3038
L11556 2962
L11540 2901
L11525 2870
L11510 2855
L11479 2840
" />
<path d="M11266 2840
L11068 2840
L11175 2962
L11129 2962
L11099 2977
L11083 2992
L11068 3023
L11068 3099
L11083 3129
L11099 3144
L11129 3160
L11220 3160
L11251 3144
L11266 3129
" />
<path d="M10931 3038
L10687 3038
" />
<path d="M10398 2946
L10398 3160
" />
<path d="M10474 2824
L10550 3053
L10352 3053
" />
<path d="M10169 2840
L10139 2840
L10108 2855
L10093 2870
L10078 2901
L10062 2962
L10062 3038
L10078 3099
L10093 3129
L10108 3144
L10139 3160
L10169 3160
L10199 3144
L10215 3129
L10230 3099
L10245 3038
L10245 2962
L10230 2901
L10215 2870
L10199 2855
L10169 2840
" />
<path d="M9864 2840
L9834 2840
L9803 2855
L9788 2870
L9773 2901
L9758 2962
L9758 3038
L9773 3099
L9788 3129
L9803 3144
L9834 3160
L9864 3160
L9895 3144
L9910 3129
L9925 3099
L9940 3038
L9940 2962
L9925 2901
L9910 2870
L9895 2855
L9864 2840
" />
<path d="M9620 3038
L9377 3038
" />
<path d="M9163 2840
L9133 2840
L9102 2855
L9087 2870
L9072 2901
L9057 2962
L9057 3038
L9072 3099
L9087 3129
L9102 3144
L9133 3160
L9163 3160
L9194 3144
L9209 3129
L9224 3099
L9239 3038
L9239 2962
L9224 2901
L9209 2870
L9194 2855
L9163 2840
" />
<path d="M8859 2840
L8828 2840
L8798 2855
L8782 2870
L8767 2901
L8752 2962
L8752 3038
L8767 3099
L8782 3129
L8798 3144
L8828 3160
L8859 3160
L8889 3144
L8904 3129
L8919 3099
L8935 3038
L8935 2962
L8919 2901
L8904 2870
L8889 2855
L8859 2840
" />
<path d="M8554 2840
L8523 2840
L8493 2855
L8478 2870
L8462 2901
L8447 2962
L8447 3038
L8462 3099
L8478 3129
L8493 3144
L8523 3160
L8554 3160
L8584 3144
L8599 3129
L8615 3099
L8630 3038
L8630 2962
L8615 2901
L8599 2870
L8584 2855
L8554 2840
" />
<g >
</g>
<g >
</g>
<g >
</g>
<g >
</g>
<g >
</g>
<g >
</g>
<g >
</g>
<g style="fill:#008400; fill-opacity:0.0; 
stroke:#008400; stroke-width:60; stroke-opacity:1; 
stroke-linecap:round; stroke-linejoin:round;">
</g>
<g style="fill:#008400; fill-opacity:1.0; 
stroke:#008400; stroke-width:0; stroke-opacity:1; 
stroke-linecap:round; stroke-linejoin:round;">
<circle cx="13314.3" cy="5340.2" r="314.961" /> 
</g>
<g style="fill:#008400; fill-opacity:1.0; 
stroke:#008400; stroke-width:196.85; stroke-opacity:1; 
stroke-linecap:round; stroke-linejoin:round;">
</g>
<g >
</g>
<g style="fill:#008400; fill-opacity:1.0; 
stroke:#008400; stroke-width:196.85; stroke-opacity:1; 
stroke-linecap:round; stroke-linejoin:round;">
</g>
<g style="fill:#008400; fill-opacity:1.0; 
stroke:#008400; stroke-width:0; stroke-opacity:1; 
stroke-linecap:round; stroke-linejoin:round;">
<circle cx="13314.3" cy="2190.6" r="314.961" /> 
</g>
<g style="fill:#008400; fill-opacity:1.0; 
stroke:#008400; stroke-width:196.85; stroke-opacity:1; 
stroke-linecap:round; stroke-linejoin:round;">
</g>
<g >
</g>
<g style="fill:#008400; fill-opacity:1.0; 
stroke:#008400; stroke-width:196.85; stroke-opacity:1; 
stroke-linecap:round; stroke-linejoin:round;">
</g>
<g style="fill:#008400; fill-opacity:1.0; 
stroke:#008400; stroke-width:0; stroke-opacity:1; 
stroke-linecap:round; stroke-linejoin:round;">
<circle cx="7314.29" cy="5340.2" r="314.961" /> 
</g>
<g style="fill:#008400; fill-opacity:1.0; 
stroke:#008400; stroke-width:196.85; stroke-opacity:1; 
stroke-linecap:round; stroke-linejoin:round;">
</g>
<g >
</g>
<g style="fill:#008400; fill-opacity:1.0; 
stroke:#008400; stroke-width:196.85; stroke-opacity:1; 
stroke-linecap:round; stroke-linejoin:round;">
</g>
<g style="fill:#008400; fill-opacity:1.0; 
stroke:#008400; stroke-width:0; stroke-opacity:1; 
stroke-linecap:round; stroke-linejoin:round;">
<circle cx="7314.29" cy="2190.6" r="314.961" /> 
</g>
<g style="fill:#008400; fill-opacity:1.0; 
stroke:#008400; stroke-width:196.85; stroke-opacity:1; 
stroke-linecap:round; stroke-linejoin:round;">
</g>
<g >
</g>
<g style="fill:#008400; fill-opacity:1.0; 
stroke:#008400; stroke-width:196.85; stroke-opacity:1; 
stroke-linecap:round; stroke-linejoin:round;">
</g>
<g style="fill:#008400; fill-opacity:1.0; 
stroke:#008400; stroke-width:0; stroke-opacity:1; 
stroke-linecap:round; stroke-linejoin:round;">
<circle cx="13314.3" cy="3765.4" r="314.961" /> 
</g>
<g style="fill:#008400; fill-opacity:1.0; 
stroke:#008400; stroke-width:196.85; stroke-opacity:1; 
stroke-linecap:round; stroke-linejoin:round;">
</g>
<g >
</g>
<g style="fill:#008400; fill-opacity:1.0; 
stroke:#008400; stroke-width:196.85; stroke-opacity:1; 
stroke-linecap:round; stroke-linejoin:round;">
</g>
<g style="fill:#008400; fill-opacity:1.0; 
stroke:#008400; stroke-width:0; stroke-opacity:1; 
stroke-linecap:round; stroke-linejoin:round;">
<circle cx="7314.29" cy="3765.4" r="314.961" /> 
</g>
<g style="fill:#008400; fill-opacity:1.0; 
stroke:#008400; stroke-width:196.85; stroke-opacity:1; 
stroke-linecap:round; stroke-linejoin:round;">
</g>
<g >
</g>
<g style="fill:#008400; fill-opacity:1.0; 
stroke:#008400; stroke-width:196.85; stroke-opacity:1; 
stroke-linecap:round; stroke-linejoin:round;">
</g>
<g style="fill:#008400; fill-opacity:1.0; 
stroke:#008400; stroke-width:787.402; stroke-opacity:1; 
stroke-linecap:round; stroke-linejoin:round;">
</g>
<g style="fill:#008400; fill-opacity:0.0; 
stroke:#008400; stroke-width:787.402; stroke-opacity:1; 
stroke-linecap:round; stroke-linejoin:round;">
<path d="M11141 5340
L11456 5340
" />
<path d="M9172 5340
L9487 5340
" />
<path d="M11141 2190
L11456 2190
" />
<path d="M9172 2190
L9487 2190
" />
<path d="M11141 3765
L11456 3765
" />
<path d="M9172 3765
L9487 3765
" />
</g>
<g >
</g>
<g >
</g>
<g style="fill:#00FF00; fill-opacity:0.0; 
stroke:#00FF00; stroke-width:787.402; stroke-opacity:1; 
stroke-linecap:round; stroke-linejoin:round;">
</g>
<g style="fill:#00FF00; fill-opacity:0.0; 
stroke:#00FF00; stroke-width:295.276; stroke-opacity:1; 
stroke-linecap:round; stroke-linejoin:round;">
<path d="M9330 2190
L7361 2190
" />
<path d="M9330 3765
L7361 3765
" />
<path d="M9330 5340
L7361 5340
" />
<path d="M11298 2190
L13267 2190
" />
<path d="M11298 3765
L13267 3765
" />
<path d="M11298 5340
L13267 5340
" />
</g>
<g >
</g>
</g>
<g style="fill:#FFFFFF; fill-opacity:0.0; 
stroke:#FFFFFF; stroke-width:295.276; stroke-opacity:1; 
stroke-linecap:round; stroke-linejoin:round;">
</g>
<g style="fill:#FFFFFF; fill-opacity:0.0; 
stroke:#FFFFFF; stroke-width:393.7; stroke-opacity:1; 
stroke-linecap:round; stroke-linejoin:round;">
<path d="M13867 4890
L14261 4890
" />
<path d="M13867 5890
L14261 5890
" />
<path d="M13867 3265
L14261 3265
" />
<path d="M13867 4265
L14261 4265
" />
<path d="M13867 1640
L14261 1640
" />
<path d="M13867 2640
L14261 2640
" />
<path d="M6367 4890
L6761 4890
" />
<path d="M6367 5890
L6761 5890
" />
<path d="M6367 3265
L6761 3265
" />
<path d="M6367 4265
L6761 4265
" />
<path d="M6367 1640
L6761 1640
" />
<path d="M6367 2640
L6761 2640
" />
</g>
<g style="fill:#FFFFFF; fill-opacity:1.0; 
stroke:#FFFFFF; stroke-width:0; stroke-opacity:1; 
stroke-linecap:round; stroke-linejoin:round;">
<circle cx="13314.3" cy="5340.2" r="196.85" /> 
</g>
<g style="fill:#FFFFFF; fill-opacity:1.0; 
stroke:#FFFFFF; stroke-width:196.85; stroke-opacity:1; 
stroke-linecap:round; stroke-linejoin:round;">
</g>
<g style="fill:#FFFFFF; fill-opacity:1.0; 
stroke:#FFFFFF; stroke-width:0; stroke-opacity:1; 
stroke-linecap:round; stroke-linejoin:round;">
<circle cx="13314.3" cy="2190.6" r="196.85" /> 
</g>
<g style="fill:#FFFFFF; fill-opacity:1.0; 
stroke:#FFFFFF; stroke-width:196.85; stroke-opacity:1; 
stroke-linecap:round; stroke-linejoin:round;">
</g>
<g style="fill:#FFFFFF; fill-opacity:1.0; 
stroke:#FFFFFF; stroke-width:0; stroke-opacity:1; 
stroke-linecap:round; stroke-linejoin:round;">
<circle cx="7314.29" cy="5340.2" r="196.85" /> 
</g>
<g style="fill:#FFFFFF; fill-opacity:1.0; 
stroke:#FFFFFF; stroke-width:196.85; stroke-opacity:1; 
stroke-linecap:round; stroke-linejoin:round;">
</g>
<g style="fill:#FFFFFF; fill-opacity:1.0; 
stroke:#FFFFFF; stroke-width:0; stroke-opacity:1; 
stroke-linecap:round; stroke-linejoin:round;">
<circle cx="7314.29" cy="2190.6" r="196.85" /> 
</g>
<g style="fill:#FFFFFF; fill-opacity:1.0; 
stroke:#FFFFFF; stroke-width:196.85; stroke-opacity:1; 
stroke-linecap:round; stroke-linejoin:round;">
</g>
<g style="fill:#FFFFFF; fill-opacity:1.0; 
stroke:#FFFFFF; stroke-width:0; stroke-opacity:1; 
stroke-linecap:round; stroke-linejoin:round;">
<circle cx="13314.3" cy="3765.4" r="196.85" /> 
</g>
<g style="fill:#FFFFFF; fill-opacity:1.0; 
stroke:#FFFFFF; stroke-width:196.85; stroke-opacity:1; 
stroke-linecap:round; stroke-linejoin:round;">
</g>
<g style="fill:#FFFFFF; fill-opacity:1.0; 
stroke:#FFFFFF; stroke-width:0; stroke-opacity:1; 
stroke-linecap:round; stroke-linejoin:round;">
<circle cx="7314.29" cy="3765.4" r="196.85" /> 
</g>
<g style="fill:#FFFFFF; fill-opacity:1.0; 
stroke:#FFFFFF; stroke-width:196.85; stroke-opacity:1; 
stroke-linecap:round; stroke-linejoin:round;">
</g>
<g style="fill:#FFFFFF; fill-opacity:1.0; 
stroke:#FFFFFF; stroke-width:393.701; stroke-opacity:1; 
stroke-linecap:round; stroke-linejoin:round;">
</g>
<g style="fill:#FFFFFF; fill-opacity:0.0; 
stroke:#FFFFFF; stroke-width:393.701; stroke-opacity:1; 
stroke-linecap:round; stroke-linejoin:round;">
<path d="M11141 5340
L11456 5340
" />
<path d="M9172 5340
L9487 5340
" />
<path d="M11141 2190
L11456 2190
" />
<path d="M9172 2190
L9487 2190
" />
<path d="M11141 3765
L11456 3765
" />
<path d="M9172 3765
L9487 3765
" />
</g>
<g style="fill:#000000; fill-opacity:0.0; 
stroke:#000000; stroke-width:393.701; stroke-opacity:1; 
stroke-linecap:round; stroke-linejoin:round;">
<g >
</g>
<g >
</g>
<g >
</g>
<g >
</g>
<g >
</g>
<g >
</g>
<g >
</g>
<g >
</g>
<g >
</g>
<g >
</g>
<g >
</g>
<g >
</g>
<g >
</g>
<g >
</g>
<g >
</g>
<g >
</g>
</g>
<g style="fill:#FFFFFF; fill-opacity:0.0; 
stroke:#FFFFFF; stroke-width:393.701; stroke-opacity:1; 
stroke-linecap:round; stroke-linejoin:round;">
</g>
<g style="fill:#FFFFFF; fill-opacity:0.0; 
stroke:#FFFFFF; stroke-width:393.7; stroke-opacity:1; 
stroke-linecap:round; stroke-linejoin:round;">
<path d="M13867 4890
L14261 4890
" />
<path d="M13867 5890
L14261 5890
" />
<path d="M13867 3265
L14261 3265
" />
<path d="M13867 4265
L14261 4265
" />
<path d="M13867 1640
L14261 1640
" />
<path d="M13867 2640
L14261 2640
" />
<path d="M6367 4890
L6761 4890
" />
<path d="M6367 5890
L6761 5890
" />
<path d="M6367 3265
L6761 3265
" />
<path d="M6367 4265
L6761 4265
" />
<path d="M6367 1640
L6761 1640
" />
<path d="M6367 2640
L6761 2640
" />
</g>
<g style="fill:#FFFFFF; fill-opacity:1.0; 
stroke:#FFFFFF; stroke-width:0; stroke-opacity:1; 
stroke-linecap:round; stroke-linejoin:round;">
<circle cx="13314.3" cy="5340.2" r="196.85" /> 
</g>
<g style="fill:#FFFFFF; fill-opacity:1.0; 
stroke:#FFFFFF; stroke-width:196.85; stroke-opacity:1; 
stroke-linecap:round; stroke-linejoin:round;">
</g>
<g style="fill:#FFFFFF; fill-opacity:1.0; 
stroke:#FFFFFF; stroke-width:0; stroke-opacity:1; 
stroke-linecap:round; stroke-linejoin:round;">
<circle cx="13314.3" cy="2190.6" r="196.85" /> 
</g>
<g style="fill:#FFFFFF; fill-opacity:1.0; 
stroke:#FFFFFF; stroke-width:196.85; stroke-opacity:1; 
stroke-linecap:round; stroke-linejoin:round;">
</g>
<g style="fill:#FFFFFF; fill-opacity:1.0; 
stroke:#FFFFFF; stroke-width:0; stroke-opacity:1; 
stroke-linecap:round; stroke-linejoin:round;">
<circle cx="7314.29" cy="5340.2" r="196.85" /> 
</g>
<g style="fill:#FFFFFF; fill-opacity:1.0; 
stroke:#FFFFFF; stroke-width:196.85; stroke-opacity:1; 
stroke-linecap:round; stroke-linejoin:round;">
</g>
<g style="fill:#FFFFFF; fill-opacity:1.0; 
stroke:#FFFFFF; stroke-width:0; stroke-opacity:1; 
stroke-linecap:round; stroke-linejoin:round;">
<circle cx="7314.29" cy="2190.6" r="196.85" /> 
</g>
<g style="fill:#FFFFFF; fill-opacity:1.0; 
stroke:#FFFFFF; stroke-width:196.85; stroke-opacity:1; 
stroke-linecap:round; stroke-linejoin:round;">
</g>
<g style="fill:#FFFFFF; fill-opacity:1.0; 
stroke:#FFFFFF; stroke-width:0; stroke-opacity:1; 
stroke-linecap:round; stroke-linejoin:round;">
<circle cx="13314.3" cy="3765.4" r="196.85" /> 
</g>
<g style="fill:#FFFFFF; fill-opacity:1.0; 
stroke:#FFFFFF; stroke-width:196.85; stroke-opacity:1; 
stroke-linecap:round; stroke-linejoin:round;">
</g>
<g style="fill:#FFFFFF; fill-opacity:1.0; 
stroke:#FFFFFF; stroke-width:0; stroke-opacity:1; 
stroke-linecap:round; stroke-linejoin:round;">
<circle cx="7314.29" cy="3765.4" r="196.85" /> 
</g>
<g style="fill:#FFFFFF; fill-opacity:1.0; 
stroke:#FFFFFF; stroke-width:196.85; stroke-opacity:1; 
stroke-linecap:round; stroke-linejoin:round;">
</g>
<g style="fill:#FFFFFF; fill-opacity:1.0; 
stroke:#FFFFFF; stroke-width:393.701; stroke-opacity:1; 
stroke-linecap:round; stroke-linejoin:round;">
</g>
<g style="fill:#FFFFFF; fill-opacity:0.0; 
stroke:#FFFFFF; stroke-width:393.701; stroke-opacity:1; 
stroke-linecap:round; stroke-linejoin:round;">
<path d="M11141 5340
L11456 5340
" />
<path d="M9172 5340
L9487 5340
" />
<path d="M11141 2190
L11456 2190
" />
<path d="M9172 2190
L9487 2190
" />
<path d="M11141 3765
L11456 3765
" />
<path d="M9172 3765
L9487 3765
" />
</g>
<g style="fill:#000000; fill-opacity:0.0; 
stroke:#000000; stroke-width:393.701; stroke-opacity:1; 
stroke-linecap:round; stroke-linejoin:round;">
<g >
</g>
<g style="fill:#848400; fill-opacity:0.0; 
stroke:#848400; stroke-width:393.701; stroke-opacity:1; 
stroke-linecap:round; stroke-linejoin:round;">
</g>
<g style="fill:#848400; fill-opacity:0.0; 
stroke:#848400; stroke-width:433.701; stroke-opacity:1; 
stroke-linecap:round; stroke-linejoin:round;">
<path d="M13867 4890
L14261 4890
" />
<path d="M13867 5890
L14261 5890
" />
</g>
<g >
</g>
<g style="fill:#848400; fill-opacity:0.0; 
stroke:#848400; stroke-width:433.701; stroke-opacity:1; 
stroke-linecap:round; stroke-linejoin:round;">
<path d="M13867 3265
L14261 3265
" />
<path d="M13867 4265
L14261 4265
" />
</g>
<g >
</g>
<g style="fill:#848400; fill-opacity:0.0; 
stroke:#848400; stroke-width:433.701; stroke-opacity:1; 
stroke-linecap:round; stroke-linejoin:round;">
<path d="M13867 1640
L14261 1640
" />
<path d="M13867 2640
L14261 2640
" />
</g>
<g >
</g>
<g style="fill:#848400; fill-opacity:0.0; 
stroke:#848400; stroke-width:433.701; stroke-opacity:1; 
stroke-linecap:round; stroke-linejoin:round;">
<path d="M6367 4890
L6761 4890
" />
<path d="M6367 5890
L6761 5890
" />
</g>
<g >
</g>
<g style="fill:#848400; fill-opacity:0.0; 
stroke:#848400; stroke-width:433.701; stroke-opacity:1; 
stroke-linecap:round; stroke-linejoin:round;">
<path d="M6367 3265
L6761 3265
" />
<path d="M6367 4265
L6761 4265
" />
</g>
<g >
</g>
<g style="fill:#848400; fill-opacity:0.0; 
stroke:#848400; stroke-width:433.701; stroke-opacity:1; 
stroke-linecap:round; stroke-linejoin:round;">
<path d="M6367 1640
L6761 1640
" />
<path d="M6367 2640
L6761 2640
" />
</g>
<g >
</g>
<g style="fill:#000000; fill-opacity:0.0; 
stroke:#000000; stroke-width:433.701; stroke-opacity:1; 
stroke-linecap:round; stroke-linejoin:round;">
</g>
<g style="fill:#000000; fill-opacity:1.0; 
stroke:#000000; stroke-width:0; stroke-opacity:1; 
stroke-linecap:round; stroke-linejoin:round;">
<circle cx="13314.3" cy="5340.2" r="196.85" /> 
</g>
<g style="fill:#000000; fill-opacity:1.0; 
stroke:#000000; stroke-width:196.85; stroke-opacity:1; 
stroke-linecap:round; stroke-linejoin:round;">
</g>
<g >
</g>
<g style="fill:#000000; fill-opacity:1.0; 
stroke:#000000; stroke-width:196.85; stroke-opacity:1; 
stroke-linecap:round; stroke-linejoin:round;">
</g>
<g style="fill:#000000; fill-opacity:1.0; 
stroke:#000000; stroke-width:0; stroke-opacity:1; 
stroke-linecap:round; stroke-linejoin:round;">
<circle cx="13314.3" cy="2190.6" r="196.85" /> 
</g>
<g style="fill:#000000; fill-opacity:1.0; 
stroke:#000000; stroke-width:196.85; stroke-opacity:1; 
stroke-linecap:round; stroke-linejoin:round;">
</g>
<g >
</g>
<g style="fill:#000000; fill-opacity:1.0; 
stroke:#000000; stroke-width:196.85; stroke-opacity:1; 
stroke-linecap:round; stroke-linejoin:round;">
</g>
<g style="fill:#000000; fill-opacity:1.0; 
stroke:#000000; stroke-width:0; stroke-opacity:1; 
stroke-linecap:round; stroke-linejoin:round;">
<circle cx="7314.29" cy="5340.2" r="196.85" /> 
</g>
<g style="fill:#000000; fill-opacity:1.0; 
stroke:#000000; stroke-width:196.85; stroke-opacity:1; 
stroke-linecap:round; stroke-linejoin:round;">
</g>
<g >
</g>
<g style="fill:#000000; fill-opacity:1.0; 
stroke:#000000; stroke-width:196.85; stroke-opacity:1; 
stroke-linecap:round; stroke-linejoin:round;">
</g>
<g style="fill:#000000; fill-opacity:1.0; 
stroke:#000000; stroke-width:0; stroke-opacity:1; 
stroke-linecap:round; stroke-linejoin:round;">
<circle cx="7314.29" cy="2190.6" r="196.85" /> 
</g>
<g style="fill:#000000; fill-opacity:1.0; 
stroke:#000000; stroke-width:196.85; stroke-opacity:1; 
stroke-linecap:round; stroke-linejoin:round;">
</g>
<g >
</g>
<g style="fill:#000000; fill-opacity:1.0; 
stroke:#000000; stroke-width:196.85; stroke-opacity:1; 
stroke-linecap:round; stroke-linejoin:round;">
</g>
<g style="fill:#000000; fill-opacity:1.0; 
stroke:#000000; stroke-width:0; stroke-opacity:1; 
stroke-linecap:round; stroke-linejoin:round;">
<circle cx="13314.3" cy="3765.4" r="196.85" /> 
</g>
<g style="fill:#000000; fill-opacity:1.0; 
stroke:#000000; stroke-width:196.85; stroke-opacity:1; 
stroke-linecap:round; stroke-linejoin:round;">
</g>
<g >
</g>
<g style="fill:#000000; fill-opacity:1.0; 
stroke:#000000; stroke-width:196.85; stroke-opacity:1; 
stroke-linecap:round; stroke-linejoin:round;">
</g>
<g style="fill:#000000; fill-opacity:1.0; 
stroke:#000000; stroke-width:0; stroke-opacity:1; 
stroke-linecap:round; stroke-linejoin:round;">
<circle cx="7314.29" cy="3765.4" r="196.85" /> 
</g>
<g style="fill:#000000; fill-opacity:1.0; 
stroke:#000000; stroke-width:196.85; stroke-opacity:1; 
stroke-linecap:round; stroke-linejoin:round;">
</g>
<g >
</g>
<g style="fill:#000000; fill-opacity:1.0; 
stroke:#000000; stroke-width:196.85; stroke-opacity:1; 
stroke-linecap:round; stroke-linejoin:round;">
</g>
<g style="fill:#000000; fill-opacity:1.0; 
stroke:#000000; stroke-width:393.701; stroke-opacity:1; 
stroke-linecap:round; stroke-linejoin:round;">
</g>
<g style="fill:#000000; fill-opacity:0.0; 
stroke:#000000; stroke-width:393.701; stroke-opacity:1; 
stroke-linecap:round; stroke-linejoin:round;">
<path d="M11141 2190
L11456 2190
" />
<path d="M11141 3765
L11456 3765
" />
<path d="M11141 5340
L11456 5340
" />
<path d="M9172 5340
L9487 5340
" />
<path d="M9172 3765
L9487 3765
" />
<path d="M9172 2190
L9487 2190
" />
</g>
<g >
</g>
<g >
</g>
<g >
</g>
</g>
<g style="fill:#000000; fill-opacity:0.0; 
stroke:#000000; stroke-width:393.701; stroke-opacity:1; 
stroke-linecap:round; stroke-linejoin:round;">
</g>
<g style="fill:#008484; fill-opacity:0.0; 
stroke:#008484; stroke-width:393.701; stroke-opacity:1; 
stroke-linecap:round; stroke-linejoin:round;">
</g>
<g style="fill:#008484; fill-opacity:0.0; 
stroke:#008484; stroke-width:60; stroke-opacity:1; 
stroke-linecap:round; stroke-linejoin:round;">
<path d="M10139 5243
L10367 5243
L10413 5258
L10443 5289
L10459 5334
L10459 5365
" />
<path d="M10459 4938
L10459 5091
L10139 5091
" />
<path d="M10428 4649
L10443 4664
L10459 4710
L10459 4740
L10443 4786
L10413 4816
L10382 4832
L10321 4847
L10276 4847
L10215 4832
L10184 4816
L10154 4786
L10139 4740
L10139 4710
L10154 4664
L10169 4649
" />
<path d="M10139 4420
L10367 4420
L10413 4435
L10443 4466
L10459 4512
L10459 4542
" />
<path d="M10459 4115
L10459 4268
L10139 4268
" />
<path d="M10428 3826
L10443 3841
L10459 3887
L10459 3917
L10443 3963
L10413 3993
L10382 4009
L10321 4024
L10276 4024
L10215 4009
L10184 3993
L10154 3963
L10139 3917
L10139 3887
L10154 3841
L10169 3826
" />
<path d="M10139 3597
L10367 3597
L10413 3613
L10443 3643
L10459 3689
L10459 3719
" />
<path d="M10459 3293
L10459 3445
L10139 3445
" />
<path d="M10428 3003
L10443 3018
L10459 3064
L10459 3094
L10443 3140
L10413 3171
L10382 3186
L10321 3201
L10276 3201
L10215 3186
L10184 3171
L10154 3140
L10139 3094
L10139 3064
L10154 3018
L10169 3003
" />
<path d="M10139 2774
L10367 2774
L10413 2790
L10443 2820
L10459 2866
L10459 2896
" />
<path d="M10459 2470
L10459 2622
L10139 2622
" />
<path d="M10428 2180
L10443 2195
L10459 2241
L10459 2272
L10443 2317
L10413 2348
L10382 2363
L10321 2378
L10276 2378
L10215 2363
L10184 2348
L10154 2317
L10139 2272
L10139 2241
L10154 2195
L10169 2180
" />
<g >
</g>
</g>
<g style="fill:#000000; fill-opacity:0.0; 
stroke:#000000; stroke-width:60; stroke-opacity:1; 
stroke-linecap:round; stroke-linejoin:round;">
</g>
<g style="fill:#FF5B00; fill-opacity:0.0; 
stroke:#FF5B00; stroke-width:60; stroke-opacity:1; 
stroke-linecap:round; stroke-linejoin:round;">
</g>
<g style="fill:#FF5B00; fill-opacity:0.0; 
stroke:#FF5B00; stroke-width:150; stroke-opacity:1; 
stroke-linecap:round; stroke-linejoin:round;">
<path d="M5939.29 6265.4 A250 250 0.0 0 0 6189.29 6515.4 " />
<path d="M6189.29 1015.4 A250 250 0.0 0 0 5939.29 1265.4 " />
<path d="M14689.3 1265.4 A250 250 0.0 0 0 14439.3 1015.4 " />
<path d="M14439.3 6515.4 A250 250 0.0 0 0 14689.3 6265.4 " />
<path d="M5939 6265
L5939 1265
" />
<path d="M14439 6515
L6189 6515
" />
<path d="M14689 1265
L14689 6265
" />
<path d="M6189 1015
L14439 1015
" />
<g >
</g>
<g >
</g>
<g >
</g>
<g >
</g>
<g >
</g>
<g >
</g>
<g >
</g>
<g >
</g>
<g >
</g>
<g >
</g>
<g >
</g>
<g >
</g>
<g >
</g>
<g >
</g>
</g> 
</svg>
