M48
; DRILL file {KiCad (5.1.4)-1} date 2020-01-13 17:46:23
; FORMAT={-:-/ absolute / inch / decimal}
; #@! TF.CreationDate,2020-01-13T17:46:23+01:00
; #@! TF.GenerationSoftware,Kicad,Pcbnew,(5.1.4)-1
FMAT,2
INCH
T1C0.0394
T2C0.0394
%
G90
G05
T1
X6.05Y-3.3925
X5.45Y-3.7075
X6.05Y-3.55
X6.05Y-3.7075
X5.45Y-3.55
X5.45Y-3.3925
T1
G00X5.6358Y-3.3925
M15
G01X5.6673Y-3.3925
M16
G05
G00X5.6358Y-3.55
M15
G01X5.6673Y-3.55
M16
G05
G00X5.6358Y-3.7075
M15
G01X5.6673Y-3.7075
M16
G05
G00X5.8327Y-3.3925
M15
G01X5.8642Y-3.3925
M16
G05
G00X5.8327Y-3.55
M15
G01X5.8642Y-3.55
M16
G05
G00X5.8327Y-3.7075
M15
G01X5.8642Y-3.7075
M16
G05
T2
G00X5.3516Y-3.6575
M15
G01X5.3909Y-3.6575
M16
G05
G00X5.3516Y-3.7575
M15
G01X5.3909Y-3.7575
M16
G05
G00X6.1091Y-3.5
M15
G01X6.1484Y-3.5
M16
G05
G00X6.1091Y-3.6
M15
G01X6.1484Y-3.6
M16
G05
G00X5.3516Y-3.3425
M15
G01X5.3909Y-3.3425
M16
G05
G00X5.3516Y-3.4425
M15
G01X5.3909Y-3.4425
M16
G05
G00X6.1091Y-3.6575
M15
G01X6.1484Y-3.6575
M16
G05
G00X6.1091Y-3.7575
M15
G01X6.1484Y-3.7575
M16
G05
G00X5.3516Y-3.5
M15
G01X5.3909Y-3.5
M16
G05
G00X5.3516Y-3.6
M15
G01X5.3909Y-3.6
M16
G05
G00X6.1091Y-3.3425
M15
G01X6.1484Y-3.3425
M16
G05
G00X6.1091Y-3.4425
M15
G01X6.1484Y-3.4425
M16
G05
T0
M30
