G04 #@! TF.GenerationSoftware,KiCad,Pcbnew,(5.1.4)-1*
G04 #@! TF.CreationDate,2020-01-13T17:46:22+01:00*
G04 #@! TF.ProjectId,#410-000-S1A - Switching PCB [DPDT_ Latching],23343130-2d30-4303-902d-533141202d20,rev?*
G04 #@! TF.SameCoordinates,Original*
G04 #@! TF.FileFunction,Soldermask,Bot*
G04 #@! TF.FilePolarity,Negative*
%FSLAX46Y46*%
G04 Gerber Fmt 4.6, Leading zero omitted, Abs format (unit mm)*
G04 Created by KiCad (PCBNEW (5.1.4)-1) date 2020-01-13 17:46:22*
%MOMM*%
%LPD*%
G04 APERTURE LIST*
%ADD10C,0.152400*%
%ADD11O,2.101600X1.101600*%
%ADD12C,1.701600*%
%ADD13O,2.901600X2.101600*%
G04 APERTURE END LIST*
D10*
X152416933Y-88090828D02*
X151836361Y-88090828D01*
X152184704Y-87742485D02*
X152416933Y-88787514D01*
X151913771Y-88439171D02*
X152494342Y-88439171D01*
X152146000Y-88787514D02*
X151913771Y-87742485D01*
X151410609Y-87819895D02*
X151333200Y-87819895D01*
X151255790Y-87858600D01*
X151217085Y-87897304D01*
X151178380Y-87974714D01*
X151139676Y-88129533D01*
X151139676Y-88323057D01*
X151178380Y-88477876D01*
X151217085Y-88555285D01*
X151255790Y-88593990D01*
X151333200Y-88632695D01*
X151410609Y-88632695D01*
X151488019Y-88593990D01*
X151526723Y-88555285D01*
X151565428Y-88477876D01*
X151604133Y-88323057D01*
X151604133Y-88129533D01*
X151565428Y-87974714D01*
X151526723Y-87897304D01*
X151488019Y-87858600D01*
X151410609Y-87819895D01*
X150636514Y-87819895D02*
X150559104Y-87819895D01*
X150481695Y-87858600D01*
X150442990Y-87897304D01*
X150404285Y-87974714D01*
X150365580Y-88129533D01*
X150365580Y-88323057D01*
X150404285Y-88477876D01*
X150442990Y-88555285D01*
X150481695Y-88593990D01*
X150559104Y-88632695D01*
X150636514Y-88632695D01*
X150713923Y-88593990D01*
X150752628Y-88555285D01*
X150791333Y-88477876D01*
X150830038Y-88323057D01*
X150830038Y-88129533D01*
X150791333Y-87974714D01*
X150752628Y-87897304D01*
X150713923Y-87858600D01*
X150636514Y-87819895D01*
X150094647Y-87819895D02*
X149591485Y-87819895D01*
X149862419Y-88129533D01*
X149746304Y-88129533D01*
X149668895Y-88168238D01*
X149630190Y-88206942D01*
X149591485Y-88284352D01*
X149591485Y-88477876D01*
X149630190Y-88555285D01*
X149668895Y-88593990D01*
X149746304Y-88632695D01*
X149978533Y-88632695D01*
X150055942Y-88593990D01*
X150094647Y-88555285D01*
X149243142Y-88323057D02*
X148623866Y-88323057D01*
X147888476Y-88090828D02*
X147888476Y-88632695D01*
X148082000Y-87781190D02*
X148275523Y-88361761D01*
X147772361Y-88361761D01*
X147036971Y-88632695D02*
X147501428Y-88632695D01*
X147269200Y-88632695D02*
X147269200Y-87819895D01*
X147346609Y-87936009D01*
X147424019Y-88013419D01*
X147501428Y-88052123D01*
X146533809Y-87819895D02*
X146456400Y-87819895D01*
X146378990Y-87858600D01*
X146340285Y-87897304D01*
X146301580Y-87974714D01*
X146262876Y-88129533D01*
X146262876Y-88323057D01*
X146301580Y-88477876D01*
X146340285Y-88555285D01*
X146378990Y-88593990D01*
X146456400Y-88632695D01*
X146533809Y-88632695D01*
X146611219Y-88593990D01*
X146649923Y-88555285D01*
X146688628Y-88477876D01*
X146727333Y-88323057D01*
X146727333Y-88129533D01*
X146688628Y-87974714D01*
X146649923Y-87897304D01*
X146611219Y-87858600D01*
X146533809Y-87819895D01*
X145914533Y-88323057D02*
X145295257Y-88323057D01*
X144753390Y-87819895D02*
X144675980Y-87819895D01*
X144598571Y-87858600D01*
X144559866Y-87897304D01*
X144521161Y-87974714D01*
X144482457Y-88129533D01*
X144482457Y-88323057D01*
X144521161Y-88477876D01*
X144559866Y-88555285D01*
X144598571Y-88593990D01*
X144675980Y-88632695D01*
X144753390Y-88632695D01*
X144830800Y-88593990D01*
X144869504Y-88555285D01*
X144908209Y-88477876D01*
X144946914Y-88323057D01*
X144946914Y-88129533D01*
X144908209Y-87974714D01*
X144869504Y-87897304D01*
X144830800Y-87858600D01*
X144753390Y-87819895D01*
X143979295Y-87819895D02*
X143901885Y-87819895D01*
X143824476Y-87858600D01*
X143785771Y-87897304D01*
X143747066Y-87974714D01*
X143708361Y-88129533D01*
X143708361Y-88323057D01*
X143747066Y-88477876D01*
X143785771Y-88555285D01*
X143824476Y-88593990D01*
X143901885Y-88632695D01*
X143979295Y-88632695D01*
X144056704Y-88593990D01*
X144095409Y-88555285D01*
X144134114Y-88477876D01*
X144172819Y-88323057D01*
X144172819Y-88129533D01*
X144134114Y-87974714D01*
X144095409Y-87897304D01*
X144056704Y-87858600D01*
X143979295Y-87819895D01*
X143205200Y-87819895D02*
X143127790Y-87819895D01*
X143050380Y-87858600D01*
X143011676Y-87897304D01*
X142972971Y-87974714D01*
X142934266Y-88129533D01*
X142934266Y-88323057D01*
X142972971Y-88477876D01*
X143011676Y-88555285D01*
X143050380Y-88593990D01*
X143127790Y-88632695D01*
X143205200Y-88632695D01*
X143282609Y-88593990D01*
X143321314Y-88555285D01*
X143360019Y-88477876D01*
X143398723Y-88323057D01*
X143398723Y-88129533D01*
X143360019Y-87974714D01*
X143321314Y-87897304D01*
X143282609Y-87858600D01*
X143205200Y-87819895D01*
X142585923Y-88323057D02*
X141966647Y-88323057D01*
X141618304Y-88593990D02*
X141502190Y-88632695D01*
X141308666Y-88632695D01*
X141231257Y-88593990D01*
X141192552Y-88555285D01*
X141153847Y-88477876D01*
X141153847Y-88400466D01*
X141192552Y-88323057D01*
X141231257Y-88284352D01*
X141308666Y-88245647D01*
X141463485Y-88206942D01*
X141540895Y-88168238D01*
X141579600Y-88129533D01*
X141618304Y-88052123D01*
X141618304Y-87974714D01*
X141579600Y-87897304D01*
X141540895Y-87858600D01*
X141463485Y-87819895D01*
X141269961Y-87819895D01*
X141153847Y-87858600D01*
X140379752Y-88632695D02*
X140844209Y-88632695D01*
X140611980Y-88632695D02*
X140611980Y-87819895D01*
X140689390Y-87936009D01*
X140766800Y-88013419D01*
X140844209Y-88052123D01*
X140070114Y-88400466D02*
X139683066Y-88400466D01*
X140147523Y-88632695D02*
X139876590Y-87819895D01*
X139605657Y-88632695D01*
X144469757Y-96531490D02*
X144353642Y-96570195D01*
X144160119Y-96570195D01*
X144082709Y-96531490D01*
X144044004Y-96492785D01*
X144005300Y-96415376D01*
X144005300Y-96337966D01*
X144044004Y-96260557D01*
X144082709Y-96221852D01*
X144160119Y-96183147D01*
X144314938Y-96144442D01*
X144392347Y-96105738D01*
X144431052Y-96067033D01*
X144469757Y-95989623D01*
X144469757Y-95912214D01*
X144431052Y-95834804D01*
X144392347Y-95796100D01*
X144314938Y-95757395D01*
X144121414Y-95757395D01*
X144005300Y-95796100D01*
X143076385Y-95718690D02*
X143773071Y-96763719D01*
X142805452Y-96570195D02*
X142805452Y-95757395D01*
X142340995Y-96570195D01*
X142340995Y-95757395D01*
X141953947Y-96492785D02*
X141915242Y-96531490D01*
X141953947Y-96570195D01*
X141992652Y-96531490D01*
X141953947Y-96492785D01*
X141953947Y-96570195D01*
X141953947Y-96067033D02*
X141915242Y-96105738D01*
X141953947Y-96144442D01*
X141992652Y-96105738D01*
X141953947Y-96067033D01*
X141953947Y-96144442D01*
X150791333Y-84090328D02*
X150210761Y-84090328D01*
X150559104Y-83741985D02*
X150791333Y-84787014D01*
X150288171Y-84438671D02*
X150868742Y-84438671D01*
X150520400Y-84787014D02*
X150288171Y-83741985D01*
X149785009Y-83819395D02*
X149707600Y-83819395D01*
X149630190Y-83858100D01*
X149591485Y-83896804D01*
X149552780Y-83974214D01*
X149514076Y-84129033D01*
X149514076Y-84322557D01*
X149552780Y-84477376D01*
X149591485Y-84554785D01*
X149630190Y-84593490D01*
X149707600Y-84632195D01*
X149785009Y-84632195D01*
X149862419Y-84593490D01*
X149901123Y-84554785D01*
X149939828Y-84477376D01*
X149978533Y-84322557D01*
X149978533Y-84129033D01*
X149939828Y-83974214D01*
X149901123Y-83896804D01*
X149862419Y-83858100D01*
X149785009Y-83819395D01*
X149010914Y-83819395D02*
X148933504Y-83819395D01*
X148856095Y-83858100D01*
X148817390Y-83896804D01*
X148778685Y-83974214D01*
X148739980Y-84129033D01*
X148739980Y-84322557D01*
X148778685Y-84477376D01*
X148817390Y-84554785D01*
X148856095Y-84593490D01*
X148933504Y-84632195D01*
X149010914Y-84632195D01*
X149088323Y-84593490D01*
X149127028Y-84554785D01*
X149165733Y-84477376D01*
X149204438Y-84322557D01*
X149204438Y-84129033D01*
X149165733Y-83974214D01*
X149127028Y-83896804D01*
X149088323Y-83858100D01*
X149010914Y-83819395D01*
X148469047Y-83819395D02*
X147965885Y-83819395D01*
X148236819Y-84129033D01*
X148120704Y-84129033D01*
X148043295Y-84167738D01*
X148004590Y-84206442D01*
X147965885Y-84283852D01*
X147965885Y-84477376D01*
X148004590Y-84554785D01*
X148043295Y-84593490D01*
X148120704Y-84632195D01*
X148352933Y-84632195D01*
X148430342Y-84593490D01*
X148469047Y-84554785D01*
X147617542Y-84322557D02*
X146998266Y-84322557D01*
X146262876Y-84090328D02*
X146262876Y-84632195D01*
X146456400Y-83780690D02*
X146649923Y-84361261D01*
X146146761Y-84361261D01*
X145682304Y-83819395D02*
X145604895Y-83819395D01*
X145527485Y-83858100D01*
X145488780Y-83896804D01*
X145450076Y-83974214D01*
X145411371Y-84129033D01*
X145411371Y-84322557D01*
X145450076Y-84477376D01*
X145488780Y-84554785D01*
X145527485Y-84593490D01*
X145604895Y-84632195D01*
X145682304Y-84632195D01*
X145759714Y-84593490D01*
X145798419Y-84554785D01*
X145837123Y-84477376D01*
X145875828Y-84322557D01*
X145875828Y-84129033D01*
X145837123Y-83974214D01*
X145798419Y-83896804D01*
X145759714Y-83858100D01*
X145682304Y-83819395D01*
X144908209Y-83819395D02*
X144830800Y-83819395D01*
X144753390Y-83858100D01*
X144714685Y-83896804D01*
X144675980Y-83974214D01*
X144637276Y-84129033D01*
X144637276Y-84322557D01*
X144675980Y-84477376D01*
X144714685Y-84554785D01*
X144753390Y-84593490D01*
X144830800Y-84632195D01*
X144908209Y-84632195D01*
X144985619Y-84593490D01*
X145024323Y-84554785D01*
X145063028Y-84477376D01*
X145101733Y-84322557D01*
X145101733Y-84129033D01*
X145063028Y-83974214D01*
X145024323Y-83896804D01*
X144985619Y-83858100D01*
X144908209Y-83819395D01*
X144288933Y-84322557D02*
X143669657Y-84322557D01*
X143127790Y-83819395D02*
X143050380Y-83819395D01*
X142972971Y-83858100D01*
X142934266Y-83896804D01*
X142895561Y-83974214D01*
X142856857Y-84129033D01*
X142856857Y-84322557D01*
X142895561Y-84477376D01*
X142934266Y-84554785D01*
X142972971Y-84593490D01*
X143050380Y-84632195D01*
X143127790Y-84632195D01*
X143205200Y-84593490D01*
X143243904Y-84554785D01*
X143282609Y-84477376D01*
X143321314Y-84322557D01*
X143321314Y-84129033D01*
X143282609Y-83974214D01*
X143243904Y-83896804D01*
X143205200Y-83858100D01*
X143127790Y-83819395D01*
X142353695Y-83819395D02*
X142276285Y-83819395D01*
X142198876Y-83858100D01*
X142160171Y-83896804D01*
X142121466Y-83974214D01*
X142082761Y-84129033D01*
X142082761Y-84322557D01*
X142121466Y-84477376D01*
X142160171Y-84554785D01*
X142198876Y-84593490D01*
X142276285Y-84632195D01*
X142353695Y-84632195D01*
X142431104Y-84593490D01*
X142469809Y-84554785D01*
X142508514Y-84477376D01*
X142547219Y-84322557D01*
X142547219Y-84129033D01*
X142508514Y-83974214D01*
X142469809Y-83896804D01*
X142431104Y-83858100D01*
X142353695Y-83819395D01*
X141579600Y-83819395D02*
X141502190Y-83819395D01*
X141424780Y-83858100D01*
X141386076Y-83896804D01*
X141347371Y-83974214D01*
X141308666Y-84129033D01*
X141308666Y-84322557D01*
X141347371Y-84477376D01*
X141386076Y-84554785D01*
X141424780Y-84593490D01*
X141502190Y-84632195D01*
X141579600Y-84632195D01*
X141657009Y-84593490D01*
X141695714Y-84554785D01*
X141734419Y-84477376D01*
X141773123Y-84322557D01*
X141773123Y-84129033D01*
X141734419Y-83974214D01*
X141695714Y-83896804D01*
X141657009Y-83858100D01*
X141579600Y-83819395D01*
X149905961Y-96570195D02*
X150176895Y-96183147D01*
X150370419Y-96570195D02*
X150370419Y-95757395D01*
X150060780Y-95757395D01*
X149983371Y-95796100D01*
X149944666Y-95834804D01*
X149905961Y-95912214D01*
X149905961Y-96028328D01*
X149944666Y-96105738D01*
X149983371Y-96144442D01*
X150060780Y-96183147D01*
X150370419Y-96183147D01*
X149557619Y-96144442D02*
X149286685Y-96144442D01*
X149170571Y-96570195D02*
X149557619Y-96570195D01*
X149557619Y-95757395D01*
X149170571Y-95757395D01*
X148938342Y-95757395D02*
X148667409Y-96570195D01*
X148396476Y-95757395D01*
X148125542Y-96492785D02*
X148086838Y-96531490D01*
X148125542Y-96570195D01*
X148164247Y-96531490D01*
X148125542Y-96492785D01*
X148125542Y-96570195D01*
X148125542Y-96067033D02*
X148086838Y-96105738D01*
X148125542Y-96144442D01*
X148164247Y-96105738D01*
X148125542Y-96067033D01*
X148125542Y-96144442D01*
X147157923Y-96337966D02*
X146770876Y-96337966D01*
X147235333Y-96570195D02*
X146964400Y-95757395D01*
X146693466Y-96570195D01*
D11*
X155670000Y-92900000D03*
X155670000Y-95440000D03*
X155670000Y-88900000D03*
X155670000Y-91440000D03*
X155670000Y-84900000D03*
X155670000Y-87440000D03*
X136430000Y-92900000D03*
X136430000Y-95440000D03*
X136430000Y-88900000D03*
X136430000Y-91440000D03*
X136430000Y-84900000D03*
X136430000Y-87440000D03*
D12*
X153670000Y-94170000D03*
X153670000Y-86170000D03*
X138430000Y-94170000D03*
X138430000Y-86170000D03*
X153670000Y-90170000D03*
X138430000Y-90170000D03*
D13*
X148550000Y-94170000D03*
X143550000Y-94170000D03*
X148550000Y-86170000D03*
X143550000Y-86170000D03*
X148550000Y-90170000D03*
X143550000Y-90170000D03*
M02*
