<?xml version="1.0" standalone="no"?>
 <!DOCTYPE svg PUBLIC "-//W3C//DTD SVG 1.1//EN" 
 "http://www.w3.org/Graphics/SVG/1.1/DTD/svg11.dtd"> 
<svg xmlns="http://www.w3.org/2000/svg" version="1.1" 
    width="14.4755cm" height="13.7566cm" viewBox="0 0 56990 54160 ">
<title>SVG Picture created as #110-000-brd.svg date 2019/12/02 02:34:57 </title>
  <desc>Picture generated by PCBNEW </desc>
<g style="fill:#000000; fill-opacity:1;stroke:#000000; stroke-opacity:1;
stroke-linecap:round; stroke-linejoin:round; "
 transform="translate(0 0) scale(1 1)">
</g>
<g style="fill:#000000; fill-opacity:0.0; 
stroke:#000000; stroke-width:-0.000393701; stroke-opacity:1; 
stroke-linecap:round; stroke-linejoin:round;">
</g>
<g style="fill:#0000FF; fill-opacity:0.0; 
stroke:#0000FF; stroke-width:-0.000393701; stroke-opacity:1; 
stroke-linecap:round; stroke-linejoin:round;">
</g>
<g style="fill:#0000FF; fill-opacity:0.0; 
stroke:#0000FF; stroke-width:59.0551; stroke-opacity:1; 
stroke-linecap:round; stroke-linejoin:round;">
<path d="M3394 50022
L3394 49759
L3788 49928
" />
<path d="M3751 49609
L3769 49591
L3788 49609
L3769 49628
L3751 49609
L3788 49609
" />
<path d="M3394 49253
L3394 49328
L3413 49366
L3432 49384
L3488 49422
L3563 49441
L3713 49441
L3751 49422
L3769 49403
L3788 49366
L3788 49291
L3769 49253
L3751 49234
L3713 49216
L3619 49216
L3582 49234
L3563 49253
L3544 49291
L3544 49366
L3563 49403
L3582 49422
L3619 49441
" />
<path d="M3432 49066
L3413 49047
L3394 49009
L3394 48916
L3413 48878
L3432 48860
L3469 48841
L3507 48841
L3563 48860
L3788 49084
L3788 48841
" />
<path d="M3394 48597
L3394 48560
L3413 48522
L3432 48503
L3469 48485
L3544 48466
L3638 48466
L3713 48485
L3751 48503
L3769 48522
L3788 48560
L3788 48597
L3769 48635
L3751 48653
L3713 48672
L3638 48691
L3544 48691
L3469 48672
L3432 48653
L3413 48635
L3394 48597
" />
<path d="M3788 47997
L3526 47997
" />
<path d="M3563 47997
L3544 47978
L3526 47941
L3526 47885
L3544 47847
L3582 47828
L3788 47828
" />
<path d="M3582 47828
L3544 47810
L3526 47772
L3526 47716
L3544 47678
L3582 47660
L3788 47660
" />
<path d="M3788 47472
L3526 47472
" />
<path d="M3563 47472
L3544 47453
L3526 47416
L3526 47360
L3544 47322
L3582 47303
L3788 47303
" />
<path d="M3582 47303
L3544 47285
L3526 47247
L3526 47191
L3544 47153
L3582 47135
L3788 47135
" />
<path d="M4122 50060
L4122 47060
" />
<path d="M7247 50060
L3891 50060
" />
<path d="M7247 47060
L3891 47060
" />
<path d="M4122 47060
L4353 47503
" />
<path d="M4122 47060
L3891 47503
" />
<path d="M4122 50060
L4353 49616
" />
<path d="M4122 50060
L3891 49616
" />
<path d="M49491 51393
L49510 51375
L49547 51356
L49641 51356
L49678 51375
L49697 51393
L49716 51431
L49716 51468
L49697 51524
L49472 51749
L49716 51749
" />
<path d="M49885 51712
L49903 51731
L49885 51749
L49866 51731
L49885 51712
L49885 51749
" />
<path d="M50128 51524
L50091 51506
L50072 51487
L50053 51449
L50053 51431
L50072 51393
L50091 51375
L50128 51356
L50203 51356
L50241 51375
L50259 51393
L50278 51431
L50278 51449
L50259 51487
L50241 51506
L50203 51524
L50128 51524
L50091 51543
L50072 51562
L50053 51599
L50053 51674
L50072 51712
L50091 51731
L50128 51749
L50203 51749
L50241 51731
L50259 51712
L50278 51674
L50278 51599
L50259 51562
L50241 51543
L50203 51524
" />
<path d="M50634 51356
L50447 51356
L50428 51543
L50447 51524
L50484 51506
L50578 51506
L50616 51524
L50634 51543
L50653 51581
L50653 51674
L50634 51712
L50616 51731
L50578 51749
L50484 51749
L50447 51731
L50428 51712
" />
<path d="M50784 51356
L51047 51356
L50878 51749
" />
<path d="M51497 51749
L51497 51487
" />
<path d="M51497 51524
L51516 51506
L51553 51487
L51609 51487
L51647 51506
L51666 51543
L51666 51749
" />
<path d="M51666 51543
L51684 51506
L51722 51487
L51778 51487
L51816 51506
L51834 51543
L51834 51749
" />
<path d="M52022 51749
L52022 51487
" />
<path d="M52022 51524
L52040 51506
L52078 51487
L52134 51487
L52172 51506
L52190 51543
L52190 51749
" />
<path d="M52190 51543
L52209 51506
L52247 51487
L52303 51487
L52340 51506
L52359 51543
L52359 51749
" />
<path d="M50372 51060
L51497 51060
" />
<path d="M50372 48310
L50372 51290
" />
<path d="M51497 48310
L51497 51290
" />
<path d="M51497 51060
L51053 51290
" />
<path d="M51497 51060
L51053 50829
" />
<path d="M50372 51060
L50815 51290
" />
<path d="M50372 51060
L50815 50829
" />
<path d="M6366 51143
L6385 51125
L6422 51106
L6516 51106
L6553 51125
L6572 51143
L6591 51181
L6591 51218
L6572 51274
L6347 51499
L6591 51499
" />
<path d="M6760 51462
L6778 51481
L6760 51499
L6741 51481
L6760 51462
L6760 51499
" />
<path d="M7003 51274
L6966 51256
L6947 51237
L6928 51199
L6928 51181
L6947 51143
L6966 51125
L7003 51106
L7078 51106
L7116 51125
L7134 51143
L7153 51181
L7153 51199
L7134 51237
L7116 51256
L7078 51274
L7003 51274
L6966 51293
L6947 51312
L6928 51349
L6928 51424
L6947 51462
L6966 51481
L7003 51499
L7078 51499
L7116 51481
L7134 51462
L7153 51424
L7153 51349
L7134 51312
L7116 51293
L7078 51274
" />
<path d="M7509 51106
L7322 51106
L7303 51293
L7322 51274
L7359 51256
L7453 51256
L7491 51274
L7509 51293
L7528 51331
L7528 51424
L7509 51462
L7491 51481
L7453 51499
L7359 51499
L7322 51481
L7303 51462
" />
<path d="M7659 51106
L7922 51106
L7753 51499
" />
<path d="M8372 51499
L8372 51237
" />
<path d="M8372 51274
L8391 51256
L8428 51237
L8484 51237
L8522 51256
L8541 51293
L8541 51499
" />
<path d="M8541 51293
L8559 51256
L8597 51237
L8653 51237
L8691 51256
L8709 51293
L8709 51499
" />
<path d="M8897 51499
L8897 51237
" />
<path d="M8897 51274
L8915 51256
L8953 51237
L9009 51237
L9047 51256
L9065 51293
L9065 51499
" />
<path d="M9065 51293
L9084 51256
L9122 51237
L9178 51237
L9215 51256
L9234 51293
L9234 51499
" />
<path d="M8372 50810
L7247 50810
" />
<path d="M8372 48310
L8372 51040
" />
<path d="M7247 48310
L7247 51040
" />
<path d="M7247 50810
L7690 50579
" />
<path d="M7247 50810
L7690 51040
" />
<path d="M8372 50810
L7928 50579
" />
<path d="M8372 50810
L7928 51040
" />
<path d="M53956 20653
L53956 20428
" />
<path d="M53956 20541
L54349 20541
L54293 20503
L54256 20466
L54237 20428
" />
<path d="M54349 20785
L54349 21047
L53956 20878
" />
<path d="M53993 21197
L53974 21216
L53956 21197
L53974 21178
L53993 21197
L53956 21197
" />
<path d="M54349 21347
L54349 21610
L53956 21441
" />
<path d="M54181 21816
L54199 21778
L54218 21760
L54256 21741
L54274 21741
L54312 21760
L54331 21778
L54349 21816
L54349 21891
L54331 21928
L54312 21947
L54274 21966
L54256 21966
L54218 21947
L54199 21928
L54181 21891
L54181 21816
L54162 21778
L54143 21760
L54106 21741
L54031 21741
L53993 21760
L53974 21778
L53956 21816
L53956 21891
L53974 21928
L53993 21947
L54031 21966
L54106 21966
L54143 21947
L54162 21928
L54181 21891
" />
<path d="M54349 22210
L54349 22247
L54331 22285
L54312 22303
L54274 22322
L54199 22341
L54106 22341
L54031 22322
L53993 22303
L53974 22285
L53956 22247
L53956 22210
L53974 22172
L53993 22153
L54031 22135
L54106 22116
L54199 22116
L54274 22135
L54312 22153
L54331 22172
L54349 22210
" />
<path d="M53956 22809
L54218 22809
" />
<path d="M54181 22809
L54199 22828
L54218 22866
L54218 22922
L54199 22959
L54162 22978
L53956 22978
" />
<path d="M54162 22978
L54199 22997
L54218 23034
L54218 23091
L54199 23128
L54162 23147
L53956 23147
" />
<path d="M53956 23334
L54218 23334
" />
<path d="M54181 23334
L54199 23353
L54218 23391
L54218 23447
L54199 23484
L54162 23503
L53956 23503
" />
<path d="M54162 23503
L54199 23522
L54218 23559
L54218 23616
L54199 23653
L54162 23672
L53956 23672
" />
<path d="M53622 18560
L53622 25560
" />
<path d="M50372 18560
L53853 18560
" />
<path d="M50372 25560
L53853 25560
" />
<path d="M53622 25560
L53391 25116
" />
<path d="M53622 25560
L53853 25116
" />
<path d="M53622 18560
L53391 19003
" />
<path d="M53622 18560
L53853 19003
" />
<path d="M55474 31785
L55474 32047
L55081 31878
" />
<path d="M55474 32385
L55474 32197
L55287 32178
L55306 32197
L55324 32235
L55324 32328
L55306 32366
L55287 32385
L55249 32403
L55156 32403
L55118 32385
L55099 32366
L55081 32328
L55081 32235
L55099 32197
L55118 32178
" />
<path d="M55118 32572
L55099 32591
L55081 32572
L55099 32553
L55118 32572
L55081 32572
" />
<path d="M55474 32947
L55474 32760
L55287 32741
L55306 32760
L55324 32797
L55324 32891
L55306 32928
L55287 32947
L55249 32966
L55156 32966
L55118 32947
L55099 32928
L55081 32891
L55081 32797
L55099 32760
L55118 32741
" />
<path d="M55474 33303
L55474 33228
L55456 33191
L55437 33172
L55381 33135
L55306 33116
L55156 33116
L55118 33135
L55099 33153
L55081 33191
L55081 33266
L55099 33303
L55118 33322
L55156 33341
L55249 33341
L55287 33322
L55306 33303
L55324 33266
L55324 33191
L55306 33153
L55287 33135
L55249 33116
" />
<path d="M55474 33697
L55474 33510
L55287 33491
L55306 33510
L55324 33547
L55324 33641
L55306 33678
L55287 33697
L55249 33716
L55156 33716
L55118 33697
L55099 33678
L55081 33641
L55081 33547
L55099 33510
L55118 33491
" />
<path d="M55081 34184
L55343 34184
" />
<path d="M55306 34184
L55324 34203
L55343 34241
L55343 34297
L55324 34334
L55287 34353
L55081 34353
" />
<path d="M55287 34353
L55324 34372
L55343 34409
L55343 34466
L55324 34503
L55287 34522
L55081 34522
" />
<path d="M55081 34709
L55343 34709
" />
<path d="M55306 34709
L55324 34728
L55343 34766
L55343 34822
L55324 34859
L55287 34878
L55081 34878
" />
<path d="M55287 34878
L55324 34897
L55343 34934
L55343 34991
L55324 35028
L55287 35047
L55081 35047
" />
<path d="M54747 18560
L54747 48310
" />
<path d="M53622 18560
L54978 18560
" />
<path d="M53622 48310
L54978 48310
" />
<path d="M54747 48310
L54516 47866
" />
<path d="M54747 48310
L54978 47866
" />
<path d="M54747 18560
L54516 19003
" />
<path d="M54747 18560
L54978 19003
" />
<path d="M53212 27763
L52819 27857
L53100 27932
L52819 28007
L53212 28101
" />
<path d="M52819 28251
L53212 28251
" />
<path d="M52819 28663
L53006 28532
" />
<path d="M52819 28438
L53212 28438
L53212 28588
L53194 28626
L53175 28645
L53137 28663
L53081 28663
L53044 28645
L53025 28626
L53006 28588
L53006 28438
" />
<path d="M52819 28832
L53212 28832
" />
<path d="M52819 29019
L53212 29019
L52819 29244
L53212 29244
" />
<path d="M53194 29638
L53212 29601
L53212 29544
L53194 29488
L53156 29451
L53119 29432
L53044 29413
L52988 29413
L52913 29432
L52875 29451
L52838 29488
L52819 29544
L52819 29582
L52838 29638
L52856 29657
L52988 29657
L52988 29582
" />
<path d="M52856 30351
L52838 30332
L52819 30276
L52819 30238
L52838 30182
L52875 30144
L52913 30126
L52988 30107
L53044 30107
L53119 30126
L53156 30144
L53194 30182
L53212 30238
L53212 30276
L53194 30332
L53175 30351
" />
<path d="M52856 30519
L52838 30538
L52819 30519
L52838 30501
L52856 30519
L52819 30519
" />
<path d="M52781 30969
L52800 30932
L52838 30894
L52894 30838
L52913 30800
L52913 30763
" />
<path d="M52819 30782
L52838 30744
L52875 30707
L52950 30688
L53081 30688
L53156 30707
L53194 30744
L53212 30782
L53212 30857
L53194 30894
L53156 30932
L53081 30950
L52950 30950
L52875 30932
L52838 30894
L52819 30857
L52819 30782
" />
<path d="M52819 31419
L53212 31419
L52931 31550
L53212 31682
L52819 31682
" />
<path d="M53212 31944
L53212 32019
L53194 32057
L53156 32094
L53081 32113
L52950 32113
L52875 32094
L52838 32057
L52819 32019
L52819 31944
L52838 31907
L52875 31869
L52950 31850
L53081 31850
L53156 31869
L53194 31907
L53212 31944
" />
<path d="M53212 32282
L52894 32282
L52856 32300
L52838 32319
L52819 32357
L52819 32432
L52838 32469
L52856 32488
L52894 32507
L53212 32507
" />
<path d="M52819 32694
L53212 32694
L52819 32919
L53212 32919
" />
<path d="M53212 33050
L53212 33275
" />
<path d="M52819 33163
L53212 33163
" />
<path d="M52819 33406
L53212 33406
" />
<path d="M52819 33594
L53212 33594
L52819 33819
L53212 33819
" />
<path d="M53194 34213
L53212 34175
L53212 34119
L53194 34063
L53156 34025
L53119 34006
L53044 33988
L52988 33988
L52913 34006
L52875 34025
L52838 34063
L52819 34119
L52819 34156
L52838 34213
L52856 34231
L52988 34231
L52988 34156
" />
<path d="M52819 34700
L53212 34700
" />
<path d="M53025 34700
L53025 34925
" />
<path d="M52819 34925
L53212 34925
" />
<path d="M53212 35187
L53212 35262
L53194 35300
L53156 35337
L53081 35356
L52950 35356
L52875 35337
L52838 35300
L52819 35262
L52819 35187
L52838 35150
L52875 35112
L52950 35094
L53081 35094
L53156 35112
L53194 35150
L53212 35187
" />
<path d="M52819 35712
L52819 35525
L53212 35525
" />
<path d="M53025 35844
L53025 35975
" />
<path d="M52819 36031
L52819 35844
L53212 35844
L53212 36031
" />
<path d="M52819 36500
L53212 36500
L53212 36594
L53194 36650
L53156 36687
L53119 36706
L53044 36725
L52988 36725
L52913 36706
L52875 36687
L52838 36650
L52819 36594
L52819 36500
" />
<path d="M52819 36893
L53212 36893
" />
<path d="M52838 37062
L52819 37118
L52819 37212
L52838 37250
L52856 37268
L52894 37287
L52931 37287
L52969 37268
L52988 37250
L53006 37212
L53025 37137
L53044 37100
L53062 37081
L53100 37062
L53137 37062
L53175 37081
L53194 37100
L53212 37137
L53212 37231
L53194 37287
" />
<path d="M53212 37400
L53212 37625
" />
<path d="M52819 37512
L53212 37512
" />
<path d="M52931 37737
L52931 37925
" />
<path d="M52819 37700
L53212 37831
L52819 37962
" />
<path d="M52819 38093
L53212 38093
L52819 38318
L53212 38318
" />
<path d="M52856 38731
L52838 38712
L52819 38656
L52819 38618
L52838 38562
L52875 38525
L52913 38506
L52988 38487
L53044 38487
L53119 38506
L53156 38525
L53194 38562
L53212 38618
L53212 38656
L53194 38712
L53175 38731
" />
<path d="M53025 38899
L53025 39031
" />
<path d="M52819 39087
L52819 38899
L53212 38899
L53212 39087
" />
<path d="M25304 5988
L25304 5594
L25454 5594
L25491 5613
L25510 5631
L25529 5669
L25529 5725
L25510 5763
L25491 5781
L25454 5800
L25304 5800
" />
<path d="M25922 5950
L25904 5969
L25847 5988
L25810 5988
L25754 5969
L25716 5931
L25697 5894
L25679 5819
L25679 5763
L25697 5688
L25716 5650
L25754 5613
L25810 5594
L25847 5594
L25904 5613
L25922 5631
" />
<path d="M26222 5781
L26279 5800
L26297 5819
L26316 5856
L26316 5913
L26297 5950
L26279 5969
L26241 5988
L26091 5988
L26091 5594
L26222 5594
L26260 5613
L26279 5631
L26297 5669
L26297 5706
L26279 5744
L26260 5763
L26222 5781
L26091 5781
" />
<path d="M26747 5594
L26841 5988
L26916 5706
L26991 5988
L27085 5594
" />
<path d="M27235 5988
L27235 5594
" />
<path d="M27422 5988
L27422 5594
L27516 5594
L27572 5613
L27610 5650
L27628 5688
L27647 5763
L27647 5819
L27628 5894
L27610 5931
L27572 5969
L27516 5988
L27422 5988
" />
<path d="M27760 5594
L27985 5594
" />
<path d="M27872 5988
L27872 5594
" />
<path d="M28116 5988
L28116 5594
" />
<path d="M28116 5781
L28341 5781
" />
<path d="M28341 5988
L28341 5594
" />
<path d="M28828 5838
L29128 5838
" />
<path d="M29616 5988
L29616 5594
L29841 5988
L29841 5594
" />
<path d="M30009 5875
L30197 5875
" />
<path d="M29972 5988
L30103 5594
L30234 5988
" />
<path d="M30590 5988
L30459 5800
" />
<path d="M30366 5988
L30366 5594
L30515 5594
L30553 5613
L30572 5631
L30590 5669
L30590 5725
L30572 5763
L30553 5781
L30515 5800
L30366 5800
" />
<path d="M30984 5988
L30853 5800
" />
<path d="M30759 5988
L30759 5594
L30909 5594
L30947 5613
L30965 5631
L30984 5669
L30984 5725
L30965 5763
L30947 5781
L30909 5800
L30759 5800
" />
<path d="M31228 5594
L31303 5594
L31340 5613
L31378 5650
L31397 5725
L31397 5856
L31378 5931
L31340 5969
L31303 5988
L31228 5988
L31190 5969
L31153 5931
L31134 5856
L31134 5725
L31153 5650
L31190 5613
L31228 5594
" />
<path d="M31528 5594
L31622 5988
L31697 5706
L31772 5988
L31865 5594
" />
<path d="M32297 5969
L32353 5988
L32446 5988
L32484 5969
L32503 5950
L32521 5913
L32521 5875
L32503 5838
L32484 5819
L32446 5800
L32372 5781
L32334 5763
L32315 5744
L32297 5706
L32297 5669
L32315 5631
L32334 5613
L32372 5594
L32465 5594
L32521 5613
" />
<path d="M32690 5988
L32690 5594
" />
<path d="M32878 5988
L32878 5594
L32971 5594
L33028 5613
L33065 5650
L33084 5688
L33103 5763
L33103 5819
L33084 5894
L33065 5931
L33028 5969
L32971 5988
L32878 5988
" />
<path d="M33271 5781
L33403 5781
" />
<path d="M33459 5988
L33271 5988
L33271 5594
L33459 5594
" />
<path d="M25975 1488
L25975 1094
L26125 1094
L26163 1113
L26182 1131
L26200 1169
L26200 1225
L26182 1263
L26163 1281
L26125 1300
L25975 1300
" />
<path d="M26594 1450
L26575 1469
L26519 1488
L26482 1488
L26425 1469
L26388 1431
L26369 1394
L26350 1319
L26350 1263
L26369 1188
L26388 1150
L26425 1113
L26482 1094
L26519 1094
L26575 1113
L26594 1131
" />
<path d="M26894 1281
L26950 1300
L26969 1319
L26988 1356
L26988 1413
L26969 1450
L26950 1469
L26913 1488
L26763 1488
L26763 1094
L26894 1094
L26931 1113
L26950 1131
L26969 1169
L26969 1206
L26950 1244
L26931 1263
L26894 1281
L26763 1281
" />
<path d="M27419 1094
L27513 1488
L27588 1206
L27663 1488
L27756 1094
" />
<path d="M27906 1488
L27906 1094
" />
<path d="M28094 1488
L28094 1094
L28188 1094
L28244 1113
L28281 1150
L28300 1188
L28319 1263
L28319 1319
L28300 1394
L28281 1431
L28244 1469
L28188 1488
L28094 1488
" />
<path d="M28431 1094
L28656 1094
" />
<path d="M28544 1488
L28544 1094
" />
<path d="M28788 1488
L28788 1094
" />
<path d="M28788 1281
L29012 1281
" />
<path d="M29012 1488
L29012 1094
" />
<path d="M29500 1338
L29800 1338
" />
<path d="M30231 1094
L30456 1094
" />
<path d="M30344 1488
L30344 1094
" />
<path d="M30662 1094
L30737 1094
L30775 1113
L30812 1150
L30831 1225
L30831 1356
L30812 1431
L30775 1469
L30737 1488
L30662 1488
L30625 1469
L30587 1431
L30569 1356
L30569 1225
L30587 1150
L30625 1113
L30662 1094
" />
<path d="M30943 1094
L31168 1094
" />
<path d="M31056 1488
L31056 1094
" />
<path d="M31281 1375
L31468 1375
" />
<path d="M31243 1488
L31375 1094
L31506 1488
" />
<path d="M31825 1488
L31637 1488
L31637 1094
" />
<path d="M53956 43653
L53956 43428
" />
<path d="M53956 43541
L54349 43541
L54293 43503
L54256 43466
L54237 43428
" />
<path d="M54349 43991
L54349 43916
L54331 43878
L54312 43860
L54256 43822
L54181 43803
L54031 43803
L53993 43822
L53974 43841
L53956 43878
L53956 43953
L53974 43991
L53993 44010
L54031 44028
L54124 44028
L54162 44010
L54181 43991
L54199 43953
L54199 43878
L54181 43841
L54162 43822
L54124 43803
" />
<path d="M53993 44197
L53974 44216
L53956 44197
L53974 44178
L53993 44197
L53956 44197
" />
<path d="M54349 44572
L54349 44385
L54162 44366
L54181 44385
L54199 44422
L54199 44516
L54181 44553
L54162 44572
L54124 44591
L54031 44591
L53993 44572
L53974 44553
L53956 44516
L53956 44422
L53974 44385
L53993 44366
" />
<path d="M53956 44966
L53956 44741
" />
<path d="M53956 44853
L54349 44853
L54293 44816
L54256 44778
L54237 44741
" />
<path d="M54349 45210
L54349 45247
L54331 45285
L54312 45303
L54274 45322
L54199 45341
L54106 45341
L54031 45322
L53993 45303
L53974 45285
L53956 45247
L53956 45210
L53974 45172
L53993 45153
L54031 45135
L54106 45116
L54199 45116
L54274 45135
L54312 45153
L54331 45172
L54349 45210
" />
<path d="M53956 45809
L54218 45809
" />
<path d="M54181 45809
L54199 45828
L54218 45866
L54218 45922
L54199 45959
L54162 45978
L53956 45978
" />
<path d="M54162 45978
L54199 45997
L54218 46034
L54218 46091
L54199 46128
L54162 46147
L53956 46147
" />
<path d="M53956 46334
L54218 46334
" />
<path d="M54181 46334
L54199 46353
L54218 46391
L54218 46447
L54199 46484
L54162 46503
L53956 46503
" />
<path d="M54162 46503
L54199 46522
L54218 46559
L54218 46616
L54199 46653
L54162 46672
L53956 46672
" />
<path d="M53622 41810
L53622 48310
" />
<path d="M50372 41810
L53853 41810
" />
<path d="M50372 48310
L53853 48310
" />
<path d="M53622 48310
L53391 47866
" />
<path d="M53622 48310
L53853 47866
" />
<path d="M53622 41810
L53391 42253
" />
<path d="M53622 41810
L53853 42253
" />
<path d="M54218 32241
L53956 32241
" />
<path d="M54368 32147
L54087 32053
L54087 32297
" />
<path d="M53956 32653
L53956 32428
" />
<path d="M53956 32541
L54349 32541
L54293 32503
L54256 32466
L54237 32428
" />
<path d="M53993 32822
L53974 32841
L53956 32822
L53974 32803
L53993 32822
L53956 32822
" />
<path d="M54312 32991
L54331 33010
L54349 33047
L54349 33141
L54331 33178
L54312 33197
L54274 33216
L54237 33216
L54181 33197
L53956 32972
L53956 33216
" />
<path d="M54349 33347
L54349 33610
L53956 33441
" />
<path d="M54349 33947
L54349 33760
L54162 33741
L54181 33760
L54199 33797
L54199 33891
L54181 33928
L54162 33947
L54124 33966
L54031 33966
L53993 33947
L53974 33928
L53956 33891
L53956 33797
L53974 33760
L53993 33741
" />
<path d="M53956 34434
L54218 34434
" />
<path d="M54181 34434
L54199 34453
L54218 34491
L54218 34547
L54199 34584
L54162 34603
L53956 34603
" />
<path d="M54162 34603
L54199 34622
L54218 34659
L54218 34716
L54199 34753
L54162 34772
L53956 34772
" />
<path d="M53956 34959
L54218 34959
" />
<path d="M54181 34959
L54199 34978
L54218 35016
L54218 35072
L54199 35109
L54162 35128
L53956 35128
" />
<path d="M54162 35128
L54199 35147
L54218 35184
L54218 35241
L54199 35278
L54162 35297
L53956 35297
" />
<path d="M53622 25560
L53622 41810
" />
<path d="M50372 25560
L53853 25560
" />
<path d="M50372 41810
L53853 41810
" />
<path d="M53622 41810
L53391 41366
" />
<path d="M53622 41810
L53853 41366
" />
<path d="M53622 25560
L53391 26003
" />
<path d="M53622 25560
L53853 26003
" />
<path d="M27778 476
L27553 476
" />
<path d="M27666 476
L27666 82
L27628 138
L27591 176
L27553 195
" />
<path d="M28153 476
L27928 476
" />
<path d="M28041 476
L28041 82
L28003 138
L27966 176
L27928 195
" />
<path d="M28303 120
L28322 101
L28360 82
L28453 82
L28491 101
L28509 120
L28528 157
L28528 195
L28509 251
L28285 476
L28528 476
" />
<path d="M28697 438
L28716 457
L28697 476
L28678 457
L28697 438
L28697 476
" />
<path d="M28847 82
L29091 82
L28959 232
L29016 232
L29053 251
L29072 270
L29091 307
L29091 401
L29072 438
L29053 457
L29016 476
L28903 476
L28866 457
L28847 438
" />
<path d="M29278 476
L29353 476
L29391 457
L29409 438
L29447 382
L29466 307
L29466 157
L29447 120
L29428 101
L29391 82
L29316 82
L29278 101
L29259 120
L29241 157
L29241 251
L29259 288
L29278 307
L29316 326
L29391 326
L29428 307
L29447 288
L29466 251
" />
<path d="M29822 82
L29634 82
L29616 270
L29634 251
L29672 232
L29766 232
L29803 251
L29822 270
L29841 307
L29841 401
L29822 438
L29803 457
L29766 476
L29672 476
L29634 457
L29616 438
" />
<path d="M30309 476
L30309 213
" />
<path d="M30309 251
L30328 232
L30366 213
L30422 213
L30459 232
L30478 270
L30478 476
" />
<path d="M30478 270
L30497 232
L30534 213
L30590 213
L30628 232
L30647 270
L30647 476
" />
<path d="M30834 476
L30834 213
" />
<path d="M30834 251
L30853 232
L30890 213
L30947 213
L30984 232
L31003 270
L31003 476
" />
<path d="M31003 270
L31022 232
L31059 213
L31115 213
L31153 232
L31172 270
L31172 476
" />
<path d="M7247 810
L51497 810
" />
<path d="M7247 9560
L7247 579
" />
<path d="M51497 9560
L51497 579
" />
<path d="M51497 810
L51053 1040
" />
<path d="M51497 810
L51053 579
" />
<path d="M7247 810
L7690 1040
" />
<path d="M7247 810
L7690 579
" />
<path d="M8372 25560
L49622 25560
" />
<path d="M8372 18560
L49622 18560
" />
<path d="M50372 48310
L50372 18560
" />
<path d="M8372 41810
L50372 41810
" />
<path d="M8372 48310
L8372 18560
" />
<path d="M8372 48310
L50372 48310
" />
<path d="M7247 50060
L51497 50060
" />
<path d="M51497 50060
L51497 9560
" />
<path d="M7247 9560
L7247 50060
" />
<path d="M51497 9560
L7247 9560
" />
<path d="M1519 41359
L1519 41547
L1707 41566
L1688 41547
L1669 41509
L1669 41416
L1688 41378
L1707 41359
L1744 41341
L1838 41341
L1876 41359
L1894 41378
L1913 41416
L1913 41509
L1894 41547
L1876 41566
" />
<path d="M1913 40966
L1913 41191
" />
<path d="M1913 41078
L1519 41078
L1576 41116
L1613 41153
L1632 41191
" />
<path d="M1876 40797
L1894 40778
L1913 40797
L1894 40816
L1876 40797
L1913 40797
" />
<path d="M1651 40441
L1913 40441
" />
<path d="M1501 40534
L1782 40628
L1782 40384
" />
<path d="M1519 40272
L1519 40028
L1669 40160
L1669 40103
L1688 40066
L1707 40047
L1744 40028
L1838 40028
L1876 40047
L1894 40066
L1913 40103
L1913 40216
L1894 40253
L1876 40272
" />
<path d="M1519 39672
L1519 39860
L1707 39878
L1688 39860
L1669 39822
L1669 39728
L1688 39691
L1707 39672
L1744 39653
L1838 39653
L1876 39672
L1894 39691
L1913 39728
L1913 39822
L1894 39860
L1876 39878
" />
<path d="M1913 39185
L1651 39185
" />
<path d="M1688 39185
L1669 39166
L1651 39128
L1651 39072
L1669 39035
L1707 39016
L1913 39016
" />
<path d="M1707 39016
L1669 38997
L1651 38960
L1651 38903
L1669 38866
L1707 38847
L1913 38847
" />
<path d="M1913 38660
L1651 38660
" />
<path d="M1688 38660
L1669 38641
L1651 38603
L1651 38547
L1669 38510
L1707 38491
L1913 38491
" />
<path d="M1707 38491
L1669 38472
L1651 38435
L1651 38378
L1669 38341
L1707 38322
L1913 38322
" />
<path d="M2247 50060
L2247 29810
" />
<path d="M7247 50060
L2016 50060
" />
<path d="M7247 29810
L2016 29810
" />
<path d="M2247 29810
L2478 30253
" />
<path d="M2247 29810
L2016 30253
" />
<path d="M2247 50060
L2478 49616
" />
<path d="M2247 50060
L2016 49616
" />
<path d="M3394 39084
L3394 38841
L3544 38972
L3544 38916
L3563 38878
L3582 38859
L3619 38841
L3713 38841
L3751 38859
L3769 38878
L3788 38916
L3788 39028
L3769 39066
L3751 39084
" />
<path d="M3563 38616
L3544 38653
L3526 38672
L3488 38691
L3469 38691
L3432 38672
L3413 38653
L3394 38616
L3394 38541
L3413 38503
L3432 38484
L3469 38466
L3488 38466
L3526 38484
L3544 38503
L3563 38541
L3563 38616
L3582 38653
L3601 38672
L3638 38691
L3713 38691
L3751 38672
L3769 38653
L3788 38616
L3788 38541
L3769 38503
L3751 38484
L3713 38466
L3638 38466
L3601 38484
L3582 38503
L3563 38541
" />
<path d="M3751 38297
L3769 38278
L3788 38297
L3769 38316
L3751 38297
L3788 38297
" />
<path d="M3394 38147
L3394 37884
L3788 38053
" />
<path d="M3394 37772
L3394 37528
L3544 37660
L3544 37603
L3563 37566
L3582 37547
L3619 37528
L3713 37528
L3751 37547
L3769 37566
L3788 37603
L3788 37716
L3769 37753
L3751 37772
" />
<path d="M3394 37172
L3394 37360
L3582 37378
L3563 37360
L3544 37322
L3544 37228
L3563 37191
L3582 37172
L3619 37153
L3713 37153
L3751 37172
L3769 37191
L3788 37228
L3788 37322
L3769 37360
L3751 37378
" />
<path d="M3788 36685
L3526 36685
" />
<path d="M3563 36685
L3544 36666
L3526 36628
L3526 36572
L3544 36535
L3582 36516
L3788 36516
" />
<path d="M3582 36516
L3544 36497
L3526 36460
L3526 36403
L3544 36366
L3582 36347
L3788 36347
" />
<path d="M3788 36160
L3526 36160
" />
<path d="M3563 36160
L3544 36141
L3526 36103
L3526 36047
L3544 36010
L3582 35991
L3788 35991
" />
<path d="M3582 35991
L3544 35972
L3526 35935
L3526 35878
L3544 35841
L3582 35822
L3788 35822
" />
<path d="M4122 45060
L4122 29810
" />
<path d="M7247 45060
L3891 45060
" />
<path d="M7247 29810
L3891 29810
" />
<path d="M4122 29810
L4353 30253
" />
<path d="M4122 29810
L3891 30253
" />
<path d="M4122 45060
L4353 44616
" />
<path d="M4122 45060
L3891 44616
" />
<path d="M5269 38084
L5269 37841
L5419 37972
L5419 37916
L5438 37878
L5457 37859
L5494 37841
L5588 37841
L5626 37859
L5644 37878
L5663 37916
L5663 38028
L5644 38066
L5626 38084
" />
<path d="M5269 37709
L5269 37466
L5419 37597
L5419 37541
L5438 37503
L5457 37484
L5494 37466
L5588 37466
L5626 37484
L5644 37503
L5663 37541
L5663 37653
L5644 37691
L5626 37709
" />
<path d="M5626 37297
L5644 37278
L5663 37297
L5644 37316
L5626 37297
L5663 37297
" />
<path d="M5269 36941
L5269 37016
L5288 37053
L5307 37072
L5363 37109
L5438 37128
L5588 37128
L5626 37109
L5644 37091
L5663 37053
L5663 36978
L5644 36941
L5626 36922
L5588 36903
L5494 36903
L5457 36922
L5438 36941
L5419 36978
L5419 37053
L5438 37091
L5457 37109
L5494 37128
" />
<path d="M5269 36547
L5269 36735
L5457 36753
L5438 36735
L5419 36697
L5419 36603
L5438 36566
L5457 36547
L5494 36528
L5588 36528
L5626 36547
L5644 36566
L5663 36603
L5663 36697
L5644 36735
L5626 36753
" />
<path d="M5269 36172
L5269 36360
L5457 36378
L5438 36360
L5419 36322
L5419 36228
L5438 36191
L5457 36172
L5494 36153
L5588 36153
L5626 36172
L5644 36191
L5663 36228
L5663 36322
L5644 36360
L5626 36378
" />
<path d="M5663 35685
L5401 35685
" />
<path d="M5438 35685
L5419 35666
L5401 35628
L5401 35572
L5419 35535
L5457 35516
L5663 35516
" />
<path d="M5457 35516
L5419 35497
L5401 35460
L5401 35403
L5419 35366
L5457 35347
L5663 35347
" />
<path d="M5663 35160
L5401 35160
" />
<path d="M5438 35160
L5419 35141
L5401 35103
L5401 35047
L5419 35010
L5457 34991
L5663 34991
" />
<path d="M5457 34991
L5419 34972
L5401 34935
L5401 34878
L5419 34841
L5457 34822
L5663 34822
" />
<path d="M5997 43060
L5997 29810
" />
<path d="M7247 43060
L5766 43060
" />
<path d="M7247 29810
L5766 29810
" />
<path d="M5997 29810
L6228 30253
" />
<path d="M5997 29810
L5766 30253
" />
<path d="M5997 43060
L6228 42616
" />
<path d="M5997 43060
L5766 42616
" />
<path d="M39010 1207
L38822 1207
L38803 1395
L38822 1376
L38860 1357
L38953 1357
L38991 1376
L39010 1395
L39028 1432
L39028 1526
L39010 1563
L38991 1582
L38953 1601
L38860 1601
L38822 1582
L38803 1563
" />
<path d="M39366 1207
L39291 1207
L39253 1226
L39235 1245
L39197 1301
L39178 1376
L39178 1526
L39197 1563
L39216 1582
L39253 1601
L39328 1601
L39366 1582
L39385 1563
L39403 1526
L39403 1432
L39385 1395
L39366 1376
L39328 1357
L39253 1357
L39216 1376
L39197 1395
L39178 1432
" />
<path d="M39572 1563
L39591 1582
L39572 1601
L39553 1582
L39572 1563
L39572 1601
" />
<path d="M39966 1601
L39741 1601
" />
<path d="M39853 1601
L39853 1207
L39816 1263
L39778 1301
L39741 1320
" />
<path d="M40153 1601
L40228 1601
L40266 1582
L40284 1563
L40322 1507
L40341 1432
L40341 1282
L40322 1245
L40303 1226
L40266 1207
L40191 1207
L40153 1226
L40134 1245
L40116 1282
L40116 1376
L40134 1413
L40153 1432
L40191 1451
L40266 1451
L40303 1432
L40322 1413
L40341 1376
" />
<path d="M40472 1207
L40734 1207
L40566 1601
" />
<path d="M41184 1601
L41184 1338
" />
<path d="M41184 1376
L41203 1357
L41241 1338
L41297 1338
L41334 1357
L41353 1395
L41353 1601
" />
<path d="M41353 1395
L41372 1357
L41409 1338
L41465 1338
L41503 1357
L41522 1395
L41522 1601
" />
<path d="M41709 1601
L41709 1338
" />
<path d="M41709 1376
L41728 1357
L41765 1338
L41822 1338
L41859 1357
L41878 1395
L41878 1601
" />
<path d="M41878 1395
L41897 1357
L41934 1338
L41990 1338
L42028 1357
L42047 1395
L42047 1601
" />
<path d="M51497 1935
L29372 1935
" />
<path d="M51497 1981
L51497 1704
" />
<path d="M29372 1981
L29372 1704
" />
<path d="M29372 1935
L29815 1704
" />
<path d="M29372 1935
L29815 2165
" />
<path d="M51497 1935
L51053 1704
" />
<path d="M51497 1935
L51053 2165
" />
<path d="M16885 1207
L16697 1207
L16678 1395
L16697 1376
L16735 1357
L16828 1357
L16866 1376
L16885 1395
L16903 1432
L16903 1526
L16885 1563
L16866 1582
L16828 1601
L16735 1601
L16697 1582
L16678 1563
" />
<path d="M17241 1207
L17166 1207
L17128 1226
L17110 1245
L17072 1301
L17053 1376
L17053 1526
L17072 1563
L17091 1582
L17128 1601
L17203 1601
L17241 1582
L17260 1563
L17278 1526
L17278 1432
L17260 1395
L17241 1376
L17203 1357
L17128 1357
L17091 1376
L17072 1395
L17053 1432
" />
<path d="M17447 1563
L17466 1582
L17447 1601
L17428 1582
L17447 1563
L17447 1601
" />
<path d="M17841 1601
L17616 1601
" />
<path d="M17728 1601
L17728 1207
L17691 1263
L17653 1301
L17616 1320
" />
<path d="M18028 1601
L18103 1601
L18141 1582
L18159 1563
L18197 1507
L18216 1432
L18216 1282
L18197 1245
L18178 1226
L18141 1207
L18066 1207
L18028 1226
L18009 1245
L17991 1282
L17991 1376
L18009 1413
L18028 1432
L18066 1451
L18141 1451
L18178 1432
L18197 1413
L18216 1376
" />
<path d="M18347 1207
L18609 1207
L18441 1601
" />
<path d="M19059 1601
L19059 1338
" />
<path d="M19059 1376
L19078 1357
L19116 1338
L19172 1338
L19209 1357
L19228 1395
L19228 1601
" />
<path d="M19228 1395
L19247 1357
L19284 1338
L19340 1338
L19378 1357
L19397 1395
L19397 1601
" />
<path d="M19584 1601
L19584 1338
" />
<path d="M19584 1376
L19603 1357
L19640 1338
L19697 1338
L19734 1357
L19753 1395
L19753 1601
" />
<path d="M19753 1395
L19772 1357
L19809 1338
L19865 1338
L19903 1357
L19922 1395
L19922 1601
" />
<path d="M29372 1935
L7247 1935
" />
<path d="M29372 1935
L29372 1704
" />
<path d="M7247 1935
L7247 1704
" />
<path d="M7247 1935
L7690 1704
" />
<path d="M7247 1935
L7690 2165
" />
<path d="M29372 1935
L28928 1704
" />
<path d="M29372 1935
L28928 2165
" />
<path d="M29372 9310
L29372 50060
" />
<circle cx="7747.38" cy="10060" r="2250" /> 
<path d="M41960 52381
L41978 52363
L42016 52344
L42110 52344
L42147 52363
L42166 52381
L42185 52419
L42185 52456
L42166 52513
L41941 52738
L42185 52738
" />
<path d="M42316 52738
L42522 52475
" />
<path d="M42316 52475
L42522 52738
" />
<path d="M43197 52738
L43066 52550
" />
<path d="M42972 52738
L42972 52344
L43122 52344
L43160 52363
L43178 52381
L43197 52419
L43197 52475
L43178 52513
L43160 52531
L43122 52550
L42972 52550
" />
<path d="M43853 52344
L43666 52344
L43647 52531
L43666 52513
L43703 52494
L43797 52494
L43834 52513
L43853 52531
L43872 52569
L43872 52663
L43853 52700
L43834 52719
L43797 52738
L43703 52738
L43666 52719
L43647 52700
" />
<path d="M44041 52700
L44059 52719
L44041 52738
L44022 52719
L44041 52700
L44041 52738
" />
<path d="M44191 52344
L44453 52344
L44284 52738
" />
<path d="M44809 52738
L44584 52738
" />
<path d="M44697 52738
L44697 52344
L44659 52400
L44622 52438
L44584 52456
" />
<path d="M45166 52344
L44978 52344
L44959 52531
L44978 52513
L45016 52494
L45109 52494
L45147 52513
L45166 52531
L45184 52569
L45184 52663
L45166 52700
L45147 52719
L45109 52738
L45016 52738
L44978 52719
L44959 52700
" />
<path d="M45653 52738
L45653 52475
" />
<path d="M45653 52513
L45672 52494
L45709 52475
L45765 52475
L45803 52494
L45822 52531
L45822 52738
" />
<path d="M45822 52531
L45840 52494
L45878 52475
L45934 52475
L45972 52494
L45990 52531
L45990 52738
" />
<path d="M46178 52738
L46178 52475
" />
<path d="M46178 52513
L46197 52494
L46234 52475
L46290 52475
L46328 52494
L46347 52531
L46347 52738
" />
<path d="M46347 52531
L46365 52494
L46403 52475
L46459 52475
L46497 52494
L46515 52531
L46515 52738
" />
<path d="M47997 53810
L46747 53810
" />
<path d="M50997 10060
L47997 52560
" />
<circle cx="50997.4" cy="10060" r="2250" /> 
<path d="M7747 10060
L7747 45060
" />
<path d="M50997 10060
L7747 10060
" />
<path d="M50997 45060
L50997 10060
" />
<path d="M7747 45060
L50997 45060
" />
<path d="M47997 53810
L50997 45060
" />
<path d="M46747 52560
L47997 52560
" />
<path d="M41960 53631
L41978 53613
L42016 53594
L42110 53594
L42147 53613
L42166 53631
L42185 53669
L42185 53706
L42166 53763
L41941 53988
L42185 53988
" />
<path d="M42316 53988
L42522 53725
" />
<path d="M42316 53725
L42522 53988
" />
<path d="M43197 53988
L43066 53800
" />
<path d="M42972 53988
L42972 53594
L43122 53594
L43160 53613
L43178 53631
L43197 53669
L43197 53725
L43178 53763
L43160 53781
L43122 53800
L42972 53800
" />
<path d="M43853 53594
L43666 53594
L43647 53781
L43666 53763
L43703 53744
L43797 53744
L43834 53763
L43853 53781
L43872 53819
L43872 53913
L43853 53950
L43834 53969
L43797 53988
L43703 53988
L43666 53969
L43647 53950
" />
<path d="M44041 53950
L44059 53969
L44041 53988
L44022 53969
L44041 53950
L44041 53988
" />
<path d="M44303 53594
L44341 53594
L44378 53613
L44397 53631
L44416 53669
L44434 53744
L44434 53838
L44416 53913
L44397 53950
L44378 53969
L44341 53988
L44303 53988
L44266 53969
L44247 53950
L44228 53913
L44209 53838
L44209 53744
L44228 53669
L44247 53631
L44266 53613
L44303 53594
" />
<path d="M44659 53763
L44622 53744
L44603 53725
L44584 53688
L44584 53669
L44603 53631
L44622 53613
L44659 53594
L44734 53594
L44772 53613
L44791 53631
L44809 53669
L44809 53688
L44791 53725
L44772 53744
L44734 53763
L44659 53763
L44622 53781
L44603 53800
L44584 53838
L44584 53913
L44603 53950
L44622 53969
L44659 53988
L44734 53988
L44772 53969
L44791 53950
L44809 53913
L44809 53838
L44791 53800
L44772 53781
L44734 53763
" />
<path d="M45053 53594
L45091 53594
L45128 53613
L45147 53631
L45166 53669
L45184 53744
L45184 53838
L45166 53913
L45147 53950
L45128 53969
L45091 53988
L45053 53988
L45016 53969
L44997 53950
L44978 53913
L44959 53838
L44959 53744
L44978 53669
L44997 53631
L45016 53613
L45053 53594
" />
<path d="M45653 53988
L45653 53725
" />
<path d="M45653 53763
L45672 53744
L45709 53725
L45765 53725
L45803 53744
L45822 53781
L45822 53988
" />
<path d="M45822 53781
L45840 53744
L45878 53725
L45934 53725
L45972 53744
L45990 53781
L45990 53988
" />
<path d="M46178 53988
L46178 53725
" />
<path d="M46178 53763
L46197 53744
L46234 53725
L46290 53725
L46328 53744
L46347 53781
L46347 53988
" />
<path d="M46347 53781
L46365 53744
L46403 53725
L46459 53725
L46497 53744
L46515 53781
L46515 53988
" />
<circle cx="7747.38" cy="10060" r="353.554" /> 
<path d="M7497 9810
L7997 10310
" />
<path d="M7997 9810
L7497 10310
" />
<circle cx="7747.38" cy="45060" r="353.554" /> 
<circle cx="50997.4" cy="45060" r="353.554" /> 
<circle cx="50997.4" cy="10060" r="353.554" /> 
<path d="M50747 9810
L51247 10310
" />
<path d="M51247 9810
L50747 10310
" />
<path d="M51247 44810
L50747 45310
" />
<path d="M50747 44810
L51247 45310
" />
<path d="M7497 44810
L7997 45310
" />
<path d="M7497 45310
L7997 44810
" />
<circle cx="29372.4" cy="29810" r="559.017" /> 
<path d="M7247 29810
L51497 29810
" />
<path d="M27778 4976
L27853 4976
L27891 4957
L27910 4938
L27947 4882
L27966 4807
L27966 4657
L27947 4620
L27928 4601
L27891 4582
L27816 4582
L27778 4601
L27760 4620
L27741 4657
L27741 4751
L27760 4788
L27778 4807
L27816 4826
L27891 4826
L27928 4807
L27947 4788
L27966 4751
" />
<path d="M28191 4751
L28153 4732
L28135 4713
L28116 4676
L28116 4657
L28135 4620
L28153 4601
L28191 4582
L28266 4582
L28303 4601
L28322 4620
L28341 4657
L28341 4676
L28322 4713
L28303 4732
L28266 4751
L28191 4751
L28153 4770
L28135 4788
L28116 4826
L28116 4901
L28135 4938
L28153 4957
L28191 4976
L28266 4976
L28303 4957
L28322 4938
L28341 4901
L28341 4826
L28322 4788
L28303 4770
L28266 4751
" />
<path d="M28509 4938
L28528 4957
L28509 4976
L28491 4957
L28509 4938
L28509 4976
" />
<path d="M28866 4713
L28866 4976
" />
<path d="M28772 4563
L28678 4845
L28922 4845
" />
<path d="M29053 4620
L29072 4601
L29109 4582
L29203 4582
L29241 4601
L29259 4620
L29278 4657
L29278 4695
L29259 4751
L29034 4976
L29278 4976
" />
<path d="M29634 4582
L29447 4582
L29428 4770
L29447 4751
L29484 4732
L29578 4732
L29616 4751
L29634 4770
L29653 4807
L29653 4901
L29634 4938
L29616 4957
L29578 4976
L29484 4976
L29447 4957
L29428 4938
" />
<path d="M30122 4976
L30122 4713
" />
<path d="M30122 4751
L30141 4732
L30178 4713
L30234 4713
L30272 4732
L30291 4770
L30291 4976
" />
<path d="M30291 4770
L30309 4732
L30347 4713
L30403 4713
L30440 4732
L30459 4770
L30459 4976
" />
<path d="M30647 4976
L30647 4713
" />
<path d="M30647 4751
L30665 4732
L30703 4713
L30759 4713
L30797 4732
L30815 4770
L30815 4976
" />
<path d="M30815 4770
L30834 4732
L30872 4713
L30928 4713
L30965 4732
L30984 4770
L30984 4976
" />
<path d="M9997 5310
L48747 5310
" />
<path d="M9997 9810
L9997 5079
" />
<path d="M48747 9810
L48747 5079
" />
<path d="M48747 5310
L48303 5540
" />
<path d="M48747 5310
L48303 5079
" />
<path d="M9997 5310
L10440 5540
" />
<path d="M9997 5310
L10440 5079
" />
<path d="M7747 22060
L51497 22060
" />
<path d="M46497 10060
L46497 50060
" />
<path d="M12247 9560
L12247 50060
" />
<circle cx="7747.38" cy="45060" r="2000" /> 
<circle cx="50997.4" cy="45060" r="2000" /> 
<path d="M37616 5838
L37616 6101
" />
<path d="M37522 5688
L37428 5970
L37672 5970
" />
<path d="M37841 6101
L37916 6101
L37953 6082
L37972 6063
L38010 6007
L38028 5932
L38028 5782
L38010 5745
L37991 5726
L37953 5707
L37878 5707
L37841 5726
L37822 5745
L37803 5782
L37803 5876
L37822 5913
L37841 5932
L37878 5951
L37953 5951
L37991 5932
L38010 5913
L38028 5876
" />
<path d="M38197 6063
L38216 6082
L38197 6101
L38178 6082
L38197 6063
L38197 6101
" />
<path d="M38366 5745
L38384 5726
L38422 5707
L38516 5707
L38553 5726
L38572 5745
L38591 5782
L38591 5820
L38572 5876
L38347 6101
L38591 6101
" />
<path d="M38966 6101
L38741 6101
" />
<path d="M38853 6101
L38853 5707
L38816 5763
L38778 5801
L38741 5820
" />
<path d="M39116 5745
L39134 5726
L39172 5707
L39266 5707
L39303 5726
L39322 5745
L39341 5782
L39341 5820
L39322 5876
L39097 6101
L39341 6101
" />
<path d="M39809 6101
L39809 5838
" />
<path d="M39809 5876
L39828 5857
L39866 5838
L39922 5838
L39959 5857
L39978 5895
L39978 6101
" />
<path d="M39978 5895
L39997 5857
L40034 5838
L40090 5838
L40128 5857
L40147 5895
L40147 6101
" />
<path d="M40334 6101
L40334 5838
" />
<path d="M40334 5876
L40353 5857
L40390 5838
L40447 5838
L40484 5857
L40503 5895
L40503 6101
" />
<path d="M40503 5895
L40522 5857
L40559 5838
L40615 5838
L40653 5857
L40672 5895
L40672 6101
" />
<path d="M29372 6435
L48747 6435
" />
<path d="M29372 6685
L29372 6204
" />
<path d="M48747 6685
L48747 6204
" />
<path d="M48747 6435
L48303 6665
" />
<path d="M48747 6435
L48303 6204
" />
<path d="M29372 6435
L29815 6665
" />
<path d="M29372 6435
L29815 6204
" />
<path d="M18241 5838
L18241 6101
" />
<path d="M18147 5688
L18053 5970
L18297 5970
" />
<path d="M18466 6101
L18541 6101
L18578 6082
L18597 6063
L18635 6007
L18653 5932
L18653 5782
L18635 5745
L18616 5726
L18578 5707
L18503 5707
L18466 5726
L18447 5745
L18428 5782
L18428 5876
L18447 5913
L18466 5932
L18503 5951
L18578 5951
L18616 5932
L18635 5913
L18653 5876
" />
<path d="M18822 6063
L18841 6082
L18822 6101
L18803 6082
L18822 6063
L18822 6101
" />
<path d="M18991 5745
L19009 5726
L19047 5707
L19141 5707
L19178 5726
L19197 5745
L19216 5782
L19216 5820
L19197 5876
L18972 6101
L19216 6101
" />
<path d="M19591 6101
L19366 6101
" />
<path d="M19478 6101
L19478 5707
L19441 5763
L19403 5801
L19366 5820
" />
<path d="M19741 5745
L19759 5726
L19797 5707
L19891 5707
L19928 5726
L19947 5745
L19966 5782
L19966 5820
L19947 5876
L19722 6101
L19966 6101
" />
<path d="M20434 6101
L20434 5838
" />
<path d="M20434 5876
L20453 5857
L20491 5838
L20547 5838
L20584 5857
L20603 5895
L20603 6101
" />
<path d="M20603 5895
L20622 5857
L20659 5838
L20715 5838
L20753 5857
L20772 5895
L20772 6101
" />
<path d="M20959 6101
L20959 5838
" />
<path d="M20959 5876
L20978 5857
L21015 5838
L21072 5838
L21109 5857
L21128 5895
L21128 6101
" />
<path d="M21128 5895
L21147 5857
L21184 5838
L21240 5838
L21278 5857
L21297 5895
L21297 6101
" />
<path d="M9997 6435
L29372 6435
" />
<path d="M9997 6714
L9997 6204
" />
<path d="M29372 6714
L29372 6204
" />
<path d="M29372 6435
L28928 6665
" />
<path d="M29372 6435
L28928 6204
" />
<path d="M9997 6435
L10440 6665
" />
<path d="M9997 6435
L10440 6204
" />
<g >
</g>
<g >
</g>
<g >
</g>
<g >
</g>
<g >
</g>
<g >
</g>
<g >
</g>
<g >
</g>
<g >
</g>
<g >
</g>
<g >
</g>
<g >
</g>
<g >
</g>
<g >
</g>
<g >
</g>
<g >
</g>
<g >
</g>
<g >
</g>
<g >
</g>
<g >
</g>
<g >
</g>
<g >
</g>
<g >
</g>
<g >
</g>
<g >
</g>
<g >
</g>
<g >
</g>
<g >
</g>
<g >
</g>
<g >
</g>
<g >
</g>
<g >
</g>
<g >
</g>
<g >
</g>
<g >
</g>
<g >
</g>
<g >
</g>
<g >
</g>
<g >
</g>
<g >
</g>
<g >
</g>
<g >
</g>
<g >
</g>
<g >
</g>
<g >
</g>
<g >
</g>
<g >
</g>
<g >
</g>
<g >
</g>
<g >
</g>
<g >
</g>
<g >
</g>
<g >
</g>
<g >
</g>
<g >
</g>
<g >
</g>
<g >
</g>
<g >
</g>
<g >
</g>
<g >
</g>
<g >
</g>
<g >
</g>
<g >
</g>
<g >
</g>
<g >
</g>
<g >
</g>
<g >
</g>
<g >
</g>
<g >
</g>
<g >
</g>
<g >
</g>
<g >
</g>
<g >
</g>
<g >
</g>
<g >
</g>
<g >
</g>
<g >
</g>
<g >
</g>
<g >
</g>
<g >
</g>
<g >
</g>
<g >
</g>
<g >
</g>
<g >
</g>
<g >
</g>
<g >
</g>
<g >
</g>
<g >
</g>
<g >
</g>
<g >
</g>
<g >
</g>
<g >
</g>
<g >
</g>
<g >
</g>
<g >
</g>
<g >
</g>
<g >
</g>
<g >
</g>
<g >
</g>
<g >
</g>
<g >
</g>
<g >
</g>
<g >
</g>
<g >
</g>
<g >
</g>
<g >
</g>
<g >
</g>
<g >
</g>
<g >
</g>
<g >
</g>
<g >
</g>
<g >
</g>
<g >
</g>
<g >
</g>
<g >
</g>
<g >
</g>
<g >
</g>
<g >
</g>
<g >
</g>
<g >
</g>
<g >
</g>
<g >
</g>
<g >
</g>
<g >
</g>
<g >
</g>
<g >
</g>
<g >
</g>
<g >
</g>
<g >
</g>
<g >
</g>
<g >
</g>
<g >
</g>
<g >
</g>
<g >
</g>
<g >
</g>
<g >
</g>
<g >
</g>
<g >
</g>
<g >
</g>
<g >
</g>
<g >
</g>
<g >
</g>
<g >
</g>
<g >
</g>
<g >
</g>
<g >
</g>
<g >
</g>
<g >
</g>
<g >
</g>
<g >
</g>
<g >
</g>
<g >
</g>
<g >
</g>
<g >
</g>
<g >
</g>
</g>
<g style="fill:#0000FF; fill-opacity:0.0; 
stroke:#0000FF; stroke-width:59.0551; stroke-opacity:1; 
stroke-linecap:round; stroke-linejoin:round;">
<path d="M8956 49231
L8956 48935
L9181 49231
L9181 48935
" />
<path d="M9369 49231
L9369 48935
L9519 48935
L9556 48949
L9575 48963
L9594 48991
L9594 49034
L9575 49062
L9556 49076
L9519 49090
L9369 49090
" />
<path d="M9706 48935
L9931 48935
" />
<path d="M9819 49231
L9819 48935
" />
<path d="M10062 49231
L10062 48935
" />
<path d="M10062 49076
L10287 49076
" />
<path d="M10287 49231
L10287 48935
" />
<g >
</g>
</g>
<g style="fill:#000000; fill-opacity:0.0; 
stroke:#000000; stroke-width:59.0551; stroke-opacity:1; 
stroke-linecap:round; stroke-linejoin:round;">
</g>
<g style="fill:#FF5B00; fill-opacity:0.0; 
stroke:#FF5B00; stroke-width:59.0551; stroke-opacity:1; 
stroke-linecap:round; stroke-linejoin:round;">
</g>
<g style="fill:#FF5B00; fill-opacity:0.0; 
stroke:#FF5B00; stroke-width:150; stroke-opacity:1; 
stroke-linecap:round; stroke-linejoin:round;">
<path d="M7247 20060
L7247 12310
" />
<path d="M51497 43060
L51497 24060
" />
<path d="M50997.4 20060 A2000 2000 0.0 0 0 50997.4 24060 " />
<path d="M50997 24060
L51497 24060
" />
<path d="M50997 20060
L51497 20060
" />
<path d="M7747.38 24060 A2000 2000 0.0 0 0 7747.38 20060 " />
<path d="M7747 20060
L7247 20060
" />
<path d="M7747 24060
L7247 24060
" />
<path d="M7747 43060
L7247 43060
" />
<path d="M48747 9560
L48747 10060
" />
<path d="M51497 12310
L50997 12310
" />
<path d="M51497 43060
L50997 43060
" />
<path d="M51497 47060
L50997 47060
" />
<path d="M7747 50060
L7247 50060
" />
<path d="M7747 47060
L7247 47060
" />
<path d="M7747 12310
L7247 12310
" />
<path d="M9997 10060
L9997 9560
" />
<path d="M50997.4 43060 A2000 2000 0.0 0 0 50997.4 47060 " />
<path d="M48747.4 10060 A2250 2250 0.0 0 0 50997.4 12310 " />
<path d="M7247 47060
L7247 50060
" />
<path d="M7747.38 47060 A2000 2000 0.0 0 0 7747.38 43060 " />
<path d="M7747.38 12310 A2250 2250 0.0 0 0 9997.38 10060 " />
<path d="M51497 47060
L51497 50060
" />
<path d="M48747 9560
L9997 9560
" />
<path d="M51497 20060
L51497 12310
" />
<path d="M7747 50060
L51497 50060
" />
<path d="M7247 43060
L7247 24060
" />
<g >
</g>
<g >
</g>
<g >
</g>
<g >
</g>
<g >
</g>
<g >
</g>
<g >
</g>
<g >
</g>
<g >
</g>
<g >
</g>
<g >
</g>
<g >
</g>
<g >
</g>
<g >
</g>
<g >
</g>
<g >
</g>
<g >
</g>
<g >
</g>
<g >
</g>
<g >
</g>
<g >
</g>
<g >
</g>
<g >
</g>
<g >
</g>
<g >
</g>
<g >
</g>
<g >
</g>
<g >
</g>
<g >
</g>
<g >
</g>
<g >
</g>
<g >
</g>
<g >
</g>
<g >
</g>
<g >
</g>
<g >
</g>
<g >
</g>
<g >
</g>
<g >
</g>
<g >
</g>
<g >
</g>
<g >
</g>
<g >
</g>
<g >
</g>
<g >
</g>
<g >
</g>
<g >
</g>
<g >
</g>
<g >
</g>
<g >
</g>
<g >
</g>
<g >
</g>
<g >
</g>
<g >
</g>
<g >
</g>
<g >
</g>
<g >
</g>
<g >
</g>
<g >
</g>
<g >
</g>
<g >
</g>
<g >
</g>
<g >
</g>
<g >
</g>
<g >
</g>
<g >
</g>
<g >
</g>
<g >
</g>
<g >
</g>
<g >
</g>
<g >
</g>
<g >
</g>
<g >
</g>
<g >
</g>
<g >
</g>
<g >
</g>
<g >
</g>
<g >
</g>
<g >
</g>
<g >
</g>
<g >
</g>
<g >
</g>
<g >
</g>
<g >
</g>
<g >
</g>
<g >
</g>
<g >
</g>
<g >
</g>
<g >
</g>
<g >
</g>
<g >
</g>
<g >
</g>
<g >
</g>
<g >
</g>
<g >
</g>
<g >
</g>
<g >
</g>
<g >
</g>
<g >
</g>
<g >
</g>
<g >
</g>
<g >
</g>
<g >
</g>
<g >
</g>
<g >
</g>
<g >
</g>
<g >
</g>
<g >
</g>
<g >
</g>
<g >
</g>
<g >
</g>
<g >
</g>
<g >
</g>
<g >
</g>
<g >
</g>
<g >
</g>
<g >
</g>
<g >
</g>
<g >
</g>
<g >
</g>
<g >
</g>
<g >
</g>
<g >
</g>
<g >
</g>
<g >
</g>
<g >
</g>
<g >
</g>
<g >
</g>
<g >
</g>
<g >
</g>
<g >
</g>
<g >
</g>
<g >
</g>
<g >
</g>
<g >
</g>
<g >
</g>
<g >
</g>
<g >
</g>
<g >
</g>
<g >
</g>
<g >
</g>
<g >
</g>
<g >
</g>
<g >
</g>
<g >
</g>
<g >
</g>
<g >
</g>
<g >
</g>
<g >
</g>
<g >
</g>
<g >
</g>
<g >
</g>
<g >
</g>
<g >
</g>
<g >
</g>
<g >
</g>
</g> 
</svg>
