<?xml version="1.0" standalone="no"?>
 <!DOCTYPE svg PUBLIC "-//W3C//DTD SVG 1.1//EN" 
 "http://www.w3.org/Graphics/SVG/1.1/DTD/svg11.dtd"> 
<svg xmlns="http://www.w3.org/2000/svg" version="1.1" 
    width="15.7226cm" height="12.8727cm" viewBox="0 0 61900 50680 ">
<title>SVG Picture created as #110-000-brd.svg date 2019/11/18 14:49:17 </title>
  <desc>Picture generated by PCBNEW </desc>
<g style="fill:#000000; fill-opacity:1;stroke:#000000; stroke-opacity:1;
stroke-linecap:round; stroke-linejoin:round; "
 transform="translate(0 0) scale(1 1)">
</g>
<g style="fill:#000000; fill-opacity:0.0; 
stroke:#000000; stroke-width:-0.000393701; stroke-opacity:1; 
stroke-linecap:round; stroke-linejoin:round;">
</g>
<g style="fill:#0000FF; fill-opacity:0.0; 
stroke:#0000FF; stroke-width:-0.000393701; stroke-opacity:1; 
stroke-linecap:round; stroke-linejoin:round;">
</g>
<g style="fill:#0000FF; fill-opacity:0.0; 
stroke:#0000FF; stroke-width:59.0551; stroke-opacity:1; 
stroke-linecap:round; stroke-linejoin:round;">
<path d="M15873 46435
L60123 46435
" />
<path d="M60123 46435
L60123 5935
" />
<path d="M15873 5935
L15873 46435
" />
<path d="M60123 5935
L15873 5935
" />
<path d="M6145 31359
L6145 31547
L6333 31566
L6314 31547
L6295 31509
L6295 31416
L6314 31378
L6333 31359
L6370 31341
L6464 31341
L6501 31359
L6520 31378
L6539 31416
L6539 31509
L6520 31547
L6501 31566
" />
<path d="M6314 31116
L6295 31153
L6276 31172
L6239 31191
L6220 31191
L6183 31172
L6164 31153
L6145 31116
L6145 31041
L6164 31003
L6183 30984
L6220 30966
L6239 30966
L6276 30984
L6295 31003
L6314 31041
L6314 31116
L6333 31153
L6351 31172
L6389 31191
L6464 31191
L6501 31172
L6520 31153
L6539 31116
L6539 31041
L6520 31003
L6501 30984
L6464 30966
L6389 30966
L6351 30984
L6333 31003
L6314 31041
" />
<path d="M6501 30797
L6520 30778
L6539 30797
L6520 30816
L6501 30797
L6539 30797
" />
<path d="M6276 30441
L6539 30441
" />
<path d="M6126 30534
L6408 30628
L6408 30384
" />
<path d="M6183 30253
L6164 30235
L6145 30197
L6145 30103
L6164 30066
L6183 30047
L6220 30028
L6258 30028
L6314 30047
L6539 30272
L6539 30028
" />
<path d="M6145 29785
L6145 29747
L6164 29710
L6183 29691
L6220 29672
L6295 29653
L6389 29653
L6464 29672
L6501 29691
L6520 29710
L6539 29747
L6539 29785
L6520 29822
L6501 29841
L6464 29860
L6389 29878
L6295 29878
L6220 29860
L6183 29841
L6164 29822
L6145 29785
" />
<path d="M6539 29185
L6276 29185
" />
<path d="M6314 29185
L6295 29166
L6276 29128
L6276 29072
L6295 29035
L6333 29016
L6539 29016
" />
<path d="M6333 29016
L6295 28997
L6276 28960
L6276 28903
L6295 28866
L6333 28847
L6539 28847
" />
<path d="M6539 28660
L6276 28660
" />
<path d="M6314 28660
L6295 28641
L6276 28603
L6276 28547
L6295 28510
L6333 28491
L6539 28491
" />
<path d="M6333 28491
L6295 28472
L6276 28435
L6276 28378
L6295 28341
L6333 28322
L6539 28322
" />
<path d="M6873 41435
L6873 18435
" />
<path d="M15873 41435
L6642 41435
" />
<path d="M15873 18435
L6642 18435
" />
<path d="M6873 18435
L7103 18878
" />
<path d="M6873 18435
L6642 18878
" />
<path d="M6873 41435
L7103 40991
" />
<path d="M6873 41435
L6642 40991
" />
<path d="M10145 37734
L10145 37922
L10333 37941
L10314 37922
L10295 37884
L10295 37791
L10314 37753
L10333 37734
L10370 37716
L10464 37716
L10501 37734
L10520 37753
L10539 37791
L10539 37884
L10520 37922
L10501 37941
" />
<path d="M10539 37341
L10539 37566
" />
<path d="M10539 37453
L10145 37453
L10201 37491
L10239 37528
L10258 37566
" />
<path d="M10501 37172
L10520 37153
L10539 37172
L10520 37191
L10501 37172
L10539 37172
" />
<path d="M10276 36816
L10539 36816
" />
<path d="M10126 36909
L10408 37003
L10408 36759
" />
<path d="M10145 36647
L10145 36403
L10295 36535
L10295 36478
L10314 36441
L10333 36422
L10370 36403
L10464 36403
L10501 36422
L10520 36441
L10539 36478
L10539 36591
L10520 36628
L10501 36647
" />
<path d="M10145 36047
L10145 36235
L10333 36253
L10314 36235
L10295 36197
L10295 36103
L10314 36066
L10333 36047
L10370 36028
L10464 36028
L10501 36047
L10520 36066
L10539 36103
L10539 36197
L10520 36235
L10501 36253
" />
<path d="M10539 35560
L10276 35560
" />
<path d="M10314 35560
L10295 35541
L10276 35503
L10276 35447
L10295 35410
L10333 35391
L10539 35391
" />
<path d="M10333 35391
L10295 35372
L10276 35335
L10276 35278
L10295 35241
L10333 35222
L10539 35222
" />
<path d="M10539 35035
L10276 35035
" />
<path d="M10314 35035
L10295 35016
L10276 34978
L10276 34922
L10295 34885
L10333 34866
L10539 34866
" />
<path d="M10333 34866
L10295 34847
L10276 34810
L10276 34753
L10295 34716
L10333 34697
L10539 34697
" />
<path d="M10873 46435
L10873 26185
" />
<path d="M15873 46435
L10642 46435
" />
<path d="M15873 26185
L10642 26185
" />
<path d="M10873 26185
L11103 26628
" />
<path d="M10873 26185
L10642 26628
" />
<path d="M10873 46435
L11103 45991
" />
<path d="M10873 46435
L10642 45991
" />
<path d="M12020 35459
L12020 35216
L12170 35347
L12170 35291
L12189 35253
L12208 35234
L12245 35216
L12339 35216
L12376 35234
L12395 35253
L12414 35291
L12414 35403
L12395 35441
L12376 35459
" />
<path d="M12189 34991
L12170 35028
L12151 35047
L12114 35066
L12095 35066
L12058 35047
L12039 35028
L12020 34991
L12020 34916
L12039 34878
L12058 34859
L12095 34841
L12114 34841
L12151 34859
L12170 34878
L12189 34916
L12189 34991
L12208 35028
L12226 35047
L12264 35066
L12339 35066
L12376 35047
L12395 35028
L12414 34991
L12414 34916
L12395 34878
L12376 34859
L12339 34841
L12264 34841
L12226 34859
L12208 34878
L12189 34916
" />
<path d="M12376 34672
L12395 34653
L12414 34672
L12395 34691
L12376 34672
L12414 34672
" />
<path d="M12020 34522
L12020 34259
L12414 34428
" />
<path d="M12020 34147
L12020 33903
L12170 34035
L12170 33978
L12189 33941
L12208 33922
L12245 33903
L12339 33903
L12376 33922
L12395 33941
L12414 33978
L12414 34091
L12395 34128
L12376 34147
" />
<path d="M12020 33547
L12020 33735
L12208 33753
L12189 33735
L12170 33697
L12170 33603
L12189 33566
L12208 33547
L12245 33528
L12339 33528
L12376 33547
L12395 33566
L12414 33603
L12414 33697
L12395 33735
L12376 33753
" />
<path d="M12414 33060
L12151 33060
" />
<path d="M12189 33060
L12170 33041
L12151 33003
L12151 32947
L12170 32910
L12208 32891
L12414 32891
" />
<path d="M12208 32891
L12170 32872
L12151 32835
L12151 32778
L12170 32741
L12208 32722
L12414 32722
" />
<path d="M12414 32535
L12151 32535
" />
<path d="M12189 32535
L12170 32516
L12151 32478
L12151 32422
L12170 32385
L12208 32366
L12414 32366
" />
<path d="M12208 32366
L12170 32347
L12151 32310
L12151 32253
L12170 32216
L12208 32197
L12414 32197
" />
<path d="M12748 41435
L12748 26185
" />
<path d="M15873 41435
L12517 41435
" />
<path d="M15873 26185
L12517 26185
" />
<path d="M12748 26185
L12978 26628
" />
<path d="M12748 26185
L12517 26628
" />
<path d="M12748 41435
L12978 40991
" />
<path d="M12748 41435
L12517 40991
" />
<path d="M14026 18878
L14289 18878
" />
<path d="M13876 18972
L14158 19066
L14158 18822
" />
<path d="M14026 18503
L14289 18503
" />
<path d="M13876 18597
L14158 18691
L14158 18447
" />
<path d="M14251 18297
L14270 18278
L14289 18297
L14270 18316
L14251 18297
L14289 18297
" />
<path d="M14026 17941
L14289 17941
" />
<path d="M13876 18034
L14158 18128
L14158 17884
" />
<path d="M13895 17547
L13895 17735
L14083 17753
L14064 17735
L14045 17697
L14045 17603
L14064 17566
L14083 17547
L14120 17528
L14214 17528
L14251 17547
L14270 17566
L14289 17603
L14289 17697
L14270 17735
L14251 17753
" />
<path d="M13895 17285
L13895 17247
L13914 17210
L13933 17191
L13970 17172
L14045 17153
L14139 17153
L14214 17172
L14251 17191
L14270 17210
L14289 17247
L14289 17285
L14270 17322
L14251 17341
L14214 17360
L14139 17378
L14045 17378
L13970 17360
L13933 17341
L13914 17322
L13895 17285
" />
<path d="M14289 16685
L14026 16685
" />
<path d="M14064 16685
L14045 16666
L14026 16628
L14026 16572
L14045 16535
L14083 16516
L14289 16516
" />
<path d="M14083 16516
L14045 16497
L14026 16460
L14026 16403
L14045 16366
L14083 16347
L14289 16347
" />
<path d="M14289 16160
L14026 16160
" />
<path d="M14064 16160
L14045 16141
L14026 16103
L14026 16047
L14045 16010
L14083 15991
L14289 15991
" />
<path d="M14083 15991
L14045 15972
L14026 15935
L14026 15878
L14045 15841
L14083 15822
L14289 15822
" />
<path d="M14623 26185
L14623 8685
" />
<path d="M15873 26185
L14392 26185
" />
<path d="M15873 8685
L14392 8685
" />
<path d="M14623 8685
L14853 9128
" />
<path d="M14623 8685
L14392 9128
" />
<path d="M14623 26185
L14853 25741
" />
<path d="M14623 26185
L14392 25741
" />
<path d="M13895 34459
L13895 34216
L14045 34347
L14045 34291
L14064 34253
L14083 34234
L14120 34216
L14214 34216
L14251 34234
L14270 34253
L14289 34291
L14289 34403
L14270 34441
L14251 34459
" />
<path d="M13895 34084
L13895 33841
L14045 33972
L14045 33916
L14064 33878
L14083 33859
L14120 33841
L14214 33841
L14251 33859
L14270 33878
L14289 33916
L14289 34028
L14270 34066
L14251 34084
" />
<path d="M14251 33672
L14270 33653
L14289 33672
L14270 33691
L14251 33672
L14289 33672
" />
<path d="M13895 33316
L13895 33391
L13914 33428
L13933 33447
L13989 33484
L14064 33503
L14214 33503
L14251 33484
L14270 33466
L14289 33428
L14289 33353
L14270 33316
L14251 33297
L14214 33278
L14120 33278
L14083 33297
L14064 33316
L14045 33353
L14045 33428
L14064 33466
L14083 33484
L14120 33503
" />
<path d="M13895 32922
L13895 33110
L14083 33128
L14064 33110
L14045 33072
L14045 32978
L14064 32941
L14083 32922
L14120 32903
L14214 32903
L14251 32922
L14270 32941
L14289 32978
L14289 33072
L14270 33110
L14251 33128
" />
<path d="M13895 32547
L13895 32735
L14083 32753
L14064 32735
L14045 32697
L14045 32603
L14064 32566
L14083 32547
L14120 32528
L14214 32528
L14251 32547
L14270 32566
L14289 32603
L14289 32697
L14270 32735
L14251 32753
" />
<path d="M14289 32060
L14026 32060
" />
<path d="M14064 32060
L14045 32041
L14026 32003
L14026 31947
L14045 31910
L14083 31891
L14289 31891
" />
<path d="M14083 31891
L14045 31872
L14026 31835
L14026 31778
L14045 31741
L14083 31722
L14289 31722
" />
<path d="M14289 31535
L14026 31535
" />
<path d="M14064 31535
L14045 31516
L14026 31478
L14026 31422
L14045 31385
L14083 31366
L14289 31366
" />
<path d="M14083 31366
L14045 31347
L14026 31310
L14026 31253
L14045 31216
L14083 31197
L14289 31197
" />
<path d="M14623 39435
L14623 26185
" />
<path d="M15873 39435
L14392 39435
" />
<path d="M15873 26185
L14392 26185
" />
<path d="M14623 26185
L14853 26628
" />
<path d="M14623 26185
L14392 26628
" />
<path d="M14623 39435
L14853 38991
" />
<path d="M14623 39435
L14392 38991
" />
<path d="M8020 37734
L8020 37922
L8208 37941
L8189 37922
L8170 37884
L8170 37791
L8189 37753
L8208 37734
L8245 37716
L8339 37716
L8376 37734
L8395 37753
L8414 37791
L8414 37884
L8395 37922
L8376 37941
" />
<path d="M8414 37341
L8414 37566
" />
<path d="M8414 37453
L8020 37453
L8076 37491
L8114 37528
L8133 37566
" />
<path d="M8376 37172
L8395 37153
L8414 37172
L8395 37191
L8376 37172
L8414 37172
" />
<path d="M8151 36816
L8414 36816
" />
<path d="M8001 36909
L8283 37003
L8283 36759
" />
<path d="M8020 36647
L8020 36403
L8170 36535
L8170 36478
L8189 36441
L8208 36422
L8245 36403
L8339 36403
L8376 36422
L8395 36441
L8414 36478
L8414 36591
L8395 36628
L8376 36647
" />
<path d="M8020 36047
L8020 36235
L8208 36253
L8189 36235
L8170 36197
L8170 36103
L8189 36066
L8208 36047
L8245 36028
L8339 36028
L8376 36047
L8395 36066
L8414 36103
L8414 36197
L8395 36235
L8376 36253
" />
<path d="M8414 35560
L8151 35560
" />
<path d="M8189 35560
L8170 35541
L8151 35503
L8151 35447
L8170 35410
L8208 35391
L8414 35391
" />
<path d="M8208 35391
L8170 35372
L8151 35335
L8151 35278
L8170 35241
L8208 35222
L8414 35222
" />
<path d="M8414 35035
L8151 35035
" />
<path d="M8189 35035
L8170 35016
L8151 34978
L8151 34922
L8170 34885
L8208 34866
L8414 34866
" />
<path d="M8208 34866
L8170 34847
L8151 34810
L8151 34753
L8170 34716
L8208 34697
L8414 34697
" />
<path d="M8748 46435
L8748 26185
" />
<path d="M15873 46435
L8517 46435
" />
<path d="M15873 26185
L8517 26185
" />
<path d="M8748 26185
L8978 26628
" />
<path d="M8748 26185
L8517 26628
" />
<path d="M8748 46435
L8978 45991
" />
<path d="M8748 46435
L8517 45991
" />
<path d="M12020 17484
L12020 17672
L12208 17691
L12189 17672
L12170 17634
L12170 17541
L12189 17503
L12208 17484
L12245 17466
L12339 17466
L12376 17484
L12395 17503
L12414 17541
L12414 17634
L12395 17672
L12376 17691
" />
<path d="M12414 17091
L12414 17316
" />
<path d="M12414 17203
L12020 17203
L12076 17241
L12114 17278
L12133 17316
" />
<path d="M12376 16922
L12395 16903
L12414 16922
L12395 16941
L12376 16922
L12414 16922
" />
<path d="M12151 16566
L12414 16566
" />
<path d="M12001 16659
L12283 16753
L12283 16509
" />
<path d="M12020 16397
L12020 16153
L12170 16285
L12170 16228
L12189 16191
L12208 16172
L12245 16153
L12339 16153
L12376 16172
L12395 16191
L12414 16228
L12414 16341
L12395 16378
L12376 16397
" />
<path d="M12020 15797
L12020 15985
L12208 16003
L12189 15985
L12170 15947
L12170 15853
L12189 15816
L12208 15797
L12245 15778
L12339 15778
L12376 15797
L12395 15816
L12414 15853
L12414 15947
L12395 15985
L12376 16003
" />
<path d="M12414 15310
L12151 15310
" />
<path d="M12189 15310
L12170 15291
L12151 15253
L12151 15197
L12170 15160
L12208 15141
L12414 15141
" />
<path d="M12208 15141
L12170 15122
L12151 15085
L12151 15028
L12170 14991
L12208 14972
L12414 14972
" />
<path d="M12414 14785
L12151 14785
" />
<path d="M12189 14785
L12170 14766
L12151 14728
L12151 14672
L12170 14635
L12208 14616
L12414 14616
" />
<path d="M12208 14616
L12170 14597
L12151 14560
L12151 14503
L12170 14466
L12208 14447
L12414 14447
" />
<path d="M12748 26185
L12748 5935
" />
<path d="M15873 26185
L12517 26185
" />
<path d="M15873 5935
L12517 5935
" />
<path d="M12748 5935
L12978 6378
" />
<path d="M12748 5935
L12517 6378
" />
<path d="M12748 26185
L12978 25741
" />
<path d="M12748 26185
L12517 25741
" />
<path d="M47635 1207
L47448 1207
L47429 1395
L47448 1376
L47485 1357
L47579 1357
L47616 1376
L47635 1395
L47654 1432
L47654 1526
L47635 1563
L47616 1582
L47579 1601
L47485 1601
L47448 1582
L47429 1563
" />
<path d="M47991 1207
L47916 1207
L47879 1226
L47860 1245
L47823 1301
L47804 1376
L47804 1526
L47823 1563
L47841 1582
L47879 1601
L47954 1601
L47991 1582
L48010 1563
L48029 1526
L48029 1432
L48010 1395
L47991 1376
L47954 1357
L47879 1357
L47841 1376
L47823 1395
L47804 1432
" />
<path d="M48198 1563
L48216 1582
L48198 1601
L48179 1582
L48198 1563
L48198 1601
" />
<path d="M48591 1601
L48366 1601
" />
<path d="M48479 1601
L48479 1207
L48441 1263
L48404 1301
L48366 1320
" />
<path d="M48779 1601
L48854 1601
L48891 1582
L48910 1563
L48948 1507
L48966 1432
L48966 1282
L48948 1245
L48929 1226
L48891 1207
L48816 1207
L48779 1226
L48760 1245
L48741 1282
L48741 1376
L48760 1413
L48779 1432
L48816 1451
L48891 1451
L48929 1432
L48948 1413
L48966 1376
" />
<path d="M49098 1207
L49360 1207
L49191 1601
" />
<path d="M49810 1601
L49810 1338
" />
<path d="M49810 1376
L49829 1357
L49866 1338
L49922 1338
L49960 1357
L49979 1395
L49979 1601
" />
<path d="M49979 1395
L49997 1357
L50035 1338
L50091 1338
L50129 1357
L50147 1395
L50147 1601
" />
<path d="M50335 1601
L50335 1338
" />
<path d="M50335 1376
L50354 1357
L50391 1338
L50447 1338
L50485 1357
L50504 1395
L50504 1601
" />
<path d="M50504 1395
L50522 1357
L50560 1338
L50616 1338
L50654 1357
L50672 1395
L50672 1601
" />
<path d="M60123 1935
L37998 1935
" />
<path d="M60123 1935
L60123 1704
" />
<path d="M37998 1935
L37998 1704
" />
<path d="M37998 1935
L38441 1704
" />
<path d="M37998 1935
L38441 2165
" />
<path d="M60123 1935
L59679 1704
" />
<path d="M60123 1935
L59679 2165
" />
<path d="M25510 1207
L25323 1207
L25304 1395
L25323 1376
L25360 1357
L25454 1357
L25491 1376
L25510 1395
L25529 1432
L25529 1526
L25510 1563
L25491 1582
L25454 1601
L25360 1601
L25323 1582
L25304 1563
" />
<path d="M25866 1207
L25791 1207
L25754 1226
L25735 1245
L25698 1301
L25679 1376
L25679 1526
L25698 1563
L25716 1582
L25754 1601
L25829 1601
L25866 1582
L25885 1563
L25904 1526
L25904 1432
L25885 1395
L25866 1376
L25829 1357
L25754 1357
L25716 1376
L25698 1395
L25679 1432
" />
<path d="M26073 1563
L26091 1582
L26073 1601
L26054 1582
L26073 1563
L26073 1601
" />
<path d="M26466 1601
L26241 1601
" />
<path d="M26354 1601
L26354 1207
L26316 1263
L26279 1301
L26241 1320
" />
<path d="M26654 1601
L26729 1601
L26766 1582
L26785 1563
L26823 1507
L26841 1432
L26841 1282
L26823 1245
L26804 1226
L26766 1207
L26691 1207
L26654 1226
L26635 1245
L26616 1282
L26616 1376
L26635 1413
L26654 1432
L26691 1451
L26766 1451
L26804 1432
L26823 1413
L26841 1376
" />
<path d="M26973 1207
L27235 1207
L27066 1601
" />
<path d="M27685 1601
L27685 1338
" />
<path d="M27685 1376
L27704 1357
L27741 1338
L27797 1338
L27835 1357
L27854 1395
L27854 1601
" />
<path d="M27854 1395
L27872 1357
L27910 1338
L27966 1338
L28004 1357
L28022 1395
L28022 1601
" />
<path d="M28210 1601
L28210 1338
" />
<path d="M28210 1376
L28229 1357
L28266 1338
L28322 1338
L28360 1357
L28379 1395
L28379 1601
" />
<path d="M28379 1395
L28397 1357
L28435 1338
L28491 1338
L28529 1357
L28547 1395
L28547 1601
" />
<path d="M37998 1935
L15873 1935
" />
<path d="M37998 1935
L37998 1704
" />
<path d="M15873 1935
L15873 1704
" />
<path d="M15873 1935
L16316 1704
" />
<path d="M15873 1935
L16316 2165
" />
<path d="M37998 1935
L37554 1704
" />
<path d="M37998 1935
L37554 2165
" />
<path d="M37998 5685
L37998 46435
" />
<path d="M48123 48935
L46623 48935
" />
<path d="M48123 47685
L48123 48935
" />
<path d="M38798 49213
L38798 48819
L38948 48819
L38985 48838
L39004 48857
L39023 48894
L39023 48951
L39004 48988
L38985 49007
L38948 49026
L38798 49026
" />
<path d="M39267 48819
L39342 48819
L39379 48838
L39417 48876
L39435 48951
L39435 49082
L39417 49157
L39379 49194
L39342 49213
L39267 49213
L39229 49194
L39192 49157
L39173 49082
L39173 48951
L39192 48876
L39229 48838
L39267 48819
" />
<path d="M39548 48819
L39773 48819
" />
<path d="M39660 49213
L39660 48819
" />
<path d="M39904 49007
L40035 49007
" />
<path d="M40092 49213
L39904 49213
L39904 48819
L40092 48819
" />
<path d="M40260 49213
L40260 48819
L40485 49213
L40485 48819
" />
<path d="M40617 48819
L40842 48819
" />
<path d="M40729 49213
L40729 48819
" />
<path d="M40973 49213
L40973 48819
" />
<path d="M41235 48819
L41310 48819
L41348 48838
L41385 48876
L41404 48951
L41404 49082
L41385 49157
L41348 49194
L41310 49213
L41235 49213
L41198 49194
L41160 49157
L41141 49082
L41141 48951
L41160 48876
L41198 48838
L41235 48819
" />
<path d="M41573 49213
L41573 48819
L41704 49101
L41835 48819
L41835 49213
" />
<path d="M42023 49007
L42154 49007
" />
<path d="M42210 49213
L42023 49213
L42023 48819
L42210 48819
" />
<path d="M42323 48819
L42548 48819
" />
<path d="M42435 49213
L42435 48819
" />
<path d="M42679 49007
L42810 49007
" />
<path d="M42866 49213
L42679 49213
L42679 48819
L42866 48819
" />
<path d="M43260 49213
L43129 49026
" />
<path d="M43035 49213
L43035 48819
L43185 48819
L43222 48838
L43241 48857
L43260 48894
L43260 48951
L43241 48988
L43222 49007
L43185 49026
L43035 49026
" />
<path d="M43954 49176
L43935 49194
L43879 49213
L43841 49213
L43785 49194
L43747 49157
L43729 49119
L43710 49044
L43710 48988
L43729 48913
L43747 48876
L43785 48838
L43841 48819
L43879 48819
L43935 48838
L43954 48857
" />
<path d="M44122 48819
L44122 49138
L44141 49176
L44160 49194
L44197 49213
L44272 49213
L44310 49194
L44329 49176
L44347 49138
L44347 48819
" />
<path d="M44479 48819
L44704 48819
" />
<path d="M44591 49213
L44591 48819
" />
<path d="M44910 48819
L44985 48819
L45022 48838
L45060 48876
L45078 48951
L45078 49082
L45060 49157
L45022 49194
L44985 49213
L44910 49213
L44872 49194
L44835 49157
L44816 49082
L44816 48951
L44835 48876
L44872 48838
L44910 48819
" />
<path d="M45247 48819
L45247 49138
L45266 49176
L45285 49194
L45322 49213
L45397 49213
L45435 49194
L45453 49176
L45472 49138
L45472 48819
" />
<path d="M45603 48819
L45828 48819
" />
<path d="M45716 49213
L45716 48819
" />
<path d="M45941 49194
L45997 49213
L46091 49213
L46128 49194
L46147 49176
L46166 49138
L46166 49101
L46147 49063
L46128 49044
L46091 49026
L46016 49007
L45978 48988
L45960 48969
L45941 48932
L45941 48894
L45960 48857
L45978 48838
L46016 48819
L46110 48819
L46166 48838
" />
<path d="M40860 50250
L40860 50512
" />
<path d="M40767 50100
L40673 50381
L40916 50381
" />
<path d="M41029 50512
L41235 50250
" />
<path d="M41029 50250
L41235 50512
" />
<path d="M41910 50512
L41779 50325
" />
<path d="M41685 50512
L41685 50119
L41835 50119
L41873 50137
L41891 50156
L41910 50194
L41910 50250
L41891 50287
L41873 50306
L41835 50325
L41685 50325
" />
<path d="M42041 50119
L42285 50119
L42154 50269
L42210 50269
L42248 50287
L42266 50306
L42285 50344
L42285 50437
L42266 50475
L42248 50494
L42210 50512
L42098 50512
L42060 50494
L42041 50475
" />
<path d="M42454 50475
L42473 50494
L42454 50512
L42435 50494
L42454 50475
L42454 50512
" />
<path d="M42604 50119
L42866 50119
L42698 50512
" />
<path d="M43204 50119
L43016 50119
L42997 50306
L43016 50287
L43054 50269
L43147 50269
L43185 50287
L43204 50306
L43222 50344
L43222 50437
L43204 50475
L43185 50494
L43147 50512
L43054 50512
L43016 50494
L42997 50475
" />
<path d="M43691 50512
L43691 50250
" />
<path d="M43691 50287
L43710 50269
L43747 50250
L43804 50250
L43841 50269
L43860 50306
L43860 50512
" />
<path d="M43860 50306
L43879 50269
L43916 50250
L43972 50250
L44010 50269
L44029 50306
L44029 50512
" />
<path d="M44216 50512
L44216 50250
" />
<path d="M44216 50287
L44235 50269
L44272 50250
L44329 50250
L44366 50269
L44385 50306
L44385 50512
" />
<path d="M44385 50306
L44404 50269
L44441 50250
L44497 50250
L44535 50269
L44554 50306
L44554 50512
" />
<path d="M48123 47685
L55123 18435
" />
<path d="M37998 18435
L48123 47685
" />
<path d="M20873 18435
L48123 47685
" />
<circle cx="55123" cy="18435" r="1476.38" /> 
<circle cx="38021.7" cy="18435" r="1476.38" /> 
<circle cx="20873" cy="18435" r="1476.38" /> 
<circle cx="16373" cy="6435.04" r="2250" /> 
<path d="M50585 48756
L50604 48738
L50642 48719
L50735 48719
L50773 48738
L50792 48756
L50810 48794
L50810 48831
L50792 48888
L50567 49113
L50810 49113
" />
<path d="M50942 49113
L51148 48850
" />
<path d="M50942 48850
L51148 49113
" />
<path d="M51823 49113
L51691 48925
" />
<path d="M51598 49113
L51598 48719
L51748 48719
L51785 48738
L51804 48756
L51823 48794
L51823 48850
L51804 48888
L51785 48906
L51748 48925
L51598 48925
" />
<path d="M52479 48719
L52291 48719
L52273 48906
L52291 48888
L52329 48869
L52423 48869
L52460 48888
L52479 48906
L52498 48944
L52498 49038
L52479 49075
L52460 49094
L52423 49113
L52329 49113
L52291 49094
L52273 49075
" />
<path d="M52666 49075
L52685 49094
L52666 49113
L52648 49094
L52666 49075
L52666 49113
" />
<path d="M52816 48719
L53079 48719
L52910 49113
" />
<path d="M53435 49113
L53210 49113
" />
<path d="M53322 49113
L53322 48719
L53285 48775
L53247 48813
L53210 48831
" />
<path d="M53791 48719
L53604 48719
L53585 48906
L53604 48888
L53641 48869
L53735 48869
L53772 48888
L53791 48906
L53810 48944
L53810 49038
L53791 49075
L53772 49094
L53735 49113
L53641 49113
L53604 49094
L53585 49075
" />
<path d="M54279 49113
L54279 48850
" />
<path d="M54279 48888
L54297 48869
L54335 48850
L54391 48850
L54429 48869
L54447 48906
L54447 49113
" />
<path d="M54447 48906
L54466 48869
L54504 48850
L54560 48850
L54597 48869
L54616 48906
L54616 49113
" />
<path d="M54804 49113
L54804 48850
" />
<path d="M54804 48888
L54822 48869
L54860 48850
L54916 48850
L54954 48869
L54972 48906
L54972 49113
" />
<path d="M54972 48906
L54991 48869
L55029 48850
L55085 48850
L55122 48869
L55141 48906
L55141 49113
" />
<path d="M56623 50185
L55373 50185
" />
<path d="M59623 6435
L56623 48935
" />
<circle cx="59623" cy="6435.04" r="2250" /> 
<path d="M27945 49075
L27926 49094
L27870 49113
L27832 49113
L27776 49094
L27738 49056
L27720 49019
L27701 48944
L27701 48888
L27720 48813
L27738 48775
L27776 48738
L27832 48719
L27870 48719
L27926 48738
L27945 48756
" />
<path d="M28113 48906
L28245 48906
" />
<path d="M28301 49113
L28113 49113
L28113 48719
L28301 48719
" />
<path d="M28470 49113
L28470 48719
L28695 49113
L28695 48719
" />
<path d="M28826 48719
L29051 48719
" />
<path d="M28938 49113
L28938 48719
" />
<path d="M29182 48906
L29313 48906
" />
<path d="M29370 49113
L29182 49113
L29182 48719
L29370 48719
" />
<path d="M29763 49113
L29632 48925
" />
<path d="M29538 49113
L29538 48719
L29688 48719
L29726 48738
L29744 48756
L29763 48794
L29763 48850
L29744 48888
L29726 48906
L29688 48925
L29538 48925
" />
<path d="M30307 48719
L30382 48719
L30419 48738
L30457 48775
L30476 48850
L30476 48981
L30457 49056
L30419 49094
L30382 49113
L30307 49113
L30269 49094
L30232 49056
L30213 48981
L30213 48850
L30232 48775
L30269 48738
L30307 48719
" />
<path d="M30776 48906
L30644 48906
" />
<path d="M30644 49113
L30644 48719
L30832 48719
" />
<path d="M31413 48906
L31469 48925
L31488 48944
L31507 48981
L31507 49038
L31488 49075
L31469 49094
L31432 49113
L31282 49113
L31282 48719
L31413 48719
L31451 48738
L31469 48756
L31488 48794
L31488 48831
L31469 48869
L31451 48888
L31413 48906
L31282 48906
" />
<path d="M31750 48719
L31825 48719
L31863 48738
L31900 48775
L31919 48850
L31919 48981
L31900 49056
L31863 49094
L31825 49113
L31750 49113
L31713 49094
L31675 49056
L31657 48981
L31657 48850
L31675 48775
L31713 48738
L31750 48719
" />
<path d="M32069 49000
L32257 49000
" />
<path d="M32032 49113
L32163 48719
L32294 49113
" />
<path d="M32650 49113
L32519 48925
" />
<path d="M32425 49113
L32425 48719
L32575 48719
L32613 48738
L32632 48756
L32650 48794
L32650 48850
L32632 48888
L32613 48906
L32575 48925
L32425 48925
" />
<path d="M32819 49113
L32819 48719
L32913 48719
L32969 48738
L33007 48775
L33025 48813
L33044 48888
L33044 48944
L33025 49019
L33007 49056
L32969 49094
L32913 49113
L32819 49113
" />
<path d="M34123 50185
L35373 50185
" />
<path d="M37998 26185
L35373 48935
" />
<path d="M16373 6435
L16373 41435
" />
<path d="M59623 6435
L16373 6435
" />
<path d="M59623 41435
L59623 6435
" />
<path d="M16373 41435
L59623 41435
" />
<path d="M27195 50325
L27176 50344
L27120 50363
L27082 50363
L27026 50344
L26989 50306
L26970 50269
L26951 50194
L26951 50138
L26970 50063
L26989 50025
L27026 49988
L27082 49969
L27120 49969
L27176 49988
L27195 50006
" />
<path d="M27364 50156
L27495 50156
" />
<path d="M27551 50363
L27364 50363
L27364 49969
L27551 49969
" />
<path d="M27720 50363
L27720 49969
L27945 50363
L27945 49969
" />
<path d="M28076 49969
L28301 49969
" />
<path d="M28188 50363
L28188 49969
" />
<path d="M28432 50156
L28563 50156
" />
<path d="M28620 50363
L28432 50363
L28432 49969
L28620 49969
" />
<path d="M29013 50363
L28882 50175
" />
<path d="M28788 50363
L28788 49969
L28938 49969
L28976 49988
L28995 50006
L29013 50044
L29013 50100
L28995 50138
L28976 50156
L28938 50175
L28788 50175
" />
<path d="M29557 49969
L29632 49969
L29669 49988
L29707 50025
L29726 50100
L29726 50231
L29707 50306
L29669 50344
L29632 50363
L29557 50363
L29520 50344
L29482 50306
L29463 50231
L29463 50100
L29482 50025
L29520 49988
L29557 49969
" />
<path d="M30026 50156
L29894 50156
" />
<path d="M29894 50363
L29894 49969
L30082 49969
" />
<path d="M30532 50156
L30663 50156
" />
<path d="M30719 50363
L30532 50363
L30532 49969
L30719 49969
" />
<path d="M30888 50363
L30888 49969
L31113 50363
L31113 49969
" />
<path d="M31526 50325
L31507 50344
L31451 50363
L31413 50363
L31357 50344
L31319 50306
L31301 50269
L31282 50194
L31282 50138
L31301 50063
L31319 50025
L31357 49988
L31413 49969
L31451 49969
L31507 49988
L31526 50006
" />
<path d="M31882 50363
L31694 50363
L31694 49969
" />
<path d="M32088 49969
L32163 49969
L32200 49988
L32238 50025
L32257 50100
L32257 50231
L32238 50306
L32200 50344
L32163 50363
L32088 50363
L32050 50344
L32013 50306
L31994 50231
L31994 50100
L32013 50025
L32050 49988
L32088 49969
" />
<path d="M32407 50344
L32463 50363
L32557 50363
L32594 50344
L32613 50325
L32632 50288
L32632 50250
L32613 50213
L32594 50194
L32557 50175
L32482 50156
L32444 50138
L32425 50119
L32407 50081
L32407 50044
L32425 50006
L32444 49988
L32482 49969
L32575 49969
L32632 49988
" />
<path d="M32800 49969
L32800 50288
L32819 50325
L32838 50344
L32875 50363
L32950 50363
L32988 50344
L33007 50325
L33025 50288
L33025 49969
" />
<path d="M33438 50363
L33307 50175
" />
<path d="M33213 50363
L33213 49969
L33363 49969
L33400 49988
L33419 50006
L33438 50044
L33438 50100
L33419 50138
L33400 50156
L33363 50175
L33213 50175
" />
<path d="M33607 50156
L33738 50156
" />
<path d="M33794 50363
L33607 50363
L33607 49969
L33794 49969
" />
<path d="M34123 48935
L35373 48935
" />
<path d="M37998 41435
L35373 50185
" />
<path d="M56623 50185
L59623 41435
" />
<path d="M55373 48935
L56623 48935
" />
<path d="M50585 50006
L50604 49988
L50642 49969
L50735 49969
L50773 49988
L50792 50006
L50810 50044
L50810 50081
L50792 50138
L50567 50363
L50810 50363
" />
<path d="M50942 50363
L51148 50100
" />
<path d="M50942 50100
L51148 50363
" />
<path d="M51823 50363
L51691 50175
" />
<path d="M51598 50363
L51598 49969
L51748 49969
L51785 49988
L51804 50006
L51823 50044
L51823 50100
L51804 50138
L51785 50156
L51748 50175
L51598 50175
" />
<path d="M52479 49969
L52291 49969
L52273 50156
L52291 50138
L52329 50119
L52423 50119
L52460 50138
L52479 50156
L52498 50194
L52498 50288
L52479 50325
L52460 50344
L52423 50363
L52329 50363
L52291 50344
L52273 50325
" />
<path d="M52666 50325
L52685 50344
L52666 50363
L52648 50344
L52666 50325
L52666 50363
" />
<path d="M52929 49969
L52966 49969
L53004 49988
L53023 50006
L53041 50044
L53060 50119
L53060 50213
L53041 50288
L53023 50325
L53004 50344
L52966 50363
L52929 50363
L52891 50344
L52873 50325
L52854 50288
L52835 50213
L52835 50119
L52854 50044
L52873 50006
L52891 49988
L52929 49969
" />
<path d="M53285 50138
L53247 50119
L53229 50100
L53210 50063
L53210 50044
L53229 50006
L53247 49988
L53285 49969
L53360 49969
L53397 49988
L53416 50006
L53435 50044
L53435 50063
L53416 50100
L53397 50119
L53360 50138
L53285 50138
L53247 50156
L53229 50175
L53210 50213
L53210 50288
L53229 50325
L53247 50344
L53285 50363
L53360 50363
L53397 50344
L53416 50325
L53435 50288
L53435 50213
L53416 50175
L53397 50156
L53360 50138
" />
<path d="M53679 49969
L53716 49969
L53754 49988
L53772 50006
L53791 50044
L53810 50119
L53810 50213
L53791 50288
L53772 50325
L53754 50344
L53716 50363
L53679 50363
L53641 50344
L53622 50325
L53604 50288
L53585 50213
L53585 50119
L53604 50044
L53622 50006
L53641 49988
L53679 49969
" />
<path d="M54279 50363
L54279 50100
" />
<path d="M54279 50138
L54297 50119
L54335 50100
L54391 50100
L54429 50119
L54447 50156
L54447 50363
" />
<path d="M54447 50156
L54466 50119
L54504 50100
L54560 50100
L54597 50119
L54616 50156
L54616 50363
" />
<path d="M54804 50363
L54804 50100
" />
<path d="M54804 50138
L54822 50119
L54860 50100
L54916 50100
L54954 50119
L54972 50156
L54972 50363
" />
<path d="M54972 50156
L54991 50119
L55029 50100
L55085 50100
L55122 50119
L55141 50156
L55141 50363
" />
<circle cx="16373" cy="6435.04" r="353.554" /> 
<path d="M16123 6185
L16623 6685
" />
<path d="M16623 6185
L16123 6685
" />
<circle cx="16373" cy="41435" r="353.554" /> 
<circle cx="59623" cy="41435" r="353.554" /> 
<circle cx="59623" cy="6435.04" r="353.554" /> 
<path d="M59373 6185
L59873 6685
" />
<path d="M59873 6185
L59373 6685
" />
<path d="M59873 41185
L59373 41685
" />
<path d="M59373 41185
L59873 41685
" />
<path d="M16123 41185
L16623 41685
" />
<path d="M16123 41685
L16623 41185
" />
<circle cx="37998" cy="26185" r="559.017" /> 
<path d="M15873 26185
L60123 26185
" />
<path d="M36404 2726
L36479 2726
L36516 2707
L36535 2688
L36573 2632
L36591 2557
L36591 2407
L36573 2370
L36554 2351
L36516 2332
L36441 2332
L36404 2351
L36385 2370
L36366 2407
L36366 2501
L36385 2538
L36404 2557
L36441 2576
L36516 2576
L36554 2557
L36573 2538
L36591 2501
" />
<path d="M36816 2501
L36779 2482
L36760 2463
L36741 2426
L36741 2407
L36760 2370
L36779 2351
L36816 2332
L36891 2332
L36929 2351
L36948 2370
L36966 2407
L36966 2426
L36948 2463
L36929 2482
L36891 2501
L36816 2501
L36779 2520
L36760 2538
L36741 2576
L36741 2651
L36760 2688
L36779 2707
L36816 2726
L36891 2726
L36929 2707
L36948 2688
L36966 2651
L36966 2576
L36948 2538
L36929 2520
L36891 2501
" />
<path d="M37135 2688
L37154 2707
L37135 2726
L37116 2707
L37135 2688
L37135 2726
" />
<path d="M37491 2463
L37491 2726
" />
<path d="M37398 2313
L37304 2595
L37548 2595
" />
<path d="M37679 2370
L37698 2351
L37735 2332
L37829 2332
L37866 2351
L37885 2370
L37904 2407
L37904 2445
L37885 2501
L37660 2726
L37904 2726
" />
<path d="M38260 2332
L38073 2332
L38054 2520
L38073 2501
L38110 2482
L38204 2482
L38241 2501
L38260 2520
L38279 2557
L38279 2651
L38260 2688
L38241 2707
L38204 2726
L38110 2726
L38073 2707
L38054 2688
" />
<path d="M38747 2726
L38747 2463
" />
<path d="M38747 2501
L38766 2482
L38804 2463
L38860 2463
L38897 2482
L38916 2520
L38916 2726
" />
<path d="M38916 2520
L38935 2482
L38972 2463
L39029 2463
L39066 2482
L39085 2520
L39085 2726
" />
<path d="M39272 2726
L39272 2463
" />
<path d="M39272 2501
L39291 2482
L39329 2463
L39385 2463
L39422 2482
L39441 2520
L39441 2726
" />
<path d="M39441 2520
L39460 2482
L39497 2463
L39554 2463
L39591 2482
L39610 2520
L39610 2726
" />
<path d="M18623 3060
L57373 3060
" />
<path d="M18623 5935
L18623 2829
" />
<path d="M57373 5935
L57373 2829
" />
<path d="M57373 3060
L56929 3290
" />
<path d="M57373 3060
L56929 2829
" />
<path d="M18623 3060
L19066 3290
" />
<path d="M18623 3060
L19066 2829
" />
<path d="M15873 5935
L60123 46435
" />
<path d="M15873 46435
L60123 5935
" />
<path d="M37498 40935
L38498 41935
" />
<path d="M38498 40935
L37498 41935
" />
<circle cx="37998" cy="41435" r="707.107" /> 
<path d="M16373 18435
L60123 18435
" />
<path d="M55123 6435
L55123 46435
" />
<path d="M20873 5935
L20873 46435
" />
<circle cx="16373" cy="41435" r="2000" /> 
<circle cx="59623" cy="41435" r="2000" /> 
</g>
<g style="fill:#0000FF; fill-opacity:0.0; 
stroke:#0000FF; stroke-width:118.11; stroke-opacity:1; 
stroke-linecap:round; stroke-linejoin:round;">
<path d="M21373 17935
L20373 18935
" />
<path d="M54623 17935
L55623 18935
" />
<path d="M55623 17935
L54623 18935
" />
<path d="M37498 17935
L38498 18935
" />
<path d="M38498 17935
L37498 18935
" />
<path d="M20373 17935
L21373 18935
" />
</g>
<g style="fill:#0000FF; fill-opacity:0.0; 
stroke:#0000FF; stroke-width:59.0551; stroke-opacity:1; 
stroke-linecap:round; stroke-linejoin:round;">
<path d="M46241 3463
L46241 3726
" />
<path d="M46148 3313
L46054 3595
L46298 3595
" />
<path d="M46466 3726
L46541 3726
L46579 3707
L46598 3688
L46635 3632
L46654 3557
L46654 3407
L46635 3370
L46616 3351
L46579 3332
L46504 3332
L46466 3351
L46448 3370
L46429 3407
L46429 3501
L46448 3538
L46466 3557
L46504 3576
L46579 3576
L46616 3557
L46635 3538
L46654 3501
" />
<path d="M46823 3688
L46841 3707
L46823 3726
L46804 3707
L46823 3688
L46823 3726
" />
<path d="M46991 3370
L47010 3351
L47048 3332
L47141 3332
L47179 3351
L47198 3370
L47216 3407
L47216 3445
L47198 3501
L46973 3726
L47216 3726
" />
<path d="M47591 3726
L47366 3726
" />
<path d="M47479 3726
L47479 3332
L47441 3388
L47404 3426
L47366 3445
" />
<path d="M47741 3370
L47760 3351
L47798 3332
L47891 3332
L47929 3351
L47947 3370
L47966 3407
L47966 3445
L47947 3501
L47723 3726
L47966 3726
" />
<path d="M48435 3726
L48435 3463
" />
<path d="M48435 3501
L48454 3482
L48491 3463
L48547 3463
L48585 3482
L48604 3520
L48604 3726
" />
<path d="M48604 3520
L48622 3482
L48660 3463
L48716 3463
L48754 3482
L48772 3520
L48772 3726
" />
<path d="M48960 3726
L48960 3463
" />
<path d="M48960 3501
L48979 3482
L49016 3463
L49072 3463
L49110 3482
L49129 3520
L49129 3726
" />
<path d="M49129 3520
L49147 3482
L49185 3463
L49241 3463
L49279 3482
L49297 3520
L49297 3726
" />
<path d="M37998 4060
L57373 4060
" />
<path d="M37998 5935
L37998 3829
" />
<path d="M57373 5935
L57373 3829
" />
<path d="M57373 4060
L56929 4290
" />
<path d="M57373 4060
L56929 3829
" />
<path d="M37998 4060
L38441 4290
" />
<path d="M37998 4060
L38441 3829
" />
<path d="M26866 3463
L26866 3726
" />
<path d="M26773 3313
L26679 3595
L26923 3595
" />
<path d="M27091 3726
L27166 3726
L27204 3707
L27223 3688
L27260 3632
L27279 3557
L27279 3407
L27260 3370
L27241 3351
L27204 3332
L27129 3332
L27091 3351
L27073 3370
L27054 3407
L27054 3501
L27073 3538
L27091 3557
L27129 3576
L27204 3576
L27241 3557
L27260 3538
L27279 3501
" />
<path d="M27448 3688
L27466 3707
L27448 3726
L27429 3707
L27448 3688
L27448 3726
" />
<path d="M27616 3370
L27635 3351
L27673 3332
L27766 3332
L27804 3351
L27823 3370
L27841 3407
L27841 3445
L27823 3501
L27598 3726
L27841 3726
" />
<path d="M28216 3726
L27991 3726
" />
<path d="M28104 3726
L28104 3332
L28066 3388
L28029 3426
L27991 3445
" />
<path d="M28366 3370
L28385 3351
L28423 3332
L28516 3332
L28554 3351
L28572 3370
L28591 3407
L28591 3445
L28572 3501
L28348 3726
L28591 3726
" />
<path d="M29060 3726
L29060 3463
" />
<path d="M29060 3501
L29079 3482
L29116 3463
L29172 3463
L29210 3482
L29229 3520
L29229 3726
" />
<path d="M29229 3520
L29247 3482
L29285 3463
L29341 3463
L29379 3482
L29397 3520
L29397 3726
" />
<path d="M29585 3726
L29585 3463
" />
<path d="M29585 3501
L29604 3482
L29641 3463
L29697 3463
L29735 3482
L29754 3520
L29754 3726
" />
<path d="M29754 3520
L29772 3482
L29810 3463
L29866 3463
L29904 3482
L29922 3520
L29922 3726
" />
<path d="M18623 4060
L37998 4060
" />
<path d="M18623 5935
L18623 3829
" />
<path d="M37998 5935
L37998 3829
" />
<path d="M37998 4060
L37554 4290
" />
<path d="M37998 4060
L37554 3829
" />
<path d="M18623 4060
L19066 4290
" />
<path d="M18623 4060
L19066 3829
" />
<path d="M36404 476
L36179 476
" />
<path d="M36291 476
L36291 82
L36254 138
L36217 176
L36179 195
" />
<path d="M36779 476
L36554 476
" />
<path d="M36666 476
L36666 82
L36629 138
L36591 176
L36554 195
" />
<path d="M36929 120
L36948 101
L36985 82
L37079 82
L37116 101
L37135 120
L37154 157
L37154 195
L37135 251
L36910 476
L37154 476
" />
<path d="M37323 438
L37341 457
L37323 476
L37304 457
L37323 438
L37323 476
" />
<path d="M37473 82
L37716 82
L37585 232
L37641 232
L37679 251
L37698 270
L37716 307
L37716 401
L37698 438
L37679 457
L37641 476
L37529 476
L37491 457
L37473 438
" />
<path d="M37904 476
L37979 476
L38016 457
L38035 438
L38073 382
L38091 307
L38091 157
L38073 120
L38054 101
L38016 82
L37941 82
L37904 101
L37885 120
L37866 157
L37866 251
L37885 288
L37904 307
L37941 326
L38016 326
L38054 307
L38073 288
L38091 251
" />
<path d="M38447 82
L38260 82
L38241 270
L38260 251
L38297 232
L38391 232
L38429 251
L38447 270
L38466 307
L38466 401
L38447 438
L38429 457
L38391 476
L38297 476
L38260 457
L38241 438
" />
<path d="M38935 476
L38935 213
" />
<path d="M38935 251
L38954 232
L38991 213
L39047 213
L39085 232
L39104 270
L39104 476
" />
<path d="M39104 270
L39122 232
L39160 213
L39216 213
L39254 232
L39272 270
L39272 476
" />
<path d="M39460 476
L39460 213
" />
<path d="M39460 251
L39479 232
L39516 213
L39572 213
L39610 232
L39629 270
L39629 476
" />
<path d="M39629 270
L39647 232
L39685 213
L39741 213
L39779 232
L39797 270
L39797 476
" />
<path d="M15873 810
L60123 810
" />
<path d="M15873 5935
L15873 579
" />
<path d="M60123 5935
L60123 579
" />
<path d="M60123 810
L59679 1040
" />
<path d="M60123 810
L59679 579
" />
<path d="M15873 810
L16316 1040
" />
<path d="M15873 810
L16316 579
" />
<path d="M45116 4463
L45116 4726
" />
<path d="M45023 4313
L44929 4595
L45173 4595
" />
<path d="M45285 4332
L45529 4332
L45398 4482
L45454 4482
L45491 4501
L45510 4520
L45529 4557
L45529 4651
L45510 4688
L45491 4707
L45454 4726
L45341 4726
L45304 4707
L45285 4688
" />
<path d="M45698 4688
L45716 4707
L45698 4726
L45679 4707
L45698 4688
L45698 4726
" />
<path d="M46054 4463
L46054 4726
" />
<path d="M45960 4313
L45866 4595
L46110 4595
" />
<path d="M46279 4726
L46354 4726
L46391 4707
L46410 4688
L46448 4632
L46466 4557
L46466 4407
L46448 4370
L46429 4351
L46391 4332
L46316 4332
L46279 4351
L46260 4370
L46241 4407
L46241 4501
L46260 4538
L46279 4557
L46316 4576
L46391 4576
L46429 4557
L46448 4538
L46466 4501
" />
<path d="M46691 4501
L46654 4482
L46635 4463
L46616 4426
L46616 4407
L46635 4370
L46654 4351
L46691 4332
L46766 4332
L46804 4351
L46822 4370
L46841 4407
L46841 4426
L46822 4463
L46804 4482
L46766 4501
L46691 4501
L46654 4520
L46635 4538
L46616 4576
L46616 4651
L46635 4688
L46654 4707
L46691 4726
L46766 4726
L46804 4707
L46822 4688
L46841 4651
L46841 4576
L46822 4538
L46804 4520
L46766 4501
" />
<path d="M47310 4726
L47310 4463
" />
<path d="M47310 4501
L47329 4482
L47366 4463
L47422 4463
L47460 4482
L47479 4520
L47479 4726
" />
<path d="M47479 4520
L47497 4482
L47535 4463
L47591 4463
L47629 4482
L47647 4520
L47647 4726
" />
<path d="M47835 4726
L47835 4463
" />
<path d="M47835 4501
L47854 4482
L47891 4463
L47947 4463
L47985 4482
L48004 4520
L48004 4726
" />
<path d="M48004 4520
L48022 4482
L48060 4463
L48116 4463
L48154 4482
L48172 4520
L48172 4726
" />
<path d="M37998 5060
L55123 5060
" />
<path d="M37998 5935
L37998 4829
" />
<path d="M55123 5935
L55123 4829
" />
<path d="M55123 5060
L54679 5290
" />
<path d="M55123 5060
L54679 4829
" />
<path d="M37998 5060
L38441 5290
" />
<path d="M37998 5060
L38441 4829
" />
<path d="M27991 4463
L27991 4726
" />
<path d="M27898 4313
L27804 4595
L28048 4595
" />
<path d="M28160 4332
L28404 4332
L28273 4482
L28329 4482
L28366 4501
L28385 4520
L28404 4557
L28404 4651
L28385 4688
L28366 4707
L28329 4726
L28216 4726
L28179 4707
L28160 4688
" />
<path d="M28573 4688
L28591 4707
L28573 4726
L28554 4707
L28573 4688
L28573 4726
" />
<path d="M28929 4463
L28929 4726
" />
<path d="M28835 4313
L28741 4595
L28985 4595
" />
<path d="M29154 4726
L29229 4726
L29266 4707
L29285 4688
L29323 4632
L29341 4557
L29341 4407
L29323 4370
L29304 4351
L29266 4332
L29191 4332
L29154 4351
L29135 4370
L29116 4407
L29116 4501
L29135 4538
L29154 4557
L29191 4576
L29266 4576
L29304 4557
L29323 4538
L29341 4501
" />
<path d="M29566 4501
L29529 4482
L29510 4463
L29491 4426
L29491 4407
L29510 4370
L29529 4351
L29566 4332
L29641 4332
L29679 4351
L29697 4370
L29716 4407
L29716 4426
L29697 4463
L29679 4482
L29641 4501
L29566 4501
L29529 4520
L29510 4538
L29491 4576
L29491 4651
L29510 4688
L29529 4707
L29566 4726
L29641 4726
L29679 4707
L29697 4688
L29716 4651
L29716 4576
L29697 4538
L29679 4520
L29641 4501
" />
<path d="M30185 4726
L30185 4463
" />
<path d="M30185 4501
L30204 4482
L30241 4463
L30297 4463
L30335 4482
L30354 4520
L30354 4726
" />
<path d="M30354 4520
L30372 4482
L30410 4463
L30466 4463
L30504 4482
L30522 4520
L30522 4726
" />
<path d="M30710 4726
L30710 4463
" />
<path d="M30710 4501
L30729 4482
L30766 4463
L30822 4463
L30860 4482
L30879 4520
L30879 4726
" />
<path d="M30879 4520
L30897 4482
L30935 4463
L30991 4463
L31029 4482
L31047 4520
L31047 4726
" />
<path d="M20873 5060
L37998 5060
" />
<path d="M20873 5935
L20873 4829
" />
<path d="M37998 5935
L37998 4829
" />
<path d="M37998 5060
L37554 5290
" />
<path d="M37998 5060
L37554 4829
" />
<path d="M20873 5060
L21316 5290
" />
<path d="M20873 5060
L21316 4829
" />
<path d="M476 32812
L476 33037
" />
<path d="M476 32925
L82 32925
L138 32962
L176 33000
L195 33037
" />
<path d="M82 32456
L82 32643
L270 32662
L251 32643
L232 32606
L232 32512
L251 32475
L270 32456
L307 32437
L401 32437
L438 32456
L457 32475
L476 32512
L476 32606
L457 32643
L438 32662
" />
<path d="M476 32250
L476 32175
L457 32137
L438 32118
L382 32081
L307 32062
L157 32062
L120 32081
L101 32100
L82 32137
L82 32212
L101 32250
L120 32268
L157 32287
L251 32287
L288 32268
L307 32250
L326 32212
L326 32137
L307 32100
L288 32081
L251 32062
" />
<path d="M82 31818
L82 31781
L101 31744
L120 31725
L157 31706
L232 31687
L326 31687
L401 31706
L438 31725
L457 31744
L476 31781
L476 31818
L457 31856
L438 31875
L401 31893
L326 31912
L232 31912
L157 31893
L120 31875
L101 31856
L82 31818
" />
<path d="M476 31519
L82 31519
L82 31425
L101 31369
L138 31331
L176 31312
L251 31294
L307 31294
L382 31312
L420 31331
L457 31369
L476 31425
L476 31519
" />
<path d="M476 31125
L82 31125
L82 31031
L101 30975
L138 30937
L176 30919
L251 30900
L307 30900
L382 30919
L420 30937
L457 30975
L476 31031
L476 31125
" />
<path d="M476 30431
L82 30431
" />
<path d="M270 30431
L270 30206
" />
<path d="M476 30206
L82 30206
" />
<path d="M82 29944
L82 29869
L101 29831
L138 29794
L213 29775
L345 29775
L420 29794
L457 29831
L476 29869
L476 29944
L457 29981
L420 30019
L345 30037
L213 30037
L138 30019
L101 29981
L82 29944
" />
<path d="M476 29419
L476 29606
L82 29606
" />
<path d="M270 29288
L270 29156
" />
<path d="M476 29100
L476 29288
L82 29288
L82 29100
" />
<path d="M326 28931
L326 28631
" />
<path d="M476 28444
L82 28444
" />
<path d="M270 28444
L270 28219
" />
<path d="M476 28219
L82 28219
" />
<path d="M82 27956
L82 27881
L101 27844
L138 27806
L213 27788
L345 27788
L420 27806
L457 27844
L476 27881
L476 27956
L457 27994
L420 28031
L345 28050
L213 28050
L138 28031
L101 27994
L82 27956
" />
<path d="M476 27432
L476 27619
L82 27619
" />
<path d="M270 27300
L270 27169
" />
<path d="M476 27113
L476 27300
L82 27300
L82 27113
" />
<path d="M457 26663
L476 26607
L476 26513
L457 26475
L438 26457
L401 26438
L363 26438
L326 26457
L307 26475
L288 26513
L270 26588
L251 26625
L232 26644
L195 26663
L157 26663
L120 26644
L101 26625
L82 26588
L82 26494
L101 26438
" />
<path d="M476 26269
L82 26269
L82 26119
L101 26082
L120 26063
L157 26044
L213 26044
L251 26063
L270 26082
L288 26119
L288 26269
" />
<path d="M363 25894
L363 25707
" />
<path d="M476 25932
L82 25800
L476 25669
" />
<path d="M438 25313
L457 25332
L476 25388
L476 25426
L457 25482
L420 25519
L382 25538
L307 25557
L251 25557
L176 25538
L138 25519
L101 25482
L82 25426
L82 25388
L101 25332
L120 25313
" />
<path d="M476 25144
L82 25144
" />
<path d="M476 24957
L82 24957
L476 24732
L82 24732
" />
<path d="M101 24338
L82 24376
L82 24432
L101 24488
L138 24526
L176 24544
L251 24563
L307 24563
L382 24544
L420 24526
L457 24488
L476 24432
L476 24394
L457 24338
L438 24319
L307 24319
L307 24394
" />
<path d="M438 24151
L457 24132
L476 24151
L457 24169
L438 24151
L476 24151
" />
<path d="M232 24151
L251 24132
L270 24151
L251 24169
L232 24151
L270 24151
" />
<path d="M1125 32597
L1125 32821
" />
<path d="M1125 32709
L732 32709
L788 32747
L825 32784
L844 32821
" />
<path d="M732 32465
L732 32203
L1125 32372
" />
<path d="M900 31997
L882 32034
L863 32053
L825 32072
L807 32072
L769 32053
L750 32034
L732 31997
L732 31922
L750 31884
L769 31865
L807 31847
L825 31847
L863 31865
L882 31884
L900 31922
L900 31997
L919 32034
L938 32053
L975 32072
L1050 32072
L1088 32053
L1107 32034
L1125 31997
L1125 31922
L1107 31884
L1088 31865
L1050 31847
L975 31847
L938 31865
L919 31884
L900 31922
" />
<path d="M1088 31678
L1107 31659
L1125 31678
L1107 31697
L1088 31678
L1125 31678
" />
<path d="M732 31415
L732 31378
L750 31340
L769 31322
L807 31303
L882 31284
L975 31284
L1050 31303
L1088 31322
L1107 31340
L1125 31378
L1125 31415
L1107 31453
L1088 31472
L1050 31490
L975 31509
L882 31509
L807 31490
L769 31472
L750 31453
L732 31415
" />
<path d="M732 31040
L732 31003
L750 30965
L769 30947
L807 30928
L882 30909
L975 30909
L1050 30928
L1088 30947
L1107 30965
L1125 31003
L1125 31040
L1107 31078
L1088 31097
L1050 31115
L975 31134
L882 31134
L807 31115
L769 31097
L750 31078
L732 31040
" />
<path d="M1125 30741
L863 30741
" />
<path d="M900 30741
L882 30722
L863 30684
L863 30628
L882 30591
L919 30572
L1125 30572
" />
<path d="M919 30572
L882 30553
L863 30516
L863 30459
L882 30422
L919 30403
L1125 30403
" />
<path d="M1125 30216
L863 30216
" />
<path d="M900 30216
L882 30197
L863 30159
L863 30103
L882 30066
L919 30047
L1125 30047
" />
<path d="M919 30047
L882 30028
L863 29991
L863 29934
L882 29897
L919 29878
L1125 29878
" />
<path d="M713 29109
L1219 29447
" />
<path d="M769 28697
L750 28678
L732 28641
L732 28547
L750 28510
L769 28491
L807 28472
L844 28472
L900 28491
L1125 28716
L1125 28472
" />
<path d="M919 28003
L919 27703
" />
<path d="M1032 27703
L1032 28003
" />
<path d="M900 27160
L882 27197
L863 27216
L825 27235
L807 27235
L769 27216
L750 27197
L732 27160
L732 27085
L750 27047
L769 27028
L807 27010
L825 27010
L863 27028
L882 27047
L900 27085
L900 27160
L919 27197
L938 27216
L975 27235
L1050 27235
L1088 27216
L1107 27197
L1125 27160
L1125 27085
L1107 27047
L1088 27028
L1050 27010
L975 27010
L938 27028
L919 27047
L900 27085
" />
<path d="M1125 26822
L1125 26747
L1107 26710
L1088 26691
L1032 26654
L957 26635
L807 26635
L769 26654
L750 26672
L732 26710
L732 26785
L750 26822
L769 26841
L807 26860
L900 26860
L938 26841
L957 26822
L975 26785
L975 26710
L957 26672
L938 26654
L900 26635
" />
<path d="M1088 26466
L1107 26447
L1125 26466
L1107 26485
L1088 26466
L1125 26466
" />
<path d="M732 26204
L732 26166
L750 26129
L769 26110
L807 26091
L882 26072
L975 26072
L1050 26091
L1088 26110
L1107 26129
L1125 26166
L1125 26204
L1107 26241
L1088 26260
L1050 26279
L975 26297
L882 26297
L807 26279
L769 26260
L750 26241
L732 26204
" />
<path d="M732 25829
L732 25791
L750 25754
L769 25735
L807 25716
L882 25697
L975 25697
L1050 25716
L1088 25735
L1107 25754
L1125 25791
L1125 25829
L1107 25866
L1088 25885
L1050 25904
L975 25922
L882 25922
L807 25904
L769 25885
L750 25866
L732 25829
" />
<path d="M1125 25229
L863 25229
" />
<path d="M900 25229
L882 25210
L863 25172
L863 25116
L882 25079
L919 25060
L1125 25060
" />
<path d="M919 25060
L882 25041
L863 25004
L863 24947
L882 24910
L919 24891
L1125 24891
" />
<path d="M1125 24704
L863 24704
" />
<path d="M900 24704
L882 24685
L863 24648
L863 24591
L882 24554
L919 24535
L1125 24535
" />
<path d="M919 24535
L882 24516
L863 24479
L863 24423
L882 24385
L919 24366
L1125 24366
" />
<g >
</g>
<g >
</g>
<g >
</g>
<g >
</g>
<g >
</g>
<g >
</g>
<g >
</g>
<g >
</g>
<g >
</g>
<g >
</g>
<g >
</g>
<g >
</g>
<g >
</g>
<g >
</g>
<g >
</g>
<g >
</g>
<g >
</g>
<g >
</g>
<g >
</g>
<g >
</g>
<g >
</g>
<g >
</g>
<g >
</g>
<g >
</g>
<g >
</g>
<g >
</g>
<g >
</g>
<g >
</g>
<g >
</g>
<g >
</g>
<g >
</g>
<g >
</g>
<g >
</g>
<g >
</g>
<g >
</g>
<g >
</g>
<g >
</g>
<g >
</g>
<g >
</g>
<g >
</g>
<g >
</g>
<g >
</g>
<g >
</g>
<g >
</g>
<g >
</g>
<g >
</g>
<g >
</g>
<g >
</g>
<g >
</g>
<g >
</g>
<g >
</g>
<g >
</g>
<g >
</g>
<g >
</g>
<g >
</g>
<g >
</g>
<g >
</g>
<g >
</g>
<g >
</g>
<g >
</g>
<g >
</g>
<g >
</g>
<g >
</g>
<g >
</g>
<g >
</g>
<g >
</g>
<g >
</g>
<g >
</g>
<g >
</g>
<g >
</g>
<g >
</g>
<g >
</g>
<g >
</g>
<g >
</g>
<g >
</g>
<g >
</g>
<g >
</g>
<g >
</g>
<g >
</g>
<g >
</g>
<g >
</g>
<g >
</g>
<g >
</g>
<g >
</g>
<g >
</g>
<g >
</g>
<g >
</g>
<g >
</g>
<g >
</g>
<g >
</g>
<g >
</g>
<g >
</g>
<g >
</g>
<g >
</g>
<g >
</g>
<g >
</g>
<g >
</g>
<g >
</g>
<g >
</g>
<g >
</g>
<g >
</g>
<g >
</g>
<g >
</g>
<g >
</g>
<g >
</g>
<g >
</g>
<g >
</g>
<g >
</g>
<g >
</g>
<g >
</g>
<g >
</g>
<g >
</g>
<g >
</g>
<g >
</g>
<g >
</g>
<g >
</g>
<g >
</g>
<g >
</g>
<g >
</g>
<g >
</g>
<g >
</g>
<g >
</g>
<g >
</g>
<g >
</g>
<g >
</g>
<g >
</g>
<g >
</g>
<g >
</g>
<g >
</g>
<g >
</g>
<g >
</g>
<g >
</g>
<g >
</g>
<g >
</g>
<g >
</g>
<g >
</g>
<g >
</g>
<g >
</g>
<g >
</g>
<g >
</g>
<g >
</g>
<g >
</g>
</g>
<g style="fill:#000000; fill-opacity:0.0; 
stroke:#000000; stroke-width:59.0551; stroke-opacity:1; 
stroke-linecap:round; stroke-linejoin:round;">
</g>
<g style="fill:#FFFF00; fill-opacity:0.0; 
stroke:#FFFF00; stroke-width:59.0551; stroke-opacity:1; 
stroke-linecap:round; stroke-linejoin:round;">
</g>
<g style="fill:#FFFF00; fill-opacity:0.0; 
stroke:#FFFF00; stroke-width:150; stroke-opacity:1; 
stroke-linecap:round; stroke-linejoin:round;">
<path d="M16373 39435
L15873 39435
" />
<path d="M57373 5935
L57373 6435
" />
<path d="M60123 8685
L59623 8685
" />
<path d="M60123 39435
L59623 39435
" />
<path d="M60123 43435
L59623 43435
" />
<path d="M16373 46435
L15873 46435
" />
<path d="M16373 43435
L15873 43435
" />
<path d="M16373 8685
L15873 8685
" />
<path d="M18623 6435
L18623 5935
" />
<path d="M59623 39435 A2000 2000 0.0 0 0 59623 43435 " />
<path d="M57373 6435.04 A2250 2250 0.0 0 0 59623 8685.04 " />
<path d="M15873 43435
L15873 46435
" />
<path d="M16373 43435 A2000 2000 0.0 0 0 16373 39435 " />
<path d="M16373 8685.04 A2250 2250 0.0 0 0 18623 6435.04 " />
<path d="M60123 43435
L60123 46435
" />
<path d="M57373 5935
L18623 5935
" />
<path d="M60123 39435
L60123 8685
" />
<path d="M16373 46435
L60123 46435
" />
<path d="M15873 39435
L15873 8685
" />
<g >
</g>
<g >
</g>
<g >
</g>
<g >
</g>
<g >
</g>
<g >
</g>
<g >
</g>
<g >
</g>
<g >
</g>
<g >
</g>
<g >
</g>
<g >
</g>
<g >
</g>
<g >
</g>
<g >
</g>
<g >
</g>
<g >
</g>
<g >
</g>
<g >
</g>
<g >
</g>
<g >
</g>
<g >
</g>
<g >
</g>
<g >
</g>
<g >
</g>
<g >
</g>
<g >
</g>
<g >
</g>
<g >
</g>
<g >
</g>
<g >
</g>
<g >
</g>
<g >
</g>
<g >
</g>
<g >
</g>
<g >
</g>
<g >
</g>
<g >
</g>
<g >
</g>
<g >
</g>
<g >
</g>
<g >
</g>
<g >
</g>
<g >
</g>
<g >
</g>
<g >
</g>
<g >
</g>
<g >
</g>
<g >
</g>
<g >
</g>
<g >
</g>
<g >
</g>
<g >
</g>
<g >
</g>
<g >
</g>
<g >
</g>
<g >
</g>
<g >
</g>
<g >
</g>
<g >
</g>
<g >
</g>
<g >
</g>
<g >
</g>
<g >
</g>
<g >
</g>
<g >
</g>
<g >
</g>
<g >
</g>
<g >
</g>
<g >
</g>
<g >
</g>
<g >
</g>
<g >
</g>
<g >
</g>
<g >
</g>
<g >
</g>
<g >
</g>
<g >
</g>
<g >
</g>
<g >
</g>
<g >
</g>
<g >
</g>
<g >
</g>
<g >
</g>
<g >
</g>
<g >
</g>
<g >
</g>
<g >
</g>
<g >
</g>
<g >
</g>
<g >
</g>
<g >
</g>
<g >
</g>
<g >
</g>
<g >
</g>
<g >
</g>
<g >
</g>
<g >
</g>
<g >
</g>
<g >
</g>
<g >
</g>
<g >
</g>
<g >
</g>
<g >
</g>
<g >
</g>
<g >
</g>
<g >
</g>
<g >
</g>
<g >
</g>
<g >
</g>
<g >
</g>
<g >
</g>
<g >
</g>
<g >
</g>
<g >
</g>
<g >
</g>
<g >
</g>
<g >
</g>
<g >
</g>
<g >
</g>
<g >
</g>
<g >
</g>
<g >
</g>
<g >
</g>
<g >
</g>
<g >
</g>
<g >
</g>
<g >
</g>
<g >
</g>
<g >
</g>
<g >
</g>
<g >
</g>
<g >
</g>
<g >
</g>
<g >
</g>
<g >
</g>
<g >
</g>
<g >
</g>
<g >
</g>
<g >
</g>
<g >
</g>
<g >
</g>
</g> 
</svg>
