G04 #@! TF.GenerationSoftware,KiCad,Pcbnew,(5.99.0-1636-g5c7ebb4f2)*
G04 #@! TF.CreationDate,2020-05-11T19:52:23+02:00*
G04 #@! TF.ProjectId,#110-000-S1A - Phasor PCB,23313130-2d30-4303-902d-533141202d20,rev?*
G04 #@! TF.SameCoordinates,Original*
G04 #@! TF.FileFunction,Soldermask,Top*
G04 #@! TF.FilePolarity,Negative*
%FSLAX46Y46*%
G04 Gerber Fmt 4.6, Leading zero omitted, Abs format (unit mm)*
G04 Created by KiCad (PCBNEW (5.99.0-1636-g5c7ebb4f2)) date 2020-05-11 19:52:23*
%MOMM*%
%LPD*%
G01*
G04 APERTURE LIST*
%ADD10C,0.300000*%
%ADD11C,0.150000*%
%ADD12C,1.000000*%
%ADD13C,0.800000*%
%ADD14O,1.101600X2.101600*%
%ADD15C,6.501600*%
%ADD16C,0.901600*%
%ADD17C,2.101600*%
%ADD18O,2.101600X1.101600*%
%ADD19C,1.500000*%
%ADD20C,1.701600*%
%ADD21C,1.101600*%
%ADD22C,1.200000*%
%ADD23C,0.600000*%
G04 APERTURE END LIST*
D10*
X107365000Y-87038571D02*
X107365000Y-85538571D01*
X108507857Y-85538571D01*
X108793571Y-85610000D01*
X108936428Y-85681428D01*
X109079285Y-85824285D01*
X109079285Y-86038571D01*
X108936428Y-86181428D01*
X108793571Y-86252857D01*
X108507857Y-86324285D01*
X107365000Y-86324285D01*
X110365000Y-85538571D02*
X110365000Y-86752857D01*
X110507857Y-86895714D01*
X110650714Y-86967142D01*
X110936428Y-87038571D01*
X111507857Y-87038571D01*
X111793571Y-86967142D01*
X111936428Y-86895714D01*
X112079285Y-86752857D01*
X112079285Y-85538571D01*
X115222142Y-87038571D02*
X114222142Y-86324285D01*
X113507857Y-87038571D02*
X113507857Y-85538571D01*
X114650714Y-85538571D01*
X114936428Y-85610000D01*
X115079285Y-85681428D01*
X115222142Y-85824285D01*
X115222142Y-86038571D01*
X115079285Y-86181428D01*
X114936428Y-86252857D01*
X114650714Y-86324285D01*
X113507857Y-86324285D01*
X116507857Y-87038571D02*
X116507857Y-85538571D01*
X117650714Y-85538571D01*
X117936428Y-85610000D01*
X118079285Y-85681428D01*
X118222142Y-85824285D01*
X118222142Y-86038571D01*
X118079285Y-86181428D01*
X117936428Y-86252857D01*
X117650714Y-86324285D01*
X116507857Y-86324285D01*
X120936428Y-87038571D02*
X119507857Y-87038571D01*
X119507857Y-85538571D01*
X121936428Y-86252857D02*
X122936428Y-86252857D01*
X123365000Y-87038571D02*
X121936428Y-87038571D01*
X121936428Y-85538571D01*
X123365000Y-85538571D01*
X126936428Y-87038571D02*
X126936428Y-85538571D01*
X126936428Y-86252857D02*
X128650714Y-86252857D01*
X128650714Y-87038571D02*
X128650714Y-85538571D01*
X129936428Y-86610000D02*
X131365000Y-86610000D01*
X129650714Y-87038571D02*
X130650714Y-85538571D01*
X131650714Y-87038571D01*
X132365000Y-85538571D02*
X134365000Y-85538571D01*
X132365000Y-87038571D01*
X134365000Y-87038571D01*
X136079285Y-85538571D02*
X136650714Y-85538571D01*
X136936428Y-85610000D01*
X137222142Y-85752857D01*
X137365000Y-86038571D01*
X137365000Y-86538571D01*
X137222142Y-86824285D01*
X136936428Y-86967142D01*
X136650714Y-87038571D01*
X136079285Y-87038571D01*
X135793571Y-86967142D01*
X135507857Y-86824285D01*
X135365000Y-86538571D01*
X135365000Y-86038571D01*
X135507857Y-85752857D01*
X135793571Y-85610000D01*
X136079285Y-85538571D01*
X140365000Y-87038571D02*
X139365000Y-86324285D01*
X138650714Y-87038571D02*
X138650714Y-85538571D01*
X139793571Y-85538571D01*
X140079285Y-85610000D01*
X140222142Y-85681428D01*
X140365000Y-85824285D01*
X140365000Y-86038571D01*
X140222142Y-86181428D01*
X140079285Y-86252857D01*
X139793571Y-86324285D01*
X138650714Y-86324285D01*
X143936428Y-87038571D02*
X143936428Y-85538571D01*
X145365000Y-87038571D02*
X145365000Y-85538571D01*
D11*
X114972142Y-84294285D02*
X114972142Y-84794285D01*
X114615000Y-84008571D02*
X114257857Y-84544285D01*
X115186428Y-84544285D01*
X115686428Y-84115714D02*
X115757857Y-84080000D01*
X115900714Y-84044285D01*
X116257857Y-84044285D01*
X116400714Y-84080000D01*
X116472142Y-84115714D01*
X116543571Y-84187142D01*
X116543571Y-84258571D01*
X116472142Y-84365714D01*
X115615000Y-84794285D01*
X116543571Y-84794285D01*
X117472142Y-84044285D02*
X117615000Y-84044285D01*
X117757857Y-84080000D01*
X117829285Y-84115714D01*
X117900714Y-84187142D01*
X117972142Y-84330000D01*
X117972142Y-84508571D01*
X117900714Y-84651428D01*
X117829285Y-84722857D01*
X117757857Y-84758571D01*
X117615000Y-84794285D01*
X117472142Y-84794285D01*
X117329285Y-84758571D01*
X117257857Y-84722857D01*
X117186428Y-84651428D01*
X117115000Y-84508571D01*
X117115000Y-84330000D01*
X117186428Y-84187142D01*
X117257857Y-84115714D01*
X117329285Y-84080000D01*
X117472142Y-84044285D01*
X119757857Y-84401428D02*
X120257857Y-84401428D01*
X120472142Y-84794285D02*
X119757857Y-84794285D01*
X119757857Y-84044285D01*
X120472142Y-84044285D01*
X121115000Y-84794285D02*
X121115000Y-84044285D01*
X121972142Y-84794285D01*
X121972142Y-84044285D01*
X123472142Y-84080000D02*
X123329285Y-84044285D01*
X123115000Y-84044285D01*
X122900714Y-84080000D01*
X122757857Y-84151428D01*
X122686428Y-84222857D01*
X122615000Y-84365714D01*
X122615000Y-84472857D01*
X122686428Y-84615714D01*
X122757857Y-84687142D01*
X122900714Y-84758571D01*
X123115000Y-84794285D01*
X123257857Y-84794285D01*
X123472142Y-84758571D01*
X123543571Y-84722857D01*
X123543571Y-84472857D01*
X123257857Y-84472857D01*
X124186428Y-84794285D02*
X124186428Y-84044285D01*
X124186428Y-84401428D02*
X125043571Y-84401428D01*
X125043571Y-84794285D02*
X125043571Y-84044285D01*
X125757857Y-84794285D02*
X125757857Y-84044285D01*
X127257857Y-84080000D02*
X127115000Y-84044285D01*
X126900714Y-84044285D01*
X126686428Y-84080000D01*
X126543571Y-84151428D01*
X126472142Y-84222857D01*
X126400714Y-84365714D01*
X126400714Y-84472857D01*
X126472142Y-84615714D01*
X126543571Y-84687142D01*
X126686428Y-84758571D01*
X126900714Y-84794285D01*
X127043571Y-84794285D01*
X127257857Y-84758571D01*
X127329285Y-84722857D01*
X127329285Y-84472857D01*
X127043571Y-84472857D01*
X127972142Y-84794285D02*
X127972142Y-84044285D01*
X127972142Y-84401428D02*
X128829285Y-84401428D01*
X128829285Y-84794285D02*
X128829285Y-84044285D01*
X129543571Y-84794285D02*
X129543571Y-84044285D01*
X130400714Y-84794285D01*
X130400714Y-84044285D01*
X131115000Y-84401428D02*
X131615000Y-84401428D01*
X131829285Y-84794285D02*
X131115000Y-84794285D01*
X131115000Y-84044285D01*
X131829285Y-84044285D01*
X132472142Y-84401428D02*
X132972142Y-84401428D01*
X133186428Y-84794285D02*
X132472142Y-84794285D01*
X132472142Y-84044285D01*
X133186428Y-84044285D01*
X134686428Y-84794285D02*
X134186428Y-84437142D01*
X133829285Y-84794285D02*
X133829285Y-84044285D01*
X134400714Y-84044285D01*
X134543571Y-84080000D01*
X134615000Y-84115714D01*
X134686428Y-84187142D01*
X134686428Y-84294285D01*
X134615000Y-84365714D01*
X134543571Y-84401428D01*
X134400714Y-84437142D01*
X133829285Y-84437142D01*
X135329285Y-84794285D02*
X135329285Y-84044285D01*
X136043571Y-84794285D02*
X136043571Y-84044285D01*
X136900714Y-84794285D01*
X136900714Y-84044285D01*
X138400714Y-84080000D02*
X138257857Y-84044285D01*
X138043571Y-84044285D01*
X137829285Y-84080000D01*
X137686428Y-84151428D01*
X137615000Y-84222857D01*
X137543571Y-84365714D01*
X137543571Y-84472857D01*
X137615000Y-84615714D01*
X137686428Y-84687142D01*
X137829285Y-84758571D01*
X138043571Y-84794285D01*
X138186428Y-84794285D01*
X138400714Y-84758571D01*
X138472142Y-84722857D01*
X138472142Y-84472857D01*
X138186428Y-84472857D01*
D12*
X139700000Y-111760000D03*
X137160000Y-111760000D03*
X134620000Y-111760000D03*
X132080000Y-111760000D03*
X129540000Y-111760000D03*
X139700000Y-119380000D03*
X137160000Y-119380000D03*
X134620000Y-119380000D03*
X132080000Y-119380000D03*
X129540000Y-119380000D03*
D13*
X179705000Y-55880000D03*
X182245000Y-55880000D03*
X184785000Y-55880000D03*
X187325000Y-55880000D03*
X187325000Y-63500000D03*
X184785000Y-63500000D03*
X182245000Y-63500000D03*
X179705000Y-63500000D03*
X113347500Y-120650000D03*
X115887500Y-120650000D03*
X118427500Y-120650000D03*
X120967500Y-120650000D03*
X120967500Y-128270000D03*
X118427500Y-128270000D03*
X115887500Y-128270000D03*
X113347500Y-128270000D03*
X135890000Y-55880000D03*
X138430000Y-55880000D03*
X140970000Y-55880000D03*
X143510000Y-55880000D03*
X143510000Y-63500000D03*
X140970000Y-63500000D03*
X138430000Y-63500000D03*
X135890000Y-63500000D03*
X146050000Y-102870000D03*
X148590000Y-102870000D03*
X151130000Y-102870000D03*
X153670000Y-102870000D03*
X153670000Y-110490000D03*
X151130000Y-110490000D03*
X148590000Y-110490000D03*
X146050000Y-110490000D03*
X115570000Y-101600000D03*
X118110000Y-101600000D03*
X120650000Y-101600000D03*
X123190000Y-101600000D03*
X123190000Y-109220000D03*
X120650000Y-109220000D03*
X118110000Y-109220000D03*
X115570000Y-109220000D03*
D14*
X195897500Y-124460000D03*
X185102500Y-124460000D03*
D13*
X186690000Y-120650000D03*
X189230000Y-120650000D03*
X191770000Y-120650000D03*
X194310000Y-120650000D03*
X194310000Y-128270000D03*
X191770000Y-128270000D03*
X189230000Y-128270000D03*
X186690000Y-128270000D03*
D12*
X182880000Y-102552500D03*
X193040000Y-102552500D03*
X193040000Y-100012500D03*
X182880000Y-100012500D03*
X178435000Y-133350000D03*
X178435000Y-143510000D03*
X180975000Y-143510000D03*
X180975000Y-133350000D03*
X185420000Y-104775000D03*
X185420000Y-114935000D03*
X186690000Y-117475000D03*
X196850000Y-117475000D03*
X187960000Y-114935000D03*
X187960000Y-104775000D03*
X183515000Y-133350000D03*
X183515000Y-143510000D03*
X183515000Y-119380000D03*
X183515000Y-129540000D03*
D13*
X194945000Y-56515000D03*
X194945000Y-46355000D03*
X190500000Y-114935000D03*
X190500000Y-104775000D03*
X108267500Y-142240000D03*
X108267500Y-132080000D03*
X96520000Y-99060000D03*
X96520000Y-88900000D03*
X180340000Y-110490000D03*
X180340000Y-100330000D03*
X163195000Y-142240000D03*
X163195000Y-132080000D03*
X192405000Y-60960000D03*
X192405000Y-50800000D03*
X125730000Y-142240000D03*
X125730000Y-132080000D03*
X113347500Y-142240000D03*
X113347500Y-132080000D03*
X123190000Y-142240000D03*
X123190000Y-132080000D03*
X115887500Y-142240000D03*
X115887500Y-132080000D03*
X119380000Y-142240000D03*
X119380000Y-132080000D03*
X139382500Y-142240000D03*
X139382500Y-132080000D03*
X141922500Y-142240000D03*
X141922500Y-132080000D03*
X166370000Y-81280000D03*
X166370000Y-71120000D03*
X171450000Y-81280000D03*
X171450000Y-71120000D03*
X168910000Y-81280000D03*
X168910000Y-71120000D03*
X177165000Y-64770000D03*
X177165000Y-54610000D03*
X174625000Y-64770000D03*
X174625000Y-54610000D03*
X105727500Y-142240000D03*
X105727500Y-132080000D03*
X110172500Y-127000000D03*
X110172500Y-116840000D03*
X99695000Y-113030000D03*
X99695000Y-102870000D03*
X97155000Y-113030000D03*
X97155000Y-102870000D03*
X103505000Y-115570000D03*
X103505000Y-105410000D03*
X107315000Y-115570000D03*
X107315000Y-105410000D03*
X165735000Y-99060000D03*
X165735000Y-88900000D03*
X153987500Y-64770000D03*
X153987500Y-54610000D03*
X151447500Y-64770000D03*
X151447500Y-54610000D03*
X163195000Y-99060000D03*
X163195000Y-88900000D03*
X146685000Y-64770000D03*
X146685000Y-54610000D03*
X156210000Y-99060000D03*
X156210000Y-88900000D03*
X153035000Y-99060000D03*
X153035000Y-88900000D03*
X146050000Y-99060000D03*
X146050000Y-88900000D03*
X142240000Y-99060000D03*
X142240000Y-88900000D03*
X135890000Y-99060000D03*
X135890000Y-88900000D03*
X138430000Y-99060000D03*
X138430000Y-88900000D03*
X128270000Y-99060000D03*
X128270000Y-88900000D03*
X125730000Y-99060000D03*
X125730000Y-88900000D03*
X118745000Y-99060000D03*
X118745000Y-88900000D03*
X114300000Y-99060000D03*
X114300000Y-88900000D03*
X100330000Y-99060000D03*
X100330000Y-88900000D03*
X109156500Y-99060000D03*
X109156500Y-88900000D03*
X106045000Y-99060000D03*
X106045000Y-88900000D03*
X123825000Y-77470000D03*
X123825000Y-67310000D03*
X126365000Y-79375000D03*
X126365000Y-69215000D03*
X118427500Y-64770000D03*
X118427500Y-54610000D03*
X115887500Y-64770000D03*
X115887500Y-54610000D03*
X113347500Y-64770000D03*
X113347500Y-54610000D03*
X103505000Y-65087500D03*
X103505000Y-54927500D03*
X100965000Y-65087500D03*
X100965000Y-54927500D03*
X182880000Y-114935000D03*
X182880000Y-104775000D03*
X158115000Y-142240000D03*
X158115000Y-132080000D03*
X123825000Y-55880000D03*
X126365000Y-55880000D03*
X128905000Y-55880000D03*
X131445000Y-55880000D03*
X131445000Y-63500000D03*
X128905000Y-63500000D03*
X126365000Y-63500000D03*
X123825000Y-63500000D03*
D15*
X200342500Y-67310000D03*
D16*
X202742500Y-67310000D03*
X202039556Y-69007056D03*
X200342500Y-69710000D03*
X198645444Y-69007056D03*
X197942500Y-67310000D03*
X198645444Y-65612944D03*
X200342500Y-64910000D03*
X202039556Y-65612944D03*
D15*
X200342500Y-126365000D03*
D16*
X202742500Y-126365000D03*
X202039556Y-128062056D03*
X200342500Y-128765000D03*
X198645444Y-128062056D03*
X197942500Y-126365000D03*
X198645444Y-124667944D03*
X200342500Y-123965000D03*
X202039556Y-124667944D03*
D15*
X94932500Y-67310000D03*
D16*
X97332500Y-67310000D03*
X96629556Y-69007056D03*
X94932500Y-69710000D03*
X93235444Y-69007056D03*
X92532500Y-67310000D03*
X93235444Y-65612944D03*
X94932500Y-64910000D03*
X96629556Y-65612944D03*
D15*
X94932500Y-126365000D03*
D16*
X97332500Y-126365000D03*
X96629556Y-128062056D03*
X94932500Y-128765000D03*
X93235444Y-128062056D03*
X92532500Y-126365000D03*
X93235444Y-124667944D03*
X94932500Y-123965000D03*
X96629556Y-124667944D03*
D14*
X202247500Y-104140000D03*
X199707500Y-104140000D03*
X95567500Y-104140000D03*
X93027500Y-104140000D03*
D17*
X195262500Y-113665000D03*
D18*
X195262500Y-111442500D03*
X195262500Y-115887500D03*
D12*
X193040000Y-114935000D03*
X193040000Y-112395000D03*
D14*
X202247500Y-82867500D03*
X199707500Y-82867500D03*
X95567500Y-82867500D03*
X93027500Y-82867500D03*
D18*
X191135000Y-46037500D03*
X191135000Y-48577500D03*
X162877500Y-45720000D03*
X162877500Y-48260000D03*
X132397500Y-45720000D03*
X132397500Y-48260000D03*
X104140000Y-46037500D03*
X104140000Y-48577500D03*
D14*
X202247500Y-109855000D03*
X199707500Y-109855000D03*
D12*
X200977500Y-112077500D03*
G36*
G01*
X200341579Y-121282402D02*
X199634472Y-121989508D01*
G75*
G02*
X198855524Y-121989508I-389474J389474D01*
G01*
X198855524Y-121989508D01*
G75*
G02*
X198855524Y-121210560I389474J389474D01*
G01*
X199562630Y-120503454D01*
G75*
G02*
X200341578Y-120503454I389474J-389474D01*
G01*
X200341578Y-120503454D01*
G75*
G02*
X200341578Y-121282402I-389474J-389474D01*
G01*
G37*
G36*
G01*
X198545528Y-119486351D02*
X197838421Y-120193457D01*
G75*
G02*
X197059473Y-120193457I-389474J389474D01*
G01*
X197059473Y-120193457D01*
G75*
G02*
X197059473Y-119414509I389474J389474D01*
G01*
X197766579Y-118707403D01*
G75*
G02*
X198545527Y-118707403I389474J-389474D01*
G01*
X198545527Y-118707403D01*
G75*
G02*
X198545527Y-119486351I-389474J-389474D01*
G01*
G37*
X197128981Y-121920000D03*
D18*
X100012500Y-84455000D03*
X100012500Y-86995000D03*
D19*
X102640000Y-85725000D03*
D12*
X105140000Y-85725000D03*
D14*
X103187500Y-136842500D03*
X100647500Y-136842500D03*
D19*
X101917500Y-139470000D03*
D12*
X101917500Y-141970000D03*
G36*
G01*
X96440363Y-117995363D02*
X97147469Y-118702470D01*
G75*
G02*
X97147469Y-119481418I-389474J-389474D01*
G01*
X97147469Y-119481418D01*
G75*
G02*
X96368521Y-119481418I-389474J389474D01*
G01*
X95661415Y-118774312D01*
G75*
G02*
X95661415Y-117995364I389474J389474D01*
G01*
X95661415Y-117995364D01*
G75*
G02*
X96440363Y-117995364I389474J-389474D01*
G01*
G37*
G36*
G01*
X94644312Y-119791414D02*
X95351418Y-120498521D01*
G75*
G02*
X95351418Y-121277469I-389474J-389474D01*
G01*
X95351418Y-121277469D01*
G75*
G02*
X94572470Y-121277469I-389474J389474D01*
G01*
X93865364Y-120570363D01*
G75*
G02*
X93865364Y-119791415I389474J389474D01*
G01*
X93865364Y-119791415D01*
G75*
G02*
X94644312Y-119791415I389474J-389474D01*
G01*
G37*
D19*
X97364340Y-121494340D03*
D12*
X99132107Y-123262107D03*
G36*
G01*
X99615363Y-114820363D02*
X100322469Y-115527470D01*
G75*
G02*
X100322469Y-116306418I-389474J-389474D01*
G01*
X100322469Y-116306418D01*
G75*
G02*
X99543521Y-116306418I-389474J389474D01*
G01*
X98836415Y-115599312D01*
G75*
G02*
X98836415Y-114820364I389474J389474D01*
G01*
X98836415Y-114820364D01*
G75*
G02*
X99615363Y-114820364I389474J-389474D01*
G01*
G37*
G36*
G01*
X97819312Y-116616414D02*
X98526418Y-117323521D01*
G75*
G02*
X98526418Y-118102469I-389474J-389474D01*
G01*
X98526418Y-118102469D01*
G75*
G02*
X97747470Y-118102469I-389474J389474D01*
G01*
X97040364Y-117395363D01*
G75*
G02*
X97040364Y-116616415I389474J389474D01*
G01*
X97040364Y-116616415D01*
G75*
G02*
X97819312Y-116616415I389474J-389474D01*
G01*
G37*
D19*
X100539340Y-118319340D03*
D12*
X102307107Y-120087107D03*
D14*
X95567500Y-56197500D03*
X93027500Y-56197500D03*
D19*
X94297500Y-58825000D03*
D12*
X94297500Y-61325000D03*
D13*
X177800000Y-110490000D03*
X177800000Y-100330000D03*
D20*
X177800000Y-110490000D03*
X177800000Y-100330000D03*
D13*
X166370000Y-119380000D03*
X156210000Y-119380000D03*
D20*
X166370000Y-119380000D03*
X156210000Y-119380000D03*
D13*
X174625000Y-120650000D03*
X174625000Y-110490000D03*
D20*
X174625000Y-120650000D03*
X174625000Y-110490000D03*
D13*
X166370000Y-115570000D03*
X156210000Y-115570000D03*
D20*
X166370000Y-115570000D03*
X156210000Y-115570000D03*
D13*
X147002500Y-117475000D03*
X147002500Y-127635000D03*
D20*
X147002500Y-117475000D03*
X147002500Y-127635000D03*
D13*
X123190000Y-129540000D03*
X123190000Y-119380000D03*
D20*
X123190000Y-129540000D03*
X123190000Y-119380000D03*
D13*
X180340000Y-84137500D03*
X170180000Y-84137500D03*
D20*
X180340000Y-84137500D03*
X170180000Y-84137500D03*
D13*
X166687500Y-84137500D03*
X156527500Y-84137500D03*
D20*
X166687500Y-84137500D03*
X156527500Y-84137500D03*
D13*
X130810000Y-67310000D03*
X140970000Y-67310000D03*
D20*
X130810000Y-67310000D03*
X140970000Y-67310000D03*
D13*
X177165000Y-127635000D03*
X177165000Y-117475000D03*
D20*
X177165000Y-127635000D03*
X177165000Y-117475000D03*
D13*
X156210000Y-111760000D03*
X166370000Y-111760000D03*
D20*
X156210000Y-111760000D03*
X166370000Y-111760000D03*
D13*
X139700000Y-102870000D03*
X129540000Y-102870000D03*
D20*
X139700000Y-102870000D03*
X129540000Y-102870000D03*
D13*
X113030000Y-118110000D03*
X113030000Y-107950000D03*
D20*
X113030000Y-118110000D03*
X113030000Y-107950000D03*
D13*
X169545000Y-67945000D03*
X179705000Y-67945000D03*
D20*
X169545000Y-67945000D03*
X179705000Y-67945000D03*
D13*
X153035000Y-52070000D03*
X163195000Y-52070000D03*
D20*
X153035000Y-52070000D03*
X163195000Y-52070000D03*
D13*
X125095000Y-52705000D03*
X135255000Y-52705000D03*
D20*
X125095000Y-52705000D03*
X135255000Y-52705000D03*
D13*
X130810000Y-137160000D03*
X133350000Y-139700000D03*
X135890000Y-137160000D03*
X168275000Y-59690000D03*
X165735000Y-57150000D03*
X163195000Y-59690000D03*
X180340000Y-114300000D03*
X180340000Y-124460000D03*
X160655000Y-142240000D03*
X160655000Y-132080000D03*
X110807500Y-142240000D03*
X110807500Y-132080000D03*
X189865000Y-67310000D03*
X189865000Y-57150000D03*
D21*
X191135000Y-76200000D03*
D22*
X175135000Y-81200000D03*
X175135000Y-76200000D03*
X175135000Y-71200000D03*
D21*
X147637500Y-76200000D03*
D22*
X163637500Y-71200000D03*
X163637500Y-76200000D03*
X163637500Y-81200000D03*
D21*
X104140000Y-76200000D03*
D22*
X120140000Y-71200000D03*
X120140000Y-76200000D03*
X120140000Y-81200000D03*
D23*
X169275000Y-106680000D03*
X167275000Y-106680000D03*
X159385000Y-126000000D03*
X159385000Y-128000000D03*
D13*
X170815000Y-119975000D03*
X170815000Y-114975000D03*
X149860000Y-139620000D03*
X149860000Y-134620000D03*
D18*
X175895000Y-88265000D03*
X175895000Y-96520000D03*
D13*
X191135000Y-89892500D03*
X191135000Y-94892500D03*
D14*
X173672500Y-128270000D03*
X165417500Y-128270000D03*
D13*
X172045000Y-143510000D03*
X167045000Y-143510000D03*
X106362500Y-124420000D03*
X106362500Y-119420000D03*
X106997500Y-62190000D03*
X106997500Y-57190000D03*
D23*
X195897500Y-93642500D03*
X195897500Y-91142500D03*
X195897500Y-108247500D03*
X195897500Y-105747500D03*
X179705000Y-128540000D03*
X179705000Y-130540000D03*
X194040000Y-132397500D03*
X192040000Y-132397500D03*
X188960000Y-132397500D03*
X186960000Y-132397500D03*
X191750000Y-138747500D03*
X189250000Y-138747500D03*
X107362500Y-128270000D03*
X105362500Y-128270000D03*
X106997500Y-64972500D03*
X106997500Y-66472500D03*
D13*
X174625000Y-102870000D03*
X174625000Y-105410000D03*
X174625000Y-107950000D03*
X154305000Y-139700000D03*
X154305000Y-137160000D03*
X154305000Y-134620000D03*
X127000000Y-128270000D03*
X129540000Y-128270000D03*
X132080000Y-128270000D03*
X194945000Y-65047500D03*
X194945000Y-60047500D03*
X171450000Y-62190000D03*
X171450000Y-57190000D03*
X160337500Y-57190000D03*
X160337500Y-62190000D03*
X156845000Y-62190000D03*
X156845000Y-57190000D03*
X160020000Y-96480000D03*
X160020000Y-91480000D03*
X149860000Y-96480000D03*
X149860000Y-91480000D03*
X132080000Y-96480000D03*
X132080000Y-91480000D03*
X122237500Y-96480000D03*
X122237500Y-91480000D03*
X103187500Y-96480000D03*
X103187500Y-91480000D03*
X129540000Y-76755000D03*
X129540000Y-71755000D03*
X120967500Y-62190000D03*
X120967500Y-57190000D03*
X110807500Y-57190000D03*
X110807500Y-62190000D03*
X97790000Y-62507500D03*
X97790000Y-57507500D03*
M02*
