G04 #@! TF.GenerationSoftware,KiCad,Pcbnew,(5.99.0-1636-g5c7ebb4f2)*
G04 #@! TF.CreationDate,2020-05-11T19:52:23+02:00*
G04 #@! TF.ProjectId,#110-000-S1A - Phasor PCB,23313130-2d30-4303-902d-533141202d20,rev?*
G04 #@! TF.SameCoordinates,Original*
G04 #@! TF.FileFunction,Soldermask,Bot*
G04 #@! TF.FilePolarity,Negative*
%FSLAX46Y46*%
G04 Gerber Fmt 4.6, Leading zero omitted, Abs format (unit mm)*
G04 Created by KiCad (PCBNEW (5.99.0-1636-g5c7ebb4f2)) date 2020-05-11 19:52:23*
%MOMM*%
%LPD*%
G01*
G04 APERTURE LIST*
%ADD10C,0.140000*%
%ADD11C,0.150000*%
%ADD12C,0.152400*%
%ADD13O,1.701600X2.501600*%
%ADD14O,1.101600X2.101600*%
%ADD15C,2.101600*%
%ADD16C,0.800000*%
%ADD17C,1.701600*%
%ADD18C,6.501600*%
%ADD19C,0.901600*%
%ADD20O,2.101600X1.101600*%
%ADD21C,1.901600*%
%ADD22C,2.601600*%
%ADD23C,3.101600*%
%ADD24C,1.101600*%
%ADD25C,2.801600*%
%ADD26C,1.800000*%
%ADD27C,1.400000*%
%ADD28O,2.501600X1.701600*%
G04 APERTURE END LIST*
D10*
X196578571Y-115653642D02*
X197178571Y-115653642D01*
X197178571Y-115425071D01*
X197150000Y-115367928D01*
X197121428Y-115339357D01*
X197064285Y-115310785D01*
X196978571Y-115310785D01*
X196921428Y-115339357D01*
X196892857Y-115367928D01*
X196864285Y-115425071D01*
X196864285Y-115653642D01*
X197178571Y-115110785D02*
X196578571Y-114967928D01*
X197007142Y-114853642D01*
X196578571Y-114739357D01*
X197178571Y-114596500D01*
X196578571Y-114025071D02*
X196864285Y-114225071D01*
X196578571Y-114367928D02*
X197178571Y-114367928D01*
X197178571Y-114139357D01*
X197150000Y-114082214D01*
X197121428Y-114053642D01*
X197064285Y-114025071D01*
X196978571Y-114025071D01*
X196921428Y-114053642D01*
X196892857Y-114082214D01*
X196864285Y-114139357D01*
X196864285Y-114367928D01*
X196578571Y-113025071D02*
X196578571Y-113310785D01*
X197178571Y-113310785D01*
X196892857Y-112825071D02*
X196892857Y-112625071D01*
X196578571Y-112539357D02*
X196578571Y-112825071D01*
X197178571Y-112825071D01*
X197178571Y-112539357D01*
X196578571Y-112282214D02*
X197178571Y-112282214D01*
X197178571Y-112139357D01*
X197150000Y-112053642D01*
X197092857Y-111996500D01*
X197035714Y-111967928D01*
X196921428Y-111939357D01*
X196835714Y-111939357D01*
X196721428Y-111967928D01*
X196664285Y-111996500D01*
X196607142Y-112053642D01*
X196578571Y-112139357D01*
X196578571Y-112282214D01*
X201020357Y-110256142D02*
X201020357Y-110056142D01*
X200706071Y-109970428D02*
X200706071Y-110256142D01*
X201306071Y-110256142D01*
X201306071Y-109970428D01*
X201248928Y-109741857D02*
X201277500Y-109713285D01*
X201306071Y-109656142D01*
X201306071Y-109513285D01*
X201277500Y-109456142D01*
X201248928Y-109427571D01*
X201191785Y-109399000D01*
X201134642Y-109399000D01*
X201048928Y-109427571D01*
X200706071Y-109770428D01*
X200706071Y-109399000D01*
X198876833Y-120150057D02*
X198735412Y-120291478D01*
X198897036Y-120574321D02*
X199099067Y-120372290D01*
X198674802Y-119948026D01*
X198472772Y-120150057D01*
X198210132Y-120412697D02*
X198169726Y-120453103D01*
X198149523Y-120513712D01*
X198149523Y-120554118D01*
X198169726Y-120614727D01*
X198230335Y-120715742D01*
X198331351Y-120816758D01*
X198432366Y-120877367D01*
X198492975Y-120897570D01*
X198533381Y-120897570D01*
X198593990Y-120877367D01*
X198634396Y-120836961D01*
X198654599Y-120776351D01*
X198654599Y-120735945D01*
X198634396Y-120675336D01*
X198573787Y-120574321D01*
X198472772Y-120473306D01*
X198371757Y-120412697D01*
X198311148Y-120392494D01*
X198270741Y-120392494D01*
X198210132Y-120412697D01*
X101960357Y-137243642D02*
X101960357Y-137043642D01*
X101646071Y-136957928D02*
X101646071Y-137243642D01*
X102246071Y-137243642D01*
X102246071Y-136957928D01*
X102246071Y-136443642D02*
X102246071Y-136557928D01*
X102217500Y-136615071D01*
X102188928Y-136643642D01*
X102103214Y-136700785D01*
X101988928Y-136729357D01*
X101760357Y-136729357D01*
X101703214Y-136700785D01*
X101674642Y-136672214D01*
X101646071Y-136615071D01*
X101646071Y-136500785D01*
X101674642Y-136443642D01*
X101703214Y-136415071D01*
X101760357Y-136386500D01*
X101903214Y-136386500D01*
X101960357Y-136415071D01*
X101988928Y-136443642D01*
X102017500Y-136500785D01*
X102017500Y-136615071D01*
X101988928Y-136672214D01*
X101960357Y-136700785D01*
X101903214Y-136729357D01*
X95749942Y-119819333D02*
X95608521Y-119677912D01*
X95325678Y-119839536D02*
X95527709Y-120041567D01*
X95951973Y-119617302D01*
X95749942Y-119415272D01*
X95366084Y-119031414D02*
X95568115Y-119233444D01*
X95386287Y-119455678D01*
X95386287Y-119415272D01*
X95366084Y-119354663D01*
X95265069Y-119253648D01*
X95204460Y-119233444D01*
X95164054Y-119233444D01*
X95103444Y-119253648D01*
X95002429Y-119354663D01*
X94982226Y-119415272D01*
X94982226Y-119455678D01*
X95002429Y-119516287D01*
X95103444Y-119617302D01*
X95164054Y-119637505D01*
X95204460Y-119637505D01*
X98924942Y-116644333D02*
X98783521Y-116502912D01*
X98500678Y-116664536D02*
X98702709Y-116866567D01*
X99126973Y-116442302D01*
X98924942Y-116240272D01*
X98419866Y-116018038D02*
X98137023Y-116300881D01*
X98682505Y-115957429D02*
X98480475Y-116361490D01*
X98217835Y-116098851D01*
X100413642Y-85682142D02*
X100213642Y-85682142D01*
X100127928Y-85996428D02*
X100413642Y-85996428D01*
X100413642Y-85396428D01*
X100127928Y-85396428D01*
X99927928Y-85396428D02*
X99556500Y-85396428D01*
X99756500Y-85625000D01*
X99670785Y-85625000D01*
X99613642Y-85653571D01*
X99585071Y-85682142D01*
X99556500Y-85739285D01*
X99556500Y-85882142D01*
X99585071Y-85939285D01*
X99613642Y-85967857D01*
X99670785Y-85996428D01*
X99842214Y-85996428D01*
X99899357Y-85967857D01*
X99927928Y-85939285D01*
X94340357Y-56598642D02*
X94340357Y-56398642D01*
X94026071Y-56312928D02*
X94026071Y-56598642D01*
X94626071Y-56598642D01*
X94626071Y-56312928D01*
X94026071Y-55741500D02*
X94026071Y-56084357D01*
X94026071Y-55912928D02*
X94626071Y-55912928D01*
X94540357Y-55970071D01*
X94483214Y-56027214D01*
X94454642Y-56084357D01*
D11*
X157137500Y-145150535D02*
X157137500Y-144400535D01*
X156566071Y-144400535D01*
X156423214Y-144436250D01*
X156351785Y-144471964D01*
X156280357Y-144543392D01*
X156280357Y-144650535D01*
X156351785Y-144721964D01*
X156423214Y-144757678D01*
X156566071Y-144793392D01*
X157137500Y-144793392D01*
X155637500Y-144400535D02*
X155637500Y-145007678D01*
X155566071Y-145079107D01*
X155494642Y-145114821D01*
X155351785Y-145150535D01*
X155066071Y-145150535D01*
X154923214Y-145114821D01*
X154851785Y-145079107D01*
X154780357Y-145007678D01*
X154780357Y-144400535D01*
X153208928Y-145150535D02*
X153708928Y-144793392D01*
X154066071Y-145150535D02*
X154066071Y-144400535D01*
X153494642Y-144400535D01*
X153351785Y-144436250D01*
X153280357Y-144471964D01*
X153208928Y-144543392D01*
X153208928Y-144650535D01*
X153280357Y-144721964D01*
X153351785Y-144757678D01*
X153494642Y-144793392D01*
X154066071Y-144793392D01*
X152566071Y-145150535D02*
X152566071Y-144400535D01*
X151994642Y-144400535D01*
X151851785Y-144436250D01*
X151780357Y-144471964D01*
X151708928Y-144543392D01*
X151708928Y-144650535D01*
X151780357Y-144721964D01*
X151851785Y-144757678D01*
X151994642Y-144793392D01*
X152566071Y-144793392D01*
X150351785Y-145150535D02*
X151066071Y-145150535D01*
X151066071Y-144400535D01*
X149851785Y-144757678D02*
X149351785Y-144757678D01*
X149137500Y-145150535D02*
X149851785Y-145150535D01*
X149851785Y-144400535D01*
X149137500Y-144400535D01*
X147351785Y-145150535D02*
X147351785Y-144400535D01*
X147351785Y-144757678D02*
X146494642Y-144757678D01*
X146494642Y-145150535D02*
X146494642Y-144400535D01*
X145851785Y-144936250D02*
X145137500Y-144936250D01*
X145994642Y-145150535D02*
X145494642Y-144400535D01*
X144994642Y-145150535D01*
X144637500Y-144400535D02*
X143637500Y-144400535D01*
X144637500Y-145150535D01*
X143637500Y-145150535D01*
X142780357Y-144400535D02*
X142494642Y-144400535D01*
X142351785Y-144436250D01*
X142208928Y-144507678D01*
X142137500Y-144650535D01*
X142137500Y-144900535D01*
X142208928Y-145043392D01*
X142351785Y-145114821D01*
X142494642Y-145150535D01*
X142780357Y-145150535D01*
X142923214Y-145114821D01*
X143066071Y-145043392D01*
X143137500Y-144900535D01*
X143137500Y-144650535D01*
X143066071Y-144507678D01*
X142923214Y-144436250D01*
X142780357Y-144400535D01*
X140637500Y-145150535D02*
X141137500Y-144793392D01*
X141494642Y-145150535D02*
X141494642Y-144400535D01*
X140923214Y-144400535D01*
X140780357Y-144436250D01*
X140708928Y-144471964D01*
X140637500Y-144543392D01*
X140637500Y-144650535D01*
X140708928Y-144721964D01*
X140780357Y-144757678D01*
X140923214Y-144793392D01*
X141494642Y-144793392D01*
X138851785Y-145150535D02*
X138851785Y-144400535D01*
X138137500Y-145150535D02*
X138137500Y-144400535D01*
X159030357Y-145858035D02*
X159030357Y-146358035D01*
X159387500Y-145572321D02*
X159744642Y-146108035D01*
X158816071Y-146108035D01*
X158316071Y-145679464D02*
X158244642Y-145643750D01*
X158101785Y-145608035D01*
X157744642Y-145608035D01*
X157601785Y-145643750D01*
X157530357Y-145679464D01*
X157458928Y-145750892D01*
X157458928Y-145822321D01*
X157530357Y-145929464D01*
X158387500Y-146358035D01*
X157458928Y-146358035D01*
X156530357Y-145608035D02*
X156387500Y-145608035D01*
X156244642Y-145643750D01*
X156173214Y-145679464D01*
X156101785Y-145750892D01*
X156030357Y-145893750D01*
X156030357Y-146072321D01*
X156101785Y-146215178D01*
X156173214Y-146286607D01*
X156244642Y-146322321D01*
X156387500Y-146358035D01*
X156530357Y-146358035D01*
X156673214Y-146322321D01*
X156744642Y-146286607D01*
X156816071Y-146215178D01*
X156887500Y-146072321D01*
X156887500Y-145893750D01*
X156816071Y-145750892D01*
X156744642Y-145679464D01*
X156673214Y-145643750D01*
X156530357Y-145608035D01*
X154244642Y-145965178D02*
X153744642Y-145965178D01*
X153530357Y-146358035D02*
X154244642Y-146358035D01*
X154244642Y-145608035D01*
X153530357Y-145608035D01*
X152887500Y-146358035D02*
X152887500Y-145608035D01*
X152030357Y-146358035D01*
X152030357Y-145608035D01*
X150530357Y-145643750D02*
X150673214Y-145608035D01*
X150887500Y-145608035D01*
X151101785Y-145643750D01*
X151244642Y-145715178D01*
X151316071Y-145786607D01*
X151387500Y-145929464D01*
X151387500Y-146036607D01*
X151316071Y-146179464D01*
X151244642Y-146250892D01*
X151101785Y-146322321D01*
X150887500Y-146358035D01*
X150744642Y-146358035D01*
X150530357Y-146322321D01*
X150458928Y-146286607D01*
X150458928Y-146036607D01*
X150744642Y-146036607D01*
X149816071Y-146358035D02*
X149816071Y-145608035D01*
X149816071Y-145965178D02*
X148958928Y-145965178D01*
X148958928Y-146358035D02*
X148958928Y-145608035D01*
X148244642Y-146358035D02*
X148244642Y-145608035D01*
X146744642Y-145643750D02*
X146887500Y-145608035D01*
X147101785Y-145608035D01*
X147316071Y-145643750D01*
X147458928Y-145715178D01*
X147530357Y-145786607D01*
X147601785Y-145929464D01*
X147601785Y-146036607D01*
X147530357Y-146179464D01*
X147458928Y-146250892D01*
X147316071Y-146322321D01*
X147101785Y-146358035D01*
X146958928Y-146358035D01*
X146744642Y-146322321D01*
X146673214Y-146286607D01*
X146673214Y-146036607D01*
X146958928Y-146036607D01*
X146030357Y-146358035D02*
X146030357Y-145608035D01*
X146030357Y-145965178D02*
X145173214Y-145965178D01*
X145173214Y-146358035D02*
X145173214Y-145608035D01*
X144458928Y-146358035D02*
X144458928Y-145608035D01*
X143601785Y-146358035D01*
X143601785Y-145608035D01*
X142887500Y-145965178D02*
X142387500Y-145965178D01*
X142173214Y-146358035D02*
X142887500Y-146358035D01*
X142887500Y-145608035D01*
X142173214Y-145608035D01*
X141530357Y-145965178D02*
X141030357Y-145965178D01*
X140816071Y-146358035D02*
X141530357Y-146358035D01*
X141530357Y-145608035D01*
X140816071Y-145608035D01*
X139316071Y-146358035D02*
X139816071Y-146000892D01*
X140173214Y-146358035D02*
X140173214Y-145608035D01*
X139601785Y-145608035D01*
X139458928Y-145643750D01*
X139387500Y-145679464D01*
X139316071Y-145750892D01*
X139316071Y-145858035D01*
X139387500Y-145929464D01*
X139458928Y-145965178D01*
X139601785Y-146000892D01*
X140173214Y-146000892D01*
X138673214Y-146358035D02*
X138673214Y-145608035D01*
X137958928Y-146358035D02*
X137958928Y-145608035D01*
X137101785Y-146358035D01*
X137101785Y-145608035D01*
X135601785Y-145643750D02*
X135744642Y-145608035D01*
X135958928Y-145608035D01*
X136173214Y-145643750D01*
X136316071Y-145715178D01*
X136387500Y-145786607D01*
X136458928Y-145929464D01*
X136458928Y-146036607D01*
X136387500Y-146179464D01*
X136316071Y-146250892D01*
X136173214Y-146322321D01*
X135958928Y-146358035D01*
X135816071Y-146358035D01*
X135601785Y-146322321D01*
X135530357Y-146286607D01*
X135530357Y-146036607D01*
X135816071Y-146036607D01*
D12*
X134375676Y-134174895D02*
X133911219Y-134174895D01*
X134143447Y-134987695D02*
X134143447Y-134174895D01*
X133640285Y-134987695D02*
X133640285Y-134174895D01*
X133330647Y-134174895D01*
X133253238Y-134213600D01*
X133214533Y-134252304D01*
X133175828Y-134329714D01*
X133175828Y-134445828D01*
X133214533Y-134523238D01*
X133253238Y-134561942D01*
X133330647Y-134600647D01*
X133640285Y-134600647D01*
X132479142Y-134445828D02*
X132479142Y-134987695D01*
X132672666Y-134136190D02*
X132866190Y-134716761D01*
X132363028Y-134716761D01*
X183588176Y-73214895D02*
X183123719Y-73214895D01*
X183355947Y-74027695D02*
X183355947Y-73214895D01*
X182852785Y-74027695D02*
X182852785Y-73214895D01*
X182543147Y-73214895D01*
X182465738Y-73253600D01*
X182427033Y-73292304D01*
X182388328Y-73369714D01*
X182388328Y-73485828D01*
X182427033Y-73563238D01*
X182465738Y-73601942D01*
X182543147Y-73640647D01*
X182852785Y-73640647D01*
X182117395Y-73214895D02*
X181614233Y-73214895D01*
X181885166Y-73524533D01*
X181769052Y-73524533D01*
X181691642Y-73563238D01*
X181652938Y-73601942D01*
X181614233Y-73679352D01*
X181614233Y-73872876D01*
X181652938Y-73950285D01*
X181691642Y-73988990D01*
X181769052Y-74027695D01*
X182001280Y-74027695D01*
X182078690Y-73988990D01*
X182117395Y-73950285D01*
X168665676Y-78294895D02*
X168201219Y-78294895D01*
X168433447Y-79107695D02*
X168433447Y-78294895D01*
X167930285Y-79107695D02*
X167930285Y-78294895D01*
X167620647Y-78294895D01*
X167543238Y-78333600D01*
X167504533Y-78372304D01*
X167465828Y-78449714D01*
X167465828Y-78565828D01*
X167504533Y-78643238D01*
X167543238Y-78681942D01*
X167620647Y-78720647D01*
X167930285Y-78720647D01*
X166730438Y-78294895D02*
X167117485Y-78294895D01*
X167156190Y-78681942D01*
X167117485Y-78643238D01*
X167040076Y-78604533D01*
X166846552Y-78604533D01*
X166769142Y-78643238D01*
X166730438Y-78681942D01*
X166691733Y-78759352D01*
X166691733Y-78952876D01*
X166730438Y-79030285D01*
X166769142Y-79068990D01*
X166846552Y-79107695D01*
X167040076Y-79107695D01*
X167117485Y-79068990D01*
X167156190Y-79030285D01*
X153743176Y-78294895D02*
X153278719Y-78294895D01*
X153510947Y-79107695D02*
X153510947Y-78294895D01*
X153007785Y-79107695D02*
X153007785Y-78294895D01*
X152698147Y-78294895D01*
X152620738Y-78333600D01*
X152582033Y-78372304D01*
X152543328Y-78449714D01*
X152543328Y-78565828D01*
X152582033Y-78643238D01*
X152620738Y-78681942D01*
X152698147Y-78720647D01*
X153007785Y-78720647D01*
X152233690Y-78372304D02*
X152194985Y-78333600D01*
X152117576Y-78294895D01*
X151924052Y-78294895D01*
X151846642Y-78333600D01*
X151807938Y-78372304D01*
X151769233Y-78449714D01*
X151769233Y-78527123D01*
X151807938Y-78643238D01*
X152272395Y-79107695D01*
X151769233Y-79107695D01*
X135645676Y-78294895D02*
X135181219Y-78294895D01*
X135413447Y-79107695D02*
X135413447Y-78294895D01*
X134910285Y-79107695D02*
X134910285Y-78294895D01*
X134600647Y-78294895D01*
X134523238Y-78333600D01*
X134484533Y-78372304D01*
X134445828Y-78449714D01*
X134445828Y-78565828D01*
X134484533Y-78643238D01*
X134523238Y-78681942D01*
X134600647Y-78720647D01*
X134910285Y-78720647D01*
X133671733Y-79107695D02*
X134136190Y-79107695D01*
X133903961Y-79107695D02*
X133903961Y-78294895D01*
X133981371Y-78411009D01*
X134058780Y-78488419D01*
X134136190Y-78527123D01*
D10*
X97848285Y-142180428D02*
X98048285Y-141894714D01*
X98191142Y-142180428D02*
X98191142Y-141580428D01*
X97962571Y-141580428D01*
X97905428Y-141609000D01*
X97876857Y-141637571D01*
X97848285Y-141694714D01*
X97848285Y-141780428D01*
X97876857Y-141837571D01*
X97905428Y-141866142D01*
X97962571Y-141894714D01*
X98191142Y-141894714D01*
X97591142Y-141866142D02*
X97391142Y-141866142D01*
X97305428Y-142180428D02*
X97591142Y-142180428D01*
X97591142Y-141580428D01*
X97305428Y-141580428D01*
X97134000Y-141580428D02*
X96934000Y-142180428D01*
X96734000Y-141580428D01*
X96534000Y-142180428D02*
X96534000Y-141580428D01*
X96276857Y-142151857D02*
X96191142Y-142180428D01*
X96048285Y-142180428D01*
X95991142Y-142151857D01*
X95962571Y-142123285D01*
X95934000Y-142066142D01*
X95934000Y-142009000D01*
X95962571Y-141951857D01*
X95991142Y-141923285D01*
X96048285Y-141894714D01*
X96162571Y-141866142D01*
X96219714Y-141837571D01*
X96248285Y-141809000D01*
X96276857Y-141751857D01*
X96276857Y-141694714D01*
X96248285Y-141637571D01*
X96219714Y-141609000D01*
X96162571Y-141580428D01*
X96019714Y-141580428D01*
X95934000Y-141609000D01*
X95676857Y-142180428D02*
X95676857Y-141580428D01*
X95276857Y-141580428D02*
X95162571Y-141580428D01*
X95105428Y-141609000D01*
X95048285Y-141666142D01*
X95019714Y-141780428D01*
X95019714Y-141980428D01*
X95048285Y-142094714D01*
X95105428Y-142151857D01*
X95162571Y-142180428D01*
X95276857Y-142180428D01*
X95334000Y-142151857D01*
X95391142Y-142094714D01*
X95419714Y-141980428D01*
X95419714Y-141780428D01*
X95391142Y-141666142D01*
X95334000Y-141609000D01*
X95276857Y-141580428D01*
X94762571Y-142180428D02*
X94762571Y-141580428D01*
X94419714Y-142180428D01*
X94419714Y-141580428D01*
X94134000Y-142123285D02*
X94105428Y-142151857D01*
X94134000Y-142180428D01*
X94162571Y-142151857D01*
X94134000Y-142123285D01*
X94134000Y-142180428D01*
X94134000Y-141809000D02*
X94105428Y-141837571D01*
X94134000Y-141866142D01*
X94162571Y-141837571D01*
X94134000Y-141809000D01*
X94134000Y-141866142D01*
X93419714Y-142009000D02*
X93134000Y-142009000D01*
X93476857Y-142180428D02*
X93276857Y-141580428D01*
X93076857Y-142180428D01*
X98219714Y-144083857D02*
X98134000Y-144112428D01*
X97991142Y-144112428D01*
X97934000Y-144083857D01*
X97905428Y-144055285D01*
X97876857Y-143998142D01*
X97876857Y-143941000D01*
X97905428Y-143883857D01*
X97934000Y-143855285D01*
X97991142Y-143826714D01*
X98105428Y-143798142D01*
X98162571Y-143769571D01*
X98191142Y-143741000D01*
X98219714Y-143683857D01*
X98219714Y-143626714D01*
X98191142Y-143569571D01*
X98162571Y-143541000D01*
X98105428Y-143512428D01*
X97962571Y-143512428D01*
X97876857Y-143541000D01*
X97191142Y-143483857D02*
X97705428Y-144255285D01*
X96991142Y-144112428D02*
X96991142Y-143512428D01*
X96648285Y-144112428D01*
X96648285Y-143512428D01*
X96362571Y-144055285D02*
X96334000Y-144083857D01*
X96362571Y-144112428D01*
X96391142Y-144083857D01*
X96362571Y-144055285D01*
X96362571Y-144112428D01*
X96362571Y-143741000D02*
X96334000Y-143769571D01*
X96362571Y-143798142D01*
X96391142Y-143769571D01*
X96362571Y-143741000D01*
X96362571Y-143798142D01*
X202994714Y-140712000D02*
X202709000Y-140712000D01*
X203051857Y-140883428D02*
X202851857Y-140283428D01*
X202651857Y-140883428D01*
X202480428Y-140854857D02*
X202394714Y-140883428D01*
X202251857Y-140883428D01*
X202194714Y-140854857D01*
X202166142Y-140826285D01*
X202137571Y-140769142D01*
X202137571Y-140712000D01*
X202166142Y-140654857D01*
X202194714Y-140626285D01*
X202251857Y-140597714D01*
X202366142Y-140569142D01*
X202423285Y-140540571D01*
X202451857Y-140512000D01*
X202480428Y-140454857D01*
X202480428Y-140397714D01*
X202451857Y-140340571D01*
X202423285Y-140312000D01*
X202366142Y-140283428D01*
X202223285Y-140283428D01*
X202137571Y-140312000D01*
X201909000Y-140854857D02*
X201823285Y-140883428D01*
X201680428Y-140883428D01*
X201623285Y-140854857D01*
X201594714Y-140826285D01*
X201566142Y-140769142D01*
X201566142Y-140712000D01*
X201594714Y-140654857D01*
X201623285Y-140626285D01*
X201680428Y-140597714D01*
X201794714Y-140569142D01*
X201851857Y-140540571D01*
X201880428Y-140512000D01*
X201909000Y-140454857D01*
X201909000Y-140397714D01*
X201880428Y-140340571D01*
X201851857Y-140312000D01*
X201794714Y-140283428D01*
X201651857Y-140283428D01*
X201566142Y-140312000D01*
X201309000Y-140569142D02*
X201109000Y-140569142D01*
X201023285Y-140883428D02*
X201309000Y-140883428D01*
X201309000Y-140283428D01*
X201023285Y-140283428D01*
X200766142Y-140883428D02*
X200766142Y-140283428D01*
X200566142Y-140712000D01*
X200366142Y-140283428D01*
X200366142Y-140883428D01*
X199880428Y-140569142D02*
X199794714Y-140597714D01*
X199766142Y-140626285D01*
X199737571Y-140683428D01*
X199737571Y-140769142D01*
X199766142Y-140826285D01*
X199794714Y-140854857D01*
X199851857Y-140883428D01*
X200080428Y-140883428D01*
X200080428Y-140283428D01*
X199880428Y-140283428D01*
X199823285Y-140312000D01*
X199794714Y-140340571D01*
X199766142Y-140397714D01*
X199766142Y-140454857D01*
X199794714Y-140512000D01*
X199823285Y-140540571D01*
X199880428Y-140569142D01*
X200080428Y-140569142D01*
X199194714Y-140883428D02*
X199480428Y-140883428D01*
X199480428Y-140283428D01*
X198880428Y-140597714D02*
X198880428Y-140883428D01*
X199080428Y-140283428D02*
X198880428Y-140597714D01*
X198680428Y-140283428D01*
X198480428Y-140826285D02*
X198451857Y-140854857D01*
X198480428Y-140883428D01*
X198509000Y-140854857D01*
X198480428Y-140826285D01*
X198480428Y-140883428D01*
X198480428Y-140512000D02*
X198451857Y-140540571D01*
X198480428Y-140569142D01*
X198509000Y-140540571D01*
X198480428Y-140512000D01*
X198480428Y-140569142D01*
X202994714Y-141449428D02*
X202566142Y-141449428D01*
X202823285Y-141192285D02*
X202994714Y-141963714D01*
X202623285Y-141706571D02*
X203051857Y-141706571D01*
X202794714Y-141963714D02*
X202623285Y-141192285D01*
X202109000Y-141449428D02*
X202109000Y-141849428D01*
X202251857Y-141220857D02*
X202394714Y-141649428D01*
X202023285Y-141649428D01*
X201823285Y-141306571D02*
X201794714Y-141278000D01*
X201737571Y-141249428D01*
X201594714Y-141249428D01*
X201537571Y-141278000D01*
X201509000Y-141306571D01*
X201480428Y-141363714D01*
X201480428Y-141420857D01*
X201509000Y-141506571D01*
X201851857Y-141849428D01*
X201480428Y-141849428D01*
X201109000Y-141249428D02*
X201051857Y-141249428D01*
X200994714Y-141278000D01*
X200966142Y-141306571D01*
X200937571Y-141363714D01*
X200909000Y-141478000D01*
X200909000Y-141620857D01*
X200937571Y-141735142D01*
X200966142Y-141792285D01*
X200994714Y-141820857D01*
X201051857Y-141849428D01*
X201109000Y-141849428D01*
X201166142Y-141820857D01*
X201194714Y-141792285D01*
X201223285Y-141735142D01*
X201251857Y-141620857D01*
X201251857Y-141478000D01*
X201223285Y-141363714D01*
X201194714Y-141306571D01*
X201166142Y-141278000D01*
X201109000Y-141249428D01*
X200651857Y-141620857D02*
X200194714Y-141620857D01*
X199794714Y-141249428D02*
X199737571Y-141249428D01*
X199680428Y-141278000D01*
X199651857Y-141306571D01*
X199623285Y-141363714D01*
X199594714Y-141478000D01*
X199594714Y-141620857D01*
X199623285Y-141735142D01*
X199651857Y-141792285D01*
X199680428Y-141820857D01*
X199737571Y-141849428D01*
X199794714Y-141849428D01*
X199851857Y-141820857D01*
X199880428Y-141792285D01*
X199909000Y-141735142D01*
X199937571Y-141620857D01*
X199937571Y-141478000D01*
X199909000Y-141363714D01*
X199880428Y-141306571D01*
X199851857Y-141278000D01*
X199794714Y-141249428D01*
X199223285Y-141249428D02*
X199166142Y-141249428D01*
X199109000Y-141278000D01*
X199080428Y-141306571D01*
X199051857Y-141363714D01*
X199023285Y-141478000D01*
X199023285Y-141620857D01*
X199051857Y-141735142D01*
X199080428Y-141792285D01*
X199109000Y-141820857D01*
X199166142Y-141849428D01*
X199223285Y-141849428D01*
X199280428Y-141820857D01*
X199309000Y-141792285D01*
X199337571Y-141735142D01*
X199366142Y-141620857D01*
X199366142Y-141478000D01*
X199337571Y-141363714D01*
X199309000Y-141306571D01*
X199280428Y-141278000D01*
X199223285Y-141249428D01*
X198823285Y-141249428D02*
X198451857Y-141249428D01*
X198651857Y-141478000D01*
X198566142Y-141478000D01*
X198509000Y-141506571D01*
X198480428Y-141535142D01*
X198451857Y-141592285D01*
X198451857Y-141735142D01*
X198480428Y-141792285D01*
X198509000Y-141820857D01*
X198566142Y-141849428D01*
X198737571Y-141849428D01*
X198794714Y-141820857D01*
X198823285Y-141792285D01*
X202966142Y-142586857D02*
X202509000Y-142586857D01*
X201909000Y-142815428D02*
X202251857Y-142815428D01*
X202080428Y-142815428D02*
X202080428Y-142215428D01*
X202137571Y-142301142D01*
X202194714Y-142358285D01*
X202251857Y-142386857D01*
X201537571Y-142215428D02*
X201480428Y-142215428D01*
X201423285Y-142244000D01*
X201394714Y-142272571D01*
X201366142Y-142329714D01*
X201337571Y-142444000D01*
X201337571Y-142586857D01*
X201366142Y-142701142D01*
X201394714Y-142758285D01*
X201423285Y-142786857D01*
X201480428Y-142815428D01*
X201537571Y-142815428D01*
X201594714Y-142786857D01*
X201623285Y-142758285D01*
X201651857Y-142701142D01*
X201680428Y-142586857D01*
X201680428Y-142444000D01*
X201651857Y-142329714D01*
X201623285Y-142272571D01*
X201594714Y-142244000D01*
X201537571Y-142215428D01*
X200966142Y-142215428D02*
X200909000Y-142215428D01*
X200851857Y-142244000D01*
X200823285Y-142272571D01*
X200794714Y-142329714D01*
X200766142Y-142444000D01*
X200766142Y-142586857D01*
X200794714Y-142701142D01*
X200823285Y-142758285D01*
X200851857Y-142786857D01*
X200909000Y-142815428D01*
X200966142Y-142815428D01*
X201023285Y-142786857D01*
X201051857Y-142758285D01*
X201080428Y-142701142D01*
X201109000Y-142586857D01*
X201109000Y-142444000D01*
X201080428Y-142329714D01*
X201051857Y-142272571D01*
X201023285Y-142244000D01*
X200966142Y-142215428D01*
X200509000Y-142586857D02*
X200051857Y-142586857D01*
X199651857Y-142215428D02*
X199594714Y-142215428D01*
X199537571Y-142244000D01*
X199509000Y-142272571D01*
X199480428Y-142329714D01*
X199451857Y-142444000D01*
X199451857Y-142586857D01*
X199480428Y-142701142D01*
X199509000Y-142758285D01*
X199537571Y-142786857D01*
X199594714Y-142815428D01*
X199651857Y-142815428D01*
X199709000Y-142786857D01*
X199737571Y-142758285D01*
X199766142Y-142701142D01*
X199794714Y-142586857D01*
X199794714Y-142444000D01*
X199766142Y-142329714D01*
X199737571Y-142272571D01*
X199709000Y-142244000D01*
X199651857Y-142215428D01*
X199080428Y-142215428D02*
X199023285Y-142215428D01*
X198966142Y-142244000D01*
X198937571Y-142272571D01*
X198909000Y-142329714D01*
X198880428Y-142444000D01*
X198880428Y-142586857D01*
X198909000Y-142701142D01*
X198937571Y-142758285D01*
X198966142Y-142786857D01*
X199023285Y-142815428D01*
X199080428Y-142815428D01*
X199137571Y-142786857D01*
X199166142Y-142758285D01*
X199194714Y-142701142D01*
X199223285Y-142586857D01*
X199223285Y-142444000D01*
X199194714Y-142329714D01*
X199166142Y-142272571D01*
X199137571Y-142244000D01*
X199080428Y-142215428D01*
X198509000Y-142215428D02*
X198451857Y-142215428D01*
X198394714Y-142244000D01*
X198366142Y-142272571D01*
X198337571Y-142329714D01*
X198309000Y-142444000D01*
X198309000Y-142586857D01*
X198337571Y-142701142D01*
X198366142Y-142758285D01*
X198394714Y-142786857D01*
X198451857Y-142815428D01*
X198509000Y-142815428D01*
X198566142Y-142786857D01*
X198594714Y-142758285D01*
X198623285Y-142701142D01*
X198651857Y-142586857D01*
X198651857Y-142444000D01*
X198623285Y-142329714D01*
X198594714Y-142272571D01*
X198566142Y-142244000D01*
X198509000Y-142215428D01*
X202966142Y-144747428D02*
X202966142Y-144147428D01*
X202737571Y-144147428D01*
X202680428Y-144176000D01*
X202651857Y-144204571D01*
X202623285Y-144261714D01*
X202623285Y-144347428D01*
X202651857Y-144404571D01*
X202680428Y-144433142D01*
X202737571Y-144461714D01*
X202966142Y-144461714D01*
X202023285Y-144690285D02*
X202051857Y-144718857D01*
X202137571Y-144747428D01*
X202194714Y-144747428D01*
X202280428Y-144718857D01*
X202337571Y-144661714D01*
X202366142Y-144604571D01*
X202394714Y-144490285D01*
X202394714Y-144404571D01*
X202366142Y-144290285D01*
X202337571Y-144233142D01*
X202280428Y-144176000D01*
X202194714Y-144147428D01*
X202137571Y-144147428D01*
X202051857Y-144176000D01*
X202023285Y-144204571D01*
X201566142Y-144433142D02*
X201480428Y-144461714D01*
X201451857Y-144490285D01*
X201423285Y-144547428D01*
X201423285Y-144633142D01*
X201451857Y-144690285D01*
X201480428Y-144718857D01*
X201537571Y-144747428D01*
X201766142Y-144747428D01*
X201766142Y-144147428D01*
X201566142Y-144147428D01*
X201509000Y-144176000D01*
X201480428Y-144204571D01*
X201451857Y-144261714D01*
X201451857Y-144318857D01*
X201480428Y-144376000D01*
X201509000Y-144404571D01*
X201566142Y-144433142D01*
X201766142Y-144433142D01*
X201166142Y-144690285D02*
X201137571Y-144718857D01*
X201166142Y-144747428D01*
X201194714Y-144718857D01*
X201166142Y-144690285D01*
X201166142Y-144747428D01*
X201166142Y-144376000D02*
X201137571Y-144404571D01*
X201166142Y-144433142D01*
X201194714Y-144404571D01*
X201166142Y-144376000D01*
X201166142Y-144433142D01*
X202994714Y-145313428D02*
X202566142Y-145313428D01*
X202823285Y-145056285D02*
X202994714Y-145827714D01*
X202623285Y-145570571D02*
X203051857Y-145570571D01*
X202794714Y-145827714D02*
X202623285Y-145056285D01*
X202109000Y-145313428D02*
X202109000Y-145713428D01*
X202251857Y-145084857D02*
X202394714Y-145513428D01*
X202023285Y-145513428D01*
X201823285Y-145170571D02*
X201794714Y-145142000D01*
X201737571Y-145113428D01*
X201594714Y-145113428D01*
X201537571Y-145142000D01*
X201509000Y-145170571D01*
X201480428Y-145227714D01*
X201480428Y-145284857D01*
X201509000Y-145370571D01*
X201851857Y-145713428D01*
X201480428Y-145713428D01*
X201109000Y-145113428D02*
X201051857Y-145113428D01*
X200994714Y-145142000D01*
X200966142Y-145170571D01*
X200937571Y-145227714D01*
X200909000Y-145342000D01*
X200909000Y-145484857D01*
X200937571Y-145599142D01*
X200966142Y-145656285D01*
X200994714Y-145684857D01*
X201051857Y-145713428D01*
X201109000Y-145713428D01*
X201166142Y-145684857D01*
X201194714Y-145656285D01*
X201223285Y-145599142D01*
X201251857Y-145484857D01*
X201251857Y-145342000D01*
X201223285Y-145227714D01*
X201194714Y-145170571D01*
X201166142Y-145142000D01*
X201109000Y-145113428D01*
X200651857Y-145484857D02*
X200194714Y-145484857D01*
X199794714Y-145113428D02*
X199737571Y-145113428D01*
X199680428Y-145142000D01*
X199651857Y-145170571D01*
X199623285Y-145227714D01*
X199594714Y-145342000D01*
X199594714Y-145484857D01*
X199623285Y-145599142D01*
X199651857Y-145656285D01*
X199680428Y-145684857D01*
X199737571Y-145713428D01*
X199794714Y-145713428D01*
X199851857Y-145684857D01*
X199880428Y-145656285D01*
X199909000Y-145599142D01*
X199937571Y-145484857D01*
X199937571Y-145342000D01*
X199909000Y-145227714D01*
X199880428Y-145170571D01*
X199851857Y-145142000D01*
X199794714Y-145113428D01*
X199223285Y-145113428D02*
X199166142Y-145113428D01*
X199109000Y-145142000D01*
X199080428Y-145170571D01*
X199051857Y-145227714D01*
X199023285Y-145342000D01*
X199023285Y-145484857D01*
X199051857Y-145599142D01*
X199080428Y-145656285D01*
X199109000Y-145684857D01*
X199166142Y-145713428D01*
X199223285Y-145713428D01*
X199280428Y-145684857D01*
X199309000Y-145656285D01*
X199337571Y-145599142D01*
X199366142Y-145484857D01*
X199366142Y-145342000D01*
X199337571Y-145227714D01*
X199309000Y-145170571D01*
X199280428Y-145142000D01*
X199223285Y-145113428D01*
X198823285Y-145113428D02*
X198451857Y-145113428D01*
X198651857Y-145342000D01*
X198566142Y-145342000D01*
X198509000Y-145370571D01*
X198480428Y-145399142D01*
X198451857Y-145456285D01*
X198451857Y-145599142D01*
X198480428Y-145656285D01*
X198509000Y-145684857D01*
X198566142Y-145713428D01*
X198737571Y-145713428D01*
X198794714Y-145684857D01*
X198823285Y-145656285D01*
X202966142Y-146450857D02*
X202509000Y-146450857D01*
X201909000Y-146679428D02*
X202251857Y-146679428D01*
X202080428Y-146679428D02*
X202080428Y-146079428D01*
X202137571Y-146165142D01*
X202194714Y-146222285D01*
X202251857Y-146250857D01*
X201337571Y-146679428D02*
X201680428Y-146679428D01*
X201509000Y-146679428D02*
X201509000Y-146079428D01*
X201566142Y-146165142D01*
X201623285Y-146222285D01*
X201680428Y-146250857D01*
X200966142Y-146079428D02*
X200909000Y-146079428D01*
X200851857Y-146108000D01*
X200823285Y-146136571D01*
X200794714Y-146193714D01*
X200766142Y-146308000D01*
X200766142Y-146450857D01*
X200794714Y-146565142D01*
X200823285Y-146622285D01*
X200851857Y-146650857D01*
X200909000Y-146679428D01*
X200966142Y-146679428D01*
X201023285Y-146650857D01*
X201051857Y-146622285D01*
X201080428Y-146565142D01*
X201109000Y-146450857D01*
X201109000Y-146308000D01*
X201080428Y-146193714D01*
X201051857Y-146136571D01*
X201023285Y-146108000D01*
X200966142Y-146079428D01*
X200509000Y-146450857D02*
X200051857Y-146450857D01*
X199651857Y-146079428D02*
X199594714Y-146079428D01*
X199537571Y-146108000D01*
X199509000Y-146136571D01*
X199480428Y-146193714D01*
X199451857Y-146308000D01*
X199451857Y-146450857D01*
X199480428Y-146565142D01*
X199509000Y-146622285D01*
X199537571Y-146650857D01*
X199594714Y-146679428D01*
X199651857Y-146679428D01*
X199709000Y-146650857D01*
X199737571Y-146622285D01*
X199766142Y-146565142D01*
X199794714Y-146450857D01*
X199794714Y-146308000D01*
X199766142Y-146193714D01*
X199737571Y-146136571D01*
X199709000Y-146108000D01*
X199651857Y-146079428D01*
X199080428Y-146079428D02*
X199023285Y-146079428D01*
X198966142Y-146108000D01*
X198937571Y-146136571D01*
X198909000Y-146193714D01*
X198880428Y-146308000D01*
X198880428Y-146450857D01*
X198909000Y-146565142D01*
X198937571Y-146622285D01*
X198966142Y-146650857D01*
X199023285Y-146679428D01*
X199080428Y-146679428D01*
X199137571Y-146650857D01*
X199166142Y-146622285D01*
X199194714Y-146565142D01*
X199223285Y-146450857D01*
X199223285Y-146308000D01*
X199194714Y-146193714D01*
X199166142Y-146136571D01*
X199137571Y-146108000D01*
X199080428Y-146079428D01*
X198509000Y-146079428D02*
X198451857Y-146079428D01*
X198394714Y-146108000D01*
X198366142Y-146136571D01*
X198337571Y-146193714D01*
X198309000Y-146308000D01*
X198309000Y-146450857D01*
X198337571Y-146565142D01*
X198366142Y-146622285D01*
X198394714Y-146650857D01*
X198451857Y-146679428D01*
X198509000Y-146679428D01*
X198566142Y-146650857D01*
X198594714Y-146622285D01*
X198623285Y-146565142D01*
X198651857Y-146450857D01*
X198651857Y-146308000D01*
X198623285Y-146193714D01*
X198594714Y-146136571D01*
X198566142Y-146108000D01*
X198509000Y-146079428D01*
X198051857Y-146450857D02*
X197594714Y-146450857D01*
X197337571Y-146508000D02*
X197051857Y-146508000D01*
X197394714Y-146679428D02*
X197194714Y-146079428D01*
X196994714Y-146679428D01*
D13*
X129540000Y-119380000D03*
X137160000Y-111760000D03*
X132080000Y-119380000D03*
X134620000Y-111760000D03*
X134620000Y-119380000D03*
X132080000Y-111760000D03*
X137160000Y-119380000D03*
X129540000Y-111760000D03*
X139700000Y-119380000D03*
X139700000Y-111760000D03*
X179705000Y-55880000D03*
X187325000Y-63500000D03*
X182245000Y-55880000D03*
X184785000Y-63500000D03*
X184785000Y-55880000D03*
X182245000Y-63500000D03*
X187325000Y-55880000D03*
X179705000Y-63500000D03*
X113347500Y-120650000D03*
X120967500Y-128270000D03*
X115887500Y-120650000D03*
X118427500Y-128270000D03*
X118427500Y-120650000D03*
X115887500Y-128270000D03*
X120967500Y-120650000D03*
X113347500Y-128270000D03*
X135890000Y-55880000D03*
X143510000Y-63500000D03*
X138430000Y-55880000D03*
X140970000Y-63500000D03*
X140970000Y-55880000D03*
X138430000Y-63500000D03*
X143510000Y-55880000D03*
X135890000Y-63500000D03*
X146050000Y-102870000D03*
X153670000Y-110490000D03*
X148590000Y-102870000D03*
X151130000Y-110490000D03*
X151130000Y-102870000D03*
X148590000Y-110490000D03*
X153670000Y-102870000D03*
X146050000Y-110490000D03*
X115570000Y-101600000D03*
X123190000Y-109220000D03*
X118110000Y-101600000D03*
X120650000Y-109220000D03*
X120650000Y-101600000D03*
X118110000Y-109220000D03*
X123190000Y-101600000D03*
X115570000Y-109220000D03*
D14*
X195897500Y-124460000D03*
X185102500Y-124460000D03*
D13*
X186690000Y-120650000D03*
X194310000Y-128270000D03*
X189230000Y-120650000D03*
X191770000Y-128270000D03*
X191770000Y-120650000D03*
X189230000Y-128270000D03*
X194310000Y-120650000D03*
X186690000Y-128270000D03*
D15*
X182880000Y-102552500D03*
X193040000Y-102552500D03*
X193040000Y-100012500D03*
X182880000Y-100012500D03*
X178435000Y-133350000D03*
X178435000Y-143510000D03*
X180975000Y-143510000D03*
X180975000Y-133350000D03*
X185420000Y-104775000D03*
X185420000Y-114935000D03*
X186690000Y-117475000D03*
X196850000Y-117475000D03*
X187960000Y-114935000D03*
X187960000Y-104775000D03*
X183515000Y-133350000D03*
X183515000Y-143510000D03*
X183515000Y-119380000D03*
X183515000Y-129540000D03*
D16*
X194945000Y-46355000D03*
D17*
X194945000Y-56515000D03*
X194945000Y-46355000D03*
D16*
X190500000Y-104775000D03*
D17*
X190500000Y-114935000D03*
X190500000Y-104775000D03*
D16*
X108267500Y-132080000D03*
D17*
X108267500Y-142240000D03*
X108267500Y-132080000D03*
D16*
X96520000Y-88900000D03*
D17*
X96520000Y-99060000D03*
X96520000Y-88900000D03*
D16*
X180340000Y-100330000D03*
D17*
X180340000Y-110490000D03*
X180340000Y-100330000D03*
D16*
X163195000Y-132080000D03*
D17*
X163195000Y-142240000D03*
X163195000Y-132080000D03*
D16*
X192405000Y-50800000D03*
D17*
X192405000Y-60960000D03*
X192405000Y-50800000D03*
D16*
X125730000Y-132080000D03*
D17*
X125730000Y-142240000D03*
X125730000Y-132080000D03*
D16*
X113347500Y-132080000D03*
D17*
X113347500Y-142240000D03*
X113347500Y-132080000D03*
D16*
X123190000Y-132080000D03*
D17*
X123190000Y-142240000D03*
X123190000Y-132080000D03*
D16*
X115887500Y-132080000D03*
D17*
X115887500Y-142240000D03*
X115887500Y-132080000D03*
D16*
X119380000Y-132080000D03*
D17*
X119380000Y-142240000D03*
X119380000Y-132080000D03*
D16*
X139382500Y-132080000D03*
D17*
X139382500Y-142240000D03*
X139382500Y-132080000D03*
D16*
X141922500Y-132080000D03*
D17*
X141922500Y-142240000D03*
X141922500Y-132080000D03*
D16*
X166370000Y-71120000D03*
D17*
X166370000Y-81280000D03*
X166370000Y-71120000D03*
D16*
X171450000Y-71120000D03*
D17*
X171450000Y-81280000D03*
X171450000Y-71120000D03*
D16*
X168910000Y-71120000D03*
D17*
X168910000Y-81280000D03*
X168910000Y-71120000D03*
D16*
X177165000Y-54610000D03*
D17*
X177165000Y-64770000D03*
X177165000Y-54610000D03*
D16*
X174625000Y-54610000D03*
D17*
X174625000Y-64770000D03*
X174625000Y-54610000D03*
D16*
X105727500Y-132080000D03*
D17*
X105727500Y-142240000D03*
X105727500Y-132080000D03*
D16*
X110172500Y-116840000D03*
D17*
X110172500Y-127000000D03*
X110172500Y-116840000D03*
D16*
X99695000Y-102870000D03*
D17*
X99695000Y-113030000D03*
X99695000Y-102870000D03*
D16*
X97155000Y-102870000D03*
D17*
X97155000Y-113030000D03*
X97155000Y-102870000D03*
D16*
X103505000Y-105410000D03*
D17*
X103505000Y-115570000D03*
X103505000Y-105410000D03*
D16*
X107315000Y-105410000D03*
D17*
X107315000Y-115570000D03*
X107315000Y-105410000D03*
D16*
X165735000Y-88900000D03*
D17*
X165735000Y-99060000D03*
X165735000Y-88900000D03*
D16*
X153987500Y-54610000D03*
D17*
X153987500Y-64770000D03*
X153987500Y-54610000D03*
D16*
X151447500Y-54610000D03*
D17*
X151447500Y-64770000D03*
X151447500Y-54610000D03*
D16*
X163195000Y-88900000D03*
D17*
X163195000Y-99060000D03*
X163195000Y-88900000D03*
D16*
X146685000Y-54610000D03*
D17*
X146685000Y-64770000D03*
X146685000Y-54610000D03*
D16*
X156210000Y-88900000D03*
D17*
X156210000Y-99060000D03*
X156210000Y-88900000D03*
D16*
X153035000Y-88900000D03*
D17*
X153035000Y-99060000D03*
X153035000Y-88900000D03*
D16*
X146050000Y-88900000D03*
D17*
X146050000Y-99060000D03*
X146050000Y-88900000D03*
D16*
X142240000Y-88900000D03*
D17*
X142240000Y-99060000D03*
X142240000Y-88900000D03*
D16*
X135890000Y-88900000D03*
D17*
X135890000Y-99060000D03*
X135890000Y-88900000D03*
D16*
X138430000Y-88900000D03*
D17*
X138430000Y-99060000D03*
X138430000Y-88900000D03*
D16*
X128270000Y-88900000D03*
D17*
X128270000Y-99060000D03*
X128270000Y-88900000D03*
D16*
X125730000Y-88900000D03*
D17*
X125730000Y-99060000D03*
X125730000Y-88900000D03*
D16*
X118745000Y-88900000D03*
D17*
X118745000Y-99060000D03*
X118745000Y-88900000D03*
D16*
X114300000Y-88900000D03*
D17*
X114300000Y-99060000D03*
X114300000Y-88900000D03*
D16*
X100330000Y-88900000D03*
D17*
X100330000Y-99060000D03*
X100330000Y-88900000D03*
D16*
X109156500Y-88900000D03*
D17*
X109156500Y-99060000D03*
X109156500Y-88900000D03*
D16*
X106045000Y-88900000D03*
D17*
X106045000Y-99060000D03*
X106045000Y-88900000D03*
D16*
X123825000Y-67310000D03*
D17*
X123825000Y-77470000D03*
X123825000Y-67310000D03*
D16*
X126365000Y-69215000D03*
D17*
X126365000Y-79375000D03*
X126365000Y-69215000D03*
D16*
X118427500Y-54610000D03*
D17*
X118427500Y-64770000D03*
X118427500Y-54610000D03*
D16*
X115887500Y-54610000D03*
D17*
X115887500Y-64770000D03*
X115887500Y-54610000D03*
D16*
X113347500Y-54610000D03*
D17*
X113347500Y-64770000D03*
X113347500Y-54610000D03*
D16*
X103505000Y-54927500D03*
D17*
X103505000Y-65087500D03*
X103505000Y-54927500D03*
D16*
X100965000Y-54927500D03*
D17*
X100965000Y-65087500D03*
X100965000Y-54927500D03*
D16*
X182880000Y-104775000D03*
D17*
X182880000Y-114935000D03*
X182880000Y-104775000D03*
D16*
X158115000Y-132080000D03*
D17*
X158115000Y-142240000D03*
X158115000Y-132080000D03*
D13*
X123825000Y-55880000D03*
X131445000Y-63500000D03*
X126365000Y-55880000D03*
X128905000Y-63500000D03*
X128905000Y-55880000D03*
X126365000Y-63500000D03*
X131445000Y-55880000D03*
X123825000Y-63500000D03*
D18*
X200342500Y-67310000D03*
D19*
X202742500Y-67310000D03*
X202039556Y-69007056D03*
X200342500Y-69710000D03*
X198645444Y-69007056D03*
X197942500Y-67310000D03*
X198645444Y-65612944D03*
X200342500Y-64910000D03*
X202039556Y-65612944D03*
D18*
X200342500Y-126365000D03*
D19*
X202742500Y-126365000D03*
X202039556Y-128062056D03*
X200342500Y-128765000D03*
X198645444Y-128062056D03*
X197942500Y-126365000D03*
X198645444Y-124667944D03*
X200342500Y-123965000D03*
X202039556Y-124667944D03*
D18*
X94932500Y-67310000D03*
D19*
X97332500Y-67310000D03*
X96629556Y-69007056D03*
X94932500Y-69710000D03*
X93235444Y-69007056D03*
X92532500Y-67310000D03*
X93235444Y-65612944D03*
X94932500Y-64910000D03*
X96629556Y-65612944D03*
D18*
X94932500Y-126365000D03*
D19*
X97332500Y-126365000D03*
X96629556Y-128062056D03*
X94932500Y-128765000D03*
X93235444Y-128062056D03*
X92532500Y-126365000D03*
X93235444Y-124667944D03*
X94932500Y-123965000D03*
X96629556Y-124667944D03*
D14*
X202247500Y-104140000D03*
X199707500Y-104140000D03*
X95567500Y-104140000D03*
X93027500Y-104140000D03*
D15*
X195262500Y-113665000D03*
D20*
X195262500Y-111442500D03*
X195262500Y-115887500D03*
D15*
X193040000Y-114935000D03*
X193040000Y-112395000D03*
D14*
X202247500Y-82867500D03*
X199707500Y-82867500D03*
X95567500Y-82867500D03*
X93027500Y-82867500D03*
D20*
X191135000Y-46037500D03*
X191135000Y-48577500D03*
X162877500Y-45720000D03*
X162877500Y-48260000D03*
X132397500Y-45720000D03*
X132397500Y-48260000D03*
X104140000Y-46037500D03*
X104140000Y-48577500D03*
D14*
X202247500Y-109855000D03*
X199707500Y-109855000D03*
D21*
X200977500Y-112077500D03*
G36*
G01*
X200341579Y-121282402D02*
X199634472Y-121989508D01*
G75*
G02*
X198855524Y-121989508I-389474J389474D01*
G01*
X198855524Y-121989508D01*
G75*
G02*
X198855524Y-121210560I389474J389474D01*
G01*
X199562630Y-120503454D01*
G75*
G02*
X200341578Y-120503454I389474J-389474D01*
G01*
X200341578Y-120503454D01*
G75*
G02*
X200341578Y-121282402I-389474J-389474D01*
G01*
G37*
G36*
G01*
X198545528Y-119486351D02*
X197838421Y-120193457D01*
G75*
G02*
X197059473Y-120193457I-389474J389474D01*
G01*
X197059473Y-120193457D01*
G75*
G02*
X197059473Y-119414509I389474J389474D01*
G01*
X197766579Y-118707403D01*
G75*
G02*
X198545527Y-118707403I389474J-389474D01*
G01*
X198545527Y-118707403D01*
G75*
G02*
X198545527Y-119486351I-389474J-389474D01*
G01*
G37*
X197128981Y-121920000D03*
D20*
X100012500Y-84455000D03*
X100012500Y-86995000D03*
D22*
X102640000Y-85725000D03*
D21*
X105140000Y-85725000D03*
D14*
X103187500Y-136842500D03*
X100647500Y-136842500D03*
D22*
X101917500Y-139470000D03*
D21*
X101917500Y-141970000D03*
G36*
G01*
X96440363Y-117995363D02*
X97147469Y-118702470D01*
G75*
G02*
X97147469Y-119481418I-389474J-389474D01*
G01*
X97147469Y-119481418D01*
G75*
G02*
X96368521Y-119481418I-389474J389474D01*
G01*
X95661415Y-118774312D01*
G75*
G02*
X95661415Y-117995364I389474J389474D01*
G01*
X95661415Y-117995364D01*
G75*
G02*
X96440363Y-117995364I389474J-389474D01*
G01*
G37*
G36*
G01*
X94644312Y-119791414D02*
X95351418Y-120498521D01*
G75*
G02*
X95351418Y-121277469I-389474J-389474D01*
G01*
X95351418Y-121277469D01*
G75*
G02*
X94572470Y-121277469I-389474J389474D01*
G01*
X93865364Y-120570363D01*
G75*
G02*
X93865364Y-119791415I389474J389474D01*
G01*
X93865364Y-119791415D01*
G75*
G02*
X94644312Y-119791415I389474J-389474D01*
G01*
G37*
D22*
X97364340Y-121494340D03*
D21*
X99132107Y-123262107D03*
G36*
G01*
X99615363Y-114820363D02*
X100322469Y-115527470D01*
G75*
G02*
X100322469Y-116306418I-389474J-389474D01*
G01*
X100322469Y-116306418D01*
G75*
G02*
X99543521Y-116306418I-389474J389474D01*
G01*
X98836415Y-115599312D01*
G75*
G02*
X98836415Y-114820364I389474J389474D01*
G01*
X98836415Y-114820364D01*
G75*
G02*
X99615363Y-114820364I389474J-389474D01*
G01*
G37*
G36*
G01*
X97819312Y-116616414D02*
X98526418Y-117323521D01*
G75*
G02*
X98526418Y-118102469I-389474J-389474D01*
G01*
X98526418Y-118102469D01*
G75*
G02*
X97747470Y-118102469I-389474J389474D01*
G01*
X97040364Y-117395363D01*
G75*
G02*
X97040364Y-116616415I389474J389474D01*
G01*
X97040364Y-116616415D01*
G75*
G02*
X97819312Y-116616415I389474J-389474D01*
G01*
G37*
D22*
X100539340Y-118319340D03*
D21*
X102307107Y-120087107D03*
D14*
X95567500Y-56197500D03*
X93027500Y-56197500D03*
D22*
X94297500Y-58825000D03*
D21*
X94297500Y-61325000D03*
D16*
X177800000Y-100330000D03*
D17*
X177800000Y-110490000D03*
X177800000Y-100330000D03*
D16*
X156210000Y-119380000D03*
D17*
X166370000Y-119380000D03*
X156210000Y-119380000D03*
D16*
X174625000Y-110490000D03*
D17*
X174625000Y-120650000D03*
X174625000Y-110490000D03*
D16*
X156210000Y-115570000D03*
D17*
X166370000Y-115570000D03*
X156210000Y-115570000D03*
D16*
X147002500Y-127635000D03*
D17*
X147002500Y-117475000D03*
X147002500Y-127635000D03*
D16*
X123190000Y-119380000D03*
D17*
X123190000Y-129540000D03*
X123190000Y-119380000D03*
D16*
X170180000Y-84137500D03*
D17*
X180340000Y-84137500D03*
X170180000Y-84137500D03*
D16*
X156527500Y-84137500D03*
D17*
X166687500Y-84137500D03*
X156527500Y-84137500D03*
D16*
X140970000Y-67310000D03*
D17*
X130810000Y-67310000D03*
X140970000Y-67310000D03*
D16*
X177165000Y-117475000D03*
D17*
X177165000Y-127635000D03*
X177165000Y-117475000D03*
D16*
X166370000Y-111760000D03*
D17*
X156210000Y-111760000D03*
X166370000Y-111760000D03*
D16*
X129540000Y-102870000D03*
D17*
X139700000Y-102870000D03*
X129540000Y-102870000D03*
D16*
X113030000Y-107950000D03*
D17*
X113030000Y-118110000D03*
X113030000Y-107950000D03*
D16*
X179705000Y-67945000D03*
D17*
X169545000Y-67945000D03*
X179705000Y-67945000D03*
D16*
X163195000Y-52070000D03*
D17*
X153035000Y-52070000D03*
X163195000Y-52070000D03*
D16*
X135255000Y-52705000D03*
D17*
X125095000Y-52705000D03*
X135255000Y-52705000D03*
D23*
X133350000Y-132080000D03*
G36*
G01*
X186971650Y-125735800D02*
X186408350Y-125735800D01*
G75*
G02*
X186164200Y-125491650I0J244150D01*
G01*
X186164200Y-125003350D01*
G75*
G02*
X186408350Y-124759200I244150J0D01*
G01*
X186971650Y-124759200D01*
G75*
G02*
X187215800Y-125003350I0J-244150D01*
G01*
X187215800Y-125491650D01*
G75*
G02*
X186971650Y-125735800I-244150J0D01*
G01*
G37*
G36*
G01*
X186971650Y-124160800D02*
X186408350Y-124160800D01*
G75*
G02*
X186164200Y-123916650I0J244150D01*
G01*
X186164200Y-123428350D01*
G75*
G02*
X186408350Y-123184200I244150J0D01*
G01*
X186971650Y-123184200D01*
G75*
G02*
X187215800Y-123428350I0J-244150D01*
G01*
X187215800Y-123916650D01*
G75*
G02*
X186971650Y-124160800I-244150J0D01*
G01*
G37*
D13*
X130810000Y-137160000D03*
X135890000Y-137160000D03*
X133350000Y-139700000D03*
X168275000Y-59690000D03*
X163195000Y-59690000D03*
X165735000Y-57150000D03*
D15*
X180340000Y-114300000D03*
X180340000Y-124460000D03*
X160655000Y-142240000D03*
X160655000Y-132080000D03*
X110807500Y-142240000D03*
X110807500Y-132080000D03*
X189865000Y-67310000D03*
X189865000Y-57150000D03*
D23*
X167640000Y-76200000D03*
X182562500Y-76200000D03*
X152717500Y-76200000D03*
X134620000Y-76200000D03*
D24*
X191135000Y-76200000D03*
D25*
X175135000Y-71200000D03*
X175135000Y-81200000D03*
X175135000Y-76200000D03*
D24*
X147637500Y-76200000D03*
D25*
X163637500Y-81200000D03*
X163637500Y-71200000D03*
X163637500Y-76200000D03*
D24*
X104140000Y-76200000D03*
D25*
X120140000Y-81200000D03*
X120140000Y-71200000D03*
X120140000Y-76200000D03*
D26*
X167275000Y-106680000D03*
X169275000Y-106680000D03*
X159385000Y-128000000D03*
X159385000Y-126000000D03*
D17*
X170815000Y-119975000D03*
X170815000Y-114975000D03*
X149860000Y-139620000D03*
X149860000Y-134620000D03*
D20*
X175895000Y-88265000D03*
X175895000Y-96520000D03*
D17*
X191135000Y-94892500D03*
X191135000Y-89892500D03*
D14*
X173672500Y-128270000D03*
X165417500Y-128270000D03*
D17*
X167045000Y-143510000D03*
X172045000Y-143510000D03*
X106362500Y-124420000D03*
X106362500Y-119420000D03*
X106997500Y-62190000D03*
X106997500Y-57190000D03*
D26*
X195897500Y-91142500D03*
X195897500Y-93642500D03*
X195897500Y-105747500D03*
X195897500Y-108247500D03*
X179705000Y-130540000D03*
X179705000Y-128540000D03*
X192040000Y-132397500D03*
X194040000Y-132397500D03*
X186960000Y-132397500D03*
X188960000Y-132397500D03*
X189250000Y-138747500D03*
X191750000Y-138747500D03*
X105362500Y-128270000D03*
X107362500Y-128270000D03*
D27*
X106997500Y-66472500D03*
X106997500Y-64972500D03*
D28*
X174625000Y-105410000D03*
X174625000Y-102870000D03*
X174625000Y-107950000D03*
X154305000Y-137160000D03*
X154305000Y-139700000D03*
X154305000Y-134620000D03*
D13*
X129540000Y-128270000D03*
X127000000Y-128270000D03*
X132080000Y-128270000D03*
D17*
X194945000Y-65047500D03*
X194945000Y-60047500D03*
X171450000Y-62190000D03*
X171450000Y-57190000D03*
X160337500Y-57190000D03*
X160337500Y-62190000D03*
X156845000Y-62190000D03*
X156845000Y-57190000D03*
X160020000Y-96480000D03*
X160020000Y-91480000D03*
X149860000Y-96480000D03*
X149860000Y-91480000D03*
X132080000Y-96480000D03*
X132080000Y-91480000D03*
X122237500Y-96480000D03*
X122237500Y-91480000D03*
X103187500Y-96480000D03*
X103187500Y-91480000D03*
X129540000Y-71755000D03*
X129540000Y-76755000D03*
X120967500Y-57190000D03*
X120967500Y-62190000D03*
X110807500Y-62190000D03*
X110807500Y-57190000D03*
X97790000Y-62507500D03*
X97790000Y-57507500D03*
M02*
