G04 #@! TF.GenerationSoftware,KiCad,Pcbnew,(5.1.4)-1*
G04 #@! TF.CreationDate,2020-01-02T18:36:30+01:00*
G04 #@! TF.ProjectId,#610-000,23363130-2d30-4303-902e-6b696361645f,rev?*
G04 #@! TF.SameCoordinates,Original*
G04 #@! TF.FileFunction,Copper,L2,Bot*
G04 #@! TF.FilePolarity,Positive*
%FSLAX46Y46*%
G04 Gerber Fmt 4.6, Leading zero omitted, Abs format (unit mm)*
G04 Created by KiCad (PCBNEW (5.1.4)-1) date 2020-01-02 18:36:30*
%MOMM*%
%LPD*%
G04 APERTURE LIST*
%ADD10C,0.152400*%
%ADD11C,0.050000*%
%ADD12O,5.500000X2.000000*%
%ADD13O,4.000000X2.000000*%
%ADD14C,0.100000*%
%ADD15C,0.400000*%
%ADD16C,0.800000*%
%ADD17C,0.350000*%
G04 APERTURE END LIST*
D10*
X150536728Y-78676379D02*
X150536728Y-79256950D01*
X150188385Y-78908607D02*
X151233414Y-78676379D01*
X150885071Y-79179540D02*
X150885071Y-78598969D01*
X151233414Y-78947312D02*
X150188385Y-79179540D01*
X150536728Y-79876226D02*
X151078595Y-79876226D01*
X150227090Y-79682702D02*
X150807661Y-79489179D01*
X150807661Y-79992340D01*
X150343204Y-80263274D02*
X150304500Y-80301979D01*
X150265795Y-80379388D01*
X150265795Y-80572912D01*
X150304500Y-80650321D01*
X150343204Y-80689026D01*
X150420614Y-80727731D01*
X150498023Y-80727731D01*
X150614138Y-80689026D01*
X151078595Y-80224569D01*
X151078595Y-80727731D01*
X150265795Y-81230893D02*
X150265795Y-81308302D01*
X150304500Y-81385712D01*
X150343204Y-81424417D01*
X150420614Y-81463121D01*
X150575433Y-81501826D01*
X150768957Y-81501826D01*
X150923776Y-81463121D01*
X151001185Y-81424417D01*
X151039890Y-81385712D01*
X151078595Y-81308302D01*
X151078595Y-81230893D01*
X151039890Y-81153483D01*
X151001185Y-81114779D01*
X150923776Y-81076074D01*
X150768957Y-81037369D01*
X150575433Y-81037369D01*
X150420614Y-81076074D01*
X150343204Y-81114779D01*
X150304500Y-81153483D01*
X150265795Y-81230893D01*
X150768957Y-81850169D02*
X150768957Y-82469445D01*
X150265795Y-83011312D02*
X150265795Y-83088721D01*
X150304500Y-83166131D01*
X150343204Y-83204836D01*
X150420614Y-83243540D01*
X150575433Y-83282245D01*
X150768957Y-83282245D01*
X150923776Y-83243540D01*
X151001185Y-83204836D01*
X151039890Y-83166131D01*
X151078595Y-83088721D01*
X151078595Y-83011312D01*
X151039890Y-82933902D01*
X151001185Y-82895198D01*
X150923776Y-82856493D01*
X150768957Y-82817788D01*
X150575433Y-82817788D01*
X150420614Y-82856493D01*
X150343204Y-82895198D01*
X150304500Y-82933902D01*
X150265795Y-83011312D01*
X150265795Y-83785407D02*
X150265795Y-83862817D01*
X150304500Y-83940226D01*
X150343204Y-83978931D01*
X150420614Y-84017636D01*
X150575433Y-84056340D01*
X150768957Y-84056340D01*
X150923776Y-84017636D01*
X151001185Y-83978931D01*
X151039890Y-83940226D01*
X151078595Y-83862817D01*
X151078595Y-83785407D01*
X151039890Y-83707998D01*
X151001185Y-83669293D01*
X150923776Y-83630588D01*
X150768957Y-83591883D01*
X150575433Y-83591883D01*
X150420614Y-83630588D01*
X150343204Y-83669293D01*
X150304500Y-83707998D01*
X150265795Y-83785407D01*
X150265795Y-84327274D02*
X150265795Y-84830436D01*
X150575433Y-84559502D01*
X150575433Y-84675617D01*
X150614138Y-84753026D01*
X150652842Y-84791731D01*
X150730252Y-84830436D01*
X150923776Y-84830436D01*
X151001185Y-84791731D01*
X151039890Y-84753026D01*
X151078595Y-84675617D01*
X151078595Y-84443388D01*
X151039890Y-84365979D01*
X151001185Y-84327274D01*
X150768957Y-85178779D02*
X150768957Y-85798055D01*
X150265795Y-86533445D02*
X150265795Y-86378626D01*
X150304500Y-86301217D01*
X150343204Y-86262512D01*
X150459319Y-86185102D01*
X150614138Y-86146398D01*
X150923776Y-86146398D01*
X151001185Y-86185102D01*
X151039890Y-86223807D01*
X151078595Y-86301217D01*
X151078595Y-86456036D01*
X151039890Y-86533445D01*
X151001185Y-86572150D01*
X150923776Y-86610855D01*
X150730252Y-86610855D01*
X150652842Y-86572150D01*
X150614138Y-86533445D01*
X150575433Y-86456036D01*
X150575433Y-86301217D01*
X150614138Y-86223807D01*
X150652842Y-86185102D01*
X150730252Y-86146398D01*
X151078595Y-87384950D02*
X151078595Y-86920493D01*
X151078595Y-87152721D02*
X150265795Y-87152721D01*
X150381909Y-87075312D01*
X150459319Y-86997902D01*
X150498023Y-86920493D01*
X150265795Y-87888112D02*
X150265795Y-87965521D01*
X150304500Y-88042931D01*
X150343204Y-88081636D01*
X150420614Y-88120340D01*
X150575433Y-88159045D01*
X150768957Y-88159045D01*
X150923776Y-88120340D01*
X151001185Y-88081636D01*
X151039890Y-88042931D01*
X151078595Y-87965521D01*
X151078595Y-87888112D01*
X151039890Y-87810702D01*
X151001185Y-87771998D01*
X150923776Y-87733293D01*
X150768957Y-87694588D01*
X150575433Y-87694588D01*
X150420614Y-87733293D01*
X150343204Y-87771998D01*
X150304500Y-87810702D01*
X150265795Y-87888112D01*
X150768957Y-88507388D02*
X150768957Y-89126664D01*
X150265795Y-89668531D02*
X150265795Y-89745940D01*
X150304500Y-89823350D01*
X150343204Y-89862055D01*
X150420614Y-89900760D01*
X150575433Y-89939464D01*
X150768957Y-89939464D01*
X150923776Y-89900760D01*
X151001185Y-89862055D01*
X151039890Y-89823350D01*
X151078595Y-89745940D01*
X151078595Y-89668531D01*
X151039890Y-89591121D01*
X151001185Y-89552417D01*
X150923776Y-89513712D01*
X150768957Y-89475007D01*
X150575433Y-89475007D01*
X150420614Y-89513712D01*
X150343204Y-89552417D01*
X150304500Y-89591121D01*
X150265795Y-89668531D01*
X150265795Y-90442626D02*
X150265795Y-90520036D01*
X150304500Y-90597445D01*
X150343204Y-90636150D01*
X150420614Y-90674855D01*
X150575433Y-90713560D01*
X150768957Y-90713560D01*
X150923776Y-90674855D01*
X151001185Y-90636150D01*
X151039890Y-90597445D01*
X151078595Y-90520036D01*
X151078595Y-90442626D01*
X151039890Y-90365217D01*
X151001185Y-90326512D01*
X150923776Y-90287807D01*
X150768957Y-90249102D01*
X150575433Y-90249102D01*
X150420614Y-90287807D01*
X150343204Y-90326512D01*
X150304500Y-90365217D01*
X150265795Y-90442626D01*
X150265795Y-91216721D02*
X150265795Y-91294131D01*
X150304500Y-91371540D01*
X150343204Y-91410245D01*
X150420614Y-91448950D01*
X150575433Y-91487655D01*
X150768957Y-91487655D01*
X150923776Y-91448950D01*
X151001185Y-91410245D01*
X151039890Y-91371540D01*
X151078595Y-91294131D01*
X151078595Y-91216721D01*
X151039890Y-91139312D01*
X151001185Y-91100607D01*
X150923776Y-91061902D01*
X150768957Y-91023198D01*
X150575433Y-91023198D01*
X150420614Y-91061902D01*
X150343204Y-91100607D01*
X150304500Y-91139312D01*
X150265795Y-91216721D01*
X150768957Y-91835998D02*
X150768957Y-92455274D01*
X150846366Y-92803617D02*
X150846366Y-93190664D01*
X151078595Y-92726207D02*
X150265795Y-92997140D01*
X151078595Y-93268074D01*
X150343204Y-93500302D02*
X150304500Y-93539007D01*
X150265795Y-93616417D01*
X150265795Y-93809940D01*
X150304500Y-93887350D01*
X150343204Y-93926055D01*
X150420614Y-93964760D01*
X150498023Y-93964760D01*
X150614138Y-93926055D01*
X151078595Y-93461598D01*
X151078595Y-93964760D01*
X152450195Y-79179540D02*
X152063147Y-78908607D01*
X152450195Y-78715083D02*
X151637395Y-78715083D01*
X151637395Y-79024721D01*
X151676100Y-79102131D01*
X151714804Y-79140836D01*
X151792214Y-79179540D01*
X151908328Y-79179540D01*
X151985738Y-79140836D01*
X152024442Y-79102131D01*
X152063147Y-79024721D01*
X152063147Y-78715083D01*
X152024442Y-79527883D02*
X152024442Y-79798817D01*
X152450195Y-79914931D02*
X152450195Y-79527883D01*
X151637395Y-79527883D01*
X151637395Y-79914931D01*
X151637395Y-80147160D02*
X152450195Y-80418093D01*
X151637395Y-80689026D01*
X152450195Y-80959960D02*
X151637395Y-80959960D01*
X152411490Y-81308302D02*
X152450195Y-81424417D01*
X152450195Y-81617940D01*
X152411490Y-81695350D01*
X152372785Y-81734055D01*
X152295376Y-81772760D01*
X152217966Y-81772760D01*
X152140557Y-81734055D01*
X152101852Y-81695350D01*
X152063147Y-81617940D01*
X152024442Y-81463121D01*
X151985738Y-81385712D01*
X151947033Y-81347007D01*
X151869623Y-81308302D01*
X151792214Y-81308302D01*
X151714804Y-81347007D01*
X151676100Y-81385712D01*
X151637395Y-81463121D01*
X151637395Y-81656645D01*
X151676100Y-81772760D01*
X152450195Y-82121102D02*
X151637395Y-82121102D01*
X151637395Y-82662969D02*
X151637395Y-82817788D01*
X151676100Y-82895198D01*
X151753509Y-82972607D01*
X151908328Y-83011312D01*
X152179261Y-83011312D01*
X152334080Y-82972607D01*
X152411490Y-82895198D01*
X152450195Y-82817788D01*
X152450195Y-82662969D01*
X152411490Y-82585560D01*
X152334080Y-82508150D01*
X152179261Y-82469445D01*
X151908328Y-82469445D01*
X151753509Y-82508150D01*
X151676100Y-82585560D01*
X151637395Y-82662969D01*
X152450195Y-83359655D02*
X151637395Y-83359655D01*
X152450195Y-83824112D01*
X151637395Y-83824112D01*
X152372785Y-84211160D02*
X152411490Y-84249864D01*
X152450195Y-84211160D01*
X152411490Y-84172455D01*
X152372785Y-84211160D01*
X152450195Y-84211160D01*
X151947033Y-84211160D02*
X151985738Y-84249864D01*
X152024442Y-84211160D01*
X151985738Y-84172455D01*
X151947033Y-84211160D01*
X152024442Y-84211160D01*
X152217966Y-85178779D02*
X152217966Y-85565826D01*
X152450195Y-85101369D02*
X151637395Y-85372302D01*
X152450195Y-85643236D01*
X153783090Y-78676379D02*
X153821795Y-78792493D01*
X153821795Y-78986017D01*
X153783090Y-79063426D01*
X153744385Y-79102131D01*
X153666976Y-79140836D01*
X153589566Y-79140836D01*
X153512157Y-79102131D01*
X153473452Y-79063426D01*
X153434747Y-78986017D01*
X153396042Y-78831198D01*
X153357338Y-78753788D01*
X153318633Y-78715083D01*
X153241223Y-78676379D01*
X153163814Y-78676379D01*
X153086404Y-78715083D01*
X153047700Y-78753788D01*
X153008995Y-78831198D01*
X153008995Y-79024721D01*
X153047700Y-79140836D01*
X152970290Y-80069750D02*
X154015319Y-79373064D01*
X153821795Y-80340683D02*
X153008995Y-80340683D01*
X153821795Y-80805140D01*
X153008995Y-80805140D01*
X153744385Y-81192188D02*
X153783090Y-81230893D01*
X153821795Y-81192188D01*
X153783090Y-81153483D01*
X153744385Y-81192188D01*
X153821795Y-81192188D01*
X153318633Y-81192188D02*
X153357338Y-81230893D01*
X153396042Y-81192188D01*
X153357338Y-81153483D01*
X153318633Y-81192188D01*
X153396042Y-81192188D01*
X149368328Y-78676379D02*
X149368328Y-79256950D01*
X149019985Y-78908607D02*
X150065014Y-78676379D01*
X149716671Y-79179540D02*
X149716671Y-78598969D01*
X150065014Y-78947312D02*
X149019985Y-79179540D01*
X149368328Y-79876226D02*
X149910195Y-79876226D01*
X149058690Y-79682702D02*
X149639261Y-79489179D01*
X149639261Y-79992340D01*
X149174804Y-80263274D02*
X149136100Y-80301979D01*
X149097395Y-80379388D01*
X149097395Y-80572912D01*
X149136100Y-80650321D01*
X149174804Y-80689026D01*
X149252214Y-80727731D01*
X149329623Y-80727731D01*
X149445738Y-80689026D01*
X149910195Y-80224569D01*
X149910195Y-80727731D01*
X149097395Y-81230893D02*
X149097395Y-81308302D01*
X149136100Y-81385712D01*
X149174804Y-81424417D01*
X149252214Y-81463121D01*
X149407033Y-81501826D01*
X149600557Y-81501826D01*
X149755376Y-81463121D01*
X149832785Y-81424417D01*
X149871490Y-81385712D01*
X149910195Y-81308302D01*
X149910195Y-81230893D01*
X149871490Y-81153483D01*
X149832785Y-81114779D01*
X149755376Y-81076074D01*
X149600557Y-81037369D01*
X149407033Y-81037369D01*
X149252214Y-81076074D01*
X149174804Y-81114779D01*
X149136100Y-81153483D01*
X149097395Y-81230893D01*
X149600557Y-81850169D02*
X149600557Y-82469445D01*
X149097395Y-83011312D02*
X149097395Y-83088721D01*
X149136100Y-83166131D01*
X149174804Y-83204836D01*
X149252214Y-83243540D01*
X149407033Y-83282245D01*
X149600557Y-83282245D01*
X149755376Y-83243540D01*
X149832785Y-83204836D01*
X149871490Y-83166131D01*
X149910195Y-83088721D01*
X149910195Y-83011312D01*
X149871490Y-82933902D01*
X149832785Y-82895198D01*
X149755376Y-82856493D01*
X149600557Y-82817788D01*
X149407033Y-82817788D01*
X149252214Y-82856493D01*
X149174804Y-82895198D01*
X149136100Y-82933902D01*
X149097395Y-83011312D01*
X149097395Y-83785407D02*
X149097395Y-83862817D01*
X149136100Y-83940226D01*
X149174804Y-83978931D01*
X149252214Y-84017636D01*
X149407033Y-84056340D01*
X149600557Y-84056340D01*
X149755376Y-84017636D01*
X149832785Y-83978931D01*
X149871490Y-83940226D01*
X149910195Y-83862817D01*
X149910195Y-83785407D01*
X149871490Y-83707998D01*
X149832785Y-83669293D01*
X149755376Y-83630588D01*
X149600557Y-83591883D01*
X149407033Y-83591883D01*
X149252214Y-83630588D01*
X149174804Y-83669293D01*
X149136100Y-83707998D01*
X149097395Y-83785407D01*
X149097395Y-84327274D02*
X149097395Y-84830436D01*
X149407033Y-84559502D01*
X149407033Y-84675617D01*
X149445738Y-84753026D01*
X149484442Y-84791731D01*
X149561852Y-84830436D01*
X149755376Y-84830436D01*
X149832785Y-84791731D01*
X149871490Y-84753026D01*
X149910195Y-84675617D01*
X149910195Y-84443388D01*
X149871490Y-84365979D01*
X149832785Y-84327274D01*
X149600557Y-85178779D02*
X149600557Y-85798055D01*
X149097395Y-86533445D02*
X149097395Y-86378626D01*
X149136100Y-86301217D01*
X149174804Y-86262512D01*
X149290919Y-86185102D01*
X149445738Y-86146398D01*
X149755376Y-86146398D01*
X149832785Y-86185102D01*
X149871490Y-86223807D01*
X149910195Y-86301217D01*
X149910195Y-86456036D01*
X149871490Y-86533445D01*
X149832785Y-86572150D01*
X149755376Y-86610855D01*
X149561852Y-86610855D01*
X149484442Y-86572150D01*
X149445738Y-86533445D01*
X149407033Y-86456036D01*
X149407033Y-86301217D01*
X149445738Y-86223807D01*
X149484442Y-86185102D01*
X149561852Y-86146398D01*
X149097395Y-87114017D02*
X149097395Y-87191426D01*
X149136100Y-87268836D01*
X149174804Y-87307540D01*
X149252214Y-87346245D01*
X149407033Y-87384950D01*
X149600557Y-87384950D01*
X149755376Y-87346245D01*
X149832785Y-87307540D01*
X149871490Y-87268836D01*
X149910195Y-87191426D01*
X149910195Y-87114017D01*
X149871490Y-87036607D01*
X149832785Y-86997902D01*
X149755376Y-86959198D01*
X149600557Y-86920493D01*
X149407033Y-86920493D01*
X149252214Y-86959198D01*
X149174804Y-86997902D01*
X149136100Y-87036607D01*
X149097395Y-87114017D01*
X149097395Y-87888112D02*
X149097395Y-87965521D01*
X149136100Y-88042931D01*
X149174804Y-88081636D01*
X149252214Y-88120340D01*
X149407033Y-88159045D01*
X149600557Y-88159045D01*
X149755376Y-88120340D01*
X149832785Y-88081636D01*
X149871490Y-88042931D01*
X149910195Y-87965521D01*
X149910195Y-87888112D01*
X149871490Y-87810702D01*
X149832785Y-87771998D01*
X149755376Y-87733293D01*
X149600557Y-87694588D01*
X149407033Y-87694588D01*
X149252214Y-87733293D01*
X149174804Y-87771998D01*
X149136100Y-87810702D01*
X149097395Y-87888112D01*
X149600557Y-88507388D02*
X149600557Y-89126664D01*
X149097395Y-89668531D02*
X149097395Y-89745940D01*
X149136100Y-89823350D01*
X149174804Y-89862055D01*
X149252214Y-89900760D01*
X149407033Y-89939464D01*
X149600557Y-89939464D01*
X149755376Y-89900760D01*
X149832785Y-89862055D01*
X149871490Y-89823350D01*
X149910195Y-89745940D01*
X149910195Y-89668531D01*
X149871490Y-89591121D01*
X149832785Y-89552417D01*
X149755376Y-89513712D01*
X149600557Y-89475007D01*
X149407033Y-89475007D01*
X149252214Y-89513712D01*
X149174804Y-89552417D01*
X149136100Y-89591121D01*
X149097395Y-89668531D01*
X149097395Y-90442626D02*
X149097395Y-90520036D01*
X149136100Y-90597445D01*
X149174804Y-90636150D01*
X149252214Y-90674855D01*
X149407033Y-90713560D01*
X149600557Y-90713560D01*
X149755376Y-90674855D01*
X149832785Y-90636150D01*
X149871490Y-90597445D01*
X149910195Y-90520036D01*
X149910195Y-90442626D01*
X149871490Y-90365217D01*
X149832785Y-90326512D01*
X149755376Y-90287807D01*
X149600557Y-90249102D01*
X149407033Y-90249102D01*
X149252214Y-90287807D01*
X149174804Y-90326512D01*
X149136100Y-90365217D01*
X149097395Y-90442626D01*
X149097395Y-91216721D02*
X149097395Y-91294131D01*
X149136100Y-91371540D01*
X149174804Y-91410245D01*
X149252214Y-91448950D01*
X149407033Y-91487655D01*
X149600557Y-91487655D01*
X149755376Y-91448950D01*
X149832785Y-91410245D01*
X149871490Y-91371540D01*
X149910195Y-91294131D01*
X149910195Y-91216721D01*
X149871490Y-91139312D01*
X149832785Y-91100607D01*
X149755376Y-91061902D01*
X149600557Y-91023198D01*
X149407033Y-91023198D01*
X149252214Y-91061902D01*
X149174804Y-91100607D01*
X149136100Y-91139312D01*
X149097395Y-91216721D01*
D11*
X149225000Y-96202500D02*
G75*
G02X148590000Y-95567500I0J635000D01*
G01*
X148590000Y-78422500D02*
G75*
G02X149225000Y-77787500I635000J0D01*
G01*
X161290000Y-77787500D02*
G75*
G02X161925000Y-78422500I0J-635000D01*
G01*
X161925000Y-95567500D02*
G75*
G02X161290000Y-96202500I-635000J0D01*
G01*
X161290000Y-77787500D02*
X149225000Y-77787500D01*
X161925000Y-95567500D02*
X161925000Y-78422500D01*
X149225000Y-96202500D02*
X161290000Y-96202500D01*
X148590000Y-78422500D02*
X148590000Y-95567500D01*
D12*
X154190000Y-89495000D03*
D13*
X154940000Y-84495000D03*
D14*
G36*
X156199802Y-87445482D02*
G01*
X156209509Y-87446921D01*
X156219028Y-87449306D01*
X156228268Y-87452612D01*
X156237140Y-87456808D01*
X156245557Y-87461853D01*
X156253439Y-87467699D01*
X156260711Y-87474289D01*
X156267301Y-87481561D01*
X156273147Y-87489443D01*
X156278192Y-87497860D01*
X156282388Y-87506732D01*
X156285694Y-87515972D01*
X156288079Y-87525491D01*
X156289518Y-87535198D01*
X156290000Y-87545000D01*
X156290000Y-87745000D01*
X156289518Y-87754802D01*
X156288079Y-87764509D01*
X156285694Y-87774028D01*
X156282388Y-87783268D01*
X156278192Y-87792140D01*
X156273147Y-87800557D01*
X156267301Y-87808439D01*
X156260711Y-87815711D01*
X156253439Y-87822301D01*
X156245557Y-87828147D01*
X156237140Y-87833192D01*
X156228268Y-87837388D01*
X156219028Y-87840694D01*
X156209509Y-87843079D01*
X156199802Y-87844518D01*
X156190000Y-87845000D01*
X155790000Y-87845000D01*
X155780198Y-87844518D01*
X155770491Y-87843079D01*
X155760972Y-87840694D01*
X155751732Y-87837388D01*
X155742860Y-87833192D01*
X155734443Y-87828147D01*
X155726561Y-87822301D01*
X155719289Y-87815711D01*
X155712699Y-87808439D01*
X155706853Y-87800557D01*
X155701808Y-87792140D01*
X155697612Y-87783268D01*
X155694306Y-87774028D01*
X155691921Y-87764509D01*
X155690482Y-87754802D01*
X155690000Y-87745000D01*
X155690000Y-87545000D01*
X155690482Y-87535198D01*
X155691921Y-87525491D01*
X155694306Y-87515972D01*
X155697612Y-87506732D01*
X155701808Y-87497860D01*
X155706853Y-87489443D01*
X155712699Y-87481561D01*
X155719289Y-87474289D01*
X155726561Y-87467699D01*
X155734443Y-87461853D01*
X155742860Y-87456808D01*
X155751732Y-87452612D01*
X155760972Y-87449306D01*
X155770491Y-87446921D01*
X155780198Y-87445482D01*
X155790000Y-87445000D01*
X156190000Y-87445000D01*
X156199802Y-87445482D01*
X156199802Y-87445482D01*
G37*
D15*
X155990000Y-87645000D03*
D14*
G36*
X156199802Y-86145482D02*
G01*
X156209509Y-86146921D01*
X156219028Y-86149306D01*
X156228268Y-86152612D01*
X156237140Y-86156808D01*
X156245557Y-86161853D01*
X156253439Y-86167699D01*
X156260711Y-86174289D01*
X156267301Y-86181561D01*
X156273147Y-86189443D01*
X156278192Y-86197860D01*
X156282388Y-86206732D01*
X156285694Y-86215972D01*
X156288079Y-86225491D01*
X156289518Y-86235198D01*
X156290000Y-86245000D01*
X156290000Y-86445000D01*
X156289518Y-86454802D01*
X156288079Y-86464509D01*
X156285694Y-86474028D01*
X156282388Y-86483268D01*
X156278192Y-86492140D01*
X156273147Y-86500557D01*
X156267301Y-86508439D01*
X156260711Y-86515711D01*
X156253439Y-86522301D01*
X156245557Y-86528147D01*
X156237140Y-86533192D01*
X156228268Y-86537388D01*
X156219028Y-86540694D01*
X156209509Y-86543079D01*
X156199802Y-86544518D01*
X156190000Y-86545000D01*
X155790000Y-86545000D01*
X155780198Y-86544518D01*
X155770491Y-86543079D01*
X155760972Y-86540694D01*
X155751732Y-86537388D01*
X155742860Y-86533192D01*
X155734443Y-86528147D01*
X155726561Y-86522301D01*
X155719289Y-86515711D01*
X155712699Y-86508439D01*
X155706853Y-86500557D01*
X155701808Y-86492140D01*
X155697612Y-86483268D01*
X155694306Y-86474028D01*
X155691921Y-86464509D01*
X155690482Y-86454802D01*
X155690000Y-86445000D01*
X155690000Y-86245000D01*
X155690482Y-86235198D01*
X155691921Y-86225491D01*
X155694306Y-86215972D01*
X155697612Y-86206732D01*
X155701808Y-86197860D01*
X155706853Y-86189443D01*
X155712699Y-86181561D01*
X155719289Y-86174289D01*
X155726561Y-86167699D01*
X155734443Y-86161853D01*
X155742860Y-86156808D01*
X155751732Y-86152612D01*
X155760972Y-86149306D01*
X155770491Y-86146921D01*
X155780198Y-86145482D01*
X155790000Y-86145000D01*
X156190000Y-86145000D01*
X156199802Y-86145482D01*
X156199802Y-86145482D01*
G37*
D15*
X155990000Y-86345000D03*
D14*
G36*
X154099802Y-86795482D02*
G01*
X154109509Y-86796921D01*
X154119028Y-86799306D01*
X154128268Y-86802612D01*
X154137140Y-86806808D01*
X154145557Y-86811853D01*
X154153439Y-86817699D01*
X154160711Y-86824289D01*
X154167301Y-86831561D01*
X154173147Y-86839443D01*
X154178192Y-86847860D01*
X154182388Y-86856732D01*
X154185694Y-86865972D01*
X154188079Y-86875491D01*
X154189518Y-86885198D01*
X154190000Y-86895000D01*
X154190000Y-87095000D01*
X154189518Y-87104802D01*
X154188079Y-87114509D01*
X154185694Y-87124028D01*
X154182388Y-87133268D01*
X154178192Y-87142140D01*
X154173147Y-87150557D01*
X154167301Y-87158439D01*
X154160711Y-87165711D01*
X154153439Y-87172301D01*
X154145557Y-87178147D01*
X154137140Y-87183192D01*
X154128268Y-87187388D01*
X154119028Y-87190694D01*
X154109509Y-87193079D01*
X154099802Y-87194518D01*
X154090000Y-87195000D01*
X153690000Y-87195000D01*
X153680198Y-87194518D01*
X153670491Y-87193079D01*
X153660972Y-87190694D01*
X153651732Y-87187388D01*
X153642860Y-87183192D01*
X153634443Y-87178147D01*
X153626561Y-87172301D01*
X153619289Y-87165711D01*
X153612699Y-87158439D01*
X153606853Y-87150557D01*
X153601808Y-87142140D01*
X153597612Y-87133268D01*
X153594306Y-87124028D01*
X153591921Y-87114509D01*
X153590482Y-87104802D01*
X153590000Y-87095000D01*
X153590000Y-86895000D01*
X153590482Y-86885198D01*
X153591921Y-86875491D01*
X153594306Y-86865972D01*
X153597612Y-86856732D01*
X153601808Y-86847860D01*
X153606853Y-86839443D01*
X153612699Y-86831561D01*
X153619289Y-86824289D01*
X153626561Y-86817699D01*
X153634443Y-86811853D01*
X153642860Y-86806808D01*
X153651732Y-86802612D01*
X153660972Y-86799306D01*
X153670491Y-86796921D01*
X153680198Y-86795482D01*
X153690000Y-86795000D01*
X154090000Y-86795000D01*
X154099802Y-86795482D01*
X154099802Y-86795482D01*
G37*
D15*
X153890000Y-86995000D03*
D14*
G36*
X156199802Y-86795482D02*
G01*
X156209509Y-86796921D01*
X156219028Y-86799306D01*
X156228268Y-86802612D01*
X156237140Y-86806808D01*
X156245557Y-86811853D01*
X156253439Y-86817699D01*
X156260711Y-86824289D01*
X156267301Y-86831561D01*
X156273147Y-86839443D01*
X156278192Y-86847860D01*
X156282388Y-86856732D01*
X156285694Y-86865972D01*
X156288079Y-86875491D01*
X156289518Y-86885198D01*
X156290000Y-86895000D01*
X156290000Y-87095000D01*
X156289518Y-87104802D01*
X156288079Y-87114509D01*
X156285694Y-87124028D01*
X156282388Y-87133268D01*
X156278192Y-87142140D01*
X156273147Y-87150557D01*
X156267301Y-87158439D01*
X156260711Y-87165711D01*
X156253439Y-87172301D01*
X156245557Y-87178147D01*
X156237140Y-87183192D01*
X156228268Y-87187388D01*
X156219028Y-87190694D01*
X156209509Y-87193079D01*
X156199802Y-87194518D01*
X156190000Y-87195000D01*
X155790000Y-87195000D01*
X155780198Y-87194518D01*
X155770491Y-87193079D01*
X155760972Y-87190694D01*
X155751732Y-87187388D01*
X155742860Y-87183192D01*
X155734443Y-87178147D01*
X155726561Y-87172301D01*
X155719289Y-87165711D01*
X155712699Y-87158439D01*
X155706853Y-87150557D01*
X155701808Y-87142140D01*
X155697612Y-87133268D01*
X155694306Y-87124028D01*
X155691921Y-87114509D01*
X155690482Y-87104802D01*
X155690000Y-87095000D01*
X155690000Y-86895000D01*
X155690482Y-86885198D01*
X155691921Y-86875491D01*
X155694306Y-86865972D01*
X155697612Y-86856732D01*
X155701808Y-86847860D01*
X155706853Y-86839443D01*
X155712699Y-86831561D01*
X155719289Y-86824289D01*
X155726561Y-86817699D01*
X155734443Y-86811853D01*
X155742860Y-86806808D01*
X155751732Y-86802612D01*
X155760972Y-86799306D01*
X155770491Y-86796921D01*
X155780198Y-86795482D01*
X155790000Y-86795000D01*
X156190000Y-86795000D01*
X156199802Y-86795482D01*
X156199802Y-86795482D01*
G37*
D15*
X155990000Y-86995000D03*
D14*
G36*
X154099802Y-86145482D02*
G01*
X154109509Y-86146921D01*
X154119028Y-86149306D01*
X154128268Y-86152612D01*
X154137140Y-86156808D01*
X154145557Y-86161853D01*
X154153439Y-86167699D01*
X154160711Y-86174289D01*
X154167301Y-86181561D01*
X154173147Y-86189443D01*
X154178192Y-86197860D01*
X154182388Y-86206732D01*
X154185694Y-86215972D01*
X154188079Y-86225491D01*
X154189518Y-86235198D01*
X154190000Y-86245000D01*
X154190000Y-86445000D01*
X154189518Y-86454802D01*
X154188079Y-86464509D01*
X154185694Y-86474028D01*
X154182388Y-86483268D01*
X154178192Y-86492140D01*
X154173147Y-86500557D01*
X154167301Y-86508439D01*
X154160711Y-86515711D01*
X154153439Y-86522301D01*
X154145557Y-86528147D01*
X154137140Y-86533192D01*
X154128268Y-86537388D01*
X154119028Y-86540694D01*
X154109509Y-86543079D01*
X154099802Y-86544518D01*
X154090000Y-86545000D01*
X153690000Y-86545000D01*
X153680198Y-86544518D01*
X153670491Y-86543079D01*
X153660972Y-86540694D01*
X153651732Y-86537388D01*
X153642860Y-86533192D01*
X153634443Y-86528147D01*
X153626561Y-86522301D01*
X153619289Y-86515711D01*
X153612699Y-86508439D01*
X153606853Y-86500557D01*
X153601808Y-86492140D01*
X153597612Y-86483268D01*
X153594306Y-86474028D01*
X153591921Y-86464509D01*
X153590482Y-86454802D01*
X153590000Y-86445000D01*
X153590000Y-86245000D01*
X153590482Y-86235198D01*
X153591921Y-86225491D01*
X153594306Y-86215972D01*
X153597612Y-86206732D01*
X153601808Y-86197860D01*
X153606853Y-86189443D01*
X153612699Y-86181561D01*
X153619289Y-86174289D01*
X153626561Y-86167699D01*
X153634443Y-86161853D01*
X153642860Y-86156808D01*
X153651732Y-86152612D01*
X153660972Y-86149306D01*
X153670491Y-86146921D01*
X153680198Y-86145482D01*
X153690000Y-86145000D01*
X154090000Y-86145000D01*
X154099802Y-86145482D01*
X154099802Y-86145482D01*
G37*
D15*
X153890000Y-86345000D03*
D14*
G36*
X154099802Y-87445482D02*
G01*
X154109509Y-87446921D01*
X154119028Y-87449306D01*
X154128268Y-87452612D01*
X154137140Y-87456808D01*
X154145557Y-87461853D01*
X154153439Y-87467699D01*
X154160711Y-87474289D01*
X154167301Y-87481561D01*
X154173147Y-87489443D01*
X154178192Y-87497860D01*
X154182388Y-87506732D01*
X154185694Y-87515972D01*
X154188079Y-87525491D01*
X154189518Y-87535198D01*
X154190000Y-87545000D01*
X154190000Y-87745000D01*
X154189518Y-87754802D01*
X154188079Y-87764509D01*
X154185694Y-87774028D01*
X154182388Y-87783268D01*
X154178192Y-87792140D01*
X154173147Y-87800557D01*
X154167301Y-87808439D01*
X154160711Y-87815711D01*
X154153439Y-87822301D01*
X154145557Y-87828147D01*
X154137140Y-87833192D01*
X154128268Y-87837388D01*
X154119028Y-87840694D01*
X154109509Y-87843079D01*
X154099802Y-87844518D01*
X154090000Y-87845000D01*
X153690000Y-87845000D01*
X153680198Y-87844518D01*
X153670491Y-87843079D01*
X153660972Y-87840694D01*
X153651732Y-87837388D01*
X153642860Y-87833192D01*
X153634443Y-87828147D01*
X153626561Y-87822301D01*
X153619289Y-87815711D01*
X153612699Y-87808439D01*
X153606853Y-87800557D01*
X153601808Y-87792140D01*
X153597612Y-87783268D01*
X153594306Y-87774028D01*
X153591921Y-87764509D01*
X153590482Y-87754802D01*
X153590000Y-87745000D01*
X153590000Y-87545000D01*
X153590482Y-87535198D01*
X153591921Y-87525491D01*
X153594306Y-87515972D01*
X153597612Y-87506732D01*
X153601808Y-87497860D01*
X153606853Y-87489443D01*
X153612699Y-87481561D01*
X153619289Y-87474289D01*
X153626561Y-87467699D01*
X153634443Y-87461853D01*
X153642860Y-87456808D01*
X153651732Y-87452612D01*
X153660972Y-87449306D01*
X153670491Y-87446921D01*
X153680198Y-87445482D01*
X153690000Y-87445000D01*
X154090000Y-87445000D01*
X154099802Y-87445482D01*
X154099802Y-87445482D01*
G37*
D15*
X153890000Y-87645000D03*
D16*
X157861000Y-86995000D03*
D17*
X153890000Y-87645000D02*
X153890000Y-86995000D01*
X154925000Y-87645000D02*
X154940000Y-89495000D01*
X153890000Y-87645000D02*
X154925000Y-87645000D01*
X155990000Y-86995000D02*
X155990000Y-87645000D01*
X155990000Y-87645000D02*
X154925000Y-87645000D01*
X155990000Y-86345000D02*
X156845000Y-86360000D01*
X156845000Y-86360000D02*
X157353000Y-86614000D01*
X157353000Y-86614000D02*
X157861000Y-86995000D01*
X154940000Y-84040000D02*
X154290000Y-84040000D01*
X153890000Y-86345000D02*
X153924000Y-85852000D01*
X153924000Y-85852000D02*
X154940000Y-84495000D01*
M02*
