G04 #@! TF.GenerationSoftware,KiCad,Pcbnew,(5.1.4)-1*
G04 #@! TF.CreationDate,2020-01-02T18:36:30+01:00*
G04 #@! TF.ProjectId,#610-000,23363130-2d30-4303-902e-6b696361645f,rev?*
G04 #@! TF.SameCoordinates,Original*
G04 #@! TF.FileFunction,Legend,Top*
G04 #@! TF.FilePolarity,Positive*
%FSLAX46Y46*%
G04 Gerber Fmt 4.6, Leading zero omitted, Abs format (unit mm)*
G04 Created by KiCad (PCBNEW (5.1.4)-1) date 2020-01-02 18:36:30*
%MOMM*%
%LPD*%
G04 APERTURE LIST*
%ADD10C,0.050000*%
%ADD11C,0.152400*%
G04 APERTURE END LIST*
D10*
X149225000Y-96202500D02*
G75*
G02X148590000Y-95567500I0J635000D01*
G01*
X148590000Y-78422500D02*
G75*
G02X149225000Y-77787500I635000J0D01*
G01*
X161290000Y-77787500D02*
G75*
G02X161925000Y-78422500I0J-635000D01*
G01*
X161925000Y-95567500D02*
G75*
G02X161290000Y-96202500I-635000J0D01*
G01*
X161290000Y-77787500D02*
X149225000Y-77787500D01*
X161925000Y-95567500D02*
X161925000Y-78422500D01*
X149225000Y-96202500D02*
X161290000Y-96202500D01*
X148590000Y-78422500D02*
X148590000Y-95567500D01*
D11*
X151185638Y-85597395D02*
X151185638Y-86177966D01*
X151146933Y-86294080D01*
X151069523Y-86371490D01*
X150953409Y-86410195D01*
X150876000Y-86410195D01*
X151959733Y-86410195D02*
X151572685Y-86410195D01*
X151572685Y-85597395D01*
X152695123Y-86332785D02*
X152656419Y-86371490D01*
X152540304Y-86410195D01*
X152462895Y-86410195D01*
X152346780Y-86371490D01*
X152269371Y-86294080D01*
X152230666Y-86216671D01*
X152191961Y-86061852D01*
X152191961Y-85945738D01*
X152230666Y-85790919D01*
X152269371Y-85713509D01*
X152346780Y-85636100D01*
X152462895Y-85597395D01*
X152540304Y-85597395D01*
X152656419Y-85636100D01*
X152695123Y-85674804D01*
X153275695Y-85597395D02*
X153275695Y-86177966D01*
X153236990Y-86294080D01*
X153159580Y-86371490D01*
X153043466Y-86410195D01*
X152966057Y-86410195D01*
X154049790Y-86410195D02*
X153662742Y-86410195D01*
X153662742Y-85597395D01*
X154785180Y-86332785D02*
X154746476Y-86371490D01*
X154630361Y-86410195D01*
X154552952Y-86410195D01*
X154436838Y-86371490D01*
X154359428Y-86294080D01*
X154320723Y-86216671D01*
X154282019Y-86061852D01*
X154282019Y-85945738D01*
X154320723Y-85790919D01*
X154359428Y-85713509D01*
X154436838Y-85636100D01*
X154552952Y-85597395D01*
X154630361Y-85597395D01*
X154746476Y-85636100D01*
X154785180Y-85674804D01*
X155365752Y-85597395D02*
X155365752Y-86177966D01*
X155327047Y-86294080D01*
X155249638Y-86371490D01*
X155133523Y-86410195D01*
X155056114Y-86410195D01*
X156139847Y-86410195D02*
X155752800Y-86410195D01*
X155752800Y-85597395D01*
X156875238Y-86332785D02*
X156836533Y-86371490D01*
X156720419Y-86410195D01*
X156643009Y-86410195D01*
X156526895Y-86371490D01*
X156449485Y-86294080D01*
X156410780Y-86216671D01*
X156372076Y-86061852D01*
X156372076Y-85945738D01*
X156410780Y-85790919D01*
X156449485Y-85713509D01*
X156526895Y-85636100D01*
X156643009Y-85597395D01*
X156720419Y-85597395D01*
X156836533Y-85636100D01*
X156875238Y-85674804D01*
X157455809Y-85597395D02*
X157455809Y-86177966D01*
X157417104Y-86294080D01*
X157339695Y-86371490D01*
X157223580Y-86410195D01*
X157146171Y-86410195D01*
X158229904Y-86410195D02*
X157842857Y-86410195D01*
X157842857Y-85597395D01*
X158965295Y-86332785D02*
X158926590Y-86371490D01*
X158810476Y-86410195D01*
X158733066Y-86410195D01*
X158616952Y-86371490D01*
X158539542Y-86294080D01*
X158500838Y-86216671D01*
X158462133Y-86061852D01*
X158462133Y-85945738D01*
X158500838Y-85790919D01*
X158539542Y-85713509D01*
X158616952Y-85636100D01*
X158733066Y-85597395D01*
X158810476Y-85597395D01*
X158926590Y-85636100D01*
X158965295Y-85674804D01*
M02*
