G04 #@! TF.GenerationSoftware,KiCad,Pcbnew,(5.1.4)-1*
G04 #@! TF.CreationDate,2020-01-02T18:36:30+01:00*
G04 #@! TF.ProjectId,#610-000,23363130-2d30-4303-902e-6b696361645f,rev?*
G04 #@! TF.SameCoordinates,Original*
G04 #@! TF.FileFunction,Copper,L1,Top*
G04 #@! TF.FilePolarity,Positive*
%FSLAX46Y46*%
G04 Gerber Fmt 4.6, Leading zero omitted, Abs format (unit mm)*
G04 Created by KiCad (PCBNEW (5.1.4)-1) date 2020-01-02 18:36:30*
%MOMM*%
%LPD*%
G04 APERTURE LIST*
%ADD10C,0.050000*%
%ADD11C,1.600000*%
%ADD12O,5.500000X2.000000*%
%ADD13O,4.000000X2.000000*%
%ADD14C,0.800000*%
%ADD15C,0.350000*%
%ADD16C,0.152400*%
G04 APERTURE END LIST*
D10*
X149225000Y-96202500D02*
G75*
G02X148590000Y-95567500I0J635000D01*
G01*
X148590000Y-78422500D02*
G75*
G02X149225000Y-77787500I635000J0D01*
G01*
X161290000Y-77787500D02*
G75*
G02X161925000Y-78422500I0J-635000D01*
G01*
X161925000Y-95567500D02*
G75*
G02X161290000Y-96202500I-635000J0D01*
G01*
X161290000Y-77787500D02*
X149225000Y-77787500D01*
X161925000Y-95567500D02*
X161925000Y-78422500D01*
X149225000Y-96202500D02*
X161290000Y-96202500D01*
X148590000Y-78422500D02*
X148590000Y-95567500D01*
D11*
X158432500Y-93662500D03*
X158432500Y-80327500D03*
D12*
X154190000Y-89495000D03*
D13*
X154940000Y-84495000D03*
D11*
X158432500Y-84455000D03*
X158432500Y-89535000D03*
D14*
X157861000Y-86995000D03*
D15*
X157861000Y-86995000D02*
X158242000Y-87884000D01*
X158242000Y-87884000D02*
X158369000Y-88646000D01*
X158369000Y-88646000D02*
X158432500Y-89535000D01*
D16*
G36*
X161363847Y-78049557D02*
G01*
X161434878Y-78071002D01*
X161500392Y-78105837D01*
X161557892Y-78152734D01*
X161605187Y-78209904D01*
X161640477Y-78275172D01*
X161662418Y-78346054D01*
X161671401Y-78431515D01*
X161671400Y-95555095D01*
X161662943Y-95641348D01*
X161641499Y-95712375D01*
X161606665Y-95777889D01*
X161559768Y-95835390D01*
X161502598Y-95882686D01*
X161437328Y-95917977D01*
X161366446Y-95939918D01*
X161280995Y-95948900D01*
X149237405Y-95948900D01*
X149151152Y-95940443D01*
X149080125Y-95918999D01*
X149014611Y-95884165D01*
X148957110Y-95837268D01*
X148909814Y-95780098D01*
X148874523Y-95714828D01*
X148852582Y-95643946D01*
X148843600Y-95558495D01*
X148843600Y-94932500D01*
X159105375Y-94932500D01*
X159119443Y-95075331D01*
X159161105Y-95212672D01*
X159228760Y-95339247D01*
X159319809Y-95450191D01*
X159430753Y-95541240D01*
X159557328Y-95608895D01*
X159694669Y-95650557D01*
X159801711Y-95661100D01*
X160873289Y-95661100D01*
X160980331Y-95650557D01*
X161117672Y-95608895D01*
X161244247Y-95541240D01*
X161355191Y-95450191D01*
X161446240Y-95339247D01*
X161513895Y-95212672D01*
X161555557Y-95075331D01*
X161569625Y-94932500D01*
X161555557Y-94789669D01*
X161513895Y-94652328D01*
X161446240Y-94525753D01*
X161355191Y-94414809D01*
X161244247Y-94323760D01*
X161117672Y-94256105D01*
X160980331Y-94214443D01*
X160873289Y-94203900D01*
X159801711Y-94203900D01*
X159694669Y-94214443D01*
X159557328Y-94256105D01*
X159430753Y-94323760D01*
X159319809Y-94414809D01*
X159228760Y-94525753D01*
X159161105Y-94652328D01*
X159119443Y-94789669D01*
X159105375Y-94932500D01*
X148843600Y-94932500D01*
X148843600Y-94388259D01*
X157779290Y-94388259D01*
X157867230Y-94527804D01*
X158046904Y-94621456D01*
X158241396Y-94678256D01*
X158443232Y-94696021D01*
X158644656Y-94674069D01*
X158837927Y-94613242D01*
X158997770Y-94527804D01*
X159085710Y-94388259D01*
X158432500Y-93735049D01*
X157779290Y-94388259D01*
X148843600Y-94388259D01*
X148843600Y-93673232D01*
X157398979Y-93673232D01*
X157420931Y-93874656D01*
X157481758Y-94067927D01*
X157567196Y-94227770D01*
X157706741Y-94315710D01*
X158359951Y-93662500D01*
X158505049Y-93662500D01*
X159158259Y-94315710D01*
X159297804Y-94227770D01*
X159391456Y-94048096D01*
X159448256Y-93853604D01*
X159466021Y-93651768D01*
X159444069Y-93450344D01*
X159383242Y-93257073D01*
X159297804Y-93097230D01*
X159158259Y-93009290D01*
X158505049Y-93662500D01*
X158359951Y-93662500D01*
X157706741Y-93009290D01*
X157567196Y-93097230D01*
X157473544Y-93276904D01*
X157416744Y-93471396D01*
X157398979Y-93673232D01*
X148843600Y-93673232D01*
X148843600Y-92936741D01*
X157779290Y-92936741D01*
X158432500Y-93589951D01*
X159085710Y-92936741D01*
X158997770Y-92797196D01*
X158818096Y-92703544D01*
X158623604Y-92646744D01*
X158421768Y-92628979D01*
X158220344Y-92650931D01*
X158027073Y-92711758D01*
X157867230Y-92797196D01*
X157779290Y-92936741D01*
X148843600Y-92936741D01*
X148843600Y-92392500D01*
X159105375Y-92392500D01*
X159119443Y-92535331D01*
X159161105Y-92672672D01*
X159228760Y-92799247D01*
X159319809Y-92910191D01*
X159430753Y-93001240D01*
X159557328Y-93068895D01*
X159694669Y-93110557D01*
X159801711Y-93121100D01*
X160873289Y-93121100D01*
X160980331Y-93110557D01*
X161117672Y-93068895D01*
X161244247Y-93001240D01*
X161355191Y-92910191D01*
X161446240Y-92799247D01*
X161513895Y-92672672D01*
X161555557Y-92535331D01*
X161569625Y-92392500D01*
X161555557Y-92249669D01*
X161513895Y-92112328D01*
X161446240Y-91985753D01*
X161355191Y-91874809D01*
X161244247Y-91783760D01*
X161117672Y-91716105D01*
X160980331Y-91674443D01*
X160873289Y-91663900D01*
X159801711Y-91663900D01*
X159694669Y-91674443D01*
X159557328Y-91716105D01*
X159430753Y-91783760D01*
X159319809Y-91874809D01*
X159228760Y-91985753D01*
X159161105Y-92112328D01*
X159119443Y-92249669D01*
X159105375Y-92392500D01*
X148843600Y-92392500D01*
X148843600Y-90805000D01*
X159105375Y-90805000D01*
X159119443Y-90947831D01*
X159161105Y-91085172D01*
X159228760Y-91211747D01*
X159319809Y-91322691D01*
X159430753Y-91413740D01*
X159557328Y-91481395D01*
X159694669Y-91523057D01*
X159801711Y-91533600D01*
X160873289Y-91533600D01*
X160980331Y-91523057D01*
X161117672Y-91481395D01*
X161244247Y-91413740D01*
X161355191Y-91322691D01*
X161446240Y-91211747D01*
X161513895Y-91085172D01*
X161555557Y-90947831D01*
X161569625Y-90805000D01*
X161555557Y-90662169D01*
X161513895Y-90524828D01*
X161446240Y-90398253D01*
X161355191Y-90287309D01*
X161244247Y-90196260D01*
X161117672Y-90128605D01*
X160980331Y-90086943D01*
X160873289Y-90076400D01*
X159801711Y-90076400D01*
X159694669Y-90086943D01*
X159557328Y-90128605D01*
X159430753Y-90196260D01*
X159319809Y-90287309D01*
X159228760Y-90398253D01*
X159161105Y-90524828D01*
X159119443Y-90662169D01*
X159105375Y-90805000D01*
X148843600Y-90805000D01*
X148843600Y-89495000D01*
X151205456Y-89495000D01*
X151229177Y-89735848D01*
X151299430Y-89967440D01*
X151413514Y-90180876D01*
X151567046Y-90367954D01*
X151754124Y-90521486D01*
X151967560Y-90635570D01*
X152199152Y-90705823D01*
X152379648Y-90723600D01*
X156000352Y-90723600D01*
X156180848Y-90705823D01*
X156412440Y-90635570D01*
X156625876Y-90521486D01*
X156812954Y-90367954D01*
X156966486Y-90180876D01*
X157080570Y-89967440D01*
X157150823Y-89735848D01*
X157174544Y-89495000D01*
X157150823Y-89254152D01*
X157080570Y-89022560D01*
X156966486Y-88809124D01*
X156812954Y-88622046D01*
X156625876Y-88468514D01*
X156412440Y-88354430D01*
X156180848Y-88284177D01*
X156000352Y-88266400D01*
X152379648Y-88266400D01*
X152199152Y-88284177D01*
X151967560Y-88354430D01*
X151754124Y-88468514D01*
X151567046Y-88622046D01*
X151413514Y-88809124D01*
X151299430Y-89022560D01*
X151229177Y-89254152D01*
X151205456Y-89495000D01*
X148843600Y-89495000D01*
X148843600Y-86933088D01*
X157232400Y-86933088D01*
X157232400Y-87056912D01*
X157256556Y-87178356D01*
X157303941Y-87292754D01*
X157372734Y-87395709D01*
X157460291Y-87483266D01*
X157563246Y-87552059D01*
X157677644Y-87599444D01*
X157681251Y-87600162D01*
X157851885Y-87998308D01*
X157955380Y-88619280D01*
X157945275Y-88623466D01*
X157776806Y-88736034D01*
X157633534Y-88879306D01*
X157520966Y-89047775D01*
X157443428Y-89234968D01*
X157403900Y-89433692D01*
X157403900Y-89636308D01*
X157443428Y-89835032D01*
X157520966Y-90022225D01*
X157633534Y-90190694D01*
X157776806Y-90333966D01*
X157945275Y-90446534D01*
X158132468Y-90524072D01*
X158331192Y-90563600D01*
X158533808Y-90563600D01*
X158732532Y-90524072D01*
X158919725Y-90446534D01*
X159088194Y-90333966D01*
X159231466Y-90190694D01*
X159344034Y-90022225D01*
X159421572Y-89835032D01*
X159461100Y-89636308D01*
X159461100Y-89433692D01*
X159421572Y-89234968D01*
X159344034Y-89047775D01*
X159231466Y-88879306D01*
X159088194Y-88736034D01*
X158919725Y-88623466D01*
X158763635Y-88558811D01*
X158714667Y-88265000D01*
X159105375Y-88265000D01*
X159119443Y-88407831D01*
X159161105Y-88545172D01*
X159228760Y-88671747D01*
X159319809Y-88782691D01*
X159430753Y-88873740D01*
X159557328Y-88941395D01*
X159694669Y-88983057D01*
X159801711Y-88993600D01*
X160873289Y-88993600D01*
X160980331Y-88983057D01*
X161117672Y-88941395D01*
X161244247Y-88873740D01*
X161355191Y-88782691D01*
X161446240Y-88671747D01*
X161513895Y-88545172D01*
X161555557Y-88407831D01*
X161569625Y-88265000D01*
X161555557Y-88122169D01*
X161513895Y-87984828D01*
X161446240Y-87858253D01*
X161355191Y-87747309D01*
X161244247Y-87656260D01*
X161117672Y-87588605D01*
X160980331Y-87546943D01*
X160873289Y-87536400D01*
X159801711Y-87536400D01*
X159694669Y-87546943D01*
X159557328Y-87588605D01*
X159430753Y-87656260D01*
X159319809Y-87747309D01*
X159228760Y-87858253D01*
X159161105Y-87984828D01*
X159119443Y-88122169D01*
X159105375Y-88265000D01*
X158714667Y-88265000D01*
X158641922Y-87828534D01*
X158638764Y-87800036D01*
X158629403Y-87770479D01*
X158621339Y-87740567D01*
X158608625Y-87714885D01*
X158422803Y-87281300D01*
X158465444Y-87178356D01*
X158489600Y-87056912D01*
X158489600Y-86933088D01*
X158465444Y-86811644D01*
X158418059Y-86697246D01*
X158349266Y-86594291D01*
X158261709Y-86506734D01*
X158158754Y-86437941D01*
X158044356Y-86390556D01*
X157922912Y-86366400D01*
X157799088Y-86366400D01*
X157677644Y-86390556D01*
X157563246Y-86437941D01*
X157460291Y-86506734D01*
X157372734Y-86594291D01*
X157303941Y-86697246D01*
X157256556Y-86811644D01*
X157232400Y-86933088D01*
X148843600Y-86933088D01*
X148843600Y-85725000D01*
X159105375Y-85725000D01*
X159119443Y-85867831D01*
X159161105Y-86005172D01*
X159228760Y-86131747D01*
X159319809Y-86242691D01*
X159430753Y-86333740D01*
X159557328Y-86401395D01*
X159694669Y-86443057D01*
X159801711Y-86453600D01*
X160873289Y-86453600D01*
X160980331Y-86443057D01*
X161117672Y-86401395D01*
X161244247Y-86333740D01*
X161355191Y-86242691D01*
X161446240Y-86131747D01*
X161513895Y-86005172D01*
X161555557Y-85867831D01*
X161569625Y-85725000D01*
X161555557Y-85582169D01*
X161513895Y-85444828D01*
X161446240Y-85318253D01*
X161355191Y-85207309D01*
X161244247Y-85116260D01*
X161117672Y-85048605D01*
X160980331Y-85006943D01*
X160873289Y-84996400D01*
X159801711Y-84996400D01*
X159694669Y-85006943D01*
X159557328Y-85048605D01*
X159430753Y-85116260D01*
X159319809Y-85207309D01*
X159228760Y-85318253D01*
X159161105Y-85444828D01*
X159119443Y-85582169D01*
X159105375Y-85725000D01*
X148843600Y-85725000D01*
X148843600Y-84737696D01*
X152735609Y-84737696D01*
X152785290Y-84917770D01*
X152889956Y-85134919D01*
X153034974Y-85327477D01*
X153214772Y-85488043D01*
X153422440Y-85610447D01*
X153649998Y-85689985D01*
X153888700Y-85723600D01*
X154888700Y-85723600D01*
X154888700Y-84546300D01*
X154991300Y-84546300D01*
X154991300Y-85723600D01*
X155991300Y-85723600D01*
X156230002Y-85689985D01*
X156457560Y-85610447D01*
X156665228Y-85488043D01*
X156845026Y-85327477D01*
X156955521Y-85180759D01*
X157779290Y-85180759D01*
X157867230Y-85320304D01*
X158046904Y-85413956D01*
X158241396Y-85470756D01*
X158443232Y-85488521D01*
X158644656Y-85466569D01*
X158837927Y-85405742D01*
X158997770Y-85320304D01*
X159085710Y-85180759D01*
X158432500Y-84527549D01*
X157779290Y-85180759D01*
X156955521Y-85180759D01*
X156990044Y-85134919D01*
X157094710Y-84917770D01*
X157144391Y-84737696D01*
X157110326Y-84546300D01*
X154991300Y-84546300D01*
X154888700Y-84546300D01*
X152769674Y-84546300D01*
X152735609Y-84737696D01*
X148843600Y-84737696D01*
X148843600Y-84465732D01*
X157398979Y-84465732D01*
X157420931Y-84667156D01*
X157481758Y-84860427D01*
X157567196Y-85020270D01*
X157706741Y-85108210D01*
X158359951Y-84455000D01*
X158505049Y-84455000D01*
X159158259Y-85108210D01*
X159297804Y-85020270D01*
X159391456Y-84840596D01*
X159448256Y-84646104D01*
X159466021Y-84444268D01*
X159444069Y-84242844D01*
X159383242Y-84049573D01*
X159297804Y-83889730D01*
X159158259Y-83801790D01*
X158505049Y-84455000D01*
X158359951Y-84455000D01*
X157706741Y-83801790D01*
X157567196Y-83889730D01*
X157473544Y-84069404D01*
X157416744Y-84263896D01*
X157398979Y-84465732D01*
X148843600Y-84465732D01*
X148843600Y-84252304D01*
X152735609Y-84252304D01*
X152769674Y-84443700D01*
X154888700Y-84443700D01*
X154888700Y-83266400D01*
X154991300Y-83266400D01*
X154991300Y-84443700D01*
X157110326Y-84443700D01*
X157144391Y-84252304D01*
X157094710Y-84072230D01*
X156990044Y-83855081D01*
X156895273Y-83729241D01*
X157779290Y-83729241D01*
X158432500Y-84382451D01*
X159085710Y-83729241D01*
X158997770Y-83589696D01*
X158818096Y-83496044D01*
X158623604Y-83439244D01*
X158421768Y-83421479D01*
X158220344Y-83443431D01*
X158027073Y-83504258D01*
X157867230Y-83589696D01*
X157779290Y-83729241D01*
X156895273Y-83729241D01*
X156845026Y-83662523D01*
X156665228Y-83501957D01*
X156457560Y-83379553D01*
X156230002Y-83300015D01*
X155991300Y-83266400D01*
X154991300Y-83266400D01*
X154888700Y-83266400D01*
X153888700Y-83266400D01*
X153649998Y-83300015D01*
X153422440Y-83379553D01*
X153214772Y-83501957D01*
X153034974Y-83662523D01*
X152889956Y-83855081D01*
X152785290Y-84072230D01*
X152735609Y-84252304D01*
X148843600Y-84252304D01*
X148843600Y-83185000D01*
X159105375Y-83185000D01*
X159119443Y-83327831D01*
X159161105Y-83465172D01*
X159228760Y-83591747D01*
X159319809Y-83702691D01*
X159430753Y-83793740D01*
X159557328Y-83861395D01*
X159694669Y-83903057D01*
X159801711Y-83913600D01*
X160873289Y-83913600D01*
X160980331Y-83903057D01*
X161117672Y-83861395D01*
X161244247Y-83793740D01*
X161355191Y-83702691D01*
X161446240Y-83591747D01*
X161513895Y-83465172D01*
X161555557Y-83327831D01*
X161569625Y-83185000D01*
X161555557Y-83042169D01*
X161513895Y-82904828D01*
X161446240Y-82778253D01*
X161355191Y-82667309D01*
X161244247Y-82576260D01*
X161117672Y-82508605D01*
X160980331Y-82466943D01*
X160873289Y-82456400D01*
X159801711Y-82456400D01*
X159694669Y-82466943D01*
X159557328Y-82508605D01*
X159430753Y-82576260D01*
X159319809Y-82667309D01*
X159228760Y-82778253D01*
X159161105Y-82904828D01*
X159119443Y-83042169D01*
X159105375Y-83185000D01*
X148843600Y-83185000D01*
X148843600Y-81597500D01*
X159105375Y-81597500D01*
X159119443Y-81740331D01*
X159161105Y-81877672D01*
X159228760Y-82004247D01*
X159319809Y-82115191D01*
X159430753Y-82206240D01*
X159557328Y-82273895D01*
X159694669Y-82315557D01*
X159801711Y-82326100D01*
X160873289Y-82326100D01*
X160980331Y-82315557D01*
X161117672Y-82273895D01*
X161244247Y-82206240D01*
X161355191Y-82115191D01*
X161446240Y-82004247D01*
X161513895Y-81877672D01*
X161555557Y-81740331D01*
X161569625Y-81597500D01*
X161555557Y-81454669D01*
X161513895Y-81317328D01*
X161446240Y-81190753D01*
X161355191Y-81079809D01*
X161244247Y-80988760D01*
X161117672Y-80921105D01*
X160980331Y-80879443D01*
X160873289Y-80868900D01*
X159801711Y-80868900D01*
X159694669Y-80879443D01*
X159557328Y-80921105D01*
X159430753Y-80988760D01*
X159319809Y-81079809D01*
X159228760Y-81190753D01*
X159161105Y-81317328D01*
X159119443Y-81454669D01*
X159105375Y-81597500D01*
X148843600Y-81597500D01*
X148843600Y-81053259D01*
X157779290Y-81053259D01*
X157867230Y-81192804D01*
X158046904Y-81286456D01*
X158241396Y-81343256D01*
X158443232Y-81361021D01*
X158644656Y-81339069D01*
X158837927Y-81278242D01*
X158997770Y-81192804D01*
X159085710Y-81053259D01*
X158432500Y-80400049D01*
X157779290Y-81053259D01*
X148843600Y-81053259D01*
X148843600Y-80338232D01*
X157398979Y-80338232D01*
X157420931Y-80539656D01*
X157481758Y-80732927D01*
X157567196Y-80892770D01*
X157706741Y-80980710D01*
X158359951Y-80327500D01*
X158505049Y-80327500D01*
X159158259Y-80980710D01*
X159297804Y-80892770D01*
X159391456Y-80713096D01*
X159448256Y-80518604D01*
X159466021Y-80316768D01*
X159444069Y-80115344D01*
X159383242Y-79922073D01*
X159297804Y-79762230D01*
X159158259Y-79674290D01*
X158505049Y-80327500D01*
X158359951Y-80327500D01*
X157706741Y-79674290D01*
X157567196Y-79762230D01*
X157473544Y-79941904D01*
X157416744Y-80136396D01*
X157398979Y-80338232D01*
X148843600Y-80338232D01*
X148843600Y-79601741D01*
X157779290Y-79601741D01*
X158432500Y-80254951D01*
X159085710Y-79601741D01*
X158997770Y-79462196D01*
X158818096Y-79368544D01*
X158623604Y-79311744D01*
X158421768Y-79293979D01*
X158220344Y-79315931D01*
X158027073Y-79376758D01*
X157867230Y-79462196D01*
X157779290Y-79601741D01*
X148843600Y-79601741D01*
X148843600Y-79057500D01*
X159105375Y-79057500D01*
X159119443Y-79200331D01*
X159161105Y-79337672D01*
X159228760Y-79464247D01*
X159319809Y-79575191D01*
X159430753Y-79666240D01*
X159557328Y-79733895D01*
X159694669Y-79775557D01*
X159801711Y-79786100D01*
X160873289Y-79786100D01*
X160980331Y-79775557D01*
X161117672Y-79733895D01*
X161244247Y-79666240D01*
X161355191Y-79575191D01*
X161446240Y-79464247D01*
X161513895Y-79337672D01*
X161555557Y-79200331D01*
X161569625Y-79057500D01*
X161555557Y-78914669D01*
X161513895Y-78777328D01*
X161446240Y-78650753D01*
X161355191Y-78539809D01*
X161244247Y-78448760D01*
X161117672Y-78381105D01*
X160980331Y-78339443D01*
X160873289Y-78328900D01*
X159801711Y-78328900D01*
X159694669Y-78339443D01*
X159557328Y-78381105D01*
X159430753Y-78448760D01*
X159319809Y-78539809D01*
X159228760Y-78650753D01*
X159161105Y-78777328D01*
X159119443Y-78914669D01*
X159105375Y-79057500D01*
X148843600Y-79057500D01*
X148843600Y-78434905D01*
X148852057Y-78348653D01*
X148873502Y-78277622D01*
X148908337Y-78212108D01*
X148955234Y-78154608D01*
X149012404Y-78107313D01*
X149077672Y-78072023D01*
X149148554Y-78050082D01*
X149234005Y-78041100D01*
X161277595Y-78041100D01*
X161363847Y-78049557D01*
X161363847Y-78049557D01*
G37*
X161363847Y-78049557D02*
X161434878Y-78071002D01*
X161500392Y-78105837D01*
X161557892Y-78152734D01*
X161605187Y-78209904D01*
X161640477Y-78275172D01*
X161662418Y-78346054D01*
X161671401Y-78431515D01*
X161671400Y-95555095D01*
X161662943Y-95641348D01*
X161641499Y-95712375D01*
X161606665Y-95777889D01*
X161559768Y-95835390D01*
X161502598Y-95882686D01*
X161437328Y-95917977D01*
X161366446Y-95939918D01*
X161280995Y-95948900D01*
X149237405Y-95948900D01*
X149151152Y-95940443D01*
X149080125Y-95918999D01*
X149014611Y-95884165D01*
X148957110Y-95837268D01*
X148909814Y-95780098D01*
X148874523Y-95714828D01*
X148852582Y-95643946D01*
X148843600Y-95558495D01*
X148843600Y-94932500D01*
X159105375Y-94932500D01*
X159119443Y-95075331D01*
X159161105Y-95212672D01*
X159228760Y-95339247D01*
X159319809Y-95450191D01*
X159430753Y-95541240D01*
X159557328Y-95608895D01*
X159694669Y-95650557D01*
X159801711Y-95661100D01*
X160873289Y-95661100D01*
X160980331Y-95650557D01*
X161117672Y-95608895D01*
X161244247Y-95541240D01*
X161355191Y-95450191D01*
X161446240Y-95339247D01*
X161513895Y-95212672D01*
X161555557Y-95075331D01*
X161569625Y-94932500D01*
X161555557Y-94789669D01*
X161513895Y-94652328D01*
X161446240Y-94525753D01*
X161355191Y-94414809D01*
X161244247Y-94323760D01*
X161117672Y-94256105D01*
X160980331Y-94214443D01*
X160873289Y-94203900D01*
X159801711Y-94203900D01*
X159694669Y-94214443D01*
X159557328Y-94256105D01*
X159430753Y-94323760D01*
X159319809Y-94414809D01*
X159228760Y-94525753D01*
X159161105Y-94652328D01*
X159119443Y-94789669D01*
X159105375Y-94932500D01*
X148843600Y-94932500D01*
X148843600Y-94388259D01*
X157779290Y-94388259D01*
X157867230Y-94527804D01*
X158046904Y-94621456D01*
X158241396Y-94678256D01*
X158443232Y-94696021D01*
X158644656Y-94674069D01*
X158837927Y-94613242D01*
X158997770Y-94527804D01*
X159085710Y-94388259D01*
X158432500Y-93735049D01*
X157779290Y-94388259D01*
X148843600Y-94388259D01*
X148843600Y-93673232D01*
X157398979Y-93673232D01*
X157420931Y-93874656D01*
X157481758Y-94067927D01*
X157567196Y-94227770D01*
X157706741Y-94315710D01*
X158359951Y-93662500D01*
X158505049Y-93662500D01*
X159158259Y-94315710D01*
X159297804Y-94227770D01*
X159391456Y-94048096D01*
X159448256Y-93853604D01*
X159466021Y-93651768D01*
X159444069Y-93450344D01*
X159383242Y-93257073D01*
X159297804Y-93097230D01*
X159158259Y-93009290D01*
X158505049Y-93662500D01*
X158359951Y-93662500D01*
X157706741Y-93009290D01*
X157567196Y-93097230D01*
X157473544Y-93276904D01*
X157416744Y-93471396D01*
X157398979Y-93673232D01*
X148843600Y-93673232D01*
X148843600Y-92936741D01*
X157779290Y-92936741D01*
X158432500Y-93589951D01*
X159085710Y-92936741D01*
X158997770Y-92797196D01*
X158818096Y-92703544D01*
X158623604Y-92646744D01*
X158421768Y-92628979D01*
X158220344Y-92650931D01*
X158027073Y-92711758D01*
X157867230Y-92797196D01*
X157779290Y-92936741D01*
X148843600Y-92936741D01*
X148843600Y-92392500D01*
X159105375Y-92392500D01*
X159119443Y-92535331D01*
X159161105Y-92672672D01*
X159228760Y-92799247D01*
X159319809Y-92910191D01*
X159430753Y-93001240D01*
X159557328Y-93068895D01*
X159694669Y-93110557D01*
X159801711Y-93121100D01*
X160873289Y-93121100D01*
X160980331Y-93110557D01*
X161117672Y-93068895D01*
X161244247Y-93001240D01*
X161355191Y-92910191D01*
X161446240Y-92799247D01*
X161513895Y-92672672D01*
X161555557Y-92535331D01*
X161569625Y-92392500D01*
X161555557Y-92249669D01*
X161513895Y-92112328D01*
X161446240Y-91985753D01*
X161355191Y-91874809D01*
X161244247Y-91783760D01*
X161117672Y-91716105D01*
X160980331Y-91674443D01*
X160873289Y-91663900D01*
X159801711Y-91663900D01*
X159694669Y-91674443D01*
X159557328Y-91716105D01*
X159430753Y-91783760D01*
X159319809Y-91874809D01*
X159228760Y-91985753D01*
X159161105Y-92112328D01*
X159119443Y-92249669D01*
X159105375Y-92392500D01*
X148843600Y-92392500D01*
X148843600Y-90805000D01*
X159105375Y-90805000D01*
X159119443Y-90947831D01*
X159161105Y-91085172D01*
X159228760Y-91211747D01*
X159319809Y-91322691D01*
X159430753Y-91413740D01*
X159557328Y-91481395D01*
X159694669Y-91523057D01*
X159801711Y-91533600D01*
X160873289Y-91533600D01*
X160980331Y-91523057D01*
X161117672Y-91481395D01*
X161244247Y-91413740D01*
X161355191Y-91322691D01*
X161446240Y-91211747D01*
X161513895Y-91085172D01*
X161555557Y-90947831D01*
X161569625Y-90805000D01*
X161555557Y-90662169D01*
X161513895Y-90524828D01*
X161446240Y-90398253D01*
X161355191Y-90287309D01*
X161244247Y-90196260D01*
X161117672Y-90128605D01*
X160980331Y-90086943D01*
X160873289Y-90076400D01*
X159801711Y-90076400D01*
X159694669Y-90086943D01*
X159557328Y-90128605D01*
X159430753Y-90196260D01*
X159319809Y-90287309D01*
X159228760Y-90398253D01*
X159161105Y-90524828D01*
X159119443Y-90662169D01*
X159105375Y-90805000D01*
X148843600Y-90805000D01*
X148843600Y-89495000D01*
X151205456Y-89495000D01*
X151229177Y-89735848D01*
X151299430Y-89967440D01*
X151413514Y-90180876D01*
X151567046Y-90367954D01*
X151754124Y-90521486D01*
X151967560Y-90635570D01*
X152199152Y-90705823D01*
X152379648Y-90723600D01*
X156000352Y-90723600D01*
X156180848Y-90705823D01*
X156412440Y-90635570D01*
X156625876Y-90521486D01*
X156812954Y-90367954D01*
X156966486Y-90180876D01*
X157080570Y-89967440D01*
X157150823Y-89735848D01*
X157174544Y-89495000D01*
X157150823Y-89254152D01*
X157080570Y-89022560D01*
X156966486Y-88809124D01*
X156812954Y-88622046D01*
X156625876Y-88468514D01*
X156412440Y-88354430D01*
X156180848Y-88284177D01*
X156000352Y-88266400D01*
X152379648Y-88266400D01*
X152199152Y-88284177D01*
X151967560Y-88354430D01*
X151754124Y-88468514D01*
X151567046Y-88622046D01*
X151413514Y-88809124D01*
X151299430Y-89022560D01*
X151229177Y-89254152D01*
X151205456Y-89495000D01*
X148843600Y-89495000D01*
X148843600Y-86933088D01*
X157232400Y-86933088D01*
X157232400Y-87056912D01*
X157256556Y-87178356D01*
X157303941Y-87292754D01*
X157372734Y-87395709D01*
X157460291Y-87483266D01*
X157563246Y-87552059D01*
X157677644Y-87599444D01*
X157681251Y-87600162D01*
X157851885Y-87998308D01*
X157955380Y-88619280D01*
X157945275Y-88623466D01*
X157776806Y-88736034D01*
X157633534Y-88879306D01*
X157520966Y-89047775D01*
X157443428Y-89234968D01*
X157403900Y-89433692D01*
X157403900Y-89636308D01*
X157443428Y-89835032D01*
X157520966Y-90022225D01*
X157633534Y-90190694D01*
X157776806Y-90333966D01*
X157945275Y-90446534D01*
X158132468Y-90524072D01*
X158331192Y-90563600D01*
X158533808Y-90563600D01*
X158732532Y-90524072D01*
X158919725Y-90446534D01*
X159088194Y-90333966D01*
X159231466Y-90190694D01*
X159344034Y-90022225D01*
X159421572Y-89835032D01*
X159461100Y-89636308D01*
X159461100Y-89433692D01*
X159421572Y-89234968D01*
X159344034Y-89047775D01*
X159231466Y-88879306D01*
X159088194Y-88736034D01*
X158919725Y-88623466D01*
X158763635Y-88558811D01*
X158714667Y-88265000D01*
X159105375Y-88265000D01*
X159119443Y-88407831D01*
X159161105Y-88545172D01*
X159228760Y-88671747D01*
X159319809Y-88782691D01*
X159430753Y-88873740D01*
X159557328Y-88941395D01*
X159694669Y-88983057D01*
X159801711Y-88993600D01*
X160873289Y-88993600D01*
X160980331Y-88983057D01*
X161117672Y-88941395D01*
X161244247Y-88873740D01*
X161355191Y-88782691D01*
X161446240Y-88671747D01*
X161513895Y-88545172D01*
X161555557Y-88407831D01*
X161569625Y-88265000D01*
X161555557Y-88122169D01*
X161513895Y-87984828D01*
X161446240Y-87858253D01*
X161355191Y-87747309D01*
X161244247Y-87656260D01*
X161117672Y-87588605D01*
X160980331Y-87546943D01*
X160873289Y-87536400D01*
X159801711Y-87536400D01*
X159694669Y-87546943D01*
X159557328Y-87588605D01*
X159430753Y-87656260D01*
X159319809Y-87747309D01*
X159228760Y-87858253D01*
X159161105Y-87984828D01*
X159119443Y-88122169D01*
X159105375Y-88265000D01*
X158714667Y-88265000D01*
X158641922Y-87828534D01*
X158638764Y-87800036D01*
X158629403Y-87770479D01*
X158621339Y-87740567D01*
X158608625Y-87714885D01*
X158422803Y-87281300D01*
X158465444Y-87178356D01*
X158489600Y-87056912D01*
X158489600Y-86933088D01*
X158465444Y-86811644D01*
X158418059Y-86697246D01*
X158349266Y-86594291D01*
X158261709Y-86506734D01*
X158158754Y-86437941D01*
X158044356Y-86390556D01*
X157922912Y-86366400D01*
X157799088Y-86366400D01*
X157677644Y-86390556D01*
X157563246Y-86437941D01*
X157460291Y-86506734D01*
X157372734Y-86594291D01*
X157303941Y-86697246D01*
X157256556Y-86811644D01*
X157232400Y-86933088D01*
X148843600Y-86933088D01*
X148843600Y-85725000D01*
X159105375Y-85725000D01*
X159119443Y-85867831D01*
X159161105Y-86005172D01*
X159228760Y-86131747D01*
X159319809Y-86242691D01*
X159430753Y-86333740D01*
X159557328Y-86401395D01*
X159694669Y-86443057D01*
X159801711Y-86453600D01*
X160873289Y-86453600D01*
X160980331Y-86443057D01*
X161117672Y-86401395D01*
X161244247Y-86333740D01*
X161355191Y-86242691D01*
X161446240Y-86131747D01*
X161513895Y-86005172D01*
X161555557Y-85867831D01*
X161569625Y-85725000D01*
X161555557Y-85582169D01*
X161513895Y-85444828D01*
X161446240Y-85318253D01*
X161355191Y-85207309D01*
X161244247Y-85116260D01*
X161117672Y-85048605D01*
X160980331Y-85006943D01*
X160873289Y-84996400D01*
X159801711Y-84996400D01*
X159694669Y-85006943D01*
X159557328Y-85048605D01*
X159430753Y-85116260D01*
X159319809Y-85207309D01*
X159228760Y-85318253D01*
X159161105Y-85444828D01*
X159119443Y-85582169D01*
X159105375Y-85725000D01*
X148843600Y-85725000D01*
X148843600Y-84737696D01*
X152735609Y-84737696D01*
X152785290Y-84917770D01*
X152889956Y-85134919D01*
X153034974Y-85327477D01*
X153214772Y-85488043D01*
X153422440Y-85610447D01*
X153649998Y-85689985D01*
X153888700Y-85723600D01*
X154888700Y-85723600D01*
X154888700Y-84546300D01*
X154991300Y-84546300D01*
X154991300Y-85723600D01*
X155991300Y-85723600D01*
X156230002Y-85689985D01*
X156457560Y-85610447D01*
X156665228Y-85488043D01*
X156845026Y-85327477D01*
X156955521Y-85180759D01*
X157779290Y-85180759D01*
X157867230Y-85320304D01*
X158046904Y-85413956D01*
X158241396Y-85470756D01*
X158443232Y-85488521D01*
X158644656Y-85466569D01*
X158837927Y-85405742D01*
X158997770Y-85320304D01*
X159085710Y-85180759D01*
X158432500Y-84527549D01*
X157779290Y-85180759D01*
X156955521Y-85180759D01*
X156990044Y-85134919D01*
X157094710Y-84917770D01*
X157144391Y-84737696D01*
X157110326Y-84546300D01*
X154991300Y-84546300D01*
X154888700Y-84546300D01*
X152769674Y-84546300D01*
X152735609Y-84737696D01*
X148843600Y-84737696D01*
X148843600Y-84465732D01*
X157398979Y-84465732D01*
X157420931Y-84667156D01*
X157481758Y-84860427D01*
X157567196Y-85020270D01*
X157706741Y-85108210D01*
X158359951Y-84455000D01*
X158505049Y-84455000D01*
X159158259Y-85108210D01*
X159297804Y-85020270D01*
X159391456Y-84840596D01*
X159448256Y-84646104D01*
X159466021Y-84444268D01*
X159444069Y-84242844D01*
X159383242Y-84049573D01*
X159297804Y-83889730D01*
X159158259Y-83801790D01*
X158505049Y-84455000D01*
X158359951Y-84455000D01*
X157706741Y-83801790D01*
X157567196Y-83889730D01*
X157473544Y-84069404D01*
X157416744Y-84263896D01*
X157398979Y-84465732D01*
X148843600Y-84465732D01*
X148843600Y-84252304D01*
X152735609Y-84252304D01*
X152769674Y-84443700D01*
X154888700Y-84443700D01*
X154888700Y-83266400D01*
X154991300Y-83266400D01*
X154991300Y-84443700D01*
X157110326Y-84443700D01*
X157144391Y-84252304D01*
X157094710Y-84072230D01*
X156990044Y-83855081D01*
X156895273Y-83729241D01*
X157779290Y-83729241D01*
X158432500Y-84382451D01*
X159085710Y-83729241D01*
X158997770Y-83589696D01*
X158818096Y-83496044D01*
X158623604Y-83439244D01*
X158421768Y-83421479D01*
X158220344Y-83443431D01*
X158027073Y-83504258D01*
X157867230Y-83589696D01*
X157779290Y-83729241D01*
X156895273Y-83729241D01*
X156845026Y-83662523D01*
X156665228Y-83501957D01*
X156457560Y-83379553D01*
X156230002Y-83300015D01*
X155991300Y-83266400D01*
X154991300Y-83266400D01*
X154888700Y-83266400D01*
X153888700Y-83266400D01*
X153649998Y-83300015D01*
X153422440Y-83379553D01*
X153214772Y-83501957D01*
X153034974Y-83662523D01*
X152889956Y-83855081D01*
X152785290Y-84072230D01*
X152735609Y-84252304D01*
X148843600Y-84252304D01*
X148843600Y-83185000D01*
X159105375Y-83185000D01*
X159119443Y-83327831D01*
X159161105Y-83465172D01*
X159228760Y-83591747D01*
X159319809Y-83702691D01*
X159430753Y-83793740D01*
X159557328Y-83861395D01*
X159694669Y-83903057D01*
X159801711Y-83913600D01*
X160873289Y-83913600D01*
X160980331Y-83903057D01*
X161117672Y-83861395D01*
X161244247Y-83793740D01*
X161355191Y-83702691D01*
X161446240Y-83591747D01*
X161513895Y-83465172D01*
X161555557Y-83327831D01*
X161569625Y-83185000D01*
X161555557Y-83042169D01*
X161513895Y-82904828D01*
X161446240Y-82778253D01*
X161355191Y-82667309D01*
X161244247Y-82576260D01*
X161117672Y-82508605D01*
X160980331Y-82466943D01*
X160873289Y-82456400D01*
X159801711Y-82456400D01*
X159694669Y-82466943D01*
X159557328Y-82508605D01*
X159430753Y-82576260D01*
X159319809Y-82667309D01*
X159228760Y-82778253D01*
X159161105Y-82904828D01*
X159119443Y-83042169D01*
X159105375Y-83185000D01*
X148843600Y-83185000D01*
X148843600Y-81597500D01*
X159105375Y-81597500D01*
X159119443Y-81740331D01*
X159161105Y-81877672D01*
X159228760Y-82004247D01*
X159319809Y-82115191D01*
X159430753Y-82206240D01*
X159557328Y-82273895D01*
X159694669Y-82315557D01*
X159801711Y-82326100D01*
X160873289Y-82326100D01*
X160980331Y-82315557D01*
X161117672Y-82273895D01*
X161244247Y-82206240D01*
X161355191Y-82115191D01*
X161446240Y-82004247D01*
X161513895Y-81877672D01*
X161555557Y-81740331D01*
X161569625Y-81597500D01*
X161555557Y-81454669D01*
X161513895Y-81317328D01*
X161446240Y-81190753D01*
X161355191Y-81079809D01*
X161244247Y-80988760D01*
X161117672Y-80921105D01*
X160980331Y-80879443D01*
X160873289Y-80868900D01*
X159801711Y-80868900D01*
X159694669Y-80879443D01*
X159557328Y-80921105D01*
X159430753Y-80988760D01*
X159319809Y-81079809D01*
X159228760Y-81190753D01*
X159161105Y-81317328D01*
X159119443Y-81454669D01*
X159105375Y-81597500D01*
X148843600Y-81597500D01*
X148843600Y-81053259D01*
X157779290Y-81053259D01*
X157867230Y-81192804D01*
X158046904Y-81286456D01*
X158241396Y-81343256D01*
X158443232Y-81361021D01*
X158644656Y-81339069D01*
X158837927Y-81278242D01*
X158997770Y-81192804D01*
X159085710Y-81053259D01*
X158432500Y-80400049D01*
X157779290Y-81053259D01*
X148843600Y-81053259D01*
X148843600Y-80338232D01*
X157398979Y-80338232D01*
X157420931Y-80539656D01*
X157481758Y-80732927D01*
X157567196Y-80892770D01*
X157706741Y-80980710D01*
X158359951Y-80327500D01*
X158505049Y-80327500D01*
X159158259Y-80980710D01*
X159297804Y-80892770D01*
X159391456Y-80713096D01*
X159448256Y-80518604D01*
X159466021Y-80316768D01*
X159444069Y-80115344D01*
X159383242Y-79922073D01*
X159297804Y-79762230D01*
X159158259Y-79674290D01*
X158505049Y-80327500D01*
X158359951Y-80327500D01*
X157706741Y-79674290D01*
X157567196Y-79762230D01*
X157473544Y-79941904D01*
X157416744Y-80136396D01*
X157398979Y-80338232D01*
X148843600Y-80338232D01*
X148843600Y-79601741D01*
X157779290Y-79601741D01*
X158432500Y-80254951D01*
X159085710Y-79601741D01*
X158997770Y-79462196D01*
X158818096Y-79368544D01*
X158623604Y-79311744D01*
X158421768Y-79293979D01*
X158220344Y-79315931D01*
X158027073Y-79376758D01*
X157867230Y-79462196D01*
X157779290Y-79601741D01*
X148843600Y-79601741D01*
X148843600Y-79057500D01*
X159105375Y-79057500D01*
X159119443Y-79200331D01*
X159161105Y-79337672D01*
X159228760Y-79464247D01*
X159319809Y-79575191D01*
X159430753Y-79666240D01*
X159557328Y-79733895D01*
X159694669Y-79775557D01*
X159801711Y-79786100D01*
X160873289Y-79786100D01*
X160980331Y-79775557D01*
X161117672Y-79733895D01*
X161244247Y-79666240D01*
X161355191Y-79575191D01*
X161446240Y-79464247D01*
X161513895Y-79337672D01*
X161555557Y-79200331D01*
X161569625Y-79057500D01*
X161555557Y-78914669D01*
X161513895Y-78777328D01*
X161446240Y-78650753D01*
X161355191Y-78539809D01*
X161244247Y-78448760D01*
X161117672Y-78381105D01*
X160980331Y-78339443D01*
X160873289Y-78328900D01*
X159801711Y-78328900D01*
X159694669Y-78339443D01*
X159557328Y-78381105D01*
X159430753Y-78448760D01*
X159319809Y-78539809D01*
X159228760Y-78650753D01*
X159161105Y-78777328D01*
X159119443Y-78914669D01*
X159105375Y-79057500D01*
X148843600Y-79057500D01*
X148843600Y-78434905D01*
X148852057Y-78348653D01*
X148873502Y-78277622D01*
X148908337Y-78212108D01*
X148955234Y-78154608D01*
X149012404Y-78107313D01*
X149077672Y-78072023D01*
X149148554Y-78050082D01*
X149234005Y-78041100D01*
X161277595Y-78041100D01*
X161363847Y-78049557D01*
M02*
