M48
; DRILL file {KiCad (5.1.4)-1} date 2020-01-02 18:36:33
; FORMAT={-:-/ absolute / metric / decimal}
; #@! TF.CreationDate,2020-01-02T18:36:33+01:00
; #@! TF.GenerationSoftware,Kicad,Pcbnew,(5.1.4)-1
FMAT,2
METRIC
T1C0.400
T2C1.000
T3C1.000
%
G90
G05
T1
X157.861Y-86.995
T2
X158.433Y-93.662
X158.433Y-80.328
X158.433Y-84.455
X158.433Y-89.535
T2
G00X153.94Y-84.495
M15
G01X155.94Y-84.495
M16
G05
G00X153.94Y-89.495
M15
G01X155.94Y-89.495
M16
G05
T3
G00X159.838Y-79.057
M15
G01X160.838Y-79.057
M16
G05
G00X159.838Y-94.932
M15
G01X160.838Y-94.932
M16
G05
G00X159.838Y-92.392
M15
G01X160.838Y-92.392
M16
G05
G00X159.838Y-85.725
M15
G01X160.838Y-85.725
M16
G05
G00X159.838Y-81.597
M15
G01X160.838Y-81.597
M16
G05
G00X159.838Y-83.185
M15
G01X160.838Y-83.185
M16
G05
G00X159.838Y-88.265
M15
G01X160.838Y-88.265
M16
G05
G00X159.838Y-90.805
M15
G01X160.838Y-90.805
M16
G05
T0
M30
