%TF.GenerationSoftware,KiCad,Pcbnew,(5.1.4)-1*%
%TF.CreationDate,2020-01-02T19:02:28+01:00*%
%TF.ProjectId,#510-000,23353130-2d30-4303-902e-6b696361645f,rev?*%
%TF.SameCoordinates,PXb76a588PY55159dc*%
%TF.FileFunction,Soldermask,Bot*%
%TF.FilePolarity,Negative*%
%FSLAX46Y46*%
G04 Gerber Fmt 4.6, Leading zero omitted, Abs format (unit mm)*
G04 Created by KiCad (PCBNEW (5.1.4)-1) date 2020-01-02 19:02:28*
%MOMM*%
%LPD*%
G04 APERTURE LIST*
%ADD10C,0.152400*%
%ADD11C,0.050000*%
%ADD12O,4.901600X3.301600*%
%ADD13C,1.701600*%
%ADD14O,2.101600X1.101600*%
G04 APERTURE END LIST*
D10*
X1671561Y-14921895D02*
X1942495Y-14534847D01*
X2136019Y-14921895D02*
X2136019Y-14109095D01*
X1826380Y-14109095D01*
X1748971Y-14147800D01*
X1710266Y-14186504D01*
X1671561Y-14263914D01*
X1671561Y-14380028D01*
X1710266Y-14457438D01*
X1748971Y-14496142D01*
X1826380Y-14534847D01*
X2136019Y-14534847D01*
X1323219Y-14496142D02*
X1052285Y-14496142D01*
X936171Y-14921895D02*
X1323219Y-14921895D01*
X1323219Y-14109095D01*
X936171Y-14109095D01*
X703942Y-14109095D02*
X433009Y-14921895D01*
X162076Y-14109095D01*
X-108858Y-14921895D02*
X-108858Y-14109095D01*
X-457200Y-14883190D02*
X-573315Y-14921895D01*
X-766839Y-14921895D01*
X-844248Y-14883190D01*
X-882953Y-14844485D01*
X-921658Y-14767076D01*
X-921658Y-14689666D01*
X-882953Y-14612257D01*
X-844248Y-14573552D01*
X-766839Y-14534847D01*
X-612020Y-14496142D01*
X-534610Y-14457438D01*
X-495905Y-14418733D01*
X-457200Y-14341323D01*
X-457200Y-14263914D01*
X-495905Y-14186504D01*
X-534610Y-14147800D01*
X-612020Y-14109095D01*
X-805543Y-14109095D01*
X-921658Y-14147800D01*
X-1270000Y-14921895D02*
X-1270000Y-14109095D01*
X-1811867Y-14109095D02*
X-1966686Y-14109095D01*
X-2044096Y-14147800D01*
X-2121505Y-14225209D01*
X-2160210Y-14380028D01*
X-2160210Y-14650961D01*
X-2121505Y-14805780D01*
X-2044096Y-14883190D01*
X-1966686Y-14921895D01*
X-1811867Y-14921895D01*
X-1734458Y-14883190D01*
X-1657048Y-14805780D01*
X-1618343Y-14650961D01*
X-1618343Y-14380028D01*
X-1657048Y-14225209D01*
X-1734458Y-14147800D01*
X-1811867Y-14109095D01*
X-2508553Y-14921895D02*
X-2508553Y-14109095D01*
X-2973010Y-14921895D01*
X-2973010Y-14109095D01*
X-3360058Y-14844485D02*
X-3398762Y-14883190D01*
X-3360058Y-14921895D01*
X-3321353Y-14883190D01*
X-3360058Y-14844485D01*
X-3360058Y-14921895D01*
X-3360058Y-14418733D02*
X-3398762Y-14457438D01*
X-3360058Y-14496142D01*
X-3321353Y-14457438D01*
X-3360058Y-14418733D01*
X-3360058Y-14496142D01*
X-4327677Y-14689666D02*
X-4714724Y-14689666D01*
X-4250267Y-14921895D02*
X-4521200Y-14109095D01*
X-4792134Y-14921895D01*
X7257Y-16254790D02*
X-108858Y-16293495D01*
X-302381Y-16293495D01*
X-379791Y-16254790D01*
X-418496Y-16216085D01*
X-457200Y-16138676D01*
X-457200Y-16061266D01*
X-418496Y-15983857D01*
X-379791Y-15945152D01*
X-302381Y-15906447D01*
X-147562Y-15867742D01*
X-70153Y-15829038D01*
X-31448Y-15790333D01*
X7257Y-15712923D01*
X7257Y-15635514D01*
X-31448Y-15558104D01*
X-70153Y-15519400D01*
X-147562Y-15480695D01*
X-341086Y-15480695D01*
X-457200Y-15519400D01*
X-1386115Y-15441990D02*
X-689429Y-16487019D01*
X-1657048Y-16293495D02*
X-1657048Y-15480695D01*
X-2121505Y-16293495D01*
X-2121505Y-15480695D01*
X-2508553Y-16216085D02*
X-2547258Y-16254790D01*
X-2508553Y-16293495D01*
X-2469848Y-16254790D01*
X-2508553Y-16216085D01*
X-2508553Y-16293495D01*
X-2508553Y-15790333D02*
X-2547258Y-15829038D01*
X-2508553Y-15867742D01*
X-2469848Y-15829038D01*
X-2508553Y-15790333D01*
X-2508553Y-15867742D01*
X4818138Y-8030028D02*
X4237566Y-8030028D01*
X4585909Y-7681685D02*
X4818138Y-8726714D01*
X4314976Y-8378371D02*
X4895547Y-8378371D01*
X4547204Y-8726714D02*
X4314976Y-7681685D01*
X3618290Y-8030028D02*
X3618290Y-8571895D01*
X3811814Y-7720390D02*
X4005338Y-8300961D01*
X3502176Y-8300961D01*
X3231242Y-7836504D02*
X3192538Y-7797800D01*
X3115128Y-7759095D01*
X2921604Y-7759095D01*
X2844195Y-7797800D01*
X2805490Y-7836504D01*
X2766785Y-7913914D01*
X2766785Y-7991323D01*
X2805490Y-8107438D01*
X3269947Y-8571895D01*
X2766785Y-8571895D01*
X2263623Y-7759095D02*
X2186214Y-7759095D01*
X2108804Y-7797800D01*
X2070100Y-7836504D01*
X2031395Y-7913914D01*
X1992690Y-8068733D01*
X1992690Y-8262257D01*
X2031395Y-8417076D01*
X2070100Y-8494485D01*
X2108804Y-8533190D01*
X2186214Y-8571895D01*
X2263623Y-8571895D01*
X2341033Y-8533190D01*
X2379738Y-8494485D01*
X2418442Y-8417076D01*
X2457147Y-8262257D01*
X2457147Y-8068733D01*
X2418442Y-7913914D01*
X2379738Y-7836504D01*
X2341033Y-7797800D01*
X2263623Y-7759095D01*
X1644347Y-8262257D02*
X1025071Y-8262257D01*
X483204Y-7759095D02*
X405795Y-7759095D01*
X328385Y-7797800D01*
X289680Y-7836504D01*
X250976Y-7913914D01*
X212271Y-8068733D01*
X212271Y-8262257D01*
X250976Y-8417076D01*
X289680Y-8494485D01*
X328385Y-8533190D01*
X405795Y-8571895D01*
X483204Y-8571895D01*
X560614Y-8533190D01*
X599319Y-8494485D01*
X638023Y-8417076D01*
X676728Y-8262257D01*
X676728Y-8068733D01*
X638023Y-7913914D01*
X599319Y-7836504D01*
X560614Y-7797800D01*
X483204Y-7759095D01*
X-290891Y-7759095D02*
X-368300Y-7759095D01*
X-445710Y-7797800D01*
X-484415Y-7836504D01*
X-523120Y-7913914D01*
X-561824Y-8068733D01*
X-561824Y-8262257D01*
X-523120Y-8417076D01*
X-484415Y-8494485D01*
X-445710Y-8533190D01*
X-368300Y-8571895D01*
X-290891Y-8571895D01*
X-213481Y-8533190D01*
X-174777Y-8494485D01*
X-136072Y-8417076D01*
X-97367Y-8262257D01*
X-97367Y-8068733D01*
X-136072Y-7913914D01*
X-174777Y-7836504D01*
X-213481Y-7797800D01*
X-290891Y-7759095D01*
X-832758Y-7759095D02*
X-1335920Y-7759095D01*
X-1064986Y-8068733D01*
X-1181100Y-8068733D01*
X-1258510Y-8107438D01*
X-1297215Y-8146142D01*
X-1335920Y-8223552D01*
X-1335920Y-8417076D01*
X-1297215Y-8494485D01*
X-1258510Y-8533190D01*
X-1181100Y-8571895D01*
X-948872Y-8571895D01*
X-871462Y-8533190D01*
X-832758Y-8494485D01*
X-1684262Y-8262257D02*
X-2303539Y-8262257D01*
X-3077634Y-7759095D02*
X-2690586Y-7759095D01*
X-2651881Y-8146142D01*
X-2690586Y-8107438D01*
X-2767996Y-8068733D01*
X-2961520Y-8068733D01*
X-3038929Y-8107438D01*
X-3077634Y-8146142D01*
X-3116339Y-8223552D01*
X-3116339Y-8417076D01*
X-3077634Y-8494485D01*
X-3038929Y-8533190D01*
X-2961520Y-8571895D01*
X-2767996Y-8571895D01*
X-2690586Y-8533190D01*
X-2651881Y-8494485D01*
X-3619500Y-7759095D02*
X-3696910Y-7759095D01*
X-3774320Y-7797800D01*
X-3813024Y-7836504D01*
X-3851729Y-7913914D01*
X-3890434Y-8068733D01*
X-3890434Y-8262257D01*
X-3851729Y-8417076D01*
X-3813024Y-8494485D01*
X-3774320Y-8533190D01*
X-3696910Y-8571895D01*
X-3619500Y-8571895D01*
X-3542091Y-8533190D01*
X-3503386Y-8494485D01*
X-3464681Y-8417076D01*
X-3425977Y-8262257D01*
X-3425977Y-8068733D01*
X-3464681Y-7913914D01*
X-3503386Y-7836504D01*
X-3542091Y-7797800D01*
X-3619500Y-7759095D01*
X-4393596Y-7759095D02*
X-4471005Y-7759095D01*
X-4548415Y-7797800D01*
X-4587120Y-7836504D01*
X-4625824Y-7913914D01*
X-4664529Y-8068733D01*
X-4664529Y-8262257D01*
X-4625824Y-8417076D01*
X-4587120Y-8494485D01*
X-4548415Y-8533190D01*
X-4471005Y-8571895D01*
X-4393596Y-8571895D01*
X-4316186Y-8533190D01*
X-4277481Y-8494485D01*
X-4238777Y-8417076D01*
X-4200072Y-8262257D01*
X-4200072Y-8068733D01*
X-4238777Y-7913914D01*
X-4277481Y-7836504D01*
X-4316186Y-7797800D01*
X-4393596Y-7759095D01*
X-5012872Y-8262257D02*
X-5632148Y-8262257D01*
X-6174015Y-7759095D02*
X-6251424Y-7759095D01*
X-6328834Y-7797800D01*
X-6367539Y-7836504D01*
X-6406243Y-7913914D01*
X-6444948Y-8068733D01*
X-6444948Y-8262257D01*
X-6406243Y-8417076D01*
X-6367539Y-8494485D01*
X-6328834Y-8533190D01*
X-6251424Y-8571895D01*
X-6174015Y-8571895D01*
X-6096605Y-8533190D01*
X-6057900Y-8494485D01*
X-6019196Y-8417076D01*
X-5980491Y-8262257D01*
X-5980491Y-8068733D01*
X-6019196Y-7913914D01*
X-6057900Y-7836504D01*
X-6096605Y-7797800D01*
X-6174015Y-7759095D01*
X-6948110Y-7759095D02*
X-7025520Y-7759095D01*
X-7102929Y-7797800D01*
X-7141634Y-7836504D01*
X-7180339Y-7913914D01*
X-7219043Y-8068733D01*
X-7219043Y-8262257D01*
X-7180339Y-8417076D01*
X-7141634Y-8494485D01*
X-7102929Y-8533190D01*
X-7025520Y-8571895D01*
X-6948110Y-8571895D01*
X-6870700Y-8533190D01*
X-6831996Y-8494485D01*
X-6793291Y-8417076D01*
X-6754586Y-8262257D01*
X-6754586Y-8068733D01*
X-6793291Y-7913914D01*
X-6831996Y-7836504D01*
X-6870700Y-7797800D01*
X-6948110Y-7759095D01*
X-7722205Y-7759095D02*
X-7799615Y-7759095D01*
X-7877024Y-7797800D01*
X-7915729Y-7836504D01*
X-7954434Y-7913914D01*
X-7993139Y-8068733D01*
X-7993139Y-8262257D01*
X-7954434Y-8417076D01*
X-7915729Y-8494485D01*
X-7877024Y-8533190D01*
X-7799615Y-8571895D01*
X-7722205Y-8571895D01*
X-7644796Y-8533190D01*
X-7606091Y-8494485D01*
X-7567386Y-8417076D01*
X-7528681Y-8262257D01*
X-7528681Y-8068733D01*
X-7567386Y-7913914D01*
X-7606091Y-7836504D01*
X-7644796Y-7797800D01*
X-7722205Y-7759095D01*
X6056690Y-9401628D02*
X5476119Y-9401628D01*
X5824461Y-9053285D02*
X6056690Y-10098314D01*
X5553528Y-9749971D02*
X6134100Y-9749971D01*
X5785757Y-10098314D02*
X5553528Y-9053285D01*
X4856842Y-9401628D02*
X4856842Y-9943495D01*
X5050366Y-9091990D02*
X5243890Y-9672561D01*
X4740728Y-9672561D01*
X4469795Y-9208104D02*
X4431090Y-9169400D01*
X4353680Y-9130695D01*
X4160157Y-9130695D01*
X4082747Y-9169400D01*
X4044042Y-9208104D01*
X4005338Y-9285514D01*
X4005338Y-9362923D01*
X4044042Y-9479038D01*
X4508500Y-9943495D01*
X4005338Y-9943495D01*
X3502176Y-9130695D02*
X3424766Y-9130695D01*
X3347357Y-9169400D01*
X3308652Y-9208104D01*
X3269947Y-9285514D01*
X3231242Y-9440333D01*
X3231242Y-9633857D01*
X3269947Y-9788676D01*
X3308652Y-9866085D01*
X3347357Y-9904790D01*
X3424766Y-9943495D01*
X3502176Y-9943495D01*
X3579585Y-9904790D01*
X3618290Y-9866085D01*
X3656995Y-9788676D01*
X3695700Y-9633857D01*
X3695700Y-9440333D01*
X3656995Y-9285514D01*
X3618290Y-9208104D01*
X3579585Y-9169400D01*
X3502176Y-9130695D01*
X2882900Y-9633857D02*
X2263623Y-9633857D01*
X1721757Y-9130695D02*
X1644347Y-9130695D01*
X1566938Y-9169400D01*
X1528233Y-9208104D01*
X1489528Y-9285514D01*
X1450823Y-9440333D01*
X1450823Y-9633857D01*
X1489528Y-9788676D01*
X1528233Y-9866085D01*
X1566938Y-9904790D01*
X1644347Y-9943495D01*
X1721757Y-9943495D01*
X1799166Y-9904790D01*
X1837871Y-9866085D01*
X1876576Y-9788676D01*
X1915280Y-9633857D01*
X1915280Y-9440333D01*
X1876576Y-9285514D01*
X1837871Y-9208104D01*
X1799166Y-9169400D01*
X1721757Y-9130695D01*
X947661Y-9130695D02*
X870252Y-9130695D01*
X792842Y-9169400D01*
X754138Y-9208104D01*
X715433Y-9285514D01*
X676728Y-9440333D01*
X676728Y-9633857D01*
X715433Y-9788676D01*
X754138Y-9866085D01*
X792842Y-9904790D01*
X870252Y-9943495D01*
X947661Y-9943495D01*
X1025071Y-9904790D01*
X1063776Y-9866085D01*
X1102480Y-9788676D01*
X1141185Y-9633857D01*
X1141185Y-9440333D01*
X1102480Y-9285514D01*
X1063776Y-9208104D01*
X1025071Y-9169400D01*
X947661Y-9130695D01*
X405795Y-9130695D02*
X-97367Y-9130695D01*
X173566Y-9440333D01*
X57452Y-9440333D01*
X-19958Y-9479038D01*
X-58662Y-9517742D01*
X-97367Y-9595152D01*
X-97367Y-9788676D01*
X-58662Y-9866085D01*
X-19958Y-9904790D01*
X57452Y-9943495D01*
X289680Y-9943495D01*
X367090Y-9904790D01*
X405795Y-9866085D01*
X-445710Y-9633857D02*
X-1064986Y-9633857D01*
X-1839081Y-9130695D02*
X-1452034Y-9130695D01*
X-1413329Y-9517742D01*
X-1452034Y-9479038D01*
X-1529443Y-9440333D01*
X-1722967Y-9440333D01*
X-1800377Y-9479038D01*
X-1839081Y-9517742D01*
X-1877786Y-9595152D01*
X-1877786Y-9788676D01*
X-1839081Y-9866085D01*
X-1800377Y-9904790D01*
X-1722967Y-9943495D01*
X-1529443Y-9943495D01*
X-1452034Y-9904790D01*
X-1413329Y-9866085D01*
X-2651881Y-9943495D02*
X-2187424Y-9943495D01*
X-2419653Y-9943495D02*
X-2419653Y-9130695D01*
X-2342243Y-9246809D01*
X-2264834Y-9324219D01*
X-2187424Y-9362923D01*
X-3155043Y-9130695D02*
X-3232453Y-9130695D01*
X-3309862Y-9169400D01*
X-3348567Y-9208104D01*
X-3387272Y-9285514D01*
X-3425977Y-9440333D01*
X-3425977Y-9633857D01*
X-3387272Y-9788676D01*
X-3348567Y-9866085D01*
X-3309862Y-9904790D01*
X-3232453Y-9943495D01*
X-3155043Y-9943495D01*
X-3077634Y-9904790D01*
X-3038929Y-9866085D01*
X-3000224Y-9788676D01*
X-2961520Y-9633857D01*
X-2961520Y-9440333D01*
X-3000224Y-9285514D01*
X-3038929Y-9208104D01*
X-3077634Y-9169400D01*
X-3155043Y-9130695D01*
X-3774320Y-9633857D02*
X-4393596Y-9633857D01*
X-4935462Y-9130695D02*
X-5012872Y-9130695D01*
X-5090281Y-9169400D01*
X-5128986Y-9208104D01*
X-5167691Y-9285514D01*
X-5206396Y-9440333D01*
X-5206396Y-9633857D01*
X-5167691Y-9788676D01*
X-5128986Y-9866085D01*
X-5090281Y-9904790D01*
X-5012872Y-9943495D01*
X-4935462Y-9943495D01*
X-4858053Y-9904790D01*
X-4819348Y-9866085D01*
X-4780643Y-9788676D01*
X-4741939Y-9633857D01*
X-4741939Y-9440333D01*
X-4780643Y-9285514D01*
X-4819348Y-9208104D01*
X-4858053Y-9169400D01*
X-4935462Y-9130695D01*
X-5709558Y-9130695D02*
X-5786967Y-9130695D01*
X-5864377Y-9169400D01*
X-5903081Y-9208104D01*
X-5941786Y-9285514D01*
X-5980491Y-9440333D01*
X-5980491Y-9633857D01*
X-5941786Y-9788676D01*
X-5903081Y-9866085D01*
X-5864377Y-9904790D01*
X-5786967Y-9943495D01*
X-5709558Y-9943495D01*
X-5632148Y-9904790D01*
X-5593443Y-9866085D01*
X-5554739Y-9788676D01*
X-5516034Y-9633857D01*
X-5516034Y-9440333D01*
X-5554739Y-9285514D01*
X-5593443Y-9208104D01*
X-5632148Y-9169400D01*
X-5709558Y-9130695D01*
X-6483653Y-9130695D02*
X-6561062Y-9130695D01*
X-6638472Y-9169400D01*
X-6677177Y-9208104D01*
X-6715881Y-9285514D01*
X-6754586Y-9440333D01*
X-6754586Y-9633857D01*
X-6715881Y-9788676D01*
X-6677177Y-9866085D01*
X-6638472Y-9904790D01*
X-6561062Y-9943495D01*
X-6483653Y-9943495D01*
X-6406243Y-9904790D01*
X-6367539Y-9866085D01*
X-6328834Y-9788676D01*
X-6290129Y-9633857D01*
X-6290129Y-9440333D01*
X-6328834Y-9285514D01*
X-6367539Y-9208104D01*
X-6406243Y-9169400D01*
X-6483653Y-9130695D01*
X-7102929Y-9633857D02*
X-7722205Y-9633857D01*
X-8070548Y-9711266D02*
X-8457596Y-9711266D01*
X-7993139Y-9943495D02*
X-8264072Y-9130695D01*
X-8535005Y-9943495D01*
X-8767234Y-9208104D02*
X-8805939Y-9169400D01*
X-8883348Y-9130695D01*
X-9076872Y-9130695D01*
X-9154281Y-9169400D01*
X-9192986Y-9208104D01*
X-9231691Y-9285514D01*
X-9231691Y-9362923D01*
X-9192986Y-9479038D01*
X-8728529Y-9943495D01*
X-9231691Y-9943495D01*
D11*
X6985000Y-3492500D02*
G75*
G02X7620000Y-4127500I0J-635000D01*
G01*
X7620000Y-22542500D02*
G75*
G02X6985000Y-23177500I-635000J0D01*
G01*
X-13652500Y-23177500D02*
G75*
G02X-14287500Y-22542500I0J635000D01*
G01*
X-14287500Y-4127500D02*
G75*
G02X-13652500Y-3492500I635000J0D01*
G01*
X-14287500Y-22542500D02*
X-14287500Y-4127500D01*
X6985000Y-23177500D02*
X-13652500Y-23177500D01*
X7620000Y-4127500D02*
X7620000Y-22542500D01*
X-13652500Y-3492500D02*
X6985000Y-3492500D01*
D12*
X-7230000Y-5702500D03*
X-7230000Y-12052500D03*
X-7230000Y-18402500D03*
X4200000Y-18402500D03*
X4200000Y-12052500D03*
X4200000Y-5702500D03*
D13*
X-11230000Y-18402500D03*
X-11230000Y-12052500D03*
X-11230000Y-5702500D03*
D14*
X-12730000Y-4445000D03*
X-12730000Y-6985000D03*
X-12730000Y-10795000D03*
X-12730000Y-13335000D03*
X-12730000Y-17145000D03*
X-12730000Y-19685000D03*
M02*
