M48
; DRILL file {KiCad (5.1.4)-1} date 2020-01-02 19:00:06
; FORMAT={-:-/ absolute / metric / decimal}
; #@! TF.CreationDate,2020-01-02T19:00:06+01:00
; #@! TF.GenerationSoftware,Kicad,Pcbnew,(5.1.4)-1
FMAT,2
METRIC
T1C1.000
T2C1.600
T3C1.000
%
G90
G05
T1
X181.095Y-107.62
X181.095Y-94.92
X181.095Y-101.27
T2
X185.095Y-94.92
X185.095Y-101.27
X185.095Y-107.62
X196.525Y-94.92
X196.525Y-101.27
X196.525Y-107.62
T3
G00X179.095Y-108.902
M15
G01X180.095Y-108.902
M16
G05
G00X179.095Y-102.552
M15
G01X180.095Y-102.552
M16
G05
G00X179.095Y-100.012
M15
G01X180.095Y-100.012
M16
G05
G00X179.095Y-106.362
M15
G01X180.095Y-106.362
M16
G05
G00X179.095Y-93.662
M15
G01X180.095Y-93.662
M16
G05
G00X179.095Y-96.203
M15
G01X180.095Y-96.203
M16
G05
T0
M30
