<?xml version="1.0" standalone="no"?>
 <!DOCTYPE svg PUBLIC "-//W3C//DTD SVG 1.1//EN" 
 "http://www.w3.org/Graphics/SVG/1.1/DTD/svg11.dtd"> 
<svg xmlns="http://www.w3.org/2000/svg" version="1.1" 
    width="29.7002cm" height="21.0007cm" viewBox="0 0 116930 82680 ">
<title>SVG Picture created as #410-000-S1A - Switching PCB [DPDT, Latching].svg date 2020/01/09 03:38:23 </title>
  <desc>Picture generated by Eeschema-SVG </desc>
<g style="fill:#000000; fill-opacity:1;stroke:#000000; stroke-opacity:1;
stroke-linecap:round; stroke-linejoin:round; "
 transform="translate(0 0) scale(1 1)">
</g>
<g style="fill:#000000; fill-opacity:0.0; 
stroke:#000000; stroke-width:-10; stroke-opacity:1; 
stroke-linecap:round; stroke-linejoin:round;">
</g>
<g style="fill:#840000; fill-opacity:0.0; 
stroke:#840000; stroke-width:-10; stroke-opacity:1; 
stroke-linecap:round; stroke-linejoin:round;">
</g>
<g style="fill:#840000; fill-opacity:0.0; 
stroke:#840000; stroke-width:100; stroke-opacity:1; 
stroke-linecap:round; stroke-linejoin:round;">
</g>
<g style="fill:#840000; fill-opacity:0.0; 
stroke:#840000; stroke-width:60; stroke-opacity:1; 
stroke-linecap:round; stroke-linejoin:round;">
<rect x="69690" y="65360" width="42520" height="12600" rx="0" />
</g>
<g style="fill:#840000; fill-opacity:0.0; 
stroke:#840000; stroke-width:100; stroke-opacity:1; 
stroke-linecap:round; stroke-linejoin:round;">
</g>
<g style="fill:#840000; fill-opacity:0.0; 
stroke:#840000; stroke-width:60; stroke-opacity:1; 
stroke-linecap:round; stroke-linejoin:round;">
<rect x="3940" y="3940" width="109050" height="74800" rx="0" />
</g>
<g style="fill:#840000; fill-opacity:0.0; 
stroke:#840000; stroke-width:100; stroke-opacity:1; 
stroke-linecap:round; stroke-linejoin:round;">
</g>
<g style="fill:#840000; fill-opacity:0.0; 
stroke:#840000; stroke-width:60; stroke-opacity:1; 
stroke-linecap:round; stroke-linejoin:round;">
<rect x="4720" y="4720" width="107490" height="73240" rx="0" />
</g>
<g style="fill:#840000; fill-opacity:0.0; 
stroke:#840000; stroke-width:100; stroke-opacity:1; 
stroke-linecap:round; stroke-linejoin:round;">
</g>
<g style="fill:#840000; fill-opacity:0.0; 
stroke:#840000; stroke-width:60; stroke-opacity:1; 
stroke-linecap:round; stroke-linejoin:round;">
<path d="M23620 4720
L23620 3940
" />
</g>
<g style="fill:#840000; fill-opacity:0.0; 
stroke:#840000; stroke-width:100; stroke-opacity:1; 
stroke-linecap:round; stroke-linejoin:round;">
</g>
<g style="fill:#840000; fill-opacity:0.0; 
stroke:#840000; stroke-width:60; stroke-opacity:1; 
stroke-linecap:round; stroke-linejoin:round;">
<path d="M43310 4720
L43310 3940
" />
</g>
<g style="fill:#840000; fill-opacity:0.0; 
stroke:#840000; stroke-width:100; stroke-opacity:1; 
stroke-linecap:round; stroke-linejoin:round;">
</g>
<g style="fill:#840000; fill-opacity:0.0; 
stroke:#840000; stroke-width:60; stroke-opacity:1; 
stroke-linecap:round; stroke-linejoin:round;">
<path d="M62990 4720
L62990 3940
" />
</g>
<g style="fill:#840000; fill-opacity:0.0; 
stroke:#840000; stroke-width:100; stroke-opacity:1; 
stroke-linecap:round; stroke-linejoin:round;">
</g>
<g style="fill:#840000; fill-opacity:0.0; 
stroke:#840000; stroke-width:60; stroke-opacity:1; 
stroke-linecap:round; stroke-linejoin:round;">
<path d="M82680 4720
L82680 3940
" />
</g>
<g style="fill:#840000; fill-opacity:0.0; 
stroke:#840000; stroke-width:100; stroke-opacity:1; 
stroke-linecap:round; stroke-linejoin:round;">
</g>
<g style="fill:#840000; fill-opacity:0.0; 
stroke:#840000; stroke-width:60; stroke-opacity:1; 
stroke-linecap:round; stroke-linejoin:round;">
<path d="M102360 4720
L102360 3940
" />
</g>
<g style="fill:#840000; fill-opacity:0.0; 
stroke:#840000; stroke-width:100; stroke-opacity:1; 
stroke-linecap:round; stroke-linejoin:round;">
</g>
<g style="fill:#840000; fill-opacity:0.0; 
stroke:#840000; stroke-width:60; stroke-opacity:1; 
stroke-linecap:round; stroke-linejoin:round;">
<path d="M14190 4560
L13900 4560
" />
<path d="M14050 4560
L14050 4050
L14000 4120
L13950 4170
L13900 4190
" />
</g>
<g style="fill:#840000; fill-opacity:0.0; 
stroke:#840000; stroke-width:100; stroke-opacity:1; 
stroke-linecap:round; stroke-linejoin:round;">
</g>
<g style="fill:#840000; fill-opacity:0.0; 
stroke:#840000; stroke-width:60; stroke-opacity:1; 
stroke-linecap:round; stroke-linejoin:round;">
<path d="M33580 4090
L33610 4070
L33660 4050
L33780 4050
L33830 4070
L33850 4090
L33870 4140
L33870 4190
L33850 4260
L33560 4560
L33870 4560
" />
</g>
<g style="fill:#840000; fill-opacity:0.0; 
stroke:#840000; stroke-width:100; stroke-opacity:1; 
stroke-linecap:round; stroke-linejoin:round;">
</g>
<g style="fill:#840000; fill-opacity:0.0; 
stroke:#840000; stroke-width:60; stroke-opacity:1; 
stroke-linecap:round; stroke-linejoin:round;">
<path d="M53250 4050
L53560 4050
L53390 4240
L53470 4240
L53520 4260
L53540 4290
L53560 4340
L53560 4460
L53540 4510
L53520 4530
L53470 4560
L53320 4560
L53270 4530
L53250 4510
" />
</g>
<g style="fill:#840000; fill-opacity:0.0; 
stroke:#840000; stroke-width:100; stroke-opacity:1; 
stroke-linecap:round; stroke-linejoin:round;">
</g>
<g style="fill:#840000; fill-opacity:0.0; 
stroke:#840000; stroke-width:60; stroke-opacity:1; 
stroke-linecap:round; stroke-linejoin:round;">
<path d="M73200 4220
L73200 4560
" />
<path d="M73070 4020
L72950 4390
L73270 4390
" />
</g>
<g style="fill:#840000; fill-opacity:0.0; 
stroke:#840000; stroke-width:100; stroke-opacity:1; 
stroke-linecap:round; stroke-linejoin:round;">
</g>
<g style="fill:#840000; fill-opacity:0.0; 
stroke:#840000; stroke-width:60; stroke-opacity:1; 
stroke-linecap:round; stroke-linejoin:round;">
<path d="M92910 4050
L92670 4050
L92640 4290
L92670 4260
L92720 4240
L92840 4240
L92890 4260
L92910 4290
L92930 4340
L92930 4460
L92910 4510
L92890 4530
L92840 4560
L92720 4560
L92670 4530
L92640 4510
" />
</g>
<g style="fill:#840000; fill-opacity:0.0; 
stroke:#840000; stroke-width:100; stroke-opacity:1; 
stroke-linecap:round; stroke-linejoin:round;">
</g>
<g style="fill:#840000; fill-opacity:0.0; 
stroke:#840000; stroke-width:60; stroke-opacity:1; 
stroke-linecap:round; stroke-linejoin:round;">
<path d="M112570 4050
L112470 4050
L112420 4070
L112400 4090
L112350 4170
L112320 4260
L112320 4460
L112350 4510
L112370 4530
L112420 4560
L112520 4560
L112570 4530
L112590 4510
L112610 4460
L112610 4340
L112590 4290
L112570 4260
L112520 4240
L112420 4240
L112370 4260
L112350 4290
L112320 4340
" />
</g>
<g style="fill:#840000; fill-opacity:0.0; 
stroke:#840000; stroke-width:100; stroke-opacity:1; 
stroke-linecap:round; stroke-linejoin:round;">
</g>
<g style="fill:#840000; fill-opacity:0.0; 
stroke:#840000; stroke-width:60; stroke-opacity:1; 
stroke-linecap:round; stroke-linejoin:round;">
<path d="M23620 77960
L23620 78740
" />
</g>
<g style="fill:#840000; fill-opacity:0.0; 
stroke:#840000; stroke-width:100; stroke-opacity:1; 
stroke-linecap:round; stroke-linejoin:round;">
</g>
<g style="fill:#840000; fill-opacity:0.0; 
stroke:#840000; stroke-width:60; stroke-opacity:1; 
stroke-linecap:round; stroke-linejoin:round;">
<path d="M43310 77960
L43310 78740
" />
</g>
<g style="fill:#840000; fill-opacity:0.0; 
stroke:#840000; stroke-width:100; stroke-opacity:1; 
stroke-linecap:round; stroke-linejoin:round;">
</g>
<g style="fill:#840000; fill-opacity:0.0; 
stroke:#840000; stroke-width:60; stroke-opacity:1; 
stroke-linecap:round; stroke-linejoin:round;">
<path d="M62990 77960
L62990 78740
" />
</g>
<g style="fill:#840000; fill-opacity:0.0; 
stroke:#840000; stroke-width:100; stroke-opacity:1; 
stroke-linecap:round; stroke-linejoin:round;">
</g>
<g style="fill:#840000; fill-opacity:0.0; 
stroke:#840000; stroke-width:60; stroke-opacity:1; 
stroke-linecap:round; stroke-linejoin:round;">
<path d="M82680 77960
L82680 78740
" />
</g>
<g style="fill:#840000; fill-opacity:0.0; 
stroke:#840000; stroke-width:100; stroke-opacity:1; 
stroke-linecap:round; stroke-linejoin:round;">
</g>
<g style="fill:#840000; fill-opacity:0.0; 
stroke:#840000; stroke-width:60; stroke-opacity:1; 
stroke-linecap:round; stroke-linejoin:round;">
<path d="M102360 77960
L102360 78740
" />
</g>
<g style="fill:#840000; fill-opacity:0.0; 
stroke:#840000; stroke-width:100; stroke-opacity:1; 
stroke-linecap:round; stroke-linejoin:round;">
</g>
<g style="fill:#840000; fill-opacity:0.0; 
stroke:#840000; stroke-width:60; stroke-opacity:1; 
stroke-linecap:round; stroke-linejoin:round;">
<path d="M14190 78580
L13900 78580
" />
<path d="M14050 78580
L14050 78070
L14000 78140
L13950 78190
L13900 78210
" />
</g>
<g style="fill:#840000; fill-opacity:0.0; 
stroke:#840000; stroke-width:100; stroke-opacity:1; 
stroke-linecap:round; stroke-linejoin:round;">
</g>
<g style="fill:#840000; fill-opacity:0.0; 
stroke:#840000; stroke-width:60; stroke-opacity:1; 
stroke-linecap:round; stroke-linejoin:round;">
<path d="M33580 78110
L33610 78090
L33660 78070
L33780 78070
L33830 78090
L33850 78110
L33870 78160
L33870 78210
L33850 78280
L33560 78580
L33870 78580
" />
</g>
<g style="fill:#840000; fill-opacity:0.0; 
stroke:#840000; stroke-width:100; stroke-opacity:1; 
stroke-linecap:round; stroke-linejoin:round;">
</g>
<g style="fill:#840000; fill-opacity:0.0; 
stroke:#840000; stroke-width:60; stroke-opacity:1; 
stroke-linecap:round; stroke-linejoin:round;">
<path d="M53250 78070
L53560 78070
L53390 78260
L53470 78260
L53520 78280
L53540 78310
L53560 78360
L53560 78480
L53540 78530
L53520 78550
L53470 78580
L53320 78580
L53270 78550
L53250 78530
" />
</g>
<g style="fill:#840000; fill-opacity:0.0; 
stroke:#840000; stroke-width:100; stroke-opacity:1; 
stroke-linecap:round; stroke-linejoin:round;">
</g>
<g style="fill:#840000; fill-opacity:0.0; 
stroke:#840000; stroke-width:60; stroke-opacity:1; 
stroke-linecap:round; stroke-linejoin:round;">
<path d="M73200 78240
L73200 78580
" />
<path d="M73070 78040
L72950 78410
L73270 78410
" />
</g>
<g style="fill:#840000; fill-opacity:0.0; 
stroke:#840000; stroke-width:100; stroke-opacity:1; 
stroke-linecap:round; stroke-linejoin:round;">
</g>
<g style="fill:#840000; fill-opacity:0.0; 
stroke:#840000; stroke-width:60; stroke-opacity:1; 
stroke-linecap:round; stroke-linejoin:round;">
<path d="M92910 78070
L92670 78070
L92640 78310
L92670 78280
L92720 78260
L92840 78260
L92890 78280
L92910 78310
L92930 78360
L92930 78480
L92910 78530
L92890 78550
L92840 78580
L92720 78580
L92670 78550
L92640 78530
" />
</g>
<g style="fill:#840000; fill-opacity:0.0; 
stroke:#840000; stroke-width:100; stroke-opacity:1; 
stroke-linecap:round; stroke-linejoin:round;">
</g>
<g style="fill:#840000; fill-opacity:0.0; 
stroke:#840000; stroke-width:60; stroke-opacity:1; 
stroke-linecap:round; stroke-linejoin:round;">
<path d="M112570 78070
L112470 78070
L112420 78090
L112400 78110
L112350 78190
L112320 78280
L112320 78480
L112350 78530
L112370 78550
L112420 78580
L112520 78580
L112570 78550
L112590 78530
L112610 78480
L112610 78360
L112590 78310
L112570 78280
L112520 78260
L112420 78260
L112370 78280
L112350 78310
L112320 78360
" />
</g>
<g style="fill:#840000; fill-opacity:0.0; 
stroke:#840000; stroke-width:100; stroke-opacity:1; 
stroke-linecap:round; stroke-linejoin:round;">
</g>
<g style="fill:#840000; fill-opacity:0.0; 
stroke:#840000; stroke-width:60; stroke-opacity:1; 
stroke-linecap:round; stroke-linejoin:round;">
<path d="M3940 23620
L4720 23620
" />
</g>
<g style="fill:#840000; fill-opacity:0.0; 
stroke:#840000; stroke-width:100; stroke-opacity:1; 
stroke-linecap:round; stroke-linejoin:round;">
</g>
<g style="fill:#840000; fill-opacity:0.0; 
stroke:#840000; stroke-width:60; stroke-opacity:1; 
stroke-linecap:round; stroke-linejoin:round;">
<path d="M3940 43310
L4720 43310
" />
</g>
<g style="fill:#840000; fill-opacity:0.0; 
stroke:#840000; stroke-width:100; stroke-opacity:1; 
stroke-linecap:round; stroke-linejoin:round;">
</g>
<g style="fill:#840000; fill-opacity:0.0; 
stroke:#840000; stroke-width:60; stroke-opacity:1; 
stroke-linecap:round; stroke-linejoin:round;">
<path d="M3940 62990
L4720 62990
" />
</g>
<g style="fill:#840000; fill-opacity:0.0; 
stroke:#840000; stroke-width:100; stroke-opacity:1; 
stroke-linecap:round; stroke-linejoin:round;">
</g>
<g style="fill:#840000; fill-opacity:0.0; 
stroke:#840000; stroke-width:60; stroke-opacity:1; 
stroke-linecap:round; stroke-linejoin:round;">
<path d="M4200 13860
L4450 13860
" />
<path d="M4160 14010
L4330 13500
L4500 14010
" />
</g>
<g style="fill:#840000; fill-opacity:0.0; 
stroke:#840000; stroke-width:100; stroke-opacity:1; 
stroke-linecap:round; stroke-linejoin:round;">
</g>
<g style="fill:#840000; fill-opacity:0.0; 
stroke:#840000; stroke-width:60; stroke-opacity:1; 
stroke-linecap:round; stroke-linejoin:round;">
<path d="M4360 33420
L4430 33440
L4460 33470
L4480 33520
L4480 33590
L4460 33640
L4430 33660
L4390 33690
L4190 33690
L4190 33180
L4360 33180
L4410 33200
L4430 33220
L4460 33270
L4460 33320
L4430 33370
L4410 33390
L4360 33420
L4190 33420
" />
</g>
<g style="fill:#840000; fill-opacity:0.0; 
stroke:#840000; stroke-width:100; stroke-opacity:1; 
stroke-linecap:round; stroke-linejoin:round;">
</g>
<g style="fill:#840000; fill-opacity:0.0; 
stroke:#840000; stroke-width:60; stroke-opacity:1; 
stroke-linecap:round; stroke-linejoin:round;">
<path d="M4480 53330
L4460 53350
L4390 53380
L4340 53380
L4260 53350
L4220 53300
L4190 53250
L4170 53160
L4170 53080
L4190 52990
L4220 52940
L4260 52890
L4340 52870
L4390 52870
L4460 52890
L4480 52910
" />
</g>
<g style="fill:#840000; fill-opacity:0.0; 
stroke:#840000; stroke-width:100; stroke-opacity:1; 
stroke-linecap:round; stroke-linejoin:round;">
</g>
<g style="fill:#840000; fill-opacity:0.0; 
stroke:#840000; stroke-width:60; stroke-opacity:1; 
stroke-linecap:round; stroke-linejoin:round;">
<path d="M4190 73060
L4190 72550
L4310 72550
L4390 72570
L4430 72620
L4460 72670
L4480 72760
L4480 72840
L4460 72930
L4430 72980
L4390 73030
L4310 73060
L4190 73060
" />
</g>
<g style="fill:#840000; fill-opacity:0.0; 
stroke:#840000; stroke-width:100; stroke-opacity:1; 
stroke-linecap:round; stroke-linejoin:round;">
</g>
<g style="fill:#840000; fill-opacity:0.0; 
stroke:#840000; stroke-width:60; stroke-opacity:1; 
stroke-linecap:round; stroke-linejoin:round;">
<path d="M112990 23620
L112210 23620
" />
</g>
<g style="fill:#840000; fill-opacity:0.0; 
stroke:#840000; stroke-width:100; stroke-opacity:1; 
stroke-linecap:round; stroke-linejoin:round;">
</g>
<g style="fill:#840000; fill-opacity:0.0; 
stroke:#840000; stroke-width:60; stroke-opacity:1; 
stroke-linecap:round; stroke-linejoin:round;">
<path d="M112990 43310
L112210 43310
" />
</g>
<g style="fill:#840000; fill-opacity:0.0; 
stroke:#840000; stroke-width:100; stroke-opacity:1; 
stroke-linecap:round; stroke-linejoin:round;">
</g>
<g style="fill:#840000; fill-opacity:0.0; 
stroke:#840000; stroke-width:60; stroke-opacity:1; 
stroke-linecap:round; stroke-linejoin:round;">
<path d="M112990 62990
L112210 62990
" />
</g>
<g style="fill:#840000; fill-opacity:0.0; 
stroke:#840000; stroke-width:100; stroke-opacity:1; 
stroke-linecap:round; stroke-linejoin:round;">
</g>
<g style="fill:#840000; fill-opacity:0.0; 
stroke:#840000; stroke-width:60; stroke-opacity:1; 
stroke-linecap:round; stroke-linejoin:round;">
<path d="M112470 13860
L112720 13860
" />
<path d="M112430 14010
L112600 13500
L112770 14010
" />
</g>
<g style="fill:#840000; fill-opacity:0.0; 
stroke:#840000; stroke-width:100; stroke-opacity:1; 
stroke-linecap:round; stroke-linejoin:round;">
</g>
<g style="fill:#840000; fill-opacity:0.0; 
stroke:#840000; stroke-width:60; stroke-opacity:1; 
stroke-linecap:round; stroke-linejoin:round;">
<path d="M112630 33420
L112700 33440
L112730 33470
L112750 33520
L112750 33590
L112730 33640
L112700 33660
L112660 33690
L112460 33690
L112460 33180
L112630 33180
L112680 33200
L112700 33220
L112730 33270
L112730 33320
L112700 33370
L112680 33390
L112630 33420
L112460 33420
" />
</g>
<g style="fill:#840000; fill-opacity:0.0; 
stroke:#840000; stroke-width:100; stroke-opacity:1; 
stroke-linecap:round; stroke-linejoin:round;">
</g>
<g style="fill:#840000; fill-opacity:0.0; 
stroke:#840000; stroke-width:60; stroke-opacity:1; 
stroke-linecap:round; stroke-linejoin:round;">
<path d="M112750 53330
L112730 53350
L112660 53380
L112610 53380
L112530 53350
L112490 53300
L112460 53250
L112440 53160
L112440 53080
L112460 52990
L112490 52940
L112530 52890
L112610 52870
L112660 52870
L112730 52890
L112750 52910
" />
</g>
<g style="fill:#840000; fill-opacity:0.0; 
stroke:#840000; stroke-width:100; stroke-opacity:1; 
stroke-linecap:round; stroke-linejoin:round;">
</g>
<g style="fill:#840000; fill-opacity:0.0; 
stroke:#840000; stroke-width:60; stroke-opacity:1; 
stroke-linecap:round; stroke-linejoin:round;">
<path d="M112460 73060
L112460 72550
L112580 72550
L112660 72570
L112700 72620
L112730 72670
L112750 72760
L112750 72840
L112730 72930
L112700 72980
L112660 73030
L112580 73060
L112460 73060
" />
</g>
<g style="fill:#840000; fill-opacity:0.0; 
stroke:#840000; stroke-width:100; stroke-opacity:1; 
stroke-linecap:round; stroke-linejoin:round;">
</g>
<g style="fill:#840000; fill-opacity:0.0; 
stroke:#840000; stroke-width:60; stroke-opacity:1; 
stroke-linecap:round; stroke-linejoin:round;">
<path d="M78910 76290
L78910 75700
L79050 75700
L79130 75730
L79190 75790
L79210 75840
L79240 75950
L79240 76040
L79210 76150
L79190 76210
L79130 76260
L79050 76290
L78910 76290
" />
<path d="M79750 76290
L79750 75980
L79720 75930
L79660 75900
L79550 75900
L79500 75930
" />
<path d="M79750 76260
L79690 76290
L79550 76290
L79500 76260
L79470 76210
L79470 76150
L79500 76100
L79550 76070
L79690 76070
L79750 76040
" />
<path d="M79950 75900
L80170 75900
" />
<path d="M80030 75700
L80030 76210
L80060 76260
L80110 76290
L80170 76290
" />
<path d="M80590 76260
L80540 76290
L80420 76290
L80370 76260
L80340 76210
L80340 75980
L80370 75930
L80420 75900
L80540 75900
L80590 75930
L80620 75980
L80620 76040
L80340 76100
" />
<path d="M80870 76240
L80900 76260
L80870 76290
L80840 76260
L80870 76240
L80870 76290
" />
<path d="M80870 75930
L80900 75950
L80870 75980
L80840 75950
L80870 75930
L80870 75980
" />
<path d="M81570 75760
L81600 75730
L81660 75700
L81800 75700
L81860 75730
L81880 75760
L81910 75810
L81910 75870
L81880 75950
L81550 76290
L81910 76290
" />
<path d="M82280 75700
L82330 75700
L82390 75730
L82420 75760
L82450 75810
L82470 75930
L82470 76070
L82450 76180
L82420 76240
L82390 76260
L82330 76290
L82280 76290
L82220 76260
L82190 76240
L82160 76180
L82140 76070
L82140 75930
L82160 75810
L82190 75760
L82220 75730
L82280 75700
" />
<path d="M82700 75760
L82730 75730
L82780 75700
L82920 75700
L82980 75730
L83010 75760
L83040 75810
L83040 75870
L83010 75950
L82670 76290
L83040 76290
" />
<path d="M83400 75700
L83460 75700
L83510 75730
L83540 75760
L83570 75810
L83600 75930
L83600 76070
L83570 76180
L83540 76240
L83510 76260
L83460 76290
L83400 76290
L83340 76260
L83320 76240
L83290 76180
L83260 76070
L83260 75930
L83290 75810
L83320 75760
L83340 75730
L83400 75700
" />
<path d="M83850 76070
L84300 76070
" />
<path d="M84690 75700
L84750 75700
L84810 75730
L84830 75760
L84860 75810
L84890 75930
L84890 76070
L84860 76180
L84830 76240
L84810 76260
L84750 76290
L84690 76290
L84640 76260
L84610 76240
L84580 76180
L84550 76070
L84550 75930
L84580 75810
L84610 75760
L84640 75730
L84690 75700
" />
<path d="M85450 76290
L85110 76290
" />
<path d="M85280 76290
L85280 75700
L85230 75790
L85170 75840
L85110 75870
" />
<path d="M85700 76070
L86150 76070
" />
<path d="M86550 75700
L86600 75700
L86660 75730
L86690 75760
L86720 75810
L86740 75930
L86740 76070
L86720 76180
L86690 76240
L86660 76260
L86600 76290
L86550 76290
L86490 76260
L86460 76240
L86440 76180
L86410 76070
L86410 75930
L86440 75810
L86460 75760
L86490 75730
L86550 75700
" />
<path d="M86940 75700
L87330 75700
L87080 76290
" />
</g>
<g style="fill:#840000; fill-opacity:0.0; 
stroke:#840000; stroke-width:100; stroke-opacity:1; 
stroke-linecap:round; stroke-linejoin:round;">
</g>
<g style="fill:#840000; fill-opacity:0.0; 
stroke:#840000; stroke-width:60; stroke-opacity:1; 
stroke-linecap:round; stroke-linejoin:round;">
<path d="M69690 76580
L112210 76580
" />
</g>
<g style="fill:#840000; fill-opacity:0.0; 
stroke:#840000; stroke-width:100; stroke-opacity:1; 
stroke-linecap:round; stroke-linejoin:round;">
</g>
<g style="fill:#840000; fill-opacity:0.0; 
stroke:#840000; stroke-width:60; stroke-opacity:1; 
stroke-linecap:round; stroke-linejoin:round;">
<path d="M70250 77390
L70250 76800
" />
<path d="M70580 77390
L70330 77050
" />
<path d="M70580 76800
L70250 77140
" />
<path d="M70840 77390
L70840 77000
" />
<path d="M70840 76800
L70810 76830
L70840 76860
L70860 76830
L70840 76800
L70840 76860
" />
<path d="M71450 77340
L71430 77360
L71340 77390
L71290 77390
L71200 77360
L71140 77310
L71120 77250
L71090 77140
L71090 77050
L71120 76940
L71140 76890
L71200 76830
L71290 76800
L71340 76800
L71430 76830
L71450 76860
" />
<path d="M71960 77390
L71960 77080
L71930 77030
L71880 77000
L71760 77000
L71710 77030
" />
<path d="M71960 77360
L71900 77390
L71760 77390
L71710 77360
L71680 77310
L71680 77250
L71710 77200
L71760 77170
L71900 77170
L71960 77140
" />
<path d="M72490 77390
L72490 76800
" />
<path d="M72490 77360
L72440 77390
L72320 77390
L72270 77360
L72240 77340
L72210 77280
L72210 77110
L72240 77050
L72270 77030
L72320 77000
L72440 77000
L72490 77030
" />
<path d="M73220 77080
L73420 77080
" />
<path d="M73500 77390
L73220 77390
L73220 76800
L73500 76800
" />
<path d="M73760 77340
L73790 77360
L73760 77390
L73730 77360
L73760 77340
L73760 77390
" />
<path d="M74040 77390
L74040 76800
L74180 76800
L74260 76830
L74320 76890
L74350 76940
L74380 77050
L74380 77140
L74350 77250
L74320 77310
L74260 77360
L74180 77390
L74040 77390
" />
<path d="M74630 77340
L74660 77360
L74630 77390
L74600 77360
L74630 77340
L74630 77390
" />
<path d="M74880 77220
L75160 77220
" />
<path d="M74830 77390
L75020 76800
L75220 77390
" />
<path d="M75420 77340
L75440 77360
L75420 77390
L75390 77360
L75420 77340
L75420 77390
" />
<path d="M76600 77390
L76600 76800
" />
<path d="M76650 77170
L76820 77390
" />
<path d="M76820 77000
L76600 77220
" />
<path d="M77070 77390
L77070 77000
" />
<path d="M77070 76800
L77040 76830
L77070 76860
L77100 76830
L77070 76800
L77070 76860
" />
<path d="M77610 77360
L77550 77390
L77440 77390
L77380 77360
L77350 77340
L77330 77280
L77330 77110
L77350 77050
L77380 77030
L77440 77000
L77550 77000
L77610 77030
" />
<path d="M78110 77390
L78110 77080
L78080 77030
L78030 77000
L77920 77000
L77860 77030
" />
<path d="M78110 77360
L78060 77390
L77920 77390
L77860 77360
L77830 77310
L77830 77250
L77860 77200
L77920 77170
L78060 77170
L78110 77140
" />
<path d="M78650 77390
L78650 76800
" />
<path d="M78650 77360
L78590 77390
L78480 77390
L78420 77360
L78390 77340
L78370 77280
L78370 77110
L78390 77050
L78420 77030
L78480 77000
L78590 77000
L78650 77030
" />
<path d="M79550 77620
L79520 77590
L79460 77500
L79430 77450
L79400 77360
L79380 77220
L79380 77110
L79400 76970
L79430 76890
L79460 76830
L79520 76750
L79550 76720
" />
<path d="M80050 76800
L79770 76800
L79740 77080
L79770 77050
L79830 77030
L79970 77030
L80020 77050
L80050 77080
L80080 77140
L80080 77280
L80050 77340
L80020 77360
L79970 77390
L79830 77390
L79770 77360
L79740 77340
" />
<path d="M80330 77340
L80360 77360
L80330 77390
L80300 77360
L80330 77340
L80330 77390
" />
<path d="M80920 77390
L80580 77390
" />
<path d="M80750 77390
L80750 76800
L80700 76890
L80640 76940
L80580 76970
" />
<path d="M81170 77340
L81200 77360
L81170 77390
L81150 77360
L81170 77340
L81170 77390
" />
<path d="M81710 77000
L81710 77390
" />
<path d="M81570 76770
L81430 77200
L81790 77200
" />
<path d="M81960 77620
L81990 77590
L82050 77500
L82070 77450
L82100 77360
L82130 77220
L82130 77110
L82100 76970
L82070 76890
L82050 76830
L81990 76750
L81960 76720
" />
<path d="M82410 77170
L82860 77170
" />
<path d="M83450 77390
L83110 77390
" />
<path d="M83280 77390
L83280 76800
L83230 76890
L83170 76940
L83110 76970
" />
</g>
<g style="fill:#840000; fill-opacity:0.0; 
stroke:#840000; stroke-width:100; stroke-opacity:1; 
stroke-linecap:round; stroke-linejoin:round;">
</g>
<g style="fill:#840000; fill-opacity:0.0; 
stroke:#840000; stroke-width:60; stroke-opacity:1; 
stroke-linecap:round; stroke-linejoin:round;">
<path d="M69690 75400
L112210 75400
" />
</g>
<g style="fill:#840000; fill-opacity:0.0; 
stroke:#840000; stroke-width:100; stroke-opacity:1; 
stroke-linecap:round; stroke-linejoin:round;">
</g>
<g style="fill:#840000; fill-opacity:0.0; 
stroke:#840000; stroke-width:120; stroke-opacity:1; 
stroke-linecap:round; stroke-linejoin:round;">
<path d="M104090 76290
L103890 76010
" />
<path d="M103750 76290
L103750 75700
L103980 75700
L104030 75730
L104060 75760
L104090 75810
L104090 75900
L104060 75950
L104030 75980
L103980 76010
L103750 76010
" />
<path d="M104570 76260
L104510 76290
L104400 76290
L104340 76260
L104320 76210
L104320 75980
L104340 75930
L104400 75900
L104510 75900
L104570 75930
L104600 75980
L104600 76040
L104320 76100
" />
<path d="M104790 75900
L104930 76290
L105070 75900
" />
<path d="M105300 76240
L105330 76260
L105300 76290
L105270 76260
L105300 76240
L105300 76290
" />
<path d="M105300 75930
L105330 75950
L105300 75980
L105270 75950
L105300 75930
L105300 75980
" />
<path d="M106000 76120
L106280 76120
" />
<path d="M105940 76290
L106140 75700
L106340 76290
" />
</g>
<g style="fill:#840000; fill-opacity:0.0; 
stroke:#840000; stroke-width:100; stroke-opacity:1; 
stroke-linecap:round; stroke-linejoin:round;">
</g>
<g style="fill:#840000; fill-opacity:0.0; 
stroke:#840000; stroke-width:60; stroke-opacity:1; 
stroke-linecap:round; stroke-linejoin:round;">
<path d="M70220 76260
L70300 76290
L70440 76290
L70500 76260
L70530 76240
L70550 76180
L70550 76120
L70530 76070
L70500 76040
L70440 76010
L70330 75980
L70270 75950
L70250 75930
L70220 75870
L70220 75810
L70250 75760
L70270 75730
L70330 75700
L70470 75700
L70550 75730
" />
<path d="M70810 76290
L70810 75900
" />
<path d="M70810 75700
L70780 75730
L70810 75760
L70840 75730
L70810 75700
L70810 75760
" />
<path d="M71030 75900
L71340 75900
L71030 76290
L71340 76290
" />
<path d="M71790 76260
L71730 76290
L71620 76290
L71570 76260
L71540 76210
L71540 75980
L71570 75930
L71620 75900
L71730 75900
L71790 75930
L71820 75980
L71820 76040
L71540 76100
" />
<path d="M72070 76240
L72100 76260
L72070 76290
L72040 76260
L72070 76240
L72070 76290
" />
<path d="M72070 75930
L72100 75950
L72070 75980
L72040 75950
L72070 75930
L72070 75980
" />
<path d="M72770 76120
L73060 76120
" />
<path d="M72720 76290
L72910 75700
L73110 76290
" />
<path d="M73560 75900
L73560 76290
" />
<path d="M73420 75670
L73280 76100
L73650 76100
" />
</g>
<g style="fill:#840000; fill-opacity:0.0; 
stroke:#840000; stroke-width:100; stroke-opacity:1; 
stroke-linecap:round; stroke-linejoin:round;">
</g>
<g style="fill:#840000; fill-opacity:0.0; 
stroke:#840000; stroke-width:60; stroke-opacity:1; 
stroke-linecap:round; stroke-linejoin:round;">
<path d="M103710 77390
L103710 76800
" />
<path d="M104240 77390
L104240 76800
" />
<path d="M104240 77360
L104180 77390
L104070 77390
L104010 77360
L103990 77340
L103960 77280
L103960 77110
L103990 77050
L104010 77030
L104070 77000
L104180 77000
L104240 77030
" />
<path d="M104520 77340
L104550 77360
L104520 77390
L104490 77360
L104520 77340
L104520 77390
" />
<path d="M104520 77030
L104550 77050
L104520 77080
L104490 77050
L104520 77030
L104520 77080
" />
<path d="M105560 77390
L105220 77390
" />
<path d="M105390 77390
L105390 76800
L105340 76890
L105280 76940
L105220 76970
" />
<path d="M106230 76770
L105730 77530
" />
<path d="M106740 77390
L106400 77390
" />
<path d="M106570 77390
L106570 76800
L106520 76890
L106460 76940
L106400 76970
" />
</g>
<g style="fill:#840000; fill-opacity:0.0; 
stroke:#840000; stroke-width:100; stroke-opacity:1; 
stroke-linecap:round; stroke-linejoin:round;">
</g>
<g style="fill:#840000; fill-opacity:0.0; 
stroke:#840000; stroke-width:60; stroke-opacity:1; 
stroke-linecap:round; stroke-linejoin:round;">
<path d="M69690 73820
L112210 73820
" />
</g>
<g style="fill:#840000; fill-opacity:0.0; 
stroke:#840000; stroke-width:100; stroke-opacity:1; 
stroke-linecap:round; stroke-linejoin:round;">
</g>
<g style="fill:#840000; fill-opacity:0.0; 
stroke:#840000; stroke-width:160; stroke-opacity:1; 
stroke-linecap:round; stroke-linejoin:round;">
<path d="M70360 74090
L70810 74090
" />
<path d="M70480 74880
L70580 74090
" />
<path d="M70970 74880
L71040 74360
" />
<path d="M71070 74090
L71030 74130
L71060 74170
L71110 74130
L71070 74090
L71060 74170
" />
<path d="M71300 74360
L71600 74360
" />
<path d="M71450 74090
L71360 74770
L71390 74840
L71460 74880
L71540 74880
" />
<path d="M71910 74880
L71840 74840
L71820 74770
L71900 74090
" />
<path d="M72520 74840
L72440 74880
L72290 74880
L72220 74840
L72190 74770
L72230 74470
L72280 74390
L72360 74360
L72510 74360
L72580 74390
L72610 74470
L72600 74540
L72210 74620
" />
<path d="M72900 74810
L72930 74840
L72890 74880
L72860 74840
L72900 74810
L72890 74880
" />
<path d="M72950 74390
L72990 74430
L72940 74470
L72910 74430
L72950 74390
L72940 74470
" />
<path d="M73900 74360
L74460 74360
" />
<path d="M74170 74020
L73810 75030
" />
<path d="M74350 74690
L73780 74690
" />
<path d="M74080 75030
L74430 74020
" />
<path d="M75060 74360
L75000 74880
" />
<path d="M74910 74050
L74660 74620
L75140 74620
" />
<path d="M75830 74880
L75380 74880
" />
<path d="M75600 74880
L75700 74090
L75610 74210
L75530 74280
L75450 74320
" />
<path d="M76410 74090
L76490 74090
L76560 74130
L76590 74170
L76620 74240
L76640 74390
L76620 74580
L76560 74730
L76510 74810
L76470 74840
L76390 74880
L76320 74880
L76250 74840
L76210 74810
L76180 74730
L76170 74580
L76190 74390
L76250 74240
L76290 74170
L76330 74130
L76410 74090
" />
<path d="M76960 74580
L77560 74580
" />
<path d="M78140 74090
L78220 74090
L78290 74130
L78320 74170
L78350 74240
L78370 74390
L78350 74580
L78290 74730
L78240 74810
L78200 74840
L78120 74880
L78050 74880
L77980 74840
L77940 74810
L77910 74730
L77900 74580
L77920 74390
L77980 74240
L78020 74170
L78060 74130
L78140 74090
" />
<path d="M78900 74090
L78970 74090
L79040 74130
L79080 74170
L79100 74240
L79120 74390
L79100 74580
L79040 74730
L79000 74810
L78950 74840
L78870 74880
L78800 74880
L78730 74840
L78700 74810
L78670 74730
L78650 74580
L78670 74390
L78730 74240
L78770 74170
L78820 74130
L78900 74090
" />
<path d="M79650 74090
L79720 74090
L79800 74130
L79830 74170
L79860 74240
L79880 74390
L79850 74580
L79800 74730
L79750 74810
L79710 74840
L79630 74880
L79550 74880
L79480 74840
L79450 74810
L79420 74730
L79400 74580
L79420 74390
L79480 74240
L79530 74170
L79570 74130
L79650 74090
" />
<path d="M80190 74580
L80790 74580
" />
<path d="M81100 74840
L81210 74880
L81390 74880
L81470 74840
L81520 74810
L81560 74730
L81570 74660
L81540 74580
L81510 74540
L81440 74510
L81300 74470
L81220 74430
L81190 74390
L81160 74320
L81170 74240
L81220 74170
L81260 74130
L81340 74090
L81530 74090
L81640 74130
" />
<path d="M82300 74880
L81850 74880
" />
<path d="M82070 74880
L82170 74090
L82080 74210
L82000 74280
L81920 74320
" />
<path d="M82630 74660
L83000 74660
" />
<path d="M82520 74880
L82880 74090
L83050 74880
" />
<path d="M83950 74580
L84550 74580
" />
<path d="M85460 74840
L85570 74880
L85760 74880
L85840 74840
L85880 74810
L85930 74730
L85940 74660
L85910 74580
L85880 74540
L85810 74510
L85660 74470
L85590 74430
L85560 74390
L85530 74320
L85540 74240
L85580 74170
L85630 74130
L85710 74090
L85890 74090
L86000 74130
" />
<path d="M86240 74360
L86320 74880
L86520 74510
L86620 74880
L86840 74360
" />
<path d="M87070 74880
L87140 74360
" />
<path d="M87170 74090
L87130 74130
L87160 74170
L87210 74130
L87170 74090
L87160 74170
" />
<path d="M87400 74360
L87700 74360
" />
<path d="M87550 74090
L87460 74770
L87490 74840
L87560 74880
L87640 74880
" />
<path d="M88250 74840
L88170 74880
L88020 74880
L87940 74840
L87910 74810
L87880 74730
L87910 74510
L87960 74430
L88000 74390
L88080 74360
L88230 74360
L88300 74390
" />
<path d="M88580 74880
L88680 74090
" />
<path d="M88920 74880
L88970 74470
L88940 74390
L88870 74360
L88760 74360
L88680 74390
L88640 74430
" />
<path d="M89290 74880
L89360 74360
" />
<path d="M89390 74090
L89350 74130
L89380 74170
L89430 74130
L89390 74090
L89380 74170
" />
<path d="M89740 74360
L89670 74880
" />
<path d="M89730 74430
L89770 74390
L89850 74360
L89960 74360
L90030 74390
L90060 74470
L90010 74880
" />
<path d="M90790 74360
L90710 75000
L90660 75070
L90620 75110
L90540 75150
L90430 75150
L90360 75110
" />
<path d="M90730 74840
L90650 74880
L90500 74880
L90430 74840
L90390 74810
L90370 74730
L90390 74510
L90440 74430
L90480 74390
L90560 74360
L90710 74360
L90780 74390
" />
<path d="M91700 74880
L91800 74090
L92100 74090
L92170 74130
L92200 74170
L92230 74240
L92220 74360
L92170 74430
L92130 74470
L92050 74510
L91750 74510
" />
<path d="M92950 74810
L92910 74840
L92790 74880
L92720 74880
L92610 74840
L92540 74770
L92520 74690
L92500 74540
L92510 74430
L92570 74280
L92610 74210
L92700 74130
L92820 74090
L92890 74090
L93000 74130
L93030 74170
" />
<path d="M93600 74470
L93710 74510
L93740 74540
L93770 74620
L93750 74730
L93710 74810
L93660 74840
L93580 74880
L93280 74880
L93380 74090
L93640 74090
L93710 74130
L93750 74170
L93780 74240
L93770 74320
L93720 74390
L93680 74430
L93600 74470
L93330 74470
" />
<path d="M94870 75150
L94680 75150
L94820 74020
L95010 74020
" />
<path d="M95200 74880
L95300 74090
L95490 74090
L95600 74130
L95660 74210
L95690 74280
L95710 74430
L95690 74540
L95640 74690
L95590 74770
L95510 74840
L95390 74880
L95200 74880
" />
<path d="M95990 74880
L96090 74090
L96390 74090
L96460 74130
L96490 74170
L96520 74240
L96510 74360
L96460 74430
L96420 74470
L96340 74510
L96040 74510
" />
<path d="M96780 74880
L96880 74090
L97070 74090
L97180 74130
L97240 74210
L97270 74280
L97290 74430
L97270 74540
L97220 74690
L97170 74770
L97090 74840
L96970 74880
L96780 74880
" />
<path d="M97560 74090
L98010 74090
" />
<path d="M97680 74880
L97780 74090
" />
<path d="M98210 74840
L98210 74880
L98160 74960
L98120 75000
" />
<path d="M99530 74880
L99150 74880
L99250 74090
" />
<path d="M100130 74880
L100180 74470
L100150 74390
L100080 74360
L99930 74360
L99850 74390
" />
<path d="M100130 74840
L100050 74880
L99870 74880
L99790 74840
L99770 74770
L99780 74690
L99820 74620
L99900 74580
L100090 74580
L100170 74540
" />
<path d="M100460 74360
L100760 74360
" />
<path d="M100600 74090
L100520 74770
L100550 74840
L100620 74880
L100690 74880
" />
<path d="M101300 74840
L101220 74880
L101070 74880
L101000 74840
L100970 74810
L100940 74730
L100970 74510
L101010 74430
L101050 74390
L101130 74360
L101290 74360
L101360 74390
" />
<path d="M101630 74880
L101730 74090
" />
<path d="M101970 74880
L102020 74470
L102000 74390
L101920 74360
L101810 74360
L101730 74390
L101690 74430
" />
<path d="M102350 74880
L102410 74360
" />
<path d="M102450 74090
L102400 74130
L102440 74170
L102480 74130
L102450 74090
L102440 74170
" />
<path d="M102790 74360
L102720 74880
" />
<path d="M102780 74430
L102820 74390
L102900 74360
L103020 74360
L103090 74390
L103110 74470
L103060 74880
" />
<path d="M103840 74360
L103760 75000
L103720 75070
L103670 75110
L103590 75150
L103480 75150
L103410 75110
" />
<path d="M103780 74840
L103700 74880
L103550 74880
L103480 74840
L103450 74810
L103420 74730
L103450 74510
L103500 74430
L103540 74390
L103620 74360
L103770 74360
L103840 74390
" />
<path d="M104050 75150
L104230 75150
L104370 74020
L104190 74020
" />
</g>
<g style="fill:#840000; fill-opacity:0.0; 
stroke:#840000; stroke-width:100; stroke-opacity:1; 
stroke-linecap:round; stroke-linejoin:round;">
</g>
<g style="fill:#840000; fill-opacity:0.0; 
stroke:#840000; stroke-width:60; stroke-opacity:1; 
stroke-linecap:round; stroke-linejoin:round;">
<path d="M70440 73060
L70250 73060
" />
<path d="M70250 73370
L70250 72780
L70530 72780
" />
<path d="M70750 73370
L70750 72980
" />
<path d="M70750 72780
L70720 72810
L70750 72840
L70780 72810
L70750 72780
L70750 72840
" />
<path d="M71120 73370
L71060 73340
L71030 73290
L71030 72780
" />
<path d="M71570 73340
L71510 73370
L71400 73370
L71340 73340
L71310 73290
L71310 73060
L71340 73010
L71400 72980
L71510 72980
L71570 73010
L71590 73060
L71590 73120
L71310 73180
" />
<path d="M71850 73320
L71880 73340
L71850 73370
L71820 73340
L71850 73320
L71850 73370
" />
<path d="M71850 73010
L71880 73030
L71850 73060
L71820 73030
L71850 73010
L71850 73060
" />
<path d="M72550 72980
L72970 72980
" />
<path d="M72720 72730
L72550 73480
" />
<path d="M72910 73230
L72490 73230
" />
<path d="M72750 73480
L72910 72730
" />
<path d="M73420 72980
L73420 73370
" />
<path d="M73280 72750
L73140 73180
L73500 73180
" />
<path d="M74040 73370
L73700 73370
" />
<path d="M73870 73370
L73870 72780
L73810 72870
L73760 72920
L73700 72950
" />
<path d="M74400 72780
L74460 72780
L74520 72810
L74540 72840
L74570 72890
L74600 73010
L74600 73150
L74570 73260
L74540 73320
L74520 73340
L74460 73370
L74400 73370
L74350 73340
L74320 73320
L74290 73260
L74260 73150
L74260 73010
L74290 72890
L74320 72840
L74350 72810
L74400 72780
" />
<path d="M74850 73150
L75300 73150
" />
<path d="M75700 72780
L75750 72780
L75810 72810
L75840 72840
L75860 72890
L75890 73010
L75890 73150
L75860 73260
L75840 73320
L75810 73340
L75750 73370
L75700 73370
L75640 73340
L75610 73320
L75580 73260
L75560 73150
L75560 73010
L75580 72890
L75610 72840
L75640 72810
L75700 72780
" />
<path d="M76260 72780
L76310 72780
L76370 72810
L76400 72840
L76430 72890
L76450 73010
L76450 73150
L76430 73260
L76400 73320
L76370 73340
L76310 73370
L76260 73370
L76200 73340
L76170 73320
L76150 73260
L76120 73150
L76120 73010
L76150 72890
L76170 72840
L76200 72810
L76260 72780
" />
<path d="M76820 72780
L76880 72780
L76930 72810
L76960 72840
L76990 72890
L77020 73010
L77020 73150
L76990 73260
L76960 73320
L76930 73340
L76880 73370
L76820 73370
L76760 73340
L76740 73320
L76710 73260
L76680 73150
L76680 73010
L76710 72890
L76740 72840
L76760 72810
L76820 72780
" />
<path d="M77270 73150
L77720 73150
" />
<path d="M77970 73340
L78060 73370
L78200 73370
L78250 73340
L78280 73320
L78310 73260
L78310 73200
L78280 73150
L78250 73120
L78200 73090
L78080 73060
L78030 73030
L78000 73010
L77970 72950
L77970 72890
L78000 72840
L78030 72810
L78080 72780
L78220 72780
L78310 72810
" />
<path d="M78870 73370
L78530 73370
" />
<path d="M78700 73370
L78700 72780
L78650 72870
L78590 72920
L78530 72950
" />
<path d="M79100 73200
L79380 73200
" />
<path d="M79040 73370
L79240 72780
L79430 73370
" />
<path d="M80080 73150
L80530 73150
" />
<path d="M81230 73340
L81320 73370
L81460 73370
L81510 73340
L81540 73320
L81570 73260
L81570 73200
L81540 73150
L81510 73120
L81460 73090
L81340 73060
L81290 73030
L81260 73010
L81230 72950
L81230 72890
L81260 72840
L81290 72810
L81340 72780
L81480 72780
L81570 72810
" />
<path d="M81760 72980
L81880 73370
L81990 73090
L82100 73370
L82210 72980
" />
<path d="M82440 73370
L82440 72980
" />
<path d="M82440 72780
L82410 72810
L82440 72840
L82470 72810
L82440 72780
L82440 72840
" />
<path d="M82640 72980
L82860 72980
" />
<path d="M82720 72780
L82720 73290
L82750 73340
L82800 73370
L82860 73370
" />
<path d="M83310 73340
L83250 73370
L83140 73370
L83090 73340
L83060 73320
L83030 73260
L83030 73090
L83060 73030
L83090 73010
L83140 72980
L83250 72980
L83310 73010
" />
<path d="M83560 73370
L83560 72780
" />
<path d="M83820 73370
L83820 73060
L83790 73010
L83730 72980
L83650 72980
L83590 73010
L83560 73030
" />
<path d="M84100 73370
L84100 72980
" />
<path d="M84100 72780
L84070 72810
L84100 72840
L84120 72810
L84100 72780
L84100 72840
" />
<path d="M84380 72980
L84380 73370
" />
<path d="M84380 73030
L84410 73010
L84460 72980
L84550 72980
L84600 73010
L84630 73060
L84630 73370
" />
<path d="M85160 72980
L85160 73460
L85140 73510
L85110 73540
L85050 73570
L84970 73570
L84910 73540
" />
<path d="M85160 73340
L85110 73370
L85000 73370
L84940 73340
L84910 73320
L84880 73260
L84880 73090
L84910 73030
L84940 73010
L85000 72980
L85110 72980
L85160 73010
" />
<path d="M85890 73370
L85890 72780
L86120 72780
L86180 72810
L86200 72840
L86230 72890
L86230 72980
L86200 73030
L86180 73060
L86120 73090
L85890 73090
" />
<path d="M86820 73320
L86790 73340
L86710 73370
L86650 73370
L86570 73340
L86510 73290
L86480 73230
L86460 73120
L86460 73030
L86480 72920
L86510 72870
L86570 72810
L86650 72780
L86710 72780
L86790 72810
L86820 72840
" />
<path d="M87270 73060
L87360 73090
L87380 73120
L87410 73180
L87410 73260
L87380 73320
L87360 73340
L87300 73370
L87070 73370
L87070 72780
L87270 72780
L87330 72810
L87360 72840
L87380 72890
L87380 72950
L87360 73010
L87330 73030
L87270 73060
L87070 73060
" />
<path d="M88280 73570
L88140 73570
L88140 72730
L88280 72730
" />
<path d="M88510 73370
L88510 72780
L88650 72780
L88730 72810
L88790 72870
L88820 72920
L88840 73030
L88840 73120
L88820 73230
L88790 73290
L88730 73340
L88650 73370
L88510 73370
" />
<path d="M89100 73370
L89100 72780
L89320 72780
L89380 72810
L89410 72840
L89430 72890
L89430 72980
L89410 73030
L89380 73060
L89320 73090
L89100 73090
" />
<path d="M89690 73370
L89690 72780
L89830 72780
L89910 72810
L89970 72870
L90000 72920
L90020 73030
L90020 73120
L90000 73230
L89970 73290
L89910 73340
L89830 73370
L89690 73370
" />
<path d="M90190 72780
L90530 72780
" />
<path d="M90360 73370
L90360 72780
" />
<path d="M90760 73340
L90760 73370
L90730 73430
L90700 73460
" />
<path d="M91740 73370
L91460 73370
L91460 72780
" />
<path d="M92190 73370
L92190 73060
L92160 73010
L92100 72980
L91990 72980
L91940 73010
" />
<path d="M92190 73340
L92130 73370
L91990 73370
L91940 73340
L91910 73290
L91910 73230
L91940 73180
L91990 73150
L92130 73150
L92190 73120
" />
<path d="M92380 72980
L92610 72980
" />
<path d="M92470 72780
L92470 73290
L92500 73340
L92550 73370
L92610 73370
" />
<path d="M93060 73340
L93000 73370
L92890 73370
L92830 73340
L92810 73320
L92780 73260
L92780 73090
L92810 73030
L92830 73010
L92890 72980
L93000 72980
L93060 73010
" />
<path d="M93310 73370
L93310 72780
" />
<path d="M93560 73370
L93560 73060
L93540 73010
L93480 72980
L93400 72980
L93340 73010
L93310 73030
" />
<path d="M93850 73370
L93850 72980
" />
<path d="M93850 72780
L93820 72810
L93850 72840
L93870 72810
L93850 72780
L93850 72840
" />
<path d="M94130 72980
L94130 73370
" />
<path d="M94130 73030
L94150 73010
L94210 72980
L94300 72980
L94350 73010
L94380 73060
L94380 73370
" />
<path d="M94910 72980
L94910 73460
L94890 73510
L94860 73540
L94800 73570
L94720 73570
L94660 73540
" />
<path d="M94910 73340
L94860 73370
L94740 73370
L94690 73340
L94660 73320
L94630 73260
L94630 73090
L94660 73030
L94690 73010
L94740 72980
L94860 72980
L94910 73010
" />
<path d="M95140 73570
L95280 73570
L95280 72730
L95140 72730
" />
<path d="M95590 73320
L95620 73340
L95590 73370
L95560 73340
L95590 73320
L95590 73370
" />
<path d="M95840 73340
L95900 73370
L96010 73370
L96070 73340
L96090 73290
L96090 73260
L96070 73200
L96010 73180
L95920 73180
L95870 73150
L95840 73090
L95840 73060
L95870 73010
L95920 72980
L96010 72980
L96070 73010
" />
<path d="M96600 73340
L96540 73370
L96430 73370
L96370 73340
L96350 73320
L96320 73260
L96320 73090
L96350 73030
L96370 73010
L96430 72980
L96540 72980
L96600 73010
" />
<path d="M96850 73370
L96850 72780
" />
<path d="M97100 73370
L97100 73060
L97080 73010
L97020 72980
L96940 72980
L96880 73010
L96850 73030
" />
</g>
<g style="fill:#840000; fill-opacity:0.0; 
stroke:#840000; stroke-width:100; stroke-opacity:1; 
stroke-linecap:round; stroke-linejoin:round;">
</g>
<g style="fill:#840000; fill-opacity:0.0; 
stroke:#840000; stroke-width:60; stroke-opacity:1; 
stroke-linecap:round; stroke-linejoin:round;">
<path d="M69690 71460
L112210 71460
" />
</g>
<g style="fill:#840000; fill-opacity:0.0; 
stroke:#840000; stroke-width:100; stroke-opacity:1; 
stroke-linecap:round; stroke-linejoin:round;">
</g>
<g style="fill:#840000; fill-opacity:0.0; 
stroke:#840000; stroke-width:60; stroke-opacity:1; 
stroke-linecap:round; stroke-linejoin:round;">
<path d="M70220 72280
L70300 72310
L70440 72310
L70500 72280
L70530 72260
L70550 72200
L70550 72140
L70530 72090
L70500 72060
L70440 72030
L70330 72000
L70270 71970
L70250 71950
L70220 71890
L70220 71830
L70250 71780
L70270 71750
L70330 71720
L70470 71720
L70550 71750
" />
<path d="M70810 72310
L70810 71720
" />
<path d="M71060 72310
L71060 72000
L71030 71950
L70980 71920
L70890 71920
L70840 71950
L70810 71970
" />
<path d="M71570 72280
L71510 72310
L71400 72310
L71340 72280
L71310 72230
L71310 72000
L71340 71950
L71400 71920
L71510 71920
L71570 71950
L71590 72000
L71590 72060
L71310 72120
" />
<path d="M72070 72280
L72020 72310
L71900 72310
L71850 72280
L71820 72230
L71820 72000
L71850 71950
L71900 71920
L72020 71920
L72070 71950
L72100 72000
L72100 72060
L71820 72120
" />
<path d="M72270 71920
L72490 71920
" />
<path d="M72350 71720
L72350 72230
L72380 72280
L72440 72310
L72490 72310
" />
<path d="M72690 72260
L72720 72280
L72690 72310
L72660 72280
L72690 72260
L72690 72310
" />
<path d="M72690 71950
L72720 71970
L72690 72000
L72660 71970
L72690 71950
L72690 72000
" />
<path d="M73840 71690
L73340 72450
" />
</g>
<g style="fill:#840000; fill-opacity:0.0; 
stroke:#840000; stroke-width:100; stroke-opacity:1; 
stroke-linecap:round; stroke-linejoin:round;">
</g>
<g style="fill:#840000; fill-opacity:0.0; 
stroke:#840000; stroke-width:120; stroke-opacity:1; 
stroke-linecap:round; stroke-linejoin:round;">
<path d="M70550 70740
L70550 71130
" />
<path d="M70410 70510
L70270 70940
L70630 70940
" />
<path d="M70830 70600
L70860 70570
L70910 70540
L71050 70540
L71110 70570
L71140 70600
L71160 70650
L71160 70710
L71140 70790
L70800 71130
L71160 71130
" />
<path d="M71530 70540
L71590 70540
L71640 70570
L71670 70600
L71700 70650
L71730 70770
L71730 70910
L71700 71020
L71670 71080
L71640 71100
L71590 71130
L71530 71130
L71470 71100
L71450 71080
L71420 71020
L71390 70910
L71390 70770
L71420 70650
L71450 70600
L71470 70570
L71530 70540
" />
<path d="M72430 70820
L72630 70820
" />
<path d="M72710 71130
L72430 71130
L72430 70540
L72710 70540
" />
<path d="M72960 71130
L72960 70540
L73300 71130
L73300 70540
" />
<path d="M73890 70570
L73830 70540
L73750 70540
L73660 70570
L73610 70630
L73580 70680
L73550 70790
L73550 70880
L73580 70990
L73610 71050
L73660 71100
L73750 71130
L73810 71130
L73890 71100
L73920 71080
L73920 70880
L73810 70880
" />
<path d="M74170 71130
L74170 70540
" />
<path d="M74170 70820
L74510 70820
" />
<path d="M74510 71130
L74510 70540
" />
<path d="M74790 71130
L74790 70540
" />
<path d="M75380 70570
L75320 70540
L75240 70540
L75150 70570
L75100 70630
L75070 70680
L75040 70790
L75040 70880
L75070 70990
L75100 71050
L75150 71100
L75240 71130
L75290 71130
L75380 71100
L75410 71080
L75410 70880
L75290 70880
" />
<path d="M75660 71130
L75660 70540
" />
<path d="M75660 70820
L76000 70820
" />
<path d="M76000 71130
L76000 70540
" />
<path d="M76280 71130
L76280 70540
L76610 71130
L76610 70540
" />
<path d="M76900 70820
L77090 70820
" />
<path d="M77180 71130
L76900 71130
L76900 70540
L77180 70540
" />
<path d="M77430 70820
L77630 70820
" />
<path d="M77710 71130
L77430 71130
L77430 70540
L77710 70540
" />
<path d="M78300 71130
L78100 70850
" />
<path d="M77960 71130
L77960 70540
L78190 70540
L78240 70570
L78270 70600
L78300 70650
L78300 70740
L78270 70790
L78240 70820
L78190 70850
L77960 70850
" />
<path d="M78550 71130
L78550 70540
" />
<path d="M78830 71130
L78830 70540
L79170 71130
L79170 70540
" />
<path d="M79760 70570
L79710 70540
L79620 70540
L79540 70570
L79480 70630
L79450 70680
L79420 70790
L79420 70880
L79450 70990
L79480 71050
L79540 71100
L79620 71130
L79680 71130
L79760 71100
L79790 71080
L79790 70880
L79680 70880
" />
</g>
<g style="fill:#840000; fill-opacity:0.0; 
stroke:#840000; stroke-width:100; stroke-opacity:1; 
stroke-linecap:round; stroke-linejoin:round;">
</g>
<g style="fill:#840000; fill-opacity:0.0; 
stroke:#840000; stroke-width:60; stroke-opacity:1; 
stroke-linecap:round; stroke-linejoin:round;">
<path d="M77560 75400
L77560 76580
" />
</g>
<g style="fill:#840000; fill-opacity:0.0; 
stroke:#840000; stroke-width:100; stroke-opacity:1; 
stroke-linecap:round; stroke-linejoin:round;">
</g>
<g style="fill:#840000; fill-opacity:0.0; 
stroke:#840000; stroke-width:60; stroke-opacity:1; 
stroke-linecap:round; stroke-linejoin:round;">
<path d="M102760 75400
L102760 77960
" />
</g>
<g style="fill:#840000; fill-opacity:0.0; 
stroke:#840000; stroke-width:0; stroke-opacity:1; 
stroke-linecap:round; stroke-linejoin:round;">
<g >
</g>
<g style="fill:#840000; fill-opacity:0.0; 
stroke:#840000; stroke-width:60; stroke-opacity:1; 
stroke-linecap:round; stroke-linejoin:round;">
<circle cx="54700" cy="41500" r="200" /> 
<circle cx="56300" cy="42500" r="200" /> 
<circle cx="56300" cy="40500" r="200" /> 
<path style="fill:#840000; fill-opacity:0.0; 
stroke:#840000; stroke-width:60; stroke-opacity:1; 
stroke-linecap:round; stroke-linejoin:round;fill:none"
d="M 54900,41400
56150,40600
Z" /> 
<path d="M56500 40500
L57500 40500
" />
<path d="M57090 40740
L57090 41070
" />
<path d="M56970 40550
L56850 40900
L57160 40900
" />
<path d="M54500 41500
L53500 41500
" />
<path d="M54110 41570
L53880 41570
L53850 41810
L53880 41790
L53920 41760
L54040 41760
L54090 41790
L54110 41810
L54140 41860
L54140 41980
L54110 42020
L54090 42050
L54040 42070
L53920 42070
L53880 42050
L53850 42020
" />
<path d="M56500 42500
L57500 42500
" />
<path d="M57090 42570
L57000 42570
L56950 42600
L56920 42620
L56880 42690
L56850 42790
L56850 42980
L56880 43020
L56900 43050
L56950 43070
L57040 43070
L57090 43050
L57110 43020
L57140 42980
L57140 42860
L57110 42810
L57090 42790
L57040 42760
L56950 42760
L56900 42790
L56880 42810
L56850 42860
" />
</g>
<g style="fill:#008484; fill-opacity:0.0; 
stroke:#008484; stroke-width:60; stroke-opacity:1; 
stroke-linecap:round; stroke-linejoin:round;">
<path d="M54580 38220
L54650 38240
L54770 38240
L54820 38220
L54840 38190
L54860 38150
L54860 38100
L54840 38050
L54820 38030
L54770 38000
L54670 37980
L54630 37960
L54600 37930
L54580 37880
L54580 37840
L54600 37790
L54630 37770
L54670 37740
L54790 37740
L54860 37770
" />
<path d="M55030 37740
L55150 38240
L55250 37880
L55340 38240
L55460 37740
" />
<path d="M55910 38240
L55630 38240
" />
<path d="M55770 38240
L55770 37740
L55720 37810
L55670 37860
L55630 37880
" />
<path d="M56290 37980
L56360 38000
L56390 38030
L56410 38070
L56410 38150
L56390 38190
L56360 38220
L56320 38240
L56130 38240
L56130 37740
L56290 37740
L56340 37770
L56360 37790
L56390 37840
L56390 37880
L56360 37930
L56340 37960
L56290 37980
L56130 37980
" />
<path d="M49900 39220
L49970 39240
L50090 39240
L50140 39220
L50160 39190
L50190 39150
L50190 39100
L50160 39050
L50140 39030
L50090 39000
L50000 38980
L49950 38960
L49920 38930
L49900 38880
L49900 38840
L49920 38790
L49950 38770
L50000 38740
L50110 38740
L50190 38770
" />
<path d="M50570 38980
L50400 38980
" />
<path d="M50400 39240
L50400 38740
L50640 38740
" />
<path d="M51090 39240
L50800 39240
" />
<path d="M50950 39240
L50950 38740
L50900 38810
L50850 38860
L50800 38880
" />
<path d="M51280 38790
L51300 38770
L51350 38740
L51470 38740
L51520 38770
L51540 38790
L51570 38840
L51570 38880
L51540 38960
L51260 39240
L51570 39240
" />
<path d="M51880 38740
L51920 38740
L51970 38770
L52000 38790
L52020 38840
L52040 38930
L52040 39050
L52020 39150
L52000 39190
L51970 39220
L51920 39240
L51880 39240
L51830 39220
L51800 39190
L51780 39150
L51760 39050
L51760 38930
L51780 38840
L51800 38790
L51830 38770
L51880 38740
" />
<path d="M52230 38790
L52260 38770
L52300 38740
L52420 38740
L52470 38770
L52500 38790
L52520 38840
L52520 38880
L52500 38960
L52210 39240
L52520 39240
" />
<path d="M52830 38740
L52880 38740
L52920 38770
L52950 38790
L52970 38840
L53000 38930
L53000 39050
L52970 39150
L52950 39190
L52920 39220
L52880 39240
L52830 39240
L52780 39220
L52760 39190
L52730 39150
L52710 39050
L52710 38930
L52730 38840
L52760 38790
L52780 38770
L52830 38740
" />
<path d="M53380 38980
L53210 38980
" />
<path d="M53210 39240
L53210 38740
L53450 38740
" />
<path d="M53640 39050
L54020 39050
" />
<path d="M54350 38740
L54400 38740
L54450 38770
L54470 38790
L54500 38840
L54520 38930
L54520 39050
L54500 39150
L54470 39190
L54450 39220
L54400 39240
L54350 39240
L54300 39220
L54280 39190
L54260 39150
L54230 39050
L54230 38930
L54260 38840
L54280 38790
L54300 38770
L54350 38740
" />
<path d="M54710 38790
L54730 38770
L54780 38740
L54900 38740
L54950 38770
L54970 38790
L55000 38840
L55000 38880
L54970 38960
L54690 39240
L55000 39240
" />
<path d="M55300 38740
L55350 38740
L55400 38770
L55420 38790
L55450 38840
L55470 38930
L55470 39050
L55450 39150
L55420 39190
L55400 39220
L55350 39240
L55300 39240
L55260 39220
L55230 39190
L55210 39150
L55190 39050
L55190 38930
L55210 38840
L55230 38790
L55260 38770
L55300 38740
" />
<path d="M55660 38790
L55690 38770
L55730 38740
L55850 38740
L55900 38770
L55920 38790
L55950 38840
L55950 38880
L55920 38960
L55640 39240
L55950 39240
" />
<path d="M56160 39050
L56540 39050
" />
<path d="M56760 38790
L56780 38770
L56830 38740
L56950 38740
L57000 38770
L57020 38790
L57040 38840
L57040 38880
L57020 38960
L56730 39240
L57040 39240
" />
<path d="M57350 38740
L57400 38740
L57450 38770
L57470 38790
L57500 38840
L57520 38930
L57520 39050
L57500 39150
L57470 39190
L57450 39220
L57400 39240
L57350 39240
L57300 39220
L57280 39190
L57260 39150
L57230 39050
L57230 38930
L57260 38840
L57280 38790
L57300 38770
L57350 38740
" />
<path d="M58020 39240
L57850 39000
" />
<path d="M57730 39240
L57730 38740
L57920 38740
L57970 38770
L58000 38790
L58020 38840
L58020 38910
L58000 38960
L57970 38980
L57920 39000
L57730 39000
" />
<path d="M58230 39050
L58610 39050
" />
<path d="M59090 39240
L58850 39240
L58850 38740
" />
<path d="M59260 39050
L59640 39050
" />
<path d="M59970 38740
L60020 38740
L60070 38770
L60090 38790
L60110 38840
L60140 38930
L60140 39050
L60110 39150
L60090 39190
L60070 39220
L60020 39240
L59970 39240
L59920 39220
L59900 39190
L59880 39150
L59850 39050
L59850 38930
L59880 38840
L59900 38790
L59920 38770
L59970 38740
" />
<path d="M60610 39240
L60330 39240
" />
<path d="M60470 39240
L60470 38740
L60420 38810
L60380 38860
L60330 38880
" />
<path d="M61090 39240
L60800 39240
" />
<path d="M60950 39240
L60950 38740
L60900 38810
L60850 38860
L60800 38880
" />
</g>
</g>
<g style="fill:#008484; fill-opacity:0.0; 
stroke:#008484; stroke-width:0; stroke-opacity:1; 
stroke-linecap:round; stroke-linejoin:round;">
<g >
</g>
<g style="fill:#840000; fill-opacity:0.0; 
stroke:#840000; stroke-width:0; stroke-opacity:1; 
stroke-linecap:round; stroke-linejoin:round;">
</g>
<g style="fill:#FFFFC2; fill-opacity:0.0; 
stroke:#FFFFC2; stroke-width:0; stroke-opacity:1; 
stroke-linecap:round; stroke-linejoin:round;">
</g>
<g style="fill:#FFFFC2; fill-opacity:0.6; 
stroke:#FFFFC2; stroke-width:0; stroke-opacity:1; 
stroke-linecap:round; stroke-linejoin:round;">
<circle cx="82500" cy="43000" r="500" /> 
</g>
<g style="fill:#840000; fill-opacity:0.6; 
stroke:#840000; stroke-width:0; stroke-opacity:1; 
stroke-linecap:round; stroke-linejoin:round;">
</g>
<g style="fill:#840000; fill-opacity:0.0; 
stroke:#840000; stroke-width:60; stroke-opacity:1; 
stroke-linecap:round; stroke-linejoin:round;">
<circle cx="82500" cy="43000" r="500" /> 
</g>
<g style="fill:#008484; fill-opacity:0.0; 
stroke:#008484; stroke-width:60; stroke-opacity:1; 
stroke-linecap:round; stroke-linejoin:round;">
<path d="M83420 42780
L83420 42280
" />
<path d="M83420 42520
L83710 42520
" />
<path d="M83710 42780
L83710 42280
" />
<path d="M84160 42280
L84070 42280
L84020 42310
L84000 42330
L83950 42400
L83920 42500
L83920 42690
L83950 42730
L83970 42760
L84020 42780
L84110 42780
L84160 42760
L84190 42730
L84210 42690
L84210 42570
L84190 42520
L84160 42500
L84110 42470
L84020 42470
L83970 42500
L83950 42520
L83920 42570
" />
<path d="M83420 43690
L83420 43190
L83710 43690
L83710 43190
" />
<path d="M83940 43690
L83940 43190
L84130 43190
L84180 43220
L84210 43240
L84230 43290
L84230 43360
L84210 43410
L84180 43430
L84130 43450
L83940 43450
" />
<path d="M84370 43190
L84660 43190
" />
<path d="M84520 43690
L84520 43190
" />
<path d="M84820 43690
L84820 43190
" />
<path d="M84820 43430
L85110 43430
" />
<path d="M85110 43690
L85110 43190
" />
</g>
</g>
<g style="fill:#008484; fill-opacity:0.0; 
stroke:#008484; stroke-width:0; stroke-opacity:1; 
stroke-linecap:round; stroke-linejoin:round;">
<g >
</g>
<g style="fill:#840000; fill-opacity:0.0; 
stroke:#840000; stroke-width:0; stroke-opacity:1; 
stroke-linecap:round; stroke-linejoin:round;">
</g>
<g style="fill:#FFFFC2; fill-opacity:0.0; 
stroke:#FFFFC2; stroke-width:0; stroke-opacity:1; 
stroke-linecap:round; stroke-linejoin:round;">
</g>
<g style="fill:#FFFFC2; fill-opacity:0.6; 
stroke:#FFFFC2; stroke-width:0; stroke-opacity:1; 
stroke-linecap:round; stroke-linejoin:round;">
<circle cx="82500" cy="40500" r="500" /> 
</g>
<g style="fill:#840000; fill-opacity:0.6; 
stroke:#840000; stroke-width:0; stroke-opacity:1; 
stroke-linecap:round; stroke-linejoin:round;">
</g>
<g style="fill:#840000; fill-opacity:0.0; 
stroke:#840000; stroke-width:60; stroke-opacity:1; 
stroke-linecap:round; stroke-linejoin:round;">
<circle cx="82500" cy="40500" r="500" /> 
</g>
<g style="fill:#008484; fill-opacity:0.0; 
stroke:#008484; stroke-width:60; stroke-opacity:1; 
stroke-linecap:round; stroke-linejoin:round;">
<path d="M83420 40280
L83420 39780
" />
<path d="M83420 40020
L83710 40020
" />
<path d="M83710 40280
L83710 39780
" />
<path d="M84190 39780
L83950 39780
L83920 40020
L83950 40000
L84000 39970
L84110 39970
L84160 40000
L84190 40020
L84210 40070
L84210 40190
L84190 40230
L84160 40260
L84110 40280
L84000 40280
L83950 40260
L83920 40230
" />
<path d="M83420 41190
L83420 40690
L83710 41190
L83710 40690
" />
<path d="M83940 41190
L83940 40690
L84130 40690
L84180 40720
L84210 40740
L84230 40790
L84230 40860
L84210 40910
L84180 40930
L84130 40950
L83940 40950
" />
<path d="M84370 40690
L84660 40690
" />
<path d="M84520 41190
L84520 40690
" />
<path d="M84820 41190
L84820 40690
" />
<path d="M84820 40930
L85110 40930
" />
<path d="M85110 41190
L85110 40690
" />
</g>
</g>
<g style="fill:#008484; fill-opacity:0.0; 
stroke:#008484; stroke-width:0; stroke-opacity:1; 
stroke-linecap:round; stroke-linejoin:round;">
<g >
</g>
<g style="fill:#840000; fill-opacity:0.0; 
stroke:#840000; stroke-width:0; stroke-opacity:1; 
stroke-linecap:round; stroke-linejoin:round;">
</g>
<g style="fill:#FFFFC2; fill-opacity:0.0; 
stroke:#FFFFC2; stroke-width:0; stroke-opacity:1; 
stroke-linecap:round; stroke-linejoin:round;">
</g>
<g style="fill:#FFFFC2; fill-opacity:0.6; 
stroke:#FFFFC2; stroke-width:0; stroke-opacity:1; 
stroke-linecap:round; stroke-linejoin:round;">
<circle cx="82500" cy="38000" r="500" /> 
</g>
<g style="fill:#840000; fill-opacity:0.6; 
stroke:#840000; stroke-width:0; stroke-opacity:1; 
stroke-linecap:round; stroke-linejoin:round;">
</g>
<g style="fill:#840000; fill-opacity:0.0; 
stroke:#840000; stroke-width:60; stroke-opacity:1; 
stroke-linecap:round; stroke-linejoin:round;">
<circle cx="82500" cy="38000" r="500" /> 
</g>
<g style="fill:#008484; fill-opacity:0.0; 
stroke:#008484; stroke-width:60; stroke-opacity:1; 
stroke-linecap:round; stroke-linejoin:round;">
<path d="M83420 37780
L83420 37280
" />
<path d="M83420 37520
L83710 37520
" />
<path d="M83710 37780
L83710 37280
" />
<path d="M84160 37450
L84160 37780
" />
<path d="M84040 37260
L83920 37610
L84230 37610
" />
<path d="M83420 38690
L83420 38190
L83710 38690
L83710 38190
" />
<path d="M83940 38690
L83940 38190
L84130 38190
L84180 38220
L84210 38240
L84230 38290
L84230 38360
L84210 38410
L84180 38430
L84130 38450
L83940 38450
" />
<path d="M84370 38190
L84660 38190
" />
<path d="M84520 38690
L84520 38190
" />
<path d="M84820 38690
L84820 38190
" />
<path d="M84820 38430
L85110 38430
" />
<path d="M85110 38690
L85110 38190
" />
</g>
</g>
<g style="fill:#008484; fill-opacity:0.0; 
stroke:#008484; stroke-width:0; stroke-opacity:1; 
stroke-linecap:round; stroke-linejoin:round;">
<g >
</g>
<g style="fill:#840000; fill-opacity:0.0; 
stroke:#840000; stroke-width:0; stroke-opacity:1; 
stroke-linecap:round; stroke-linejoin:round;">
</g>
<g style="fill:#FFFFC2; fill-opacity:0.0; 
stroke:#FFFFC2; stroke-width:0; stroke-opacity:1; 
stroke-linecap:round; stroke-linejoin:round;">
</g>
<g style="fill:#FFFFC2; fill-opacity:0.6; 
stroke:#FFFFC2; stroke-width:0; stroke-opacity:1; 
stroke-linecap:round; stroke-linejoin:round;">
<circle cx="82500" cy="35500" r="500" /> 
</g>
<g style="fill:#840000; fill-opacity:0.6; 
stroke:#840000; stroke-width:0; stroke-opacity:1; 
stroke-linecap:round; stroke-linejoin:round;">
</g>
<g style="fill:#840000; fill-opacity:0.0; 
stroke:#840000; stroke-width:60; stroke-opacity:1; 
stroke-linecap:round; stroke-linejoin:round;">
<circle cx="82500" cy="35500" r="500" /> 
</g>
<g style="fill:#008484; fill-opacity:0.0; 
stroke:#008484; stroke-width:60; stroke-opacity:1; 
stroke-linecap:round; stroke-linejoin:round;">
<path d="M83420 35280
L83420 34780
" />
<path d="M83420 35020
L83710 35020
" />
<path d="M83710 35280
L83710 34780
" />
<path d="M83900 34780
L84210 34780
L84040 34970
L84110 34970
L84160 35000
L84190 35020
L84210 35070
L84210 35190
L84190 35230
L84160 35260
L84110 35280
L83970 35280
L83920 35260
L83900 35230
" />
<path d="M83420 36190
L83420 35690
L83710 36190
L83710 35690
" />
<path d="M83940 36190
L83940 35690
L84130 35690
L84180 35720
L84210 35740
L84230 35790
L84230 35860
L84210 35910
L84180 35930
L84130 35950
L83940 35950
" />
<path d="M84370 35690
L84660 35690
" />
<path d="M84520 36190
L84520 35690
" />
<path d="M84820 36190
L84820 35690
" />
<path d="M84820 35930
L85110 35930
" />
<path d="M85110 36190
L85110 35690
" />
</g>
</g>
<g style="fill:#008484; fill-opacity:0.0; 
stroke:#008484; stroke-width:0; stroke-opacity:1; 
stroke-linecap:round; stroke-linejoin:round;">
<g >
</g>
<g style="fill:#840000; fill-opacity:0.0; 
stroke:#840000; stroke-width:0; stroke-opacity:1; 
stroke-linecap:round; stroke-linejoin:round;">
</g>
<g style="fill:#FFFFC2; fill-opacity:0.0; 
stroke:#FFFFC2; stroke-width:0; stroke-opacity:1; 
stroke-linecap:round; stroke-linejoin:round;">
</g>
<g style="fill:#FFFFC2; fill-opacity:0.6; 
stroke:#FFFFC2; stroke-width:0; stroke-opacity:1; 
stroke-linecap:round; stroke-linejoin:round;">
<circle cx="82500" cy="33000" r="500" /> 
</g>
<g style="fill:#840000; fill-opacity:0.6; 
stroke:#840000; stroke-width:0; stroke-opacity:1; 
stroke-linecap:round; stroke-linejoin:round;">
</g>
<g style="fill:#840000; fill-opacity:0.0; 
stroke:#840000; stroke-width:60; stroke-opacity:1; 
stroke-linecap:round; stroke-linejoin:round;">
<circle cx="82500" cy="33000" r="500" /> 
</g>
<g style="fill:#008484; fill-opacity:0.0; 
stroke:#008484; stroke-width:60; stroke-opacity:1; 
stroke-linecap:round; stroke-linejoin:round;">
<path d="M83420 32780
L83420 32280
" />
<path d="M83420 32520
L83710 32520
" />
<path d="M83710 32780
L83710 32280
" />
<path d="M83920 32330
L83950 32310
L84000 32280
L84110 32280
L84160 32310
L84190 32330
L84210 32380
L84210 32420
L84190 32500
L83900 32780
L84210 32780
" />
<path d="M83420 33690
L83420 33190
L83710 33690
L83710 33190
" />
<path d="M83940 33690
L83940 33190
L84130 33190
L84180 33220
L84210 33240
L84230 33290
L84230 33360
L84210 33410
L84180 33430
L84130 33450
L83940 33450
" />
<path d="M84370 33190
L84660 33190
" />
<path d="M84520 33690
L84520 33190
" />
<path d="M84820 33690
L84820 33190
" />
<path d="M84820 33430
L85110 33430
" />
<path d="M85110 33690
L85110 33190
" />
</g>
</g>
<g style="fill:#008484; fill-opacity:0.0; 
stroke:#008484; stroke-width:0; stroke-opacity:1; 
stroke-linecap:round; stroke-linejoin:round;">
<g >
</g>
<g style="fill:#840000; fill-opacity:0.0; 
stroke:#840000; stroke-width:0; stroke-opacity:1; 
stroke-linecap:round; stroke-linejoin:round;">
</g>
<g style="fill:#FFFFC2; fill-opacity:0.0; 
stroke:#FFFFC2; stroke-width:0; stroke-opacity:1; 
stroke-linecap:round; stroke-linejoin:round;">
</g>
<g style="fill:#FFFFC2; fill-opacity:0.6; 
stroke:#FFFFC2; stroke-width:0; stroke-opacity:1; 
stroke-linecap:round; stroke-linejoin:round;">
<circle cx="82500" cy="30500" r="500" /> 
</g>
<g style="fill:#840000; fill-opacity:0.6; 
stroke:#840000; stroke-width:0; stroke-opacity:1; 
stroke-linecap:round; stroke-linejoin:round;">
</g>
<g style="fill:#840000; fill-opacity:0.0; 
stroke:#840000; stroke-width:60; stroke-opacity:1; 
stroke-linecap:round; stroke-linejoin:round;">
<circle cx="82500" cy="30500" r="500" /> 
</g>
<g style="fill:#008484; fill-opacity:0.0; 
stroke:#008484; stroke-width:60; stroke-opacity:1; 
stroke-linecap:round; stroke-linejoin:round;">
<path d="M83420 30280
L83420 29780
" />
<path d="M83420 30020
L83710 30020
" />
<path d="M83710 30280
L83710 29780
" />
<path d="M84210 30280
L83920 30280
" />
<path d="M84070 30280
L84070 29780
L84020 29850
L83970 29900
L83920 29920
" />
<path d="M83420 31190
L83420 30690
L83710 31190
L83710 30690
" />
<path d="M83940 31190
L83940 30690
L84130 30690
L84180 30720
L84210 30740
L84230 30790
L84230 30860
L84210 30910
L84180 30930
L84130 30950
L83940 30950
" />
<path d="M84370 30690
L84660 30690
" />
<path d="M84520 31190
L84520 30690
" />
<path d="M84820 31190
L84820 30690
" />
<path d="M84820 30930
L85110 30930
" />
<path d="M85110 31190
L85110 30690
" />
</g>
</g>
<g style="fill:#008484; fill-opacity:0.0; 
stroke:#008484; stroke-width:0; stroke-opacity:1; 
stroke-linecap:round; stroke-linejoin:round;">
<g >
</g>
<g style="fill:#840000; fill-opacity:0.0; 
stroke:#840000; stroke-width:0; stroke-opacity:1; 
stroke-linecap:round; stroke-linejoin:round;">
</g>
<g style="fill:#FFFFC2; fill-opacity:0.0; 
stroke:#FFFFC2; stroke-width:0; stroke-opacity:1; 
stroke-linecap:round; stroke-linejoin:round;">
</g>
<g style="fill:#FFFFC2; fill-opacity:0.6; 
stroke:#FFFFC2; stroke-width:0; stroke-opacity:1; 
stroke-linecap:round; stroke-linejoin:round;">
<rect x="42500" y="31000" width="1000" height="1000" rx="0" />
</g>
<g style="fill:#840000; fill-opacity:0.6; 
stroke:#840000; stroke-width:0; stroke-opacity:1; 
stroke-linecap:round; stroke-linejoin:round;">
</g>
<g style="fill:#840000; fill-opacity:0.0; 
stroke:#840000; stroke-width:100; stroke-opacity:1; 
stroke-linecap:round; stroke-linejoin:round;">
<rect x="42500" y="31000" width="1000" height="1000" rx="0" />
</g>
<g style="fill:#840000; fill-opacity:0.0; 
stroke:#840000; stroke-width:60; stroke-opacity:1; 
stroke-linecap:round; stroke-linejoin:round;">
<rect x="43000" y="31450" width="500" height="100" rx="0" />
<path d="M43500 31500
L45000 31500
" />
<path d="M44390 31370
L44100 31370
" />
<path d="M44250 31370
L44250 30870
L44200 30940
L44150 30990
L44100 31010
" />
</g>
<g style="fill:#008484; fill-opacity:0.0; 
stroke:#008484; stroke-width:60; stroke-opacity:1; 
stroke-linecap:round; stroke-linejoin:round;">
<path d="M42640 32930
L42810 32930
" />
<path d="M42880 33190
L42640 33190
L42640 32690
L42880 32690
" />
<path d="M43070 32740
L43090 32720
L43140 32690
L43260 32690
L43310 32720
L43330 32740
L43350 32790
L43350 32830
L43330 32910
L43040 33190
L43350 33190
" />
<path d="M39890 33690
L40010 34190
L40100 33830
L40200 34190
L40320 33690
" />
<path d="M40510 34190
L40510 33690
" />
<path d="M41030 34190
L40860 33950
" />
<path d="M40740 34190
L40740 33690
L40940 33690
L40980 33720
L41010 33740
L41030 33790
L41030 33860
L41010 33910
L40980 33930
L40940 33950
L40740 33950
" />
<path d="M41250 33930
L41410 33930
" />
<path d="M41480 34190
L41250 34190
L41250 33690
L41480 33690
" />
<path d="M41580 34240
L41960 34240
" />
<path d="M42080 34190
L42080 33690
L42270 33690
L42320 33720
L42340 33740
L42360 33790
L42360 33860
L42340 33910
L42320 33930
L42270 33950
L42080 33950
" />
<path d="M42550 34050
L42790 34050
" />
<path d="M42510 34190
L42670 33690
L42840 34190
" />
<path d="M43010 34190
L43010 33690
L43130 33690
L43200 33720
L43250 33760
L43270 33810
L43290 33910
L43290 33980
L43270 34070
L43250 34120
L43200 34170
L43130 34190
L43010 34190
" />
<path d="M43390 34240
L43770 34240
" />
<path d="M44170 34140
L44150 34170
L44080 34190
L44030 34190
L43960 34170
L43910 34120
L43890 34070
L43860 33980
L43860 33910
L43890 33810
L43910 33760
L43960 33720
L44030 33690
L44080 33690
L44150 33720
L44170 33740
" />
<path d="M44480 33690
L44580 33690
L44630 33720
L44670 33760
L44700 33860
L44700 34020
L44670 34120
L44630 34170
L44580 34190
L44480 34190
L44440 34170
L44390 34120
L44360 34020
L44360 33860
L44390 33760
L44440 33720
L44480 33690
" />
<path d="M44910 34190
L44910 33690
L45080 34050
L45250 33690
L45250 34190
" />
<path d="M45360 34240
L45750 34240
" />
<path d="M45840 34050
L46080 34050
" />
<path d="M45790 34190
L45960 33690
L46130 34190
" />
</g>
</g>
<g style="fill:#008484; fill-opacity:0.0; 
stroke:#008484; stroke-width:0; stroke-opacity:1; 
stroke-linecap:round; stroke-linejoin:round;">
<g >
</g>
<g style="fill:#840000; fill-opacity:0.0; 
stroke:#840000; stroke-width:0; stroke-opacity:1; 
stroke-linecap:round; stroke-linejoin:round;">
</g>
<g style="fill:#FFFFC2; fill-opacity:0.0; 
stroke:#FFFFC2; stroke-width:0; stroke-opacity:1; 
stroke-linecap:round; stroke-linejoin:round;">
</g>
<g style="fill:#FFFFC2; fill-opacity:0.6; 
stroke:#FFFFC2; stroke-width:0; stroke-opacity:1; 
stroke-linecap:round; stroke-linejoin:round;">
<rect x="42500" y="41000" width="1000" height="1000" rx="0" />
</g>
<g style="fill:#840000; fill-opacity:0.6; 
stroke:#840000; stroke-width:0; stroke-opacity:1; 
stroke-linecap:round; stroke-linejoin:round;">
</g>
<g style="fill:#840000; fill-opacity:0.0; 
stroke:#840000; stroke-width:100; stroke-opacity:1; 
stroke-linecap:round; stroke-linejoin:round;">
<rect x="42500" y="41000" width="1000" height="1000" rx="0" />
</g>
<g style="fill:#840000; fill-opacity:0.0; 
stroke:#840000; stroke-width:60; stroke-opacity:1; 
stroke-linecap:round; stroke-linejoin:round;">
<rect x="43000" y="41450" width="500" height="100" rx="0" />
<path d="M43500 41500
L45000 41500
" />
<path d="M44390 41370
L44100 41370
" />
<path d="M44250 41370
L44250 40870
L44200 40940
L44150 40990
L44100 41010
" />
</g>
<g style="fill:#008484; fill-opacity:0.0; 
stroke:#008484; stroke-width:60; stroke-opacity:1; 
stroke-linecap:round; stroke-linejoin:round;">
<path d="M42640 42930
L42810 42930
" />
<path d="M42880 43190
L42640 43190
L42640 42690
L42880 42690
" />
<path d="M43330 42690
L43090 42690
L43070 42930
L43090 42910
L43140 42880
L43260 42880
L43310 42910
L43330 42930
L43350 42980
L43350 43100
L43330 43140
L43310 43170
L43260 43190
L43140 43190
L43090 43170
L43070 43140
" />
<path d="M39840 43690
L39960 44190
L40060 43830
L40150 44190
L40270 43690
" />
<path d="M40460 44190
L40460 43690
" />
<path d="M40990 44190
L40820 43950
" />
<path d="M40700 44190
L40700 43690
L40890 43690
L40940 43720
L40960 43740
L40990 43790
L40990 43860
L40960 43910
L40940 43930
L40890 43950
L40700 43950
" />
<path d="M41200 43930
L41370 43930
" />
<path d="M41440 44190
L41200 44190
L41200 43690
L41440 43690
" />
<path d="M41530 44240
L41910 44240
" />
<path d="M42030 44190
L42030 43690
L42220 43690
L42270 43720
L42290 43740
L42320 43790
L42320 43860
L42290 43910
L42270 43930
L42220 43950
L42030 43950
" />
<path d="M42510 44050
L42750 44050
" />
<path d="M42460 44190
L42630 43690
L42790 44190
" />
<path d="M42960 44190
L42960 43690
L43080 43690
L43150 43720
L43200 43760
L43220 43810
L43250 43910
L43250 43980
L43220 44070
L43200 44120
L43150 44170
L43080 44190
L42960 44190
" />
<path d="M43340 44240
L43720 44240
" />
<path d="M44130 44140
L44100 44170
L44030 44190
L43990 44190
L43910 44170
L43870 44120
L43840 44070
L43820 43980
L43820 43910
L43840 43810
L43870 43760
L43910 43720
L43990 43690
L44030 43690
L44100 43720
L44130 43740
" />
<path d="M44440 43690
L44530 43690
L44580 43720
L44630 43760
L44650 43860
L44650 44020
L44630 44120
L44580 44170
L44530 44190
L44440 44190
L44390 44170
L44340 44120
L44320 44020
L44320 43860
L44340 43760
L44390 43720
L44440 43690
" />
<path d="M44870 44190
L44870 43690
L45030 44050
L45200 43690
L45200 44190
" />
<path d="M45320 44240
L45700 44240
" />
<path d="M45990 43930
L46060 43950
L46080 43980
L46100 44020
L46100 44100
L46080 44140
L46060 44170
L46010 44190
L45820 44190
L45820 43690
L45990 43690
L46030 43720
L46060 43740
L46080 43790
L46080 43830
L46060 43880
L46030 43910
L45990 43930
L45820 43930
" />
</g>
</g>
<g style="fill:#008484; fill-opacity:0.0; 
stroke:#008484; stroke-width:0; stroke-opacity:1; 
stroke-linecap:round; stroke-linejoin:round;">
<g >
</g>
<g style="fill:#840000; fill-opacity:0.0; 
stroke:#840000; stroke-width:0; stroke-opacity:1; 
stroke-linecap:round; stroke-linejoin:round;">
</g>
<g style="fill:#FFFFC2; fill-opacity:0.0; 
stroke:#FFFFC2; stroke-width:0; stroke-opacity:1; 
stroke-linecap:round; stroke-linejoin:round;">
</g>
<g style="fill:#FFFFC2; fill-opacity:0.6; 
stroke:#FFFFC2; stroke-width:0; stroke-opacity:1; 
stroke-linecap:round; stroke-linejoin:round;">
<rect x="66500" y="42000" width="1000" height="1000" rx="0" />
</g>
<g style="fill:#840000; fill-opacity:0.6; 
stroke:#840000; stroke-width:0; stroke-opacity:1; 
stroke-linecap:round; stroke-linejoin:round;">
</g>
<g style="fill:#840000; fill-opacity:0.0; 
stroke:#840000; stroke-width:100; stroke-opacity:1; 
stroke-linecap:round; stroke-linejoin:round;">
<rect x="66500" y="42000" width="1000" height="1000" rx="0" />
</g>
<g style="fill:#840000; fill-opacity:0.0; 
stroke:#840000; stroke-width:60; stroke-opacity:1; 
stroke-linecap:round; stroke-linejoin:round;">
<rect x="66500" y="42450" width="500" height="100" rx="0" />
<path d="M66500 42500
L65000 42500
" />
<path d="M65890 42370
L65600 42370
" />
<path d="M65750 42370
L65750 41870
L65700 41940
L65650 41990
L65600 42010
" />
</g>
<g style="fill:#008484; fill-opacity:0.0; 
stroke:#008484; stroke-width:60; stroke-opacity:1; 
stroke-linecap:round; stroke-linejoin:round;">
<path d="M67940 42060
L68110 42060
" />
<path d="M68180 42320
L67940 42320
L67940 41820
L68180 41820
" />
<path d="M68610 41820
L68510 41820
L68460 41850
L68440 41870
L68390 41940
L68370 42040
L68370 42230
L68390 42270
L68420 42300
L68460 42320
L68560 42320
L68610 42300
L68630 42270
L68650 42230
L68650 42110
L68630 42060
L68610 42040
L68560 42010
L68460 42010
L68420 42040
L68390 42060
L68370 42110
" />
<path d="M67900 42730
L68020 43230
L68110 42870
L68210 43230
L68320 42730
" />
<path d="M68520 43230
L68520 42730
" />
<path d="M69040 43230
L68870 42990
" />
<path d="M68750 43230
L68750 42730
L68940 42730
L68990 42760
L69020 42780
L69040 42830
L69040 42900
L69020 42950
L68990 42970
L68940 42990
L68750 42990
" />
<path d="M69250 42970
L69420 42970
" />
<path d="M69490 43230
L69250 43230
L69250 42730
L69490 42730
" />
<path d="M69590 43280
L69970 43280
" />
<path d="M70090 43230
L70090 42730
L70280 42730
L70320 42760
L70350 42780
L70370 42830
L70370 42900
L70350 42950
L70320 42970
L70280 42990
L70090 42990
" />
<path d="M70560 43090
L70800 43090
" />
<path d="M70520 43230
L70680 42730
L70850 43230
" />
<path d="M71020 43230
L71020 42730
L71130 42730
L71210 42760
L71250 42800
L71280 42850
L71300 42950
L71300 43020
L71280 43110
L71250 43160
L71210 43210
L71130 43230
L71020 43230
" />
<path d="M71400 43280
L71780 43280
" />
<path d="M71900 43230
L71900 42730
L72180 43230
L72180 42730
" />
<path d="M72520 42730
L72610 42730
L72660 42760
L72710 42800
L72730 42900
L72730 43060
L72710 43160
L72660 43210
L72610 43230
L72520 43230
L72470 43210
L72420 43160
L72400 43060
L72400 42900
L72420 42800
L72470 42760
L72520 42730
" />
<path d="M72820 43280
L73210 43280
" />
<path d="M73490 42970
L73560 42990
L73590 43020
L73610 43060
L73610 43140
L73590 43180
L73560 43210
L73520 43230
L73320 43230
L73320 42730
L73490 42730
L73540 42760
L73560 42780
L73590 42830
L73590 42870
L73560 42920
L73540 42950
L73490 42970
L73320 42970
" />
</g>
</g>
<g style="fill:#008484; fill-opacity:0.0; 
stroke:#008484; stroke-width:0; stroke-opacity:1; 
stroke-linecap:round; stroke-linejoin:round;">
<g >
</g>
<g style="fill:#840000; fill-opacity:0.0; 
stroke:#840000; stroke-width:0; stroke-opacity:1; 
stroke-linecap:round; stroke-linejoin:round;">
</g>
<g style="fill:#FFFFC2; fill-opacity:0.0; 
stroke:#FFFFC2; stroke-width:0; stroke-opacity:1; 
stroke-linecap:round; stroke-linejoin:round;">
</g>
<g style="fill:#FFFFC2; fill-opacity:0.6; 
stroke:#FFFFC2; stroke-width:0; stroke-opacity:1; 
stroke-linecap:round; stroke-linejoin:round;">
<rect x="66500" y="40000" width="1000" height="1000" rx="0" />
</g>
<g style="fill:#840000; fill-opacity:0.6; 
stroke:#840000; stroke-width:0; stroke-opacity:1; 
stroke-linecap:round; stroke-linejoin:round;">
</g>
<g style="fill:#840000; fill-opacity:0.0; 
stroke:#840000; stroke-width:100; stroke-opacity:1; 
stroke-linecap:round; stroke-linejoin:round;">
<rect x="66500" y="40000" width="1000" height="1000" rx="0" />
</g>
<g style="fill:#840000; fill-opacity:0.0; 
stroke:#840000; stroke-width:60; stroke-opacity:1; 
stroke-linecap:round; stroke-linejoin:round;">
<rect x="66500" y="40450" width="500" height="100" rx="0" />
<path d="M66500 40500
L65000 40500
" />
<path d="M65890 40370
L65600 40370
" />
<path d="M65750 40370
L65750 39870
L65700 39940
L65650 39990
L65600 40010
" />
</g>
<g style="fill:#008484; fill-opacity:0.0; 
stroke:#008484; stroke-width:60; stroke-opacity:1; 
stroke-linecap:round; stroke-linejoin:round;">
<path d="M67940 40060
L68110 40060
" />
<path d="M68180 40320
L67940 40320
L67940 39820
L68180 39820
" />
<path d="M68610 39990
L68610 40320
" />
<path d="M68490 39800
L68370 40150
L68680 40150
" />
<path d="M67900 40730
L68020 41230
L68110 40870
L68210 41230
L68330 40730
" />
<path d="M68520 41230
L68520 40730
" />
<path d="M69040 41230
L68870 40990
" />
<path d="M68760 41230
L68760 40730
L68950 40730
L68990 40760
L69020 40780
L69040 40830
L69040 40900
L69020 40950
L68990 40970
L68950 40990
L68760 40990
" />
<path d="M69260 40970
L69420 40970
" />
<path d="M69490 41230
L69260 41230
L69260 40730
L69490 40730
" />
<path d="M69590 41280
L69970 41280
" />
<path d="M70090 41230
L70090 40730
L70280 40730
L70330 40760
L70350 40780
L70370 40830
L70370 40900
L70350 40950
L70330 40970
L70280 40990
L70090 40990
" />
<path d="M70560 41090
L70800 41090
" />
<path d="M70520 41230
L70680 40730
L70850 41230
" />
<path d="M71020 41230
L71020 40730
L71140 40730
L71210 40760
L71260 40800
L71280 40850
L71300 40950
L71300 41020
L71280 41110
L71260 41160
L71210 41210
L71140 41230
L71020 41230
" />
<path d="M71400 41280
L71780 41280
" />
<path d="M71900 41230
L71900 40730
L72180 41230
L72180 40730
" />
<path d="M72710 41180
L72680 41210
L72610 41230
L72560 41230
L72490 41210
L72450 41160
L72420 41110
L72400 41020
L72400 40950
L72420 40850
L72450 40800
L72490 40760
L72560 40730
L72610 40730
L72680 40760
L72710 40780
" />
<path d="M72800 41280
L73180 41280
" />
<path d="M73470 40970
L73540 40990
L73560 41020
L73590 41060
L73590 41140
L73560 41180
L73540 41210
L73490 41230
L73300 41230
L73300 40730
L73470 40730
L73520 40760
L73540 40780
L73560 40830
L73560 40870
L73540 40920
L73520 40950
L73470 40970
L73300 40970
" />
</g>
</g>
<g style="fill:#008484; fill-opacity:0.0; 
stroke:#008484; stroke-width:0; stroke-opacity:1; 
stroke-linecap:round; stroke-linejoin:round;">
<g >
</g>
<g style="fill:#840000; fill-opacity:0.0; 
stroke:#840000; stroke-width:0; stroke-opacity:1; 
stroke-linecap:round; stroke-linejoin:round;">
</g>
<g style="fill:#FFFFC2; fill-opacity:0.0; 
stroke:#FFFFC2; stroke-width:0; stroke-opacity:1; 
stroke-linecap:round; stroke-linejoin:round;">
</g>
<g style="fill:#FFFFC2; fill-opacity:0.6; 
stroke:#FFFFC2; stroke-width:0; stroke-opacity:1; 
stroke-linecap:round; stroke-linejoin:round;">
<rect x="66500" y="32000" width="1000" height="1000" rx="0" />
</g>
<g style="fill:#840000; fill-opacity:0.6; 
stroke:#840000; stroke-width:0; stroke-opacity:1; 
stroke-linecap:round; stroke-linejoin:round;">
</g>
<g style="fill:#840000; fill-opacity:0.0; 
stroke:#840000; stroke-width:100; stroke-opacity:1; 
stroke-linecap:round; stroke-linejoin:round;">
<rect x="66500" y="32000" width="1000" height="1000" rx="0" />
</g>
<g style="fill:#840000; fill-opacity:0.0; 
stroke:#840000; stroke-width:60; stroke-opacity:1; 
stroke-linecap:round; stroke-linejoin:round;">
<rect x="66500" y="32450" width="500" height="100" rx="0" />
<path d="M66500 32500
L65000 32500
" />
<path d="M65890 32370
L65600 32370
" />
<path d="M65750 32370
L65750 31870
L65700 31940
L65650 31990
L65600 32010
" />
</g>
<g style="fill:#008484; fill-opacity:0.0; 
stroke:#008484; stroke-width:60; stroke-opacity:1; 
stroke-linecap:round; stroke-linejoin:round;">
<path d="M67940 32060
L68110 32060
" />
<path d="M68180 32320
L67940 32320
L67940 31820
L68180 31820
" />
<path d="M68340 31820
L68650 31820
L68490 32010
L68560 32010
L68610 32040
L68630 32060
L68650 32110
L68650 32230
L68630 32270
L68610 32300
L68560 32320
L68420 32320
L68370 32300
L68340 32270
" />
<path d="M67890 32730
L68010 33230
L68110 32870
L68200 33230
L68320 32730
" />
<path d="M68510 33230
L68510 32730
" />
<path d="M69030 33230
L68870 32990
" />
<path d="M68750 33230
L68750 32730
L68940 32730
L68990 32760
L69010 32780
L69030 32830
L69030 32900
L69010 32950
L68990 32970
L68940 32990
L68750 32990
" />
<path d="M69250 32970
L69420 32970
" />
<path d="M69490 33230
L69250 33230
L69250 32730
L69490 32730
" />
<path d="M69580 33280
L69960 33280
" />
<path d="M70080 33230
L70080 32730
L70270 32730
L70320 32760
L70340 32780
L70370 32830
L70370 32900
L70340 32950
L70320 32970
L70270 32990
L70080 32990
" />
<path d="M70560 33090
L70800 33090
" />
<path d="M70510 33230
L70680 32730
L70840 33230
" />
<path d="M71010 33230
L71010 32730
L71130 32730
L71200 32760
L71250 32800
L71270 32850
L71300 32950
L71300 33020
L71270 33110
L71250 33160
L71200 33210
L71130 33230
L71010 33230
" />
<path d="M71390 33280
L71770 33280
" />
<path d="M71890 33230
L71890 32730
L72180 33230
L72180 32730
" />
<path d="M72510 32730
L72610 32730
L72650 32760
L72700 32800
L72730 32900
L72730 33060
L72700 33160
L72650 33210
L72610 33230
L72510 33230
L72460 33210
L72420 33160
L72390 33060
L72390 32900
L72420 32800
L72460 32760
L72510 32730
" />
<path d="M72820 33280
L73200 33280
" />
<path d="M73300 33090
L73530 33090
" />
<path d="M73250 33230
L73420 32730
L73580 33230
" />
</g>
</g>
<g style="fill:#008484; fill-opacity:0.0; 
stroke:#008484; stroke-width:0; stroke-opacity:1; 
stroke-linecap:round; stroke-linejoin:round;">
<g >
</g>
<g style="fill:#840000; fill-opacity:0.0; 
stroke:#840000; stroke-width:0; stroke-opacity:1; 
stroke-linecap:round; stroke-linejoin:round;">
</g>
<g style="fill:#FFFFC2; fill-opacity:0.0; 
stroke:#FFFFC2; stroke-width:0; stroke-opacity:1; 
stroke-linecap:round; stroke-linejoin:round;">
</g>
<g style="fill:#FFFFC2; fill-opacity:0.6; 
stroke:#FFFFC2; stroke-width:0; stroke-opacity:1; 
stroke-linecap:round; stroke-linejoin:round;">
<rect x="66500" y="30000" width="1000" height="1000" rx="0" />
</g>
<g style="fill:#840000; fill-opacity:0.6; 
stroke:#840000; stroke-width:0; stroke-opacity:1; 
stroke-linecap:round; stroke-linejoin:round;">
</g>
<g style="fill:#840000; fill-opacity:0.0; 
stroke:#840000; stroke-width:100; stroke-opacity:1; 
stroke-linecap:round; stroke-linejoin:round;">
<rect x="66500" y="30000" width="1000" height="1000" rx="0" />
</g>
<g style="fill:#840000; fill-opacity:0.0; 
stroke:#840000; stroke-width:60; stroke-opacity:1; 
stroke-linecap:round; stroke-linejoin:round;">
<rect x="66500" y="30450" width="500" height="100" rx="0" />
<path d="M66500 30500
L65000 30500
" />
<path d="M65890 30370
L65600 30370
" />
<path d="M65750 30370
L65750 29870
L65700 29940
L65650 29990
L65600 30010
" />
</g>
<g style="fill:#008484; fill-opacity:0.0; 
stroke:#008484; stroke-width:60; stroke-opacity:1; 
stroke-linecap:round; stroke-linejoin:round;">
<path d="M67940 30060
L68110 30060
" />
<path d="M68180 30320
L67940 30320
L67940 29820
L68180 29820
" />
<path d="M68650 30320
L68370 30320
" />
<path d="M68510 30320
L68510 29820
L68460 29890
L68420 29940
L68370 29960
" />
<path d="M67890 30730
L68010 31230
L68110 30870
L68200 31230
L68320 30730
" />
<path d="M68510 31230
L68510 30730
" />
<path d="M69040 31230
L68870 30990
" />
<path d="M68750 31230
L68750 30730
L68940 30730
L68990 30760
L69010 30780
L69040 30830
L69040 30900
L69010 30950
L68990 30970
L68940 30990
L68750 30990
" />
<path d="M69250 30970
L69420 30970
" />
<path d="M69490 31230
L69250 31230
L69250 30730
L69490 30730
" />
<path d="M69580 31280
L69970 31280
" />
<path d="M70080 31230
L70080 30730
L70270 30730
L70320 30760
L70350 30780
L70370 30830
L70370 30900
L70350 30950
L70320 30970
L70270 30990
L70080 30990
" />
<path d="M70560 31090
L70800 31090
" />
<path d="M70510 31230
L70680 30730
L70850 31230
" />
<path d="M71010 31230
L71010 30730
L71130 30730
L71200 30760
L71250 30800
L71270 30850
L71300 30950
L71300 31020
L71270 31110
L71250 31160
L71200 31210
L71130 31230
L71010 31230
" />
<path d="M71390 31280
L71770 31280
" />
<path d="M71890 31230
L71890 30730
L72180 31230
L72180 30730
" />
<path d="M72700 31180
L72680 31210
L72610 31230
L72560 31230
L72490 31210
L72440 31160
L72420 31110
L72390 31020
L72390 30950
L72420 30850
L72440 30800
L72490 30760
L72560 30730
L72610 30730
L72680 30760
L72700 30780
" />
<path d="M72800 31280
L73180 31280
" />
<path d="M73270 31090
L73510 31090
" />
<path d="M73230 31230
L73390 30730
L73560 31230
" />
</g>
</g>
<g style="fill:#008484; fill-opacity:0.0; 
stroke:#008484; stroke-width:0; stroke-opacity:1; 
stroke-linecap:round; stroke-linejoin:round;">
<g >
</g>
<g style="fill:#840000; fill-opacity:0.0; 
stroke:#840000; stroke-width:0; stroke-opacity:1; 
stroke-linecap:round; stroke-linejoin:round;">
</g>
<g style="fill:#840000; fill-opacity:0.0; 
stroke:#840000; stroke-width:60; stroke-opacity:1; 
stroke-linecap:round; stroke-linejoin:round;">
<circle cx="54700" cy="31500" r="200" /> 
<circle cx="56300" cy="32500" r="200" /> 
<circle cx="56300" cy="30500" r="200" /> 
<path style="fill:#840000; fill-opacity:0.0; 
stroke:#840000; stroke-width:60; stroke-opacity:1; 
stroke-linecap:round; stroke-linejoin:round;fill:none"
d="M 54900,31400
56150,30600
Z" /> 
<path d="M56500 30500
L57500 30500
" />
<path d="M57140 31070
L56850 31070
" />
<path d="M57000 31070
L57000 30570
L56950 30640
L56900 30690
L56850 30710
" />
<path d="M54500 31500
L53500 31500
" />
<path d="M53850 31620
L53880 31600
L53920 31570
L54040 31570
L54090 31600
L54110 31620
L54140 31670
L54140 31710
L54110 31790
L53830 32070
L54140 32070
" />
<path d="M56500 32500
L57500 32500
" />
<path d="M56830 32570
L57140 32570
L56970 32760
L57040 32760
L57090 32790
L57110 32810
L57140 32860
L57140 32980
L57110 33020
L57090 33050
L57040 33070
L56900 33070
L56850 33050
L56830 33020
" />
</g>
<g style="fill:#008484; fill-opacity:0.0; 
stroke:#008484; stroke-width:60; stroke-opacity:1; 
stroke-linecap:round; stroke-linejoin:round;">
<path d="M54610 28220
L54690 28240
L54800 28240
L54850 28220
L54880 28190
L54900 28150
L54900 28100
L54880 28050
L54850 28030
L54800 28000
L54710 27980
L54660 27960
L54640 27930
L54610 27880
L54610 27840
L54640 27790
L54660 27770
L54710 27740
L54830 27740
L54900 27770
" />
<path d="M55070 27740
L55190 28240
L55280 27880
L55380 28240
L55500 27740
" />
<path d="M55950 28240
L55660 28240
" />
<path d="M55800 28240
L55800 27740
L55760 27810
L55710 27860
L55660 27880
" />
<path d="M56140 28100
L56380 28100
" />
<path d="M56090 28240
L56260 27740
L56420 28240
" />
<path d="M49900 29220
L49970 29240
L50090 29240
L50140 29220
L50160 29190
L50190 29150
L50190 29100
L50160 29050
L50140 29030
L50090 29000
L50000 28980
L49950 28960
L49920 28930
L49900 28880
L49900 28840
L49920 28790
L49950 28770
L50000 28740
L50110 28740
L50190 28770
" />
<path d="M50570 28980
L50400 28980
" />
<path d="M50400 29240
L50400 28740
L50640 28740
" />
<path d="M51090 29240
L50800 29240
" />
<path d="M50950 29240
L50950 28740
L50900 28810
L50850 28860
L50800 28880
" />
<path d="M51280 28790
L51300 28770
L51350 28740
L51470 28740
L51520 28770
L51540 28790
L51570 28840
L51570 28880
L51540 28960
L51260 29240
L51570 29240
" />
<path d="M51880 28740
L51920 28740
L51970 28770
L52000 28790
L52020 28840
L52040 28930
L52040 29050
L52020 29150
L52000 29190
L51970 29220
L51920 29240
L51880 29240
L51830 29220
L51800 29190
L51780 29150
L51760 29050
L51760 28930
L51780 28840
L51800 28790
L51830 28770
L51880 28740
" />
<path d="M52230 28790
L52260 28770
L52300 28740
L52420 28740
L52470 28770
L52500 28790
L52520 28840
L52520 28880
L52500 28960
L52210 29240
L52520 29240
" />
<path d="M52830 28740
L52880 28740
L52920 28770
L52950 28790
L52970 28840
L53000 28930
L53000 29050
L52970 29150
L52950 29190
L52920 29220
L52880 29240
L52830 29240
L52780 29220
L52760 29190
L52730 29150
L52710 29050
L52710 28930
L52730 28840
L52760 28790
L52780 28770
L52830 28740
" />
<path d="M53380 28980
L53210 28980
" />
<path d="M53210 29240
L53210 28740
L53450 28740
" />
<path d="M53640 29050
L54020 29050
" />
<path d="M54350 28740
L54400 28740
L54450 28770
L54470 28790
L54500 28840
L54520 28930
L54520 29050
L54500 29150
L54470 29190
L54450 29220
L54400 29240
L54350 29240
L54300 29220
L54280 29190
L54260 29150
L54230 29050
L54230 28930
L54260 28840
L54280 28790
L54300 28770
L54350 28740
" />
<path d="M54710 28790
L54730 28770
L54780 28740
L54900 28740
L54950 28770
L54970 28790
L55000 28840
L55000 28880
L54970 28960
L54690 29240
L55000 29240
" />
<path d="M55300 28740
L55350 28740
L55400 28770
L55420 28790
L55450 28840
L55470 28930
L55470 29050
L55450 29150
L55420 29190
L55400 29220
L55350 29240
L55300 29240
L55260 29220
L55230 29190
L55210 29150
L55190 29050
L55190 28930
L55210 28840
L55230 28790
L55260 28770
L55300 28740
" />
<path d="M55660 28790
L55690 28770
L55730 28740
L55850 28740
L55900 28770
L55920 28790
L55950 28840
L55950 28880
L55920 28960
L55640 29240
L55950 29240
" />
<path d="M56160 29050
L56540 29050
" />
<path d="M56760 28790
L56780 28770
L56830 28740
L56950 28740
L57000 28770
L57020 28790
L57040 28840
L57040 28880
L57020 28960
L56730 29240
L57040 29240
" />
<path d="M57350 28740
L57400 28740
L57450 28770
L57470 28790
L57500 28840
L57520 28930
L57520 29050
L57500 29150
L57470 29190
L57450 29220
L57400 29240
L57350 29240
L57300 29220
L57280 29190
L57260 29150
L57230 29050
L57230 28930
L57260 28840
L57280 28790
L57300 28770
L57350 28740
" />
<path d="M58020 29240
L57850 29000
" />
<path d="M57730 29240
L57730 28740
L57920 28740
L57970 28770
L58000 28790
L58020 28840
L58020 28910
L58000 28960
L57970 28980
L57920 29000
L57730 29000
" />
<path d="M58230 29050
L58610 29050
" />
<path d="M59090 29240
L58850 29240
L58850 28740
" />
<path d="M59260 29050
L59640 29050
" />
<path d="M59970 28740
L60020 28740
L60070 28770
L60090 28790
L60110 28840
L60140 28930
L60140 29050
L60110 29150
L60090 29190
L60070 29220
L60020 29240
L59970 29240
L59920 29220
L59900 29190
L59880 29150
L59850 29050
L59850 28930
L59880 28840
L59900 28790
L59920 28770
L59970 28740
" />
<path d="M60610 29240
L60330 29240
" />
<path d="M60470 29240
L60470 28740
L60420 28810
L60380 28860
L60330 28880
" />
<path d="M61090 29240
L60800 29240
" />
<path d="M60950 29240
L60950 28740
L60900 28810
L60850 28860
L60800 28880
" />
</g>
</g>
<g style="fill:#008484; fill-opacity:0.0; 
stroke:#008484; stroke-width:60; stroke-opacity:1; 
stroke-linecap:round; stroke-linejoin:round;">
</g>
<g style="fill:#008400; fill-opacity:0.0; 
stroke:#008400; stroke-width:60; stroke-opacity:1; 
stroke-linecap:round; stroke-linejoin:round;">
<path d="M65000 42500
L57500 42500
" />
<path d="M57500 40500
L65000 40500
" />
<path d="M65000 32500
L57500 32500
" />
<path d="M57500 30500
L65000 30500
" />
<path d="M53500 31500
L45000 31500
" />
<path d="M45000 41500
L53500 41500
" />
</g> 
</svg>
