<?xml version="1.0" standalone="no"?>
 <!DOCTYPE svg PUBLIC "-//W3C//DTD SVG 1.1//EN" 
 "http://www.w3.org/Graphics/SVG/1.1/DTD/svg11.dtd"> 
<svg xmlns="http://www.w3.org/2000/svg" version="1.1" 
    width="29.7002cm" height="21.0007cm" viewBox="0 0 116930 82680 ">
<title>SVG Picture created as #110-000-S1A - Phasor PCB-Edge_Cuts.svg date 2020/01/11 22:14:52 </title>
  <desc>Picture generated by PCBNEW </desc>
<g style="fill:#000000; fill-opacity:1;stroke:#000000; stroke-opacity:1;
stroke-linecap:round; stroke-linejoin:round; "
 transform="translate(0 0) scale(1 1)">
</g>
<g style="fill:#000000; fill-opacity:0.0; 
stroke:#000000; stroke-width:-0.000393701; stroke-opacity:1; 
stroke-linecap:round; stroke-linejoin:round;">
</g>
<g style="fill:#000000; fill-opacity:0.0; 
stroke:#000000; stroke-width:150; stroke-opacity:1; 
stroke-linecap:round; stroke-linejoin:round;">
<path d="M36250 20250 A250 250 0.0 0 0 36000 20500 " />
<path d="M36000 27750 A250 250 0.0 0 0 36250 28000 " />
<path d="M36250 32000 A250 250 0.0 0 0 36000 32250 " />
<path d="M36000 50750 A250 250 0.0 0 0 36250 51000 " />
<path d="M36250 55000 A250 250 0.0 0 0 36000 55250 " />
<path d="M36000 57750 A250 250 0.0 0 0 36250 58000 " />
<path d="M80000 58000 A250 250 0.0 0 0 80250 57750 " />
<path d="M80250 55250 A250 250 0.0 0 0 80000 55000 " />
<path d="M80000 51000 A250 250 0.0 0 0 80250 50750 " />
<path d="M80250 32250 A250 250 0.0 0 0 80000 32000 " />
<path d="M80000 28000 A250 250 0.0 0 0 80250 27750 " />
<path d="M80250 20500 A250 250 0.0 0 0 80000 20250 " />
<path d="M77500 17750 A250 250 0.0 0 0 77250 17500 " />
<path d="M74625 17500 A250 250 0.0 0 0 74375 17750 " />
<path d="M71875 17750 A250 250 0.0 0 0 71625 17500 " />
<path d="M44625 17500 A250 250 0.0 0 0 44375 17750 " />
<path d="M41875 17750 A250 250 0.0 0 0 41625 17500 " />
<path d="M39000 17500 A250 250 0.0 0 0 38750 17750 " />
<path d="M71875 17750 A1250 1250 0.0 0 0 74375 17750 " />
<path d="M77250 17500
L74625 17500
" />
<path d="M41625 17500
L39000 17500
" />
<path d="M41875 17750 A1274.75 1274.75 0.0 0 0 44375 17750 " />
<path d="M36000 27750
L36000 20500
" />
<path d="M80250 50750
L80250 32250
" />
<path d="M79750 28000 A2000 2000 0.0 0 0 79750 32000 " />
<path d="M79750 32000
L80000 32000
" />
<path d="M79750 28000
L80000 28000
" />
<path d="M36500 32000 A2000 2000 0.0 0 0 36500 28000 " />
<path d="M36500 28000
L36250 28000
" />
<path d="M36500 32000
L36250 32000
" />
<path d="M36500 51000
L36250 51000
" />
<path d="M77500 17750
L77500 18000
" />
<path d="M80000 20250
L79750 20250
" />
<path d="M80000 51000
L79750 51000
" />
<path d="M80000 55000
L79750 55000
" />
<path d="M36500 58000
L36250 58000
" />
<path d="M36500 55000
L36250 55000
" />
<path d="M36500 20250
L36250 20250
" />
<path d="M38750 18000
L38750 17750
" />
<path d="M79750 51000 A2000 2000 0.0 0 0 79750 55000 " />
<path d="M77500 18000 A2250 2250 0.0 0 0 79750 20250 " />
<path d="M36000 55250
L36000 57750
" />
<path d="M36500 55000 A2000 2000 0.0 0 0 36500 51000 " />
<path d="M36500 20250 A2250 2250 0.0 0 0 38750 18000 " />
<path d="M80250 55250
L80250 57750
" />
<path d="M71625 17500
L44625 17500
" />
<path d="M80250 27750
L80250 20500
" />
<path d="M36500 58000
L80000 58000
" />
<path d="M36000 50750
L36000 32250
" />
<g >
</g>
<g >
</g>
<g >
</g>
<g >
</g>
<g >
</g>
<g >
</g>
<g >
</g>
<g >
</g>
<g >
</g>
<g >
</g>
<g >
</g>
<g >
</g>
<g >
</g>
<g >
</g>
<g >
</g>
<g >
</g>
<g >
</g>
<g >
</g>
<g >
</g>
<g >
</g>
<g >
</g>
<g >
</g>
<g >
</g>
<g >
</g>
<g >
</g>
<g >
</g>
<g >
</g>
<g >
</g>
<g >
</g>
<g >
</g>
<g >
</g>
<g >
</g>
<g >
</g>
<g >
</g>
<g >
</g>
<g >
</g>
<g >
</g>
<g >
</g>
<g >
</g>
<g >
</g>
<g >
</g>
<g >
</g>
<g >
</g>
<g >
</g>
<g >
</g>
<g >
</g>
<g >
</g>
<g >
</g>
<g >
</g>
<g >
</g>
<g >
</g>
<g >
</g>
<g >
</g>
<g >
</g>
<g >
</g>
<g >
</g>
<g >
</g>
<g >
</g>
<g >
</g>
<g >
</g>
<g >
</g>
<g >
</g>
<g >
</g>
<g >
</g>
<g >
</g>
<g >
</g>
<g >
</g>
<g >
</g>
<g >
</g>
<g >
</g>
<g >
</g>
<g >
</g>
<g >
</g>
<g >
</g>
<g >
</g>
<g >
</g>
<g >
</g>
<g >
</g>
<g >
</g>
<g >
</g>
<g >
</g>
<g >
</g>
<g >
</g>
<g >
</g>
<g >
</g>
<g >
</g>
<g >
</g>
<g >
</g>
<g >
</g>
<g >
</g>
<g >
</g>
<g >
</g>
<g >
</g>
<g >
</g>
<g >
</g>
<g >
</g>
<g >
</g>
<g >
</g>
<g >
</g>
<g >
</g>
<g >
</g>
<g >
</g>
<g >
</g>
<g >
</g>
<g >
</g>
<g >
</g>
<g >
</g>
<g >
</g>
<g >
</g>
<g >
</g>
<g >
</g>
<g >
</g>
<g >
</g>
<g >
</g>
<g >
</g>
<g >
</g>
<g >
</g>
<g >
</g>
<g >
</g>
<g >
</g>
<g >
</g>
<g >
</g>
<g >
</g>
<g >
</g>
<g >
</g>
<g >
</g>
<g >
</g>
<g >
</g>
<g >
</g>
<g >
</g>
<g >
</g>
<g >
</g>
<g >
</g>
<g >
</g>
<g >
</g>
<g >
</g>
<g >
</g>
<g >
</g>
<g >
</g>
<g >
</g>
<g >
</g>
<g >
</g>
<g >
</g>
<g >
</g>
<g >
</g>
<g >
</g>
<g >
</g>
<g >
</g>
<g >
</g>
<g >
</g>
<g >
</g>
<g >
</g>
<g >
</g>
<g >
</g>
<g >
</g>
<g >
</g>
<g >
</g>
<g >
</g>
<g >
</g>
<g >
</g>
<g >
</g>
<g >
</g>
<g >
</g>
<g >
</g>
<g >
</g>
<g >
</g>
<g >
</g>
<g >
</g>
<g >
</g>
<g >
</g>
<g >
</g>
<g >
</g>
<g >
</g>
<g >
</g>
<g >
</g>
<g >
</g>
<g >
</g>
<g >
</g>
<g >
</g>
<g >
</g>
<g >
</g>
<g >
</g>
<g >
</g>
<g >
</g>
<g >
</g>
<g >
</g>
<g >
</g>
<g >
</g>
<g >
</g>
<g >
</g>
<g >
</g>
<g >
</g>
<g >
</g>
<g >
</g>
<g >
</g>
<g >
</g>
<g >
</g>
<g >
</g>
<g >
</g>
<g >
</g>
<g >
</g>
<g >
</g>
<g >
</g>
<g >
</g>
<g >
</g>
<g >
</g>
<g >
</g>
</g> 
</svg>
