G04 #@! TF.GenerationSoftware,KiCad,Pcbnew,(5.99.0-1918-g94cd0cf3a)*
G04 #@! TF.CreationDate,2020-06-10T22:19:03+02:00*
G04 #@! TF.ProjectId,#110-000-S1A - Phasor PCB,23313130-2d30-4303-902d-533141202d20,rev?*
G04 #@! TF.SameCoordinates,Original*
G04 #@! TF.FileFunction,Copper,L2,Bot*
G04 #@! TF.FilePolarity,Positive*
%FSLAX46Y46*%
G04 Gerber Fmt 4.6, Leading zero omitted, Abs format (unit mm)*
G04 Created by KiCad (PCBNEW (5.99.0-1918-g94cd0cf3a)) date 2020-06-10 22:19:03*
%MOMM*%
%LPD*%
G01*
G04 APERTURE LIST*
G04 #@! TA.AperFunction,SMDPad,CuDef*
%ADD10R,0.950000X0.875000*%
G04 #@! TD*
G04 #@! TA.AperFunction,ComponentPad*
%ADD11C,1.600000*%
G04 #@! TD*
G04 #@! TA.AperFunction,ComponentPad*
%ADD12O,1.600000X2.400000*%
G04 #@! TD*
G04 #@! TA.AperFunction,ComponentPad*
%ADD13C,2.000000*%
G04 #@! TD*
G04 #@! TA.AperFunction,ComponentPad*
%ADD14C,6.400000*%
G04 #@! TD*
G04 #@! TA.AperFunction,ComponentPad*
%ADD15C,0.800000*%
G04 #@! TD*
G04 #@! TA.AperFunction,ComponentPad*
%ADD16C,1.800000*%
G04 #@! TD*
G04 #@! TA.AperFunction,ComponentPad*
%ADD17C,2.500000*%
G04 #@! TD*
G04 #@! TA.AperFunction,SMDPad,CuDef*
%ADD18C,3.000000*%
G04 #@! TD*
G04 #@! TA.AperFunction,ComponentPad*
%ADD19C,2.700000*%
G04 #@! TD*
G04 #@! TA.AperFunction,ComponentPad*
%ADD20C,1.200000*%
G04 #@! TD*
G04 #@! TA.AperFunction,ComponentPad*
%ADD21O,2.400000X1.600000*%
G04 #@! TD*
G04 #@! TA.AperFunction,Conductor*
%ADD22C,0.600000*%
G04 #@! TD*
G04 #@! TA.AperFunction,Conductor*
%ADD23C,0.300000*%
G04 #@! TD*
G04 #@! TA.AperFunction,Conductor*
%ADD24C,0.500000*%
G04 #@! TD*
G04 APERTURE END LIST*
D10*
X186690000Y-125247500D03*
X186690000Y-123672500D03*
D11*
X166370000Y-119380000D03*
X156210000Y-119380000D03*
X174625000Y-120650000D03*
X174625000Y-110490000D03*
X166370000Y-115570000D03*
X156210000Y-115570000D03*
X147002500Y-117475000D03*
X147002500Y-127635000D03*
X123190000Y-129540000D03*
X123190000Y-119380000D03*
X180340000Y-84137500D03*
X170180000Y-84137500D03*
X166687500Y-84137500D03*
X156527500Y-84137500D03*
X130810000Y-67310000D03*
X140970000Y-67310000D03*
X177165000Y-127635000D03*
X177165000Y-117475000D03*
X156210000Y-111760000D03*
X166370000Y-111760000D03*
X139700000Y-102870000D03*
X129540000Y-102870000D03*
X113030000Y-118110000D03*
X113030000Y-107950000D03*
X169545000Y-67945000D03*
X179705000Y-67945000D03*
X153035000Y-52070000D03*
X163195000Y-52070000D03*
X125095000Y-52705000D03*
X135255000Y-52705000D03*
D12*
X129540000Y-119380000D03*
X137160000Y-111760000D03*
X132080000Y-119380000D03*
X134620000Y-111760000D03*
X134620000Y-119380000D03*
X132080000Y-111760000D03*
X137160000Y-119380000D03*
X129540000Y-111760000D03*
X139700000Y-119380000D03*
X139700000Y-111760000D03*
X179705000Y-55880000D03*
X187325000Y-63500000D03*
X182245000Y-55880000D03*
X184785000Y-63500000D03*
X184785000Y-55880000D03*
X182245000Y-63500000D03*
X187325000Y-55880000D03*
X179705000Y-63500000D03*
X113347500Y-120650000D03*
X120967500Y-128270000D03*
X115887500Y-120650000D03*
X118427500Y-128270000D03*
X118427500Y-120650000D03*
X115887500Y-128270000D03*
X120967500Y-120650000D03*
X113347500Y-128270000D03*
X135890000Y-55880000D03*
X143510000Y-63500000D03*
X138430000Y-55880000D03*
X140970000Y-63500000D03*
X140970000Y-55880000D03*
X138430000Y-63500000D03*
X143510000Y-55880000D03*
X135890000Y-63500000D03*
X146050000Y-102870000D03*
X153670000Y-110490000D03*
X148590000Y-102870000D03*
X151130000Y-110490000D03*
X151130000Y-102870000D03*
X148590000Y-110490000D03*
X153670000Y-102870000D03*
X146050000Y-110490000D03*
X115570000Y-101600000D03*
X123190000Y-109220000D03*
X118110000Y-101600000D03*
X120650000Y-109220000D03*
X120650000Y-101600000D03*
X118110000Y-109220000D03*
X123190000Y-101600000D03*
X115570000Y-109220000D03*
X186690000Y-120650000D03*
X194310000Y-128270000D03*
X189230000Y-120650000D03*
X191770000Y-128270000D03*
X191770000Y-120650000D03*
X189230000Y-128270000D03*
X194310000Y-120650000D03*
X186690000Y-128270000D03*
D13*
X182880000Y-102552500D03*
X193040000Y-102552500D03*
X193040000Y-100012500D03*
X182880000Y-100012500D03*
X178435000Y-133350000D03*
X178435000Y-143510000D03*
X180975000Y-143510000D03*
X180975000Y-133350000D03*
X185420000Y-104775000D03*
X185420000Y-114935000D03*
X186690000Y-117475000D03*
X196850000Y-117475000D03*
X187960000Y-114935000D03*
X187960000Y-104775000D03*
X183515000Y-133350000D03*
X183515000Y-143510000D03*
X183515000Y-119380000D03*
X183515000Y-129540000D03*
D11*
X194945000Y-56515000D03*
X194945000Y-46355000D03*
X190500000Y-114935000D03*
X190500000Y-104775000D03*
X108267500Y-142240000D03*
X108267500Y-132080000D03*
X96520000Y-99060000D03*
X96520000Y-88900000D03*
X180340000Y-110490000D03*
X180340000Y-100330000D03*
X163195000Y-142240000D03*
X163195000Y-132080000D03*
X192405000Y-60960000D03*
X192405000Y-50800000D03*
X125730000Y-142240000D03*
X125730000Y-132080000D03*
X113347500Y-142240000D03*
X113347500Y-132080000D03*
X123190000Y-142240000D03*
X123190000Y-132080000D03*
X115887500Y-142240000D03*
X115887500Y-132080000D03*
X119380000Y-142240000D03*
X119380000Y-132080000D03*
X139382500Y-142240000D03*
X139382500Y-132080000D03*
X141922500Y-142240000D03*
X141922500Y-132080000D03*
X166370000Y-81280000D03*
X166370000Y-71120000D03*
X171450000Y-81280000D03*
X171450000Y-71120000D03*
X168910000Y-81280000D03*
X168910000Y-71120000D03*
X177165000Y-64770000D03*
X177165000Y-54610000D03*
X174625000Y-64770000D03*
X174625000Y-54610000D03*
X105727500Y-142240000D03*
X105727500Y-132080000D03*
X110172500Y-127000000D03*
X110172500Y-116840000D03*
X99695000Y-113030000D03*
X99695000Y-102870000D03*
X97155000Y-113030000D03*
X97155000Y-102870000D03*
X103505000Y-115570000D03*
X103505000Y-105410000D03*
X107315000Y-115570000D03*
X107315000Y-105410000D03*
X165735000Y-99060000D03*
X165735000Y-88900000D03*
X153987500Y-64770000D03*
X153987500Y-54610000D03*
X151447500Y-64770000D03*
X151447500Y-54610000D03*
X163195000Y-99060000D03*
X163195000Y-88900000D03*
X146685000Y-64770000D03*
X146685000Y-54610000D03*
X156210000Y-99060000D03*
X156210000Y-88900000D03*
X153035000Y-99060000D03*
X153035000Y-88900000D03*
X146050000Y-99060000D03*
X146050000Y-88900000D03*
X142240000Y-99060000D03*
X142240000Y-88900000D03*
X135890000Y-99060000D03*
X135890000Y-88900000D03*
X138430000Y-99060000D03*
X138430000Y-88900000D03*
X128270000Y-99060000D03*
X128270000Y-88900000D03*
X125730000Y-99060000D03*
X125730000Y-88900000D03*
X118745000Y-99060000D03*
X118745000Y-88900000D03*
X114300000Y-99060000D03*
X114300000Y-88900000D03*
X100330000Y-99060000D03*
X100330000Y-88900000D03*
X109156500Y-99060000D03*
X109156500Y-88900000D03*
X106045000Y-99060000D03*
X106045000Y-88900000D03*
X123825000Y-77470000D03*
X123825000Y-67310000D03*
X126365000Y-79375000D03*
X126365000Y-69215000D03*
X118427500Y-64770000D03*
X118427500Y-54610000D03*
X115887500Y-64770000D03*
X115887500Y-54610000D03*
X113347500Y-64770000D03*
X113347500Y-54610000D03*
X103505000Y-65087500D03*
X103505000Y-54927500D03*
X100965000Y-65087500D03*
X100965000Y-54927500D03*
X182880000Y-114935000D03*
X182880000Y-104775000D03*
X158115000Y-142240000D03*
X158115000Y-132080000D03*
D12*
X123825000Y-55880000D03*
X131445000Y-63500000D03*
X126365000Y-55880000D03*
X128905000Y-63500000D03*
X128905000Y-55880000D03*
X126365000Y-63500000D03*
X131445000Y-55880000D03*
X123825000Y-63500000D03*
D14*
X200342500Y-67310000D03*
D15*
X202742500Y-67310000D03*
X202039556Y-69007056D03*
X200342500Y-69710000D03*
X198645444Y-69007056D03*
X197942500Y-67310000D03*
X198645444Y-65612944D03*
X200342500Y-64910000D03*
X202039556Y-65612944D03*
D14*
X200342500Y-126365000D03*
D15*
X202742500Y-126365000D03*
X202039556Y-128062056D03*
X200342500Y-128765000D03*
X198645444Y-128062056D03*
X197942500Y-126365000D03*
X198645444Y-124667944D03*
X200342500Y-123965000D03*
X202039556Y-124667944D03*
D14*
X94932500Y-67310000D03*
D15*
X97332500Y-67310000D03*
X96629556Y-69007056D03*
X94932500Y-69710000D03*
X93235444Y-69007056D03*
X92532500Y-67310000D03*
X93235444Y-65612944D03*
X94932500Y-64910000D03*
X96629556Y-65612944D03*
D14*
X94932500Y-126365000D03*
D15*
X97332500Y-126365000D03*
X96629556Y-128062056D03*
X94932500Y-128765000D03*
X93235444Y-128062056D03*
X92532500Y-126365000D03*
X93235444Y-124667944D03*
X94932500Y-123965000D03*
X96629556Y-124667944D03*
D13*
X193040000Y-114935000D03*
X193040000Y-112395000D03*
D16*
X200977500Y-112077500D03*
X197128981Y-121920000D03*
D17*
X102640000Y-85725000D03*
D16*
X105140000Y-85725000D03*
D17*
X101917500Y-139470000D03*
D16*
X101917500Y-141970000D03*
D17*
X97364340Y-121494340D03*
D16*
X99132107Y-123262107D03*
D17*
X100539340Y-118319340D03*
D16*
X102307107Y-120087107D03*
D17*
X94297500Y-58825000D03*
D16*
X94297500Y-61325000D03*
D18*
X133350000Y-132080000D03*
D12*
X130810000Y-137160000D03*
X135890000Y-137160000D03*
X133350000Y-139700000D03*
X168275000Y-59690000D03*
X163195000Y-59690000D03*
X165735000Y-57150000D03*
D13*
X180340000Y-114300000D03*
X180340000Y-124460000D03*
X160655000Y-142240000D03*
X160655000Y-132080000D03*
X110807500Y-142240000D03*
X110807500Y-132080000D03*
X189865000Y-67310000D03*
X189865000Y-57150000D03*
D18*
X167640000Y-76200000D03*
X182562500Y-76200000D03*
X152717500Y-76200000D03*
X134620000Y-76200000D03*
D19*
X175135000Y-71200000D03*
X175135000Y-81200000D03*
X175135000Y-76200000D03*
X163637500Y-81200000D03*
X163637500Y-71200000D03*
X163637500Y-76200000D03*
X120140000Y-81200000D03*
X120140000Y-71200000D03*
X120140000Y-76200000D03*
D11*
X167275000Y-106680000D03*
X169275000Y-106680000D03*
X159385000Y-128000000D03*
X159385000Y-126000000D03*
X170815000Y-119975000D03*
X170815000Y-114975000D03*
X149860000Y-139620000D03*
X149860000Y-134620000D03*
X191135000Y-94892500D03*
X191135000Y-89892500D03*
X167045000Y-143510000D03*
X172045000Y-143510000D03*
X106362500Y-124420000D03*
X106362500Y-119420000D03*
X106997500Y-62190000D03*
X106997500Y-57190000D03*
X195897500Y-91142500D03*
X195897500Y-93642500D03*
X195897500Y-105747500D03*
X195897500Y-108247500D03*
X179705000Y-130540000D03*
X179705000Y-128540000D03*
X192040000Y-132397500D03*
X194040000Y-132397500D03*
X186960000Y-132397500D03*
X188960000Y-132397500D03*
X189250000Y-138747500D03*
X191750000Y-138747500D03*
X105362500Y-128270000D03*
X107362500Y-128270000D03*
D20*
X106997500Y-66472500D03*
X106997500Y-64972500D03*
D21*
X174625000Y-105410000D03*
X174625000Y-102870000D03*
X174625000Y-107950000D03*
X154305000Y-137160000D03*
X154305000Y-139700000D03*
X154305000Y-134620000D03*
D12*
X129540000Y-128270000D03*
X127000000Y-128270000D03*
X132080000Y-128270000D03*
D11*
X194945000Y-65047500D03*
X194945000Y-60047500D03*
X171450000Y-62190000D03*
X171450000Y-57190000D03*
X160337500Y-57190000D03*
X160337500Y-62190000D03*
X156845000Y-62190000D03*
X156845000Y-57190000D03*
X160020000Y-96480000D03*
X160020000Y-91480000D03*
X149860000Y-96480000D03*
X149860000Y-91480000D03*
X132080000Y-96480000D03*
X132080000Y-91480000D03*
X122237500Y-96480000D03*
X122237500Y-91480000D03*
X103187500Y-96480000D03*
X103187500Y-91480000D03*
X129540000Y-71755000D03*
X129540000Y-76755000D03*
X120967500Y-57190000D03*
X120967500Y-62190000D03*
X110807500Y-62190000D03*
X110807500Y-57190000D03*
X97790000Y-62507500D03*
X97790000Y-57507500D03*
D22*
X176339500Y-113157000D02*
X175780700Y-112826800D01*
X177812700Y-114427000D02*
X177236503Y-113834797D01*
X176339500Y-113157000D02*
X177236503Y-113834797D01*
X178691683Y-115656217D02*
X177812700Y-114427000D01*
X175780700Y-112826800D02*
X174087684Y-112056016D01*
X122351800Y-93421200D02*
X123014810Y-93360310D01*
X123505959Y-93140259D02*
X123809270Y-92897470D01*
X123014810Y-93360310D02*
X123505959Y-93140259D01*
X120429341Y-90457341D02*
X120362533Y-90708033D01*
X120362533Y-90708033D02*
X120281638Y-91414662D01*
X120465347Y-83814153D02*
X119067782Y-83052718D01*
X119067782Y-83052718D02*
X117360700Y-82346800D01*
X159067500Y-116332000D02*
X159320002Y-115124002D01*
D23*
X131626184Y-52409516D02*
X131713288Y-53744812D01*
X103392632Y-65914932D02*
X103505000Y-65087500D01*
X103392632Y-65914932D02*
X103260236Y-66341336D01*
X102806500Y-66827400D02*
X103037821Y-66626921D01*
X103037821Y-66626921D02*
X103260236Y-66341336D01*
X101003100Y-66014600D02*
X101099409Y-66248491D01*
X101099409Y-66248491D02*
X101302344Y-66553556D01*
X101302344Y-66553556D02*
X101477763Y-66708337D01*
X101814149Y-66879951D02*
X102015597Y-66932503D01*
X101814149Y-66879951D02*
X101477763Y-66708337D01*
X97790000Y-62507500D02*
X97189041Y-61878459D01*
X96826615Y-61580485D02*
X96559310Y-61415990D01*
X97189041Y-61878459D02*
X96826615Y-61580485D01*
X96156379Y-61260121D02*
X95696314Y-61190414D01*
X96156379Y-61260121D02*
X96559310Y-61415990D01*
X95337308Y-61187008D02*
X94297500Y-61325000D01*
X95337308Y-61187008D02*
X95696314Y-61190414D01*
X98361500Y-63525400D02*
X97790000Y-62507500D01*
X98894900Y-64617600D02*
X98361500Y-63525400D01*
X99402900Y-66344800D02*
X98894900Y-64617600D01*
X99733100Y-68376800D02*
X99402900Y-66344800D01*
X99853098Y-70339602D02*
X99733100Y-68376800D01*
D22*
X106997500Y-62190000D02*
X105587525Y-61988975D01*
X105587525Y-61988975D02*
X105045266Y-61794634D01*
X105045266Y-61794634D02*
X104764083Y-61644017D01*
X104235764Y-61130936D02*
X103978332Y-60753368D01*
X104764083Y-61644017D02*
X104235764Y-61130936D01*
X102743000Y-57619900D02*
X102552500Y-57226200D01*
X102743000Y-57619900D02*
X103209664Y-58931236D01*
X103541636Y-59869264D02*
X103209664Y-58931236D01*
X103978332Y-60753368D02*
X103541636Y-59869264D01*
X102552500Y-57226200D02*
X102411184Y-56910316D01*
X101873050Y-55975250D02*
X100965000Y-54927500D01*
X101873050Y-55975250D02*
X102411184Y-56910316D01*
X100914309Y-52539791D02*
X102603300Y-52679600D01*
X100965000Y-54927500D02*
X100914309Y-52539791D01*
X99999438Y-52464062D02*
X100914309Y-52539791D01*
X95751162Y-52660062D02*
X95325430Y-53047130D01*
X95325430Y-53047130D02*
X94784164Y-53674264D01*
X94784164Y-53674264D02*
X94615000Y-53975000D01*
X97421700Y-52171600D02*
X96827340Y-52237640D01*
X96087223Y-52488123D02*
X95751162Y-52660062D01*
X96827340Y-52237640D02*
X96087223Y-52488123D01*
X99656900Y-52400200D02*
X98230110Y-52175990D01*
X97421700Y-52171600D02*
X98230110Y-52175990D01*
X109979460Y-51470560D02*
X109204634Y-51813334D01*
X109204634Y-51813334D02*
X107226600Y-52348900D01*
X107226600Y-52348900D02*
X105827448Y-52576348D01*
X111412020Y-50515520D02*
X109979460Y-51470560D01*
X113220500Y-48958500D02*
X112627523Y-49521223D01*
X112627523Y-49521223D02*
X111412020Y-50515520D01*
X105827448Y-52576348D02*
X104660700Y-52679600D01*
X99999438Y-52464062D02*
X99656900Y-52400200D01*
X104660700Y-52679600D02*
X102603300Y-52679600D01*
X117045811Y-47259311D02*
X116320590Y-47423090D01*
X114758277Y-48019777D02*
X113220500Y-48958500D01*
X118358805Y-47099105D02*
X117045811Y-47259311D01*
X120256300Y-46990000D02*
X118358805Y-47099105D01*
X132727700Y-46990000D02*
X120256300Y-46990000D01*
X152768300Y-47828200D02*
X142532100Y-47802800D01*
X159772495Y-47339395D02*
X156755242Y-47651258D01*
X136366510Y-47415190D02*
X134606241Y-47166741D01*
X94615000Y-53975000D02*
X94297500Y-55245000D01*
X153932722Y-47832178D02*
X152768300Y-47828200D01*
X134606241Y-47166741D02*
X134252977Y-47115723D01*
X156755242Y-47651258D02*
X153932722Y-47832178D01*
X160560489Y-47162189D02*
X159772495Y-47339395D01*
X116320590Y-47423090D02*
X114758277Y-48019777D01*
X142532100Y-47802800D02*
X140499401Y-47802101D01*
X140499401Y-47802101D02*
X139083796Y-47720504D01*
X134252977Y-47115723D02*
X132727700Y-46990000D01*
X139083796Y-47720504D02*
X136366510Y-47415190D01*
X94297500Y-55245000D02*
X94297500Y-58825000D01*
D23*
X102379780Y-66934080D02*
X102806500Y-66827400D01*
X102015597Y-66932503D02*
X102379780Y-66934080D01*
X101155500Y-63347600D02*
X100965000Y-65087500D01*
X101358700Y-62153800D02*
X101155500Y-63347600D01*
X101460300Y-61442600D02*
X101358700Y-62153800D01*
X101485700Y-60706000D02*
X101460300Y-61442600D01*
X101485700Y-59994800D02*
X101485700Y-60706000D01*
X101282500Y-59207400D02*
X101485700Y-59994800D01*
X100926900Y-58420000D02*
X101282500Y-59207400D01*
X100444300Y-57912000D02*
X100926900Y-58420000D01*
X99809300Y-57658000D02*
X100444300Y-57912000D01*
X100965000Y-65087500D02*
X101003100Y-66014600D01*
X97790000Y-57507500D02*
X99047300Y-57505600D01*
X99047300Y-57505600D02*
X99809300Y-57658000D01*
X103505000Y-65087500D02*
X103593900Y-65024000D01*
X104182905Y-56459395D02*
X104077873Y-56335827D01*
X103825813Y-55952887D02*
X103746300Y-55803800D01*
X104077873Y-56335827D02*
X103825813Y-55952887D01*
X106997500Y-57190000D02*
X105952422Y-57179078D01*
X105255060Y-57089040D02*
X105051860Y-57038240D01*
X105952422Y-57179078D02*
X105255060Y-57089040D01*
X104635300Y-56845200D02*
X104492425Y-56759475D01*
X104635300Y-56845200D02*
X105051860Y-57038240D01*
X104182905Y-56459395D02*
X104492425Y-56759475D01*
X103746300Y-55803800D02*
X103505000Y-54927500D01*
X110581306Y-54739406D02*
X110011276Y-55490176D01*
X109456514Y-56103814D02*
X108979804Y-56516104D01*
X109456514Y-56103814D02*
X110011276Y-55490176D01*
X108494146Y-56821754D02*
X108979804Y-56516104D01*
X107930399Y-57016099D02*
X108494146Y-56821754D01*
X107930399Y-57016099D02*
X106997500Y-57190000D01*
X112470046Y-52360946D02*
X111765773Y-53206073D01*
X111765773Y-53206073D02*
X110581306Y-54739406D01*
X105182714Y-65952414D02*
X104763760Y-66574860D01*
X104251432Y-67662732D02*
X104014843Y-68315143D01*
X104763760Y-66574860D02*
X104251432Y-67662732D01*
X106997500Y-64972500D02*
X106330968Y-65106332D01*
X105896653Y-65294753D02*
X105684806Y-65438506D01*
X106330968Y-65106332D02*
X105896653Y-65294753D01*
X105684806Y-65438506D02*
X105182714Y-65952414D01*
X103594941Y-69673241D02*
X103187500Y-71882000D01*
X104014843Y-68315143D02*
X103594941Y-69673241D01*
X98798490Y-82544810D02*
X98753488Y-82637188D01*
X99785160Y-80824060D02*
X100322307Y-80015007D01*
X98798490Y-82544810D02*
X99785160Y-80824060D01*
X100322307Y-80015007D02*
X100439803Y-79853103D01*
X101264597Y-78722097D02*
X101532356Y-78304056D01*
X100537267Y-79747367D02*
X100439803Y-79853103D01*
X100537267Y-79747367D02*
X101264597Y-78722097D01*
X101532356Y-78304056D02*
X102141524Y-77008224D01*
X102141524Y-77008224D02*
X102727650Y-75155950D01*
X102908100Y-74244200D02*
X102727650Y-75155950D01*
X103187500Y-71882000D02*
X102908100Y-74244200D01*
X106514900Y-67056000D02*
X106308525Y-67484625D01*
X106308525Y-67484625D02*
X106077327Y-68421827D01*
X106077327Y-68421827D02*
X105956100Y-69189600D01*
X105956100Y-69189600D02*
X105764305Y-72172805D01*
X106997500Y-66472500D02*
X106514900Y-67056000D01*
X107683300Y-66217800D02*
X106997500Y-66472500D01*
X108419900Y-65913000D02*
X107683300Y-66217800D01*
X109293187Y-65605187D02*
X108419900Y-65913000D01*
X115742465Y-49207165D02*
X115266719Y-49518819D01*
X114431756Y-50249144D02*
X112470046Y-52360946D01*
X115266719Y-49518819D02*
X114431756Y-50249144D01*
X117701380Y-48346680D02*
X116676573Y-48744273D01*
X115742465Y-49207165D02*
X116676573Y-48744273D01*
D22*
X190485964Y-62203264D02*
X190266531Y-62542631D01*
X190266531Y-62542631D02*
X189801500Y-63436500D01*
X189475174Y-64113474D02*
X189322934Y-64367634D01*
X189475174Y-64113474D02*
X189801500Y-63436500D01*
X167275000Y-106680000D02*
X167268282Y-107616382D01*
X167470762Y-108309738D02*
X167662841Y-108676459D01*
X167268282Y-107616382D02*
X167470762Y-108309738D01*
X168986746Y-109968754D02*
X168273909Y-109436991D01*
X167662841Y-108676459D02*
X168273909Y-109436991D01*
X168986746Y-109968754D02*
X169735643Y-110337457D01*
X169735643Y-110337457D02*
X171173960Y-110912460D01*
X171173960Y-110912460D02*
X174087684Y-112056016D01*
X177142140Y-102936040D02*
X177800000Y-103124000D01*
X176136300Y-102870000D02*
X176669700Y-102870000D01*
X177142140Y-102936040D02*
X176669700Y-102870000D01*
X177262053Y-105554247D02*
X177835905Y-105742395D01*
X174625000Y-105410000D02*
X176060100Y-105410000D01*
X177262053Y-105554247D02*
X176060100Y-105410000D01*
X178742561Y-106359739D02*
X179212184Y-106918816D01*
X177835905Y-105742395D02*
X178742561Y-106359739D01*
X174625000Y-110490000D02*
X174625000Y-107950000D01*
X175260000Y-102870000D02*
X176136300Y-102870000D01*
X176136300Y-102870000D02*
X174625000Y-102870000D01*
X184175400Y-120307100D02*
X183515000Y-119380000D01*
X186690000Y-120650000D02*
X185394600Y-120662700D01*
X187325000Y-55880000D02*
X187628142Y-54608342D01*
X187628142Y-54608342D02*
X187963185Y-54130585D01*
X187963185Y-54130585D02*
X188345856Y-53776656D01*
X194348100Y-54559200D02*
X194665485Y-55168915D01*
X194855547Y-55778953D02*
X194945000Y-56832500D01*
X194665485Y-55168915D02*
X194855547Y-55778953D01*
X193999944Y-54234256D02*
X194348100Y-54559200D01*
X193999944Y-54234256D02*
X193199774Y-53713626D01*
X188345856Y-53776656D02*
X188858339Y-53577939D01*
X189569326Y-53399926D02*
X190817500Y-53289200D01*
X188858339Y-53577939D02*
X189569326Y-53399926D01*
X124139353Y-92122653D02*
X123809270Y-92897470D01*
X114685868Y-85412368D02*
X115361771Y-85377071D01*
X115361771Y-85377071D02*
X116768751Y-85427949D01*
X116768751Y-85427949D02*
X117127365Y-85501135D01*
X113473617Y-85736817D02*
X113914911Y-85568511D01*
X111701555Y-91663545D02*
X112087610Y-92268090D01*
X111184267Y-90402833D02*
X111701555Y-91663545D01*
X115570000Y-101600000D02*
X115915114Y-99455914D01*
D23*
X131650761Y-103045239D02*
X131791404Y-104492096D01*
X133062858Y-107792642D02*
X133286500Y-108013500D01*
X132010121Y-106381521D02*
X132414736Y-107005664D01*
X133062858Y-107792642D02*
X132414736Y-107005664D01*
X131809394Y-105299606D02*
X131877437Y-105764963D01*
X132010121Y-106381521D02*
X131877437Y-105764963D01*
D24*
X136921413Y-100612113D02*
X137382250Y-100107750D01*
X136366739Y-101429039D02*
X136048750Y-102266750D01*
X136921413Y-100612113D02*
X136366739Y-101429039D01*
X139022993Y-97709893D02*
X139065000Y-97205800D01*
X138430000Y-99060000D02*
X139022993Y-97709893D01*
X138912600Y-96393000D02*
X138316471Y-95058729D01*
X135061308Y-90795492D02*
X136244928Y-92088372D01*
X138316471Y-95058729D02*
X136244928Y-92088372D01*
X139065000Y-97205800D02*
X138912600Y-96393000D01*
D23*
X121904760Y-88242140D02*
X122141938Y-89490862D01*
X122141938Y-89490862D02*
X122237500Y-91480000D01*
D22*
X120337490Y-88310810D02*
X120533997Y-89346203D01*
X120518154Y-89961954D02*
X120429341Y-90457341D01*
X120533997Y-89346203D02*
X120518154Y-89961954D01*
X120043748Y-87601252D02*
X120337490Y-88310810D01*
X113914911Y-85568511D02*
X114685868Y-85412368D01*
X112822424Y-93108076D02*
X112087610Y-92268090D01*
X122142250Y-85312250D02*
X121062750Y-84232750D01*
X123644356Y-88255144D02*
X122871180Y-86488320D01*
X122142250Y-85312250D02*
X122871180Y-86488320D01*
D24*
X158940500Y-99110800D02*
X159238950Y-98812350D01*
X159626300Y-98196400D02*
X159829500Y-97536000D01*
X159238950Y-98812350D02*
X159626300Y-98196400D01*
D23*
X143747644Y-85581644D02*
X144754929Y-85737371D01*
X144754929Y-85737371D02*
X145804891Y-86059009D01*
X164830163Y-90516037D02*
X163195000Y-88900000D01*
X166306500Y-92481400D02*
X165698394Y-91552806D01*
X164830163Y-90516037D02*
X165698394Y-91552806D01*
D24*
X158470600Y-99390200D02*
X158940500Y-99110800D01*
X158000700Y-99504500D02*
X158470600Y-99390200D01*
X157289500Y-99441000D02*
X158000700Y-99504500D01*
X156210000Y-99060000D02*
X157289500Y-99441000D01*
X155350308Y-98395692D02*
X156210000Y-99060000D01*
X154694665Y-97628935D02*
X153962100Y-96672400D01*
X155350308Y-98395692D02*
X154694665Y-97628935D01*
X152655989Y-95565511D02*
X151739600Y-95046800D01*
X153962100Y-96672400D02*
X153488771Y-96205929D01*
X152655989Y-95565511D02*
X153488771Y-96205929D01*
X149517100Y-94348300D02*
X148994519Y-94172381D01*
X147756816Y-93479684D02*
X147193000Y-92964000D01*
X147756816Y-93479684D02*
X148994519Y-94172381D01*
X150558500Y-94602300D02*
X149517100Y-94348300D01*
X151739600Y-95046800D02*
X150558500Y-94602300D01*
D23*
X165735000Y-88900000D02*
X164966060Y-88081440D01*
X164303913Y-87613287D02*
X163769649Y-87309351D01*
X164966060Y-88081440D02*
X164303913Y-87613287D01*
X153441018Y-84429982D02*
X154470022Y-85013878D01*
X159296100Y-86791800D02*
X157759400Y-86169500D01*
X161733459Y-88075541D02*
X159296100Y-86791800D01*
D24*
X118745000Y-99060000D02*
X119221250Y-99917250D01*
X119221250Y-99917250D02*
X119761000Y-100584000D01*
X135061308Y-90795492D02*
X134194383Y-90100317D01*
X137382250Y-100107750D02*
X138430000Y-99060000D01*
D23*
X133094327Y-96340527D02*
X132080000Y-96480000D01*
X133094327Y-96340527D02*
X133997700Y-96062800D01*
X134861300Y-95910400D02*
X133997700Y-96062800D01*
X135445500Y-95961200D02*
X134861300Y-95910400D01*
X136042400Y-96215200D02*
X135445500Y-95961200D01*
X136436100Y-96710500D02*
X136042400Y-96215200D01*
X136537700Y-97396300D02*
X136436100Y-96710500D01*
X136461500Y-98082100D02*
X136537700Y-97396300D01*
X135890000Y-99060000D02*
X136461500Y-98082100D01*
X134108428Y-105286572D02*
X134020177Y-103558723D01*
X134302500Y-101600000D02*
X134208520Y-101975920D01*
X134020177Y-103558723D02*
X134208520Y-101975920D01*
X134270354Y-105848546D02*
X134108428Y-105286572D01*
X134838603Y-106778897D02*
X134270354Y-105848546D01*
X135550540Y-107425860D02*
X134838603Y-106778897D01*
X135550540Y-107425860D02*
X136969500Y-108204000D01*
X134937500Y-100330000D02*
X134302500Y-101600000D01*
X135890000Y-99060000D02*
X134937500Y-100330000D01*
X118509983Y-48151983D02*
X118908484Y-48096516D01*
X123507500Y-47942500D02*
X121285000Y-47942500D01*
X118908484Y-48096516D02*
X121285000Y-47942500D01*
D24*
X117821676Y-49749676D02*
X117286217Y-49976217D01*
X116498077Y-50458077D02*
X117286217Y-49976217D01*
D23*
X124179975Y-50762525D02*
X121539000Y-50673000D01*
X118912890Y-50967890D02*
X119452213Y-50872213D01*
X121539000Y-50673000D02*
X121080161Y-50687339D01*
X119452213Y-50872213D02*
X121080161Y-50687339D01*
X117886656Y-51338656D02*
X118912890Y-50967890D01*
X117403260Y-51680760D02*
X117096230Y-52008730D01*
X116487145Y-52987145D02*
X116355395Y-53299895D01*
X117096230Y-52008730D02*
X116487145Y-52987145D01*
X117886656Y-51338656D02*
X117403260Y-51680760D01*
D24*
X172076962Y-78678622D02*
X171881800Y-79242920D01*
X172617760Y-77675100D02*
X172076962Y-78678622D01*
X171881800Y-79242920D02*
X171450000Y-81280000D01*
D22*
X182377858Y-124065522D02*
X182279990Y-122964510D01*
X173541356Y-116318364D02*
X173882518Y-116787462D01*
X173882518Y-116787462D02*
X174426880Y-117955060D01*
X174625000Y-118841520D02*
X174625000Y-120650000D01*
X174426880Y-117955060D02*
X174625000Y-118841520D01*
D24*
X163740353Y-107796853D02*
X163764931Y-107702051D01*
D23*
X162929704Y-105248844D02*
X162623500Y-106235500D01*
X164051208Y-103390928D02*
X163589138Y-103835638D01*
X165174670Y-102640390D02*
X164051208Y-103390928D01*
X161449961Y-60543499D02*
X160733212Y-59771808D01*
X159707966Y-58881894D02*
X159216735Y-58524765D01*
X160733212Y-59771808D02*
X159707966Y-58881894D01*
X161925000Y-61277500D02*
X161449961Y-60543499D01*
D24*
X165656260Y-59311540D02*
X165735000Y-57150000D01*
X165371780Y-60805060D02*
X165656260Y-59311540D01*
X164800280Y-62966600D02*
X165371780Y-60805060D01*
X163845240Y-65288160D02*
X164800280Y-62966600D01*
X162542220Y-67607180D02*
X163845240Y-65288160D01*
X161395453Y-69391487D02*
X162542220Y-67607180D01*
X159798549Y-81424309D02*
X159428180Y-79494380D01*
D23*
X158184428Y-74819088D02*
X158629837Y-72404457D01*
X158880946Y-71169666D02*
X158629837Y-72404457D01*
D24*
X137237403Y-72688517D02*
X137220960Y-71379080D01*
X137731500Y-76009500D02*
X137540922Y-75059618D01*
X137237403Y-72688517D02*
X137540922Y-75059618D01*
X138315954Y-78122526D02*
X137731500Y-76009500D01*
X138315954Y-78122526D02*
X138936395Y-79597585D01*
X142520326Y-82289994D02*
X143601409Y-82585591D01*
X141256891Y-81884649D02*
X140751516Y-81625484D01*
X141256891Y-81884649D02*
X142520326Y-82289994D01*
D23*
X144653000Y-81280000D02*
X144265650Y-81202530D01*
X142956133Y-80795007D02*
X144265650Y-81202530D01*
X141037945Y-79403575D02*
X140382625Y-78311375D01*
D22*
X140505180Y-69603620D02*
X140970000Y-67310000D01*
D23*
X139777355Y-76694145D02*
X138917680Y-73682860D01*
X138785600Y-69842380D02*
X139227278Y-67091278D01*
D24*
X137248900Y-69631560D02*
X137668000Y-66738500D01*
X137220960Y-71379080D02*
X137248900Y-69631560D01*
D22*
X134422542Y-65652042D02*
X134658462Y-67701522D01*
X133604000Y-72771000D02*
X133811591Y-72313111D01*
D24*
X136758543Y-60533143D02*
X136485483Y-60856983D01*
D22*
X135890000Y-55880000D02*
X135489611Y-57727511D01*
X135489611Y-57727511D02*
X134833221Y-59413279D01*
D23*
X156781500Y-54292500D02*
X157861000Y-55562500D01*
D24*
X151778919Y-65622221D02*
X151447500Y-64770000D01*
X152537152Y-66601348D02*
X152143917Y-66181783D01*
X151778919Y-65622221D02*
X152143917Y-66181783D01*
X154971750Y-66960750D02*
X154819350Y-67011550D01*
X154222147Y-67105833D02*
X153693395Y-67079395D01*
X154819350Y-67011550D02*
X154222147Y-67105833D01*
X156763509Y-64434509D02*
X156671307Y-64845227D01*
X156323454Y-65734354D02*
X156146500Y-66040000D01*
X156671307Y-64845227D02*
X156323454Y-65734354D01*
D23*
X159067500Y-61087000D02*
X158722271Y-60840409D01*
X158044952Y-60524588D02*
X157678402Y-60405998D01*
X158722271Y-60840409D02*
X158044952Y-60524588D01*
X157678402Y-60405998D02*
X156337000Y-60134500D01*
X162124814Y-61677126D02*
X161925000Y-61277500D01*
X162347088Y-62696912D02*
X162327067Y-62376573D01*
X162124814Y-61677126D02*
X162327067Y-62376573D01*
D22*
X182245000Y-54556660D02*
X182245000Y-55880000D01*
X168478200Y-54729380D02*
X168741164Y-56023436D01*
D23*
X158880946Y-71169666D02*
X159463740Y-69603620D01*
X161027872Y-66588132D02*
X161480500Y-65532000D01*
X159463740Y-69603620D02*
X161027872Y-66588132D01*
X163092130Y-87034370D02*
X162539705Y-86824795D01*
X163769649Y-87309351D02*
X163092130Y-87034370D01*
X161480500Y-65532000D02*
X162224357Y-63418357D01*
X162224357Y-63418357D02*
X162347088Y-62696912D01*
X159216735Y-58524765D02*
X156845000Y-57190000D01*
D24*
X173392858Y-73766438D02*
X172899615Y-74220615D01*
X174229860Y-72721640D02*
X173392858Y-73766438D01*
D22*
X180617070Y-74800250D02*
X179475264Y-73653516D01*
X177965553Y-70700447D02*
X178473825Y-71909215D01*
X179475264Y-73653516D02*
X178473825Y-71909215D01*
X180617070Y-74800250D02*
X182562500Y-76200000D01*
X190473868Y-73837068D02*
X190786501Y-73550261D01*
X187882564Y-75180224D02*
X188880861Y-74804381D01*
X190473868Y-73837068D02*
X188880861Y-74804381D01*
X187882564Y-75180224D02*
X187642500Y-75247500D01*
X192901507Y-70496367D02*
X193664052Y-68696052D01*
X198122321Y-70451761D02*
X200342500Y-67310000D01*
X196977761Y-72604121D02*
X196715063Y-73207563D01*
X198122321Y-70451761D02*
X196977761Y-72604121D01*
X185118807Y-133335827D02*
X185483500Y-133223000D01*
X183515000Y-133350000D02*
X185118807Y-133335827D01*
X136362440Y-135897620D02*
X135890000Y-137160000D01*
X136728200Y-134112000D02*
X136362440Y-135897620D01*
X136728200Y-131640580D02*
X136728200Y-134112000D01*
X136499600Y-129720340D02*
X136728200Y-131640580D01*
X135890000Y-127635000D02*
X136499600Y-129720340D01*
X124347514Y-126820386D02*
X124688960Y-127914040D01*
X121999334Y-126926934D02*
X122543519Y-127080061D01*
X122543519Y-127080061D02*
X123094750Y-127603250D01*
X121520374Y-127164254D02*
X121999334Y-126926934D01*
X120967500Y-128270000D02*
X121520374Y-127164254D01*
X123239695Y-128347305D02*
X123190000Y-129540000D01*
X123239695Y-128347305D02*
X123094750Y-127603250D01*
X132431118Y-130395382D02*
X133350000Y-132080000D01*
X132431118Y-130395382D02*
X132125357Y-129494643D01*
X132080000Y-129222500D02*
X132125357Y-129494643D01*
X125539500Y-129476500D02*
X125985764Y-129728736D01*
X125985764Y-129728736D02*
X127042334Y-130069166D01*
X127042334Y-130069166D02*
X127635000Y-130111500D01*
X124846526Y-128391474D02*
X125163870Y-129052030D01*
X124688960Y-127914040D02*
X124846526Y-128391474D01*
X113347500Y-128270000D02*
X114236500Y-126873000D01*
X163666923Y-47026077D02*
X164704540Y-47039040D01*
X130048000Y-86233000D02*
X129088445Y-86176555D01*
X126174500Y-85915500D02*
X129088445Y-86176555D01*
X126492000Y-81089500D02*
X126492000Y-82931000D01*
X126340809Y-84684809D02*
X126174500Y-85915500D01*
X126492000Y-82931000D02*
X126340809Y-84684809D01*
X126174500Y-85915500D02*
X125730000Y-88900000D01*
X126365000Y-79375000D02*
X126492000Y-81089500D01*
X126301500Y-78041500D02*
X126365000Y-79375000D01*
X126682500Y-77216000D02*
X126301500Y-78041500D01*
X127635000Y-76708000D02*
X126682500Y-77216000D01*
X128714500Y-76644500D02*
X127635000Y-76708000D01*
X129540000Y-76755000D02*
X128714500Y-76644500D01*
X132334000Y-79121000D02*
X129540000Y-76755000D01*
X134620000Y-80899000D02*
X132334000Y-79121000D01*
X137414000Y-82423000D02*
X134620000Y-80899000D01*
X140335000Y-83502500D02*
X137414000Y-82423000D01*
X144377833Y-84222167D02*
X140335000Y-83502500D01*
D23*
X108775500Y-68199000D02*
X109141259Y-67878959D01*
X109751361Y-67473061D02*
X109141259Y-67878959D01*
X108251625Y-69072125D02*
X108775500Y-68199000D01*
X108251625Y-69072125D02*
X107878746Y-70137154D01*
X115923291Y-66786991D02*
X114929227Y-66859727D01*
X117970300Y-65684400D02*
X118427500Y-64770000D01*
D22*
X176477320Y-115940180D02*
X177165000Y-117475000D01*
X176477320Y-115940180D02*
X175950034Y-115146666D01*
X119388056Y-125064956D02*
X117536149Y-125351351D01*
X121272789Y-125018311D02*
X120689687Y-124994987D01*
X119388056Y-125064956D02*
X120689687Y-124994987D01*
X123511129Y-125827971D02*
X122872500Y-125349000D01*
X123511129Y-125827971D02*
X124108028Y-126450272D01*
X124347514Y-126820386D02*
X124108028Y-126450272D01*
X122872500Y-125349000D02*
X122059700Y-125145800D01*
X121272789Y-125018311D02*
X122059700Y-125145800D01*
X125163870Y-129052030D02*
X125476000Y-129413000D01*
X129286000Y-129794000D02*
X129159000Y-129921000D01*
X129540000Y-127635000D02*
X129540000Y-129171700D01*
X129540000Y-129171700D02*
X129286000Y-129794000D01*
X132461000Y-123825000D02*
X133237112Y-124283612D01*
X134251700Y-125044200D02*
X134759700Y-125552200D01*
X133237112Y-124283612D02*
X134251700Y-125044200D01*
X134759700Y-125552200D02*
X135542215Y-126852485D01*
X135542215Y-126852485D02*
X135890000Y-127635000D01*
D23*
X118046500Y-118046500D02*
X117888124Y-117531776D01*
D22*
X113347500Y-120650000D02*
X113030000Y-118110000D01*
X113982500Y-121920000D02*
X113347500Y-120650000D01*
D23*
X115443000Y-118618000D02*
X115887500Y-120650000D01*
X118046500Y-118046500D02*
X118427500Y-120650000D01*
D24*
X143707170Y-96830830D02*
X143917574Y-97496726D01*
X143917574Y-97496726D02*
X144041195Y-98287505D01*
X144068867Y-98755133D02*
X144041195Y-98287505D01*
D23*
X141794139Y-96978561D02*
X142007099Y-97324401D01*
X142303500Y-98171000D02*
X142234227Y-97859273D01*
X142007099Y-97324401D02*
X142234227Y-97859273D01*
X141093885Y-96104015D02*
X140670231Y-95664069D01*
X141794139Y-96978561D02*
X141093885Y-96104015D01*
X139934111Y-94774589D02*
X139153900Y-93675200D01*
X139934111Y-94774589D02*
X140670231Y-95664069D01*
X138384643Y-91802857D02*
X138303000Y-91313000D01*
X139153900Y-93675200D02*
X138835291Y-93028609D01*
X138384643Y-91802857D02*
X138835291Y-93028609D01*
X155956000Y-121094500D02*
X152713051Y-121365649D01*
X152713051Y-121365649D02*
X148533244Y-121583056D01*
X160141879Y-119131121D02*
X159882971Y-119433471D01*
X159188426Y-120008926D02*
X158382807Y-120509193D01*
X159882971Y-119433471D02*
X159188426Y-120008926D01*
X160394649Y-120910349D02*
X161035999Y-120268999D01*
X159427718Y-121569018D02*
X159258001Y-121665999D01*
X160394649Y-120910349D02*
X159427718Y-121569018D01*
X161035999Y-120268999D02*
X161477785Y-119453485D01*
D24*
X161480499Y-121729499D02*
X161982150Y-121227850D01*
X162649669Y-120269769D02*
X161982150Y-121227850D01*
D23*
X157870071Y-116132429D02*
X157498954Y-116592254D01*
X157498954Y-116592254D02*
X156953324Y-117011824D01*
X157870071Y-116132429D02*
X158030008Y-115599308D01*
X158030008Y-115599308D02*
X158115000Y-114554000D01*
X143102263Y-113348837D02*
X142748000Y-113030000D01*
X144589500Y-113982500D02*
X143828476Y-113742176D01*
X143102263Y-113348837D02*
X143828476Y-113742176D01*
X142748000Y-113030000D02*
X142420109Y-112456191D01*
D24*
X143740171Y-109815329D02*
X143576430Y-109420270D01*
X143132706Y-108746394D02*
X142367000Y-108013500D01*
X143576430Y-109420270D02*
X143132706Y-108746394D01*
D23*
X146050000Y-110490000D02*
X145710199Y-108861301D01*
X145710199Y-108861301D02*
X145329427Y-107921273D01*
X145329427Y-107921273D02*
X144739549Y-107037951D01*
X144739549Y-107037951D02*
X144272000Y-106616500D01*
D24*
X148931587Y-99289913D02*
X149305950Y-99423550D01*
X143383000Y-93535500D02*
X143925953Y-94033947D01*
X143925953Y-94033947D02*
X144641839Y-94892861D01*
X144641839Y-94892861D02*
X144913350Y-95307150D01*
X133237814Y-89393186D02*
X133552978Y-89573322D01*
X133552978Y-89573322D02*
X134194383Y-90100317D01*
D23*
X130380583Y-91556683D02*
X130850000Y-91480000D01*
X129146490Y-92189490D02*
X129561578Y-91906078D01*
X130380583Y-91556683D02*
X129561578Y-91906078D01*
X128938491Y-92451391D02*
X129146490Y-92189490D01*
X128938491Y-92451391D02*
X128349375Y-93805375D01*
X121717985Y-94804315D02*
X123124159Y-94934841D01*
X120823611Y-94631889D02*
X121717985Y-94804315D01*
X119440739Y-93576361D02*
X119109435Y-92891665D01*
D22*
X120494665Y-92370035D02*
X120722696Y-92764304D01*
X120281638Y-91414662D02*
X120494665Y-92370035D01*
D23*
X118691992Y-91886708D02*
X118634565Y-91613935D01*
X118691992Y-91886708D02*
X119109435Y-92891665D01*
D24*
X118168005Y-95191995D02*
X118549073Y-96601627D01*
X118549073Y-96601627D02*
X118703090Y-97760790D01*
X118703090Y-97760790D02*
X118745000Y-99060000D01*
D23*
X114300000Y-97917000D02*
X114272060Y-97525840D01*
X110326349Y-103541651D02*
X110367840Y-104411540D01*
X110298197Y-105258903D02*
X110248700Y-105549700D01*
X110367840Y-104411540D02*
X110298197Y-105258903D01*
X108338584Y-103154516D02*
X108728562Y-103932938D01*
X108728562Y-103932938D02*
X108868912Y-104503788D01*
X108868912Y-104503788D02*
X108908746Y-104908246D01*
D22*
X121062750Y-84232750D02*
X120465347Y-83814153D01*
X121253723Y-93185777D02*
X121793000Y-93345000D01*
X120722696Y-92764304D02*
X121253723Y-93185777D01*
X118057550Y-85840950D02*
X118761580Y-86216420D01*
X113895561Y-94066939D02*
X112822424Y-93108076D01*
X121793000Y-93345000D02*
X122351800Y-93421200D01*
X116039900Y-80772000D02*
X115633500Y-79146400D01*
X117127365Y-85501135D02*
X118057550Y-85840950D01*
X128016000Y-75184000D02*
X129413000Y-75184000D01*
X131953000Y-74549000D02*
X132599043Y-74052043D01*
X132599043Y-74052043D02*
X132778500Y-73914000D01*
D24*
X150941395Y-100937705D02*
X151032029Y-101253471D01*
X151032029Y-101253471D02*
X151130000Y-102870000D01*
X136017000Y-104013000D02*
X135981320Y-103299380D01*
X136048750Y-102266750D02*
X135981320Y-103299380D01*
D23*
X138890859Y-100854359D02*
X138516778Y-101119522D01*
X138516778Y-101119522D02*
X137985500Y-101663500D01*
X138194142Y-104388558D02*
X137795000Y-103949500D01*
X139763500Y-105092500D02*
X139011025Y-104841675D01*
X138194142Y-104388558D02*
X139011025Y-104841675D01*
D24*
X138391900Y-106426000D02*
X137902950Y-106203750D01*
X137131778Y-105755722D02*
X136793112Y-105484788D01*
X137131778Y-105755722D02*
X137902950Y-106203750D01*
X136348666Y-104913234D02*
X136017000Y-104013000D01*
X136348666Y-104913234D02*
X136793112Y-105484788D01*
D23*
X120650000Y-109220000D02*
X120705197Y-107840097D01*
X128830387Y-108062713D02*
X129438540Y-109309040D01*
D22*
X115266429Y-105754129D02*
X115379500Y-105283000D01*
X114457369Y-107218369D02*
X114894525Y-106652225D01*
X115266429Y-105754129D02*
X114894525Y-106652225D01*
X159385000Y-128000000D02*
X160751753Y-128046247D01*
X167241048Y-130855548D02*
X168309636Y-131035136D01*
X175408166Y-130005666D02*
X175786143Y-129748643D01*
X175408166Y-130005666D02*
X173891223Y-130718277D01*
X176606200Y-128955800D02*
X177165000Y-127635000D01*
X176606200Y-128955800D02*
X175786143Y-129748643D01*
X170434000Y-131191000D02*
X172271266Y-131059766D01*
X173891223Y-130718277D02*
X172271266Y-131059766D01*
X168309636Y-131035136D02*
X169164000Y-131127500D01*
X169164000Y-131127500D02*
X170434000Y-131191000D01*
D23*
X109804445Y-65455555D02*
X109293187Y-65605187D01*
X111125000Y-65278000D02*
X109804445Y-65455555D01*
X115570000Y-60325000D02*
X115316000Y-61785500D01*
X115316000Y-61785500D02*
X114871500Y-62928500D01*
X114871500Y-62928500D02*
X114300000Y-63817500D01*
X115887500Y-54610000D02*
X115570000Y-60325000D01*
X114300000Y-63817500D02*
X113347500Y-64770000D01*
X112458500Y-65151000D02*
X113347500Y-64770000D01*
X117882737Y-59526237D02*
X117983000Y-58864500D01*
X117983000Y-58864500D02*
X118300500Y-56642000D01*
X115887500Y-64770000D02*
X116713000Y-63182500D01*
D24*
X120713500Y-49276000D02*
X119543763Y-49376263D01*
X117821676Y-49749676D02*
X119543763Y-49376263D01*
X114517714Y-52795714D02*
X114109500Y-53340000D01*
X123626094Y-49267594D02*
X120713500Y-49276000D01*
X146685000Y-59690000D02*
X147574000Y-59690000D01*
X148399500Y-59817000D02*
X149034500Y-59944000D01*
X147574000Y-59690000D02*
X148399500Y-59817000D01*
X149034500Y-59944000D02*
X149776961Y-60217539D01*
X151082375Y-61579125D02*
X151241125Y-62055375D01*
X151447500Y-62992000D02*
X151447500Y-64770000D01*
X151447500Y-62992000D02*
X151241125Y-62055375D01*
X140779500Y-59563000D02*
X138677405Y-59746905D01*
X141922500Y-59499500D02*
X140779500Y-59563000D01*
X146685000Y-59690000D02*
X145224500Y-59690000D01*
D22*
X149412960Y-80832960D02*
X150438255Y-81146245D01*
X151602586Y-81632914D02*
X153098500Y-82359500D01*
X150438255Y-81146245D02*
X151602586Y-81632914D01*
D23*
X145484548Y-81413048D02*
X148127630Y-82059870D01*
X150311181Y-82797319D02*
X151793553Y-83473947D01*
X148127630Y-82059870D02*
X150311181Y-82797319D01*
D24*
X143601409Y-82585591D02*
X146523158Y-83156342D01*
X149722940Y-84274560D02*
X148477022Y-83770522D01*
X146523158Y-83156342D02*
X148477022Y-83770522D01*
D23*
X142905788Y-85565288D02*
X143747644Y-85581644D01*
X149669500Y-90043000D02*
X149860000Y-91480000D01*
X162198050Y-110382050D02*
X162179000Y-110553500D01*
X162198050Y-110382050D02*
X162433000Y-107505500D01*
D24*
X163439593Y-111451907D02*
X163485639Y-109881861D01*
X163740353Y-107796853D02*
X163485639Y-109881861D01*
D22*
X179921776Y-107987224D02*
X180138552Y-108468948D01*
X180293596Y-109237096D02*
X180340000Y-110490000D01*
X180138552Y-108468948D02*
X180293596Y-109237096D01*
X179212184Y-106918816D02*
X179921776Y-107987224D01*
X179959000Y-104775000D02*
X180890334Y-105875666D01*
X181602530Y-107053530D02*
X182054500Y-108204000D01*
X180890334Y-105875666D02*
X181602530Y-107053530D01*
X192091497Y-123574997D02*
X189650687Y-123721813D01*
X188531500Y-123698000D02*
X189650687Y-123721813D01*
X123190000Y-142240000D02*
X122092358Y-141242142D01*
X120011681Y-140522181D02*
X118760328Y-140477328D01*
X118760328Y-140477328D02*
X118287362Y-140575862D01*
X117504500Y-131860000D02*
X117565313Y-132805313D01*
X117467363Y-134294863D02*
X117269253Y-135303253D01*
X117565313Y-132805313D02*
X117467363Y-134294863D01*
D23*
X107378500Y-129603500D02*
X107272667Y-130132667D01*
X107039834Y-130788834D02*
X107272667Y-130132667D01*
X102144363Y-96610637D02*
X103187500Y-96480000D01*
X102144363Y-96610637D02*
X101312869Y-96994869D01*
X101312869Y-96994869D02*
X100761800Y-97523300D01*
X100457000Y-97980500D02*
X100761800Y-97523300D01*
X108597700Y-97015300D02*
X108886625Y-97170875D01*
X109133821Y-97431679D02*
X109283500Y-97980500D01*
X108886625Y-97170875D02*
X109133821Y-97431679D01*
X106339409Y-97449409D02*
X106512590Y-97241590D01*
X106045000Y-99060000D02*
X106094069Y-98029569D01*
X106339409Y-97449409D02*
X106094069Y-98029569D01*
X107119616Y-96896116D02*
X107442000Y-96837500D01*
X107119616Y-96896116D02*
X106512590Y-97241590D01*
X107442000Y-96837500D02*
X107886500Y-96837500D01*
X108597700Y-97015300D02*
X107886500Y-96837500D01*
D24*
X131318000Y-88646000D02*
X131949110Y-88776890D01*
X131949110Y-88776890D02*
X133237814Y-89393186D01*
D22*
X171342294Y-67862206D02*
X171142270Y-67236730D01*
X171450000Y-71120000D02*
X171450000Y-69215000D01*
X171342294Y-67862206D02*
X171450000Y-69215000D01*
D24*
X169779769Y-77958769D02*
X169467561Y-78980061D01*
X170751500Y-76200000D02*
X169779769Y-77958769D01*
X171704000Y-75120500D02*
X170751500Y-76200000D01*
X172899615Y-74220615D02*
X171704000Y-75120500D01*
X169467561Y-78980061D02*
X168910000Y-81280000D01*
X175135000Y-71200000D02*
X174229860Y-72721640D01*
D23*
X151793553Y-83473947D02*
X153441018Y-84429982D01*
X163195000Y-88900000D02*
X161733459Y-88075541D01*
X145484548Y-81413048D02*
X144653000Y-81280000D01*
D22*
X148590000Y-80581500D02*
X149412960Y-80832960D01*
X149733000Y-79565500D02*
X149412960Y-80832960D01*
X150177500Y-78613000D02*
X149733000Y-79565500D01*
X151003000Y-77660500D02*
X150177500Y-78613000D01*
X152717500Y-76200000D02*
X151003000Y-77660500D01*
X154749500Y-83248500D02*
X156527500Y-84137500D01*
X153098500Y-82359500D02*
X154749500Y-83248500D01*
X146875500Y-80073500D02*
X148590000Y-80581500D01*
D23*
X139777355Y-76694145D02*
X140382625Y-78311375D01*
D24*
X151300717Y-85109783D02*
X153162000Y-86233000D01*
X149722940Y-84274560D02*
X151300717Y-85109783D01*
X155130500Y-87757000D02*
X156210000Y-88900000D01*
X153162000Y-86233000D02*
X155130500Y-87757000D01*
D22*
X144377833Y-84222167D02*
X146177000Y-84582000D01*
X153035000Y-88900000D02*
X154874158Y-90489842D01*
X157162500Y-92075000D02*
X156823833Y-91863333D01*
X154874158Y-90489842D02*
X156823833Y-91863333D01*
D23*
X163195000Y-88900000D02*
X162649297Y-89941797D01*
X162210750Y-90519250D02*
X161988500Y-90741500D01*
X162649297Y-89941797D02*
X162210750Y-90519250D01*
X161296529Y-91192529D02*
X160020000Y-91480000D01*
X161296529Y-91192529D02*
X161988500Y-90741500D01*
D24*
X117544511Y-94164489D02*
X117975673Y-94812827D01*
X116967000Y-93472000D02*
X117544511Y-94164489D01*
X118168005Y-95191995D02*
X117975673Y-94812827D01*
D23*
X117391702Y-110724202D02*
X116931300Y-111025800D01*
X116931300Y-111025800D02*
X115951000Y-111315500D01*
X115316000Y-111379000D02*
X115951000Y-111315500D01*
X117633750Y-110458250D02*
X117391702Y-110724202D01*
X109680375Y-109458125D02*
X109601000Y-108902500D01*
X110029558Y-110124942D02*
X110331117Y-110458383D01*
X109680375Y-109458125D02*
X110029558Y-110124942D01*
X120280112Y-111072612D02*
X120459500Y-110744000D01*
X117417273Y-112643227D02*
X118067666Y-112543166D01*
X114744500Y-112712500D02*
X116459000Y-112712500D01*
X116459000Y-112712500D02*
X117417273Y-112643227D01*
X123024828Y-60807672D02*
X122783492Y-60795008D01*
X123507500Y-60833000D02*
X123024828Y-60807672D01*
X122999500Y-58610500D02*
X123024828Y-60807672D01*
X122618500Y-57213500D02*
X122999500Y-58610500D01*
X121856500Y-55626000D02*
X122618500Y-57213500D01*
X124051785Y-60869285D02*
X123507500Y-60833000D01*
D22*
X172529500Y-90741500D02*
X172141030Y-89478970D01*
X186960000Y-132397500D02*
X185483500Y-133223000D01*
X182690841Y-117346659D02*
X182219495Y-117703495D01*
X183451177Y-117157177D02*
X182690841Y-117346659D01*
X181673500Y-120142000D02*
X181934757Y-121023743D01*
X181934757Y-121023743D02*
X182279990Y-122964510D01*
X182028522Y-126593022D02*
X181657625Y-127365125D01*
X173355000Y-124015500D02*
X174391674Y-124693326D01*
X174391674Y-124693326D02*
X176212500Y-125476000D01*
X170815000Y-119975000D02*
X171072003Y-121154997D01*
X171771816Y-122487184D02*
X172275500Y-123190000D01*
X171072003Y-121154997D02*
X171771816Y-122487184D01*
X170656826Y-118649174D02*
X170815000Y-119975000D01*
X170470318Y-118314982D02*
X169871526Y-117973974D01*
D23*
X157797500Y-108966000D02*
X157626539Y-108501961D01*
D22*
X150876000Y-115760500D02*
X149498050Y-116160550D01*
X148470938Y-116593938D02*
X147002500Y-117475000D01*
X148470938Y-116593938D02*
X149498050Y-116160550D01*
D23*
X152273000Y-118110000D02*
X150050500Y-118618000D01*
X147106133Y-119149367D02*
X150050500Y-118618000D01*
X140144500Y-113665000D02*
X140548591Y-114594409D01*
X140548591Y-114594409D02*
X141278826Y-115642174D01*
X141278826Y-115642174D02*
X142371101Y-116772399D01*
X143444293Y-117731207D02*
X142371101Y-116772399D01*
X144888062Y-118636938D02*
X145291342Y-118805158D01*
X143444293Y-117731207D02*
X144888062Y-118636938D01*
X139700000Y-111760000D02*
X140144500Y-113665000D01*
X147106133Y-119149367D02*
X146262403Y-119084403D01*
X146262403Y-119084403D02*
X145291342Y-118805158D01*
X150731838Y-111933338D02*
X150441887Y-112405387D01*
X148071840Y-113908840D02*
X147066000Y-114046000D01*
D24*
X147828000Y-99060000D02*
X148931587Y-99289913D01*
X146111429Y-100772429D02*
X145478500Y-100711000D01*
X147461111Y-101141389D02*
X146857057Y-100919943D01*
X146111429Y-100772429D02*
X146857057Y-100919943D01*
X144177831Y-99346831D02*
X144068867Y-98755133D01*
X144415301Y-99869199D02*
X144630649Y-100161851D01*
X144177831Y-99346831D02*
X144415301Y-99869199D01*
X145478500Y-100711000D02*
X145082847Y-100535153D01*
X144630649Y-100161851D02*
X145082847Y-100535153D01*
X140488737Y-92355737D02*
X140610037Y-92815963D01*
X141414500Y-93980000D02*
X141050065Y-93582435D01*
X140610037Y-92815963D02*
X141050065Y-93582435D01*
X142748000Y-95250000D02*
X141414500Y-93980000D01*
X143707170Y-96830830D02*
X143383000Y-96139000D01*
X143383000Y-96139000D02*
X142748000Y-95250000D01*
X144913350Y-95307150D02*
X145542000Y-96774000D01*
X143160750Y-93313250D02*
X143383000Y-93535500D01*
X142240000Y-91821000D02*
X142494000Y-92456000D01*
X143160750Y-93313250D02*
X142494000Y-92456000D01*
X142113000Y-90805000D02*
X142240000Y-91821000D01*
X142240000Y-88900000D02*
X142113000Y-90805000D01*
X141427200Y-87325200D02*
X141220372Y-87499372D01*
X140797573Y-88092573D02*
X140636241Y-88439241D01*
X141220372Y-87499372D02*
X140797573Y-88092573D01*
D23*
X140064067Y-86406567D02*
X139678833Y-86846833D01*
X139223750Y-87471250D02*
X138430000Y-88900000D01*
X139678833Y-86846833D02*
X139223750Y-87471250D01*
X141150731Y-85778731D02*
X140728699Y-85966301D01*
X140728699Y-85966301D02*
X140064067Y-86406567D01*
X142905788Y-85565288D02*
X141821775Y-85635225D01*
X141821775Y-85635225D02*
X141150731Y-85778731D01*
D24*
X144208500Y-86995000D02*
X143284863Y-86902637D01*
X143284863Y-86902637D02*
X142515167Y-86952667D01*
X142515167Y-86952667D02*
X141986000Y-87058500D01*
X141986000Y-87058500D02*
X141427200Y-87325200D01*
X140636241Y-88439241D02*
X140335000Y-89471500D01*
X140243560Y-90705940D02*
X140335000Y-89471500D01*
X140243560Y-90705940D02*
X140318613Y-91646887D01*
X140488737Y-92355737D02*
X140318613Y-91646887D01*
D23*
X138303000Y-91313000D02*
X138430000Y-88900000D01*
X142240000Y-99060000D02*
X142303500Y-98171000D01*
D22*
X116205000Y-104521000D02*
X119392096Y-104572404D01*
X121129136Y-104428636D02*
X123761500Y-104013000D01*
X119392096Y-104572404D02*
X121129136Y-104428636D01*
D23*
X110160685Y-102818315D02*
X110326349Y-103541651D01*
X110160685Y-102818315D02*
X109695511Y-101949989D01*
X109228355Y-101337645D02*
X108140500Y-100457000D01*
X109228355Y-101337645D02*
X109695511Y-101949989D01*
X108908746Y-104908246D02*
X108855423Y-105934423D01*
X109982000Y-106616500D02*
X110248700Y-105549700D01*
X114554000Y-137223500D02*
X114003666Y-138408834D01*
X114003666Y-138408834D02*
X113536557Y-139254057D01*
X113536557Y-139254057D02*
X112522000Y-140589000D01*
D24*
X127109963Y-134510037D02*
X126758700Y-134061200D01*
X127109963Y-134510037D02*
X127901871Y-135305629D01*
X126190887Y-133206613D02*
X125730000Y-132080000D01*
X126190887Y-133206613D02*
X126758700Y-134061200D01*
D22*
X123776154Y-133398846D02*
X123190000Y-132080000D01*
X125603000Y-135636000D02*
X124882563Y-134832437D01*
X123776154Y-133398846D02*
X124882563Y-134832437D01*
D23*
X127855265Y-141702235D02*
X125857000Y-140335000D01*
D22*
X154305000Y-137160000D02*
X157797500Y-137160000D01*
X158800131Y-137210131D02*
X159829500Y-137350500D01*
X158800131Y-137210131D02*
X157797500Y-137160000D01*
X159829500Y-137350500D02*
X161082789Y-138002211D01*
X161776834Y-138578166D02*
X162226625Y-139080875D01*
X161082789Y-138002211D02*
X161776834Y-138578166D01*
X162659483Y-139918017D02*
X162941000Y-140843000D01*
X162226625Y-139080875D02*
X162659483Y-139918017D01*
X183515000Y-143510000D02*
X184716352Y-143441352D01*
X185741453Y-143196453D02*
X186197663Y-143017663D01*
X184716352Y-143441352D02*
X185741453Y-143196453D01*
X186690000Y-123672500D02*
X188531500Y-123698000D01*
X186690000Y-123672500D02*
X186690000Y-120650000D01*
X182880000Y-104775000D02*
X183705500Y-106807000D01*
X181229000Y-102235000D02*
X180784500Y-101917500D01*
X180530500Y-101600000D02*
X180784500Y-101917500D01*
X182880000Y-102552500D02*
X181229000Y-102235000D01*
X186114973Y-100326473D02*
X186616672Y-99431172D01*
X187244567Y-98916067D02*
X186616672Y-99431172D01*
X183578500Y-67945000D02*
X185524913Y-67986413D01*
X185524913Y-67986413D02*
X187529440Y-67804060D01*
X189865000Y-67310000D02*
X187529440Y-67804060D01*
X179705000Y-67945000D02*
X183578500Y-67945000D01*
X167894000Y-65151000D02*
X168225839Y-65962161D01*
X168714615Y-66870385D02*
X169545000Y-67945000D01*
X168225839Y-65962161D02*
X168714615Y-66870385D01*
X167716474Y-63677526D02*
X167894000Y-65151000D01*
X167792400Y-62458600D02*
X167716474Y-63677526D01*
X168275000Y-59690000D02*
X167792400Y-62458600D01*
X200977500Y-106489500D02*
X200977500Y-106045000D01*
X200025000Y-106489500D02*
X200977500Y-106489500D01*
X200977500Y-113665000D02*
X200977500Y-106489500D01*
X199072500Y-106426000D02*
X200025000Y-106489500D01*
X197612000Y-106235500D02*
X199072500Y-106426000D01*
X195897500Y-105747500D02*
X197612000Y-106235500D01*
X193548000Y-49657000D02*
X194119500Y-48641000D01*
X192405000Y-50800000D02*
X193548000Y-49657000D01*
X192405000Y-50800000D02*
X194564000Y-52324000D01*
X171831000Y-55435500D02*
X171450000Y-57190000D01*
X172085000Y-54229000D02*
X171831000Y-55435500D01*
X172529500Y-53276500D02*
X172085000Y-54229000D01*
X173209305Y-52559305D02*
X172529500Y-53276500D01*
X177090615Y-52567115D02*
X176022000Y-52705000D01*
X171450000Y-57190000D02*
X171068335Y-58736835D01*
X171068335Y-58736835D02*
X170688000Y-59753500D01*
X170688000Y-59753500D02*
X169747046Y-61670046D01*
X177380910Y-68224410D02*
X177965553Y-70700447D01*
X177165000Y-64770000D02*
X177165000Y-66865500D01*
X177165000Y-66865500D02*
X177380910Y-68224410D01*
X178577393Y-81231893D02*
X179056632Y-81102868D01*
X176784000Y-81407000D02*
X177355500Y-81407000D01*
X178577393Y-81231893D02*
X177355500Y-81407000D01*
X179861986Y-80801986D02*
X179056632Y-81102868D01*
X182161961Y-78315039D02*
X182308500Y-77787500D01*
X182161961Y-78315039D02*
X181738868Y-79249868D01*
X182308500Y-77787500D02*
X182562500Y-76200000D01*
X164592000Y-72580500D02*
X164859595Y-72884405D01*
X164859595Y-72884405D02*
X165615055Y-73335445D01*
D24*
X153090918Y-66936582D02*
X152537152Y-66601348D01*
X153693395Y-67079395D02*
X153090918Y-66936582D01*
X155660587Y-66570087D02*
X154971750Y-66960750D01*
X156845000Y-63563500D02*
X156763509Y-64434509D01*
X156146500Y-66040000D02*
X155660587Y-66570087D01*
X156845000Y-62190000D02*
X156845000Y-63563500D01*
X151447500Y-54610000D02*
X153987500Y-54610000D01*
D23*
X154114500Y-60134500D02*
X153987500Y-60134500D01*
X153924000Y-61341000D02*
X153987500Y-60134500D01*
X153924000Y-62738000D02*
X153924000Y-61341000D01*
X153987500Y-64770000D02*
X153924000Y-62738000D01*
X159067500Y-61087000D02*
X160337500Y-62190000D01*
X159004000Y-56515000D02*
X160337500Y-57190000D01*
D22*
X126809500Y-136969500D02*
X125603000Y-135636000D01*
D23*
X125857000Y-140335000D02*
X123103776Y-137868524D01*
D22*
X148735686Y-129291986D02*
X148479062Y-129873562D01*
X148117827Y-130972827D02*
X147899407Y-132913407D01*
X148479062Y-129873562D02*
X148117827Y-130972827D01*
X148145500Y-136525000D02*
X147920363Y-135099137D01*
X147899407Y-132913407D02*
X147920363Y-135099137D01*
X167345178Y-73682678D02*
X167685356Y-73705356D01*
X167640000Y-76200000D02*
X167685356Y-73705356D01*
D23*
X122237500Y-72136000D02*
X120140000Y-71200000D01*
X124269500Y-72771000D02*
X122237500Y-72136000D01*
X126746000Y-73342500D02*
X124269500Y-72771000D01*
X128460500Y-73596500D02*
X126746000Y-73342500D01*
X125373947Y-95098053D02*
X123124159Y-94934841D01*
X125373947Y-95098053D02*
X126746000Y-95123000D01*
D24*
X144901227Y-87254773D02*
X144208500Y-86995000D01*
X145605500Y-87884000D02*
X145442214Y-87666286D01*
X144901227Y-87254773D02*
X145442214Y-87666286D01*
D22*
X160591500Y-133731000D02*
X160655000Y-132080000D01*
X160528000Y-134747000D02*
X160591500Y-133731000D01*
X160147000Y-136398000D02*
X160528000Y-134747000D01*
X159829500Y-137350500D02*
X160147000Y-136398000D01*
X162941000Y-140843000D02*
X163195000Y-142240000D01*
X168275000Y-142049500D02*
X166751000Y-140843000D01*
X163385500Y-133477000D02*
X163195000Y-132080000D01*
X132080000Y-119380000D02*
X131837500Y-117717500D01*
X169098631Y-85282369D02*
X170481924Y-86693076D01*
X168421050Y-84880450D02*
X169098631Y-85282369D01*
X168421050Y-84880450D02*
X166687500Y-84137500D01*
D24*
X164084000Y-86169500D02*
X163110334Y-85682666D01*
D22*
X170180000Y-84137500D02*
X169098631Y-85282369D01*
D24*
X146685000Y-54610000D02*
X146558000Y-57912000D01*
X146558000Y-57912000D02*
X146685000Y-59690000D01*
D23*
X126365000Y-63500000D02*
X126174500Y-62103000D01*
X133286500Y-108013500D02*
X133699250Y-108362750D01*
X134211391Y-108866609D02*
X134569200Y-109423200D01*
X133699250Y-108362750D02*
X134211391Y-108866609D01*
X134620000Y-111760000D02*
X134672614Y-109971114D01*
X134569200Y-109423200D02*
X134672614Y-109971114D01*
X131809394Y-105299606D02*
X131791404Y-104492096D01*
X139382500Y-100647500D02*
X138890859Y-100854359D01*
X137668000Y-102425500D02*
X137985500Y-101663500D01*
X137604500Y-103124000D02*
X137668000Y-102425500D01*
X137795000Y-103949500D02*
X137604500Y-103124000D01*
D22*
X139700000Y-102870000D02*
X141254079Y-102519079D01*
X141254079Y-102519079D02*
X143065500Y-102425500D01*
X143065500Y-102425500D02*
X143383000Y-102425500D01*
X128270000Y-102870000D02*
X129540000Y-102870000D01*
D23*
X141478000Y-105410000D02*
X139763500Y-105092500D01*
D24*
X143934962Y-110954038D02*
X143740171Y-109815329D01*
D22*
X178371500Y-59182000D02*
X177113021Y-58905404D01*
X179133500Y-59309000D02*
X178371500Y-59182000D01*
X180340000Y-59563000D02*
X179133500Y-59309000D01*
X181610000Y-59944000D02*
X180340000Y-59563000D01*
X182816500Y-60325000D02*
X181610000Y-59944000D01*
X183642000Y-60706000D02*
X182816500Y-60325000D01*
X184213500Y-61087000D02*
X183642000Y-60706000D01*
X184594500Y-61595000D02*
X184213500Y-61087000D01*
X184785000Y-62166500D02*
X184594500Y-61595000D01*
X184785000Y-63500000D02*
X184785000Y-62166500D01*
D23*
X105473500Y-84328000D02*
X105140000Y-85725000D01*
X105727500Y-82740500D02*
X105473500Y-84328000D01*
X107749012Y-75638988D02*
X107505500Y-73469500D01*
X107950000Y-80200500D02*
X108013500Y-78422500D01*
X107696000Y-82613500D02*
X107950000Y-80200500D01*
X113347500Y-66929000D02*
X111823500Y-66929000D01*
X114929227Y-66859727D02*
X113347500Y-66929000D01*
X105918000Y-75946000D02*
X105727500Y-73850500D01*
X106045000Y-77597000D02*
X105918000Y-75946000D01*
X106045000Y-78930500D02*
X106045000Y-77597000D01*
X105918000Y-80772000D02*
X106045000Y-78930500D01*
X105727500Y-82740500D02*
X105918000Y-80772000D01*
D22*
X104267000Y-139509500D02*
X105283000Y-139382500D01*
X101917500Y-139470000D02*
X104267000Y-139509500D01*
X98107500Y-128968500D02*
X94932500Y-126365000D01*
X99123500Y-129857500D02*
X98107500Y-128968500D01*
D23*
X99695000Y-113030000D02*
X97155000Y-113030000D01*
D22*
X99899838Y-144003662D02*
X99377500Y-143446500D01*
X99614935Y-140635935D02*
X99292274Y-141075274D01*
X98996500Y-142494000D02*
X98996500Y-141795500D01*
X99292274Y-141075274D02*
X98996500Y-141795500D01*
X100180701Y-140185701D02*
X99614935Y-140635935D01*
X150822132Y-145424632D02*
X149850565Y-145424435D01*
X160666629Y-145426629D02*
X150822132Y-145424632D01*
D23*
X108870542Y-121888042D02*
X108949538Y-119332962D01*
X115914339Y-115924161D02*
X116426343Y-116174157D01*
X112839500Y-115252500D02*
X114797416Y-115517084D01*
X115914339Y-115924161D02*
X114797416Y-115517084D01*
X112585500Y-112649000D02*
X114744500Y-112712500D01*
X117633750Y-110458250D02*
X118110000Y-109220000D01*
X114109500Y-111379000D02*
X115316000Y-111379000D01*
X112776000Y-111252000D02*
X114109500Y-111379000D01*
X111442500Y-110998000D02*
X112776000Y-111252000D01*
D22*
X99377500Y-143446500D02*
X98996500Y-142494000D01*
X101917500Y-139470000D02*
X100180701Y-140185701D01*
X102676739Y-145221739D02*
X101949988Y-145001512D01*
X132397500Y-86677500D02*
X130048000Y-86233000D01*
X133858000Y-87312500D02*
X132397500Y-86677500D01*
D24*
X145542000Y-96774000D02*
X146050000Y-99060000D01*
X129603500Y-88646000D02*
X131318000Y-88646000D01*
X128270000Y-88900000D02*
X129603500Y-88646000D01*
D23*
X152475595Y-97587405D02*
X152082500Y-97155000D01*
X153035000Y-99060000D02*
X152770416Y-98054584D01*
X152475595Y-97587405D02*
X152770416Y-98054584D01*
X152082500Y-97155000D02*
X151544131Y-96867869D01*
X151544131Y-96867869D02*
X150910657Y-96618157D01*
X150910657Y-96618157D02*
X149860000Y-96480000D01*
X153543000Y-100266500D02*
X153035000Y-99060000D01*
X153670000Y-101155500D02*
X153543000Y-100266500D01*
X153670000Y-102870000D02*
X153670000Y-101155500D01*
D22*
X162179000Y-95694500D02*
X161842848Y-95332152D01*
X160312100Y-94132400D02*
X159612013Y-93689487D01*
X161842848Y-95332152D02*
X160312100Y-94132400D01*
X159612013Y-93689487D02*
X157162500Y-92075000D01*
X149098000Y-85788500D02*
X146177000Y-84582000D01*
X151193500Y-87312500D02*
X149098000Y-85788500D01*
X153035000Y-88900000D02*
X151193500Y-87312500D01*
D23*
X128270000Y-95123000D02*
X128270000Y-94234000D01*
X128270000Y-96012000D02*
X128270000Y-95123000D01*
X126746000Y-95123000D02*
X128270000Y-95123000D01*
X123030199Y-98775301D02*
X123149178Y-99336678D01*
X122797002Y-97674998D02*
X123030199Y-98775301D01*
X122797002Y-97674998D02*
X122237500Y-96480000D01*
X123190000Y-99949000D02*
X123149178Y-99336678D01*
D22*
X158115000Y-142240000D02*
X157539652Y-141354848D01*
X156758821Y-140675179D02*
X156146500Y-140335000D01*
X157539652Y-141354848D02*
X156758821Y-140675179D01*
D23*
X151130000Y-110490000D02*
X150731838Y-111933338D01*
D22*
X161785012Y-55829488D02*
X161417000Y-55118000D01*
X162369500Y-56959500D02*
X161785012Y-55829488D01*
X162877500Y-55245000D02*
X161785012Y-55829488D01*
X161417000Y-55118000D02*
X160813750Y-52673250D01*
X163195000Y-59690000D02*
X162369500Y-56959500D01*
X125734545Y-145419545D02*
X119376744Y-145418256D01*
X119380000Y-142240000D02*
X119376744Y-145418256D01*
X149850565Y-145424435D02*
X125734545Y-145419545D01*
X125730000Y-142240000D02*
X125734545Y-145419545D01*
X167017917Y-145427917D02*
X160666629Y-145426629D01*
X160655000Y-142240000D02*
X160666629Y-145426629D01*
X167045000Y-143510000D02*
X167017917Y-145427917D01*
X116967000Y-141224000D02*
X115887500Y-142240000D01*
X117269253Y-135303253D02*
X116787640Y-136853640D01*
X115951000Y-139954000D02*
X115887500Y-142240000D01*
X117313125Y-130971875D02*
X117504500Y-131860000D01*
X117015173Y-130253827D02*
X117313125Y-130971875D01*
X116840000Y-129921000D02*
X117015173Y-130253827D01*
D23*
X112522000Y-140589000D02*
X110807500Y-142240000D01*
X115379500Y-135318500D02*
X114554000Y-137223500D01*
X115824000Y-133350000D02*
X115379500Y-135318500D01*
D22*
X115887500Y-128270000D02*
X116840000Y-129921000D01*
D23*
X105727500Y-142240000D02*
X101917500Y-141970000D01*
X107362500Y-128270000D02*
X107378500Y-129603500D01*
D22*
X110553500Y-128587500D02*
X110172500Y-127000000D01*
X110744000Y-129794000D02*
X110553500Y-128587500D01*
X110807500Y-132080000D02*
X110744000Y-129794000D01*
D23*
X118719600Y-130022600D02*
X118427500Y-128270000D01*
X118719600Y-130022600D02*
X118981682Y-131017818D01*
X119380000Y-132080000D02*
X118981682Y-131017818D01*
X119888000Y-133413500D02*
X119380000Y-132080000D01*
D22*
X200342500Y-126365000D02*
X197364221Y-130625721D01*
X159498070Y-113424930D02*
X159575500Y-110363000D01*
X159498070Y-113424930D02*
X159320002Y-115124002D01*
D23*
X160909000Y-110744000D02*
X160845500Y-112458500D01*
X160912991Y-108144491D02*
X160924240Y-108473240D01*
X160909000Y-108712000D02*
X160909000Y-110744000D01*
X160924240Y-108473240D02*
X160909000Y-108712000D01*
X160782000Y-115697000D02*
X160655000Y-117475000D01*
X160845500Y-112458500D02*
X160782000Y-115697000D01*
X157226000Y-120904000D02*
X155956000Y-121094500D01*
X158382807Y-120509193D02*
X158137088Y-120627912D01*
X158137088Y-120627912D02*
X157226000Y-120904000D01*
X155213420Y-122510920D02*
X156954833Y-122318167D01*
X155213420Y-122510920D02*
X153167740Y-122612760D01*
D24*
X157133746Y-123669246D02*
X155406054Y-123866946D01*
X153258769Y-123921769D02*
X151765000Y-123888500D01*
X155406054Y-123866946D02*
X153258769Y-123921769D01*
X157133746Y-123669246D02*
X158531278Y-123352278D01*
X150304500Y-123888500D02*
X151765000Y-123888500D01*
D22*
X149784209Y-119875709D02*
X148399500Y-120142000D01*
X167005000Y-73660000D02*
X167345178Y-73682678D01*
D24*
X147955000Y-101536500D02*
X147461111Y-101141389D01*
X148590000Y-102870000D02*
X147955000Y-101536500D01*
X146050000Y-99060000D02*
X147828000Y-99060000D01*
D22*
X153908449Y-115522051D02*
X153162000Y-115506500D01*
X156210000Y-115570000D02*
X153908449Y-115522051D01*
X153860500Y-114173000D02*
X153908449Y-115522051D01*
X153162000Y-115506500D02*
X150876000Y-115760500D01*
X131318000Y-123063000D02*
X132461000Y-123825000D01*
X130365500Y-122174000D02*
X131318000Y-123063000D01*
X129730500Y-121094500D02*
X130365500Y-122174000D01*
X129540000Y-119380000D02*
X129730500Y-121094500D01*
X132080000Y-127635000D02*
X132080000Y-129222500D01*
D23*
X126428500Y-48006000D02*
X123507500Y-47942500D01*
X131699000Y-54483000D02*
X131445000Y-55880000D01*
X131722812Y-54268688D02*
X131699000Y-54483000D01*
X128409700Y-48209200D02*
X126428500Y-48006000D01*
X131722812Y-54268688D02*
X131713288Y-53744812D01*
D22*
X137160000Y-119380000D02*
X137160000Y-117792500D01*
X137160000Y-117792500D02*
X137223500Y-117030500D01*
X156210000Y-119380000D02*
X154622500Y-119443500D01*
X157942360Y-126319360D02*
X159385000Y-126000000D01*
X160813750Y-52673250D02*
X160655000Y-50546000D01*
X165735000Y-121158000D02*
X166370000Y-119380000D01*
X162654846Y-125189846D02*
X163729199Y-124359199D01*
X164875110Y-122901610D02*
X165571714Y-121566214D01*
X165571714Y-121566214D02*
X165735000Y-121158000D01*
X163729199Y-124359199D02*
X164875110Y-122901610D01*
X180340000Y-124460000D02*
X179768500Y-125158500D01*
X176212500Y-125476000D02*
X177609500Y-125730000D01*
X177609500Y-125730000D02*
X178485568Y-125653568D01*
X159530520Y-109238520D02*
X159575500Y-106362500D01*
X159575500Y-110363000D02*
X159530520Y-109238520D01*
X159575500Y-106362500D02*
X159829500Y-104648000D01*
X159829500Y-104648000D02*
X160274000Y-103060500D01*
X160274000Y-103060500D02*
X160972500Y-102171500D01*
X160972500Y-102171500D02*
X161734500Y-101282500D01*
X162556568Y-100390068D02*
X161734500Y-101282500D01*
X163195000Y-99060000D02*
X162556568Y-100390068D01*
X135890000Y-88900000D02*
X134747000Y-87884000D01*
X134747000Y-87884000D02*
X133858000Y-87312500D01*
X148399500Y-120142000D02*
X147546060Y-120304560D01*
X113347500Y-132080000D02*
X110807500Y-132080000D01*
X110807500Y-132080000D02*
X108267500Y-132080000D01*
X160655000Y-50546000D02*
X160655000Y-49339500D01*
X94932500Y-67310000D02*
X92646500Y-64262000D01*
X196215000Y-74930000D02*
X196715063Y-73207563D01*
X149860000Y-139620000D02*
X148780500Y-138176000D01*
X148780500Y-138176000D02*
X148145500Y-136525000D01*
X166370000Y-71120000D02*
X168910000Y-71120000D01*
X96520000Y-99060000D02*
X96710500Y-97663000D01*
X96710500Y-97663000D02*
X96964500Y-96901000D01*
X96964500Y-96901000D02*
X97726500Y-95885000D01*
X162623500Y-96393000D02*
X162877500Y-97409000D01*
X162877500Y-97409000D02*
X163195000Y-99060000D01*
X162179000Y-95694500D02*
X162623500Y-96393000D01*
X163195000Y-99060000D02*
X165735000Y-99060000D01*
X100330000Y-88900000D02*
X100330000Y-90170000D01*
X166370000Y-71120000D02*
X165747700Y-67564000D01*
X165747700Y-67564000D02*
X165671500Y-65100200D01*
X165671500Y-65100200D02*
X166154100Y-62103000D01*
X166154100Y-62103000D02*
X166535100Y-59690000D01*
X167347900Y-57810400D02*
X166772688Y-58962388D01*
X166535100Y-59690000D02*
X166772688Y-58962388D01*
X166370000Y-119380000D02*
X167220900Y-118211600D01*
X172275500Y-123190000D02*
X173355000Y-124015500D01*
X149245693Y-128658993D02*
X148735686Y-129291986D01*
X150121879Y-127782579D02*
X149245693Y-128658993D01*
D23*
X126535794Y-54399794D02*
X126707900Y-53886100D01*
X126535794Y-54399794D02*
X126365000Y-55880000D01*
X126707900Y-53886100D02*
X126865062Y-53268562D01*
X115887500Y-54610000D02*
X116355395Y-53299895D01*
D24*
X128905000Y-55880000D02*
X129095500Y-54483000D01*
X129095500Y-54483000D02*
X129159000Y-53784500D01*
X129159000Y-53784500D02*
X129222500Y-52959000D01*
X129222500Y-52959000D02*
X129222500Y-52451000D01*
X129222500Y-52451000D02*
X129095500Y-51752500D01*
X129095500Y-51752500D02*
X128968500Y-51308000D01*
X128968500Y-51308000D02*
X128524000Y-50546000D01*
X127349250Y-49752250D02*
X126492000Y-49466500D01*
X126492000Y-49466500D02*
X125368538Y-49319962D01*
X113347500Y-54610000D02*
X112458500Y-55753000D01*
X112458500Y-55753000D02*
X111696500Y-56515000D01*
X111696500Y-56515000D02*
X110807500Y-57190000D01*
X125368538Y-49319962D02*
X123626094Y-49267594D01*
X114109500Y-53340000D02*
X113347500Y-54610000D01*
D23*
X118300500Y-56642000D02*
X118427500Y-54610000D01*
X119824500Y-54737000D02*
X118427500Y-54610000D01*
X126365000Y-69215000D02*
X127825500Y-69342000D01*
X127825500Y-69342000D02*
X128460500Y-69532500D01*
X129222500Y-70358000D02*
X129495176Y-70948176D01*
X129540000Y-71755000D02*
X129495176Y-70948176D01*
X125222000Y-69278500D02*
X126365000Y-69215000D01*
X124968000Y-69215000D02*
X125222000Y-69278500D01*
X124650500Y-69088000D02*
X124968000Y-69215000D01*
X123825000Y-67310000D02*
X123888500Y-68326000D01*
X124323929Y-68906571D02*
X124002800Y-68592700D01*
X123888500Y-68326000D02*
X124002800Y-68592700D01*
X124323929Y-68906571D02*
X124650500Y-69088000D01*
X128460500Y-69532500D02*
X128655884Y-69654616D01*
X128905000Y-63500000D02*
X128841500Y-66167000D01*
X120459500Y-110744000D02*
X120650000Y-109220000D01*
X123444000Y-106235500D02*
X124968000Y-106235500D01*
X124968000Y-106235500D02*
X125857000Y-106362500D01*
X108251113Y-107616113D02*
X108096050Y-108375450D01*
X108251113Y-107616113D02*
X108712000Y-106489500D01*
X104863900Y-100939600D02*
X103568500Y-100584000D01*
X103568500Y-100584000D02*
X101981000Y-100203000D01*
X100330000Y-99060000D02*
X100457000Y-97980500D01*
X123190000Y-101600000D02*
X123190000Y-99949000D01*
X125730000Y-99060000D02*
X124714000Y-98869500D01*
X114300000Y-97917000D02*
X114300000Y-99060000D01*
X110045500Y-86487000D02*
X109442250Y-87661750D01*
X109442250Y-87661750D02*
X109156500Y-88900000D01*
X147066000Y-114046000D02*
X145796000Y-114109500D01*
X145796000Y-114109500D02*
X144589500Y-113982500D01*
X141166272Y-109404728D02*
X141605000Y-109982000D01*
X137160000Y-111760000D02*
X137287000Y-110299500D01*
X139969875Y-108823125D02*
X138811000Y-108521500D01*
X137287000Y-110299500D02*
X137350500Y-109537500D01*
X137350500Y-109537500D02*
X137477500Y-108966000D01*
X137477500Y-108966000D02*
X137606689Y-108328811D01*
X138811000Y-108521500D02*
X137606689Y-108328811D01*
X137606689Y-108328811D02*
X137223500Y-108267500D01*
X128270000Y-97155000D02*
X128270000Y-99060000D01*
X128270000Y-97155000D02*
X128270000Y-96710500D01*
X128270000Y-96012000D02*
X128270000Y-97155000D01*
X128270000Y-96710500D02*
X128270000Y-96012000D01*
X130850000Y-91480000D02*
X132080000Y-91480000D01*
X128270000Y-94234000D02*
X128349375Y-93805375D01*
X118572599Y-91013599D02*
X118634565Y-91613935D01*
X118606454Y-90499046D02*
X118572599Y-91013599D01*
X158230094Y-112827594D02*
X158115000Y-110871000D01*
X158115000Y-114554000D02*
X158230094Y-112827594D01*
X158115000Y-110871000D02*
X157797500Y-108966000D01*
X155765500Y-106235500D02*
X155003500Y-105664000D01*
X155003500Y-105664000D02*
X154305000Y-105092500D01*
X154305000Y-105092500D02*
X153987500Y-104584500D01*
X153987500Y-104584500D02*
X153670000Y-102870000D01*
X140335000Y-100393500D02*
X139382500Y-100647500D01*
X141509750Y-99790250D02*
X140933487Y-100166487D01*
X140933487Y-100166487D02*
X140335000Y-100393500D01*
X141509750Y-99790250D02*
X142240000Y-99060000D01*
D24*
X159829500Y-97536000D02*
X160020000Y-96480000D01*
X146050000Y-89979500D02*
X146180256Y-90738244D01*
X146050000Y-89979500D02*
X146050000Y-88900000D01*
X146180256Y-90738244D02*
X146247921Y-91066421D01*
X146050000Y-88900000D02*
X145605500Y-87884000D01*
D23*
X162052000Y-115443000D02*
X162115500Y-112077500D01*
X162115500Y-112077500D02*
X162179000Y-110553500D01*
X157035500Y-57531000D02*
X156210000Y-57190000D01*
X162623500Y-106235500D02*
X162433000Y-107505500D01*
X158665334Y-121962334D02*
X159258001Y-121665999D01*
X156954833Y-122318167D02*
X158148383Y-122140617D01*
X158665334Y-121962334D02*
X158148383Y-122140617D01*
X159004000Y-56515000D02*
X158369000Y-56007000D01*
X158369000Y-56007000D02*
X157861000Y-55562500D01*
X156781500Y-54292500D02*
X156146500Y-53213000D01*
X133096000Y-66484500D02*
X133159500Y-67945000D01*
X132929946Y-62713554D02*
X132962953Y-65220547D01*
X132962953Y-65220547D02*
X133096000Y-66484500D01*
X115443000Y-118618000D02*
X115252500Y-118046500D01*
X115001203Y-117604703D02*
X115252500Y-118046500D01*
X103505000Y-107950000D02*
X103505000Y-105410000D01*
X105219500Y-113474500D02*
X107315000Y-115570000D01*
X108775500Y-115189000D02*
X107315000Y-115570000D01*
D22*
X179971068Y-52819932D02*
X179633167Y-52776833D01*
X175069500Y-53022500D02*
X175598667Y-52789667D01*
X176022000Y-52705000D02*
X175598667Y-52789667D01*
X174774678Y-53362678D02*
X174625000Y-53721000D01*
X174625000Y-54610000D02*
X174625000Y-53721000D01*
X175069500Y-53022500D02*
X174774678Y-53362678D01*
X165862000Y-73406000D02*
X167005000Y-73660000D01*
X165615055Y-73335445D02*
X165862000Y-73406000D01*
X163637500Y-71200000D02*
X164592000Y-72580500D01*
X171142270Y-67236730D02*
X170517431Y-66210569D01*
X170517431Y-66210569D02*
X170038889Y-65390889D01*
X169815565Y-64880435D02*
X169545000Y-63627000D01*
X170038889Y-65390889D02*
X169815565Y-64880435D01*
X169545000Y-63627000D02*
X169545000Y-62357000D01*
X169545000Y-62357000D02*
X169747046Y-61670046D01*
X177165000Y-64770000D02*
X177292000Y-63817500D01*
X177292000Y-63817500D02*
X177546000Y-63373000D01*
X177546000Y-63373000D02*
X177990500Y-63246000D01*
X177990500Y-63246000D02*
X178371500Y-63246000D01*
X178371500Y-63246000D02*
X179705000Y-63500000D01*
X175135000Y-81200000D02*
X176784000Y-81407000D01*
X182562500Y-76200000D02*
X184848500Y-75755500D01*
X187642500Y-75247500D02*
X185059053Y-75735447D01*
X184848500Y-75755500D02*
X185059053Y-75735447D01*
X192405000Y-60960000D02*
X191389000Y-61404500D01*
X191389000Y-61404500D02*
X190690500Y-61976000D01*
X182245000Y-63500000D02*
X182816500Y-64897000D01*
X182816500Y-64897000D02*
X183261000Y-65405000D01*
X184975500Y-65976500D02*
X186372500Y-65976500D01*
X186372500Y-65976500D02*
X187325000Y-65849500D01*
X183811334Y-65743666D02*
X184701961Y-65956961D01*
X184701961Y-65956961D02*
X184975500Y-65976500D01*
X183261000Y-65405000D02*
X183811334Y-65743666D01*
X189865000Y-57150000D02*
X189039500Y-57975500D01*
X189039500Y-57975500D02*
X188087000Y-58547000D01*
X188087000Y-58547000D02*
X187261500Y-58801000D01*
X187261500Y-58801000D02*
X186309000Y-58991500D01*
X186309000Y-58991500D02*
X185420000Y-59055000D01*
X185420000Y-59055000D02*
X184531000Y-59055000D01*
X184531000Y-59055000D02*
X183578500Y-58991500D01*
X183578500Y-58991500D02*
X182816500Y-58928000D01*
D23*
X115824000Y-133350000D02*
X115887500Y-132080000D01*
X121507250Y-77057250D02*
X120140000Y-76200000D01*
X122178329Y-77338671D02*
X122809000Y-77470000D01*
X123825000Y-77470000D02*
X122809000Y-77470000D01*
X121507250Y-77057250D02*
X122178329Y-77338671D01*
X109601000Y-108902500D02*
X109664500Y-107950000D01*
X109664500Y-107950000D02*
X109982000Y-106616500D01*
D24*
X119761000Y-100584000D02*
X120650000Y-101600000D01*
X147447000Y-112458500D02*
X146431000Y-112649000D01*
X144907000Y-112458500D02*
X144520479Y-112210021D01*
X143934962Y-110954038D02*
X144180891Y-111597109D01*
X144520479Y-112210021D02*
X144180891Y-111597109D01*
X145192750Y-112553750D02*
X145859500Y-112649000D01*
X146431000Y-112649000D02*
X145859500Y-112649000D01*
X145192750Y-112553750D02*
X144907000Y-112458500D01*
X148145500Y-111823500D02*
X147857883Y-112170883D01*
X147857883Y-112170883D02*
X147447000Y-112458500D01*
X148590000Y-110490000D02*
X148145500Y-111823500D01*
X140196795Y-60907705D02*
X140906500Y-60833000D01*
D22*
X177163545Y-58614229D02*
X177165000Y-58555000D01*
X177151934Y-58732119D02*
X177159187Y-58673317D01*
X177141805Y-58790494D02*
X177151934Y-58732119D01*
X176852299Y-59365642D02*
X176890998Y-59320779D01*
X176811446Y-59408553D02*
X176852299Y-59365642D01*
X177113021Y-58905404D02*
X177128824Y-58848302D01*
X176085500Y-60134500D02*
X176811446Y-59408553D01*
X177128824Y-58848302D02*
X177141805Y-58790494D01*
X177022465Y-59124025D02*
X177049104Y-59071104D01*
X177159187Y-58673317D02*
X177163545Y-58614229D01*
X176890998Y-59320779D02*
X176927449Y-59274072D01*
X177073113Y-59016939D02*
X177094436Y-58961661D01*
X176927449Y-59274072D02*
X176961565Y-59225632D01*
X176961565Y-59225632D02*
X176993262Y-59175576D01*
X176993262Y-59175576D02*
X177022465Y-59124025D01*
X177049104Y-59071104D02*
X177073113Y-59016939D01*
X177094436Y-58961661D02*
X177113021Y-58905404D01*
X175152050Y-61423550D02*
X176085500Y-60134500D01*
X175152050Y-61423550D02*
X174861264Y-62148764D01*
X177165000Y-57721500D02*
X177165000Y-54610000D01*
X177165000Y-58555000D02*
X177165000Y-57721500D01*
D24*
X166370000Y-81280000D02*
X163637500Y-81200000D01*
X158531278Y-123352278D02*
X158623000Y-123317000D01*
X158623000Y-123317000D02*
X159848138Y-122827638D01*
X159848138Y-122827638D02*
X160807644Y-122263144D01*
X163322000Y-114998500D02*
X163449000Y-112776000D01*
X163195000Y-117729000D02*
X163322000Y-114998500D01*
X163449000Y-112776000D02*
X163449000Y-111696500D01*
X163449000Y-111696500D02*
X163439593Y-111451907D01*
X160807644Y-122263144D02*
X161480499Y-121729499D01*
X166124546Y-103704046D02*
X166991452Y-103328048D01*
D22*
X113347500Y-142240000D02*
X115887500Y-142240000D01*
D24*
X130810000Y-137160000D02*
X129476500Y-136461500D01*
D22*
X127156882Y-121255118D02*
X127000000Y-120015000D01*
X127261470Y-121658530D02*
X127156882Y-121255118D01*
X127825500Y-122745500D02*
X127261470Y-121658530D01*
X129490640Y-124128360D02*
X128460500Y-123380500D01*
X127000000Y-120015000D02*
X127000000Y-119126000D01*
X128460500Y-123380500D02*
X127825500Y-122745500D01*
X131837500Y-117717500D02*
X131508500Y-117284500D01*
X131508500Y-117284500D02*
X130873500Y-116967000D01*
X129796760Y-116842760D02*
X128782884Y-116908384D01*
X130873500Y-116967000D02*
X129796760Y-116842760D01*
X127489858Y-117774358D02*
X127116416Y-118543916D01*
X127116416Y-118543916D02*
X127000000Y-119126000D01*
X128315358Y-117048642D02*
X127680357Y-117520357D01*
X127680357Y-117520357D02*
X127489858Y-117774358D01*
X128782884Y-116908384D02*
X128315358Y-117048642D01*
X131254500Y-125984000D02*
X130664975Y-125176525D01*
X130664975Y-125176525D02*
X129490640Y-124128360D01*
X132080000Y-127635000D02*
X131254500Y-125984000D01*
X127635000Y-130111500D02*
X128750785Y-130084285D01*
X128750785Y-130084285D02*
X129159000Y-129921000D01*
X125476000Y-129413000D02*
X125539500Y-129476500D01*
D23*
X118745000Y-61595000D02*
X118427500Y-63182500D01*
X118427500Y-63182500D02*
X118427500Y-64770000D01*
X118427500Y-64770000D02*
X120269000Y-64770000D01*
X122863208Y-64252708D02*
X123825000Y-63500000D01*
X156337000Y-60134500D02*
X154114500Y-60134500D01*
X108267500Y-142240000D02*
X105727500Y-142240000D01*
D22*
X154265000Y-134660000D02*
X154305000Y-134620000D01*
X126668696Y-103110196D02*
X124113396Y-103920396D01*
X124113396Y-103920396D02*
X123761500Y-104013000D01*
X128270000Y-102870000D02*
X126668696Y-103110196D01*
X113030000Y-107950000D02*
X114109500Y-107442000D01*
X114109500Y-107442000D02*
X114457369Y-107218369D01*
X116776500Y-104521000D02*
X116205000Y-104521000D01*
X116205000Y-104521000D02*
X115417600Y-104546400D01*
X115379500Y-105283000D02*
X115417600Y-104546400D01*
X115417600Y-104546400D02*
X115570000Y-101600000D01*
X149479000Y-132334000D02*
X149479000Y-133477000D01*
X149479000Y-133477000D02*
X149860000Y-134620000D01*
X165862000Y-52260500D02*
X164719000Y-52070000D01*
X163195000Y-52070000D02*
X164719000Y-52070000D01*
X166573200Y-52527200D02*
X165862000Y-52260500D01*
X132778500Y-73914000D02*
X133604000Y-72771000D01*
X153289000Y-135318500D02*
X154305000Y-134620000D01*
X150479125Y-135143875D02*
X151193500Y-135382000D01*
X149860000Y-134620000D02*
X150479125Y-135143875D01*
X155829000Y-108839000D02*
X156083000Y-109664500D01*
X156083000Y-109664500D02*
X156210000Y-110617000D01*
X156210000Y-110617000D02*
X156210000Y-111760000D01*
X148907500Y-106362500D02*
X150368000Y-106553000D01*
X150368000Y-106553000D02*
X151384000Y-106553000D01*
X146671196Y-105233304D02*
X146323402Y-104565098D01*
X146050000Y-102870000D02*
X146323402Y-104565098D01*
X146671196Y-105233304D02*
X147002500Y-105664000D01*
X147474214Y-105954286D02*
X148475700Y-106286300D01*
X148475700Y-106286300D02*
X148907500Y-106362500D01*
X147002500Y-105664000D02*
X147474214Y-105954286D01*
X154534053Y-107530447D02*
X154908250Y-107791250D01*
X117785053Y-123309553D02*
X120332500Y-123380500D01*
X113982500Y-121920000D02*
X114829167Y-122639667D01*
X115294833Y-122851333D02*
X116552990Y-123159510D01*
X116552990Y-123159510D02*
X117785053Y-123309553D01*
X114829167Y-122639667D02*
X115294833Y-122851333D01*
X123230410Y-123801910D02*
X121337917Y-123433417D01*
X120332500Y-123380500D02*
X121337917Y-123433417D01*
X124523500Y-124587000D02*
X123230410Y-123801910D01*
X125571250Y-125444250D02*
X126150181Y-126135319D01*
X125571250Y-125444250D02*
X124523500Y-124587000D01*
X135255000Y-52705000D02*
X135318500Y-53975000D01*
X135318500Y-53975000D02*
X135890000Y-55880000D01*
X134833221Y-59413279D02*
X134302500Y-62230000D01*
X134253179Y-63069679D02*
X134296654Y-64648846D01*
X134296654Y-64648846D02*
X134422542Y-65652042D01*
X134302500Y-62230000D02*
X134253179Y-63069679D01*
X168135300Y-111912400D02*
X166370000Y-111760000D01*
X196850000Y-117475000D02*
X195897500Y-118872000D01*
X195897500Y-118872000D02*
X195008500Y-119761000D01*
X195008500Y-119761000D02*
X194310000Y-120650000D01*
X169545000Y-106680000D02*
X169275000Y-106680000D01*
X122021600Y-116078000D02*
X122275600Y-117297200D01*
X122275600Y-117297200D02*
X122631200Y-118313200D01*
X122631200Y-118313200D02*
X123190000Y-119380000D01*
X122021600Y-116078000D02*
X121666000Y-114300000D01*
X121666000Y-114300000D02*
X121767600Y-112725200D01*
X121767600Y-112725200D02*
X122174000Y-111353600D01*
X122174000Y-111353600D02*
X123190000Y-109220000D01*
X146558000Y-117602000D02*
X147129500Y-117602000D01*
X153670000Y-110490000D02*
X153797000Y-112331500D01*
X130929062Y-66238438D02*
X131445000Y-63500000D01*
X130810000Y-67310000D02*
X130929062Y-66238438D01*
X153797000Y-112331500D02*
X153860500Y-114173000D01*
X140970000Y-67310000D02*
X141605000Y-66357500D01*
X141605000Y-66357500D02*
X142557500Y-64770000D01*
X142557500Y-64770000D02*
X143510000Y-63500000D01*
X156146500Y-140335000D02*
X154305000Y-139700000D01*
X183515000Y-129540000D02*
X183197500Y-131127500D01*
X183197500Y-131127500D02*
X183197500Y-132080000D01*
X183197500Y-132080000D02*
X183515000Y-133350000D01*
X188960000Y-132397500D02*
X192040000Y-132397500D01*
X181673500Y-120142000D02*
X181673500Y-119126000D01*
X182219495Y-117703495D02*
X181881860Y-118409640D01*
X181673500Y-119126000D02*
X181881860Y-118409640D01*
X181657625Y-127365125D02*
X181185382Y-127908882D01*
X185547000Y-100203000D02*
X184023000Y-100012500D01*
X184023000Y-100012500D02*
X182880000Y-100012500D01*
X178435000Y-133350000D02*
X180975000Y-133350000D01*
X180340000Y-110490000D02*
X180340000Y-114300000D01*
X183515000Y-143510000D02*
X180975000Y-143510000D01*
X178435000Y-143510000D02*
X177482500Y-143764000D01*
X177482500Y-143764000D02*
X175958500Y-143891000D01*
X182880000Y-102552500D02*
X182880000Y-104775000D01*
X180340000Y-100330000D02*
X180530500Y-101600000D01*
X193040000Y-100012500D02*
X193040000Y-102552500D01*
X186690000Y-125730000D02*
X186690000Y-125247500D01*
X186690000Y-125730000D02*
X186690000Y-128270000D01*
D24*
X137668000Y-66738500D02*
X138430000Y-63500000D01*
D23*
X140970000Y-63500000D02*
X139827000Y-65214500D01*
X139476725Y-66070725D02*
X139227278Y-67091278D01*
X139827000Y-65214500D02*
X139476725Y-66070725D01*
D22*
X100330000Y-88900000D02*
X101600000Y-88836500D01*
X197364221Y-130625721D02*
X196405500Y-132397500D01*
X196215000Y-74930000D02*
X195749826Y-77617674D01*
X132778500Y-73914000D02*
X134620000Y-76200000D01*
D23*
X137223500Y-108267500D02*
X136969500Y-108204000D01*
D22*
X156881631Y-126455369D02*
X153985194Y-126807194D01*
X157942360Y-126319360D02*
X156881631Y-126455369D01*
X160475969Y-125909031D02*
X161515933Y-125638433D01*
X161515933Y-125638433D02*
X162654846Y-125189846D01*
X159385000Y-126000000D02*
X160475969Y-125909031D01*
X151657973Y-127210473D02*
X150121879Y-127782579D01*
X153985194Y-126807194D02*
X151657973Y-127210473D01*
D23*
X134620000Y-119380000D02*
X135128000Y-119761000D01*
D22*
X143383000Y-102425500D02*
X144462500Y-102552500D01*
X144462500Y-102552500D02*
X146050000Y-102870000D01*
X182880000Y-113093500D02*
X182880000Y-114935000D01*
X182054500Y-108204000D02*
X182747921Y-111701579D01*
X178392666Y-103420334D02*
X179959000Y-104775000D01*
X182747921Y-111701579D02*
X182880000Y-113093500D01*
X177800000Y-103124000D02*
X178392666Y-103420334D01*
X92265500Y-62103000D02*
X92405200Y-61264800D01*
D23*
X108712000Y-106489500D02*
X108855423Y-105934423D01*
D22*
X183943151Y-145431349D02*
X167017917Y-145427917D01*
X195298218Y-134147718D02*
X193601946Y-136515446D01*
X191750000Y-138747500D02*
X193601946Y-136515446D01*
X195298218Y-134147718D02*
X196405500Y-132397500D01*
X137223500Y-117030500D02*
X137167938Y-115943062D01*
X135953500Y-116014500D02*
X137167938Y-115943062D01*
X192087500Y-114935000D02*
X190500000Y-114935000D01*
X194564000Y-105283000D02*
X195897500Y-105747500D01*
X187960000Y-104775000D02*
X192087500Y-104775000D01*
X193548000Y-105029000D02*
X194564000Y-105283000D01*
X192087500Y-104775000D02*
X193548000Y-105029000D01*
X185420000Y-104775000D02*
X185610500Y-102743000D01*
X185610500Y-102743000D02*
X185864500Y-101409500D01*
X185864500Y-101409500D02*
X186114973Y-100326473D01*
X186114973Y-100326473D02*
X185547000Y-100203000D01*
X187960000Y-114935000D02*
X185420000Y-114935000D01*
X186690000Y-117475000D02*
X187642500Y-116649500D01*
X187642500Y-116649500D02*
X187896500Y-116268500D01*
X187896500Y-116268500D02*
X187960000Y-114935000D01*
X200977500Y-106045000D02*
X201041000Y-103632000D01*
X195749826Y-77617674D02*
X195389500Y-81724500D01*
D23*
X168500608Y-100301608D02*
X168679405Y-99845405D01*
X168846152Y-99123848D02*
X168844737Y-97407237D01*
X168679405Y-99845405D02*
X168846152Y-99123848D01*
X166651281Y-101953719D02*
X167783124Y-101235124D01*
D24*
X166991452Y-103328048D02*
X168690510Y-102333010D01*
X168690510Y-102333010D02*
X169413100Y-101595100D01*
X169413100Y-101595100D02*
X169796851Y-100962851D01*
X169796851Y-100962851D02*
X170154537Y-99923537D01*
X170154537Y-99923537D02*
X170294631Y-98920631D01*
X170294631Y-98920631D02*
X170258187Y-97838813D01*
X170258187Y-97838813D02*
X169926000Y-94488000D01*
X169060395Y-90891895D02*
X169666709Y-92969291D01*
X169926000Y-94488000D02*
X169666709Y-92969291D01*
X169060395Y-90891895D02*
X168592500Y-89789000D01*
D22*
X171443122Y-103752122D02*
X170561000Y-104584500D01*
X172314626Y-102718626D02*
X171443122Y-103752122D01*
X170561000Y-104584500D02*
X169862500Y-105346500D01*
X169862500Y-105346500D02*
X169275000Y-106680000D01*
X171577000Y-109220000D02*
X173101000Y-109918500D01*
X173101000Y-109918500D02*
X174625000Y-110490000D01*
X168707659Y-112025841D02*
X168135300Y-111912400D01*
D23*
X108140500Y-100457000D02*
X106045000Y-99060000D01*
X109283500Y-97980500D02*
X109156500Y-99060000D01*
D24*
X168592500Y-89789000D02*
X168461121Y-89539379D01*
D22*
X193040000Y-114935000D02*
X192722500Y-114935000D01*
X192087500Y-114935000D02*
X192722500Y-114935000D01*
X192722500Y-114935000D02*
X193357500Y-114935000D01*
X196850000Y-117475000D02*
X197485000Y-116522500D01*
X196726473Y-109089527D02*
X195897500Y-108247500D01*
X120140000Y-81200000D02*
X121729500Y-80137000D01*
X121729500Y-80137000D02*
X123317000Y-79629000D01*
X123317000Y-79629000D02*
X124904500Y-79375000D01*
X124904500Y-79375000D02*
X126365000Y-79375000D01*
X180340000Y-100330000D02*
X180276500Y-99885500D01*
X193738500Y-90932000D02*
X194881500Y-91059000D01*
X194881500Y-91059000D02*
X195897500Y-91142500D01*
X201041000Y-103632000D02*
X201041000Y-98679000D01*
X197294500Y-91567000D02*
X195897500Y-91142500D01*
X195389500Y-81724500D02*
X195580000Y-85534500D01*
X195580000Y-85534500D02*
X195834000Y-88582500D01*
X195834000Y-88582500D02*
X195897500Y-91142500D01*
D23*
X105362500Y-128270000D02*
X103949500Y-128079500D01*
X103949500Y-128079500D02*
X102806500Y-127635000D01*
X102806500Y-127635000D02*
X101790500Y-126936500D01*
X99741914Y-124540086D02*
X100774500Y-125920500D01*
X101790500Y-126936500D02*
X100774500Y-125920500D01*
X99741914Y-124540086D02*
X99132107Y-123262107D01*
X102171500Y-121602500D02*
X102307107Y-120087107D01*
X102307107Y-120087107D02*
X102933500Y-118872000D01*
D22*
X94932500Y-126365000D02*
X97364340Y-121494340D01*
X97364340Y-121494340D02*
X100539340Y-118319340D01*
X200342500Y-126365000D02*
X201295000Y-122555000D01*
X201295000Y-122555000D02*
X201612500Y-120015000D01*
X201612500Y-120015000D02*
X201612500Y-118110000D01*
X201612500Y-118110000D02*
X201295000Y-115570000D01*
X201295000Y-115570000D02*
X200977500Y-113665000D01*
X172894037Y-92345463D02*
X173279281Y-94920281D01*
X172894037Y-92345463D02*
X172529500Y-90741500D01*
X171450000Y-62190000D02*
X172224700Y-61087000D01*
X172224700Y-61087000D02*
X172732700Y-60401200D01*
X172732700Y-60401200D02*
X173240700Y-59512200D01*
X174282100Y-56337200D02*
X174625000Y-54610000D01*
X174282100Y-56337200D02*
X173359234Y-59215866D01*
X173240700Y-59512200D02*
X173359234Y-59215866D01*
X192662687Y-53526813D02*
X191795518Y-53327182D01*
X190817500Y-53289200D02*
X191795518Y-53327182D01*
X192662687Y-53526813D02*
X193199774Y-53713626D01*
X183645515Y-52637985D02*
X184197449Y-53229051D01*
X190690500Y-61976000D02*
X190485964Y-62203264D01*
X188754617Y-65145517D02*
X189322934Y-64367634D01*
X188558542Y-65330442D02*
X187726053Y-65742553D01*
X187325000Y-65849500D02*
X187726053Y-65742553D01*
X188558542Y-65330442D02*
X188754617Y-65145517D01*
D24*
X173627932Y-76892032D02*
X172986599Y-77317499D01*
X172986599Y-77317499D02*
X172617760Y-77675100D01*
X175135000Y-76200000D02*
X173627932Y-76892032D01*
X167942267Y-88788233D02*
X168461121Y-89539379D01*
D23*
X167051396Y-90568104D02*
X165735000Y-88900000D01*
D24*
X159387695Y-77307595D02*
X159374953Y-78635747D01*
X159428180Y-79494380D02*
X159374953Y-78635747D01*
X159387695Y-77307595D02*
X159555180Y-75425300D01*
X160034148Y-82599352D02*
X160492150Y-83741550D01*
X160492150Y-83741550D02*
X161172965Y-84554255D01*
X160034148Y-82599352D02*
X159798549Y-81424309D01*
X161808135Y-84990965D02*
X163110334Y-85682666D01*
X161172965Y-84554255D02*
X161808135Y-84990965D01*
D23*
X159150432Y-84245068D02*
X158554619Y-82834281D01*
X158554619Y-82834281D02*
X158396492Y-82248188D01*
X159150432Y-84245068D02*
X159802128Y-85091972D01*
X160884796Y-85939704D02*
X162539705Y-86824795D01*
X159802128Y-85091972D02*
X160884796Y-85939704D01*
D24*
X160660017Y-71026083D02*
X159932988Y-73534888D01*
X159555180Y-75425300D02*
X159932988Y-73534888D01*
X160660017Y-71026083D02*
X161395453Y-69391487D01*
D22*
X140399456Y-70993956D02*
X140446210Y-72723290D01*
X140399456Y-70993956D02*
X140505180Y-69603620D01*
X140771880Y-74477880D02*
X140446210Y-72723290D01*
D23*
X138736882Y-71287182D02*
X138833259Y-73117041D01*
X138917680Y-73682860D02*
X138833259Y-73117041D01*
X138736882Y-71287182D02*
X138785600Y-69842380D01*
D22*
X140771880Y-74477880D02*
X141636829Y-76727129D01*
D24*
X149767731Y-99698369D02*
X149305950Y-99423550D01*
X150705184Y-100538916D02*
X149767731Y-99698369D01*
X150705184Y-100538916D02*
X150941395Y-100937705D01*
D23*
X143510000Y-106159300D02*
X142589045Y-105734055D01*
X142589045Y-105734055D02*
X141478000Y-105410000D01*
X144272000Y-106616500D02*
X143510000Y-106159300D01*
D24*
X141986993Y-107758507D02*
X140845940Y-107146960D01*
X142367000Y-108013500D02*
X141986993Y-107758507D01*
X140845940Y-107146960D02*
X139181442Y-106677858D01*
X138391900Y-106426000D02*
X139181442Y-106677858D01*
D23*
X123040987Y-106264287D02*
X123444000Y-106235500D01*
X119080459Y-112133559D02*
X118067666Y-112543166D01*
X119951182Y-111454882D02*
X119080459Y-112133559D01*
X120280112Y-111072612D02*
X119951182Y-111454882D01*
X108726215Y-122734315D02*
X108870542Y-121888042D01*
D22*
X115059995Y-126274095D02*
X116516447Y-125622347D01*
X116516447Y-125622347D02*
X117536149Y-125351351D01*
X114236500Y-126873000D02*
X115059995Y-126274095D01*
D23*
X123103776Y-137868524D02*
X121525228Y-136094272D01*
X120205500Y-134112000D02*
X121525228Y-136094272D01*
X120205500Y-134112000D02*
X119888000Y-133413500D01*
D22*
X121595895Y-141002005D02*
X120011681Y-140522181D01*
X122092358Y-141242142D02*
X121595895Y-141002005D01*
X116967000Y-141224000D02*
X117916166Y-140738066D01*
X117916166Y-140738066D02*
X118287362Y-140575862D01*
X116787640Y-136853640D02*
X116197697Y-138790997D01*
X116197697Y-138790997D02*
X115951000Y-139954000D01*
D23*
X102719174Y-123201126D02*
X103319166Y-123718734D01*
X104022147Y-124107953D02*
X103319166Y-123718734D01*
X104670758Y-124297542D02*
X105249937Y-124404163D01*
X106362500Y-124420000D02*
X105249937Y-124404163D01*
X104670758Y-124297542D02*
X104022147Y-124107953D01*
X102271606Y-122353294D02*
X102569856Y-122994844D01*
X102719174Y-123201126D02*
X102569856Y-122994844D01*
X102271606Y-122353294D02*
X102171500Y-121602500D01*
X107309954Y-124401546D02*
X106362500Y-124420000D01*
X111442500Y-112420400D02*
X112585500Y-112649000D01*
X109896861Y-111857839D02*
X111442500Y-112420400D01*
D22*
X115970791Y-98062309D02*
X115900816Y-97421084D01*
X115970791Y-98062309D02*
X115915114Y-99455914D01*
X114493238Y-94637662D02*
X113895561Y-94066939D01*
D23*
X110929420Y-85389720D02*
X111647038Y-84735738D01*
X110929420Y-85389720D02*
X110045500Y-86487000D01*
X112998900Y-84030200D02*
X112134915Y-84410815D01*
X112134915Y-84410815D02*
X111647038Y-84735738D01*
X113888641Y-83815041D02*
X112998900Y-84030200D01*
X115788948Y-83689952D02*
X114800673Y-83698373D01*
X113888641Y-83815041D02*
X114800673Y-83698373D01*
X116700300Y-83769200D02*
X115788948Y-83689952D01*
X116945627Y-83828673D02*
X116700300Y-83769200D01*
X119897369Y-94084931D02*
X120823611Y-94631889D01*
X119440739Y-93576361D02*
X119897369Y-94084931D01*
D24*
X114717275Y-90955575D02*
X115373150Y-91878150D01*
X116967000Y-93472000D02*
X115373150Y-91878150D01*
D22*
X116999456Y-82098444D02*
X116310833Y-81313867D01*
X116310833Y-81313867D02*
X116039900Y-80772000D01*
X117360700Y-82346800D02*
X116999456Y-82098444D01*
X115942419Y-75848519D02*
X115633500Y-77927200D01*
X115633500Y-79146400D02*
X115633500Y-77927200D01*
X115942419Y-75848519D02*
X116090700Y-75387200D01*
X123090895Y-74152805D02*
X121302917Y-73766817D01*
X120530140Y-73652860D02*
X121302917Y-73766817D01*
X120530140Y-73652860D02*
X118930671Y-73604371D01*
X118930671Y-73604371D02*
X118346839Y-73655539D01*
X131298648Y-74821748D02*
X129849563Y-75166537D01*
X129413000Y-75184000D02*
X129849563Y-75166537D01*
X131298648Y-74821748D02*
X131953000Y-74549000D01*
D23*
X129818021Y-73569721D02*
X128460500Y-73596500D01*
X132875408Y-70078988D02*
X132262872Y-71645772D01*
X133125633Y-68622333D02*
X132875408Y-70078988D01*
X133159500Y-67945000D02*
X133125633Y-68622333D01*
X105727500Y-73850500D02*
X105764305Y-72172805D01*
X107698042Y-71033142D02*
X107505500Y-72821800D01*
X107505500Y-73469500D02*
X107505500Y-72821800D01*
X107698042Y-71033142D02*
X107878746Y-70137154D01*
X116379161Y-66665939D02*
X115923291Y-66786991D01*
X126866122Y-52445178D02*
X126865062Y-53268562D01*
X126784393Y-52069707D02*
X126866122Y-52445178D01*
D22*
X124088170Y-54631870D02*
X124367492Y-53920592D01*
X125095000Y-52705000D02*
X124367492Y-53920592D01*
X124088170Y-54631870D02*
X123825000Y-55880000D01*
D23*
X131290367Y-50840333D02*
X131626184Y-52409516D01*
X130861755Y-49973545D02*
X131290367Y-50840333D01*
D24*
X139179522Y-79984378D02*
X139846829Y-80790271D01*
X139846829Y-80790271D02*
X140751516Y-81625484D01*
X139179522Y-79984378D02*
X138936395Y-79597585D01*
D22*
X144815791Y-79555109D02*
X146045183Y-79900517D01*
X146045183Y-79900517D02*
X146875500Y-80073500D01*
X144335500Y-79375000D02*
X144815791Y-79555109D01*
X142110471Y-77409029D02*
X141636829Y-76727129D01*
X144335500Y-79375000D02*
X142854895Y-78239405D01*
X142854895Y-78239405D02*
X142110471Y-77409029D01*
D23*
X142589734Y-80638166D02*
X141541172Y-79934128D01*
X141037945Y-79403575D02*
X141541172Y-79934128D01*
X142589734Y-80638166D02*
X142956133Y-80795007D01*
D22*
X134168418Y-71239918D02*
X133811591Y-72313111D01*
X134638747Y-68509847D02*
X134425107Y-70125007D01*
X134168418Y-71239918D02*
X134425107Y-70125007D01*
X134658462Y-67701522D02*
X134638747Y-68509847D01*
D23*
X130860667Y-73189967D02*
X129818021Y-73569721D01*
X110348418Y-67206518D02*
X111213899Y-67005199D01*
X111823500Y-66929000D02*
X111213899Y-67005199D01*
X110348418Y-67206518D02*
X109751361Y-67473061D01*
X120459500Y-54864000D02*
X119824500Y-54737000D01*
X121427010Y-55268090D02*
X120459500Y-54864000D01*
X121427010Y-55268090D02*
X121856500Y-55626000D01*
X128893789Y-48360111D02*
X128409700Y-48209200D01*
X126448575Y-51491125D02*
X126784393Y-52069707D01*
X126448575Y-51491125D02*
X126096618Y-51157282D01*
X125719610Y-50975490D02*
X125105492Y-50827608D01*
X125105492Y-50827608D02*
X124179975Y-50762525D01*
X126096618Y-51157282D02*
X125719610Y-50975490D01*
D24*
X127783723Y-49978177D02*
X127349250Y-49752250D01*
X128314450Y-50336450D02*
X127783723Y-49978177D01*
X128524000Y-50546000D02*
X128314450Y-50336450D01*
D23*
X129557311Y-48661789D02*
X128893789Y-48360111D01*
X130066815Y-49066685D02*
X130861755Y-49973545D01*
X130066815Y-49066685D02*
X129557311Y-48661789D01*
D24*
X116067254Y-50827354D02*
X115080562Y-51948862D01*
X115080562Y-51948862D02*
X114517714Y-52795714D01*
X116498077Y-50458077D02*
X116067254Y-50827354D01*
D23*
X118509983Y-48151983D02*
X117701380Y-48346680D01*
X120967500Y-118872000D02*
X120967500Y-120650000D01*
X117431564Y-114483136D02*
X117814725Y-114595275D01*
X113049326Y-114026674D02*
X115271080Y-114217920D01*
X109982000Y-113474500D02*
X112331500Y-113919000D01*
X108774095Y-113082205D02*
X109982000Y-113474500D01*
X102235000Y-104076500D02*
X102565570Y-103835570D01*
X101346000Y-111887000D02*
X101536500Y-110553500D01*
X115271080Y-114217920D02*
X117431564Y-114483136D01*
X101600000Y-108204000D02*
X101600000Y-106807000D01*
X101986287Y-104399287D02*
X102235000Y-104076500D01*
X99695000Y-113030000D02*
X100549604Y-112805104D01*
X101663058Y-105473058D02*
X101722361Y-105097139D01*
X100549604Y-112805104D02*
X101079300Y-112382300D01*
X102565570Y-103835570D02*
X103079258Y-103613242D01*
X101079300Y-112382300D02*
X101346000Y-111887000D01*
X112331500Y-113919000D02*
X113049326Y-114026674D01*
X101722361Y-105097139D02*
X101986287Y-104399287D01*
X105153452Y-104460048D02*
X105335219Y-105043119D01*
X117814725Y-114595275D02*
X118251287Y-114793713D01*
X105335219Y-105043119D02*
X105410000Y-105752900D01*
X101600000Y-106807000D02*
X101663058Y-105473058D01*
X101536500Y-110553500D02*
X101600000Y-108204000D01*
D24*
X129476500Y-136461500D02*
X128338133Y-135656767D01*
X128338133Y-135656767D02*
X127901871Y-135305629D01*
D22*
X151181518Y-128969218D02*
X150774847Y-129299147D01*
X154765688Y-127981388D02*
X156593488Y-127929588D01*
X159385000Y-128000000D02*
X156593488Y-127929588D01*
X154765688Y-127981388D02*
X153857310Y-128089010D01*
X164828817Y-138536083D02*
X166325550Y-140417550D01*
X166751000Y-140843000D02*
X166325550Y-140417550D01*
X170635414Y-143118086D02*
X169194975Y-142526525D01*
X169194975Y-142526525D02*
X168275000Y-142049500D01*
X172045000Y-143510000D02*
X170635414Y-143118086D01*
X173720543Y-143792157D02*
X175221900Y-143891000D01*
X175958500Y-143891000D02*
X175221900Y-143891000D01*
X172045000Y-143510000D02*
X173720543Y-143792157D01*
X163842700Y-136067800D02*
X164269420Y-137510520D01*
X164828817Y-138536083D02*
X164269420Y-137510520D01*
X163475812Y-134199488D02*
X163761420Y-135742680D01*
X163842700Y-136067800D02*
X163761420Y-135742680D01*
X163475812Y-134199488D02*
X163385500Y-133477000D01*
X192602470Y-123501770D02*
X192091497Y-123574997D01*
X191681100Y-112395000D02*
X190683242Y-112275258D01*
X189420500Y-112014000D02*
X190683242Y-112275258D01*
X193040000Y-112395000D02*
X191681100Y-112395000D01*
X188078435Y-111552665D02*
X189420500Y-112014000D01*
X185176583Y-109450717D02*
X183962173Y-107363127D01*
X183705500Y-106807000D02*
X183962173Y-107363127D01*
X187244567Y-98916067D02*
X187964798Y-98518698D01*
X171196577Y-87692923D02*
X172141030Y-89478970D01*
X170481924Y-86693076D02*
X171196577Y-87692923D01*
D23*
X168105032Y-92841868D02*
X168313100Y-93497400D01*
X168463546Y-94185154D02*
X168761389Y-96325711D01*
X168844737Y-97407237D02*
X168761389Y-96325711D01*
X168463546Y-94185154D02*
X168313100Y-93497400D01*
D24*
X167685047Y-88461253D02*
X167942267Y-88788233D01*
X166677798Y-87487302D02*
X167685047Y-88461253D01*
D23*
X167366406Y-96425294D02*
X167112010Y-94912510D01*
X167422231Y-98016731D02*
X167366406Y-96425294D01*
X167048039Y-94645339D02*
X166839900Y-93599000D01*
X166839900Y-93599000D02*
X166306500Y-92481400D01*
X167112010Y-94912510D02*
X167048039Y-94645339D01*
D22*
X173279281Y-94920281D02*
X173352334Y-97500566D01*
X173352334Y-97500566D02*
X173332150Y-98656150D01*
X172728979Y-101926479D02*
X172314626Y-102718626D01*
D24*
X164677316Y-104771416D02*
X165252734Y-104203834D01*
X166124546Y-103704046D02*
X165252734Y-104203834D01*
D23*
X163289114Y-104297614D02*
X162929704Y-105248844D01*
X163589138Y-103835638D02*
X163289114Y-104297614D01*
X165269402Y-100969302D02*
X164925778Y-101108278D01*
X167373300Y-98856800D02*
X167368421Y-99232921D01*
X167250062Y-99571762D02*
X167380904Y-98950796D01*
X167380904Y-98950796D02*
X167368421Y-99232921D01*
X167422231Y-98016731D02*
X167380904Y-98950796D01*
X167368421Y-99232921D02*
X167250062Y-99571762D01*
X167250062Y-99571762D02*
X166931376Y-100116676D01*
X166931376Y-100116676D02*
X166406849Y-100506549D01*
X166406849Y-100506549D02*
X165269402Y-100969302D01*
X166651281Y-101953719D02*
X165608254Y-102400354D01*
X165608254Y-102400354D02*
X165174670Y-102640390D01*
X168500608Y-100301608D02*
X167783124Y-101235124D01*
D22*
X169275000Y-106680000D02*
X169646807Y-107683093D01*
X170815000Y-114975000D02*
X171851758Y-115180942D01*
X173107314Y-115906586D02*
X173541356Y-116318364D01*
X172475665Y-115471435D02*
X173107314Y-115906586D01*
X171851758Y-115180942D02*
X172475665Y-115471435D01*
D23*
X143423845Y-121719545D02*
X145269548Y-121711048D01*
X145269548Y-121711048D02*
X148533244Y-121583056D01*
X139700000Y-119380000D02*
X140281630Y-120563670D01*
X140530218Y-120848482D02*
X140974055Y-121192045D01*
X140974055Y-121192045D02*
X141240328Y-121332172D01*
X140281630Y-120563670D02*
X140530218Y-120848482D01*
X141240328Y-121332172D02*
X142034369Y-121554131D01*
X142034369Y-121554131D02*
X143423845Y-121719545D01*
X135345536Y-120470564D02*
X135741576Y-120938124D01*
X135741576Y-120938124D02*
X136449113Y-121614887D01*
X134620000Y-119380000D02*
X135345536Y-120470564D01*
X136449113Y-121614887D02*
X137040961Y-122026339D01*
X103412131Y-116963031D02*
X103215527Y-117985627D01*
X102933500Y-118872000D02*
X103215527Y-117985627D01*
X103412131Y-116963031D02*
X103505000Y-115570000D01*
X109641640Y-115110260D02*
X110828992Y-115108892D01*
X110828992Y-115108892D02*
X112839500Y-115252500D01*
X109641640Y-115110260D02*
X108775500Y-115189000D01*
X110569807Y-110633307D02*
X111442500Y-110998000D01*
X110331117Y-110458383D02*
X110569807Y-110633307D01*
X108952212Y-111151488D02*
X109403713Y-111563587D01*
X109896861Y-111857839D02*
X109403713Y-111563587D01*
X108205532Y-109920032D02*
X108578490Y-110687010D01*
X108578490Y-110687010D02*
X108952212Y-111151488D01*
X108096050Y-108375450D02*
X108093284Y-109064016D01*
X108205532Y-109920032D02*
X108093284Y-109064016D01*
X105508459Y-108778641D02*
X105410000Y-107353100D01*
X105410000Y-105752900D02*
X105410000Y-107353100D01*
X105581731Y-109111769D02*
X106065654Y-110421754D01*
X106065654Y-110421754D02*
X106383291Y-111167709D01*
X105508459Y-108778641D02*
X105581731Y-109111769D01*
X108110670Y-112729630D02*
X108774095Y-113082205D01*
X104624959Y-112633941D02*
X103957804Y-111015096D01*
X105219500Y-113474500D02*
X104624959Y-112633941D01*
X103957804Y-111015096D02*
X103571040Y-108709460D01*
X103571040Y-108709460D02*
X103505000Y-107950000D01*
X117348000Y-100203000D02*
X118110000Y-101600000D01*
X117222672Y-99379172D02*
X117348000Y-100203000D01*
X117284500Y-97472500D02*
X117222672Y-99379172D01*
X117259100Y-97066100D02*
X117284500Y-97472500D01*
X114109500Y-87020400D02*
X113245900Y-87503000D01*
X112839500Y-87884000D02*
X112610900Y-88315800D01*
X113245900Y-87503000D02*
X112839500Y-87884000D01*
X113040125Y-90782175D02*
X113376605Y-91410895D01*
X112610900Y-88315800D02*
X112509300Y-89103200D01*
X114144778Y-92484222D02*
X114427000Y-92837000D01*
X113376605Y-91410895D02*
X114144778Y-92484222D01*
X115965653Y-94155847D02*
X116566491Y-94952009D01*
X114427000Y-92837000D02*
X115965653Y-94155847D01*
X116566491Y-94952009D02*
X116955342Y-95619342D01*
X116955342Y-95619342D02*
X117141925Y-96154575D01*
X117141925Y-96154575D02*
X117259100Y-97066100D01*
X118745000Y-88900000D02*
X118478300Y-88011000D01*
X118300500Y-87731600D02*
X117878860Y-87289640D01*
X117878860Y-87289640D02*
X117665500Y-87147400D01*
X118478300Y-88011000D02*
X118300500Y-87731600D01*
D22*
X119201437Y-86576663D02*
X119836912Y-87287388D01*
X119836912Y-87287388D02*
X120043748Y-87601252D01*
X118761580Y-86216420D02*
X119201437Y-86576663D01*
D23*
X121656566Y-87525134D02*
X121270643Y-86768057D01*
X121656566Y-87525134D02*
X121904760Y-88242140D01*
X121270643Y-86768057D02*
X120967500Y-86296500D01*
X120967500Y-86296500D02*
X120516161Y-85769939D01*
X118379912Y-84375588D02*
X116945627Y-83828673D01*
D22*
X124127834Y-90184666D02*
X124228325Y-91602025D01*
X124228325Y-91602025D02*
X124139353Y-92122653D01*
X124127834Y-90184666D02*
X123644356Y-88255144D01*
X115025716Y-95324384D02*
X115661125Y-96543175D01*
X115661125Y-96543175D02*
X115900816Y-97421084D01*
X115025716Y-95324384D02*
X114493238Y-94637662D01*
X111034742Y-89244258D02*
X111184267Y-90402833D01*
X111160605Y-88389505D02*
X111034742Y-89244258D01*
X111588294Y-87394794D02*
X111160605Y-88389505D01*
X116090700Y-75387200D02*
X116576289Y-74602789D01*
X116968969Y-74258869D02*
X117726368Y-73847868D01*
X118346839Y-73655539D02*
X117726368Y-73847868D01*
X116576289Y-74602789D02*
X116968969Y-74258869D01*
X124537490Y-74535010D02*
X126523749Y-74961751D01*
X126523749Y-74961751D02*
X128016000Y-75184000D01*
X124537490Y-74535010D02*
X123090895Y-74152805D01*
D23*
X131282255Y-72900355D02*
X131977802Y-72122702D01*
X132262872Y-71645772D02*
X131977802Y-72122702D01*
X130860667Y-73189967D02*
X131282255Y-72900355D01*
X128867768Y-69849132D02*
X129222500Y-70358000D01*
X128867768Y-69849132D02*
X128655884Y-69654616D01*
X128626152Y-68745652D02*
X128807633Y-66742733D01*
X128841500Y-66167000D02*
X128807633Y-66742733D01*
X128626152Y-68745652D02*
X128460500Y-69532500D01*
X124441153Y-60940747D02*
X124051785Y-60869285D01*
X126174500Y-62103000D02*
X125964675Y-61830225D01*
X125183175Y-61240125D02*
X125759120Y-61629380D01*
X125964675Y-61830225D02*
X125759120Y-61629380D01*
X125183175Y-61240125D02*
X124441153Y-60940747D01*
X122095012Y-64551312D02*
X120903637Y-64731537D01*
X120269000Y-64770000D02*
X120903637Y-64731537D01*
X122863208Y-64252708D02*
X122095012Y-64551312D01*
X117578491Y-60796791D02*
X117017800Y-62471300D01*
X116713000Y-63182500D02*
X117017800Y-62471300D01*
X117578491Y-60796791D02*
X117882737Y-59526237D01*
X117970300Y-65684400D02*
X117108924Y-66296224D01*
X117108924Y-66296224D02*
X116379161Y-66665939D01*
X112141000Y-65214500D02*
X111125000Y-65278000D01*
X112141000Y-65214500D02*
X112458500Y-65151000D01*
X106870500Y-101727000D02*
X106187723Y-101399823D01*
X108024632Y-102757268D02*
X107320444Y-102064456D01*
X107320444Y-102064456D02*
X106870500Y-101727000D01*
X108024632Y-102757268D02*
X108338584Y-103154516D01*
X121359837Y-106818337D02*
X122205839Y-106432261D01*
X122205839Y-106432261D02*
X123040987Y-106264287D01*
X121149928Y-106989428D02*
X120816976Y-107443876D01*
X120816976Y-107443876D02*
X120705197Y-107840097D01*
X121149928Y-106989428D02*
X121359837Y-106818337D01*
X128192038Y-107380262D02*
X128830387Y-108062713D01*
X127625961Y-107006539D02*
X126622835Y-106561865D01*
X126622835Y-106561865D02*
X125857000Y-106362500D01*
X127625961Y-107006539D02*
X128192038Y-107380262D01*
X129438540Y-109309040D02*
X129560000Y-110167100D01*
X129560000Y-111760000D02*
X129560000Y-110167100D01*
X129560000Y-110167100D02*
X129540000Y-111760000D01*
X153872898Y-117893798D02*
X152273000Y-118110000D01*
X155116680Y-117664380D02*
X153872898Y-117893798D01*
D24*
X162649669Y-120269769D02*
X162890943Y-119595157D01*
D23*
X161644326Y-119010426D02*
X161477785Y-119453485D01*
X156867858Y-117058442D02*
X155634054Y-117530246D01*
X155634054Y-117530246D02*
X155116680Y-117664380D01*
X156953324Y-117011824D02*
X156867858Y-117058442D01*
X157275479Y-107862421D02*
X156374124Y-106757176D01*
X156374124Y-106757176D02*
X155765500Y-106235500D01*
X157275479Y-107862421D02*
X157626539Y-108501961D01*
X160974144Y-107491156D02*
X160912991Y-108144491D01*
X161217115Y-105851185D02*
X160974144Y-107491156D01*
X164925778Y-101108278D02*
X164606561Y-101267939D01*
X164606561Y-101267939D02*
X163123637Y-102277937D01*
X163123637Y-102277937D02*
X162516585Y-102915485D01*
D24*
X164677316Y-104771416D02*
X164219315Y-105685015D01*
X164219315Y-105685015D02*
X163764931Y-107702051D01*
D23*
X161589922Y-104605022D02*
X161217115Y-105851185D01*
X162101870Y-103542170D02*
X161589922Y-104605022D01*
X162516585Y-102915485D02*
X162101870Y-103542170D01*
D22*
X173272359Y-99320259D02*
X172891358Y-101466742D01*
X172891358Y-101466742D02*
X172728979Y-101926479D01*
X173332150Y-98656150D02*
X173272359Y-99320259D01*
D23*
X167051396Y-90568104D02*
X167630271Y-91716429D01*
X167630271Y-91716429D02*
X168105032Y-92841868D01*
X157927312Y-76964812D02*
X157823730Y-78586770D01*
X157927312Y-76964812D02*
X158184428Y-74819088D01*
X157868871Y-79370171D02*
X158155790Y-81124910D01*
X158396492Y-82248188D02*
X158155790Y-81124910D01*
X157868871Y-79370171D02*
X157823730Y-78586770D01*
D22*
X193664052Y-68696052D02*
X194310000Y-66992500D01*
X194310000Y-66992500D02*
X194945000Y-65047500D01*
X194119500Y-48641000D02*
X194475100Y-47777400D01*
X194475100Y-47777400D02*
X194945000Y-46355000D01*
X194855547Y-55778953D02*
X194945000Y-56515000D01*
X187896500Y-62230000D02*
X187325000Y-63500000D01*
X189039500Y-60325000D02*
X188404500Y-61341000D01*
X189738000Y-59626500D02*
X189039500Y-60325000D01*
X191653492Y-58468592D02*
X190312989Y-59185489D01*
X193154300Y-58140600D02*
X191653492Y-58468592D01*
X193814700Y-58140600D02*
X193154300Y-58140600D01*
X188404500Y-61341000D02*
X187896500Y-62230000D01*
X190312989Y-59185489D02*
X189738000Y-59626500D01*
X195008500Y-58318400D02*
X193814700Y-58140600D01*
X195567300Y-58470800D02*
X195008500Y-58318400D01*
X201041000Y-98679000D02*
X200862157Y-95593943D01*
X199622610Y-92642490D02*
X199991994Y-93085906D01*
X199622610Y-92642490D02*
X199137336Y-92289564D01*
X198190273Y-91839627D02*
X199137336Y-92289564D01*
X198190273Y-91839627D02*
X197294500Y-91567000D01*
X191915399Y-90342101D02*
X192771548Y-90679752D01*
X192771548Y-90679752D02*
X193738500Y-90932000D01*
X191135000Y-89892500D02*
X191915399Y-90342101D01*
X200342500Y-67310000D02*
X200367900Y-63068200D01*
X200367900Y-63068200D02*
X200164700Y-60934600D01*
X200164700Y-60934600D02*
X199555100Y-59004200D01*
X199555100Y-59004200D02*
X198640700Y-56616600D01*
X196290045Y-53811055D02*
X197667605Y-55303695D01*
X196290045Y-53811055D02*
X194564000Y-52324000D01*
X198640700Y-56616600D02*
X197667605Y-55303695D01*
X164704540Y-47039040D02*
X164831648Y-47042452D01*
X164290223Y-54803523D02*
X162877500Y-55245000D01*
X164899184Y-54701284D02*
X164290223Y-54803523D01*
X166199502Y-54706202D02*
X164899184Y-54701284D01*
X167078559Y-55107941D02*
X166199502Y-54706202D01*
X167344233Y-55426467D02*
X167658586Y-56077314D01*
X167344233Y-55426467D02*
X167078559Y-55107941D01*
X167658586Y-56077314D02*
X167695966Y-56522534D01*
X92724982Y-60581282D02*
X92405200Y-61264800D01*
X93248319Y-59860019D02*
X92724982Y-60581282D01*
X93248319Y-59860019D02*
X94297500Y-58825000D01*
X92265500Y-62585600D02*
X92424827Y-63670873D01*
X92265500Y-62585600D02*
X92265500Y-62103000D01*
X92646500Y-64262000D02*
X92424827Y-63670873D01*
X100196650Y-90836750D02*
X99625639Y-92627939D01*
X100330000Y-90170000D02*
X100196650Y-90836750D01*
X99211424Y-93559924D02*
X98065166Y-95461666D01*
X97726500Y-95885000D02*
X98065166Y-95461666D01*
X99625639Y-92627939D02*
X99211424Y-93559924D01*
X93408500Y-122999500D02*
X94932500Y-126365000D01*
X93077568Y-117271068D02*
X92964000Y-119126000D01*
X99441647Y-105245547D02*
X99291589Y-105749911D01*
X99695000Y-102870000D02*
X99695000Y-104000300D01*
X99291589Y-105749911D02*
X98806000Y-106870500D01*
X99695000Y-104000300D02*
X99441647Y-105245547D01*
X97790000Y-108331000D02*
X96583500Y-109474000D01*
X93769376Y-112946376D02*
X93406633Y-114552133D01*
X93406633Y-114552133D02*
X93359942Y-114822942D01*
X98806000Y-106870500D02*
X97790000Y-108331000D01*
X93359942Y-114822942D02*
X93077568Y-117271068D01*
X95597662Y-110240762D02*
X94420526Y-111679826D01*
X94420526Y-111679826D02*
X93769376Y-112946376D01*
X96583500Y-109474000D02*
X95597662Y-110240762D01*
X93316425Y-122723275D02*
X93408500Y-122999500D01*
X93066317Y-121296983D02*
X92964000Y-119824500D01*
X92964000Y-119126000D02*
X92964000Y-119824500D01*
X93316425Y-122723275D02*
X93066317Y-121296983D01*
X99622263Y-130387437D02*
X100709108Y-131942192D01*
X101219000Y-132842000D02*
X100709108Y-131942192D01*
X99622263Y-130387437D02*
X99123500Y-129857500D01*
X119376744Y-145418256D02*
X105092861Y-145415361D01*
X103594673Y-145338027D02*
X105092861Y-145415361D01*
X102676739Y-145221739D02*
X103594673Y-145338027D01*
X99899838Y-144003662D02*
X101359168Y-144804932D01*
X101949988Y-145001512D02*
X101359168Y-144804932D01*
X150687314Y-142441386D02*
X150816156Y-144039744D01*
X150816156Y-144039744D02*
X150822132Y-145424632D01*
X191750000Y-138747500D02*
X190286394Y-141251694D01*
X174625000Y-63588900D02*
X174761508Y-62531608D01*
X174861264Y-62148764D02*
X174761508Y-62531608D01*
X174625000Y-64770000D02*
X174625000Y-63588900D01*
X188776004Y-80660904D02*
X186806723Y-81930123D01*
X186806723Y-81930123D02*
X185661300Y-82550000D01*
X189369700Y-80213200D02*
X188776004Y-80660904D01*
X185661300Y-82550000D02*
X184586034Y-83087634D01*
X195690968Y-69643468D02*
X195375297Y-70889897D01*
X195910200Y-68376800D02*
X195690968Y-69643468D01*
X196614857Y-65677857D02*
X196117744Y-67292956D01*
X196117744Y-67292956D02*
X195910200Y-68376800D01*
X196614857Y-65677857D02*
X197045035Y-64190335D01*
X197231000Y-63334900D02*
X197045035Y-64190335D01*
X197328104Y-62746204D02*
X197231000Y-63334900D01*
X195567300Y-58470800D02*
X196251155Y-58853745D01*
X190786501Y-73550261D02*
X191611541Y-72549041D01*
X192530203Y-71194403D02*
X191611541Y-72549041D01*
X192530203Y-71194403D02*
X192901507Y-70496367D01*
X182612425Y-83742925D02*
X184586034Y-83087634D01*
X180340000Y-84137500D02*
X182612425Y-83742925D01*
D24*
X165171877Y-86631023D02*
X166048655Y-87100445D01*
X166048655Y-87100445D02*
X166677798Y-87487302D01*
X165171877Y-86631023D02*
X164084000Y-86169500D01*
D23*
X155618035Y-85504165D02*
X156705137Y-85890263D01*
X157759400Y-86169500D02*
X156705137Y-85890263D01*
X155618035Y-85504165D02*
X154470022Y-85013878D01*
X145804891Y-86059009D02*
X147021107Y-86646193D01*
X147268314Y-86792686D02*
X148114455Y-87457845D01*
X148114455Y-87457845D02*
X148540439Y-87870061D01*
X147021107Y-86646193D02*
X147268314Y-86792686D01*
X148998568Y-88516832D02*
X149419896Y-89365504D01*
X149419896Y-89365504D02*
X149669500Y-90043000D01*
X148540439Y-87870061D02*
X148998568Y-88516832D01*
D24*
X146909589Y-92574311D02*
X146433944Y-91576756D01*
X146247921Y-91066421D02*
X146433944Y-91576756D01*
X146909589Y-92574311D02*
X147193000Y-92964000D01*
D22*
X172452587Y-47600313D02*
X180136800Y-48475900D01*
X180136800Y-48475900D02*
X186093100Y-49504600D01*
X190340580Y-50248220D02*
X187283456Y-49691656D01*
X186093100Y-49504600D02*
X187283456Y-49691656D01*
X190340580Y-50248220D02*
X192405000Y-50800000D01*
X171174128Y-47456372D02*
X167094922Y-47154078D01*
X171174128Y-47456372D02*
X172452587Y-47600313D01*
X167094922Y-47154078D02*
X164831648Y-47042452D01*
X183129610Y-52302990D02*
X182428111Y-51963089D01*
X183129610Y-52302990D02*
X183645515Y-52637985D01*
X182245000Y-54556660D02*
X182096668Y-54136032D01*
X181849223Y-53748477D02*
X181460813Y-53362187D01*
X182096668Y-54136032D02*
X181849223Y-53748477D01*
X180448016Y-52939884D02*
X179971068Y-52819932D01*
X181460813Y-53362187D02*
X180789678Y-53042722D01*
X180789678Y-53042722D02*
X180448016Y-52939884D01*
X178103484Y-52551284D02*
X177090615Y-52567115D01*
X178912513Y-52633887D02*
X178103484Y-52551284D01*
X179633167Y-52776833D02*
X178912513Y-52633887D01*
X184785000Y-55880000D02*
X184785000Y-54648100D01*
X184434996Y-53613804D02*
X184730572Y-54359628D01*
X184785000Y-54648100D02*
X184730572Y-54359628D01*
X184197449Y-53229051D02*
X184434996Y-53613804D01*
X173885390Y-52117790D02*
X175073148Y-51616448D01*
X175073148Y-51616448D02*
X175895000Y-51435000D01*
X173885390Y-52117790D02*
X173209305Y-52559305D01*
X177245819Y-51299919D02*
X179066093Y-51350007D01*
X177245819Y-51299919D02*
X175895000Y-51435000D01*
X180086000Y-51435000D02*
X179066093Y-51350007D01*
X182132554Y-51864946D02*
X180662981Y-51518419D01*
X180662981Y-51518419D02*
X180086000Y-51435000D01*
X182428111Y-51963089D02*
X182132554Y-51864946D01*
D23*
X119467335Y-84939165D02*
X120182319Y-85456081D01*
X120516161Y-85769939D02*
X120182319Y-85456081D01*
X119467335Y-84939165D02*
X118379912Y-84375588D01*
X114486690Y-86922610D02*
X115139046Y-86830746D01*
X115703773Y-86811273D02*
X115139046Y-86830746D01*
X114486690Y-86922610D02*
X114109500Y-87020400D01*
X117325865Y-87029835D02*
X116782216Y-86900384D01*
X116782216Y-86900384D02*
X115703773Y-86811273D01*
X117665500Y-87147400D02*
X117325865Y-87029835D01*
D22*
X112752602Y-86196902D02*
X112016601Y-86870601D01*
X112016601Y-86870601D02*
X111588294Y-87394794D01*
X113473617Y-85736817D02*
X112752602Y-86196902D01*
D23*
X118173500Y-70040500D02*
X120140000Y-71200000D01*
X116395500Y-69405500D02*
X118173500Y-70040500D01*
X114427000Y-68961000D02*
X116395500Y-69405500D01*
X106562097Y-103381603D02*
X105962925Y-102964775D01*
X99970730Y-95843230D02*
X101672247Y-94649147D01*
X99288164Y-96557664D02*
X99970730Y-95843230D01*
X107670601Y-88557101D02*
X107796400Y-87971700D01*
X109557457Y-71190757D02*
X109921809Y-70310509D01*
X100330000Y-101092000D02*
X99377500Y-100584000D01*
X98853364Y-97316664D02*
X99288164Y-96557664D01*
X99086459Y-100356459D02*
X98754726Y-99936774D01*
X105962925Y-102964775D02*
X104661783Y-102386317D01*
X106819095Y-103683405D02*
X106562097Y-103381603D01*
X101854000Y-101600000D02*
X100330000Y-101092000D01*
X104661783Y-102386317D02*
X103782199Y-102122901D01*
X99377500Y-100584000D02*
X99086459Y-100356459D01*
X103782199Y-102122901D02*
X101854000Y-101600000D01*
X109464928Y-71745928D02*
X109557457Y-71190757D01*
X107315000Y-105410000D02*
X107091480Y-104236520D01*
X107091480Y-104236520D02*
X106819095Y-103683405D01*
X107611334Y-89209034D02*
X107670601Y-88557101D01*
X109869494Y-79706994D02*
X109904699Y-77722899D01*
X109904699Y-77722899D02*
X109789191Y-75922909D01*
X109789191Y-75922909D02*
X109728000Y-75311000D01*
X109728000Y-75311000D02*
X109610110Y-74654190D01*
X109921809Y-70310509D02*
X110231731Y-69782231D01*
X110231731Y-69782231D02*
X110477943Y-69545843D01*
X110477943Y-69545843D02*
X110866208Y-69248308D01*
X113178020Y-68880420D02*
X114427000Y-68961000D01*
X112220671Y-68868629D02*
X111477134Y-69033734D01*
X110866208Y-69248308D02*
X111477134Y-69033734D01*
X113178020Y-68880420D02*
X112220671Y-68868629D01*
X109610110Y-74654190D02*
X109573163Y-74399037D01*
X109443350Y-72867350D02*
X109573163Y-74399037D01*
X109443350Y-72867350D02*
X109464928Y-71745928D01*
X107808250Y-75935350D02*
X107988538Y-77723562D01*
X108013500Y-78422500D02*
X107988538Y-77723562D01*
X107808250Y-75935350D02*
X107749012Y-75638988D01*
X112591386Y-89694214D02*
X112792681Y-90313681D01*
X112792681Y-90313681D02*
X113040125Y-90782175D01*
X112509300Y-89103200D02*
X112591386Y-89694214D01*
D24*
X114383875Y-89946425D02*
X114717275Y-90955575D01*
X114300000Y-88900000D02*
X114383875Y-89946425D01*
D23*
X118745000Y-88900000D02*
X118606454Y-90499046D01*
X109250631Y-90406069D02*
X109519254Y-91242346D01*
X109519254Y-91242346D02*
X109703152Y-91718848D01*
X109156500Y-88900000D02*
X109250631Y-90406069D01*
X104324877Y-90786677D02*
X105091690Y-90080290D01*
X106045000Y-88900000D02*
X105091690Y-90080290D01*
X104324877Y-90786677D02*
X103187500Y-91480000D01*
X107187724Y-85038924D02*
X107696000Y-82613500D01*
X106717962Y-86982162D02*
X107187724Y-85038924D01*
X106045000Y-88900000D02*
X106717962Y-86982162D01*
X113243078Y-63725778D02*
X112890300Y-63068200D01*
X113243078Y-63725778D02*
X113347500Y-64770000D01*
X112613209Y-62735691D02*
X112890300Y-63068200D01*
X112343145Y-62523155D02*
X112613209Y-62735691D01*
X112343145Y-62523155D02*
X111881592Y-62324308D01*
X111881592Y-62324308D02*
X110807500Y-62190000D01*
X114084100Y-100812600D02*
X114300000Y-99060000D01*
X114152680Y-109494320D02*
X113572165Y-109635165D01*
X113572165Y-109635165D02*
X112812072Y-109691928D01*
X112333228Y-109599272D02*
X111760000Y-109283500D01*
X111279436Y-108557564D02*
X111250724Y-108268776D01*
X115570000Y-109220000D02*
X114152680Y-109494320D01*
X112812072Y-109691928D02*
X112333228Y-109599272D01*
X111760000Y-109283500D02*
X111442500Y-108966000D01*
X111250724Y-108268776D02*
X111246045Y-107982145D01*
X111442500Y-108966000D02*
X111279436Y-108557564D01*
X111246045Y-107982145D02*
X111381328Y-107253828D01*
X113239874Y-103803774D02*
X112736796Y-104646896D01*
X112149283Y-105481783D02*
X112736796Y-104646896D01*
X113636612Y-102854312D02*
X113239874Y-103803774D01*
X111705357Y-106391743D02*
X111381328Y-107253828D01*
X112149283Y-105481783D02*
X111705357Y-106391743D01*
X114051612Y-101059512D02*
X113770635Y-102404135D01*
X114051612Y-101059512D02*
X114084100Y-100812600D01*
X113770635Y-102404135D02*
X113636612Y-102854312D01*
X123560066Y-98753434D02*
X124113925Y-98783775D01*
X124714000Y-98869500D02*
X124113925Y-98783775D01*
X123560066Y-98753434D02*
X123030199Y-98775301D01*
X126322666Y-99800834D02*
X126812604Y-100225296D01*
X126322666Y-99800834D02*
X125730000Y-99060000D01*
X127081279Y-100388421D02*
X127598070Y-100585170D01*
X126812604Y-100225296D02*
X127081279Y-100388421D01*
X129006600Y-100774500D02*
X129413000Y-100774500D01*
X128002778Y-100686122D02*
X129006600Y-100774500D01*
X127598070Y-100585170D02*
X128002778Y-100686122D01*
X129990850Y-100857050D02*
X130550478Y-101034022D01*
X129413000Y-100774500D02*
X129990850Y-100857050D01*
X131260514Y-101670186D02*
X131579498Y-102646602D01*
X131579498Y-102646602D02*
X131650761Y-103045239D01*
X130550478Y-101034022D02*
X131083560Y-101440740D01*
X131083560Y-101440740D02*
X131260514Y-101670186D01*
X140818387Y-109181113D02*
X139969875Y-108823125D01*
X141166272Y-109404728D02*
X140818387Y-109181113D01*
X141904027Y-110750927D02*
X142420109Y-112456191D01*
X141904027Y-110750927D02*
X141605000Y-109982000D01*
X149382480Y-113327180D02*
X148251672Y-113847372D01*
X148071840Y-113908840D02*
X148251672Y-113847372D01*
X150441887Y-112405387D02*
X149687280Y-113123980D01*
X149687280Y-113123980D02*
X149382480Y-113327180D01*
D22*
X153777260Y-107169640D02*
X152128538Y-106659362D01*
X151384000Y-106553000D02*
X152128538Y-106659362D01*
X153777260Y-107169640D02*
X154534053Y-107530447D01*
X155580080Y-108465620D02*
X154908250Y-107791250D01*
X155580080Y-108465620D02*
X155829000Y-108839000D01*
X170061725Y-108157175D02*
X170852030Y-108789270D01*
X170852030Y-108789270D02*
X171577000Y-109220000D01*
X169646807Y-107683093D02*
X170061725Y-108157175D01*
X174842048Y-114148748D02*
X175647652Y-114814048D01*
X175647652Y-114814048D02*
X175950034Y-115146666D01*
X174056423Y-113687477D02*
X174842048Y-114148748D01*
X170668428Y-112528872D02*
X168707659Y-112025841D01*
X172652829Y-113135271D02*
X170668428Y-112528872D01*
X174056423Y-113687477D02*
X172652829Y-113135271D01*
X185038365Y-117183535D02*
X183991089Y-117125589D01*
X183991089Y-117125589D02*
X183451177Y-117157177D01*
X186690000Y-117475000D02*
X185038365Y-117183535D01*
X182320917Y-124828017D02*
X182140561Y-126075739D01*
X182028522Y-126593022D02*
X182140561Y-126075739D01*
X182320917Y-124828017D02*
X182377858Y-124065522D01*
X180697717Y-80329617D02*
X181318647Y-79782147D01*
X181318647Y-79782147D02*
X181738868Y-79249868D01*
X179861986Y-80801986D02*
X180697717Y-80329617D01*
X192405000Y-60960000D02*
X193459100Y-60426600D01*
X193459100Y-60426600D02*
X193865500Y-60299600D01*
X193865500Y-60299600D02*
X194945000Y-60047500D01*
X168478200Y-54729380D02*
X168252588Y-54187912D01*
X167932318Y-53695382D02*
X168252588Y-54187912D01*
X167257975Y-53023525D02*
X167932318Y-53695382D01*
X167257975Y-53023525D02*
X166573200Y-52527200D01*
X168766190Y-56849310D02*
X168660618Y-57954718D01*
X168766190Y-56849310D02*
X168741164Y-56023436D01*
X168275000Y-59690000D02*
X168660618Y-57954718D01*
X195297131Y-71129231D02*
X194170300Y-74498200D01*
X195375297Y-70889897D02*
X195297131Y-71129231D01*
X194170300Y-74498200D02*
X193205100Y-76581000D01*
X191047030Y-78994930D02*
X192318835Y-77752135D01*
X193205100Y-76581000D02*
X192318835Y-77752135D01*
X191047030Y-78994930D02*
X189369700Y-80213200D01*
X194179925Y-95894625D02*
X193454481Y-96464581D01*
X192519300Y-97053400D02*
X193454481Y-96464581D01*
X192184862Y-97201562D02*
X192519300Y-97053400D01*
X192184862Y-97201562D02*
X190936664Y-97604364D01*
X195306494Y-94608194D02*
X194820807Y-95240107D01*
X195306494Y-94608194D02*
X195897500Y-93642500D01*
X194179925Y-95894625D02*
X194820807Y-95240107D01*
X198045211Y-113066689D02*
X198008299Y-114404199D01*
X197900709Y-115116191D02*
X197485000Y-116522500D01*
X198008299Y-114404199D02*
X197900709Y-115116191D01*
X198045211Y-113066689D02*
X197858944Y-111576556D01*
X197376168Y-110230532D02*
X197858944Y-111576556D01*
X196726473Y-109089527D02*
X197376168Y-110230532D01*
D23*
X94978437Y-97759737D02*
X95285727Y-96797027D01*
X95878650Y-101593650D02*
X95236030Y-100658930D01*
X94996000Y-100076000D02*
X94832715Y-99341215D01*
X97536950Y-93536450D02*
X97949524Y-92296476D01*
X94927316Y-98013416D02*
X94978437Y-97759737D01*
X97155000Y-102870000D02*
X95878650Y-101593650D01*
X95285727Y-96797027D02*
X95542100Y-96291400D01*
X95236030Y-100658930D02*
X94996000Y-100076000D01*
X98319208Y-90783792D02*
X98369887Y-90178387D01*
X94831855Y-99211445D02*
X94927316Y-98013416D01*
X96778233Y-94682733D02*
X97536950Y-93536450D01*
X95542100Y-96291400D02*
X96778233Y-94682733D01*
X94832715Y-99341215D02*
X94831855Y-99211445D01*
X97949524Y-92296476D02*
X98319208Y-90783792D01*
X98369887Y-90178387D02*
X98298854Y-88583354D01*
X98298854Y-88583354D02*
X98180015Y-87557485D01*
X98180015Y-87557485D02*
X98082470Y-87160470D01*
X98082470Y-87160470D02*
X97995325Y-86294375D01*
X97995325Y-86294375D02*
X97986850Y-85578950D01*
X97986850Y-85578950D02*
X98006807Y-85319507D01*
X98006807Y-85319507D02*
X98218048Y-84159148D01*
X98218048Y-84159148D02*
X98364920Y-83587980D01*
X96414166Y-87100834D02*
X96520000Y-88900000D01*
X96715929Y-84333429D02*
X96481853Y-85763147D01*
X96481853Y-85763147D02*
X96414166Y-87100834D01*
X97081340Y-83047840D02*
X96715929Y-84333429D01*
X98412300Y-79959200D02*
X99047300Y-78587600D01*
X99047300Y-78587600D02*
X99504500Y-77241400D01*
X99504500Y-77241400D02*
X99834700Y-75692000D01*
X99834700Y-75692000D02*
X99987100Y-74117200D01*
X97261231Y-82389531D02*
X97081340Y-83047840D01*
X98256326Y-80209626D02*
X97423688Y-81942388D01*
X97423688Y-81942388D02*
X97261231Y-82389531D01*
X98256326Y-80209626D02*
X98412300Y-79959200D01*
X98364920Y-83587980D02*
X98753488Y-82637188D01*
X99957096Y-71166196D02*
X100005703Y-73768397D01*
X99957096Y-71166196D02*
X99853098Y-70339602D01*
X99987100Y-74117200D02*
X100005703Y-73768397D01*
X119089594Y-60529894D02*
X118745000Y-61595000D01*
X119853823Y-58881123D02*
X119089594Y-60529894D01*
X119853823Y-58881123D02*
X120967500Y-57190000D01*
X120967500Y-62190000D02*
X121567233Y-61254933D01*
X122027150Y-61003650D02*
X122783492Y-60795008D01*
X121567233Y-61254933D02*
X122027150Y-61003650D01*
X107796400Y-87971700D02*
X107935911Y-87501611D01*
X107935911Y-87501611D02*
X108419900Y-86004400D01*
X108419900Y-86004400D02*
X108877100Y-84709000D01*
X109708504Y-81400204D02*
X108942739Y-84495239D01*
X108877100Y-84709000D02*
X108942739Y-84495239D01*
X109708504Y-81400204D02*
X109869494Y-79706994D01*
X109972614Y-92224086D02*
X110569939Y-92998361D01*
X110569939Y-92998361D02*
X111488375Y-94010325D01*
X109703152Y-91718848D02*
X109972614Y-92224086D01*
X113281792Y-95645908D02*
X112121444Y-94571056D01*
X111488375Y-94010325D02*
X112121444Y-94571056D01*
X113998248Y-96637348D02*
X113439714Y-95818186D01*
X113439714Y-95818186D02*
X113281792Y-95645908D01*
X113998248Y-96637348D02*
X114272060Y-97525840D01*
D22*
X180330965Y-121840135D02*
X180145967Y-119713733D01*
X180145967Y-119713733D02*
X179628087Y-117691613D01*
X179628087Y-117691613D02*
X179178591Y-116490109D01*
X180340000Y-124460000D02*
X180330965Y-121840135D01*
X179178591Y-116490109D02*
X178691683Y-115656217D01*
X185880275Y-110194825D02*
X187294679Y-111168021D01*
X188078435Y-111552665D02*
X187294679Y-111168021D01*
X185880275Y-110194825D02*
X185176583Y-109450717D01*
X187964798Y-98518698D02*
X188775989Y-98186889D01*
X189586641Y-97930741D02*
X190936664Y-97604364D01*
X188775989Y-98186889D02*
X189586641Y-97930741D01*
X200715480Y-94877020D02*
X200357124Y-93863776D01*
X199991994Y-93085906D02*
X200357124Y-93863776D01*
X200715480Y-94877020D02*
X200862157Y-95593943D01*
D23*
X105219500Y-92608400D02*
X103644700Y-93599000D01*
X103644700Y-93599000D02*
X101672247Y-94649147D01*
X105219500Y-92608400D02*
X106235500Y-91668600D01*
X106235500Y-91668600D02*
X107048300Y-90576400D01*
X107611334Y-89209034D02*
X107420363Y-89881663D01*
X107048300Y-90576400D02*
X107420363Y-89881663D01*
D22*
X193447807Y-126013347D02*
X193077531Y-126069791D01*
X192120285Y-127027705D02*
X191770000Y-128270000D01*
X192813539Y-126227439D02*
X193077531Y-126069791D01*
X192281707Y-126747167D02*
X192813539Y-126227439D01*
X192120285Y-127027705D02*
X192281707Y-126747167D01*
X197116700Y-126365000D02*
X200342500Y-126365000D01*
X194310000Y-129776220D02*
X194262744Y-130668764D01*
X194040000Y-132397500D02*
X194262744Y-130668764D01*
X194310000Y-129776220D02*
X194310000Y-128270000D01*
X188922536Y-131145404D02*
X188990394Y-130186854D01*
X188990394Y-130186854D02*
X189230000Y-128270000D01*
X188960000Y-132397500D02*
X188922536Y-131145404D01*
X186789147Y-142641407D02*
X187549408Y-141943708D01*
X187549408Y-141943708D02*
X187745918Y-141708418D01*
X186789147Y-142641407D02*
X186197663Y-143017663D01*
X188710024Y-140036004D02*
X187959952Y-141368828D01*
X187959952Y-141368828D02*
X187745918Y-141708418D01*
X188710024Y-140036004D02*
X189250000Y-138747500D01*
X187945686Y-144420934D02*
X188628011Y-143835111D01*
X189613594Y-142499134D02*
X188869090Y-143558030D01*
X188869090Y-143558030D02*
X188628011Y-143835111D01*
X190286394Y-141251694D02*
X189613594Y-142499134D01*
X186253494Y-145163914D02*
X185098285Y-145319345D01*
X185098285Y-145319345D02*
X183943151Y-145431349D01*
X186253494Y-145163914D02*
X187387679Y-144714781D01*
X187945686Y-144420934D02*
X187387679Y-144714781D01*
X159622290Y-129904290D02*
X159175339Y-130206639D01*
X161744520Y-129971940D02*
X161187229Y-129780129D01*
X162297088Y-130369332D02*
X161744520Y-129971940D01*
X162636216Y-130776964D02*
X163195000Y-132080000D01*
X162297088Y-130369332D02*
X162636216Y-130776964D01*
X160915926Y-129754054D02*
X160194317Y-129782897D01*
X160194317Y-129782897D02*
X159622290Y-129904290D01*
X161187229Y-129780129D02*
X160915926Y-129754054D01*
X158435039Y-131279901D02*
X158115000Y-132080000D01*
X158902029Y-130492129D02*
X158435039Y-131279901D01*
X159175339Y-130206639D02*
X158902029Y-130492129D01*
X162636077Y-128617857D02*
X161503622Y-128201158D01*
X161503622Y-128201158D02*
X160751753Y-128046247D01*
X163887114Y-129449866D02*
X162636077Y-128617857D01*
X164901357Y-130132343D02*
X163887114Y-129449866D01*
X165459996Y-130369896D02*
X166169054Y-130591846D01*
X166169054Y-130591846D02*
X167241048Y-130855548D01*
X164901357Y-130132343D02*
X165459996Y-130369896D01*
X151690650Y-128690950D02*
X152795301Y-128307161D01*
X152795301Y-128307161D02*
X153857310Y-128089010D01*
X151181518Y-128969218D02*
X151690650Y-128690950D01*
X150774847Y-129299147D02*
X150266147Y-129918207D01*
X149535388Y-131732528D02*
X149479000Y-132334000D01*
X149655304Y-131202204D02*
X149950190Y-130430290D01*
X149950190Y-130430290D02*
X150266147Y-129918207D01*
X149535388Y-131732528D02*
X149655304Y-131202204D01*
X152964662Y-135415802D02*
X153289000Y-135318500D01*
X151793056Y-135453004D02*
X152441046Y-135461146D01*
X152441046Y-135461146D02*
X152964662Y-135415802D01*
X151193500Y-135382000D02*
X151793056Y-135453004D01*
X150316918Y-140819858D02*
X150676429Y-142376071D01*
X150676429Y-142376071D02*
X150687314Y-142441386D01*
X149860000Y-139620000D02*
X150316918Y-140819858D01*
X133350000Y-139700000D02*
X134457893Y-139459153D01*
X108355619Y-134282961D02*
X108307415Y-135777515D01*
X108267500Y-132080000D02*
X108355619Y-134282961D01*
X108177512Y-136556932D02*
X107764908Y-137592128D01*
X108177512Y-136556932D02*
X108307415Y-135777515D01*
X105283000Y-139382500D02*
X105875532Y-139152072D01*
X106760507Y-138680687D02*
X105875532Y-139152072D01*
X107517791Y-137934291D02*
X106760507Y-138680687D01*
X107517791Y-137934291D02*
X107764908Y-137592128D01*
X101655739Y-133977521D02*
X101219000Y-132842000D01*
X101917500Y-139470000D02*
X101917500Y-135661400D01*
X101825821Y-134848839D02*
X101917500Y-135661400D01*
X101655739Y-133977521D02*
X101825821Y-134848839D01*
D23*
X106613172Y-131360392D02*
X106918337Y-130979757D01*
X107039834Y-130788834D02*
X106918337Y-130979757D01*
X106613172Y-131360392D02*
X105727500Y-132080000D01*
X107309954Y-124401546D02*
X107576071Y-124317211D01*
X108059915Y-123951305D02*
X108495043Y-123331183D01*
X108495043Y-123331183D02*
X108726215Y-122734315D01*
X107576071Y-124317211D02*
X108059915Y-123951305D01*
X109108969Y-118382509D02*
X108970249Y-119081989D01*
X108970249Y-119081989D02*
X108949538Y-119332962D01*
X109259258Y-117984158D02*
X109108969Y-118382509D01*
X109510307Y-117584967D02*
X109259258Y-117984158D01*
X110172500Y-116840000D02*
X109510307Y-117584967D01*
X118251287Y-114793713D02*
X119057420Y-115234720D01*
X119491219Y-115588321D02*
X119910497Y-116063123D01*
X119057420Y-115234720D02*
X119491219Y-115588321D01*
X120946757Y-118643823D02*
X120746720Y-117766900D01*
X120946757Y-118643823D02*
X120967500Y-118872000D01*
X120628549Y-117415449D02*
X120746720Y-117766900D01*
X120461811Y-116954529D02*
X120628549Y-117415449D01*
X120137440Y-116369580D02*
X120461811Y-116954529D01*
X119910497Y-116063123D02*
X120137440Y-116369580D01*
X117224052Y-116641368D02*
X116426343Y-116174157D01*
X117224052Y-116641368D02*
X117636976Y-117097124D01*
X117636976Y-117097124D02*
X117888124Y-117531776D01*
X112690085Y-116400135D02*
X113361177Y-116526603D01*
X112690085Y-116400135D02*
X112312450Y-116376450D01*
X114309468Y-116934672D02*
X113669885Y-116619215D01*
X113669885Y-116619215D02*
X113361177Y-116526603D01*
X115001203Y-117604703D02*
X114500199Y-117063981D01*
X114309468Y-116934672D02*
X114500199Y-117063981D01*
X111263759Y-116458059D02*
X111713428Y-116389568D01*
X112312450Y-116376450D02*
X111713428Y-116389568D01*
X111263759Y-116458059D02*
X110172500Y-116840000D01*
X106362500Y-118216680D02*
X106464100Y-117535960D01*
X106362500Y-118216680D02*
X106362500Y-119420000D01*
X106743500Y-116713000D02*
X106486677Y-117436617D01*
X106464100Y-117535960D02*
X106486677Y-117436617D01*
X107315000Y-115570000D02*
X106743500Y-116713000D01*
X107582025Y-112400405D02*
X108110670Y-112729630D01*
X106632686Y-111515214D02*
X107582025Y-112400405D01*
X106383291Y-111167709D02*
X106632686Y-111515214D01*
X103968465Y-103572395D02*
X103493989Y-103557489D01*
X103079258Y-103613242D02*
X103493989Y-103557489D01*
X103968465Y-103572395D02*
X104355900Y-103632000D01*
X104868378Y-104044082D02*
X105153452Y-104460048D01*
X104563617Y-103758437D02*
X104868378Y-104044082D01*
X104355900Y-103632000D02*
X104563617Y-103758437D01*
D22*
X99695000Y-102870000D02*
X98991420Y-101782880D01*
X96520000Y-99060000D02*
X96843459Y-99937961D01*
X98755245Y-101541535D02*
X98165942Y-101084358D01*
X98991420Y-101782880D02*
X98755245Y-101541535D01*
X96989510Y-100167830D02*
X97564154Y-100710786D01*
X97564154Y-100710786D02*
X98165942Y-101084358D01*
X96843459Y-99937961D02*
X96989510Y-100167830D01*
D23*
X98462191Y-99223469D02*
X98432620Y-98856800D01*
X98473260Y-98450400D02*
X98626805Y-97926015D01*
X98626805Y-97926015D02*
X98853364Y-97316664D01*
X98432620Y-98856800D02*
X98473260Y-98450400D01*
X98462191Y-99223469D02*
X98660431Y-99777069D01*
X98754726Y-99936774D02*
X98660431Y-99777069D01*
X100940870Y-99670870D02*
X101527610Y-100008690D01*
X101981000Y-100203000D02*
X101527610Y-100008690D01*
X100940870Y-99670870D02*
X100330000Y-99060000D01*
X105941774Y-101299366D02*
X105156508Y-101012752D01*
X105156508Y-101012752D02*
X104863900Y-100939600D01*
X105941774Y-101299366D02*
X106187723Y-101399823D01*
D22*
X101941085Y-88700065D02*
X102415975Y-88280875D01*
X102415975Y-88280875D02*
X102616000Y-87947500D01*
X101600000Y-88836500D02*
X101941085Y-88700065D01*
X102640000Y-85725000D02*
X102684072Y-87675212D01*
X102616000Y-87947500D02*
X102684072Y-87675212D01*
D23*
X132929946Y-62713554D02*
X133202216Y-60205156D01*
X133230620Y-59984640D02*
X133202216Y-60205156D01*
X133578095Y-54825395D02*
X133551668Y-54621168D01*
X133583066Y-56721354D02*
X133336544Y-59125364D01*
X133336544Y-59125364D02*
X133230620Y-59984640D01*
X133578095Y-54825395D02*
X133583066Y-56721354D01*
D24*
X146685000Y-63477140D02*
X146685000Y-64770000D01*
X138430000Y-63500000D02*
X138674264Y-62278684D01*
X139744170Y-61103230D02*
X140196795Y-60907705D01*
D22*
X167625083Y-57096983D02*
X167347900Y-57810400D01*
X167695966Y-56522534D02*
X167625083Y-57096983D01*
X196685253Y-59298487D02*
X197191268Y-60199632D01*
X196251155Y-58853745D02*
X196685253Y-59298487D01*
X197356358Y-61672098D02*
X197328104Y-62746204D01*
X197289793Y-60715787D02*
X197356358Y-61672098D01*
X197191268Y-60199632D02*
X197289793Y-60715787D01*
X134176655Y-115721245D02*
X133604000Y-115506500D01*
X134833360Y-115907820D02*
X134176655Y-115721245D01*
X134833360Y-115907820D02*
X135953500Y-116014500D01*
X133604000Y-115506500D02*
X133062472Y-115214908D01*
X132372506Y-114391034D02*
X132816930Y-114998170D01*
X133062472Y-115214908D02*
X132816930Y-114998170D01*
X132100000Y-113392900D02*
X132372506Y-114391034D01*
X132100000Y-113392900D02*
X132100000Y-111760000D01*
X137852827Y-115997313D02*
X138701132Y-116195488D01*
X137852827Y-115997313D02*
X137167938Y-115943062D01*
X140392562Y-116932298D02*
X141356942Y-117695118D01*
X140392562Y-116932298D02*
X139752535Y-116559795D01*
X138878261Y-116254481D02*
X139752535Y-116559795D01*
X138701132Y-116195488D02*
X138878261Y-116254481D01*
X146119272Y-120390228D02*
X147202648Y-120358412D01*
X147546060Y-120304560D02*
X147202648Y-120358412D01*
X144808222Y-120029958D02*
X143764000Y-119570500D01*
X145658609Y-120317491D02*
X144808222Y-120029958D01*
X146119272Y-120390228D02*
X145658609Y-120317491D01*
X142164571Y-118447049D02*
X143359051Y-119323031D01*
X143764000Y-119570500D02*
X143359051Y-119323031D01*
X142164571Y-118447049D02*
X141356942Y-117695118D01*
X154622500Y-119443500D02*
X152499148Y-119583288D01*
X152499148Y-119583288D02*
X149784209Y-119875709D01*
X157953710Y-118525290D02*
X158369000Y-118110000D01*
X157376574Y-118923514D02*
X157953710Y-118525290D01*
X156210000Y-119380000D02*
X157376574Y-118923514D01*
X158905864Y-116881564D02*
X158610151Y-117667891D01*
X158369000Y-118110000D02*
X158610151Y-117667891D01*
X158905864Y-116881564D02*
X159067500Y-116332000D01*
D23*
X160552526Y-118050706D02*
X160370914Y-118651414D01*
X160370914Y-118651414D02*
X160141879Y-119131121D01*
X160655000Y-117475000D02*
X160552526Y-118050706D01*
X161955057Y-117091037D02*
X161809776Y-118180196D01*
X161955057Y-117091037D02*
X162052000Y-115443000D01*
X161809776Y-118180196D02*
X161644326Y-119010426D01*
D24*
X163195000Y-117729000D02*
X163075718Y-118790818D01*
X163075718Y-118790818D02*
X162890943Y-119595157D01*
D22*
X167220900Y-118211600D02*
X167737840Y-117920820D01*
X169871526Y-117973974D02*
X169384888Y-117840668D01*
X168935876Y-117786944D02*
X168177447Y-117821947D01*
X168177447Y-117821947D02*
X167737840Y-117920820D01*
X169384888Y-117840668D02*
X168935876Y-117786944D01*
X170656826Y-118649174D02*
X170470318Y-118314982D01*
X179487456Y-125311796D02*
X178485568Y-125653568D01*
X179768500Y-125158500D02*
X179487456Y-125311796D01*
X180762938Y-128162078D02*
X181185382Y-127908882D01*
X179705000Y-128540000D02*
X180762938Y-128162078D01*
X178851329Y-130416531D02*
X179705000Y-130540000D01*
X179745242Y-136802258D02*
X178572120Y-136451380D01*
X181546500Y-137033000D02*
X179745242Y-136802258D01*
X176801559Y-134919941D02*
X176450148Y-134128352D01*
X178453461Y-130429681D02*
X178851329Y-130416531D01*
X187335808Y-136853308D02*
X185547000Y-137033000D01*
X177867631Y-130570291D02*
X178453461Y-130429681D01*
X176306020Y-132935520D02*
X176416541Y-132284041D01*
X190298658Y-136056958D02*
X188849000Y-136588500D01*
X176741994Y-131466494D02*
X177020846Y-131110346D01*
X176416541Y-132284041D02*
X176741994Y-131466494D01*
X176300244Y-133338456D02*
X176306020Y-132935520D01*
X191835012Y-135154912D02*
X191502393Y-135381093D01*
X178572120Y-136451380D02*
X178030236Y-136167764D01*
X177020846Y-131110346D02*
X177555828Y-130710608D01*
X191502393Y-135381093D02*
X190298658Y-136056958D01*
X176450148Y-134128352D02*
X176300244Y-133338456D01*
X178030236Y-136167764D02*
X177252601Y-135535699D01*
X185547000Y-137033000D02*
X181546500Y-137033000D01*
X177252601Y-135535699D02*
X176801559Y-134919941D01*
X188849000Y-136588500D02*
X187335808Y-136853308D01*
X177555828Y-130710608D02*
X177867631Y-130570291D01*
X193335617Y-133571957D02*
X192427998Y-134625218D01*
X192427998Y-134625218D02*
X191835012Y-135154912D01*
X194040000Y-132397500D02*
X193335617Y-133571957D01*
X197116700Y-126365000D02*
X196613879Y-126339501D01*
X196613879Y-126339501D02*
X195947756Y-126274104D01*
X194880340Y-126107080D02*
X193965119Y-126021541D01*
X193965119Y-126021541D02*
X193447807Y-126013347D01*
X195947756Y-126274104D02*
X194880340Y-126107080D01*
X195183306Y-122730714D02*
X193475520Y-123287700D01*
X192602470Y-123501770D02*
X193475520Y-123287700D01*
X197128981Y-121920000D02*
X195183306Y-122730714D01*
X185065629Y-120620831D02*
X184491179Y-120468841D01*
X184491179Y-120468841D02*
X184175400Y-120307100D01*
X185394600Y-120662700D02*
X185065629Y-120620831D01*
X185376155Y-95333155D02*
X184312878Y-95588138D01*
X183240367Y-95912627D02*
X184312878Y-95588138D01*
X180276500Y-99885500D02*
X180316232Y-99289508D01*
X180508827Y-98565887D02*
X181186403Y-97404503D01*
X181186403Y-97404503D02*
X181683326Y-96809226D01*
X180316232Y-99289508D02*
X180508827Y-98565887D01*
X182096421Y-96495881D02*
X182767798Y-96110618D01*
X182767798Y-96110618D02*
X183240367Y-95912627D01*
X181683326Y-96809226D02*
X182096421Y-96495881D01*
X186278311Y-95201531D02*
X188343439Y-95021299D01*
X188343439Y-95021299D02*
X191135000Y-94892500D01*
X186278311Y-95201531D02*
X185376155Y-95333155D01*
X181849462Y-58584398D02*
X182532445Y-58857305D01*
X182816500Y-58928000D02*
X182532445Y-58857305D01*
X181132375Y-58199125D02*
X181849462Y-58584398D01*
X180250962Y-57170458D02*
X180705651Y-57807969D01*
X180705651Y-57807969D02*
X181132375Y-58199125D01*
X179705000Y-55880000D02*
X180250962Y-57170458D01*
X171450000Y-63881000D02*
X171450000Y-62190000D01*
X171629960Y-64590040D02*
X171450000Y-63881000D01*
X172023127Y-65315187D02*
X171629960Y-64590040D01*
X172789708Y-66963432D02*
X172023127Y-65315187D01*
X171258105Y-73351265D02*
X172234156Y-72780456D01*
X173149260Y-69596000D02*
X172936750Y-67664750D01*
X167957500Y-73723500D02*
X169164000Y-73723500D01*
X170486996Y-73563136D02*
X171258105Y-73351265D01*
X167685356Y-73705356D02*
X167957500Y-73723500D01*
X169164000Y-73723500D02*
X170486996Y-73563136D01*
X172234156Y-72780456D02*
X172637905Y-72396805D01*
X172637905Y-72396805D02*
X172961300Y-71861680D01*
X172961300Y-71861680D02*
X173108620Y-69971920D01*
X172936750Y-67664750D02*
X172789708Y-66963432D01*
X173108620Y-69971920D02*
X173149260Y-69596000D01*
D23*
X156146500Y-53213000D02*
X155946929Y-52853771D01*
D22*
X160655000Y-49339500D02*
X160560489Y-47162189D01*
X163666923Y-47026077D02*
X161879205Y-47058505D01*
X161879205Y-47058505D02*
X160560489Y-47162189D01*
D23*
X140804900Y-48920400D02*
X144056100Y-48742600D01*
X155722875Y-52493625D02*
X155946929Y-52853771D01*
X145249900Y-48742600D02*
X147781129Y-48903771D01*
X147781129Y-48903771D02*
X149771100Y-49199800D01*
X144056100Y-48742600D02*
X145249900Y-48742600D01*
X155374253Y-51851647D02*
X155722875Y-52493625D01*
X155374253Y-51851647D02*
X155203716Y-51615784D01*
X143497300Y-53949600D02*
X143510000Y-55880000D01*
X153670000Y-57213500D02*
X153178659Y-57230159D01*
X156845000Y-57190000D02*
X155520437Y-57115663D01*
X155520437Y-57115663D02*
X153670000Y-57213500D01*
X153306318Y-60053682D02*
X153987500Y-60134500D01*
X152844500Y-60007500D02*
X153306318Y-60053682D01*
X152341791Y-59875209D02*
X152844500Y-60007500D01*
X148501100Y-56083200D02*
X148760773Y-57017327D01*
X145249900Y-54127400D02*
X145326100Y-53848000D01*
X141097000Y-57975500D02*
X141509750Y-58007250D01*
X141509750Y-58007250D02*
X141935729Y-58025771D01*
X145173700Y-54559200D02*
X145249900Y-54127400D01*
X138620500Y-57023000D02*
X139001500Y-57340500D01*
X141935729Y-58025771D02*
X143188663Y-58035163D01*
X140940117Y-57941883D02*
X141097000Y-57975500D01*
X139990286Y-57748714D02*
X140940117Y-57941883D01*
X145272125Y-55546625D02*
X145173700Y-54991000D01*
X137795000Y-55880000D02*
X138620500Y-57023000D01*
X145092616Y-57424516D02*
X145224500Y-57213500D01*
X143188663Y-58035163D02*
X144131829Y-57988671D01*
X145224500Y-57213500D02*
X145293080Y-56939180D01*
X145173700Y-54991000D02*
X145173700Y-54559200D01*
X152714849Y-49939051D02*
X151441578Y-49561322D01*
X149771100Y-49199800D02*
X151441578Y-49561322D01*
X154652274Y-51024226D02*
X153541850Y-50305850D01*
X153541850Y-50305850D02*
X152714849Y-49939051D01*
X155203716Y-51615784D02*
X154652274Y-51024226D01*
X146731859Y-52061241D02*
X145947623Y-52058077D01*
X145947623Y-52058077D02*
X145387786Y-52109914D01*
X147993100Y-52324000D02*
X147257605Y-52121905D01*
X147257605Y-52121905D02*
X146731859Y-52061241D01*
X148348700Y-52501800D02*
X147993100Y-52324000D01*
X148941221Y-52950679D02*
X149317911Y-53361389D01*
X148941221Y-52950679D02*
X148348700Y-52501800D01*
X149402132Y-53505768D02*
X149656800Y-54317900D01*
X149771100Y-54889400D02*
X149656800Y-54317900D01*
X149402132Y-53505768D02*
X149317911Y-53361389D01*
X150034933Y-55641567D02*
X150483169Y-56310931D01*
X151024175Y-56796085D02*
X150483169Y-56310931D01*
X150034933Y-55641567D02*
X149771100Y-54889400D01*
X151244140Y-56896160D02*
X151806197Y-57070703D01*
X151244140Y-56896160D02*
X151024175Y-56796085D01*
X152157797Y-57150903D02*
X152843904Y-57226796D01*
X153178659Y-57230159D02*
X152843904Y-57226796D01*
X152157797Y-57150903D02*
X151806197Y-57070703D01*
X148142325Y-53749575D02*
X148262232Y-54294932D01*
X147181404Y-53036304D02*
X147655757Y-53220143D01*
X146491325Y-52987575D02*
X146061113Y-53112987D01*
X145326100Y-53848000D02*
X145483756Y-53497656D01*
X145800233Y-53229933D02*
X145483756Y-53497656D01*
X146061113Y-53112987D02*
X145800233Y-53229933D01*
X147776407Y-53302693D02*
X148028025Y-53559075D01*
X148028025Y-53559075D02*
X148142325Y-53749575D01*
X147655757Y-53220143D02*
X147776407Y-53302693D01*
X148281962Y-54778338D02*
X148344081Y-55376619D01*
X148344081Y-55376619D02*
X148501100Y-56083200D01*
X148262232Y-54294932D02*
X148281962Y-54778338D01*
X144319712Y-52511412D02*
X144862839Y-52241739D01*
X145387786Y-52109914D02*
X144862839Y-52241739D01*
X143528723Y-53727023D02*
X143686561Y-53249861D01*
X143528723Y-53727023D02*
X143497300Y-53949600D01*
X144147111Y-52643611D02*
X143809834Y-53017534D01*
X143686561Y-53249861D02*
X143809834Y-53017534D01*
X144319712Y-52511412D02*
X144147111Y-52643611D01*
X138379830Y-49187730D02*
X140804900Y-48920400D01*
X133743700Y-51612800D02*
X133455929Y-52417229D01*
X133408333Y-52649033D02*
X133382788Y-53319912D01*
X133382788Y-53319912D02*
X133551668Y-54621168D01*
X133455929Y-52417229D02*
X133408333Y-52649033D01*
X133984332Y-51243832D02*
X134358224Y-50830324D01*
X133984332Y-51243832D02*
X133743700Y-51612800D01*
X134839011Y-50422111D02*
X135314320Y-50118380D01*
X134358224Y-50830324D02*
X134839011Y-50422111D01*
X135863122Y-49846022D02*
X137299314Y-49402614D01*
X137299314Y-49402614D02*
X138379830Y-49187730D01*
X135314320Y-50118380D02*
X135863122Y-49846022D01*
X146491325Y-52987575D02*
X146920912Y-52989788D01*
X146920912Y-52989788D02*
X147181404Y-53036304D01*
X145293080Y-56939180D02*
X145336364Y-56479336D01*
X145324513Y-55878413D02*
X145336364Y-56479336D01*
X145324513Y-55878413D02*
X145272125Y-55546625D01*
X149197568Y-57825132D02*
X148760773Y-57017327D01*
X149415500Y-58102500D02*
X149197568Y-57825132D01*
X150953037Y-59195537D02*
X150071309Y-58627791D01*
X149415500Y-58102500D02*
X150071309Y-58627791D01*
X150953037Y-59195537D02*
X152341791Y-59875209D01*
D24*
X150359482Y-60625618D02*
X150847339Y-61179161D01*
X150847339Y-61179161D02*
X151082375Y-61579125D01*
X149776961Y-60217539D02*
X150359482Y-60625618D01*
D23*
X144887680Y-57625980D02*
X144391300Y-57917000D01*
X144131829Y-57988671D02*
X144391300Y-57917000D01*
X144887680Y-57625980D02*
X145092616Y-57424516D01*
X139498934Y-57592366D02*
X139990286Y-57748714D01*
X139001500Y-57340500D02*
X139498934Y-57592366D01*
D24*
X137423170Y-60169070D02*
X138017059Y-59912441D01*
X138677405Y-59746905D02*
X138017059Y-59912441D01*
X136758543Y-60533143D02*
X137423170Y-60169070D01*
X136080500Y-61976000D02*
X136266499Y-61349199D01*
X136485483Y-60856983D02*
X136266499Y-61349199D01*
X136080500Y-61976000D02*
X135890000Y-63500000D01*
X138838992Y-62016692D02*
X139267345Y-61530645D01*
X139267345Y-61530645D02*
X139744170Y-61103230D01*
X138674264Y-62278684D02*
X138838992Y-62016692D01*
X141998700Y-60833000D02*
X142839391Y-60881309D01*
X143686156Y-60999744D02*
X142839391Y-60881309D01*
X140906500Y-60833000D02*
X141998700Y-60833000D01*
X145530897Y-61720403D02*
X144643848Y-61286652D01*
X144643848Y-61286652D02*
X143686156Y-60999744D01*
X146055611Y-62115169D02*
X145530897Y-61720403D01*
X146566421Y-62945479D02*
X146302390Y-62447510D01*
X146302390Y-62447510D02*
X146055611Y-62115169D01*
X146685000Y-63477140D02*
X146566421Y-62945479D01*
X143774319Y-59539981D02*
X142621000Y-59499500D01*
X142621000Y-59499500D02*
X141922500Y-59499500D01*
X145224500Y-59690000D02*
X143774319Y-59539981D01*
D22*
X136223626Y-51705126D02*
X135255000Y-52705000D01*
X136910612Y-51249112D02*
X136223626Y-51705126D01*
X145681700Y-49809400D02*
X143878300Y-49809400D01*
X138027823Y-50740723D02*
X136910612Y-51249112D01*
X143878300Y-49809400D02*
X141922693Y-49936593D01*
X141922693Y-49936593D02*
X139881972Y-50207272D01*
X139881972Y-50207272D02*
X139300552Y-50337052D01*
X139300552Y-50337052D02*
X138532318Y-50559418D01*
X138532318Y-50559418D02*
X138027823Y-50740723D01*
X147090830Y-49898870D02*
X145681700Y-49809400D01*
X150305956Y-50646144D02*
X151916825Y-51397475D01*
X153035000Y-52070000D02*
X151916825Y-51397475D01*
X148511990Y-50154110D02*
X149843164Y-50499336D01*
X149843164Y-50499336D02*
X150305956Y-50646144D01*
X147090830Y-49898870D02*
X148511990Y-50154110D01*
D24*
X141109700Y-54305200D02*
X140970000Y-55880000D01*
X141344396Y-53701696D02*
X141109700Y-54305200D01*
X142561193Y-52149893D02*
X141853260Y-52889760D01*
X150404240Y-52906340D02*
X149491700Y-51917600D01*
X141853260Y-52889760D02*
X141552493Y-53325593D01*
X143283848Y-51627948D02*
X142561193Y-52149893D01*
X145199100Y-51003200D02*
X144513300Y-51079400D01*
X151447500Y-54610000D02*
X150806764Y-53498136D01*
X148856700Y-51511200D02*
X147993100Y-51206400D01*
X149491700Y-51917600D02*
X148856700Y-51511200D01*
X144513300Y-51079400D02*
X143979900Y-51231800D01*
X150806764Y-53498136D02*
X150404240Y-52906340D01*
X146113500Y-50977800D02*
X145199100Y-51003200D01*
X141552493Y-53325593D02*
X141344396Y-53701696D01*
X147993100Y-51206400D02*
X147002500Y-51003200D01*
X147002500Y-51003200D02*
X146113500Y-50977800D01*
X143979900Y-51231800D02*
X143283848Y-51627948D01*
D23*
X138366500Y-142697200D02*
X139382500Y-142240000D01*
X139382500Y-142240000D02*
X141922500Y-142240000D01*
D22*
X133158703Y-141793757D02*
X133997700Y-141859000D01*
X130644265Y-141168755D02*
X131615815Y-141492605D01*
X122364500Y-134556500D02*
X123887171Y-136272329D01*
X121831100Y-133756400D02*
X122364500Y-134556500D01*
X123887171Y-136272329D02*
X124968000Y-137477500D01*
X121221500Y-131762500D02*
X121353204Y-132519796D01*
X125666500Y-138112500D02*
X126719419Y-139028081D01*
X126719419Y-139028081D02*
X127170769Y-139394611D01*
X120967500Y-128270000D02*
X121221500Y-131762500D01*
X121353204Y-132519796D02*
X121831100Y-133756400D01*
X124968000Y-137477500D02*
X125666500Y-138112500D01*
X131615815Y-141492605D02*
X133158703Y-141793757D01*
X127170769Y-139394611D02*
X128454075Y-140209345D01*
X128454075Y-140209345D02*
X130644265Y-141168755D01*
X133997700Y-141859000D02*
X134493000Y-141859000D01*
D23*
X148769884Y-122756116D02*
X145732500Y-122936000D01*
X145732500Y-122936000D02*
X143598900Y-123139200D01*
X143598900Y-123139200D02*
X141973300Y-123139200D01*
X141973300Y-123139200D02*
X140017500Y-122936000D01*
X137790435Y-122394465D02*
X139116296Y-122795804D01*
X140017500Y-122936000D02*
X139116296Y-122795804D01*
X137040961Y-122026339D02*
X137790435Y-122394465D01*
D24*
X149875694Y-123923606D02*
X145453100Y-124129800D01*
X150304500Y-123888500D02*
X149875694Y-123923606D01*
X141241506Y-125658606D02*
X140881100Y-126060200D01*
X140881100Y-126060200D02*
X140082549Y-127268249D01*
X139946257Y-127639957D02*
X139568354Y-129040054D01*
X140082549Y-127268249D02*
X139946257Y-127639957D01*
X139508880Y-129386980D02*
X139382500Y-130759200D01*
X139382500Y-130759200D02*
X139382500Y-132080000D01*
X139568354Y-129040054D02*
X139508880Y-129386980D01*
D23*
X150062721Y-122669779D02*
X152875296Y-122611196D01*
X152875296Y-122611196D02*
X153167740Y-122612760D01*
X148769884Y-122756116D02*
X150062721Y-122669779D01*
X162067402Y-76850402D02*
X163637500Y-76200000D01*
X161646721Y-77382221D02*
X162067402Y-76850402D01*
X161418121Y-78017221D02*
X161646721Y-77382221D01*
X161147046Y-79625746D02*
X161418121Y-78017221D01*
X161128886Y-79871746D02*
X161147046Y-79625746D01*
X161166596Y-80915296D02*
X161128886Y-79871746D01*
X161348615Y-82037115D02*
X161166596Y-80915296D01*
X161544000Y-82550000D02*
X161348615Y-82037115D01*
X162179000Y-83439000D02*
X161544000Y-82550000D01*
X163322000Y-84328000D02*
X162179000Y-83439000D01*
X163949063Y-84704237D02*
X163322000Y-84328000D01*
X165178740Y-85303360D02*
X163949063Y-84704237D01*
X165989000Y-85598000D02*
X165178740Y-85303360D01*
X166456783Y-85777917D02*
X165989000Y-85598000D01*
X167411289Y-86245589D02*
X166456783Y-85777917D01*
X167983318Y-86626282D02*
X167411289Y-86245589D01*
X168748070Y-87296630D02*
X167983318Y-86626282D01*
X169055941Y-87598359D02*
X168748070Y-87296630D01*
X169726537Y-88502563D02*
X169055941Y-87598359D01*
X170318886Y-89612014D02*
X169726537Y-88502563D01*
X170559246Y-90171754D02*
X170318886Y-89612014D01*
X170965862Y-91606638D02*
X170559246Y-90171754D01*
X171509635Y-94809365D02*
X170965862Y-91606638D01*
X171749214Y-98152714D02*
X171509635Y-94809365D01*
X171639456Y-99947956D02*
X171749214Y-98152714D01*
X171528462Y-100535462D02*
X171639456Y-99947956D01*
X171162424Y-101502924D02*
X171528462Y-100535462D01*
X163184489Y-122277789D02*
X163779715Y-121323615D01*
X162804525Y-122710625D02*
X163184489Y-122277789D01*
X161685337Y-123569363D02*
X162804525Y-122710625D01*
X160807423Y-124015523D02*
X161685337Y-123569363D01*
X158684192Y-124775192D02*
X160078117Y-124312983D01*
X155774609Y-125294609D02*
X157552529Y-125040529D01*
X164655500Y-117348000D02*
X164719000Y-115760500D01*
X157552529Y-125040529D02*
X158684192Y-124775192D01*
X142213347Y-127877553D02*
X142590344Y-127185244D01*
X164833867Y-112636867D02*
X164916914Y-111132414D01*
X141922500Y-132080000D02*
X141820900Y-130556000D01*
X145136312Y-125768812D02*
X146147117Y-125636617D01*
X154411980Y-125330920D02*
X155774609Y-125294609D01*
X142590344Y-127185244D02*
X142816039Y-126902939D01*
X166144473Y-105374973D02*
X166466457Y-105087357D01*
X160078117Y-124312983D02*
X160807423Y-124015523D01*
X142816039Y-126902939D02*
X143583294Y-126273194D01*
X141820900Y-130556000D02*
X141865742Y-129432442D01*
X164128585Y-120478685D02*
X164343273Y-119628727D01*
X165547577Y-106248737D02*
X165760466Y-105854566D01*
X146147117Y-125636617D02*
X147574000Y-125539500D01*
X163779715Y-121323615D02*
X164128585Y-120478685D01*
X164343273Y-119628727D02*
X164465000Y-119126000D01*
X164465000Y-119126000D02*
X164655500Y-117348000D01*
X165312984Y-106986964D02*
X165547577Y-106248737D01*
X164719000Y-115760500D02*
X164782500Y-114363500D01*
X164782500Y-114363500D02*
X164811363Y-113699637D01*
X164811363Y-113699637D02*
X164821013Y-112737487D01*
X164821013Y-112737487D02*
X164833867Y-112636867D01*
X164916914Y-111132414D02*
X164989329Y-109363329D01*
X164989329Y-109363329D02*
X165021156Y-109199576D01*
X165021156Y-109199576D02*
X165312984Y-106986964D01*
X165760466Y-105854566D02*
X166144473Y-105374973D01*
X166466457Y-105087357D02*
X166952355Y-104803635D01*
X166952355Y-104803635D02*
X167855505Y-104434245D01*
X167855505Y-104434245D02*
X168250839Y-104230139D01*
X168250839Y-104230139D02*
X169409144Y-103458044D01*
X169409144Y-103458044D02*
X170179999Y-102869999D01*
X170179999Y-102869999D02*
X170793168Y-102086168D01*
X170793168Y-102086168D02*
X171162424Y-101502924D01*
X142046679Y-128444979D02*
X141865742Y-129432442D01*
X142046679Y-128444979D02*
X142213347Y-127877553D01*
D24*
X142600836Y-124823064D02*
X141666833Y-125347333D01*
X141666833Y-125347333D02*
X141241506Y-125658606D01*
X144968065Y-124183035D02*
X143452718Y-124491618D01*
X143452718Y-124491618D02*
X142600836Y-124823064D01*
X145453100Y-124129800D02*
X144968065Y-124183035D01*
D23*
X143783401Y-126168501D02*
X144349937Y-125973037D01*
X144349937Y-125973037D02*
X145136312Y-125768812D01*
X143583294Y-126273194D02*
X143783401Y-126168501D01*
X148014635Y-125497535D02*
X150034429Y-125383729D01*
X150034429Y-125383729D02*
X154411980Y-125330920D01*
X147574000Y-125539500D02*
X148014635Y-125497535D01*
D22*
X146113500Y-132054600D02*
X146313994Y-131543894D01*
X146699444Y-130122456D02*
X146313994Y-131543894D01*
X146949095Y-128622995D02*
X146699444Y-130122456D01*
X147002500Y-127635000D02*
X146949095Y-128622995D01*
X144517850Y-135538950D02*
X145656300Y-133273800D01*
X145656300Y-133273800D02*
X146113500Y-132054600D01*
X142106136Y-138359636D02*
X143891569Y-136411269D01*
X143891569Y-136411269D02*
X144517850Y-135538950D01*
X140881100Y-139319000D02*
X142106136Y-138359636D01*
X137785092Y-141074392D02*
X140054106Y-139863606D01*
X140054106Y-139863606D02*
X140881100Y-139319000D01*
X137121900Y-141325600D02*
X137785092Y-141074392D01*
D23*
X136621838Y-143238538D02*
X137674169Y-142932331D01*
X137674169Y-142932331D02*
X138366500Y-142697200D01*
X134810500Y-143510000D02*
X135992686Y-143371386D01*
X135992686Y-143371386D02*
X136621838Y-143238538D01*
X134810500Y-143510000D02*
X134302500Y-143510000D01*
D22*
X134960894Y-141835606D02*
X135961953Y-141664253D01*
X135961953Y-141664253D02*
X137121900Y-141325600D01*
X134493000Y-141859000D02*
X134960894Y-141835606D01*
D23*
X132436616Y-143345916D02*
X133517272Y-143482428D01*
X134302500Y-143510000D02*
X133517272Y-143482428D01*
X131445000Y-143129000D02*
X132436616Y-143345916D01*
X128504859Y-142017841D02*
X130184338Y-142675162D01*
X131445000Y-143129000D02*
X130184338Y-142675162D01*
X127855265Y-141702235D02*
X128504859Y-142017841D01*
D22*
X128625022Y-138392478D02*
X129778485Y-139112985D01*
X129778485Y-139112985D02*
X130706301Y-139486199D01*
X128625022Y-138392478D02*
X126809500Y-136969500D01*
X130706301Y-139486199D02*
X131840856Y-139647044D01*
X133350000Y-139700000D02*
X131840856Y-139647044D01*
X135485982Y-138470482D02*
X135890000Y-137160000D01*
X135191822Y-138912922D02*
X134457893Y-139459153D01*
X135485982Y-138470482D02*
X135191822Y-138912922D01*
X168910000Y-114935000D02*
X170815000Y-114975000D01*
X167957500Y-115062000D02*
X168910000Y-114935000D01*
X166370000Y-115570000D02*
X167322500Y-115189000D01*
X167322500Y-115189000D02*
X167957500Y-115062000D01*
X132125357Y-129494643D02*
X132080000Y-128270000D01*
X132080000Y-128270000D02*
X132080000Y-127635000D01*
X129540000Y-128270000D02*
X129540000Y-129171700D01*
X126655479Y-127027021D02*
X126150181Y-126135319D01*
X126655479Y-127027021D02*
X127000000Y-128270000D01*
M02*
