M48
; DRILL file {KiCad (5.99.0-1918-g94cd0cf3a)} date 06/10/20 22:19:20
; FORMAT={-:-/ absolute / inch / decimal}
; #@! TF.CreationDate,2020-06-10T22:19:20+02:00
; #@! TF.GenerationSoftware,Kicad,Pcbnew,(5.99.0-1918-g94cd0cf3a)
; #@! TF.FileFunction,NonPlated,1,2,NPTH
FMAT,2
INCH
T1C0.0394
T2C0.0787
%
G90
G05
T1
X5.8125Y-3.0
X7.525Y-3.0
X4.1Y-3.0
T2
X7.6875Y-4.475
T1
G00X7.8443Y-4.7874
M15
G01X7.8721Y-4.7596
M16
G05
G00X3.7387Y-4.7594
M15
G01X3.7108Y-4.7315
M16
G05
G00X6.9053Y-3.475
M15
G01X6.9447Y-3.475
M16
G05
G00X6.9053Y-3.8
M15
G01X6.9447Y-3.8
M16
G05
G00X4.0803Y-1.8125
M15
G01X4.1197Y-1.8125
M16
G05
G00X4.0803Y-1.9125
M15
G01X4.1197Y-1.9125
M16
G05
G00X3.8094Y-4.6887
M15
G01X3.7815Y-4.6608
M16
G05
G00X7.7072Y-4.3875
M15
G01X7.6678Y-4.3875
M16
G05
G00X7.7072Y-4.5625
M15
G01X7.6678Y-4.5625
M16
G05
G00X7.8625Y-4.3447
M15
G01X7.8625Y-4.3053
M16
G05
G00X7.9625Y-4.3447
M15
G01X7.9625Y-4.3053
M16
G05
G00X7.7736Y-4.7167
M15
G01X7.8014Y-4.6889
M16
G05
G00X5.1928Y-1.8
M15
G01X5.2322Y-1.8
M16
G05
G00X5.1928Y-1.9
M15
G01X5.2322Y-1.9
M16
G05
G00X7.8625Y-4.0803
M15
G01X7.8625Y-4.1197
M16
G05
G00X7.9625Y-4.0803
M15
G01X7.9625Y-4.1197
M16
G05
G00X6.5125Y-5.0303
M15
G01X6.5125Y-5.0697
M16
G05
G00X6.3928Y-1.8
M15
G01X6.4322Y-1.8
M16
G05
G00X6.3928Y-1.9
M15
G01X6.4322Y-1.9
M16
G05
G00X7.2875Y-4.9197
M15
G01X7.2875Y-4.8803
M16
G05
G00X7.5053Y-1.8125
M15
G01X7.5447Y-1.8125
M16
G05
G00X3.7625Y-4.0803
M15
G01X3.7625Y-4.1197
M16
G05
G00X3.8637Y-4.6344
M15
G01X3.8358Y-4.6065
M16
G05
G00X3.9344Y-4.5637
M15
G01X3.9065Y-4.5358
M16
G05
G00X3.9572Y-3.325
M15
G01X3.9178Y-3.325
M16
G05
G00X3.9572Y-3.425
M15
G01X3.9178Y-3.425
M16
G05
G00X3.9625Y-5.4072
M15
G01X3.9625Y-5.3678
M16
G05
G00X4.0625Y-5.4072
M15
G01X4.0625Y-5.3678
M16
G05
G00X3.6625Y-4.0803
M15
G01X3.6625Y-4.1197
M16
G05
G00X7.8625Y-3.2428
M15
G01X7.8625Y-3.2822
M16
G05
G00X7.9625Y-3.2428
M15
G01X7.9625Y-3.2822
M16
G05
G00X6.8375Y-5.0303
M15
G01X6.8375Y-5.0697
M16
G05
G00X3.6625Y-2.2322
M15
G01X3.6625Y-2.1928
M16
G05
G00X3.7625Y-2.2322
M15
G01X3.7625Y-2.1928
M16
G05
G00X3.6625Y-3.2428
M15
G01X3.6625Y-3.2822
M16
G05
G00X3.7625Y-3.2428
M15
G01X3.7625Y-3.2822
M16
G05
G00X7.7125Y-4.9197
M15
G01X7.7125Y-4.8803
M16
G05
G00X7.5053Y-1.9125
M15
G01X7.5447Y-1.9125
M16
G05
T0
M30
