G04 #@! TF.GenerationSoftware,KiCad,Pcbnew,(5.99.0-1918-g94cd0cf3a)*
G04 #@! TF.CreationDate,2020-06-10T22:19:03+02:00*
G04 #@! TF.ProjectId,#110-000-S1A - Phasor PCB,23313130-2d30-4303-902d-533141202d20,rev?*
G04 #@! TF.SameCoordinates,Original*
G04 #@! TF.FileFunction,Copper,L1,Top*
G04 #@! TF.FilePolarity,Positive*
%FSLAX46Y46*%
G04 Gerber Fmt 4.6, Leading zero omitted, Abs format (unit mm)*
G04 Created by KiCad (PCBNEW (5.99.0-1918-g94cd0cf3a)) date 2020-06-10 22:19:03*
%MOMM*%
%LPD*%
G01*
G04 APERTURE LIST*
%ADD10C,0.300000*%
%ADD11C,0.140000*%
%ADD12C,0.150000*%
G04 #@! TA.AperFunction,ComponentPad*
%ADD13C,6.400000*%
G04 #@! TD*
G04 #@! TA.AperFunction,ComponentPad*
%ADD14C,0.800000*%
G04 #@! TD*
G04 APERTURE END LIST*
D10*
X107365000Y-87038571D02*
X107365000Y-85538571D01*
X108507857Y-85538571D01*
X108793571Y-85610000D01*
X108936428Y-85681428D01*
X109079285Y-85824285D01*
X109079285Y-86038571D01*
X108936428Y-86181428D01*
X108793571Y-86252857D01*
X108507857Y-86324285D01*
X107365000Y-86324285D01*
X110365000Y-85538571D02*
X110365000Y-86752857D01*
X110507857Y-86895714D01*
X110650714Y-86967142D01*
X110936428Y-87038571D01*
X111507857Y-87038571D01*
X111793571Y-86967142D01*
X111936428Y-86895714D01*
X112079285Y-86752857D01*
X112079285Y-85538571D01*
X115222142Y-87038571D02*
X114222142Y-86324285D01*
X113507857Y-87038571D02*
X113507857Y-85538571D01*
X114650714Y-85538571D01*
X114936428Y-85610000D01*
X115079285Y-85681428D01*
X115222142Y-85824285D01*
X115222142Y-86038571D01*
X115079285Y-86181428D01*
X114936428Y-86252857D01*
X114650714Y-86324285D01*
X113507857Y-86324285D01*
X116507857Y-87038571D02*
X116507857Y-85538571D01*
X117650714Y-85538571D01*
X117936428Y-85610000D01*
X118079285Y-85681428D01*
X118222142Y-85824285D01*
X118222142Y-86038571D01*
X118079285Y-86181428D01*
X117936428Y-86252857D01*
X117650714Y-86324285D01*
X116507857Y-86324285D01*
X120936428Y-87038571D02*
X119507857Y-87038571D01*
X119507857Y-85538571D01*
X121936428Y-86252857D02*
X122936428Y-86252857D01*
X123365000Y-87038571D02*
X121936428Y-87038571D01*
X121936428Y-85538571D01*
X123365000Y-85538571D01*
X126936428Y-87038571D02*
X126936428Y-85538571D01*
X126936428Y-86252857D02*
X128650714Y-86252857D01*
X128650714Y-87038571D02*
X128650714Y-85538571D01*
X129936428Y-86610000D02*
X131365000Y-86610000D01*
X129650714Y-87038571D02*
X130650714Y-85538571D01*
X131650714Y-87038571D01*
X132365000Y-85538571D02*
X134365000Y-85538571D01*
X132365000Y-87038571D01*
X134365000Y-87038571D01*
X136079285Y-85538571D02*
X136650714Y-85538571D01*
X136936428Y-85610000D01*
X137222142Y-85752857D01*
X137365000Y-86038571D01*
X137365000Y-86538571D01*
X137222142Y-86824285D01*
X136936428Y-86967142D01*
X136650714Y-87038571D01*
X136079285Y-87038571D01*
X135793571Y-86967142D01*
X135507857Y-86824285D01*
X135365000Y-86538571D01*
X135365000Y-86038571D01*
X135507857Y-85752857D01*
X135793571Y-85610000D01*
X136079285Y-85538571D01*
X140365000Y-87038571D02*
X139365000Y-86324285D01*
X138650714Y-87038571D02*
X138650714Y-85538571D01*
X139793571Y-85538571D01*
X140079285Y-85610000D01*
X140222142Y-85681428D01*
X140365000Y-85824285D01*
X140365000Y-86038571D01*
X140222142Y-86181428D01*
X140079285Y-86252857D01*
X139793571Y-86324285D01*
X138650714Y-86324285D01*
X143936428Y-87038571D02*
X143936428Y-85538571D01*
X145365000Y-87038571D02*
X145365000Y-85538571D01*
D11*
X197184928Y-115082142D02*
X196584928Y-115082142D01*
X196584928Y-114853571D01*
X196613500Y-114796428D01*
X196642071Y-114767857D01*
X196699214Y-114739285D01*
X196784928Y-114739285D01*
X196842071Y-114767857D01*
X196870642Y-114796428D01*
X196899214Y-114853571D01*
X196899214Y-115082142D01*
X196584928Y-114539285D02*
X197184928Y-114396428D01*
X196756357Y-114282142D01*
X197184928Y-114167857D01*
X196584928Y-114025000D01*
X197184928Y-113453571D02*
X196899214Y-113653571D01*
X197184928Y-113796428D02*
X196584928Y-113796428D01*
X196584928Y-113567857D01*
X196613500Y-113510714D01*
X196642071Y-113482142D01*
X196699214Y-113453571D01*
X196784928Y-113453571D01*
X196842071Y-113482142D01*
X196870642Y-113510714D01*
X196899214Y-113567857D01*
X196899214Y-113796428D01*
X197184928Y-112453571D02*
X197184928Y-112739285D01*
X196584928Y-112739285D01*
X196870642Y-112253571D02*
X196870642Y-112053571D01*
X197184928Y-111967857D02*
X197184928Y-112253571D01*
X196584928Y-112253571D01*
X196584928Y-111967857D01*
X197184928Y-111710714D02*
X196584928Y-111710714D01*
X196584928Y-111567857D01*
X196613500Y-111482142D01*
X196670642Y-111425000D01*
X196727785Y-111396428D01*
X196842071Y-111367857D01*
X196927785Y-111367857D01*
X197042071Y-111396428D01*
X197099214Y-111425000D01*
X197156357Y-111482142D01*
X197184928Y-111567857D01*
X197184928Y-111710714D01*
X201020357Y-109453857D02*
X201020357Y-109653857D01*
X200706071Y-109739571D02*
X200706071Y-109453857D01*
X201306071Y-109453857D01*
X201306071Y-109739571D01*
X201248928Y-109968142D02*
X201277500Y-109996714D01*
X201306071Y-110053857D01*
X201306071Y-110196714D01*
X201277500Y-110253857D01*
X201248928Y-110282428D01*
X201191785Y-110311000D01*
X201134642Y-110311000D01*
X201048928Y-110282428D01*
X200706071Y-109939571D01*
X200706071Y-110311000D01*
X198572557Y-120708333D02*
X198713978Y-120566912D01*
X198996821Y-120728536D02*
X198794790Y-120930567D01*
X198370526Y-120506302D01*
X198572557Y-120304272D01*
X198835197Y-120041632D02*
X198875603Y-120001226D01*
X198936212Y-119981023D01*
X198976618Y-119981023D01*
X199037227Y-120001226D01*
X199138242Y-120061835D01*
X199239258Y-120162851D01*
X199299867Y-120263866D01*
X199320070Y-120324475D01*
X199320070Y-120364881D01*
X199299867Y-120425490D01*
X199259461Y-120465896D01*
X199198851Y-120486099D01*
X199158445Y-120486099D01*
X199097836Y-120465896D01*
X198996821Y-120405287D01*
X198895806Y-120304272D01*
X198835197Y-120203257D01*
X198814994Y-120142648D01*
X198814994Y-120102241D01*
X198835197Y-120041632D01*
X101960357Y-136377857D02*
X101960357Y-136577857D01*
X101646071Y-136663571D02*
X101646071Y-136377857D01*
X102246071Y-136377857D01*
X102246071Y-136663571D01*
X102246071Y-137177857D02*
X102246071Y-137063571D01*
X102217500Y-137006428D01*
X102188928Y-136977857D01*
X102103214Y-136920714D01*
X101988928Y-136892142D01*
X101760357Y-136892142D01*
X101703214Y-136920714D01*
X101674642Y-136949285D01*
X101646071Y-137006428D01*
X101646071Y-137120714D01*
X101674642Y-137177857D01*
X101703214Y-137206428D01*
X101760357Y-137235000D01*
X101903214Y-137235000D01*
X101960357Y-137206428D01*
X101988928Y-137177857D01*
X102017500Y-137120714D01*
X102017500Y-137006428D01*
X101988928Y-136949285D01*
X101960357Y-136920714D01*
X101903214Y-136892142D01*
X95509166Y-119515057D02*
X95650587Y-119656478D01*
X95488963Y-119939321D02*
X95286932Y-119737290D01*
X95711197Y-119313026D01*
X95913227Y-119515057D01*
X96297085Y-119898915D02*
X96095055Y-119696884D01*
X95872821Y-119878712D01*
X95913227Y-119878712D01*
X95973836Y-119898915D01*
X96074851Y-119999930D01*
X96095055Y-120060539D01*
X96095055Y-120100945D01*
X96074851Y-120161555D01*
X95973836Y-120262570D01*
X95913227Y-120282773D01*
X95872821Y-120282773D01*
X95812212Y-120262570D01*
X95711197Y-120161555D01*
X95690994Y-120100945D01*
X95690994Y-120060539D01*
X98557166Y-116467057D02*
X98698587Y-116608478D01*
X98536963Y-116891321D02*
X98334932Y-116689290D01*
X98759197Y-116265026D01*
X98961227Y-116467057D01*
X99183461Y-116972133D02*
X98900618Y-117254976D01*
X99244070Y-116709494D02*
X98840009Y-116911524D01*
X99102648Y-117174164D01*
X99611357Y-85682142D02*
X99811357Y-85682142D01*
X99897071Y-85996428D02*
X99611357Y-85996428D01*
X99611357Y-85396428D01*
X99897071Y-85396428D01*
X100097071Y-85396428D02*
X100468500Y-85396428D01*
X100268500Y-85625000D01*
X100354214Y-85625000D01*
X100411357Y-85653571D01*
X100439928Y-85682142D01*
X100468500Y-85739285D01*
X100468500Y-85882142D01*
X100439928Y-85939285D01*
X100411357Y-85967857D01*
X100354214Y-85996428D01*
X100182785Y-85996428D01*
X100125642Y-85967857D01*
X100097071Y-85939285D01*
X94340357Y-55605857D02*
X94340357Y-55805857D01*
X94026071Y-55891571D02*
X94026071Y-55605857D01*
X94626071Y-55605857D01*
X94626071Y-55891571D01*
X94026071Y-56463000D02*
X94026071Y-56120142D01*
X94026071Y-56291571D02*
X94626071Y-56291571D01*
X94540357Y-56234428D01*
X94483214Y-56177285D01*
X94454642Y-56120142D01*
D12*
X138137500Y-145150535D02*
X138137500Y-144400535D01*
X138708928Y-144400535D01*
X138851785Y-144436250D01*
X138923214Y-144471964D01*
X138994642Y-144543392D01*
X138994642Y-144650535D01*
X138923214Y-144721964D01*
X138851785Y-144757678D01*
X138708928Y-144793392D01*
X138137500Y-144793392D01*
X139637500Y-144400535D02*
X139637500Y-145007678D01*
X139708928Y-145079107D01*
X139780357Y-145114821D01*
X139923214Y-145150535D01*
X140208928Y-145150535D01*
X140351785Y-145114821D01*
X140423214Y-145079107D01*
X140494642Y-145007678D01*
X140494642Y-144400535D01*
X142066071Y-145150535D02*
X141566071Y-144793392D01*
X141208928Y-145150535D02*
X141208928Y-144400535D01*
X141780357Y-144400535D01*
X141923214Y-144436250D01*
X141994642Y-144471964D01*
X142066071Y-144543392D01*
X142066071Y-144650535D01*
X141994642Y-144721964D01*
X141923214Y-144757678D01*
X141780357Y-144793392D01*
X141208928Y-144793392D01*
X142708928Y-145150535D02*
X142708928Y-144400535D01*
X143280357Y-144400535D01*
X143423214Y-144436250D01*
X143494642Y-144471964D01*
X143566071Y-144543392D01*
X143566071Y-144650535D01*
X143494642Y-144721964D01*
X143423214Y-144757678D01*
X143280357Y-144793392D01*
X142708928Y-144793392D01*
X144923214Y-145150535D02*
X144208928Y-145150535D01*
X144208928Y-144400535D01*
X145423214Y-144757678D02*
X145923214Y-144757678D01*
X146137500Y-145150535D02*
X145423214Y-145150535D01*
X145423214Y-144400535D01*
X146137500Y-144400535D01*
X147923214Y-145150535D02*
X147923214Y-144400535D01*
X147923214Y-144757678D02*
X148780357Y-144757678D01*
X148780357Y-145150535D02*
X148780357Y-144400535D01*
X149423214Y-144936250D02*
X150137500Y-144936250D01*
X149280357Y-145150535D02*
X149780357Y-144400535D01*
X150280357Y-145150535D01*
X150637500Y-144400535D02*
X151637500Y-144400535D01*
X150637500Y-145150535D01*
X151637500Y-145150535D01*
X152494642Y-144400535D02*
X152780357Y-144400535D01*
X152923214Y-144436250D01*
X153066071Y-144507678D01*
X153137500Y-144650535D01*
X153137500Y-144900535D01*
X153066071Y-145043392D01*
X152923214Y-145114821D01*
X152780357Y-145150535D01*
X152494642Y-145150535D01*
X152351785Y-145114821D01*
X152208928Y-145043392D01*
X152137500Y-144900535D01*
X152137500Y-144650535D01*
X152208928Y-144507678D01*
X152351785Y-144436250D01*
X152494642Y-144400535D01*
X154637500Y-145150535D02*
X154137500Y-144793392D01*
X153780357Y-145150535D02*
X153780357Y-144400535D01*
X154351785Y-144400535D01*
X154494642Y-144436250D01*
X154566071Y-144471964D01*
X154637500Y-144543392D01*
X154637500Y-144650535D01*
X154566071Y-144721964D01*
X154494642Y-144757678D01*
X154351785Y-144793392D01*
X153780357Y-144793392D01*
X156423214Y-145150535D02*
X156423214Y-144400535D01*
X157137500Y-145150535D02*
X157137500Y-144400535D01*
X136244642Y-145858035D02*
X136244642Y-146358035D01*
X135887500Y-145572321D02*
X135530357Y-146108035D01*
X136458928Y-146108035D01*
X136958928Y-145679464D02*
X137030357Y-145643750D01*
X137173214Y-145608035D01*
X137530357Y-145608035D01*
X137673214Y-145643750D01*
X137744642Y-145679464D01*
X137816071Y-145750892D01*
X137816071Y-145822321D01*
X137744642Y-145929464D01*
X136887500Y-146358035D01*
X137816071Y-146358035D01*
X138744642Y-145608035D02*
X138887500Y-145608035D01*
X139030357Y-145643750D01*
X139101785Y-145679464D01*
X139173214Y-145750892D01*
X139244642Y-145893750D01*
X139244642Y-146072321D01*
X139173214Y-146215178D01*
X139101785Y-146286607D01*
X139030357Y-146322321D01*
X138887500Y-146358035D01*
X138744642Y-146358035D01*
X138601785Y-146322321D01*
X138530357Y-146286607D01*
X138458928Y-146215178D01*
X138387500Y-146072321D01*
X138387500Y-145893750D01*
X138458928Y-145750892D01*
X138530357Y-145679464D01*
X138601785Y-145643750D01*
X138744642Y-145608035D01*
X141030357Y-145965178D02*
X141530357Y-145965178D01*
X141744642Y-146358035D02*
X141030357Y-146358035D01*
X141030357Y-145608035D01*
X141744642Y-145608035D01*
X142387500Y-146358035D02*
X142387500Y-145608035D01*
X143244642Y-146358035D01*
X143244642Y-145608035D01*
X144744642Y-145643750D02*
X144601785Y-145608035D01*
X144387500Y-145608035D01*
X144173214Y-145643750D01*
X144030357Y-145715178D01*
X143958928Y-145786607D01*
X143887500Y-145929464D01*
X143887500Y-146036607D01*
X143958928Y-146179464D01*
X144030357Y-146250892D01*
X144173214Y-146322321D01*
X144387500Y-146358035D01*
X144530357Y-146358035D01*
X144744642Y-146322321D01*
X144816071Y-146286607D01*
X144816071Y-146036607D01*
X144530357Y-146036607D01*
X145458928Y-146358035D02*
X145458928Y-145608035D01*
X145458928Y-145965178D02*
X146316071Y-145965178D01*
X146316071Y-146358035D02*
X146316071Y-145608035D01*
X147030357Y-146358035D02*
X147030357Y-145608035D01*
X148530357Y-145643750D02*
X148387500Y-145608035D01*
X148173214Y-145608035D01*
X147958928Y-145643750D01*
X147816071Y-145715178D01*
X147744642Y-145786607D01*
X147673214Y-145929464D01*
X147673214Y-146036607D01*
X147744642Y-146179464D01*
X147816071Y-146250892D01*
X147958928Y-146322321D01*
X148173214Y-146358035D01*
X148316071Y-146358035D01*
X148530357Y-146322321D01*
X148601785Y-146286607D01*
X148601785Y-146036607D01*
X148316071Y-146036607D01*
X149244642Y-146358035D02*
X149244642Y-145608035D01*
X149244642Y-145965178D02*
X150101785Y-145965178D01*
X150101785Y-146358035D02*
X150101785Y-145608035D01*
X150816071Y-146358035D02*
X150816071Y-145608035D01*
X151673214Y-146358035D01*
X151673214Y-145608035D01*
X152387500Y-145965178D02*
X152887500Y-145965178D01*
X153101785Y-146358035D02*
X152387500Y-146358035D01*
X152387500Y-145608035D01*
X153101785Y-145608035D01*
X153744642Y-145965178D02*
X154244642Y-145965178D01*
X154458928Y-146358035D02*
X153744642Y-146358035D01*
X153744642Y-145608035D01*
X154458928Y-145608035D01*
X155958928Y-146358035D02*
X155458928Y-146000892D01*
X155101785Y-146358035D02*
X155101785Y-145608035D01*
X155673214Y-145608035D01*
X155816071Y-145643750D01*
X155887500Y-145679464D01*
X155958928Y-145750892D01*
X155958928Y-145858035D01*
X155887500Y-145929464D01*
X155816071Y-145965178D01*
X155673214Y-146000892D01*
X155101785Y-146000892D01*
X156601785Y-146358035D02*
X156601785Y-145608035D01*
X157316071Y-146358035D02*
X157316071Y-145608035D01*
X158173214Y-146358035D01*
X158173214Y-145608035D01*
X159673214Y-145643750D02*
X159530357Y-145608035D01*
X159316071Y-145608035D01*
X159101785Y-145643750D01*
X158958928Y-145715178D01*
X158887500Y-145786607D01*
X158816071Y-145929464D01*
X158816071Y-146036607D01*
X158887500Y-146179464D01*
X158958928Y-146250892D01*
X159101785Y-146322321D01*
X159316071Y-146358035D01*
X159458928Y-146358035D01*
X159673214Y-146322321D01*
X159744642Y-146286607D01*
X159744642Y-146036607D01*
X159458928Y-146036607D01*
X114972142Y-84294285D02*
X114972142Y-84794285D01*
X114615000Y-84008571D02*
X114257857Y-84544285D01*
X115186428Y-84544285D01*
X115686428Y-84115714D02*
X115757857Y-84080000D01*
X115900714Y-84044285D01*
X116257857Y-84044285D01*
X116400714Y-84080000D01*
X116472142Y-84115714D01*
X116543571Y-84187142D01*
X116543571Y-84258571D01*
X116472142Y-84365714D01*
X115615000Y-84794285D01*
X116543571Y-84794285D01*
X117472142Y-84044285D02*
X117615000Y-84044285D01*
X117757857Y-84080000D01*
X117829285Y-84115714D01*
X117900714Y-84187142D01*
X117972142Y-84330000D01*
X117972142Y-84508571D01*
X117900714Y-84651428D01*
X117829285Y-84722857D01*
X117757857Y-84758571D01*
X117615000Y-84794285D01*
X117472142Y-84794285D01*
X117329285Y-84758571D01*
X117257857Y-84722857D01*
X117186428Y-84651428D01*
X117115000Y-84508571D01*
X117115000Y-84330000D01*
X117186428Y-84187142D01*
X117257857Y-84115714D01*
X117329285Y-84080000D01*
X117472142Y-84044285D01*
X119757857Y-84401428D02*
X120257857Y-84401428D01*
X120472142Y-84794285D02*
X119757857Y-84794285D01*
X119757857Y-84044285D01*
X120472142Y-84044285D01*
X121115000Y-84794285D02*
X121115000Y-84044285D01*
X121972142Y-84794285D01*
X121972142Y-84044285D01*
X123472142Y-84080000D02*
X123329285Y-84044285D01*
X123115000Y-84044285D01*
X122900714Y-84080000D01*
X122757857Y-84151428D01*
X122686428Y-84222857D01*
X122615000Y-84365714D01*
X122615000Y-84472857D01*
X122686428Y-84615714D01*
X122757857Y-84687142D01*
X122900714Y-84758571D01*
X123115000Y-84794285D01*
X123257857Y-84794285D01*
X123472142Y-84758571D01*
X123543571Y-84722857D01*
X123543571Y-84472857D01*
X123257857Y-84472857D01*
X124186428Y-84794285D02*
X124186428Y-84044285D01*
X124186428Y-84401428D02*
X125043571Y-84401428D01*
X125043571Y-84794285D02*
X125043571Y-84044285D01*
X125757857Y-84794285D02*
X125757857Y-84044285D01*
X127257857Y-84080000D02*
X127115000Y-84044285D01*
X126900714Y-84044285D01*
X126686428Y-84080000D01*
X126543571Y-84151428D01*
X126472142Y-84222857D01*
X126400714Y-84365714D01*
X126400714Y-84472857D01*
X126472142Y-84615714D01*
X126543571Y-84687142D01*
X126686428Y-84758571D01*
X126900714Y-84794285D01*
X127043571Y-84794285D01*
X127257857Y-84758571D01*
X127329285Y-84722857D01*
X127329285Y-84472857D01*
X127043571Y-84472857D01*
X127972142Y-84794285D02*
X127972142Y-84044285D01*
X127972142Y-84401428D02*
X128829285Y-84401428D01*
X128829285Y-84794285D02*
X128829285Y-84044285D01*
X129543571Y-84794285D02*
X129543571Y-84044285D01*
X130400714Y-84794285D01*
X130400714Y-84044285D01*
X131115000Y-84401428D02*
X131615000Y-84401428D01*
X131829285Y-84794285D02*
X131115000Y-84794285D01*
X131115000Y-84044285D01*
X131829285Y-84044285D01*
X132472142Y-84401428D02*
X132972142Y-84401428D01*
X133186428Y-84794285D02*
X132472142Y-84794285D01*
X132472142Y-84044285D01*
X133186428Y-84044285D01*
X134686428Y-84794285D02*
X134186428Y-84437142D01*
X133829285Y-84794285D02*
X133829285Y-84044285D01*
X134400714Y-84044285D01*
X134543571Y-84080000D01*
X134615000Y-84115714D01*
X134686428Y-84187142D01*
X134686428Y-84294285D01*
X134615000Y-84365714D01*
X134543571Y-84401428D01*
X134400714Y-84437142D01*
X133829285Y-84437142D01*
X135329285Y-84794285D02*
X135329285Y-84044285D01*
X136043571Y-84794285D02*
X136043571Y-84044285D01*
X136900714Y-84794285D01*
X136900714Y-84044285D01*
X138400714Y-84080000D02*
X138257857Y-84044285D01*
X138043571Y-84044285D01*
X137829285Y-84080000D01*
X137686428Y-84151428D01*
X137615000Y-84222857D01*
X137543571Y-84365714D01*
X137543571Y-84472857D01*
X137615000Y-84615714D01*
X137686428Y-84687142D01*
X137829285Y-84758571D01*
X138043571Y-84794285D01*
X138186428Y-84794285D01*
X138400714Y-84758571D01*
X138472142Y-84722857D01*
X138472142Y-84472857D01*
X138186428Y-84472857D01*
D11*
X92842214Y-144085428D02*
X92642214Y-143799714D01*
X92499357Y-144085428D02*
X92499357Y-143485428D01*
X92727928Y-143485428D01*
X92785071Y-143514000D01*
X92813642Y-143542571D01*
X92842214Y-143599714D01*
X92842214Y-143685428D01*
X92813642Y-143742571D01*
X92785071Y-143771142D01*
X92727928Y-143799714D01*
X92499357Y-143799714D01*
X93099357Y-143771142D02*
X93299357Y-143771142D01*
X93385071Y-144085428D02*
X93099357Y-144085428D01*
X93099357Y-143485428D01*
X93385071Y-143485428D01*
X93556500Y-143485428D02*
X93756500Y-144085428D01*
X93956500Y-143485428D01*
X94156500Y-144085428D02*
X94156500Y-143485428D01*
X94413642Y-144056857D02*
X94499357Y-144085428D01*
X94642214Y-144085428D01*
X94699357Y-144056857D01*
X94727928Y-144028285D01*
X94756500Y-143971142D01*
X94756500Y-143914000D01*
X94727928Y-143856857D01*
X94699357Y-143828285D01*
X94642214Y-143799714D01*
X94527928Y-143771142D01*
X94470785Y-143742571D01*
X94442214Y-143714000D01*
X94413642Y-143656857D01*
X94413642Y-143599714D01*
X94442214Y-143542571D01*
X94470785Y-143514000D01*
X94527928Y-143485428D01*
X94670785Y-143485428D01*
X94756500Y-143514000D01*
X95013642Y-144085428D02*
X95013642Y-143485428D01*
X95413642Y-143485428D02*
X95527928Y-143485428D01*
X95585071Y-143514000D01*
X95642214Y-143571142D01*
X95670785Y-143685428D01*
X95670785Y-143885428D01*
X95642214Y-143999714D01*
X95585071Y-144056857D01*
X95527928Y-144085428D01*
X95413642Y-144085428D01*
X95356500Y-144056857D01*
X95299357Y-143999714D01*
X95270785Y-143885428D01*
X95270785Y-143685428D01*
X95299357Y-143571142D01*
X95356500Y-143514000D01*
X95413642Y-143485428D01*
X95927928Y-144085428D02*
X95927928Y-143485428D01*
X96270785Y-144085428D01*
X96270785Y-143485428D01*
X96556500Y-144028285D02*
X96585071Y-144056857D01*
X96556500Y-144085428D01*
X96527928Y-144056857D01*
X96556500Y-144028285D01*
X96556500Y-144085428D01*
X96556500Y-143714000D02*
X96585071Y-143742571D01*
X96556500Y-143771142D01*
X96527928Y-143742571D01*
X96556500Y-143714000D01*
X96556500Y-143771142D01*
X97270785Y-143914000D02*
X97556500Y-143914000D01*
X97213642Y-144085428D02*
X97413642Y-143485428D01*
X97613642Y-144085428D01*
X92470785Y-145988857D02*
X92556500Y-146017428D01*
X92699357Y-146017428D01*
X92756500Y-145988857D01*
X92785071Y-145960285D01*
X92813642Y-145903142D01*
X92813642Y-145846000D01*
X92785071Y-145788857D01*
X92756500Y-145760285D01*
X92699357Y-145731714D01*
X92585071Y-145703142D01*
X92527928Y-145674571D01*
X92499357Y-145646000D01*
X92470785Y-145588857D01*
X92470785Y-145531714D01*
X92499357Y-145474571D01*
X92527928Y-145446000D01*
X92585071Y-145417428D01*
X92727928Y-145417428D01*
X92813642Y-145446000D01*
X93499357Y-145388857D02*
X92985071Y-146160285D01*
X93699357Y-146017428D02*
X93699357Y-145417428D01*
X94042214Y-146017428D01*
X94042214Y-145417428D01*
X94327928Y-145960285D02*
X94356500Y-145988857D01*
X94327928Y-146017428D01*
X94299357Y-145988857D01*
X94327928Y-145960285D01*
X94327928Y-146017428D01*
X94327928Y-145646000D02*
X94356500Y-145674571D01*
X94327928Y-145703142D01*
X94299357Y-145674571D01*
X94327928Y-145646000D01*
X94327928Y-145703142D01*
X197118785Y-140712000D02*
X197404500Y-140712000D01*
X197061642Y-140883428D02*
X197261642Y-140283428D01*
X197461642Y-140883428D01*
X197633071Y-140854857D02*
X197718785Y-140883428D01*
X197861642Y-140883428D01*
X197918785Y-140854857D01*
X197947357Y-140826285D01*
X197975928Y-140769142D01*
X197975928Y-140712000D01*
X197947357Y-140654857D01*
X197918785Y-140626285D01*
X197861642Y-140597714D01*
X197747357Y-140569142D01*
X197690214Y-140540571D01*
X197661642Y-140512000D01*
X197633071Y-140454857D01*
X197633071Y-140397714D01*
X197661642Y-140340571D01*
X197690214Y-140312000D01*
X197747357Y-140283428D01*
X197890214Y-140283428D01*
X197975928Y-140312000D01*
X198204500Y-140854857D02*
X198290214Y-140883428D01*
X198433071Y-140883428D01*
X198490214Y-140854857D01*
X198518785Y-140826285D01*
X198547357Y-140769142D01*
X198547357Y-140712000D01*
X198518785Y-140654857D01*
X198490214Y-140626285D01*
X198433071Y-140597714D01*
X198318785Y-140569142D01*
X198261642Y-140540571D01*
X198233071Y-140512000D01*
X198204500Y-140454857D01*
X198204500Y-140397714D01*
X198233071Y-140340571D01*
X198261642Y-140312000D01*
X198318785Y-140283428D01*
X198461642Y-140283428D01*
X198547357Y-140312000D01*
X198804500Y-140569142D02*
X199004500Y-140569142D01*
X199090214Y-140883428D02*
X198804500Y-140883428D01*
X198804500Y-140283428D01*
X199090214Y-140283428D01*
X199347357Y-140883428D02*
X199347357Y-140283428D01*
X199547357Y-140712000D01*
X199747357Y-140283428D01*
X199747357Y-140883428D01*
X200233071Y-140569142D02*
X200318785Y-140597714D01*
X200347357Y-140626285D01*
X200375928Y-140683428D01*
X200375928Y-140769142D01*
X200347357Y-140826285D01*
X200318785Y-140854857D01*
X200261642Y-140883428D01*
X200033071Y-140883428D01*
X200033071Y-140283428D01*
X200233071Y-140283428D01*
X200290214Y-140312000D01*
X200318785Y-140340571D01*
X200347357Y-140397714D01*
X200347357Y-140454857D01*
X200318785Y-140512000D01*
X200290214Y-140540571D01*
X200233071Y-140569142D01*
X200033071Y-140569142D01*
X200918785Y-140883428D02*
X200633071Y-140883428D01*
X200633071Y-140283428D01*
X201233071Y-140597714D02*
X201233071Y-140883428D01*
X201033071Y-140283428D02*
X201233071Y-140597714D01*
X201433071Y-140283428D01*
X201633071Y-140826285D02*
X201661642Y-140854857D01*
X201633071Y-140883428D01*
X201604500Y-140854857D01*
X201633071Y-140826285D01*
X201633071Y-140883428D01*
X201633071Y-140512000D02*
X201661642Y-140540571D01*
X201633071Y-140569142D01*
X201604500Y-140540571D01*
X201633071Y-140512000D01*
X201633071Y-140569142D01*
X197118785Y-141449428D02*
X197547357Y-141449428D01*
X197290214Y-141192285D02*
X197118785Y-141963714D01*
X197490214Y-141706571D02*
X197061642Y-141706571D01*
X197318785Y-141963714D02*
X197490214Y-141192285D01*
X198004500Y-141449428D02*
X198004500Y-141849428D01*
X197861642Y-141220857D02*
X197718785Y-141649428D01*
X198090214Y-141649428D01*
X198290214Y-141306571D02*
X198318785Y-141278000D01*
X198375928Y-141249428D01*
X198518785Y-141249428D01*
X198575928Y-141278000D01*
X198604500Y-141306571D01*
X198633071Y-141363714D01*
X198633071Y-141420857D01*
X198604500Y-141506571D01*
X198261642Y-141849428D01*
X198633071Y-141849428D01*
X199004500Y-141249428D02*
X199061642Y-141249428D01*
X199118785Y-141278000D01*
X199147357Y-141306571D01*
X199175928Y-141363714D01*
X199204500Y-141478000D01*
X199204500Y-141620857D01*
X199175928Y-141735142D01*
X199147357Y-141792285D01*
X199118785Y-141820857D01*
X199061642Y-141849428D01*
X199004500Y-141849428D01*
X198947357Y-141820857D01*
X198918785Y-141792285D01*
X198890214Y-141735142D01*
X198861642Y-141620857D01*
X198861642Y-141478000D01*
X198890214Y-141363714D01*
X198918785Y-141306571D01*
X198947357Y-141278000D01*
X199004500Y-141249428D01*
X199461642Y-141620857D02*
X199918785Y-141620857D01*
X200318785Y-141249428D02*
X200375928Y-141249428D01*
X200433071Y-141278000D01*
X200461642Y-141306571D01*
X200490214Y-141363714D01*
X200518785Y-141478000D01*
X200518785Y-141620857D01*
X200490214Y-141735142D01*
X200461642Y-141792285D01*
X200433071Y-141820857D01*
X200375928Y-141849428D01*
X200318785Y-141849428D01*
X200261642Y-141820857D01*
X200233071Y-141792285D01*
X200204500Y-141735142D01*
X200175928Y-141620857D01*
X200175928Y-141478000D01*
X200204500Y-141363714D01*
X200233071Y-141306571D01*
X200261642Y-141278000D01*
X200318785Y-141249428D01*
X200890214Y-141249428D02*
X200947357Y-141249428D01*
X201004500Y-141278000D01*
X201033071Y-141306571D01*
X201061642Y-141363714D01*
X201090214Y-141478000D01*
X201090214Y-141620857D01*
X201061642Y-141735142D01*
X201033071Y-141792285D01*
X201004500Y-141820857D01*
X200947357Y-141849428D01*
X200890214Y-141849428D01*
X200833071Y-141820857D01*
X200804500Y-141792285D01*
X200775928Y-141735142D01*
X200747357Y-141620857D01*
X200747357Y-141478000D01*
X200775928Y-141363714D01*
X200804500Y-141306571D01*
X200833071Y-141278000D01*
X200890214Y-141249428D01*
X201290214Y-141249428D02*
X201661642Y-141249428D01*
X201461642Y-141478000D01*
X201547357Y-141478000D01*
X201604500Y-141506571D01*
X201633071Y-141535142D01*
X201661642Y-141592285D01*
X201661642Y-141735142D01*
X201633071Y-141792285D01*
X201604500Y-141820857D01*
X201547357Y-141849428D01*
X201375928Y-141849428D01*
X201318785Y-141820857D01*
X201290214Y-141792285D01*
X197147357Y-142586857D02*
X197604500Y-142586857D01*
X198204500Y-142815428D02*
X197861642Y-142815428D01*
X198033071Y-142815428D02*
X198033071Y-142215428D01*
X197975928Y-142301142D01*
X197918785Y-142358285D01*
X197861642Y-142386857D01*
X198575928Y-142215428D02*
X198633071Y-142215428D01*
X198690214Y-142244000D01*
X198718785Y-142272571D01*
X198747357Y-142329714D01*
X198775928Y-142444000D01*
X198775928Y-142586857D01*
X198747357Y-142701142D01*
X198718785Y-142758285D01*
X198690214Y-142786857D01*
X198633071Y-142815428D01*
X198575928Y-142815428D01*
X198518785Y-142786857D01*
X198490214Y-142758285D01*
X198461642Y-142701142D01*
X198433071Y-142586857D01*
X198433071Y-142444000D01*
X198461642Y-142329714D01*
X198490214Y-142272571D01*
X198518785Y-142244000D01*
X198575928Y-142215428D01*
X199147357Y-142215428D02*
X199204500Y-142215428D01*
X199261642Y-142244000D01*
X199290214Y-142272571D01*
X199318785Y-142329714D01*
X199347357Y-142444000D01*
X199347357Y-142586857D01*
X199318785Y-142701142D01*
X199290214Y-142758285D01*
X199261642Y-142786857D01*
X199204500Y-142815428D01*
X199147357Y-142815428D01*
X199090214Y-142786857D01*
X199061642Y-142758285D01*
X199033071Y-142701142D01*
X199004500Y-142586857D01*
X199004500Y-142444000D01*
X199033071Y-142329714D01*
X199061642Y-142272571D01*
X199090214Y-142244000D01*
X199147357Y-142215428D01*
X199604500Y-142586857D02*
X200061642Y-142586857D01*
X200461642Y-142215428D02*
X200518785Y-142215428D01*
X200575928Y-142244000D01*
X200604500Y-142272571D01*
X200633071Y-142329714D01*
X200661642Y-142444000D01*
X200661642Y-142586857D01*
X200633071Y-142701142D01*
X200604500Y-142758285D01*
X200575928Y-142786857D01*
X200518785Y-142815428D01*
X200461642Y-142815428D01*
X200404500Y-142786857D01*
X200375928Y-142758285D01*
X200347357Y-142701142D01*
X200318785Y-142586857D01*
X200318785Y-142444000D01*
X200347357Y-142329714D01*
X200375928Y-142272571D01*
X200404500Y-142244000D01*
X200461642Y-142215428D01*
X201033071Y-142215428D02*
X201090214Y-142215428D01*
X201147357Y-142244000D01*
X201175928Y-142272571D01*
X201204500Y-142329714D01*
X201233071Y-142444000D01*
X201233071Y-142586857D01*
X201204500Y-142701142D01*
X201175928Y-142758285D01*
X201147357Y-142786857D01*
X201090214Y-142815428D01*
X201033071Y-142815428D01*
X200975928Y-142786857D01*
X200947357Y-142758285D01*
X200918785Y-142701142D01*
X200890214Y-142586857D01*
X200890214Y-142444000D01*
X200918785Y-142329714D01*
X200947357Y-142272571D01*
X200975928Y-142244000D01*
X201033071Y-142215428D01*
X201604500Y-142215428D02*
X201661642Y-142215428D01*
X201718785Y-142244000D01*
X201747357Y-142272571D01*
X201775928Y-142329714D01*
X201804500Y-142444000D01*
X201804500Y-142586857D01*
X201775928Y-142701142D01*
X201747357Y-142758285D01*
X201718785Y-142786857D01*
X201661642Y-142815428D01*
X201604500Y-142815428D01*
X201547357Y-142786857D01*
X201518785Y-142758285D01*
X201490214Y-142701142D01*
X201461642Y-142586857D01*
X201461642Y-142444000D01*
X201490214Y-142329714D01*
X201518785Y-142272571D01*
X201547357Y-142244000D01*
X201604500Y-142215428D01*
X197147357Y-144747428D02*
X197147357Y-144147428D01*
X197375928Y-144147428D01*
X197433071Y-144176000D01*
X197461642Y-144204571D01*
X197490214Y-144261714D01*
X197490214Y-144347428D01*
X197461642Y-144404571D01*
X197433071Y-144433142D01*
X197375928Y-144461714D01*
X197147357Y-144461714D01*
X198090214Y-144690285D02*
X198061642Y-144718857D01*
X197975928Y-144747428D01*
X197918785Y-144747428D01*
X197833071Y-144718857D01*
X197775928Y-144661714D01*
X197747357Y-144604571D01*
X197718785Y-144490285D01*
X197718785Y-144404571D01*
X197747357Y-144290285D01*
X197775928Y-144233142D01*
X197833071Y-144176000D01*
X197918785Y-144147428D01*
X197975928Y-144147428D01*
X198061642Y-144176000D01*
X198090214Y-144204571D01*
X198547357Y-144433142D02*
X198633071Y-144461714D01*
X198661642Y-144490285D01*
X198690214Y-144547428D01*
X198690214Y-144633142D01*
X198661642Y-144690285D01*
X198633071Y-144718857D01*
X198575928Y-144747428D01*
X198347357Y-144747428D01*
X198347357Y-144147428D01*
X198547357Y-144147428D01*
X198604500Y-144176000D01*
X198633071Y-144204571D01*
X198661642Y-144261714D01*
X198661642Y-144318857D01*
X198633071Y-144376000D01*
X198604500Y-144404571D01*
X198547357Y-144433142D01*
X198347357Y-144433142D01*
X198947357Y-144690285D02*
X198975928Y-144718857D01*
X198947357Y-144747428D01*
X198918785Y-144718857D01*
X198947357Y-144690285D01*
X198947357Y-144747428D01*
X198947357Y-144376000D02*
X198975928Y-144404571D01*
X198947357Y-144433142D01*
X198918785Y-144404571D01*
X198947357Y-144376000D01*
X198947357Y-144433142D01*
X197118785Y-145313428D02*
X197547357Y-145313428D01*
X197290214Y-145056285D02*
X197118785Y-145827714D01*
X197490214Y-145570571D02*
X197061642Y-145570571D01*
X197318785Y-145827714D02*
X197490214Y-145056285D01*
X198004500Y-145313428D02*
X198004500Y-145713428D01*
X197861642Y-145084857D02*
X197718785Y-145513428D01*
X198090214Y-145513428D01*
X198290214Y-145170571D02*
X198318785Y-145142000D01*
X198375928Y-145113428D01*
X198518785Y-145113428D01*
X198575928Y-145142000D01*
X198604500Y-145170571D01*
X198633071Y-145227714D01*
X198633071Y-145284857D01*
X198604500Y-145370571D01*
X198261642Y-145713428D01*
X198633071Y-145713428D01*
X199004500Y-145113428D02*
X199061642Y-145113428D01*
X199118785Y-145142000D01*
X199147357Y-145170571D01*
X199175928Y-145227714D01*
X199204500Y-145342000D01*
X199204500Y-145484857D01*
X199175928Y-145599142D01*
X199147357Y-145656285D01*
X199118785Y-145684857D01*
X199061642Y-145713428D01*
X199004500Y-145713428D01*
X198947357Y-145684857D01*
X198918785Y-145656285D01*
X198890214Y-145599142D01*
X198861642Y-145484857D01*
X198861642Y-145342000D01*
X198890214Y-145227714D01*
X198918785Y-145170571D01*
X198947357Y-145142000D01*
X199004500Y-145113428D01*
X199461642Y-145484857D02*
X199918785Y-145484857D01*
X200318785Y-145113428D02*
X200375928Y-145113428D01*
X200433071Y-145142000D01*
X200461642Y-145170571D01*
X200490214Y-145227714D01*
X200518785Y-145342000D01*
X200518785Y-145484857D01*
X200490214Y-145599142D01*
X200461642Y-145656285D01*
X200433071Y-145684857D01*
X200375928Y-145713428D01*
X200318785Y-145713428D01*
X200261642Y-145684857D01*
X200233071Y-145656285D01*
X200204500Y-145599142D01*
X200175928Y-145484857D01*
X200175928Y-145342000D01*
X200204500Y-145227714D01*
X200233071Y-145170571D01*
X200261642Y-145142000D01*
X200318785Y-145113428D01*
X200890214Y-145113428D02*
X200947357Y-145113428D01*
X201004500Y-145142000D01*
X201033071Y-145170571D01*
X201061642Y-145227714D01*
X201090214Y-145342000D01*
X201090214Y-145484857D01*
X201061642Y-145599142D01*
X201033071Y-145656285D01*
X201004500Y-145684857D01*
X200947357Y-145713428D01*
X200890214Y-145713428D01*
X200833071Y-145684857D01*
X200804500Y-145656285D01*
X200775928Y-145599142D01*
X200747357Y-145484857D01*
X200747357Y-145342000D01*
X200775928Y-145227714D01*
X200804500Y-145170571D01*
X200833071Y-145142000D01*
X200890214Y-145113428D01*
X201290214Y-145113428D02*
X201661642Y-145113428D01*
X201461642Y-145342000D01*
X201547357Y-145342000D01*
X201604500Y-145370571D01*
X201633071Y-145399142D01*
X201661642Y-145456285D01*
X201661642Y-145599142D01*
X201633071Y-145656285D01*
X201604500Y-145684857D01*
X201547357Y-145713428D01*
X201375928Y-145713428D01*
X201318785Y-145684857D01*
X201290214Y-145656285D01*
X197147357Y-146450857D02*
X197604500Y-146450857D01*
X198204500Y-146679428D02*
X197861642Y-146679428D01*
X198033071Y-146679428D02*
X198033071Y-146079428D01*
X197975928Y-146165142D01*
X197918785Y-146222285D01*
X197861642Y-146250857D01*
X198775928Y-146679428D02*
X198433071Y-146679428D01*
X198604500Y-146679428D02*
X198604500Y-146079428D01*
X198547357Y-146165142D01*
X198490214Y-146222285D01*
X198433071Y-146250857D01*
X199147357Y-146079428D02*
X199204500Y-146079428D01*
X199261642Y-146108000D01*
X199290214Y-146136571D01*
X199318785Y-146193714D01*
X199347357Y-146308000D01*
X199347357Y-146450857D01*
X199318785Y-146565142D01*
X199290214Y-146622285D01*
X199261642Y-146650857D01*
X199204500Y-146679428D01*
X199147357Y-146679428D01*
X199090214Y-146650857D01*
X199061642Y-146622285D01*
X199033071Y-146565142D01*
X199004500Y-146450857D01*
X199004500Y-146308000D01*
X199033071Y-146193714D01*
X199061642Y-146136571D01*
X199090214Y-146108000D01*
X199147357Y-146079428D01*
X199604500Y-146450857D02*
X200061642Y-146450857D01*
X200461642Y-146079428D02*
X200518785Y-146079428D01*
X200575928Y-146108000D01*
X200604500Y-146136571D01*
X200633071Y-146193714D01*
X200661642Y-146308000D01*
X200661642Y-146450857D01*
X200633071Y-146565142D01*
X200604500Y-146622285D01*
X200575928Y-146650857D01*
X200518785Y-146679428D01*
X200461642Y-146679428D01*
X200404500Y-146650857D01*
X200375928Y-146622285D01*
X200347357Y-146565142D01*
X200318785Y-146450857D01*
X200318785Y-146308000D01*
X200347357Y-146193714D01*
X200375928Y-146136571D01*
X200404500Y-146108000D01*
X200461642Y-146079428D01*
X201033071Y-146079428D02*
X201090214Y-146079428D01*
X201147357Y-146108000D01*
X201175928Y-146136571D01*
X201204500Y-146193714D01*
X201233071Y-146308000D01*
X201233071Y-146450857D01*
X201204500Y-146565142D01*
X201175928Y-146622285D01*
X201147357Y-146650857D01*
X201090214Y-146679428D01*
X201033071Y-146679428D01*
X200975928Y-146650857D01*
X200947357Y-146622285D01*
X200918785Y-146565142D01*
X200890214Y-146450857D01*
X200890214Y-146308000D01*
X200918785Y-146193714D01*
X200947357Y-146136571D01*
X200975928Y-146108000D01*
X201033071Y-146079428D01*
X201604500Y-146079428D02*
X201661642Y-146079428D01*
X201718785Y-146108000D01*
X201747357Y-146136571D01*
X201775928Y-146193714D01*
X201804500Y-146308000D01*
X201804500Y-146450857D01*
X201775928Y-146565142D01*
X201747357Y-146622285D01*
X201718785Y-146650857D01*
X201661642Y-146679428D01*
X201604500Y-146679428D01*
X201547357Y-146650857D01*
X201518785Y-146622285D01*
X201490214Y-146565142D01*
X201461642Y-146450857D01*
X201461642Y-146308000D01*
X201490214Y-146193714D01*
X201518785Y-146136571D01*
X201547357Y-146108000D01*
X201604500Y-146079428D01*
X202061642Y-146450857D02*
X202518785Y-146450857D01*
X202775928Y-146508000D02*
X203061642Y-146508000D01*
X202718785Y-146679428D02*
X202918785Y-146079428D01*
X203118785Y-146679428D01*
D13*
X200342500Y-67310000D03*
D14*
X202742500Y-67310000D03*
X202039556Y-69007056D03*
X200342500Y-69710000D03*
X198645444Y-69007056D03*
X197942500Y-67310000D03*
X198645444Y-65612944D03*
X200342500Y-64910000D03*
X202039556Y-65612944D03*
D13*
X200342500Y-126365000D03*
D14*
X202742500Y-126365000D03*
X202039556Y-128062056D03*
X200342500Y-128765000D03*
X198645444Y-128062056D03*
X197942500Y-126365000D03*
X198645444Y-124667944D03*
X200342500Y-123965000D03*
X202039556Y-124667944D03*
D13*
X94932500Y-67310000D03*
D14*
X97332500Y-67310000D03*
X96629556Y-69007056D03*
X94932500Y-69710000D03*
X93235444Y-69007056D03*
X92532500Y-67310000D03*
X93235444Y-65612944D03*
X94932500Y-64910000D03*
X96629556Y-65612944D03*
D13*
X94932500Y-126365000D03*
D14*
X97332500Y-126365000D03*
X96629556Y-128062056D03*
X94932500Y-128765000D03*
X93235444Y-128062056D03*
X92532500Y-126365000D03*
X93235444Y-124667944D03*
X94932500Y-123965000D03*
X96629556Y-124667944D03*
M02*
