<?xml version="1.0" standalone="no"?>
 <!DOCTYPE svg PUBLIC "-//W3C//DTD SVG 1.1//EN" 
 "http://www.w3.org/Graphics/SVG/1.1/DTD/svg11.dtd"> 
<svg
  xmlns:svg="http://www.w3.org/2000/svg"
  xmlns="http://www.w3.org/2000/svg"
  xmlns:xlink="http://www.w3.org/1999/xlink"
  version="1.1"
  width="29.700220cm" height="21.000720cm" viewBox="0 0 297002200 210007200">
<title>SVG Picture created as #110-000-S1A - Phasor PCB-Edge_Cuts.svg date 2020/07/05 21:02:58 </title>
  <desc>Picture generated by PCBNEW </desc>
<g style="fill:#000000; fill-opacity:1.000000;stroke:#000000; stroke-opacity:1.000000;
stroke-linecap:round; stroke-linejoin:round;"
 transform="translate(0 0) scale(1 1)">
</g>
<g style="fill:#000000; fill-opacity:0.0; 
stroke:#000000; stroke-width:0.000000; stroke-opacity:1; 
stroke-linecap:round; stroke-linejoin:round;">
</g>
<g style="fill:#000000; fill-opacity:0.0; 
stroke:#000000; stroke-width:381000.000000; stroke-opacity:1; 
stroke-linecap:round; stroke-linejoin:round;">
<path d="M140792200.000000 45085000.000000 A1905000.000000 1905000.000000 0.0 0 0 142697200.000000 46990000.000000" />
<path d="M140792200.000000 45085000.000000 A635000.000000 635000.000000 0.0 0 0 140157200.000000 44450000.000000" />
<path d="M115074700 44450000
L140157200 44450000
" />
<path d="M142697200 46990000
L156032200 46990000
" />
<path d="M156032200.000000 46990000.000000 A1905000.000000 1905000.000000 0.0 0 0 157937200.000000 45085000.000000" />
<path d="M158572200.000000 44450000.000000 A635000.000000 635000.000000 0.0 0 0 157937200.000000 45085000.000000" />
<path d="M205562200.000000 52070000.000000 A635000.000000 635000.000000 0.0 0 0 204927200.000000 51435000.000000" />
<path d="M204927200.000000 71120000.000000 A635000.000000 635000.000000 0.0 0 0 205562200.000000 70485000.000000" />
<path d="M205562200.000000 81915000.000000 A635000.000000 635000.000000 0.0 0 0 204927200.000000 81280000.000000" />
<path d="M204927200.000000 129540000.000000 A635000.000000 635000.000000 0.0 0 0 205562200.000000 128905000.000000" />
<path d="M205562200.000000 140335000.000000 A635000.000000 635000.000000 0.0 0 0 204927200.000000 139700000.000000" />
<path d="M204927200.000000 147320000.000000 A635000.000000 635000.000000 0.0 0 0 205562200.000000 146685000.000000" />
<path d="M93167200.000000 146685000.000000 A635000.000000 635000.000000 0.0 0 0 93802200.000000 147320000.000000" />
<path d="M93802200.000000 139700000.000000 A635000.000000 635000.000000 0.0 0 0 93167200.000000 140335000.000000" />
<path d="M93167200.000000 128905000.000000 A635000.000000 635000.000000 0.0 0 0 93802200.000000 129540000.000000" />
<path d="M93802200.000000 81280000.000000 A635000.000000 635000.000000 0.0 0 0 93167200.000000 81915000.000000" />
<path d="M93167200.000000 70485000.000000 A635000.000000 635000.000000 0.0 0 0 93802200.000000 71120000.000000" />
<path d="M93802200.000000 51435000.000000 A635000.000000 635000.000000 0.0 0 0 93167200.000000 52070000.000000" />
<path d="M100787200.000000 44450000.000000 A635000.000000 635000.000000 0.0 0 0 100152200.000000 45085000.000000" />
<path d="M108089700.000000 45085000.000000 A635000.000000 635000.000000 0.0 0 0 107454700.000000 44450000.000000" />
<path d="M115074700.000000 44450000.000000 A635000.000000 635000.000000 0.0 0 0 114439700.000000 45085000.000000" />
<path d="M184289700.000000 45085000.000000 A635000.000000 635000.000000 0.0 0 0 183654700.000000 44450000.000000" />
<path d="M191274700.000000 44450000.000000 A635000.000000 635000.000000 0.0 0 0 190639700.000000 45085000.000000" />
<path d="M198577200.000000 45085000.000000 A635000.000000 635000.000000 0.0 0 0 197942200.000000 44450000.000000" />
<path d="M108089700.000000 45085000.000000 A3175000.000000 3175000.000000 0.0 0 0 114439700.000000 45085000.000000" />
<path d="M100787200 44450000
L107454700 44450000
" />
<path d="M191274700 44450000
L197942200 44450000
" />
<path d="M184289700.383003 45084999.920631 A3237877.000000 3237877.000000 0.0 0 0 190639699.616464 45084999.923293" />
<path d="M205562200 70485000
L205562200 52070000
" />
<path d="M93167200 128905000
L93167200 81915000
" />
<path d="M94437200.000000 81280000.000000 A5080000.000000 5080000.000000 0.0 0 0 94437200.000000 71120000.000000" />
<path d="M94437200 81280000
L93802200 81280000
" />
<path d="M94437200 71120000
L93802200 71120000
" />
<path d="M204292200.000000 71120000.000000 A5080000.000000 5080000.000000 0.0 0 0 204292200.000000 81280000.000000" />
<path d="M204292200 71120000
L204927200 71120000
" />
<path d="M204292200 81280000
L204927200 81280000
" />
<path d="M204292200 129540000
L204927200 129540000
" />
<path d="M100152200 45085000
L100152200 45720000
" />
<path d="M93802200 51435000
L94437200 51435000
" />
<path d="M93802200 129540000
L94437200 129540000
" />
<path d="M93802200 139700000
L94437200 139700000
" />
<path d="M204292200 147320000
L204927200 147320000
" />
<path d="M204292200 139700000
L204927200 139700000
" />
<path d="M204292200 51435000
L204927200 51435000
" />
<path d="M198577200 45720000
L198577200 45085000
" />
<path d="M94437200.000000 139700000.000000 A5080000.000000 5080000.000000 0.0 0 0 94437200.000000 129540000.000000" />
<path d="M94437200.000000 51435000.000000 A5715000.000000 5715000.000000 0.0 0 0 100152200.000000 45720000.000000" />
<path d="M205562200 140335000
L205562200 146685000
" />
<path d="M204292200.000000 129540000.000000 A5080000.000000 5080000.000000 0.0 0 0 204292200.000000 139700000.000000" />
<path d="M198577200.000000 45720000.000000 A5715000.000000 5715000.000000 0.0 0 0 204292200.000000 51435000.000000" />
<path d="M93167200 140335000
L93167200 146685000
" />
<path d="M158572200 44450000
L183654700 44450000
" />
<path d="M93167200 70485000
L93167200 52070000
" />
<path d="M204292200 147320000
L93802200 147320000
" />
<path d="M205562200 128905000
L205562200 81915000
" />
<g >
</g>
<g >
</g>
<g >
</g>
<g >
</g>
<g >
</g>
<g >
</g>
<g >
</g>
<g >
</g>
<g >
</g>
<g >
</g>
<g >
</g>
<g >
</g>
<g >
</g>
<g >
</g>
<g >
</g>
<g >
</g>
<g >
</g>
<g >
</g>
<g >
</g>
<g >
</g>
<g >
</g>
<g >
</g>
<g >
</g>
<g >
</g>
<g >
</g>
<g >
</g>
<g >
</g>
<g >
</g>
<g >
</g>
<g >
</g>
<g >
</g>
<g >
</g>
<g >
</g>
<g >
</g>
<g >
</g>
<g >
</g>
<g >
</g>
<g >
</g>
<g >
</g>
<g >
</g>
<g >
</g>
<g >
</g>
<g >
</g>
<g >
</g>
<g >
</g>
<g >
</g>
<g >
</g>
<g >
</g>
<g >
</g>
<g >
</g>
<g >
</g>
<g >
</g>
<g >
</g>
<g >
</g>
<g >
</g>
<g >
</g>
<g >
</g>
<g >
</g>
<g >
</g>
<g >
</g>
<g >
</g>
<g >
</g>
<g >
</g>
<g >
</g>
<g >
</g>
<g >
</g>
<g >
</g>
<g >
</g>
<g >
</g>
<g >
</g>
<g >
</g>
<g >
</g>
<g >
</g>
<g >
</g>
<g >
</g>
<g >
</g>
<g >
</g>
<g >
</g>
<g >
</g>
<g >
</g>
<g >
</g>
<g >
</g>
<g >
</g>
<g >
</g>
<g >
</g>
<g >
</g>
<g >
</g>
<g >
</g>
<g >
</g>
<g >
</g>
<g >
</g>
<g >
</g>
<g >
</g>
<g >
</g>
<g >
</g>
<g >
</g>
<g >
</g>
<g >
</g>
<g >
</g>
<g >
</g>
<g >
</g>
<g >
</g>
<g >
</g>
<g >
</g>
<g >
</g>
<g >
</g>
<g >
</g>
<g >
</g>
<g >
</g>
<g >
</g>
<g >
</g>
<g >
</g>
<g >
</g>
<g >
</g>
<g >
</g>
<g >
</g>
<g >
</g>
<g >
</g>
<g >
</g>
<g >
</g>
<g >
</g>
<g >
</g>
<g >
</g>
<g >
</g>
<g >
</g>
<g >
</g>
<g >
</g>
<g >
</g>
<g >
</g>
<g >
</g>
<g >
</g>
<g >
</g>
<g >
</g>
<g >
</g>
<g >
</g>
<g >
</g>
<g >
</g>
<g >
</g>
<g >
</g>
<g >
</g>
<g >
</g>
<g >
</g>
<g >
</g>
<g >
</g>
<g >
</g>
<g >
</g>
<g >
</g>
<g >
</g>
<g >
</g>
<g >
</g>
<g >
</g>
<g >
</g>
<g >
</g>
<g >
</g>
</g> 
</svg>
