G04 #@! TF.GenerationSoftware,KiCad,Pcbnew,(5.99.0-1918-g94cd0cf3a)*
G04 #@! TF.CreationDate,2020-06-10T22:19:03+02:00*
G04 #@! TF.ProjectId,#110-000-S1A - Phasor PCB,23313130-2d30-4303-902d-533141202d20,rev?*
G04 #@! TF.SameCoordinates,Original*
G04 #@! TF.FileFunction,Legend,Top*
G04 #@! TF.FilePolarity,Positive*
%FSLAX46Y46*%
G04 Gerber Fmt 4.6, Leading zero omitted, Abs format (unit mm)*
G04 Created by KiCad (PCBNEW (5.99.0-1918-g94cd0cf3a)) date 2020-06-10 22:19:03*
%MOMM*%
%LPD*%
G01*
G04 APERTURE LIST*
%ADD10C,0.150000*%
G04 APERTURE END LIST*
D10*
X130924761Y-115131904D02*
X130924761Y-115703333D01*
X130886666Y-115817619D01*
X130810476Y-115893809D01*
X130696190Y-115931904D01*
X130620000Y-115931904D01*
X131686666Y-115931904D02*
X131305714Y-115931904D01*
X131305714Y-115131904D01*
X132410476Y-115855714D02*
X132372380Y-115893809D01*
X132258095Y-115931904D01*
X132181904Y-115931904D01*
X132067619Y-115893809D01*
X131991428Y-115817619D01*
X131953333Y-115741428D01*
X131915238Y-115589047D01*
X131915238Y-115474761D01*
X131953333Y-115322380D01*
X131991428Y-115246190D01*
X132067619Y-115170000D01*
X132181904Y-115131904D01*
X132258095Y-115131904D01*
X132372380Y-115170000D01*
X132410476Y-115208095D01*
X132981904Y-115131904D02*
X132981904Y-115703333D01*
X132943809Y-115817619D01*
X132867619Y-115893809D01*
X132753333Y-115931904D01*
X132677142Y-115931904D01*
X133743809Y-115931904D02*
X133362857Y-115931904D01*
X133362857Y-115131904D01*
X134467619Y-115855714D02*
X134429523Y-115893809D01*
X134315238Y-115931904D01*
X134239047Y-115931904D01*
X134124761Y-115893809D01*
X134048571Y-115817619D01*
X134010476Y-115741428D01*
X133972380Y-115589047D01*
X133972380Y-115474761D01*
X134010476Y-115322380D01*
X134048571Y-115246190D01*
X134124761Y-115170000D01*
X134239047Y-115131904D01*
X134315238Y-115131904D01*
X134429523Y-115170000D01*
X134467619Y-115208095D01*
X135039047Y-115131904D02*
X135039047Y-115703333D01*
X135000952Y-115817619D01*
X134924761Y-115893809D01*
X134810476Y-115931904D01*
X134734285Y-115931904D01*
X135800952Y-115931904D02*
X135420000Y-115931904D01*
X135420000Y-115131904D01*
X136524761Y-115855714D02*
X136486666Y-115893809D01*
X136372380Y-115931904D01*
X136296190Y-115931904D01*
X136181904Y-115893809D01*
X136105714Y-115817619D01*
X136067619Y-115741428D01*
X136029523Y-115589047D01*
X136029523Y-115474761D01*
X136067619Y-115322380D01*
X136105714Y-115246190D01*
X136181904Y-115170000D01*
X136296190Y-115131904D01*
X136372380Y-115131904D01*
X136486666Y-115170000D01*
X136524761Y-115208095D01*
X137096190Y-115131904D02*
X137096190Y-115703333D01*
X137058095Y-115817619D01*
X136981904Y-115893809D01*
X136867619Y-115931904D01*
X136791428Y-115931904D01*
X137858095Y-115931904D02*
X137477142Y-115931904D01*
X137477142Y-115131904D01*
X138581904Y-115855714D02*
X138543809Y-115893809D01*
X138429523Y-115931904D01*
X138353333Y-115931904D01*
X138239047Y-115893809D01*
X138162857Y-115817619D01*
X138124761Y-115741428D01*
X138086666Y-115589047D01*
X138086666Y-115474761D01*
X138124761Y-115322380D01*
X138162857Y-115246190D01*
X138239047Y-115170000D01*
X138353333Y-115131904D01*
X138429523Y-115131904D01*
X138543809Y-115170000D01*
X138581904Y-115208095D01*
M02*
