G04 #@! TF.GenerationSoftware,KiCad,Pcbnew,(5.99.0-1918-g94cd0cf3a)*
G04 #@! TF.CreationDate,2020-06-09T19:16:22+02:00*
G04 #@! TF.ProjectId,#610-000-S1B - Power Jack PCB [1614 09_ Wide_ Multi Protection],23363130-2d30-4303-902d-533142202d20,rev?*
G04 #@! TF.SameCoordinates,Original*
G04 #@! TF.FileFunction,Soldermask,Top*
G04 #@! TF.FilePolarity,Negative*
%FSLAX46Y46*%
G04 Gerber Fmt 4.6, Leading zero omitted, Abs format (unit mm)*
G04 Created by KiCad (PCBNEW (5.99.0-1918-g94cd0cf3a)) date 2020-06-09 19:16:22*
%MOMM*%
%LPD*%
G01*
G04 APERTURE LIST*
%ADD10C,2.101600*%
%ADD11O,1.101600X2.101600*%
%ADD12C,1.000000*%
%ADD13O,2.101600X5.601600*%
%ADD14O,2.101600X4.101600*%
%ADD15C,1.501600*%
%ADD16O,1.501600X1.501600*%
G04 APERTURE END LIST*
G36*
G01*
X143780000Y-99184200D02*
X145780000Y-99184200D01*
G75*
G02*
X145830800Y-99235000I0J-50800D01*
G01*
X145830800Y-101235000D01*
G75*
G02*
X145780000Y-101285800I-50800J0D01*
G01*
X143780000Y-101285800D01*
G75*
G02*
X143729200Y-101235000I0J50800D01*
G01*
X143729200Y-99235000D01*
G75*
G02*
X143780000Y-99184200I50800J0D01*
G01*
G37*
G36*
G01*
X143780000Y-103184200D02*
X145780000Y-103184200D01*
G75*
G02*
X145830800Y-103235000I0J-50800D01*
G01*
X145830800Y-105235000D01*
G75*
G02*
X145780000Y-105285800I-50800J0D01*
G01*
X143780000Y-105285800D01*
G75*
G02*
X143729200Y-105235000I0J50800D01*
G01*
X143729200Y-103235000D01*
G75*
G02*
X143780000Y-103184200I50800J0D01*
G01*
G37*
G36*
G01*
X148654200Y-101785000D02*
X148654200Y-101385000D01*
G75*
G02*
X148705000Y-101334200I50800J0D01*
G01*
X149305000Y-101334200D01*
G75*
G02*
X149355800Y-101385000I0J-50800D01*
G01*
X149355800Y-101785000D01*
G75*
G02*
X149305000Y-101835800I-50800J0D01*
G01*
X148705000Y-101835800D01*
G75*
G02*
X148654200Y-101785000I0J50800D01*
G01*
G37*
G36*
G01*
X148654200Y-103085000D02*
X148654200Y-102685000D01*
G75*
G02*
X148705000Y-102634200I50800J0D01*
G01*
X149305000Y-102634200D01*
G75*
G02*
X149355800Y-102685000I0J-50800D01*
G01*
X149355800Y-103085000D01*
G75*
G02*
X149305000Y-103135800I-50800J0D01*
G01*
X148705000Y-103135800D01*
G75*
G02*
X148654200Y-103085000I0J50800D01*
G01*
G37*
G36*
G01*
X146554200Y-102435000D02*
X146554200Y-102035000D01*
G75*
G02*
X146605000Y-101984200I50800J0D01*
G01*
X147205000Y-101984200D01*
G75*
G02*
X147255800Y-102035000I0J-50800D01*
G01*
X147255800Y-102435000D01*
G75*
G02*
X147205000Y-102485800I-50800J0D01*
G01*
X146605000Y-102485800D01*
G75*
G02*
X146554200Y-102435000I0J50800D01*
G01*
G37*
G36*
G01*
X148654200Y-102435000D02*
X148654200Y-102035000D01*
G75*
G02*
X148705000Y-101984200I50800J0D01*
G01*
X149305000Y-101984200D01*
G75*
G02*
X149355800Y-102035000I0J-50800D01*
G01*
X149355800Y-102435000D01*
G75*
G02*
X149305000Y-102485800I-50800J0D01*
G01*
X148705000Y-102485800D01*
G75*
G02*
X148654200Y-102435000I0J50800D01*
G01*
G37*
G36*
G01*
X146554200Y-103085000D02*
X146554200Y-102685000D01*
G75*
G02*
X146605000Y-102634200I50800J0D01*
G01*
X147205000Y-102634200D01*
G75*
G02*
X147255800Y-102685000I0J-50800D01*
G01*
X147255800Y-103085000D01*
G75*
G02*
X147205000Y-103135800I-50800J0D01*
G01*
X146605000Y-103135800D01*
G75*
G02*
X146554200Y-103085000I0J50800D01*
G01*
G37*
G36*
G01*
X146554200Y-101785000D02*
X146554200Y-101385000D01*
G75*
G02*
X146605000Y-101334200I50800J0D01*
G01*
X147205000Y-101334200D01*
G75*
G02*
X147255800Y-101385000I0J-50800D01*
G01*
X147255800Y-101785000D01*
G75*
G02*
X147205000Y-101835800I-50800J0D01*
G01*
X146605000Y-101835800D01*
G75*
G02*
X146554200Y-101785000I0J50800D01*
G01*
G37*
G36*
G01*
X150652500Y-103510800D02*
X149702500Y-103510800D01*
G75*
G02*
X149651700Y-103460000I0J50800D01*
G01*
X149651700Y-102585000D01*
G75*
G02*
X149702500Y-102534200I50800J0D01*
G01*
X150652500Y-102534200D01*
G75*
G02*
X150703300Y-102585000I0J-50800D01*
G01*
X150703300Y-103460000D01*
G75*
G02*
X150652500Y-103510800I-50800J0D01*
G01*
G37*
G36*
G01*
X150652500Y-101935800D02*
X149702500Y-101935800D01*
G75*
G02*
X149651700Y-101885000I0J50800D01*
G01*
X149651700Y-101010000D01*
G75*
G02*
X149702500Y-100959200I50800J0D01*
G01*
X150652500Y-100959200D01*
G75*
G02*
X150703300Y-101010000I0J-50800D01*
G01*
X150703300Y-101885000D01*
G75*
G02*
X150652500Y-101935800I-50800J0D01*
G01*
G37*
G36*
G01*
X152910800Y-96155000D02*
X152910800Y-98155000D01*
G75*
G02*
X152860000Y-98205800I-50800J0D01*
G01*
X150860000Y-98205800D01*
G75*
G02*
X150809200Y-98155000I0J50800D01*
G01*
X150809200Y-96155000D01*
G75*
G02*
X150860000Y-96104200I50800J0D01*
G01*
X152860000Y-96104200D01*
G75*
G02*
X152910800Y-96155000I0J-50800D01*
G01*
G37*
G36*
G01*
X148910800Y-96155000D02*
X148910800Y-98155000D01*
G75*
G02*
X148860000Y-98205800I-50800J0D01*
G01*
X146860000Y-98205800D01*
G75*
G02*
X146809200Y-98155000I0J50800D01*
G01*
X146809200Y-96155000D01*
G75*
G02*
X146860000Y-96104200I50800J0D01*
G01*
X148860000Y-96104200D01*
G75*
G02*
X148910800Y-96155000I0J-50800D01*
G01*
G37*
G36*
G01*
X156969200Y-98155000D02*
X156969200Y-96155000D01*
G75*
G02*
X157020000Y-96104200I50800J0D01*
G01*
X159020000Y-96104200D01*
G75*
G02*
X159070800Y-96155000I0J-50800D01*
G01*
X159070800Y-98155000D01*
G75*
G02*
X159020000Y-98205800I-50800J0D01*
G01*
X157020000Y-98205800D01*
G75*
G02*
X156969200Y-98155000I0J50800D01*
G01*
G37*
G36*
G01*
X160969200Y-98155000D02*
X160969200Y-96155000D01*
G75*
G02*
X161020000Y-96104200I50800J0D01*
G01*
X163020000Y-96104200D01*
G75*
G02*
X163070800Y-96155000I0J-50800D01*
G01*
X163070800Y-98155000D01*
G75*
G02*
X163020000Y-98205800I-50800J0D01*
G01*
X161020000Y-98205800D01*
G75*
G02*
X160969200Y-98155000I0J50800D01*
G01*
G37*
D10*
X158432500Y-108267500D03*
D11*
X160655000Y-108267500D03*
X156210000Y-108267500D03*
D12*
X157162500Y-106045000D03*
X159702500Y-106045000D03*
D13*
X157440000Y-101600000D03*
D14*
X152440000Y-101600000D03*
D10*
X151447500Y-108267500D03*
D11*
X153670000Y-108267500D03*
X149225000Y-108267500D03*
D12*
X150177500Y-106045000D03*
X152717500Y-106045000D03*
D15*
X162560000Y-99695000D03*
D16*
X162560000Y-104775000D03*
M02*
